<svg xmlns="http://www.w3.org/2000/svg" xmlns:xlink="http://www.w3.org/1999/xlink" contentStyleType="text/css" data-diagram-type="DESCRIPTION" height="619px" preserveAspectRatio="none" style="width:1198px;height:619px;background:#FAFAFA;" version="1.1" viewBox="0 0 1198 619" width="1198px" zoomAndPan="magnify"><?plantuml 1.2026.6?><defs><filter height="300%" id="fxxfftimrxsbv" width="300%" x="-1" y="-1"><feGaussianBlur result="blurOut" stdDeviation="2"/><feColorMatrix in="blurOut" result="blurOut2" type="matrix" values="0 0 0 0 0 0 0 0 0 0 0 0 0 0 0 0 0 0 .4 0"/><feOffset dx="4" dy="4" in="blurOut2" result="blurOut3"/><feBlend in="SourceGraphic" in2="blurOut3" mode="normal"/></filter></defs><g><rect fill="#FAFAFA" height="619" style="stroke:none;stroke-width:1;" width="1198" x="0" y="0"/><g class="title" data-source-line="231"><rect fill="none" height="33.2813" style="stroke:#585858;stroke-width:1;" width="679.6582" x="255.6709" y="5"/><text fill="#005F7F" font-family="sans-serif" font-size="20" font-weight="700" lengthAdjust="spacing" textLength="669.6582" x="260.6709" y="28.5645">L2 Discovery Map &#8212; Where to Find Popular Prompts / Skills</text></g><!--cluster 1. Agent skills (SKILL.md)--><g class="cluster" data-qualified-name="1. Agent skills .SKILL.md." data-source-line="237" id="ent0002"><rect fill="#FAFAFA" filter="url(#fxxfftimrxsbv)" height="289.78" rx="6" ry="6" style="stroke:#585858;stroke-width:1;" width="346" x="7" y="211.8712"/><text fill="#181818" font-family="sans-serif" font-size="20" font-weight="700" lengthAdjust="spacing" textLength="291.1035" x="34.4482" y="232.4357">1. Agent skills (SKILL.md)</text></g><!--cluster 2. Classic one-shots--><g class="cluster" data-qualified-name="2. Classic one-shots" data-source-line="243" id="ent0006"><rect fill="#FAFAFA" filter="url(#fxxfftimrxsbv)" height="136.89" rx="6" ry="6" style="stroke:#585858;stroke-width:1;" width="258" x="578" y="206.8712"/><text fill="#181818" font-family="sans-serif" font-size="20" font-weight="700" lengthAdjust="spacing" textLength="224.1797" x="594.9102" y="227.4357">2. Classic one-shots</text></g><!--cluster 3. Product system prompts--><g class="cluster" data-qualified-name="3. Product system prompts" data-source-line="247" id="ent0008"><rect fill="#FAFAFA" filter="url(#fxxfftimrxsbv)" height="135.89" rx="6" ry="6" style="stroke:#585858;stroke-width:1;" width="321" x="860" y="207.3712"/><text fill="#181818" font-family="sans-serif" font-size="20" font-weight="700" lengthAdjust="spacing" textLength="305.9863" x="867.5068" y="227.9357">3. Product system prompts</text></g><!--entity SH--><g class="entity" data-qualified-name="1. Agent skills .SKILL.md..SH" data-source-line="238" id="ent0003"><path d="M107.6977,415.6904 C110.781,407.9326 116.7123,408.3773 121.3667,414.0969 C123.9762,409.7397 128.5615,408.2048 131.5613,413.6927 C135.2392,407.627 141.0632,407.379 145.359,412.9608 C147.6652,405.7516 153.4626,405.9341 157.7554,410.9456 C160.7437,405.7519 165.0868,405.8691 168.2473,410.7665 C171.4123,404.4086 177.6356,403.9342 181.5939,409.9078 C185.2775,403.4496 191.5739,403.9719 194.2382,410.8725 C199.0111,406.6995 202.4253,407.5237 205.5198,412.8631 C209.1363,408.6567 213.8567,408.1705 216.4021,414.0221 C220.3097,408.3687 225.1985,407.1345 229.4069,413.7021 C234.7909,407.319 239.0577,409.362 242.5881,415.633 C246.1469,409.864 251.5361,411.5318 254.3063,416.494 C262.8321,420.9163 261.677,426.8354 255.3909,432.2756 C262.9283,435.9579 261.5245,442.5031 255.7252,446.4989 C261.9495,452.1067 260.9339,457.7123 254.2125,462.0618 C263.1379,467.0144 260.9302,474.3898 253.5539,478.697 C250.2522,484.3767 244.9001,484.9933 241.2839,479.0285 C237.3821,484.129 233.2776,484.6466 230.0509,478.3624 C227.3396,484.7302 220.8674,486.6068 216.5716,480.0098 C212.925,484.5733 209.3977,485.8277 205.6947,480.0693 C202.1265,486.3862 197.0153,485.7037 193.0122,480.5502 C188.743,485.7305 184.4294,485.8937 180.392,480.2791 C176.9011,486.0859 172.4643,485.7249 169.2047,480.0537 C165.2277,485.6165 160.36,486.6327 156.2003,480.2526 C153.0642,485.5303 148.377,484.0728 145.8138,479.6398 C141.773,485.7761 137.5843,485.7909 133.5107,479.6728 C129.9254,486.9621 124.1268,485.9476 120.2292,479.9858 C116.6095,484.6135 111.8263,484.2448 109.4966,478.6336 C100.0768,475.5382 98.7022,470.3694 103.7316,462.2039 C95.7858,459.2377 93.7327,452.6001 99.9095,446.2503 C93.8797,440.0923 95.5703,434.0859 103.9287,431.9806 C97.5425,424.7898 99.8312,419.5836 107.6977,415.6904" fill="#585858" filter="url(#fxxfftimrxsbv)"/><text fill="#FAFAFA" font-family="sans-serif" font-size="14" font-style="italic" lengthAdjust="spacing" textLength="55.043" x="152.4816" y="434.7564">&#171;cloud&#187;</text><text fill="#FAFAFA" font-family="sans-serif" font-size="14" lengthAdjust="spacing" textLength="54.9814" x="152.5124" y="451.0532">skills.sh</text><text fill="#FAFAFA" font-family="sans-serif" font-size="14" lengthAdjust="spacing" textLength="131.3662" x="114.32" y="467.3501">install leaderboard</text></g><!--entity CLI--><g class="entity" data-qualified-name="1. Agent skills .SKILL.md..CLI" data-source-line="239" id="ent0004"><rect fill="#005F7F" filter="url(#fxxfftimrxsbv)" height="68.8906" rx="6" ry="6" style="stroke:#00BAC6;stroke-width:0.5;" width="146.957" x="22.52" y="253.8712"/><text fill="#FAFAFA" font-family="sans-serif" font-size="14" font-style="italic" lengthAdjust="spacing" textLength="43.4834" x="74.2568" y="276.8664">&#171;app&#187;</text><text fill="#FAFAFA" font-family="sans-serif" font-size="14" lengthAdjust="spacing" textLength="126.957" x="32.52" y="293.1632">npx skills find/add</text><text fill="#FAFAFA" font-family="sans-serif" font-size="14" lengthAdjust="spacing" textLength="126.4785" x="32.7593" y="309.4601">+ GET /api/search</text></g><!--entity ANT--><g class="entity" data-qualified-name="1. Agent skills .SKILL.md..ANT" data-source-line="240" id="ent0005"><rect fill="#00BAC6" filter="url(#fxxfftimrxsbv)" height="68.8906" rx="6" ry="6" style="stroke:#006B70;stroke-width:0.5;" width="132.9844" x="204.51" y="253.8712"/><text fill="#181818" font-family="sans-serif" font-size="14" font-style="italic" lengthAdjust="spacing" textLength="47.3525" x="247.3259" y="276.8664">&#171;host&#187;</text><text fill="#181818" font-family="sans-serif" font-size="14" lengthAdjust="spacing" textLength="112.9844" x="214.51" y="293.1632">anthropics/skills</text><text fill="#181818" font-family="sans-serif" font-size="14" lengthAdjust="spacing" textLength="107.8916" x="217.0564" y="309.4601">+ agentskills.io</text></g><!--entity PC--><g class="entity" data-qualified-name="2. Classic one-shots.PC" data-source-line="244" id="ent0007"><path d="M604.1036,259.4767 C607.6127,252.2702 612.4618,249.103 619.2259,255.9824 C624.4328,249.4998 629.0609,249.0067 634.5374,255.6683 C638.4562,249.738 643.8008,248.4481 648.3523,254.9662 C652.2697,247.4057 659.5758,248.0132 664.1264,254.242 C667.0375,246.872 672.4119,246.312 677.6318,251.8209 C682.4116,242.7283 689.0457,242.6227 694.6994,250.9655 C698.3462,244.7451 704.7655,244.5806 707.5722,251.7718 C712.1438,245.0389 718.158,243.3979 723.4102,251.0209 C729.4979,246.0938 734.1683,245.1662 737.5846,253.8108 C743.2216,245.7671 748.1601,247.2266 752.9062,254.6909 C757.5546,248.1273 764.2587,249.9118 767.4704,256.3057 C772.3626,248.0567 779.0408,248.5669 784.3678,255.8322 C789.9936,248.5228 795.3193,251.1075 799.2432,257.6588 C803.5206,251.9423 809.2369,251.7489 813.3198,257.8897 C822.58,260.8502 822.5686,269.0814 815.7277,274.3913 C824.9511,276.6182 824.687,283.9787 819.4594,289.7229 C825.2618,296.9139 823.8768,301.4281 815.1401,304.3157 C823.4537,309.7641 821.7122,317.0651 814.2912,321.7473 C809.7689,328.9154 803.6278,330.1806 798.2717,322.6564 C794.2343,329.5332 789.4805,330.7861 783.638,324.6931 C779.4023,331.3228 774.1121,333.4418 768.6973,325.9397 C765.532,333.5354 758.7335,333.2482 754.1606,327.4697 C749.6899,334.7396 743.5634,334.3154 738.9834,327.5883 C735.4305,334.8503 728.5695,336.2744 723.5936,329.1059 C719.5451,336.9096 714.9821,338.2939 708.7327,331.319 C702.6957,339.6103 696.9939,338.3714 692.0968,330.1694 C686.0536,334.9001 681.7357,334.849 678.4216,327.1636 C673.7049,334.8454 667.0847,335.0353 662.8884,326.6601 C658.4449,332.552 652.3489,332.7892 648.2116,326.2973 C642.5304,332.7254 637.5083,330.3294 634.4686,323.5489 C630.3416,331.1791 623.2386,331.3484 618.9765,323.6859 C614.0456,329.9119 607.5121,328.2444 605.0933,321.0812 C597.1576,316.4963 595.7226,311.0109 602.3341,304.0669 C593.7917,301.4938 592.1024,294.3817 599.64,288.9439 C592.6763,283.5169 592.898,277.9005 599.8487,272.6517 C595.5722,267.1711 597.1955,261.3453 604.1036,259.4767" fill="#585858" filter="url(#fxxfftimrxsbv)"/><text fill="#FAFAFA" font-family="sans-serif" font-size="14" font-style="italic" lengthAdjust="spacing" textLength="55.043" x="679.4796" y="276.8664">&#171;cloud&#187;</text><text fill="#FAFAFA" font-family="sans-serif" font-size="14" lengthAdjust="spacing" textLength="93.6045" x="660.1989" y="293.1632">prompts.chat</text><text fill="#FAFAFA" font-family="sans-serif" font-size="14" lengthAdjust="spacing" textLength="195.2822" x="609.36" y="309.4601">(+ PROMPTS.md / CSV / HF)</text></g><!--entity ARCH--><g class="entity" data-qualified-name="3. Product system prompts.ARCH" data-source-line="248" id="ent0009"><path d="M876.28,259.3713 C876.28,249.3712 982.9983,249.3712 982.9983,249.3712 C982.9983,249.3712 1089.7165,249.3712 1089.7165,259.3713 L1089.7165,317.2619 C1089.7165,327.2619 982.9983,327.2619 982.9983,327.2619 C982.9983,327.2619 876.28,327.2619 876.28,317.2619 L876.28,259.3713" fill="#E5E4E4" filter="url(#fxxfftimrxsbv)" style="stroke:#585858;stroke-width:0.5;"/><path d="M876.28,259.3713 C876.28,269.3713 982.9983,269.3713 982.9983,269.3713 C982.9983,269.3713 1089.7165,269.3713 1089.7165,259.3713" fill="none" style="stroke:#585858;stroke-width:0.5;"/><text fill="#181818" font-family="sans-serif" font-size="14" font-style="italic" lengthAdjust="spacing" textLength="34.9043" x="965.5461" y="286.3664">&#171;db&#187;</text><text fill="#181818" font-family="sans-serif" font-size="14" lengthAdjust="spacing" textLength="160.0635" x="902.9665" y="302.6632">Leak / extract archives</text><text fill="#181818" font-family="sans-serif" font-size="14" lengthAdjust="spacing" textLength="193.4365" x="886.28" y="318.9601">(system_prompts_leaks, &#8230;)</text></g><!--entity H--><g class="entity" data-qualified-name="H" data-source-line="235" id="ent0001"><ellipse cx="406.999" cy="58.2813" fill="#00BAC6" filter="url(#fxxfftimrxsbv)" rx="8" ry="8" style="stroke:#585858;stroke-width:0.5;"/><path d="M406.999,66.2813 L406.999,93.2813 M393.999,74.2813 L419.999,74.2813 M406.999,93.2813 L393.999,108.2813 M406.999,93.2813 L419.999,108.2813" fill="none" filter="url(#fxxfftimrxsbv)" style="stroke:#585858;stroke-width:0.5;"/><text fill="#181818" font-family="sans-serif" font-size="14" lengthAdjust="spacing" textLength="100.584" x="356.707" y="124.2764">Human expert</text><text fill="#181818" font-family="sans-serif" font-size="14" lengthAdjust="spacing" textLength="192.958" x="310.52" y="140.5732">(needs current L2 baseline)</text></g><g class="entity" data-qualified-name="GMN16" data-source-line="259" id="ent0017"><path d="M33.23,548.6513 L33.23,604.0497 A0,0 0 0 0 33.23,604.0497 L326.773,604.0497 A0,0 0 0 0 326.773,604.0497 L326.773,558.6513 L316.773,548.6513 L184,548.6513 L180,486.0012 L176,548.6513 L33.23,548.6513 A0,0 0 0 0 33.23,548.6513" fill="#E5E4E4" filter="url(#fxxfftimrxsbv)" style="stroke:#B4B3B3;stroke-width:0.5;"/><path d="M316.773,548.6513 L316.773,558.6513 L326.773,558.6513 L316.773,548.6513" fill="#E5E4E4" style="stroke:#B4B3B3;stroke-width:0.5;"/><text fill="#181818" font-family="sans-serif" font-size="13" font-weight="700" lengthAdjust="spacing" textLength="247.7109" x="44.1336" y="565.7181">Correct popularity proxy for skills</text><text fill="#181818" font-family="sans-serif" font-size="13" lengthAdjust="spacing" textLength="10.8926" x="295.9768" y="565.7181">=</text><text fill="#181818" font-family="sans-serif" font-size="13" lengthAdjust="spacing" textLength="272.543" x="39.23" y="580.851">install counts (anonymous CLI telemetry),</text><text fill="#181818" font-family="sans-serif" font-size="13" lengthAdjust="spacing" textLength="150.5918" x="100.2056" y="595.9838">not GitHub stars alone.</text></g><g class="entity" data-qualified-name="GMN19" data-source-line="265" id="ent0020"><path d="M818.87,426.0712 L818.87,466.3369 A0,0 0 0 0 818.87,466.3369 L1147.122,466.3369 A0,0 0 0 0 1147.122,466.3369 L1147.122,436.0712 L1137.122,426.0712 L987,426.0712 L983,327.4512 L979,426.0712 L818.87,426.0712 A0,0 0 0 0 818.87,426.0712" fill="#E5E4E4" filter="url(#fxxfftimrxsbv)" style="stroke:#B4B3B3;stroke-width:0.5;"/><path d="M1137.122,426.0712 L1137.122,436.0712 L1147.122,436.0712 L1137.122,426.0712" fill="#E5E4E4" style="stroke:#B4B3B3;stroke-width:0.5;"/><text fill="#181818" font-family="sans-serif" font-size="13" lengthAdjust="spacing" textLength="307.252" x="824.87" y="443.1381">Extracted product prompts &#8212; cite archive URL;</text><text fill="#181818" font-family="sans-serif" font-size="13" lengthAdjust="spacing" textLength="300.9043" x="828.0438" y="458.271">freshness &gt; star count for "what ships today."</text></g><!--link H to SH--><g class="link" data-entity-1="ent0001" data-entity-2="ent0003" data-link-type="dependency" data-source-line="251" id="lnk10"><path d="M408.83,144.2713 C408.63,199.1312 400.62,290.6312 355,351.7613 C331.72,382.9512 299.4873,402.8222 265.6073,417.5122" fill="none" id="H-to-SH" style="stroke:#585858;stroke-width:2;"/><polygon fill="#585858" points="261.02,419.5012,270.8684,419.5909,265.6073,417.5122,267.686,412.2511,261.02,419.5012" style="stroke:#585858;stroke-width:2;stroke-linejoin:miter;stroke-miterlimit:10;"/><text fill="#181818" font-family="sans-serif" font-size="13" lengthAdjust="spacing" textLength="150.1538" x="406.84" y="292.8881">browse all-time installs</text></g><!--link H to CLI--><g class="link" data-entity-1="ent0001" data-entity-2="ent0004" data-link-type="dependency" data-source-line="252" id="lnk11"><path d="M310.26,106.0412 C256.43,115.1212 191.35,134.1312 146,173.8712 C122.53,194.4412 110.9064,223.2722 104.1064,248.6022" fill="none" id="H-to-CLI" style="stroke:#585858;stroke-width:2;"/><polygon fill="#585858" points="102.81,253.4312,109.0067,245.7761,104.1064,248.6022,101.2803,243.7019,102.81,253.4312" style="stroke:#585858;stroke-width:2;stroke-linejoin:miter;stroke-miterlimit:10;"/><text fill="#181818" font-family="sans-serif" font-size="13" lengthAdjust="spacing" textLength="89.083" x="147" y="186.9381">query / install</text></g><!--link CLI to SH--><g class="link" data-entity-1="ent0004" data-entity-2="ent0003" data-link-type="dependency" data-source-line="253" id="lnk12"><path d="M114.23,323.1412 C127.45,347.6813 142.9888,376.5093 156.7788,402.1093" fill="none" id="CLI-to-SH" style="stroke:#585858;stroke-width:2;"/><polygon fill="#585858" points="159.15,406.5113,158.4034,396.6907,156.7788,402.1093,151.3602,400.4847,159.15,406.5113" style="stroke:#585858;stroke-width:2;stroke-linejoin:miter;stroke-miterlimit:10;"/><text fill="#181818" font-family="sans-serif" font-size="13" lengthAdjust="spacing" textLength="103.4287" x="144.03" y="372.8281">telemetry index</text></g><!--link H to ANT--><g class="link" data-entity-1="ent0001" data-entity-2="ent0005" data-link-type="dependency" data-source-line="254" id="lnk13"><path d="M310.36,125.1513 C287.35,136.4213 265.56,152.1212 252,173.8712 C237.16,197.6812 242.4841,224.8845 251.9741,248.7745" fill="none" id="H-to-ANT" style="stroke:#585858;stroke-width:1;stroke-dasharray:1,3;"/><polygon fill="#585858" points="253.82,253.4213,254.2149,243.5803,251.9741,248.7745,246.78,246.5337,253.82,253.4213" style="stroke:#585858;stroke-width:1;stroke-linejoin:miter;stroke-miterlimit:10;"/><text fill="#181818" font-family="sans-serif" font-size="13" lengthAdjust="spacing" textLength="127.207" x="253" y="186.9381">first-party + format</text></g><!--link H to PC--><g class="link" data-entity-1="ent0001" data-entity-2="ent0007" data-link-type="dependency" data-source-line="255" id="lnk14"><path d="M480.39,144.1812 C531.04,176.1713 593.3928,215.5609 641.2628,245.8009" fill="none" id="H-to-PC" style="stroke:#585858;stroke-width:1;stroke-dasharray:1,3;"/><polygon fill="#585858" points="645.49,248.4713,640.0173,240.2828,641.2628,245.8009,635.7448,247.0463,645.49,248.4713" style="stroke:#585858;stroke-width:1;stroke-linejoin:miter;stroke-miterlimit:10;"/><text fill="#181818" font-family="sans-serif" font-size="13" lengthAdjust="spacing" textLength="109.1733" x="549" y="186.9381">persona libraries</text></g><!--link H to ARCH--><g class="link" data-entity-1="ent0001" data-entity-2="ent0009" data-link-type="dependency" data-source-line="256" id="lnk15"><path d="M503.77,111.7912 C592.48,126.6412 726.32,154.2412 836,198.8712 C868.28,212.0112 897.5652,228.8903 924.4052,246.3003" fill="none" id="H-to-ARCH" style="stroke:#585858;stroke-width:1;stroke-dasharray:1,3;"/><polygon fill="#585858" points="928.6,249.0213,923.2262,240.7676,924.4052,246.3003,918.8726,247.4793,928.6,249.0213" style="stroke:#585858;stroke-width:1;stroke-linejoin:miter;stroke-miterlimit:10;"/><text fill="#181818" font-family="sans-serif" font-size="13" lengthAdjust="spacing" textLength="110.8364" x="814.93" y="186.9381">vendor baselines</text></g><?plantuml-src lLdhJXjB4lxlfwZuh1H3iCqbj-CG96CWe6CkYs6ZQBEAsZDjUyHuUivq6_2YIFiG-mpxOFia-rLtptXiS00bMYCHKrrTNLsNhwigBp_-rAVoaiuoTIqL_VTV_wQpM2JcyhXBPYJ7acfnD1oP5V1yaedCec2DeYI89w7enzBnDEXJ9leK6Rg9pAW5Lg8NZadIo9XKjvhDJDmqXbYUz2TQPe5AZ4nC8r3ZPchFhWUY6OMWHMRQ78ieyVH6EXd74BadiYiAH78jT8iWWlos47JBGpKjeEzO19dIQsJ_o1Hq35Ii9fbUQV0zHIoDmO8So4mcWMpPvKmtnc63JXGTGB4JtXffqjBCMUIbfb0En2Gsa3G08pD1bV03v8bW15f6dKpoeMCLHeD8PffgrUfO9QfQNQFLrRwAmzNLDMes8oFYA6WsLwoi34QDeqII7ASZeI4tIhIH8YGri4QEaY7_IpSZbXv6OfY9CHb52fi68f2utKz60HIfr-kqcuaafDGRglwCJ-N5NtQxxSuVS3zzfEfl6-_vfmhovyEZY_sSVD3c7oP_Ecz_ePpytdvoyhTDJtxpddyAyfOdxxxUtThTAiYlFNd_pVxh_TVL2kZ7xQEJGlZw-fk3TmTLJowahA-_U_lx7fFRtGigSU-sEsyz-Tl6ZFnszzsw9NSw-oSNdjpPtTlTRC_8s63li_5-RttTgh9_VdvwJWNxvlgwbTAx17-lbml__StM9jXV_dGodvUYtWQmbcD4CAUkTsizH2PVIuJyXHYIIAQKAEGgfoz76MICXGb677JRsuX3nBIPfd9dXsgfJPrCXYk4gEL4vB1qMUU3k64HO7jRf2bsu3E8CctggSZCb42a9cKJw8Ci0nHSHu4a__4-go7ouvLSYfuc0SlvSo8d4dlbDL2Y7l854lpP5y7LC5CJ16t-yUu1T8rbBcQajB7Qy1TiIsDXa7TZV5Mfp8J1RVeiHMJJN8oBYLem5Kak9e1LGvOZRs6MHCJORqPH5lhhDGbQXP0r-_XmhccSMAWJzfrf26SZtGrZ4JPh0nxyLfcanOyFz1aWinouGcKiQY2YU9AnZ51gaqq20_lmNo8PIfX75t9yDDROXxy2D7Pd3b19F6NltHeVVnJBWM6OuY3nu6clcOVKIkK5o8nydTFkwVctzjaPw-WJTd6nz-MaWqMNSGkBXwUz2xUJatTXiTCzlTp3eaEJXSMzNMiN3nuBYzvQFcqNxliAU1p1ONpZjJACXpA81O8gKec6LOXVAQH17Ej2VE_YItT_uRuVM53hCyjSu9k_m7A-UNNBVBy0M7eUHqWWwcxof6U4YUnppkzXWBL8XjIVKboeXRqrVleu7XNmntuHUiGe8ZJTo3ZcVrtCuErMN4pe2R3XMcfi7cPogWDW5_7RvDZgVSWFwJgIDy2f1fqc7eOufKY6Gxd6IZZD72IrOPpFtug70IL4DEPqHq02OqOPdcdaoGWGDGLIcb5fq-dPnT7fIRjB96m4Px8E3BDVz6GixHTZHQcKlIxYqkO2_qjPYb8caF52kXgylJhY_QNTVxtSlxIFfxsBnHoBYL0q2UjgC81jYv1SS_18gB9MIZ9y-E33BjDIavYX7T9J93D0qrEavnYRBxKOea2YTjbmkzJoHpH914xLdmoiF88Nt5F_ku_sDGwTVzHt5XWBbymONN3TPoqS05QN6Kja5hO6etl0bp0M1YqTRWEwuFVbL5SEHO1dBuu4cxrs9LF30GukXAalv3HTIPdIZSgk4CihvAgfEHooPba2YtYd7eOz_n0-39Xv-U5BZuLLMvlbU5cidRKl3fqgUFI2gqHg_N5hVhLpUdnyMbxVc6sthrLNz6LSkrsXRLjwjxn7ThRxExVRpVxETjFIPnRNao20e7lxdDxBzuNzUrlSVUvlySxgn5AWoR704756wgSMm1KDpw44G56EdYP5LPwOdfd6t6e41czmB4iiAV8LkRMSmJ-L5qZADjxxPCm95qZE_qe55HdsxLG8_OqoT5VXEEoDHAWO2O4niPOVB96xcGxVa5nbxgYp1yolsVBShNLXE4zrTGkJlrVm2urPR8kIkx9OZeKFbj2B_YbfS_q3k84omgBW0hENwEIvD-Hk-QcEV9774MqqtYo_bHMPABp5Tm_VqLLF3rzowqVMEdT2CewBz-ueGbapH9ctxAmVsFEvH-6N2ytzM78GrBbeoiC3SCBj9ueGLCA9AfLLldsrICBko4DocSRMZMv9PG0cJmQotDEtTBd2xHklxrzWmplnJ8GXX-N6Ucuy-unnpxfCc-BOEMLcEZuS0EIQcCTzCYVrSQyyxvQRkJ95MlzwZUuhu78k2_zVPuN2Y3uUj1zcs-OI9pvmu5E3gaX0u7Oi0rTV_o2cywEU7jKi77KDQCyAJZieU4OKyJ6keLrsZ7sw7ph93ncUZLcsTNqUP3ragJmDMUGWur7PFGn_C5DdnBcGAb31ludFb6QrSBNKtVEqBv3LZajcqAcVFlEo8ixiG8GRNAI3kfP53xYz_Tj8tkxij7XjQgU9CqLiwwIjWA-9wvJwcHHNWFHykojP6esTVAOOAYY7DsvbpKa4VsWb29qtOCBOJfl7CkWZq05nl-IPRTK0bwcn7HgciPqQ4ZLu9FFek_1mijwtzdShqVOdJuZiXyEtBBKKxLQq7TyybfgFY-sMPVumCyfGzgWHoZKJ18VzfvGZZsgx8DLMqSi4srRdYTeMlDyhsqrVLBeohxj9Uv4EE9odT2nIs-H_7Y57k5iyuCRxJAMJM6JyNmVZ5AL8atfNTi3n4ZtFjOnRj8clHqaeRtc87HRY0lIjYOmrJys3Y1CkIcYaRkf6rG69sRGn3YiLXy7LmydOzgRewStNf9P86MeA9bd6qGuj-H7YT5cfSXOSLYevZ5Gt6jGUCfUsQb6jzyTHjmlPOBqhuB3gLXjwz3NXaRk8OnHt0dZILtXFhTJUuMpmDrTCLPFqDXUFZYDieWZuchoYJ_iNr1HfrDHIPC782kbqZ_AHwBmCaPXHfj8eq4qdYYK8rjoh5Yahe8r6BXzZLhwNBhhPGDyYj8u2pkkw7YcZvwwOEWyrO7YsuIiwEpyzFhlemHRmMgVtD_m-F70MFEkKxbe-PQl1dWudWV430l9YtL55GL3j0iLuIdjhClYGs03SIE5Wj--Rt_SjPhXRGsJznntTFkyS-iaedtnOdWV01Iq0fBh12N1HtGwFlR_qF2iRkaKsaA26vwamjTovMu56Sb7DOvk8mxIGKqmMsEQjkV7rAvxoZOMvpmlBjUmqLoK2WDxFH1P9_O1ClcOh7nFdyQih5Tkzz9Kn3D03Q0YphgxYdUHAabANRX5qW05lftRQw29aTPK-shBQXMy0DE3MG2GgcOvveiMNB-wwikOw9VeKcSD9dqVEcOPH5G_kkQbXFUvfmrfZtxxpAdgEr0U3zwO5Y81deTxXT7dU_M1B1Ab7jd_RiKSvzQpsrHi49EbHb6gWIYYcZMgXmFy0?></g></svg>