<svg xmlns="http://www.w3.org/2000/svg" xmlns:xlink="http://www.w3.org/1999/xlink" contentStyleType="text/css" data-diagram-type="DESCRIPTION" height="599px" preserveAspectRatio="none" style="width:854px;height:599px;background:#FAFAFA;" version="1.1" viewBox="0 0 854 599" width="854px" zoomAndPan="magnify"><?plantuml 1.2026.6?><defs><filter height="300%" id="fxszs0n61wma7" width="300%" x="-1" y="-1"><feGaussianBlur result="blurOut" stdDeviation="2"/><feColorMatrix in="blurOut" result="blurOut2" type="matrix" values="0 0 0 0 0 0 0 0 0 0 0 0 0 0 0 0 0 0 .4 0"/><feOffset dx="4" dy="4" in="blurOut2" result="blurOut3"/><feBlend in="SourceGraphic" in2="blurOut3" mode="normal"/></filter></defs><g><rect fill="#FAFAFA" height="599" style="stroke:none;stroke-width:1;" width="854" x="0" y="0"/><g class="title" data-source-line="231"><rect fill="none" height="33.2813" style="stroke:#585858;stroke-width:1;" width="697.207" x="74.9954" y="5"/><text fill="#005F7F" font-family="sans-serif" font-size="20" font-weight="700" lengthAdjust="spacing" textLength="687.207" x="79.9954" y="28.5645">First-Party Agent Skills &#8212; Standard + Anthropic Marketplace</text></g><!--entity OP--><g class="entity" data-qualified-name="OP" data-source-line="237" id="ent0001"><ellipse cx="369.321" cy="58.2813" fill="#00BAC6" filter="url(#fxszs0n61wma7)" rx="8" ry="8" style="stroke:#585858;stroke-width:0.5;"/><path d="M369.321,66.2813 L369.321,93.2813 M356.321,74.2813 L382.321,74.2813 M369.321,93.2813 L356.321,108.2813 M369.321,93.2813 L382.321,108.2813" fill="none" filter="url(#fxszs0n61wma7)" style="stroke:#585858;stroke-width:0.5;"/><text fill="#181818" font-family="sans-serif" font-size="14" lengthAdjust="spacing" textLength="120.9619" x="308.84" y="124.2764">Author / operator</text></g><!--entity STD--><g class="entity" data-qualified-name="STD" data-source-line="238" id="ent0002"><path d="M682.1846,363.9654 C685.5872,357.2904 690.28,357.4194 694.7885,362.8102 C697.392,356.6691 701.2073,355.3223 706.2469,360.2996 C709.9837,354.7899 713.6555,354.2344 717.6864,360.0014 C720.7168,354.7086 726.239,353.8191 729.9288,359.2485 C733.1133,354.1228 736.9304,352.7091 740.8768,358.4832 C744.2089,352.4001 749.2607,351.7902 752.9488,358.1374 C755.789,353.268 760.862,353.3473 763.6303,358.2162 C767.3843,353.6468 772.4931,354.2468 774.4443,360.0888 C778.7084,354.1179 782.765,354.3237 787.2409,359.8531 C791.3295,355.2886 796.7722,355.7793 798.988,361.9101 C802.535,355.6143 807.9065,357.0336 810.9243,362.4494 C814.3193,356.9628 818.7058,358.0368 821.6148,362.949 C831.1771,365.1248 833.4492,370.9065 826.5218,378.3397 C835.2843,380.7059 835.7902,388.986 829.9997,394.4868 C836.0273,400.0027 834.2028,407.3542 826.9325,410.289 C832.957,416.6328 832.2936,423.9499 822.7227,426.156 C818.4608,432.5045 814.3068,432.5798 809.8482,426.3575 C807.0464,432.5483 802.4906,433.3778 797.8,428.394 C795.3054,433.8444 792.0714,434.4719 787.663,430.4397 C785.0386,436.7708 779.1408,437.2195 775.7289,431.2006 C772.8306,437.0613 769.4003,438.8898 764.2621,433.4794 C761.2486,439.8943 755.1249,440.1109 751.3755,434.2519 C747.6656,438.0319 743.4364,436.9615 741.8066,431.9801 C737.7945,436.4362 732.438,436.4201 730.2399,430.0432 C726.354,436.6416 721.8244,436.9049 717.5794,430.3898 C712.9166,435.5869 707.5914,433.9407 705.3284,427.7973 C701.9724,431.7053 697.509,431.0797 695.5895,426.2046 C691.2229,432.722 686.8376,432.2312 683.143,425.5699 C676.2324,422.007 674.9795,415.3917 681.7716,410.5756 C673.646,407.0238 671.2554,400.9738 679.0221,394.6741 C672.7579,388.3959 673.548,381.694 682.0315,378.0924 C675.7398,374.0687 676.1271,367.8552 682.1846,363.9654" fill="#585858" filter="url(#fxszs0n61wma7)"/><text fill="#FAFAFA" font-family="sans-serif" font-size="14" font-style="italic" lengthAdjust="spacing" textLength="55.043" x="723.8054" y="381.8464">&#171;cloud&#187;</text><text fill="#FAFAFA" font-family="sans-serif" font-size="14" lengthAdjust="spacing" textLength="91.7109" x="705.4714" y="398.1432">agentskills.io</text><text fill="#FAFAFA" font-family="sans-serif" font-size="14" lengthAdjust="spacing" textLength="124.6738" x="688.99" y="414.4401">(format standard)</text></g><!--entity REPO--><g class="entity" data-qualified-name="REPO" data-source-line="239" id="ent0003"><rect fill="#00BAC6" filter="url(#fxszs0n61wma7)" height="68.8906" rx="6" ry="6" style="stroke:#006B70;stroke-width:0.5;" width="228.4688" x="410.09" y="358.8513"/><text fill="#181818" font-family="sans-serif" font-size="14" font-style="italic" lengthAdjust="spacing" textLength="47.3525" x="500.6481" y="381.8464">&#171;host&#187;</text><text fill="#181818" font-family="sans-serif" font-size="14" lengthAdjust="spacing" textLength="112.9844" x="467.8322" y="398.1432">anthropics/skills</text><text fill="#181818" font-family="sans-serif" font-size="14" lengthAdjust="spacing" textLength="208.4688" x="420.09" y="414.4401">(reference + document skills)</text></g><!--entity MKT--><g class="entity" data-qualified-name="MKT" data-source-line="240" id="ent0004"><rect fill="#005F7F" filter="url(#fxszs0n61wma7)" height="52.5938" rx="6" ry="6" style="stroke:#00BAC6;stroke-width:0.5;" width="248.9561" x="90.85" y="212.7213"/><text fill="#FAFAFA" font-family="sans-serif" font-size="14" font-style="italic" lengthAdjust="spacing" textLength="43.4834" x="193.5863" y="235.7164">&#171;app&#187;</text><text fill="#FAFAFA" font-family="sans-serif" font-size="14" lengthAdjust="spacing" textLength="228.9561" x="100.85" y="252.0132">Claude Code plugin marketplace</text></g><!--entity GH--><g class="entity" data-qualified-name="GH" data-source-line="241" id="ent0005"><rect fill="#585858" filter="url(#fxszs0n61wma7)" height="68.8906" rx="6" ry="6" style="stroke:#585858;stroke-width:0.5;" width="223.2666" x="412.69" y="204.5713"/><text fill="#FAFAFA" font-family="sans-serif" font-size="14" font-style="italic" lengthAdjust="spacing" textLength="55.043" x="496.8018" y="227.5664">&#171;cloud&#187;</text><text fill="#FAFAFA" font-family="sans-serif" font-size="14" lengthAdjust="spacing" textLength="127.9688" x="460.3389" y="243.8632">GitHub Search API</text><text fill="#FAFAFA" font-family="sans-serif" font-size="14" lengthAdjust="spacing" textLength="203.2666" x="422.69" y="260.1601">topic:agent-skills&amp;sort=stars</text></g><!--entity SK--><g class="entity" data-qualified-name="SK" data-source-line="242" id="ent0006"><rect fill="#E5E4E4" filter="url(#fxszs0n61wma7)" height="68.8906" rx="6" ry="6" style="stroke:#585858;stroke-width:0.5;" width="173.3711" x="551.64" y="513.1313"/><text fill="#181818" font-family="sans-serif" font-size="14" font-style="italic" lengthAdjust="spacing" textLength="34.9043" x="620.8734" y="536.1264">&#171;db&#187;</text><text fill="#181818" font-family="sans-serif" font-size="14" lengthAdjust="spacing" textLength="128.5703" x="574.0404" y="552.4232">SKILL.md package</text><text fill="#181818" font-family="sans-serif" font-size="14" lengthAdjust="spacing" textLength="153.3711" x="561.64" y="568.7201">(folder + frontmatter)</text></g><g class="entity" data-qualified-name="GMN13" data-source-line="252" id="ent0014"><path d="M6,350.4713 L6,436.1353 A0,0 0 0 0 6,436.1353 L374.6484,436.1353 A0,0 0 0 0 374.6484,436.1353 L374.6484,360.4713 L364.6484,350.4713 L201.27,350.4713 L211.14,265.5113 L193.27,350.4713 L6,350.4713 A0,0 0 0 0 6,350.4713" fill="#E5E4E4" filter="url(#fxszs0n61wma7)" style="stroke:#B4B3B3;stroke-width:0.5;"/><path d="M364.6484,350.4713 L364.6484,360.4713 L374.6484,360.4713 L364.6484,350.4713" fill="#E5E4E4" style="stroke:#B4B3B3;stroke-width:0.5;"/><text fill="#181818" font-family="sans-serif" font-size="13" lengthAdjust="spacing" textLength="77.2002" x="147.2241" y="367.5381">Install path:</text><text fill="#181818" font-family="sans-serif" font-size="13" lengthAdjust="spacing" textLength="347.6484" x="12" y="382.671">/plugin install document-skills@anthropic-agent-skills</text><text fill="#181818" font-family="sans-serif" font-size="13" lengthAdjust="spacing" textLength="338.2412" x="16.7036" y="397.8038">/plugin install example-skills@anthropic-agent-skills</text><text fill="#181818" font-family="sans-serif" font-size="13" lengthAdjust="spacing" textLength="245.8574" x="62.8955" y="412.9366">Stars measure repo attention; installs</text><text fill="#181818" font-family="sans-serif" font-size="13" lengthAdjust="spacing" textLength="265.9224" x="52.863" y="428.0694">still checked via skills.sh when available.</text></g><!--link STD to SK--><g class="link" data-entity-1="ent0002" data-entity-2="ent0006" data-link-type="dependency" data-source-line="244" id="lnk7"><path d="M722.52,433.1213 C704.27,457.7013 683.8892,485.1658 666.4092,508.7258" fill="none" id="STD-to-SK" style="stroke:#585858;stroke-width:1;stroke-dasharray:1,3;"/><polygon fill="#585858" points="663.43,512.7413,672.005,507.8968,666.4092,508.7258,665.5802,503.13,663.43,512.7413" style="stroke:#585858;stroke-width:1;stroke-linejoin:miter;stroke-miterlimit:10;"/><text fill="#181818" font-family="sans-serif" font-size="13" lengthAdjust="spacing" textLength="142.3779" x="695.82" y="479.1981">schema / conventions</text></g><!--link REPO to SK--><g class="link" data-entity-1="ent0003" data-entity-2="ent0006" data-link-type="dependency" data-source-line="245" id="lnk8"><path d="M542.48,427.8713 C552.29,444.9713 565.08,465.7713 578.32,483.1313 C586.05,493.2513 591.7398,499.9235 600.4998,509.2135" fill="none" id="REPO-to-SK" style="stroke:#585858;stroke-width:2;"/><polygon fill="#585858" points="603.93,512.8512,600.6658,503.5591,600.4998,509.2135,594.8453,509.0474,603.93,512.8512" style="stroke:#585858;stroke-width:2;stroke-linejoin:miter;stroke-miterlimit:10;"/><text fill="#181818" font-family="sans-serif" font-size="13" lengthAdjust="spacing" textLength="100.7373" x="579.32" y="479.1981">ships examples</text></g><!--link OP to MKT--><g class="link" data-entity-1="ent0001" data-entity-2="ent0004" data-link-type="dependency" data-source-line="246" id="lnk9"><path d="M308.47,99.2813 C273.99,108.1712 233.6,125.1913 212.32,157.5713 C201.81,173.5813 202.3253,190.6103 206.0853,207.5303" fill="none" id="OP-to-MKT" style="stroke:#585858;stroke-width:2;"/><polygon fill="#585858" points="207.17,212.4113,209.1224,202.7578,206.0853,207.5303,201.3129,204.4933,207.17,212.4113" style="stroke:#585858;stroke-width:2;stroke-linejoin:miter;stroke-miterlimit:10;"/><text fill="#181818" font-family="sans-serif" font-size="13" lengthAdjust="spacing" textLength="267.9409" x="213.32" y="170.6381">/plugin marketplace add anthropics/skills</text></g><!--link MKT to REPO--><g class="link" data-entity-1="ent0004" data-entity-2="ent0003" data-link-type="dependency" data-source-line="247" id="lnk10"><path d="M261.19,265.6613 C290.67,281.8913 329.95,303.0113 365.32,320.4713 C391.54,333.4013 416.0172,344.7466 442.0372,356.4066" fill="none" id="MKT-to-REPO" style="stroke:#585858;stroke-width:1;stroke-dasharray:1,3;"/><polygon fill="#585858" points="446.6,358.4513,440.0227,351.1206,442.0372,356.4066,436.7512,358.4211,446.6,358.4513" style="stroke:#585858;stroke-width:1;stroke-linejoin:miter;stroke-miterlimit:10;"/><text fill="#181818" font-family="sans-serif" font-size="13" lengthAdjust="spacing" textLength="149.6206" x="366.32" y="316.5381">browse / install plugins</text></g><!--link OP to GH--><g class="link" data-entity-1="ent0001" data-entity-2="ent0005" data-link-type="dependency" data-source-line="248" id="lnk11"><path d="M430.2,116.4913 C449.58,127.1813 469.96,140.9613 485.32,157.5713 C497.65,170.9113 504.9682,184.2329 511.3282,199.7929" fill="none" id="OP-to-GH" style="stroke:#585858;stroke-width:2;"/><polygon fill="#585858" points="513.22,204.4213,513.5174,194.5769,511.3282,199.7929,506.1122,197.6037,513.22,204.4213" style="stroke:#585858;stroke-width:2;stroke-linejoin:miter;stroke-miterlimit:10;"/><text fill="#181818" font-family="sans-serif" font-size="13" lengthAdjust="spacing" textLength="110.938" x="498.14" y="170.6381">discover by stars</text></g><!--link GH to REPO--><g class="link" data-entity-1="ent0005" data-entity-2="ent0003" data-link-type="dependency" data-source-line="249" id="lnk12"><path d="M524.32,273.8213 C524.32,299.0513 524.32,328.3813 524.32,353.6013" fill="none" id="GH-to-REPO" style="stroke:#585858;stroke-width:1;stroke-dasharray:1,3;"/><polygon fill="#585858" points="524.32,358.6013,528.32,349.6013,524.32,353.6013,520.32,349.6013,524.32,358.6013" style="stroke:#585858;stroke-width:1;stroke-linejoin:miter;stroke-miterlimit:10;"/><text fill="#181818" font-family="sans-serif" font-size="13" lengthAdjust="spacing" textLength="93.0439" x="525.32" y="316.5381">among results</text></g><?plantuml-src lLdhRjiw4lwlfvZwBBPs6r-Iz7OSDpYsapP1dTWREoYAxQAW9TeM8ebQaaxY3GgSXpXFk4-oCoGbAxuq2Lgi0ZZsS6Ou7CvydA6Ul_-fntiE0ockkO3__laN32AMwCkp7kWPZpcKet0wqnNa-SWJBaD_1yB4Z-O16qVSyjJWesHZ23NSX7hMH5Q0PvQ9mqphL3NhTSbkQbCSde_dYajV99edkkQBk9wQkQi-guS1qaAzgCSiJ1ozbixZ25KUCNa5FakkcMe2gW0d5Y3Ty41PCRGtPhuKQWVC3odGHbz4OYvLfKRhP17N6WVuX4kU-BnfXgMgnK4DpWLyGCFEIJHKeBY-vv7d2W8-OVD8ewO9CX8JcX8Se3xcpv0ceIivJHgB89o4N2eebqgnI4Ifj0ClNen55BnuiGFrUgXP5FhrUiNeakZKA4muy3YTCOLwmqHfpW8G4-FaC9dIVxYPaVOWP5F9Oj0210fDcCznTJyP1MX8jLg5ZcH90AbpLFK9Z_ViRvrUk_i9jn_UG-cttNVqLqBovvFJqN56_j2cFo9_l6X_WOpypZmP-TkU8xz-HtyvUT-HEwyw-vtzdFpAaOzV7xywVbNoa7xMFZtFbJSQhp-y_L1ov5nBe_7spUz7H6xtHb3WxhIxRnpvs-wI_ARpjc78tUxn-SYHkvsZpbvxIKO1ivxTTqUDXZ7b-EAYVm4v-rwZORGCBv5_ECoK__vwVm_Pd_zqCbyKeju4iE8nHZ2bhjlMQe2PVCqnv4Ti2YnPG28mLobzASfGHyoqFwEWQxKm3Z6czIBbXuTGJatgI1vK0AEM4f72qcQT2-AQGO1MYwKfIk0p2QNIrPH9lG0aGXta7Et1B4Cek0vz3kvnUrR6o8ygcHQrI7pIy-yvdtEKvTU84jM05f3Wpp7phwPIp35eiyTj3q9Np3CrCw6qiOQ-e5WQCOrv5-DNaNB9DAvcJ5gON6HgR4oK_GLBCZK-UZKWFVmMtPAm2ENrB9I1MruTqAe0TIqV5yvbXJFcvWHZwnh0kJ7TDM4H2YkDFFWf98VLnmNw4f193sw5aAHgmi9eBab7m9MMSr-ZV-WNIwOStQDoFIuQoxI7lm8qEiiD44cqeDsxrIx-8E8JJJ15GUB0qomp2wcAzmp9X7pTVgz_yQqz692DBc5N1uTVphiuQ3DkPV2aFnnPIKhUbS5khtzvX8CMJLO6Zph6BmuyLWQTjrpQhgpt9U9nY1j6AzufmdZ0_OXXK8KYKUWLe5CAqo2ALAv-EFhIErvPxm4fQducdIjyznUmdU--kKM-Nm0iGuSZm33gRhAa9uG9pN5Evw6FOo4FOBo0A3SBPSjqz54y2iGVyuMf6Q48Kt33euZ-svZ1irjGCQ7cY0tNNA7mLFA5yX6xWCucorOTe_u0haD-WpXLWtxYO8XI2dWmvJjaXBNCGb8RdVFvMtumO0aHnfJk6928CJE9npJcoGmXQe58gMS5eVvWTDe_R_S0c8bWoQk8OUQBciVSVD56bKXfrrbK4Cxnlv2bMChuF5f9Lurdhmf9lY3zZylZItDuchKOp36OY8OcGLLC9kZRF2HtB3m2LbcLWWuNFlZGbYckW2tH3jEJ9Kj0KmjCpnY5BnMROe44xQBZEj1qKzI1-TRKdmoiB89NjgVwJnVjEnGw_weUhZ3cMx9ajC6rpffl0BBQpDYYC_SrCje3V0jZxj32v2QWStvNJlNubFbux4KX8xUNhtYgAS2H2yFK5N8AhZXFuKR8Aupb2jXgwXuE6RTiWKKyfpR3dZi8DmDcLdwuqcDbrDHc6LxcOuFswCIQWeUUVvLmfTxltn_jzi_E-iNntQMuEQrwRCoZycq5MgRqRheTEMoD3szRzV5XgsxeIu-hkU-ZeZKvQ_TskM2y9cBNioxYDgiRSOPDZW66a39IFRO0zXJk79O0M9HZJvDYLPxeeLv4r6hu6i_WY1TOKinNpAtj3Ewe765Ijl6yJs9AE9zJ_diULcGeT-W1zZT2mvr7SJYSiK0G4YB6H8eV629rCrrQ8TZAt5AN1vWRC-Mv7UkXunpLrYr4_kxX1pPcaIbAxefgAHOE364O_eV3NkC0kH5bc4715MQdqUgpPyZTzbajUPJ54UpMNczVbL6P23oBxpQlqLPFcnUv_oDlNLWbakBYdPqAiAoPOfctRQuV-FEfK-673StZY5CGLAbeoi83uOJQJon2i19EHA6iSkshGHBQZYmajrbijj4E2Od0vCY8B6ls5XQNR_lkg_K5xBfD7B0WeB3SRMJECySOzQpRhCcdlMVCqiRD0G2sYNbuJ-vfVNXNdhRAlSoOFAr_lKNh1jYSay7_Qww0QJR60-s7sRQtPHCtJFZOeCeJ474xuhwjhtyGqzbKZuzgKevr3TAU59pcek09KKJJs8PsspJcwDuqaxjaU39ccTRrQP2roLDP6fBAYQIhiZKCtvYfI-AzaCfHmPs9JzHchB2rrDtJhC-HrLoNBA5JFVxEowWOc0iHQd0n7SGrptl0Lkkt6RyzF6pIsCBS9YuDCQsJCWg-9hPJ6alEhX3ICt5RijHgXzcTOY3GE3pZAZjM8_87HWDJMGF6jEcqwLe6-mZiWAXVSiocQi0j4x6vD4mZSsi8KAChcGVFXSt9kkxjxqQZwKyU4TcRmxUejH3jHhMvldaeDHzMsolg_65c5A7iGISKQoPK78mVKuuyQEsALbD5RrDiMfr7MflpVlTQTLTKsZBlWxcn6vWhhVQK8cjuHRSNfjaVuhaMq67p4jg9nhOv3NquO_AAQnDKT5FWM9htfSl3JwUzNYscYoUulEWrRH-UlIDWnAiCQoqK6rdiAmJpte1bSwkwbK617hQcaH7PypmBuwNsNC_m__AUhqG9qnzuTjjBzsVzcfJfMX0JIRarL0p_S7IqlFxpbWLLQSqCr92_Na0N1SAVc_BTZbfj5yU3VdufMTJMZHYzDUbI9PD6yscOGBpqh94z-pJABbUBaXz3VJ8Vmv0pwS-WFJZzccWogsdMLxMp_rq9gT_ZogGokZwUR5vKjayPAXkl69HzIGYIQ7GG8gPppITteUbvvAMLxXn7cw3y6OyPNNk8X2uFwDpsZ1CAJR_bd8Mf0dxBuZJYokiFYXoqz2QKwkkU0Qo_O6qhIXv9h1XafcqYt8eRHJSnzAQ5HP5pTs5As-EZYvhOfolVOFju0SPx7f8twsMnm3gGheMmGFSyqvECXTO4knDQ0URRQJObe_Tb0Dc2CbEoc76xzaU-i6fnCpS8EhyzA3UaDK3CcQBRACbJ0RIXPcCECct4g3HA0EwUVyNfiesvCAwfcMqxs3KB8teNMFEe8wBb_Wy0?></g></svg>