<svg xmlns="http://www.w3.org/2000/svg" xmlns:xlink="http://www.w3.org/1999/xlink" contentStyleType="text/css" data-diagram-type="DESCRIPTION" height="430px" preserveAspectRatio="none" style="width:1191px;height:430px;background:#FAFAFA;" version="1.1" viewBox="0 0 1191 430" width="1191px" zoomAndPan="magnify"><?plantuml 1.2026.6?><defs><filter height="300%" id="f1u1eudmml1ng1" width="300%" x="-1" y="-1"><feGaussianBlur result="blurOut" stdDeviation="2"/><feColorMatrix in="blurOut" result="blurOut2" type="matrix" values="0 0 0 0 0 0 0 0 0 0 0 0 0 0 0 0 0 0 .4 0"/><feOffset dx="4" dy="4" in="blurOut2" result="blurOut3"/><feBlend in="SourceGraphic" in2="blurOut3" mode="normal"/></filter></defs><g><rect fill="#FAFAFA" height="430" style="stroke:none;stroke-width:1;" width="1191" x="0" y="0"/><g class="title" data-source-line="231"><rect fill="none" height="33.2813" style="stroke:#585858;stroke-width:1;" width="561.8555" x="311.5049" y="5"/><text fill="#005F7F" font-family="sans-serif" font-size="20" font-weight="700" lengthAdjust="spacing" textLength="551.8555" x="316.5049" y="28.5645">prompts.chat &#8212; Classic One-Shot Prompt Library</text></g><!--entity U--><g class="entity" data-qualified-name="U" data-source-line="237" id="ent0001"><ellipse cx="585.1386" cy="58.2813" fill="#00BAC6" filter="url(#f1u1eudmml1ng1)" rx="8" ry="8" style="stroke:#585858;stroke-width:0.5;"/><path d="M585.1386,66.2813 L585.1386,93.2813 M572.1386,74.2813 L598.1386,74.2813 M585.1386,93.2813 L572.1386,108.2813 M585.1386,93.2813 L598.1386,108.2813" fill="none" filter="url(#f1u1eudmml1ng1)" style="stroke:#585858;stroke-width:0.5;"/><text fill="#181818" font-family="sans-serif" font-size="14" lengthAdjust="spacing" textLength="124.5371" x="522.87" y="124.2764">Prompt consumer</text></g><!--entity UI--><g class="entity" data-qualified-name="UI" data-source-line="238" id="ent0002"><path d="M958.9781,213.0818 C962.971,206.6872 968.5672,206.8959 971.7026,213.8964 C975.4346,207.9871 979.5982,205.5699 984.9725,212.1517 C987.1666,206.2254 992.7823,205.3303 996.5935,210.4506 C999.634,204.2442 1005.2648,204.4997 1009.1948,209.4454 C1012.1917,204.6383 1018.0933,203.5909 1020.9749,209.5714 C1023.372,203.3807 1029.4721,203.5742 1033.0808,208.2176 C1036.0164,200.77 1041.3411,200.3743 1045.971,206.623 C1050.0157,201.2465 1055.6431,200.626 1058.4986,207.8092 C1062.0687,203.0243 1067.0704,204.6476 1068.9017,209.6563 C1073.3082,203.1524 1078.9493,204.1736 1081.7321,211.1964 C1085.2327,204.157 1090.5093,204.1479 1094.9798,210.2162 C1098.7165,206.4326 1103.1689,205.9293 1105.2032,211.9851 C1109.7114,204.1909 1115.5814,205.3276 1119.6191,212.4402 C1124.8745,207.3605 1128.2653,208.4458 1131.1015,214.8574 C1138.4707,218.4659 1137.5595,225.6239 1131.5871,229.6697 C1139.395,234.165 1138.8576,240.8623 1132.4565,246.109 C1139.3308,251.3545 1138.8519,256.3664 1131.52,260.7001 C1139.3843,265.4315 1137.8623,271.4424 1131.5792,276.2278 C1128.2832,282.5947 1123.2895,282.9276 1118.4244,278.066 C1114.2658,284.9337 1110.2918,284.3152 1105.3719,278.8733 C1101.9358,283.9662 1097.3245,284.1817 1093.5868,279.2271 C1090.8732,283.892 1085.964,284.2485 1082.9439,279.5766 C1080.1561,286.0591 1074.167,287.6042 1069.1467,282.159 C1064.8909,287.4894 1061.3541,287.7438 1057.6091,281.6434 C1053.8979,287.7353 1049.8354,289.1861 1044.9044,282.8947 C1040.9058,287.3192 1036.1888,287.6379 1033.2908,281.6653 C1029.8022,287.2598 1024.1206,287.6352 1021.414,280.9114 C1017.3279,287.8402 1013.2325,288.5806 1008.2242,281.7985 C1003.6006,287.0774 999.5939,286.1469 996.7424,280.0155 C991.6178,284.8194 986.7564,284.0979 983.8519,277.5045 C980.7208,282.9902 975.8368,283.1061 971.9982,278.321 C966.414,284.4713 961.9817,281.8349 959.1474,275.4923 C952.2067,271.3031 951.3492,265.0615 959.2767,261.005 C951.1449,258.0544 949.9436,252.0222 956.5124,246.3068 C950.5304,240.154 951.3071,234.475 959.1156,230.6091 C951.0372,225.9852 949.5352,217.8433 958.9781,213.0818" fill="#585858" filter="url(#f1u1eudmml1ng1)"/><text fill="#FAFAFA" font-family="sans-serif" font-size="14" font-style="italic" lengthAdjust="spacing" textLength="55.043" x="1016.617" y="232.5764">&#171;cloud&#187;</text><text fill="#FAFAFA" font-family="sans-serif" font-size="14" lengthAdjust="spacing" textLength="156.8369" x="965.72" y="248.8732">prompts.chat/prompts</text><text fill="#FAFAFA" font-family="sans-serif" font-size="14" lengthAdjust="spacing" textLength="80.3154" x="1003.9807" y="265.1701">(browse UI)</text></g><!--entity MD--><g class="entity" data-qualified-name="MD" data-source-line="239" id="ent0003"><path d="M187.08,223.2313 C187.08,213.2313 244.142,213.2313 244.142,213.2313 C244.142,213.2313 301.204,213.2313 301.204,223.2313 L301.204,264.825 C301.204,274.825 244.142,274.825 244.142,274.825 C244.142,274.825 187.08,274.825 187.08,264.825 L187.08,223.2313" fill="#E5E4E4" filter="url(#f1u1eudmml1ng1)" style="stroke:#585858;stroke-width:0.5;"/><path d="M187.08,223.2313 C187.08,233.2313 244.142,233.2313 244.142,233.2313 C244.142,233.2313 301.204,233.2313 301.204,223.2313" fill="none" style="stroke:#585858;stroke-width:0.5;"/><text fill="#181818" font-family="sans-serif" font-size="14" font-style="italic" lengthAdjust="spacing" textLength="34.9043" x="226.6899" y="250.2264">&#171;db&#187;</text><text fill="#181818" font-family="sans-serif" font-size="14" lengthAdjust="spacing" textLength="94.124" x="197.08" y="266.5232">PROMPTS.md</text></g><!--entity CSV--><g class="entity" data-qualified-name="CSV" data-source-line="240" id="ent0004"><path d="M336.02,223.2313 C336.02,213.2313 389.1411,213.2313 389.1411,213.2313 C389.1411,213.2313 442.2622,213.2313 442.2622,223.2313 L442.2622,264.825 C442.2622,274.825 389.1411,274.825 389.1411,274.825 C389.1411,274.825 336.02,274.825 336.02,264.825 L336.02,223.2313" fill="#E5E4E4" filter="url(#f1u1eudmml1ng1)" style="stroke:#585858;stroke-width:0.5;"/><path d="M336.02,223.2313 C336.02,233.2313 389.1411,233.2313 389.1411,233.2313 C389.1411,233.2313 442.2622,233.2313 442.2622,223.2313" fill="none" style="stroke:#585858;stroke-width:0.5;"/><text fill="#181818" font-family="sans-serif" font-size="14" font-style="italic" lengthAdjust="spacing" textLength="34.9043" x="371.6889" y="250.2264">&#171;db&#187;</text><text fill="#181818" font-family="sans-serif" font-size="14" lengthAdjust="spacing" textLength="86.2422" x="346.02" y="266.5232">prompts.csv</text></g><!--entity HF--><g class="entity" data-qualified-name="HF" data-source-line="241" id="ent0005"><path d="M488.0039,213.0719 C490.9436,206.508 496.9676,206.8014 500.5443,212.4159 C505.3025,205.0177 511.3102,204.5317 515.8089,212.6709 C518.2811,204.8785 523.913,204.6248 529.0757,209.9497 C533.1487,201.9097 540.3188,202.692 544.1228,210.2099 C548.4199,204.0923 553.6787,203.9479 558.4819,209.5919 C561.5868,203.274 565.9922,202.2772 570.9901,207.5489 C575.8815,199.2438 581.0329,200.2966 586.0899,207.3865 C591.4477,200.72 596.2427,200.1812 601.5164,207.4794 C606.2704,202.3572 610.6696,202.1927 614.4361,208.5871 C618.267,201.9307 625.2828,201.3658 628.6311,209.0643 C634.2725,202.2818 639.6771,201.2565 644.6178,209.7954 C648.9563,204.7769 654.5781,204.0084 657.536,211.25 C662.835,206.0296 667.4144,206.0937 670.4688,213.5415 C676.0489,205.3864 682.4649,206.8246 686.4997,215.0535 C693.0406,217.6065 694.7229,223.17 689.7976,228.5291 C697.9754,233.2891 699.1917,239.6069 692.2483,246.4364 C698.3209,251.834 698.1179,258.2826 689.6858,261.1549 C695.9787,266.4818 693.837,273.1076 686.9867,276.0535 C682.7188,283.6246 677.6083,282.665 672.3753,277.1295 C666.711,284.8038 661.7496,284.9589 656.5853,276.6361 C653.4023,283.6462 648.3303,283.9839 643.8208,277.9325 C641.1094,285.8805 634.8095,286.2633 629.9745,280.0019 C623.7132,286.2976 618.8156,286.0577 613.7961,278.5468 C610.9535,285.2796 605.9555,286.8149 600.9297,280.7401 C596.3189,287.129 589.3995,286.4903 586.0503,279.3523 C582.6904,285.8993 576.7382,285.5517 572.6672,280.1485 C568.4141,286.4227 561.4303,287.1992 557.7238,279.5614 C552.0427,286.3589 546.914,284.8816 543.2998,277.4641 C540.6379,283.6292 534.9206,284.4934 530.8737,278.9317 C526.0228,284.8873 519.8969,285.1647 516.0871,277.7779 C510.4072,284.8251 505.46,284.7536 500.8624,276.6876 C497.7554,283.2509 492.3793,283.054 488.0299,278.0679 C479.0797,276.369 476.3967,269.0233 482.8745,262.285 C474.7985,260.1584 473.1528,252.5463 478.2751,246.5595 C471.4246,239.9394 472.2809,231.1181 482.8844,229.1079 C476.4929,221.1523 478.4748,215.9448 488.0039,213.0719" fill="#585858" filter="url(#f1u1eudmml1ng1)"/><text fill="#FAFAFA" font-family="sans-serif" font-size="14" font-style="italic" lengthAdjust="spacing" textLength="55.043" x="557.6175" y="232.5764">&#171;cloud&#187;</text><text fill="#FAFAFA" font-family="sans-serif" font-size="14" lengthAdjust="spacing" textLength="96.2158" x="537.0311" y="248.8732">Hugging Face</text><text fill="#FAFAFA" font-family="sans-serif" font-size="14" lengthAdjust="spacing" textLength="184.8779" x="492.7" y="265.1701">datasets/fka/prompts.chat</text></g><!--entity PLUG--><g class="entity" data-qualified-name="PLUG" data-source-line="242" id="ent0006"><rect fill="#005F7F" filter="url(#f1u1eudmml1ng1)" height="68.8906" rx="6" ry="6" style="stroke:#00BAC6;stroke-width:0.5;" width="152.6445" x="727.82" y="209.5813"/><text fill="#FAFAFA" font-family="sans-serif" font-size="14" font-style="italic" lengthAdjust="spacing" textLength="43.4834" x="782.4006" y="232.5764">&#171;app&#187;</text><text fill="#FAFAFA" font-family="sans-serif" font-size="14" lengthAdjust="spacing" textLength="132.6445" x="737.82" y="248.8732">Claude plugin path</text><text fill="#FAFAFA" font-family="sans-serif" font-size="14" lengthAdjust="spacing" textLength="103.25" x="752.5173" y="265.1701">f/prompts.chat</text></g><!--entity STARS--><g class="entity" data-qualified-name="STARS" data-source-line="243" id="ent0007"><rect fill="#00BAC6" filter="url(#f1u1eudmml1ng1)" height="68.8906" rx="6" ry="6" style="stroke:#006B70;stroke-width:0.5;" width="191.4453" x="983.42" y="54.2313"/><text fill="#181818" font-family="sans-serif" font-size="14" font-style="italic" lengthAdjust="spacing" textLength="47.3525" x="1055.4664" y="77.2264">&#171;host&#187;</text><text fill="#181818" font-family="sans-serif" font-size="14" lengthAdjust="spacing" textLength="87.377" x="1035.4542" y="93.5232">GitHub stars</text><text fill="#181818" font-family="sans-serif" font-size="14" lengthAdjust="spacing" textLength="171.4453" x="993.42" y="109.8201">(genre popularity proxy)</text></g><g class="entity" data-qualified-name="GMN14" data-source-line="253" id="ent0015"><path d="M6,344.4713 L6,415.0025 A0,0 0 0 0 6,415.0025 L482.2856,415.0025 A0,0 0 0 0 482.2856,415.0025 L482.2856,354.4713 L472.2856,344.4713 L248.14,344.4713 L244.14,275.0313 L240.14,344.4713 L6,344.4713 A0,0 0 0 0 6,344.4713" fill="#E5E4E4" filter="url(#f1u1eudmml1ng1)" style="stroke:#B4B3B3;stroke-width:0.5;"/><path d="M472.2856,344.4713 L472.2856,354.4713 L482.2856,354.4713 L472.2856,344.4713" fill="#E5E4E4" style="stroke:#B4B3B3;stroke-width:0.5;"/><text fill="#181818" font-family="sans-serif" font-size="13" lengthAdjust="spacing" textLength="40.3394" x="219.4731" y="361.5381">Fetch:</text><text fill="#181818" font-family="sans-serif" font-size="13" lengthAdjust="spacing" textLength="455.2856" x="12" y="376.671">https://raw.githubusercontent.com/f/prompts.chat/main/PROMPTS.md</text><text fill="#181818" font-family="sans-serif" font-size="13" lengthAdjust="spacing" textLength="255.1631" x="112.0613" y="391.8038">Use for ChatGPT-era one-shots &#8212; not a</text><text fill="#181818" font-family="sans-serif" font-size="13" lengthAdjust="spacing" textLength="229.5313" x="124.8772" y="406.9366">substitute for skills.sh install ranks.</text></g><!--link U to UI--><g class="link" data-entity-1="ent0001" data-entity-2="ent0002" data-link-type="dependency" data-source-line="245" id="lnk8"><path d="M647.68,104.4013 C698.64,116.9313 772.21,136.2613 835.14,157.5813 C875.33,171.1913 914.2913,186.6321 951.2013,202.1621" fill="none" id="U-to-UI" style="stroke:#585858;stroke-width:2;"/><polygon fill="#585858" points="955.81,204.1013,949.0657,196.9239,951.2013,202.1621,945.9631,204.2978,955.81,204.1013" style="stroke:#585858;stroke-width:2;stroke-linejoin:miter;stroke-miterlimit:10;"/><text fill="#181818" font-family="sans-serif" font-size="13" lengthAdjust="spacing" textLength="118.2061" x="882.67" y="170.6481">discover personas</text></g><!--link U to MD--><g class="link" data-entity-1="ent0001" data-entity-2="ent0003" data-link-type="dependency" data-source-line="246" id="lnk9"><path d="M522.65,102.6513 C476.5,113.6313 412.96,131.7413 361.14,157.5813 C331.43,172.3913 305.1311,191.4989 282.8711,209.5789" fill="none" id="U-to-MD" style="stroke:#585858;stroke-width:2;"/><polygon fill="#585858" points="278.99,212.7313,288.4978,210.162,282.8711,209.5789,283.4541,203.9522,278.99,212.7313" style="stroke:#585858;stroke-width:2;stroke-linejoin:miter;stroke-miterlimit:10;"/><text fill="#181818" font-family="sans-serif" font-size="13" lengthAdjust="spacing" textLength="93.958" x="362.14" y="170.6481">curl raw dump</text></g><!--link U to CSV--><g class="link" data-entity-1="ent0001" data-entity-2="ent0004" data-link-type="dependency" data-source-line="247" id="lnk10"><path d="M524.22,128.0713 C510.43,137.3513 496.06,147.5013 483.14,157.5813 C461.06,174.8113 441.3786,192.5313 423.4986,209.4813" fill="none" id="U-to-CSV" style="stroke:#585858;stroke-width:1;stroke-dasharray:1,3;"/><polygon fill="#585858" points="419.87,212.9213,429.1535,209.6323,423.4986,209.4813,423.6496,203.8265,419.87,212.9213" style="stroke:#585858;stroke-width:1;stroke-linejoin:miter;stroke-miterlimit:10;"/><text fill="#181818" font-family="sans-serif" font-size="13" lengthAdjust="spacing" textLength="92.9487" x="484.14" y="170.6481">tabular export</text></g><!--link U to HF--><g class="link" data-entity-1="ent0001" data-entity-2="ent0005" data-link-type="dependency" data-source-line="248" id="lnk11"><path d="M585.14,127.9813 C585.14,151.2213 585.14,175.8013 585.14,199.1513" fill="none" id="U-to-HF" style="stroke:#585858;stroke-width:2;"/><polygon fill="#585858" points="585.14,204.1513,589.14,195.1513,585.14,199.1513,581.14,195.1513,585.14,204.1513" style="stroke:#585858;stroke-width:2;stroke-linejoin:miter;stroke-miterlimit:10;"/><text fill="#181818" font-family="sans-serif" font-size="13" lengthAdjust="spacing" textLength="76.9971" x="586.14" y="170.6481">dataset pull</text></g><!--link U to PLUG--><g class="link" data-entity-1="ent0001" data-entity-2="ent0006" data-link-type="dependency" data-source-line="249" id="lnk12"><path d="M639.84,127.9813 C675.44,152.9113 717.3535,182.2644 751.6335,206.2544" fill="none" id="U-to-PLUG" style="stroke:#585858;stroke-width:1;stroke-dasharray:1,3;"/><polygon fill="#585858" points="755.73,209.1213,750.6498,200.6838,751.6335,206.2544,746.0628,207.2382,755.73,209.1213" style="stroke:#585858;stroke-width:1;stroke-linejoin:miter;stroke-miterlimit:10;"/><text fill="#181818" font-family="sans-serif" font-size="13" lengthAdjust="spacing" textLength="124.6172" x="702.21" y="170.6481">marketplace install</text></g><!--link STARS to UI--><g class="link" data-entity-1="ent0007" data-entity-2="ent0002" data-link-type="dependency" data-source-line="250" id="lnk13"><path d="M1071.46,123.3313 C1066.01,147.2213 1059.7817,174.4864 1054.0917,199.4364" fill="none" id="STARS-to-UI" style="stroke:#585858;stroke-width:1;stroke-dasharray:1,3;"/><polygon fill="#585858" points="1052.98,204.3113,1058.881,196.4259,1054.0917,199.4364,1051.0813,194.6472,1052.98,204.3113" style="stroke:#585858;stroke-width:1;stroke-linejoin:miter;stroke-miterlimit:10;"/><text fill="#181818" font-family="sans-serif" font-size="13" lengthAdjust="spacing" textLength="101.8862" x="1063.69" y="170.6481">attention signal</text></g><?plantuml-src lLdhRXkx4Vwlf-3HAH0vjIwsSpkAOa2IRq5bMxMa1a5J1DGk9IsysjsINDjg4A0FqIVia_GRahjQtM8R2Re2R6auCnmEPpxES5zy-Acdz8BrPNmdOlRVV_-7zKCUwT5bZ-cPc0jM2OFfJE-1vrn4GWRUFWiYBqnzFWw5vQcnSyd7BD3iFj2p9bWP-yqo2JRJEb7DUbto-zeKm-auLK9wSQH5f6jUFAydPkwgn-k13rgW5_Kv3o97hoNfF8JA4ovlcSUZEwwQ32gO4_D1DpoieZZidNDFncgVcHyoXerU7CQfL7irMYSFXTOO41CXHUI9fXcMgZRtQ-mgPcSmx8f40yMKq2iUUQ6OBoOy3JKqJS18J335Vmzzt9k19bbN2ffq7ll1911IiKgvF8-Zk5pUPozVZkFGV_bodzNhWUPXuDNhUqQNX5F3819Cp9CPLz0RH4eBxhDuOfmSH5Fwp-vdfDqF-5JoETCnYo4quPx0wduo2c18jLfb7SaZdoNEKTLdFANV_jJfjRj_mVQp3wpy-y4x-fH1_dJnSNYQaS_Qz27o-KtxCyl8xyoJaRyUElBhT_J9oKUEt7dLEUeSvUHNZdpw-lJLwQjo2VJBziUhN7cZyVhixLdPaNCjZSRRDt-S4BdT6x82TwVTVUF8Nm-Mv3UTjmr3xdPFhuQEtEsST0xRIp84p7eEtfqq6iQKqvkRwnkMinys6aRBO0J-mI1J_iVheqEml_ZfPBufHBq9O2NcY61ANRUjLH-PV2SGyaC-PJnQi2X6hbBwKfH1nvnhRqP1rseX3X7JUf68usDMIKpgIE7lCKGj9IA5fSqw5yGrWm2j5ayIIE2P15BfQiAbNZ0GMPt95FOWom05Tu4dc7lSdbKG-U5UfaKj8e_q_3CLgO2ik0DAL7rQG8IVO-xTJcMS8cYpnsqFe6ikCZMpM6bZ3Ns1M19oZRoRuskS2CarLZCcBLmkCZKs9YhUWaUP6WzUzKcFU81R8Xv2Niy2wRlbrHciyg5h-RXmhYZCc9lZZwrh6EP6kcl28WWh3HxyZQLWwuyBz2KWanviHIn9rOG7OIf9Xo-KbgcduH_wnQEfW7jKhiT5OuNsy5U0HcUv0N4KBcZt7hIBFnQAYIQOeY1nu6cMcONKNkata0dvkjUzwvklxNwVR7G9kpuu-7pLnQ3DkBN1Y-l1q4fIyguDTdlNenCCMZHP6ppf6Byuy5WRTDvoQRkstZy3ZmDi6ArulmZZll12Zg0AuaZ1AunEAQH16AfS_M3ukNUwjjxtfAZvYNIkyQqkO3VVghb5lby0B0E78umZwkwpf2U42SnnJkUXXx50-6oyO65k5cGhTFHHFCR07_E5gncX25ViNeGX_RSnWxCxfc92fS26Ew4WF9LYeJnW5wEpoR9Lnz3lixj0t0EdQkmwSZ14ASM4FnNxP8Irp49I6yxvz3K_651217DATmGaC6OcSKmZJsQ0g0MGKiyAGjVzuSVhgtQFCMuYM8egCCnyKUbSc2_Qg8eJsdKU5eHp_2zaAKePJuHhwQfnzgg0v0lIVnsTZipXQTPYCCTW8WoD_6eycS2tUKZkMtXagBBs2ZfS-E2XBLD2CRv4EwGdZvQ0fXP8ppc4HufFKI2nTj5n7TPqKzGPzwofFnbOMGIlRK_rxoxQzobq_b4zNcFCjsJ9Q8DhapNV0B3QpDYXC_Sr6Eq1leCnTsXXSXFGERyhftfYoZqSUs70oUsLMv5e2d1m8KnT8QVOhH09ku_bBM9vZzbgQWM7Z5jsm2BEgUsmvmx2xO2PbH-kz5WRDRLPXfVvMByzlB2cuD3pRYEXr8UZrT7kzUNbTN7yO2bkJgiU7ukmyh37MgRqRheTEMwDZnzQzV5ngsxeIu-hrFEWQ4FEshrRpXzlYDZrR8gupUg6WgF9CS0GK4QgfnR09OMTGmc0eXmzJOAgFD83lGYfrV0qpk1G55WIv2joQpU3Eog7ICespljeJWdd2Sh_KWaL6UIEImpzJQpPjnB5uM36_PYG41WJAl7U4AcRwT8AcQtCBNLvWBanKvxRiHuSvwYsRY7oznB-e34BJL7ohQYMOk6z8Go2Vmbss7WFRg0CDoYunkmqMdts3FcsUrPB7cPnn0vghtUlogYCOfp5txQlqLPFsnTvz2DltLWbakBYdPsAeQoPeipRDTSF_FdSgV37XkPfA2W8gbGqPU41EA7s4qK8Ak4eBfHLhdqrI4BRaONaBelDDjgXM0AO71d8ic5lON7vjX-ysbp0WTl4FlTz2ik3HkOySunHpxhBcdpQ5MEMDcuF06QRcCVtP4Nhuxlol5KUPiRaQVthBTeqmEQSzFzVS_bSyp4Ej1zcs-6EJTmouLE3Aaz0u7OeF5jV_o2ciwcU7jMa77KDQCyAJdDHy8meecbiGxjh6dDqRvl9NJ8y6xDCw_eyoDhcgImDIUL4qbNP1ePlpTGbSIMaSbHmP-8pjHahR2trxNdMvyXghakMqAcUVkTbLFJDXGWrk4Y7-4xaFM2hzVjCF1mVDsbiOMuJbuQOraaP1LyYsocDfU2tWFHCt9OijTfnTgVenp0EPzpUljK8Vjzeu2fhmBWsdJPTow2FG0T4_P9ZDbK3jYoUcql393ItXepLw4hcqNDXUx9kUlkxqMZwaoT4zlRmBMejHBjHRQvl7alDnzNsYZf_c1b5A7lK2SMQ2OhzyLFAaKUjNTDggkXTYashyqHhSzxlfLRT5PMsp4iG9ObMDM_6xHruD-HAeVD7brqTp51rzWq7j8qbUaZx2i576zjSbQtG7PkGuOArxuMAWHPTaC_xGwV0TAcZcrwJJClU5HGrR1cshn7CkuF9EcyFlMa8xiDIoQ9usHdguQH0eoxBb2sZajtoSb4wK_KbgenHcYA5HX_tBFl7vSrVAJ_wolsRwyl-S52R-uRhyiJTwnLOSltgpl1q1t_Bc9m55-bqIeN36RBnIqII00fLdzpobQKPwOkpWXtBcgwCpQ5NBKcOGfMvkVWIJJR5-xtHUNOjMnG_3_H5EgQxHqcBHsKheInEqf3BG2zeGnyMrXE3OVjcaD-cbagZbNOOVcgYfLMUWK6wsOmZhd8cqpV2IqtcfJ9aajypFvqd-NZUq9ENW9fyJ1OmyP34KgzD1LSqcVCMWwNXfXQpt2QRStahj44xyrA5WzSkOutVMCyruIYrBWfj5mzB9TDKZ6Ej2JSdi1_vSYQqDskMs1FURgtkWtspjGmSg1WXJioB8viNLI4vuNDL8SlivHeiO1oSAXqhf6UghG2wnJ1KDJNBbWMFHhUgLgBEXAp-7m00?></g></svg>