<svg xmlns="http://www.w3.org/2000/svg" xmlns:xlink="http://www.w3.org/1999/xlink" contentStyleType="text/css" data-diagram-type="DESCRIPTION" height="643px" preserveAspectRatio="none" style="width:1058px;height:643px;background:#FAFAFA;" version="1.1" viewBox="0 0 1058 643" width="1058px" zoomAndPan="magnify"><?plantuml 1.2026.6?><defs><filter height="300%" id="faxpn5cyfk2ky" width="300%" x="-1" y="-1"><feGaussianBlur result="blurOut" stdDeviation="2"/><feColorMatrix in="blurOut" result="blurOut2" type="matrix" values="0 0 0 0 0 0 0 0 0 0 0 0 0 0 0 0 0 0 .4 0"/><feOffset dx="4" dy="4" in="blurOut2" result="blurOut3"/><feBlend in="SourceGraphic" in2="blurOut3" mode="normal"/></filter></defs><g><rect fill="#FAFAFA" height="643" style="stroke:none;stroke-width:1;" width="1058" x="0" y="0"/><g class="title" data-source-line="231"><rect fill="none" height="33.2813" style="stroke:#585858;stroke-width:1;" width="546.2988" x="252.829" y="5"/><text fill="#005F7F" font-family="sans-serif" font-size="20" font-weight="700" lengthAdjust="spacing" textLength="536.2988" x="257.829" y="28.5645">skills.sh &#8212; Leaderboard Reach &amp; Query Surface</text></g><!--entity U--><g class="entity" data-qualified-name="U" data-source-line="238" id="ent0001"><ellipse cx="264.414" cy="58.2813" fill="#00BAC6" filter="url(#faxpn5cyfk2ky)" rx="8" ry="8" style="stroke:#585858;stroke-width:0.5;"/><path d="M264.414,66.2813 L264.414,93.2813 M251.414,74.2813 L277.414,74.2813 M264.414,93.2813 L251.414,108.2813 M264.414,93.2813 L277.414,108.2813" fill="none" filter="url(#faxpn5cyfk2ky)" style="stroke:#585858;stroke-width:0.5;"/><text fill="#181818" font-family="sans-serif" font-size="14" lengthAdjust="spacing" textLength="125.4463" x="201.6908" y="124.2764">Consumer / agent</text></g><!--entity HOME--><g class="entity" data-qualified-name="HOME" data-source-line="239" id="ent0002"><path d="M18.2966,212.7977 C21.7099,205.228 28.1776,205.6033 32.6613,211.6702 C36.2088,205.7059 40.2237,206.3319 43.9603,211.4779 C47.5687,204.3181 52.8274,203.1267 57.8631,210.0709 C61.2651,202.0125 68.3362,202.8799 72.4757,209.328 C75.4951,204.1437 80.1197,203.7736 83.8947,208.4533 C87.9903,200.6304 94.1808,201.5359 99.0302,207.6337 C102.3705,200.2529 108.1377,199.9153 112.6615,206.4766 C117.6687,201.8239 121.7657,202.9504 124.7777,208.7822 C128.0739,201.8467 134.5772,201.8816 137.8789,208.777 C143.2684,203.2042 147.6211,203.9806 151.1727,210.7557 C155.3096,204.6264 159.8195,204.591 164.2126,210.4776 C169.0441,204.0721 173.2584,205.1599 177.37,211.2363 C182.6051,205.6471 187.4365,205.7585 191.8728,212.1993 C196.5078,206.1465 201.5109,208.2214 204.4143,214.03 C211.1659,217.8402 214.1632,223.1299 206.6354,229.0515 C214.4513,233.8508 214.6865,240.6923 205.9922,244.8182 C211.6365,250.3895 212.7241,255.4053 204.7755,259.8784 C213.2052,265.1555 211.7646,273.4126 203.8815,277.8796 C200.2602,283.7565 194.804,282.5672 191.7045,277.3089 C188.6238,284.716 182.9039,285.1785 177.8073,279.4401 C174.8989,285.6416 168.7215,286.13 164.7999,280.5596 C161.9634,286.5919 155.9015,287.6468 151.7892,281.9783 C147.7998,288.9011 141.8014,288.2141 137.9176,281.8679 C135.6996,289.1079 130.4965,289.3352 125.3862,284.9989 C120.8647,292.6115 116.2258,290.8756 111.5907,285.1161 C106.6566,291.5566 101.8671,291.4131 97.7632,284.2709 C92.6367,289.6089 87.0712,289.5332 83.9658,282.0892 C79.2899,288.4013 75.2291,287.4131 70.9062,281.7056 C66.4577,286.937 60.0772,285.6152 57.8716,279.1962 C54.4519,285.6503 49.862,285.5735 45.8773,279.748 C41.4158,285.9877 33.9894,285.9929 30.826,278.3414 C26.6925,283.0731 22.5217,283.2494 18.9317,277.712 C8.9529,273.687 8.1037,266.8485 15.8664,259.7893 C8.7307,256.8901 8.0826,251.5009 13.7195,246.5331 C6,239.4576 9.5813,233.8909 17.3929,230.3382 C8.166,225.3339 9.9203,216.8951 18.2966,212.7977" fill="#585858" filter="url(#faxpn5cyfk2ky)"/><text fill="#FAFAFA" font-family="sans-serif" font-size="14" font-style="italic" lengthAdjust="spacing" textLength="55.043" x="82.8953" y="232.5664">&#171;cloud&#187;</text><text fill="#FAFAFA" font-family="sans-serif" font-size="14" lengthAdjust="spacing" textLength="134.0869" x="43.3733" y="248.8632">skills.sh homepage</text><text fill="#FAFAFA" font-family="sans-serif" font-size="14" lengthAdjust="spacing" textLength="172.252" x="24.2908" y="265.1601">(all-time leaderboard UI)</text></g><!--entity API--><g class="entity" data-qualified-name="API" data-source-line="240" id="ent0003"><path d="M594.1988,423.668 C598.9472,415.3806 605.7322,415.869 611.4862,422.5029 C617.0446,413.9547 624.3246,412.5965 631.3978,420.6906 C637.7228,410.2063 648.2181,412.2064 652.7167,422.5592 C656.8607,413.6394 665.7558,410.7445 671.7348,420.7114 C677.5945,413.282 684.1299,411.3887 689.8314,420.8806 C694.7582,411.6701 703.7067,411.7992 708.7962,420.7105 C714.9101,411.8576 723.9159,409.1154 730.4319,420.2758 C735.4441,412.7927 742.9392,413.8437 746.9589,421.3687 C752.7661,412.293 761.6745,409.3008 768.2426,420.5728 C774.063,412.8252 781.9171,414.1362 786.492,422.0262 C791.8268,412.5419 800.6659,414.5069 805.0544,423.0031 C810.742,411.0993 820.3438,411.79 826.4987,422.5613 C830.9779,412.8445 838.1068,411.5331 844.7301,420.4652 C852.4,411.8929 859.6012,413.4614 865.5552,422.4949 C881.1339,423.2817 883.1289,434.1497 876.6645,445.5556 C885.4026,456.8603 879.5956,466.4589 866.579,467.9789 C859.8768,479.2837 852.1289,479.081 844.7279,468.6824 C840.9839,479.0879 835.2666,478.6943 827.8191,472.4416 C822.0405,481.4961 812.1457,482.7496 805.7394,473.1859 C801.4528,480.8726 793.9662,480.7573 789.094,473.854 C784.9929,485.4205 774.4726,483.8621 768.2922,476.0906 C762.5709,486.1577 755.7556,486.5227 748.2349,478.036 C742.1839,485.7782 736.5371,486.4942 730.9723,477.5334 C722.5456,489.0907 715.3829,487.1553 708.1459,476.3205 C703.9616,485.0977 697.0462,484.5901 691.476,477.8051 C683.0308,488.8484 676.1558,487.1 669.7714,475.803 C664.1011,484.341 655.6537,481.2879 652.064,473.5407 C646.3818,483.7334 638.4547,481.2084 632.9441,473.3587 C627.2739,481.3775 618.5099,480.0993 614.2502,471.748 C605.3354,481.6633 597.2204,477.6861 592.637,467.1668 C578.7814,464.3516 577.587,457.2902 584.1148,446.1928 C574.4383,434.9659 581.7324,424.9819 594.1988,423.668" fill="#585858" filter="url(#faxpn5cyfk2ky)"/><text fill="#FAFAFA" font-family="sans-serif" font-size="14" font-style="italic" lengthAdjust="spacing" textLength="55.043" x="699.8965" y="440.3464">&#171;cloud&#187;</text><text fill="#FAFAFA" font-family="sans-serif" font-size="14" lengthAdjust="spacing" textLength="257.6943" x="598.5708" y="456.6432">GET /api/search?q=&amp;limit=&amp;owner=</text></g><!--entity CLI--><g class="entity" data-qualified-name="CLI" data-source-line="241" id="ent0004"><rect fill="#005F7F" filter="url(#faxpn5cyfk2ky)" height="52.5938" rx="6" ry="6" style="stroke:#00BAC6;stroke-width:0.5;" width="172.2363" x="351.3008" y="217.7213"/><text fill="#FAFAFA" font-family="sans-serif" font-size="14" font-style="italic" lengthAdjust="spacing" textLength="43.4834" x="415.6773" y="240.7164">&#171;app&#187;</text><text fill="#FAFAFA" font-family="sans-serif" font-size="14" lengthAdjust="spacing" textLength="152.2363" x="361.3008" y="257.0132">npx skills find|add|list</text></g><!--entity TEL--><g class="entity" data-qualified-name="TEL" data-source-line="242" id="ent0005"><path d="M331.5508,414.2113 L543.2862,414.2113 C548.2862,414.2113 548.2862,443.6566 548.2862,443.6566 C548.2862,443.6566 548.2862,473.1019 543.2862,473.1019 L331.5508,473.1019 C326.5508,473.1019 326.5508,443.6566 326.5508,443.6566 C326.5508,443.6566 326.5508,414.2113 331.5508,414.2113" fill="#CBDB2A" filter="url(#faxpn5cyfk2ky)" style="stroke:#818D00;stroke-width:0.5;"/><path d="M543.2862,414.2113 C538.2862,414.2113 538.2862,443.6566 538.2862,443.6566 C538.2862,473.1019 543.2862,473.1019 543.2862,473.1019" fill="none" style="stroke:#818D00;stroke-width:0.5;"/><text fill="#181818" font-family="sans-serif" font-size="14" font-style="italic" lengthAdjust="spacing" textLength="57.8594" x="403.4888" y="432.2064">&#171;async&#187;</text><text fill="#181818" font-family="sans-serif" font-size="14" lengthAdjust="spacing" textLength="201.7354" x="331.5508" y="448.5032">Anonymous install telemetry</text><text fill="#181818" font-family="sans-serif" font-size="14" lengthAdjust="spacing" textLength="165.7646" x="349.5362" y="464.8001">(npx skills add &#8594; index)</text></g><!--entity IX--><g class="entity" data-qualified-name="IX" data-source-line="243" id="ent0006"><path d="M421.1508,566.4213 C421.1508,556.4213 516.4155,556.4213 516.4155,556.4213 C516.4155,556.4213 611.6801,556.4213 611.6801,566.4213 L611.6801,608.015 C611.6801,618.015 516.4155,618.015 516.4155,618.015 C516.4155,618.015 421.1508,618.015 421.1508,608.015 L421.1508,566.4213" fill="#E5E4E4" filter="url(#faxpn5cyfk2ky)" style="stroke:#585858;stroke-width:0.5;"/><path d="M421.1508,566.4213 C421.1508,576.4213 516.4155,576.4213 516.4155,576.4213 C516.4155,576.4213 611.6801,576.4213 611.6801,566.4213" fill="none" style="stroke:#585858;stroke-width:0.5;"/><text fill="#181818" font-family="sans-serif" font-size="14" font-style="italic" lengthAdjust="spacing" textLength="34.9043" x="498.9633" y="593.4164">&#171;db&#187;</text><text fill="#181818" font-family="sans-serif" font-size="14" lengthAdjust="spacing" textLength="170.5293" x="431.1508" y="609.7132">Install-ranked skill index</text></g><!--entity BADGE--><g class="entity" data-qualified-name="BADGE" data-source-line="244" id="ent0007"><rect fill="#00BAC6" filter="url(#faxpn5cyfk2ky)" height="68.8906" rx="6" ry="6" style="stroke:#006B70;stroke-width:0.5;" width="186.4414" x="166.2008" y="313.4613"/><text fill="#181818" font-family="sans-serif" font-size="14" font-style="italic" lengthAdjust="spacing" textLength="47.3525" x="235.7453" y="336.4564">&#171;host&#187;</text><text fill="#181818" font-family="sans-serif" font-size="14" lengthAdjust="spacing" textLength="44.5703" x="237.1364" y="352.7532">Badge</text><text fill="#181818" font-family="sans-serif" font-size="14" lengthAdjust="spacing" textLength="166.4414" x="176.2008" y="369.0501">GET /b/{owner}/{repo}</text></g><g class="entity" data-qualified-name="GMN16" data-source-line="256" id="ent0017"><path d="M646.8708,551.9513 L646.8708,622.4825 L1043.9568,622.4825 L1043.9568,561.9513 L1033.9568,551.9513 L646.8708,551.9513" fill="#E5E4E4" filter="url(#faxpn5cyfk2ky)" style="stroke:#B4B3B3;stroke-width:0.5;"/><path d="M1033.9568,551.9513 L1033.9568,561.9513 L1043.9568,561.9513 L1033.9568,551.9513" fill="#E5E4E4" style="stroke:#B4B3B3;stroke-width:1;"/><text fill="#181818" font-family="sans-serif" font-size="13" lengthAdjust="spacing" textLength="60.7788" x="810.5244" y="569.0181">Example:</text><text fill="#181818" font-family="sans-serif" font-size="13" lengthAdjust="spacing" textLength="376.0859" x="652.8708" y="584.151">curl -sL 'https://skills.sh/api/search?q=frontend&amp;limit=10'</text><text fill="#181818" font-family="sans-serif" font-size="13" lengthAdjust="spacing" textLength="285.9048" x="697.9614" y="599.2838">&#8594; skills[].{id, skillId, name, installs, source}</text><text fill="#181818" font-family="sans-serif" font-size="13" lengthAdjust="spacing" textLength="371.2236" x="655.302" y="614.4166">No documented full-dump API &#8212; homepage is the board.</text></g><g class="entity" data-qualified-name="GMN19" data-source-line="263" id="ent0020"><path d="M126.2708,567.0813 L126.2708,607.3469 A0,0 0 0 0 126.2708,607.3469 L386.5584,607.3469 A0,0 0 0 0 386.5584,607.3469 L386.5584,577.0813 L376.5584,567.0813 L285.3708,567.0813 L400.7908,473.3013 L277.3708,567.0813 L126.2708,567.0813 A0,0 0 0 0 126.2708,567.0813" fill="#E5E4E4" filter="url(#faxpn5cyfk2ky)" style="stroke:#B4B3B3;stroke-width:0.5;"/><path d="M376.5584,567.0813 L376.5584,577.0813 L386.5584,577.0813 L376.5584,567.0813" fill="#E5E4E4" style="stroke:#B4B3B3;stroke-width:0.5;"/><text fill="#181818" font-family="sans-serif" font-size="13" lengthAdjust="spacing" textLength="137.5918" x="132.2708" y="584.1481">Skills enter the index</text><text fill="#181818" font-family="sans-serif" font-size="13" font-weight="700" lengthAdjust="spacing" textLength="31.1162" x="273.9949" y="584.1481">only</text><text fill="#181818" font-family="sans-serif" font-size="13" lengthAdjust="spacing" textLength="62.3149" x="309.2435" y="584.1481">via install</text><text fill="#181818" font-family="sans-serif" font-size="13" lengthAdjust="spacing" textLength="223.647" x="140.0911" y="599.281">telemetry &#8212; not a GitHub crawler.</text></g><!--link U to HOME--><g class="link" data-entity-1="ent0001" data-entity-2="ent0002" data-link-type="dependency" data-source-line="246" id="lnk8"><path d="M201.5108,103.8013 C171.8408,113.7913 138.7708,130.4013 119.4208,157.5713 C109.9008,170.9413 107.0053,183.5923 106.6753,199.3823" fill="none" id="U-to-HOME" style="stroke:#585858;stroke-width:2;"/><polygon fill="#585858" points="106.5708,204.3813,110.758,195.4668,106.6753,199.3823,102.7597,195.2996,106.5708,204.3813" style="stroke:#585858;stroke-width:2;stroke-linejoin:miter;stroke-miterlimit:10;"/><text fill="#181818" font-family="sans-serif" font-size="13" lengthAdjust="spacing" textLength="100.2676" x="120.4208" y="170.6381">browse ranking</text></g><!--link U to CLI--><g class="link" data-entity-1="ent0001" data-entity-2="ent0004" data-link-type="dependency" data-source-line="247" id="lnk9"><path d="M327.4208,123.9713 C342.9208,133.8113 358.9308,145.2413 372.4208,157.5713 C391.8108,175.3113 406.7921,195.2678 418.8221,213.3578" fill="none" id="U-to-CLI" style="stroke:#585858;stroke-width:2;"/><polygon fill="#585858" points="421.5908,217.5213,419.9379,207.8121,418.8221,213.3578,413.2764,212.242,421.5908,217.5213" style="stroke:#585858;stroke-width:2;stroke-linejoin:miter;stroke-miterlimit:10;"/><text fill="#181818" font-family="sans-serif" font-size="13" lengthAdjust="spacing" textLength="61.7944" x="389.8008" y="170.6381">find / add</text></g><!--link CLI to API--><g class="link" data-entity-1="ent0004" data-entity-2="ent0003" data-link-type="dependency" data-source-line="248" id="lnk10"><path d="M489.4508,270.7513 C512.6208,282.8413 539.9208,297.9913 563.4208,313.4613 C610.0308,344.1713 656.096,381.449 688.446,408.859" fill="none" id="CLI-to-API" style="stroke:#585858;stroke-width:2;"/><polygon fill="#585858" points="692.2608,412.0913,687.98,403.2214,688.446,408.859,682.8084,409.325,692.2608,412.0913" style="stroke:#585858;stroke-width:2;stroke-linejoin:miter;stroke-miterlimit:10;"/><text fill="#181818" font-family="sans-serif" font-size="13" lengthAdjust="spacing" textLength="79.644" x="655.6208" y="352.4781">search JSON</text></g><!--link API to IX--><g class="link" data-entity-1="ent0003" data-entity-2="ent0006" data-link-type="dependency" data-source-line="249" id="lnk11"><path d="M689.8708,475.1613 C671.2008,489.8713 648.0508,507.4313 626.4208,521.9513 C608.8808,533.7213 593.4402,543.15 575.5602,553.48" fill="none" id="API-to-IX" style="stroke:#585858;stroke-width:2;"/><polygon fill="#585858" points="571.2308,555.9813,581.0247,554.9425,575.5602,553.48,577.0227,548.0155,571.2308,555.9813" style="stroke:#585858;stroke-width:2;stroke-linejoin:miter;stroke-miterlimit:10;"/><text fill="#181818" font-family="sans-serif" font-size="13" lengthAdjust="spacing" textLength="98.998" x="650.2408" y="518.0181">fuzzy + installs</text></g><!--link CLI to TEL--><g class="link" data-entity-1="ent0004" data-entity-2="ent0005" data-link-type="dependency" data-source-line="250" id="lnk12"><path d="M437.4208,270.4513 C437.4208,307.2513 437.4208,370.1613 437.4208,408.7913" fill="none" id="CLI-to-TEL" style="stroke:#818D00;stroke-width:2;"/><polygon fill="#818D00" points="437.4208,413.7913,441.4208,404.7913,437.4208,408.7913,433.4208,404.7913,437.4208,413.7913" style="stroke:#818D00;stroke-width:2;stroke-linejoin:miter;stroke-miterlimit:10;"/><text fill="#181818" font-family="sans-serif" font-size="13" lengthAdjust="spacing" textLength="116.2065" x="438.4208" y="352.4781">on successful add</text></g><!--link TEL to IX--><g class="link" data-entity-1="ent0005" data-entity-2="ent0006" data-link-type="dependency" data-source-line="251" id="lnk13"><path d="M453.4008,473.3013 C466.8408,497.3713 483.5443,527.3151 497.1943,551.7751" fill="none" id="TEL-to-IX" style="stroke:#585858;stroke-width:2;"/><polygon fill="#585858" points="499.6308,556.1413,498.738,546.3329,497.1943,551.7751,491.7521,550.2314,499.6308,556.1413" style="stroke:#585858;stroke-width:2;stroke-linejoin:miter;stroke-miterlimit:10;"/><text fill="#181818" font-family="sans-serif" font-size="13" lengthAdjust="spacing" textLength="137.2808" x="480.2808" y="518.0181">aggregate popularity</text></g><!--link U to BADGE--><g class="link" data-entity-1="ent0001" data-entity-2="ent0007" data-link-type="dependency" data-source-line="252" id="lnk14"><path d="M263.6708,127.9113 C262.7008,178.0113 261.1079,260.1222 260.1779,307.9922" fill="none" id="U-to-BADGE" style="stroke:#585858;stroke-width:1;stroke-dasharray:1,3;"/><polygon fill="#585858" points="260.0808,312.9913,264.2549,304.0706,260.1779,307.9922,256.2564,303.9153,260.0808,312.9913" style="stroke:#585858;stroke-width:1;stroke-linejoin:miter;stroke-miterlimit:10;"/><text fill="#181818" font-family="sans-serif" font-size="13" lengthAdjust="spacing" textLength="98.1982" x="264.0608" y="170.6381">README shield</text></g><!--link BADGE to IX--><g class="link" data-entity-1="ent0007" data-entity-2="ent0006" data-link-type="dependency" data-source-line="253" id="lnk15"><path d="M253.9808,382.5913 C251.4508,409.9613 252.3908,448.2913 271.4208,474.9513 C290.7508,502.0413 359.7751,531.7337 421.3451,554.2537" fill="none" id="BADGE-to-IX" style="stroke:#585858;stroke-width:2;"/><polygon fill="#585858" points="426.0408,555.9713,418.9625,549.1231,421.3451,554.2537,416.2144,556.6363,426.0408,555.9713" style="stroke:#585858;stroke-width:2;stroke-linejoin:miter;stroke-miterlimit:10;"/><text fill="#181818" font-family="sans-serif" font-size="13" lengthAdjust="spacing" textLength="36.6768" x="272.4208" y="448.2181">count</text></g><!--link API to GMN16--><g class="link" data-entity-1="ent0003" data-entity-2="ent0017" data-link-type="association" data-source-line="256" id="lnk18"><path d="M766.6608,475.2413 C776.9608,484.2213 787.6308,494.4613 796.4208,504.9513 C808.3708,519.2213 819.3208,536.7213 827.8208,551.8313" fill="none" id="API-GMN16" style="stroke:#585858;stroke-width:1;stroke-dasharray:7,7;"/></g><?plantuml-src lLdhKXiv5lxlfr0yMy4m-0BaDWwmPHk7iEjW1iDcKpDJARbRjhkGktkaRi1XKhM_zW6szWddIVOxahhT69jB9RMcAZ57vnmT7Ntd9jRslkbJMcCdAheK4VlpN_zb9vA7oVc77aicOYfOHGRZIR8EdaCH2XLucom8FPdwV2Y5vQcnGyM7B4ZOLP1Ccc1bx9bb4coI9B5krkkANzN6M4w7gHRAYy94X4dDYwRrsEnTzNWzy44BabbzoeFGqMjnEfLGUS3L1VDuUCbraq45Ss8-w8Q7LJI7lLFkgKXlClEBYc2Z5yaeLNgzHkVaKYG95iH8A15weccMbQvD_HexZjWx67PCee5cMYItFBAccIz6F9K9D8t0I4mmnNyBVToRWAPOHmdQT1hvmIWGIhDAkJoDmgXStcGR6yD8-XiRcwnU3n8k0wzUNpUw59mgWr0mCOqdN4Dl4Ef4S9z58-Fa81pJ_-ngGjhzW8yLdx8aOX64HjmJEDqteW26LAjLrbOyz5di75LzmgVqx2_jNglpTrm_ssFb7xRUq4yPv8_lZyww6VbTYtw8V7ZQ-iGoyXlpoSYVjntvvHlwoSaxZjn-qTvfx-Ja5uxSVTbzqNrHBe7-eNLqd2jlD5w-U_skxCYvbaRZzQkV3eZSwfsn0dUxrNdbo9-tvkHNxTSDG-vqkiTdZjnf7xItMtCo1CnvjjuSD1h6bExfQV-KvUpRZORHCZW7_s2GAV_fvSussDU-EPXF2wWt0DPY2WHJwBfhhVg8v4i1o9_nCUFXZ8KHOfN2br067LEUU1C2tUukS0XC9xDOxE-pIcn2Hmb_dG6r58W4Injr3iGram5sTtaSGmAVKQ1qKesvIcOCH5PdAeKzY3AaWil04ynzt9rLW7ovdcdHiz0ZFR-d8XMG5PV84bMV3X3Yro7tBiOgIW7QxEEk1wbhAZ8raqWdnXhw0h5OyWHnDyNNA1QA9pZDaBHmDSlKM4nKl1aFCpKUlEgJ7d4DjuHSGZwP1CftnwipMEL3r_pZu5pHs34tnnzQrp3iZN1FA1T1M2VWmR-H4cpnuu0-JyYa1rSHAL8rue5C5UdmXKvKwYNm3_t6mx60UtIknw6nGdVuFP96Utu1KIXdT7lNYSCVasAKK9eYaBZaQOwPGMgzz0naodoTVgz_-hbrSa8ske1TN1nyEkvWqKRSmkBx_k3CIbBmBYnsUltp0opQRBAmUD0sVd79Os7HUSk5xS9vVqG-3d1XTEBDOXhtXISvG1L4eOPN65KfX86KEbS_EFlKwowSzoqfQduadGjyjm-mck-skKM-xv1O1YwFC0xKNML1JnacCEMSwg67jK3uR3XZCZSBiXKgVOJ72Fd7VE5wGbc4QtObfAJ_BMPGkoDg9dIAt70fD8J7IioqXzp5g3PPjkeG-drs6OWhvAaQwuSk3L58CU6FnIOPOIspAQa5vtpyd1S6j131bC8TW4IEcIYKQSJ912bgXaoPJ0f2_PEpe_vngySODmXMeeeSPhxeT2hCbyIeYcAwTIuBmdd-BqGfMXbFo8LmJL1xTK3o1UcVpxldfdYQivYSOt8Y30tzQZGQmRSv93TjUcJeijOBEXnyyA4hqq8pFizs24yUpXEQdY4yfn0-rtoC1ecrYevhiwRReiwuPqtzHc1b25wudkel3ksR19tVgliBZFcLp1ajkEwovXS0LXiPAtJclWQZBU0h67E75ZOtWCxvNJlL4sFkeUp9W9FRAnSYJWZWu09CNIEdsOKGCRkAr0MmlCviDtKh3ncth4YBg5FBqvuhXCiJPjP-kDPZOTNqPbc-pDTEMcVlhIaeUjv5ABJUsxczskb_-D0lhc_DnKsrwl6Xa9NhTRPhMk-ckv7ztU7-zMvzkBzRD_IvntNgUL1qHyxQlLhE7zuHiUUvA-8kgoC5nv1Z4aD04QaVsm2ND6uEBG2QSimqCRhoC1aaCqcZXfUW1ajHO8aHhuYjrGokL9uXA5kez-6K0iuJ5F-b4ZeooEsN6EQRA64t9SBXOCBzY38XSepKugqXqZJJeHCosvbRwho0kJNJdjkr7XpdgBPl8VBN4lx1O2PDKt9JL4jOU6i8W-2BODkDj-16bk4c2oumEurMdwqXDwjtjUIp34Tig_PozQcCoZ12BRvPVaRRFIq_vCvztZgrIXJXuetTYg6j6QFDMxNNFVvywbRunqApAmM1e4fDKmOFf1CQFz64e1CEeq9RvSPNaqdeEZ98hhBONADTYXGIaoCZizonjt2u_DgtNjmzm9Qxn1Fk-mJBhKRcF5F6Q6PTPKs-xIrZvZOk1m2pGyp3Tt9BwyEtyhHJRcV6v67z_IswQu2DEUN_l_RoUSA7A6ZtHjlsYajSik5ZGPK78FAs59xjh-_1TBRLur5Doj7NWFOaS9g7WYUWYBQn0-sgRKpfNhQJUsHuSiuoe-lJKjOoJsLXI2f7YfxAxkJmfP4w9zw2L9uLN4ryeZPZXUsbRfvcVPvPpNF9F7Ngnxzv6HKdva641bo4GtGfyXbmT_U7YRZUts_Isioy9iuDCQEJDWf-3UsaD5I2No2bP-AsPQdLzhCtHJ-2SQXnwvjM8_Xzeu7hR03ZYPcqwLa6SmGc89gN7BFf6d1bqTGy6iRIl1eoLgCdcGVhml9WlUljhqQZcKyUWUpby2rgBQ3Tg3RFDm-5viDgUqMTzqP6CPKzw8HYpmJ5_l0nxSY3rYveDLtqAiLcr7cajJdlrz9ktJMLjir39ogbhkc9cUvx09fGmuWApAbvwNxEVau5HiT1QWgv_Gk2ZocsoVuX50ssSmrHZEu4aGruMYAmE0umzCvenZpjDScgxCy4kLZztaK_ylGI1li71lDNXKjZHbNoeNPouEzXSfMGs2wLR8ulTr10CByhccR9n385qtd98g8yFyGaceeO7B-65IvbrJnUoe9Rpe_MZUZx_eVk_9amqtFOFMDr7WTrBRZo9d_zVU-vf0bZxtbqXIouPqHR9qT5oRnbAuVnTUOvp3N-7sWr_f1me97gz8wofzQIBIZbLXY5ioazPT0V4M0kImHrZ_0up2zeWoBsvx__0pPVN5lxpxgz-PjhAI_pvIEhgQfuU86EqoYmSaRiw9_kJRDeTvlxv31p-67znXprQ_r6YJZwQgJQhOF3RlusMogTtngkZIkRI8lH5IoWZT5WvJnc2AN3DurJwFvylqI4eWxoQPDPhxE_3Vh79Q8KDC1mA4Y_V9cn7pDtwO8Q-o10NcdIEvuRHKUfDDiHVL4P7u-1Rth6ZQCubLm5oIotEd-pi4TlijDkwm37r9D0IBzagOiQFOHtKYgPwMOO9Gaby14T3P7RlURJM8ecrVTKILRLFRPsDrvkOGybWAg5xp2urLY3DE70yl_oM-qcy3VjRqVu4gB8R-REeUUv5B55gUWuGb7oKXfC00fuHLRzT1eRjrFYoAA6nX6gIoPMQYKQdUWqTyu4VqBhmABJJBj6pE2CRMpGy_B61hiCU6ODpQKPjisEKCWuEmoIz-cGUOfVIQ7c6_uF?></g></svg>