<svg xmlns="http://www.w3.org/2000/svg" viewBox="0 0 45 45"><g fill="#000" stroke="#000" stroke-linecap="round" stroke-linejoin="round" stroke-width="1.5"><path d="M9 41h27v-3H9z"/><path d="M11 38c0-4 4-7 11.5-7S34 34 34 38z"/><path fill="#fc0" d="M13 34l2-4h15l2 4z"/><path fill="none" stroke="#000" stroke-width="1" d="M22.5 30v4"/><circle fill="#c33" cx="15.5" cy="32" r=".8" stroke="none"/><circle fill="#c33" cx="22.5" cy="32" r=".8" stroke="none"/><circle fill="#c33" cx="29.5" cy="32" r=".8" stroke="none"/><ellipse cx="22.5" cy="22" rx="7" ry="9"/><path d="M22.5 28 l-4 3 h8z"/><ellipse cx="16" cy="14" rx="2.5" ry="3.5" transform="rotate(-25 16 14)"/><ellipse cx="29" cy="14" rx="2.5" ry="3.5" transform="rotate(25 29 14)"/><circle cx="19" cy="21" r="1.1" fill="#ececec" stroke="none"/><circle cx="26" cy="21" r="1.1" fill="#ececec" stroke="none"/><circle fill="#c33" cx="22.5" cy="17" r="1.2" stroke="none"/><path fill="none" stroke="#ececec" stroke-width="1" d="M19 29l-4 1M26 29l4 1"/></g></svg>
