<svg xmlns="http://www.w3.org/2000/svg" viewBox="0 0 45 45"><g fill="#000" stroke="#000" stroke-linecap="round" stroke-linejoin="round" stroke-width="1.5"><path d="M9 41h27v-3H9z"/><path d="M11 38c0-4 4-7 11.5-7S34 34 34 38z"/><path fill="none" stroke="#ececec" stroke-width="1.2" d="M14 33 q8.5-3 17 0"/><path fill="none" stroke="#ececec" stroke-width="1.2" d="M15 36 q7.5-3 15 0"/><ellipse cx="17" cy="34" rx="1.2" ry="1" fill="none" stroke="#ececec" stroke-width="1"/><ellipse cx="28" cy="34" rx="1.2" ry="1" fill="none" stroke="#ececec" stroke-width="1"/><ellipse cx="22.5" cy="21" rx="7" ry="9"/><circle cx="14" cy="13" r="3.5"/><circle cx="31" cy="13" r="3.5"/><circle cx="14" cy="13" r="1.7" fill="#f99" stroke="none"/><circle cx="31" cy="13" r="1.7" fill="#f99" stroke="none"/><path fill="#fc0" d="M16 8 l1-4 2 2.5 2-3 1.5 3 1.5-3 2 3 2-2.5 1 4z"/><circle cx="18" cy="4" r=".7" fill="#f99" stroke="none"/><circle cx="22.5" cy="3.5" r=".7" fill="#f99" stroke="none"/><circle cx="27" cy="4" r=".7" fill="#f99" stroke="none"/><path fill="none" stroke="#ececec" d="M17 19 L20 20 M25 20 L28 19"/><path fill="#f99" stroke="none" d="M21 24l1.5 1.5 1.5-1.5z"/><path fill="none" stroke="#ececec" d="M22.5 25.5v1.5M21 27q1.5 1 3 0"/></g></svg>
