<svg xmlns="http://www.w3.org/2000/svg" viewBox="0 0 45 45"><g stroke="#000" stroke-linecap="round" stroke-linejoin="round" stroke-width="1.5"><path fill="#fff" d="M8 41h29v-3H8z"/><path fill="#fff" d="M10 38c0-4 5-7 12.5-7S35 34 35 38z"/><path fill="#fff" d="M11 25 q0-13 11.5-13 T34 25 v4 q0 4-11.5 4 T11 29 z"/><circle fill="#fff" cx="14" cy="15" r="2.5"/><circle fill="#fff" cx="31" cy="15" r="2.5"/><circle cx="14" cy="15" r="1.2" fill="#f99" stroke-width="0.6"/><circle cx="31" cy="15" r="1.2" fill="#f99" stroke-width="0.6"/><path fill="#fc0" d="M16 11 l1-5 2 3 2-4 1.5 4 1.5-4 2 4 2-3 1 5z"/><path fill="none" stroke-width="1" d="M22.5 7V3M20.5 5h4"/><circle cx="18" cy="22" r="1" fill="#000" stroke="none"/><circle cx="27" cy="22" r="1" fill="#000" stroke="none"/><path fill="#f99" stroke="#000" stroke-width="0.6" d="M21 26h3l-1.5 1.5z"/><path fill="none" d="M18 28l-3 1M18 29l-3 2M27 28l3 1M27 29l3 2"/></g></svg>
