<svg xmlns="http://www.w3.org/2000/svg" viewBox="0 0 45 45"><g stroke="#000" stroke-linecap="round" stroke-linejoin="round" stroke-width="1.5"><path fill="#fff" d="M9 41h27v-3H9z"/><path fill="#fff" d="M11 38c0-4 4-7 11.5-7S34 34 34 38z"/><ellipse fill="#fff" cx="22.5" cy="22" rx="8" ry="9"/><ellipse fill="#fff" cx="17" cy="11" rx="2.5" ry="8" transform="rotate(-10 17 11)"/><ellipse fill="#fff" cx="28" cy="11" rx="2.5" ry="8" transform="rotate(10 28 11)"/><ellipse fill="#f99" cx="17" cy="12" rx="1" ry="5" transform="rotate(-10 17 12)" stroke-width="0.6"/><ellipse fill="#f99" cx="28" cy="12" rx="1" ry="5" transform="rotate(10 28 12)" stroke-width="0.6"/><circle cx="19" cy="21" r="1" fill="#000" stroke="none"/><circle cx="26" cy="21" r="1" fill="#000" stroke="none"/><ellipse cx="22.5" cy="25" rx="1.2" ry="1" fill="#f99" stroke="#000" stroke-width="0.6"/><path fill="none" stroke-width="1" d="M19 27l-4 1M19 28l-4 2M26 27l4 1M26 28l4 2"/></g></svg>
