<svg xmlns="http://www.w3.org/2000/svg" xmlns:xlink="http://www.w3.org/1999/xlink" contentStyleType="text/css" data-diagram-type="DESCRIPTION" height="872px" preserveAspectRatio="none" style="width:744px;height:872px;background:#FAFAFA;" version="1.1" viewBox="0 0 744 872" width="744px" zoomAndPan="magnify"><?plantuml 1.2026.3?><defs><filter height="300%" id="f1mrj8q4d4zm74" width="300%" x="-1" y="-1"><feGaussianBlur result="blurOut" stdDeviation="2"/><feColorMatrix in="blurOut" result="blurOut2" type="matrix" values="0 0 0 0 0 0 0 0 0 0 0 0 0 0 0 0 0 0 .4 0"/><feOffset dx="4" dy="4" in="blurOut2" result="blurOut3"/><feBlend in="SourceGraphic" in2="blurOut3" mode="normal"/></filter></defs><g><rect fill="#FAFAFA" height="872" style="stroke:none;stroke-width:1;" width="744" x="0" y="0"/><g class="title" data-source-line="2"><rect fill="none" height="33.5547" style="stroke:#585858;stroke-width:1;" width="553.8184" x="92.0106" y="5"/><text fill="#005F7F" font-family="sans-serif" font-size="20" font-weight="700" lengthAdjust="spacing" textLength="543.8184" x="97.0106" y="29.3359">Cross-session user model (personalization memory)</text></g><!--entity AGENT--><g class="entity" data-qualified-name="AGENT" data-source-line="10" id="ent0002"><rect fill="#005F7F" filter="url(#f1mrj8q4d4zm74)" height="69.4648" rx="6" ry="6" style="stroke:#00BAC6;stroke-width:0.5;" width="129.9492" x="170.26" y="51.5547"/><text fill="#FAFAFA" font-family="sans-serif" font-size="14" font-style="italic" lengthAdjust="spacing" textLength="40.0244" x="215.2224" y="75.0898">&#171;app&#187;</text><text fill="#FAFAFA" font-family="sans-serif" font-size="14" lengthAdjust="spacing" textLength="40.1133" x="215.178" y="91.5781">Agent</text><text fill="#FAFAFA" font-family="sans-serif" font-size="14" lengthAdjust="spacing" textLength="109.9492" x="180.26" y="108.0664">(frozen weights)</text></g><!--entity SESS--><g class="entity" data-qualified-name="SESS" data-source-line="11" id="ent0003"><rect fill="#00BAC6" filter="url(#f1mrj8q4d4zm74)" height="69.4648" rx="6" ry="6" style="stroke:#006B70;stroke-width:0.5;" width="146.4717" x="7" y="198.0247"/><text fill="#181818" font-family="sans-serif" font-size="14" font-style="italic" lengthAdjust="spacing" textLength="44.3311" x="58.0703" y="221.5598">&#171;host&#187;</text><text fill="#181818" font-family="sans-serif" font-size="14" lengthAdjust="spacing" textLength="126.4717" x="17" y="238.0481">Sessions over time</text><text fill="#181818" font-family="sans-serif" font-size="14" lengthAdjust="spacing" textLength="105.1094" x="27.6812" y="254.5364">(multi-channel)</text></g><!--entity EPI--><g class="entity" data-qualified-name="EPI" data-source-line="12" id="ent0004"><path d="M110.34,354.4847 C110.34,344.4847 235.2316,344.4847 235.2316,344.4847 C235.2316,344.4847 360.1232,344.4847 360.1232,354.4847 L360.1232,412.9495 C360.1232,422.9495 235.2316,422.9495 235.2316,422.9495 C235.2316,422.9495 110.34,422.9495 110.34,412.9495 L110.34,354.4847" fill="#E5E4E4" filter="url(#f1mrj8q4d4zm74)" style="stroke:#585858;stroke-width:0.5;"/><path d="M110.34,354.4847 C110.34,364.4847 235.2316,364.4847 235.2316,364.4847 C235.2316,364.4847 360.1232,364.4847 360.1232,354.4847" fill="none" style="stroke:#585858;stroke-width:0.5;"/><text fill="#181818" font-family="sans-serif" font-size="14" font-style="italic" lengthAdjust="spacing" textLength="32.293" x="219.0851" y="382.0198">&#171;db&#187;</text><text fill="#181818" font-family="sans-serif" font-size="14" lengthAdjust="spacing" textLength="95.1426" x="187.6603" y="398.5081">Episodic store</text><text fill="#181818" font-family="sans-serif" font-size="14" lengthAdjust="spacing" textLength="229.7832" x="120.34" y="414.9964">(FTS5 sessions + LLM summaries)</text></g><!--entity REASON--><g class="entity" data-qualified-name="REASON" data-source-line="13" id="ent0005"><rect fill="#005F7F" filter="url(#f1mrj8q4d4zm74)" height="69.4648" rx="6" ry="6" style="stroke:#00BAC6;stroke-width:0.5;" width="171.9629" x="232.25" y="499.9547"/><text fill="#FAFAFA" font-family="sans-serif" font-size="14" font-style="italic" lengthAdjust="spacing" textLength="40.0244" x="298.2192" y="523.4898">&#171;app&#187;</text><text fill="#FAFAFA" font-family="sans-serif" font-size="14" lengthAdjust="spacing" textLength="151.9629" x="242.25" y="539.9781">Background reasoning</text><text fill="#FAFAFA" font-family="sans-serif" font-size="14" lengthAdjust="spacing" textLength="150.2061" x="243.1284" y="556.4664">(build the user model)</text></g><!--entity MODEL--><g class="entity" data-qualified-name="MODEL" data-source-line="14" id="ent0006"><path d="M294.94,656.4147 C294.94,646.4147 433.2335,646.4147 433.2335,646.4147 C433.2335,646.4147 571.5269,646.4147 571.5269,656.4147 L571.5269,714.8795 C571.5269,724.8795 433.2335,724.8795 433.2335,724.8795 C433.2335,724.8795 294.94,724.8795 294.94,714.8795 L294.94,656.4147" fill="#E5E4E4" filter="url(#f1mrj8q4d4zm74)" style="stroke:#585858;stroke-width:0.5;"/><path d="M294.94,656.4147 C294.94,666.4147 433.2335,666.4147 433.2335,666.4147 C433.2335,666.4147 571.5269,666.4147 571.5269,656.4147" fill="none" style="stroke:#585858;stroke-width:0.5;"/><text fill="#181818" font-family="sans-serif" font-size="14" font-style="italic" lengthAdjust="spacing" textLength="32.293" x="417.087" y="683.9498">&#171;db&#187;</text><text fill="#181818" font-family="sans-serif" font-size="14" lengthAdjust="spacing" textLength="77.123" x="394.6719" y="700.4381">User model</text><text fill="#181818" font-family="sans-serif" font-size="14" lengthAdjust="spacing" textLength="256.5869" x="304.94" y="716.9264">(peer representation &#183; theory of mind)</text></g><g class="entity" data-qualified-name="GMN13" data-source-line="24" id="ent0014"><path d="M189.93,785.8847 L189.93,857.1269 A0,0 0 0 0 189.93,857.1269 L676.5369,857.1269 A0,0 0 0 0 676.5369,857.1269 L676.5369,795.8847 L666.5369,785.8847 L437.24,785.8847 L433.24,725.3647 L429.24,785.8847 L189.93,785.8847 A0,0 0 0 0 189.93,785.8847" fill="#E5E4E4" filter="url(#f1mrj8q4d4zm74)" style="stroke:#B4B3B3;stroke-width:0.5;"/><path d="M666.5369,785.8847 L666.5369,795.8847 L676.5369,795.8847 L666.5369,785.8847" fill="#E5E4E4" style="stroke:#B4B3B3;stroke-width:0.5;"/><text fill="#181818" font-family="sans-serif" font-size="13" lengthAdjust="spacing" textLength="465.6069" x="195.93" y="803.453">A distinct memory axis: not execution evidence (evidence-and-durability)</text><text fill="#181818" font-family="sans-serif" font-size="13" lengthAdjust="spacing" textLength="390.2603" x="203.9852" y="818.7636">nor task-capability self-improvement, but a durable model of</text><text fill="#181818" font-family="sans-serif" font-size="13" font-weight="700" lengthAdjust="spacing" textLength="55.123" x="598.3587" y="818.7636">the user</text><text fill="#181818" font-family="sans-serif" font-size="13" lengthAdjust="spacing" textLength="449.8647" x="203.8011" y="834.0741">that deepens across sessions and channels &#8212; observer&#8594;observed peer</text><text fill="#181818" font-family="sans-serif" font-size="13" lengthAdjust="spacing" textLength="248.3838" x="304.5416" y="849.3847">representations &#8212; with weights frozen.</text></g><!--link AGENT to SESS--><g class="link" data-entity-1="ent0002" data-entity-2="ent0003" data-link-type="dependency" data-source-line="16" id="lnk7"><path d="M187.89,121.2047 C175.89,130.4547 163.28,140.7547 152.24,151.0247 C136.69,165.4647 124.7528,178.346 111.8928,193.296" fill="none" id="AGENT-to-SESS" style="stroke:#585858;stroke-width:2;"/><polygon fill="#585858" points="107.98,197.8447,116.8816,193.6302,111.2406,194.0541,110.8167,188.4132,107.98,197.8447" style="stroke:#585858;stroke-width:2;"/><text fill="#181818" font-family="sans-serif" font-size="13" lengthAdjust="spacing" textLength="55.8721" x="153.24" y="164.593">converse</text></g><!--link SESS to EPI--><g class="link" data-entity-1="ent0003" data-entity-2="ent0004" data-link-type="dependency" data-source-line="17" id="lnk8"><path d="M62.63,267.8747 C57.31,283.2147 55.02,300.8847 64.24,314.4847 C75.62,331.2947 86.5791,341.1438 104.5891,350.6938" fill="none" id="SESS-to-EPI" style="stroke:#585858;stroke-width:2;"/><polygon fill="#585858" points="109.89,353.5047,103.8126,345.7545,105.4726,351.1623,100.0648,352.8223,109.89,353.5047" style="stroke:#585858;stroke-width:2;"/><text fill="#181818" font-family="sans-serif" font-size="13" lengthAdjust="spacing" textLength="143.8125" x="65.24" y="311.053">log messages &amp; events</text></g><!--link EPI to REASON--><g class="link" data-entity-1="ent0004" data-entity-2="ent0005" data-link-type="dependency" data-source-line="18" id="lnk9"><path d="M256.61,423.0847 C269.77,446.7047 283.5685,471.474 296.2785,494.274" fill="none" id="EPI-to-REASON" style="stroke:#818D00;stroke-width:2;"/><polygon fill="#818D00" points="299.2,499.5147,298.3116,489.706,296.7654,495.1474,291.324,493.6013,299.2,499.5147" style="stroke:#818D00;stroke-width:2;"/><text fill="#181818" font-family="sans-serif" font-size="13" lengthAdjust="spacing" textLength="114.1626" x="282.71" y="466.523">background distill</text></g><!--link REASON to MODEL--><g class="link" data-entity-1="ent0005" data-entity-2="ent0006" data-link-type="dependency" data-source-line="19" id="lnk10"><path d="M334.87,569.5747 C342.88,584.5347 353.14,601.9547 364.24,616.4147 C372.03,626.5747 377.0582,632.4513 386.2082,641.6913" fill="none" id="REASON-to-MODEL" style="stroke:#585858;stroke-width:2;"/><polygon fill="#585858" points="390.43,645.9547,386.9395,636.7451,386.9118,642.4019,381.255,642.3742,390.43,645.9547" style="stroke:#585858;stroke-width:2;"/><text fill="#181818" font-family="sans-serif" font-size="13" lengthAdjust="spacing" textLength="139.7881" x="365.24" y="612.983">update representation</text></g><!--link MODEL to AGENT--><g class="link" data-entity-1="ent0006" data-entity-2="ent0002" data-link-type="dependency" data-source-line="20" id="lnk11"><path d="M484.59,646.0447 C493.84,637.1547 502.63,627.1347 509.24,616.4147 C528.76,584.7647 531.24,572.8747 531.24,535.6847 C531.24,231.7547 531.24,231.7547 531.24,231.7547 C531.24,129.8247 393.6994,100.41 306.5294,91.57" fill="none" id="MODEL-to-AGENT" style="stroke:#585858;stroke-width:2;"/><polygon fill="#585858" points="300.56,90.9647,309.1105,95.8523,305.5345,91.4692,309.9176,87.8931,300.56,90.9647" style="stroke:#585858;stroke-width:2;"/><text fill="#181818" font-family="sans-serif" font-size="13" lengthAdjust="spacing" textLength="196.5996" x="532.24" y="388.793">personalize next session (loop)</text></g><!--link EPI to AGENT--><g class="link" data-entity-1="ent0004" data-entity-2="ent0002" data-link-type="dependency" data-source-line="21" id="lnk12"><path d="M235.24,344.1947 C235.24,286.0747 235.24,182.9047 235.24,127.4647" fill="none" id="EPI-to-AGENT" style="stroke:#585858;stroke-width:1;stroke-dasharray:1,3;"/><polygon fill="#585858" points="235.24,121.4647,231.24,130.4647,235.24,126.4647,239.24,130.4647,235.24,121.4647" style="stroke:#585858;stroke-width:1;"/><text fill="#181818" font-family="sans-serif" font-size="13" lengthAdjust="spacing" textLength="241.2236" x="236.24" y="237.823">episodic recall &#8212; search + summarize</text></g><?plantuml-src XLJDRjj64BxpAIO-j99JIaxQ504R650RnJ4WIwea8vS2nP8SYOli3x6pj6MVSie317sNtFCeUPBEaYjBbb6K9tAvyyqtCzytpwGfL5CYLDxNb0s7JjmEDj9NJTuGki8QZyOF2gk7jRCtQDD236N9PzBV3RMG9fuFwaQhX4yLmX_E4gM4HD8Q23YWROaAUZKwiaOeUIzy-ATHMtVNJtw4kRDbK_WCtbjJL1PwSoN8om8c8gS-VF_q3_WA-N9grwcMfZp0bMO3Q-j0R9WNCTZrOf91U7PLTHLrPNIugMBSOTKc2-a5KminLwWlvgistyhU2bSIJ2PN189WnbUODYTRtf57JT3p4XsMeApPf1wTFYZe2GVXjl9cODrc63A__Fd5sU3izQjVp_w7xzGsj412uOfgM74EfBGjbA_tKEUsb3fy1SQnTy_XtMhv2XmMGgd0PO8tg4A6Nw17gDQfr65gePHAECE3QiDlKMugJx1szXxDRw7XXzCh4Miqr4yIvbLR4xAUZ0ALlqolYzb1z4_WlnzkvUXYF5q1l7aZwlhy_11lsQc6W4Nbm7Dj3AuRvMLQLC8OL4-n6N0vNYuX05QMF2EMmejS40ASZ6j9tAG2o5iNqDhcq2xFyp1Ve4PhuIJkc3FaU7u9BMIPFwRukoW-RfnjM8CE1UkP-yYmUIDLUTIpFLS6N8n7ozdqeUW3YjSF0OnJ8tyuh1qFtVZE9z--HlM3NKDGVm1coAlPs_7aWMCIspfQB6OV_huQNKxRrB4t6R2RkQc4IJmvkXSBpbZE6nOo4SkCu0TWyGHRnTzTq9_Nu-jn-8n5PP3lkr9ATfXIIVntb2Popg2fkGLuL6eIVny5nSeos6yG18DRlniaz9IrTVynozbyTJcRZYRxSDo9eJD7A_lEMoo4A89xJ19ZcLbklRSwjBmbbJ1iLvifV7GwYAsa3FWwu1QBffqMteGDMI3xCxwbmfHfsJYHIyMBiyzGXXUM5_IH5seTZ-70cnXC_HFaZGS1RIGlriw7pEVqTAUpqrF6yfNmEtk2ACBwtGkSKqEqJcTpctCS2-7xvo_njOGWEWPwF8ku5NWN7Qs6GO8C6dhqBm00?></g></svg>