<svg xmlns="http://www.w3.org/2000/svg" xmlns:xlink="http://www.w3.org/1999/xlink" contentStyleType="text/css" data-diagram-type="DESCRIPTION" height="704px" preserveAspectRatio="none" style="width:789px;height:704px;background:#FAFAFA;" version="1.1" viewBox="0 0 789 704" width="789px" zoomAndPan="magnify"><?plantuml 1.2026.3?><defs><filter height="300%" id="f16h0q8t5lrmiy" width="300%" x="-1" y="-1"><feGaussianBlur result="blurOut" stdDeviation="2"/><feColorMatrix in="blurOut" result="blurOut2" type="matrix" values="0 0 0 0 0 0 0 0 0 0 0 0 0 0 0 0 0 0 .4 0"/><feOffset dx="4" dy="4" in="blurOut2" result="blurOut3"/><feBlend in="SourceGraphic" in2="blurOut3" mode="normal"/></filter></defs><g><rect fill="#FAFAFA" height="704" style="stroke:none;stroke-width:1;" width="789" x="0" y="0"/><g class="title" data-source-line="2"><rect fill="none" height="33.5547" style="stroke:#585858;stroke-width:1;" width="472.1484" x="155.3719" y="5"/><text fill="#005F7F" font-family="sans-serif" font-size="20" font-weight="700" lengthAdjust="spacing" textLength="462.1484" x="160.3719" y="29.3359">Reflective Prompt and Program Optimization</text></g><!--entity PROG--><g class="entity" data-qualified-name="PROG" data-source-line="9" id="ent0002"><rect fill="#005F7F" filter="url(#f16h0q8t5lrmiy)" height="69.4648" rx="6" ry="6" style="stroke:#00BAC6;stroke-width:0.5;" width="275.7734" x="260.24" y="51.5547"/><text fill="#FAFAFA" font-family="sans-serif" font-size="14" font-style="italic" lengthAdjust="spacing" textLength="40.0244" x="378.1145" y="75.0898">&#171;app&#187;</text><text fill="#FAFAFA" font-family="sans-serif" font-size="14" lengthAdjust="spacing" textLength="82.3525" x="356.9504" y="91.5781">LM program</text><text fill="#FAFAFA" font-family="sans-serif" font-size="14" lengthAdjust="spacing" textLength="255.7734" x="270.24" y="108.0664">(frozen model + declarative modules)</text></g><!--entity DATA--><g class="entity" data-qualified-name="DATA" data-source-line="10" id="ent0003"><path d="M6,208.0247 C6,198.0247 75.1309,198.0247 75.1309,198.0247 C75.1309,198.0247 144.2617,198.0247 144.2617,208.0247 L144.2617,250.0013 C144.2617,260.0013 75.1309,260.0013 75.1309,260.0013 C75.1309,260.0013 6,260.0013 6,250.0013 L6,208.0247" fill="#E5E4E4" filter="url(#f16h0q8t5lrmiy)" style="stroke:#585858;stroke-width:0.5;"/><path d="M6,208.0247 C6,218.0247 75.1309,218.0247 75.1309,218.0247 C75.1309,218.0247 144.2617,218.0247 144.2617,208.0247" fill="none" style="stroke:#585858;stroke-width:0.5;"/><text fill="#181818" font-family="sans-serif" font-size="14" font-style="italic" lengthAdjust="spacing" textLength="32.293" x="58.9844" y="235.5598">&#171;db&#187;</text><text fill="#181818" font-family="sans-serif" font-size="14" lengthAdjust="spacing" textLength="118.2617" x="16" y="252.0481">Trainset + metric</text></g><!--entity OPT--><g class="entity" data-qualified-name="OPT" data-source-line="11" id="ent0004"><rect fill="#005F7F" filter="url(#f16h0q8t5lrmiy)" height="69.4648" rx="6" ry="6" style="stroke:#00BAC6;stroke-width:0.5;" width="215.7197" x="280.27" y="337.0047"/><text fill="#FAFAFA" font-family="sans-serif" font-size="14" font-style="italic" lengthAdjust="spacing" textLength="40.0244" x="368.1177" y="360.5398">&#171;app&#187;</text><text fill="#FAFAFA" font-family="sans-serif" font-size="14" lengthAdjust="spacing" textLength="134.9414" x="320.6592" y="377.0281">Reflective optimizer</text><text fill="#FAFAFA" font-family="sans-serif" font-size="14" lengthAdjust="spacing" textLength="195.7197" x="290.27" y="393.5164">(DSPy compile &#183; GEPA evolve)</text></g><!--entity REFLECT--><g class="entity" data-qualified-name="REFLECT" data-source-line="12" id="ent0005"><rect fill="#005F7F" filter="url(#f16h0q8t5lrmiy)" height="69.4648" rx="6" ry="6" style="stroke:#00BAC6;stroke-width:0.5;" width="203.1621" x="355.55" y="483.4647"/><text fill="#FAFAFA" font-family="sans-serif" font-size="14" font-style="italic" lengthAdjust="spacing" textLength="40.0244" x="437.1188" y="506.9998">&#171;app&#187;</text><text fill="#FAFAFA" font-family="sans-serif" font-size="14" lengthAdjust="spacing" textLength="146.4258" x="383.9182" y="523.4881">Reflection over traces</text><text fill="#FAFAFA" font-family="sans-serif" font-size="14" lengthAdjust="spacing" textLength="183.1621" x="365.55" y="539.9764">(natural-language critique)</text></g><!--entity CANDS--><g class="entity" data-qualified-name="CANDS" data-source-line="13" id="ent0006"><path d="M462.14,629.9347 L664.1273,629.9347 C669.1273,629.9347 669.1273,659.6671 669.1273,659.6671 C669.1273,659.6671 669.1273,689.3995 664.1273,689.3995 L462.14,689.3995 C457.14,689.3995 457.14,659.6671 457.14,659.6671 C457.14,659.6671 457.14,629.9347 462.14,629.9347" fill="#CBDB2A" filter="url(#f16h0q8t5lrmiy)" style="stroke:#818D00;stroke-width:0.5;"/><path d="M664.1273,629.9347 C659.1273,629.9347 659.1273,659.6671 659.1273,659.6671 C659.1273,689.3995 664.1273,689.3995 664.1273,689.3995" fill="none" style="stroke:#818D00;stroke-width:0.5;"/><text fill="#181818" font-family="sans-serif" font-size="14" font-style="italic" lengthAdjust="spacing" textLength="52.7119" x="531.7777" y="648.4698">&#171;async&#187;</text><text fill="#181818" font-family="sans-serif" font-size="14" lengthAdjust="spacing" textLength="191.9873" x="462.14" y="664.9581">Candidate prompts / demos</text><text fill="#181818" font-family="sans-serif" font-size="14" lengthAdjust="spacing" textLength="107.3447" x="504.4613" y="681.4464">(Pareto frontier)</text></g><g class="entity" data-qualified-name="GMN12" data-source-line="22" id="ent0013"><path d="M179.58,201.0447 L179.58,256.9763 A0,0 0 0 0 179.58,256.9763 L616.6816,256.9763 A0,0 0 0 0 616.6816,256.9763 L616.6816,211.0447 L606.6816,201.0447 L402.13,201.0447 L398.13,121.3547 L394.13,201.0447 L179.58,201.0447 A0,0 0 0 0 179.58,201.0447" fill="#E5E4E4" filter="url(#f16h0q8t5lrmiy)" style="stroke:#B4B3B3;stroke-width:0.5;"/><path d="M606.6816,201.0447 L606.6816,211.0447 L616.6816,211.0447 L606.6816,201.0447" fill="#E5E4E4" style="stroke:#B4B3B3;stroke-width:0.5;"/><text fill="#181818" font-family="sans-serif" font-size="13" font-weight="700" lengthAdjust="spacing" textLength="104.2603" x="198.0087" y="218.613">Weights frozen.</text><text fill="#181818" font-family="sans-serif" font-size="13" lengthAdjust="spacing" textLength="282.8706" x="306.3822" y="218.613">Only the prompts, few-shot demonstrations,</text><text fill="#181818" font-family="sans-serif" font-size="13" lengthAdjust="spacing" textLength="416.1016" x="185.58" y="233.9236">and program structure change &#8212; gradient-free self-improvement</text><text fill="#181818" font-family="sans-serif" font-size="13" lengthAdjust="spacing" textLength="218.3467" x="284.4574" y="249.2341">that can rival RL on small budgets.</text></g><!--link PROG to DATA--><g class="link" data-entity-1="ent0002" data-entity-2="ent0003" data-link-type="dependency" data-source-line="15" id="lnk7"><path d="M319.94,121.3547 C266.45,144.6647 201.6702,172.8773 150.1402,195.3373" fill="none" id="PROG-to-DATA" style="stroke:#585858;stroke-width:2;"/><polygon fill="#585858" points="144.64,197.7347,154.4886,197.8055,149.2235,195.7369,151.2921,190.4718,144.64,197.7347" style="stroke:#585858;stroke-width:2;"/><text fill="#181818" font-family="sans-serif" font-size="13" lengthAdjust="spacing" textLength="73.8486" x="247.32" y="164.593">run + score</text></g><!--link DATA to OPT--><g class="link" data-entity-1="ent0003" data-entity-2="ent0004" data-link-type="dependency" data-source-line="16" id="lnk8"><path d="M142.66,260.3747 C192.53,282.7947 254.9772,310.8753 306.7372,334.1353" fill="none" id="DATA-to-OPT" style="stroke:#818D00;stroke-width:2;"/><polygon fill="#818D00" points="312.21,336.5947,305.6404,329.2571,307.6493,334.5452,302.3612,336.5542,312.21,336.5947" style="stroke:#818D00;stroke-width:2;"/><text fill="#181818" font-family="sans-serif" font-size="13" lengthAdjust="spacing" textLength="139.9468" x="242.02" y="303.573">metric + failing traces</text></g><!--link OPT to REFLECT--><g class="link" data-entity-1="ent0004" data-entity-2="ent0005" data-link-type="dependency" data-source-line="17" id="lnk9"><path d="M404.31,406.6047 C415.3,429.6247 427.2019,454.5516 438.2319,477.6216" fill="none" id="OPT-to-REFLECT" style="stroke:#585858;stroke-width:2;"/><polygon fill="#585858" points="440.82,483.0347,440.5466,473.1896,438.6633,478.5238,433.3291,476.6404,440.82,483.0347" style="stroke:#585858;stroke-width:2;"/><text fill="#181818" font-family="sans-serif" font-size="13" lengthAdjust="spacing" textLength="98.6934" x="425.7" y="450.033">critique failures</text></g><!--link REFLECT to CANDS--><g class="link" data-entity-1="ent0005" data-entity-2="ent0006" data-link-type="dependency" data-source-line="18" id="lnk10"><path d="M483.06,553.3147 C500.84,576.7047 520.5291,602.618 537.4191,624.838" fill="none" id="REFLECT-to-CANDS" style="stroke:#585858;stroke-width:2;"/><polygon fill="#585858" points="541.05,629.6147,538.7881,620.0291,538.0243,625.6341,532.4192,624.8703,541.05,629.6147" style="stroke:#585858;stroke-width:2;"/><text fill="#181818" font-family="sans-serif" font-size="13" lengthAdjust="spacing" textLength="94.4912" x="517.48" y="596.503">proposed edits</text></g><!--link CANDS to PROG--><g class="link" data-entity-1="ent0006" data-entity-2="ent0002" data-link-type="dependency" data-source-line="19" id="lnk11"><path d="M603.89,629.5147 C634.13,604.1847 670.13,564.5147 670.13,519.1947 C670.13,228.0147 670.13,228.0147 670.13,228.0147 C670.13,160.6247 609.2395,127.04 541.9095,108.72" fill="none" id="CANDS-to-PROG" style="stroke:#585858;stroke-width:2;"/><polygon fill="#585858" points="536.12,107.1447,543.7541,113.3673,540.9446,108.4574,545.8545,105.6479,536.12,107.1447" style="stroke:#585858;stroke-width:2;"/><text fill="#181818" font-family="sans-serif" font-size="13" lengthAdjust="spacing" textLength="102.7622" x="671.13" y="376.803">recompile (loop)</text></g><?plantuml-src XLHBRjim4Dth55DlchYnb3G9Wgf10CDsWm1Eh3eEiYbGqDH88a2HAZzEdLKFqRjqtwFq91r9bgi20S8LmHa-llTcXc-4ujAd28LpbOsZoB2dC1Uky6jlqN2j72eNSbr6bT4Rr2FE8f7IcN3Rg6H2xSx3ofSoe5E9iCHC8dTYWv0ONLOEc4hhRMvO2OlAYL8yCoUq2jv2mYeqCKplasqC4yeMKgWSfiWbCwm1cJELUvOZtEeK9KoOb1Q4SXhkKMQZcxAcK5zAH8Lq6otXFYpdCS1U5pFVnIRK9e_OsaRlJq-Em-FJYvEpVmokPyauVe7xRAEbhydImmeMtb5sfar9gKBHXcD9Ti0ScL54ujMdpuylmfCFP-SNb3d73SeOpk30rah4Nab1O6Wj_Fdn4vvGv8Mpa1dzZEeZL0qlMnlV68f4S8E7GK1LghIgoGpcjx0BVr47xKKe6_VUGTgpbiwyH7iuW7en2yboSLrlBozPLLrT1IbpRCqi0WnMXifjqH54YSu8tbvwPH7cTBmQjvZfcY1xD7jkwxOjq13XkXc0Dxs0yFjNKvfEvc07kaXMq2Vw0YgLZ5hJW3ECeoLSnPmtJ8varr3S22U--HQLG9UpJ_FPPBK7fP37vfa15JyLv0Ps_aD4JfQwnasOGUf6yfdc0itXeAz-ChwRthT4xLPnGWqwayVBvUBnw-tuvWxs9iLWl2ABBTS6W-wqpVpyC7kOxPN7kp9GSiRQgMcL1br67x-J5kz5DxUyeVmkri_lQCUrtafRJ05JuMpG1Vh9dI0YZrtT3gJM5NMbqkJPMZkdIz1Pane038UF_xLrE1p2Giajk6Bly15a-3IoXNQDqyewq_mQzeW0wY-bcm0AU4wbfO8ML5fineOYgQ1-66K64NhprSmh8RY2EU0qqqPic8Jb7AXXR4c_2wnzcgEpOO3qIYtWBm00?></g></svg>