<svg xmlns="http://www.w3.org/2000/svg" xmlns:xlink="http://www.w3.org/1999/xlink" contentStyleType="text/css" data-diagram-type="DESCRIPTION" height="852px" preserveAspectRatio="none" style="width:647px;height:852px;background:#FAFAFA;" version="1.1" viewBox="0 0 647 852" width="647px" zoomAndPan="magnify"><?plantuml 1.2026.3?><defs><filter height="300%" id="f1fkg308acwf35" width="300%" x="-1" y="-1"><feGaussianBlur result="blurOut" stdDeviation="2"/><feColorMatrix in="blurOut" result="blurOut2" type="matrix" values="0 0 0 0 0 0 0 0 0 0 0 0 0 0 0 0 0 0 .4 0"/><feOffset dx="4" dy="4" in="blurOut2" result="blurOut3"/><feBlend in="SourceGraphic" in2="blurOut3" mode="normal"/></filter></defs><g><rect fill="#FAFAFA" height="852" style="stroke:none;stroke-width:1;" width="647" x="0" y="0"/><g class="title" data-source-line="2"><rect fill="none" height="33.5547" style="stroke:#585858;stroke-width:1;" width="359.1016" x="140.4853" y="5"/><text fill="#005F7F" font-family="sans-serif" font-size="20" font-weight="700" lengthAdjust="spacing" textLength="349.1016" x="145.4853" y="29.3359">Citation-Grounded Legal Drafting</text></g><!--entity Q--><g class="entity" data-qualified-name="Q" data-source-line="8" id="ent0002"><rect fill="#005F7F" filter="url(#f1fkg308acwf35)" height="52.9766" rx="6" ry="6" style="stroke:#00BAC6;stroke-width:0.5;" width="131.4258" x="254.47" y="51.5547"/><text fill="#FAFAFA" font-family="sans-serif" font-size="14" font-style="italic" lengthAdjust="spacing" textLength="40.0244" x="300.1707" y="75.0898">&#171;app&#187;</text><text fill="#FAFAFA" font-family="sans-serif" font-size="14" lengthAdjust="spacing" textLength="111.4258" x="264.47" y="91.5781">Drafting request</text></g><!--entity KB--><g class="entity" data-qualified-name="KB" data-source-line="9" id="ent0003"><path d="M240.86,191.5247 C240.86,181.5247 320.1867,181.5247 320.1867,181.5247 C320.1867,181.5247 399.5133,181.5247 399.5133,191.5247 L399.5133,233.5012 C399.5133,243.5012 320.1867,243.5012 320.1867,243.5012 C320.1867,243.5012 240.86,243.5012 240.86,233.5012 L240.86,191.5247" fill="#E5E4E4" filter="url(#f1fkg308acwf35)" style="stroke:#585858;stroke-width:0.5;"/><path d="M240.86,191.5247 C240.86,201.5247 320.1867,201.5247 320.1867,201.5247 C320.1867,201.5247 399.5133,201.5247 399.5133,191.5247" fill="none" style="stroke:#585858;stroke-width:0.5;"/><text fill="#181818" font-family="sans-serif" font-size="14" font-style="italic" lengthAdjust="spacing" textLength="32.293" x="304.0402" y="219.0598">&#171;db&#187;</text><text fill="#181818" font-family="sans-serif" font-size="14" lengthAdjust="spacing" textLength="138.6533" x="250.86" y="235.5481">Statutes / precedent</text></g><!--entity LLM--><g class="entity" data-qualified-name="LLM" data-source-line="10" id="ent0004"><path d="M287.8183,328.6738 C290.0144,322.2611 293.8981,322.1899 298.7187,325.8274 C301.7322,319.0689 305.9393,318.0115 311.0408,323.7723 C313.3923,318.3081 316.4116,316.4045 321.5307,320.8395 C325.8448,317.6078 330.2444,319.068 331.5549,324.3685 C336.3158,319.7351 340.6671,319.35 344.0544,325.9033 C349.3863,322.6678 353.2006,324.5478 354.8465,330.3196 C363.2745,331.7341 364.1772,337.5011 359.6465,343.5994 C367.2278,346.7548 367.7967,351.0836 363.3936,357.4753 C367.8743,363.2885 367.709,368.6544 359.5031,370.7492 C364.5525,377.2117 361.5591,380.8176 355.0269,383.0738 C352.8538,389.0491 347.6224,389.6942 343.4896,385.2419 C340.136,389.1711 336.5547,388.9259 333.6641,384.6851 C330.1235,390.3982 324.7752,391.6318 320.5369,385.4554 C317.9139,390.2314 313.6636,390.7774 310.8498,385.6417 C306.7512,390.2917 301.542,390.2675 299.0949,383.8824 C295.5705,389.4089 290.5004,387.7518 287.9182,382.8706 C281.4171,380.7951 280.2757,376.9851 283.4372,371.1998 C275.9942,368.0041 274.772,362.621 281.0077,357.0729 C274.532,349.9014 276.5316,345.2745 285.1604,342.3688 C280.4708,336.9006 279.8727,331.6899 287.8183,328.6738" fill="#585858" filter="url(#f1fkg308acwf35)"/><text fill="#FAFAFA" font-family="sans-serif" font-size="14" font-style="italic" lengthAdjust="spacing" textLength="51.9873" x="294.19" y="349.0398">&#171;cloud&#187;</text><text fill="#FAFAFA" font-family="sans-serif" font-size="20" lengthAdjust="spacing" textLength="38.5547" x="300.9063" y="371.3289">LLM</text></g><!--entity DR--><g class="entity" data-qualified-name="DR" data-source-line="11" id="ent0005"><rect fill="#005F7F" filter="url(#f1fkg308acwf35)" height="69.4648" rx="6" ry="6" style="stroke:#00BAC6;stroke-width:0.5;" width="178.2178" x="231.08" y="467.5447"/><text fill="#FAFAFA" font-family="sans-serif" font-size="14" font-style="italic" lengthAdjust="spacing" textLength="40.0244" x="300.1767" y="491.0798">&#171;app&#187;</text><text fill="#FAFAFA" font-family="sans-serif" font-size="14" lengthAdjust="spacing" textLength="158.2178" x="241.08" y="507.5681">Draft + linked citations</text><text fill="#FAFAFA" font-family="sans-serif" font-size="14" lengthAdjust="spacing" textLength="142.9258" x="248.726" y="524.0564">(hallucination-gated)</text></g><!--entity RL--><g class="entity" data-qualified-name="RL" data-source-line="12" id="ent0006"><rect fill="#005F7F" filter="url(#f1fkg308acwf35)" height="69.4648" rx="6" ry="6" style="stroke:#00BAC6;stroke-width:0.5;" width="132.3691" x="7" y="614.0147"/><text fill="#FAFAFA" font-family="sans-serif" font-size="14" font-style="italic" lengthAdjust="spacing" textLength="40.0244" x="53.1724" y="637.5498">&#171;app&#187;</text><text fill="#FAFAFA" font-family="sans-serif" font-size="14" lengthAdjust="spacing" textLength="50.0459" x="48.1616" y="654.0381">Redline</text><text fill="#FAFAFA" font-family="sans-serif" font-size="14" lengthAdjust="spacing" textLength="112.3691" x="17" y="670.5264">(node-level edit)</text></g><!--entity AT--><g class="entity" data-qualified-name="AT" data-source-line="13" id="ent0007"><ellipse cx="73.1813" cy="768.9747" fill="#00BAC6" filter="url(#f1fkg308acwf35)" rx="8" ry="8" style="stroke:#585858;stroke-width:0.5;"/><path d="M73.1813,776.9747 L73.1813,803.9747 M60.1813,784.9747 L86.1813,784.9747 M73.1813,803.9747 L60.1813,818.9747 M73.1813,803.9747 L86.1813,818.9747" fill="none" filter="url(#f1fkg308acwf35)" style="stroke:#585858;stroke-width:0.5;"/><text fill="#181818" font-family="sans-serif" font-size="14" lengthAdjust="spacing" textLength="58.2627" x="44.05" y="835.5098">Attorney</text></g><g class="entity" data-qualified-name="GMN13" data-source-line="22" id="ent0014"><path d="M174.29,620.7747 L174.29,676.7063 A0,0 0 0 0 174.29,676.7063 L632.0722,676.7063 A0,0 0 0 0 632.0722,676.7063 L632.0722,630.7747 L622.0722,620.7747 L391.46,620.7747 L339.64,537.1547 L383.46,620.7747 L174.29,620.7747 A0,0 0 0 0 174.29,620.7747" fill="#E5E4E4" filter="url(#f1fkg308acwf35)" style="stroke:#B4B3B3;stroke-width:0.5;"/><path d="M622.0722,620.7747 L622.0722,630.7747 L632.0722,630.7747 L622.0722,620.7747" fill="#E5E4E4" style="stroke:#B4B3B3;stroke-width:0.5;"/><text fill="#181818" font-family="sans-serif" font-size="13" lengthAdjust="spacing" textLength="436.0649" x="180.6486" y="638.343">Mandatory citation linking + hallucination guardrails (the fabricated-</text><text fill="#181818" font-family="sans-serif" font-size="13" lengthAdjust="spacing" textLength="436.7822" x="180.29" y="653.6536">citation problem). Output is a draft-and-diff the attorney edits at the</text><text fill="#181818" font-family="sans-serif" font-size="13" lengthAdjust="spacing" textLength="123.0112" x="337.1755" y="668.9641">clause / node level.</text></g><!--link Q to KB--><g class="link" data-entity-1="ent0002" data-entity-2="ent0003" data-link-type="dependency" data-source-line="15" id="lnk8"><path d="M320.18,104.8947 C320.18,126.7347 320.18,152.0347 320.18,175.0847" fill="none" id="Q-to-KB" style="stroke:#585858;stroke-width:2;"/><polygon fill="#585858" points="320.18,181.0847,324.18,172.0847,320.18,176.0847,316.18,172.0847,320.18,181.0847" style="stroke:#585858;stroke-width:2;"/><text fill="#181818" font-family="sans-serif" font-size="13" lengthAdjust="spacing" textLength="119.5581" x="321.18" y="148.093">retrieve authorities</text></g><!--link KB to LLM--><g class="link" data-entity-1="ent0003" data-entity-2="ent0004" data-link-type="dependency" data-source-line="16" id="lnk9"><path d="M320.18,243.7647 C320.18,266.1847 320.18,290.7647 320.18,314.1147" fill="none" id="KB-to-LLM" style="stroke:#585858;stroke-width:2;"/><polygon fill="#585858" points="320.18,320.1147,324.18,311.1147,320.18,315.1147,316.18,311.1147,320.18,320.1147" style="stroke:#585858;stroke-width:2;"/><text fill="#181818" font-family="sans-serif" font-size="13" lengthAdjust="spacing" textLength="61.1533" x="321.18" y="287.073">grounded</text></g><!--link LLM to DR--><g class="link" data-entity-1="ent0004" data-entity-2="ent0005" data-link-type="dependency" data-source-line="17" id="lnk10"><path d="M320.18,390.8347 C320.18,413.9047 320.18,438.1947 320.18,461.2247" fill="none" id="LLM-to-DR" style="stroke:#585858;stroke-width:2;"/><polygon fill="#585858" points="320.18,467.2247,324.18,458.2247,320.18,462.2247,316.18,458.2247,320.18,467.2247" style="stroke:#585858;stroke-width:2;"/><text fill="#181818" font-family="sans-serif" font-size="13" lengthAdjust="spacing" textLength="126.2231" x="321.18" y="434.113">draft (cite or refuse)</text></g><!--link DR to RL--><g class="link" data-entity-1="ent0005" data-entity-2="ent0006" data-link-type="dependency" data-source-line="18" id="lnk11"><path d="M261.96,537.3347 C222.6,560.3547 175.9999,587.6167 136.6199,610.6367" fill="none" id="DR-to-RL" style="stroke:#585858;stroke-width:2;"/><polygon fill="#585858" points="131.44,613.6647,141.2285,612.576,135.7566,611.1414,137.1912,605.6695,131.44,613.6647" style="stroke:#585858;stroke-width:2;"/><text fill="#181818" font-family="sans-serif" font-size="13" lengthAdjust="spacing" textLength="90.2954" x="205.09" y="580.583">draft-and-diff</text></g><!--link RL to AT--><g class="link" data-entity-1="ent0006" data-entity-2="ent0007" data-link-type="dependency" data-source-line="19" id="lnk12"><path d="M73.18,683.8647 C73.18,706.5947 73.18,730.4947 73.18,754.0547" fill="none" id="RL-to-AT" style="stroke:#585858;stroke-width:2;"/><polygon fill="#585858" points="73.18,760.0547,77.18,751.0547,73.18,755.0547,69.18,751.0547,73.18,760.0547" style="stroke:#585858;stroke-width:2;"/><text fill="#181818" font-family="sans-serif" font-size="13" lengthAdjust="spacing" textLength="108.6338" x="74.18" y="727.043">edit at node level</text></g><?plantuml-src TLFRRjD047tVhnZyGg9YEuNoObML0XKNaT8IAi434ffunywAzQxPIwkyyH7y0__1f_0bpBecTIFXbpWpSsREEJD-f4ojeoJOXj3xgYmTtXQj2jkuYPvSRKqW4uhQTcNlx0tPlCPIIOwfi2ixL6QC5ttijE2e9dYf0WPbJVxQsMWaILXHYnhE7JP1cLOyXYlioLMmGjVIc7sbwWJoyEV7JxXojb6QQyVa6zGwrihWNOaoi5fT-2U0xhEwgPwUB8wBnV6pnJ6tNbDJ0O0FKUwOhITV-jXrw7P59-7th-Smaub8ZaRcKZNDd44hkY5TmKcYblGOD3LL86sIM876Mo7OXDuQbWxPFoNWw7ia7pAOFkZX0_-SdcBVdvq9YG4tp0CW-yZ6n40UIkWTrPICpAQuToyIJcuOLciRvH3FMEl32OVZk81X0o8X3uZ24R2LttWFzRWP_yNCjbDBynO3oNcMcfslzzGddTOakGanq5X9kKw60KaLvjb8OhswrunriEwE_3Bmgw5TzZ_oosiXab_BzVhoqzUBvTltCFXGiRl1AHu46CFMEXKKUP5IqzAalO9sF3MH_axJh8RJmyPXnle9c9YZXizxBb9oMfmaZCNxyn0fE2rQNgUY91qmG7831ZU4C9RRRomBxi0sF5e0N70VP0TsU_E7PQJZEO87Eu0sekFPIdkOXIr1WnkdwhIOd1ljuVp1RJHrym8kO-XZ0EK13qX3mkFe_C3L9x8SJPqqidg-mNlkXI0Z8V7_2m00?></g></svg>