<svg xmlns="http://www.w3.org/2000/svg" xmlns:xlink="http://www.w3.org/1999/xlink" contentStyleType="text/css" data-diagram-type="DESCRIPTION" height="579px" preserveAspectRatio="none" style="width:774px;height:579px;background:#FAFAFA;" version="1.1" viewBox="0 0 774 579" width="774px" zoomAndPan="magnify"><?plantuml 1.2026.3?><defs><filter height="300%" id="f1xx6f3byojlzl" width="300%" x="-1" y="-1"><feGaussianBlur result="blurOut" stdDeviation="2"/><feColorMatrix in="blurOut" result="blurOut2" type="matrix" values="0 0 0 0 0 0 0 0 0 0 0 0 0 0 0 0 0 0 .4 0"/><feOffset dx="4" dy="4" in="blurOut2" result="blurOut3"/><feBlend in="SourceGraphic" in2="blurOut3" mode="normal"/></filter></defs><g><rect fill="#FAFAFA" height="579" style="stroke:none;stroke-width:1;" width="774" x="0" y="0"/><g class="title" data-source-line="2"><rect fill="none" height="33.5547" style="stroke:#585858;stroke-width:1;" width="305.625" x="231.1832" y="5"/><text fill="#005F7F" font-family="sans-serif" font-size="20" font-weight="700" lengthAdjust="spacing" textLength="295.625" x="236.1832" y="29.3359">Legal-Reasoning Benchmark</text></g><!--entity TAX--><g class="entity" data-qualified-name="TAX" data-source-line="8" id="ent0002"><rect fill="#005F7F" filter="url(#f1xx6f3byojlzl)" height="69.4648" rx="6" ry="6" style="stroke:#00BAC6;stroke-width:0.5;" width="168.3672" x="447.2587" y="51.5547"/><text fill="#FAFAFA" font-family="sans-serif" font-size="14" font-style="italic" lengthAdjust="spacing" textLength="40.0244" x="511.4301" y="75.0898">&#171;app&#187;</text><text fill="#FAFAFA" font-family="sans-serif" font-size="14" lengthAdjust="spacing" textLength="104.1592" x="479.3627" y="91.5781">Task taxonomy</text><text fill="#FAFAFA" font-family="sans-serif" font-size="14" lengthAdjust="spacing" textLength="148.3672" x="457.2587" y="108.0664">(issue &#183; rule &#183; holding)</text></g><!--entity DS--><g class="entity" data-qualified-name="DS" data-source-line="9" id="ent0003"><path d="M299.4287,208.0147 C299.4287,198.0147 394.4473,198.0147 394.4473,198.0147 C394.4473,198.0147 489.4658,198.0147 489.4658,208.0147 L489.4658,266.4795 C489.4658,276.4795 394.4473,276.4795 394.4473,276.4795 C394.4473,276.4795 299.4287,276.4795 299.4287,266.4795 L299.4287,208.0147" fill="#E5E4E4" filter="url(#f1xx6f3byojlzl)" style="stroke:#585858;stroke-width:0.5;"/><path d="M299.4287,208.0147 C299.4287,218.0147 394.4473,218.0147 394.4473,218.0147 C394.4473,218.0147 489.4658,218.0147 489.4658,208.0147" fill="none" style="stroke:#585858;stroke-width:0.5;"/><text fill="#181818" font-family="sans-serif" font-size="14" font-style="italic" lengthAdjust="spacing" textLength="32.293" x="378.3008" y="235.5498">&#171;db&#187;</text><text fill="#181818" font-family="sans-serif" font-size="14" lengthAdjust="spacing" textLength="129.2266" x="329.834" y="252.0381">Benchmark dataset</text><text fill="#181818" font-family="sans-serif" font-size="14" lengthAdjust="spacing" textLength="170.0371" x="309.4287" y="268.5264">(LegalBench &#183; CaseHOLD)</text></g><!--entity LLM--><g class="entity" data-qualified-name="LLM" data-source-line="10" id="ent0004"><path d="M16.9806,362.316 C20.1776,357.2224 24.3701,356.9571 28.328,361.4118 C32.1651,356.2717 35.3161,357.5201 38.3074,362.2656 C41.921,355.0251 46.1421,355.7815 51.3143,360.5821 C55.0931,355.7172 59.152,356.7786 61.4458,362.0644 C64.7655,356.6767 71.1257,356.3583 74.539,361.9528 C78.0118,356.4958 81.9672,356.4428 85.6379,361.7488 C89.0777,356.0065 94.557,357.1721 97.6083,362.1814 C100.0294,357.3236 105.4865,357.0702 108.5997,361.3487 C112.8453,356.3957 116.3095,356.792 119.7201,362.2413 C122.926,356.0256 128.4434,356.4077 131.4121,362.4673 C137.6802,365.2891 137.0766,369.2494 133.1089,373.6275 C139.542,377.037 139.5333,381.4745 133.8398,385.6229 C138.8024,390.1481 137.259,393.9966 131.9493,396.7815 C138.4773,400.7278 137.2665,406.7099 131.5391,410.2839 C128.5349,416.2609 124.0754,416.9457 120.3216,410.9885 C117.2822,418.3104 111.4529,417.5857 107.3118,412.1084 C105.3907,416.9272 100.3194,417.9299 96.9341,413.808 C92.5524,420.3833 88.1756,420.5505 84.1928,413.4367 C82.5228,418.7558 78.1675,420.6508 73.8175,416.3174 C68.2932,422.0408 63.9785,421.1876 61.006,413.8201 C58.0474,417.8119 53.6879,418.3508 51.2476,413.2631 C46.8562,418.4967 41.1148,417.9641 38.5196,411.3357 C34.3484,415.7377 30.1297,415.5094 27.2836,409.8552 C23.4887,415.0042 17.6334,415.1077 14.977,408.6482 C8.5952,407.4683 7.4626,402.4424 12.1647,398.2615 C7.0784,395.3029 6,391.1356 10.597,386.847 C6.0978,382.4304 7.1848,377.3185 12.8641,374.8205 C7.6946,369.5764 9.0886,363.2603 16.9806,362.316" fill="#585858" filter="url(#f1xx6f3byojlzl)"/><text fill="#FAFAFA" font-family="sans-serif" font-size="14" font-style="italic" lengthAdjust="spacing" textLength="51.9873" x="46.4519" y="382.0198">&#171;cloud&#187;</text><text fill="#FAFAFA" font-family="sans-serif" font-size="14" lengthAdjust="spacing" textLength="100.9736" x="21.9587" y="398.5081">LLM under test</text></g><!--entity SC--><g class="entity" data-qualified-name="SC" data-source-line="11" id="ent0005"><rect fill="#005F7F" filter="url(#f1xx6f3byojlzl)" height="69.4648" rx="6" ry="6" style="stroke:#00BAC6;stroke-width:0.5;" width="202.417" x="269.2387" y="493.4647"/><text fill="#FAFAFA" font-family="sans-serif" font-size="14" font-style="italic" lengthAdjust="spacing" textLength="40.0244" x="350.435" y="516.9998">&#171;app&#187;</text><text fill="#FAFAFA" font-family="sans-serif" font-size="14" lengthAdjust="spacing" textLength="117.2295" x="311.8325" y="533.4881">Scored reasoning</text><text fill="#FAFAFA" font-family="sans-serif" font-size="14" lengthAdjust="spacing" textLength="182.417" x="279.2387" y="549.9764">(holding / precedent class)</text></g><g class="entity" data-qualified-name="GMN10" data-source-line="19" id="ent0011"><path d="M173.1187,357.0047 L173.1187,412.9363 A0,0 0 0 0 173.1187,412.9363 L615.7745,412.9363 A0,0 0 0 0 615.7745,412.9363 L615.7745,367.0047 L605.7745,357.0047 L398.4487,357.0047 L394.4487,276.9147 L390.4487,357.0047 L173.1187,357.0047 A0,0 0 0 0 173.1187,357.0047" fill="#E5E4E4" filter="url(#f1xx6f3byojlzl)" style="stroke:#B4B3B3;stroke-width:0.5;"/><path d="M605.7745,357.0047 L605.7745,367.0047 L615.7745,367.0047 L605.7745,357.0047" fill="#E5E4E4" style="stroke:#B4B3B3;stroke-width:0.5;"/><text fill="#181818" font-family="sans-serif" font-size="13" lengthAdjust="spacing" textLength="421.6558" x="179.1187" y="374.573">A collaboratively-built taxonomy of legal-reasoning tasks (holding</text><text fill="#181818" font-family="sans-serif" font-size="13" lengthAdjust="spacing" textLength="258.8257" x="187.1993" y="389.8836">selection, precedent classification) &#8212; the</text><text fill="#181818" font-family="sans-serif" font-size="13" font-weight="700" lengthAdjust="spacing" textLength="27.1997" x="450.1383" y="389.8836">eval</text><text fill="#181818" font-family="sans-serif" font-size="13" lengthAdjust="spacing" textLength="111.2427" x="481.4512" y="389.8836">that says whether</text><text fill="#181818" font-family="sans-serif" font-size="13" lengthAdjust="spacing" textLength="190.5503" x="294.6715" y="405.1941">a legal agent actually reasons.</text></g><!--link TAX to DS--><g class="link" data-entity-1="ent0002" data-entity-2="ent0003" data-link-type="dependency" data-source-line="13" id="lnk6"><path d="M500.0187,121.4647 C479.0787,144.2247 455.6009,169.7589 433.8909,193.3589" fill="none" id="TAX-to-DS" style="stroke:#585858;stroke-width:2;"/><polygon fill="#585858" points="429.8287,197.7747,438.8658,193.8591,433.2138,194.0949,432.9781,188.4429,429.8287,197.7747" style="stroke:#585858;stroke-width:2;"/><text fill="#181818" font-family="sans-serif" font-size="13" lengthAdjust="spacing" textLength="76.2798" x="472.1487" y="164.583">define tasks</text></g><!--link DS to LLM--><g class="link" data-entity-1="ent0003" data-entity-2="ent0004" data-link-type="dependency" data-source-line="14" id="lnk7"><path d="M308.9987,276.9147 C255.5287,301.1147 193.1448,329.3505 143.8348,351.6705" fill="none" id="DS-to-LLM" style="stroke:#585858;stroke-width:2;"/><polygon fill="#585858" points="138.3687,354.1447,148.2173,354.0774,142.9238,352.0828,144.9184,346.7893,138.3687,354.1447" style="stroke:#585858;stroke-width:2;"/><text fill="#181818" font-family="sans-serif" font-size="13" lengthAdjust="spacing" textLength="52.2603" x="244.0987" y="320.053">evaluate</text></g><!--link LLM to SC--><g class="link" data-entity-1="ent0004" data-entity-2="ent0005" data-link-type="dependency" data-source-line="15" id="lnk8"><path d="M137.4787,416.7847 C184.9087,439.2647 243.7865,467.1757 292.8165,490.4057" fill="none" id="LLM-to-SC" style="stroke:#585858;stroke-width:2;"/><polygon fill="#585858" points="298.2387,492.9747,291.8181,485.5064,293.7202,490.8339,288.3928,492.736,298.2387,492.9747" style="stroke:#585858;stroke-width:2;"/><text fill="#181818" font-family="sans-serif" font-size="13" lengthAdjust="spacing" textLength="46.1792" x="231.3787" y="460.033">classify</text></g><!--link SC to TAX--><g class="link" data-entity-1="ent0005" data-entity-2="ent0002" data-link-type="dependency" data-source-line="16" id="lnk9"><path d="M471.9787,512.3647 C529.7787,498.1447 597.6187,470.4247 633.4487,416.4647 C696.8187,321.0147 611.9786,188.9115 563.3486,126.0115" fill="none" id="SC-to-TAX" style="stroke:#585858;stroke-width:1;stroke-dasharray:1,3;"/><polygon fill="#585858" points="559.6787,121.2647,562.019,130.8314,562.737,125.2203,568.3481,125.9383,559.6787,121.2647" style="stroke:#585858;stroke-width:1;"/><text fill="#181818" font-family="sans-serif" font-size="13" lengthAdjust="spacing" textLength="103.2827" x="655.7087" y="320.053">measure by task</text></g><?plantuml-src VLBBRjim4BppAxQ-D34IlsgaWM2aSEr332YnOQT83WMADRMsY52aG59sTUj7z5zwxwVqIxgK4xl8eRe8knpEpWptdJ9ILnb17aBfasxNuRwpLI6lrfKd9wq9P497sg9REhiZUocngpBkgL1t2rJcfTyfgq8Bxcg2bBQeBvU4tXfbjl2PZCmBTC_YFIom99SS84qV_lpu2NUChLp4DWTmkgiCfEcTlm1qJsgN33xqhZlz_l1gSEAQeAVRUJfjc1vpCZ2rv67XA3WM65bkIPUVBc0s6SzI6FG6_IDVlpVizAwlFlQPBwKTwGI6aJgQCcWa9P3Pw3C1ZNiuentBGnVK1cKu5uAJAQtXFA3rWFuP0dwtnXRrLtEclAy8Vly2L-dcdrkTiPhp5W1wU1W_mMY4PNbp8p8Ck6OR0ArZM12RdW8p_PCMqxpwPHwccQw0QR8riqXjgmpYr-BCe38PEGZaGml-yp57H8z6pVL8SxAqajPH1kxrELZBYmdeGkb8Kbm5a1gzFyXPJOwcH7GuNYxdZz_knhFxPbXKoudIHXdYhFop5x5rG4tI-PTfH4Kz2SIeAmmaOlc6XySmefchDhM8vG4nNppCvlVZj8atWQ9PB89rtKmJmjZ0bGt15c0th4VmJP1MQrnRXq7n2jINwqhfS7pB2DJDJX-3E6Y7rpIOn9Cc6PGr5s-3KHibCPwSDniQSe9sEvfhjxd001vh3_kS-CGn4nw60MuZ1QzPXLhNBu_WEu9C1j76Nm00?></g></svg>