<svg xmlns="http://www.w3.org/2000/svg" xmlns:xlink="http://www.w3.org/1999/xlink" contentStyleType="text/css" data-diagram-type="DESCRIPTION" height="539px" preserveAspectRatio="none" style="width:667px;height:539px;background:#FAFAFA;" version="1.1" viewBox="0 0 667 539" width="667px" zoomAndPan="magnify"><?plantuml 1.2026.3?><defs><filter height="300%" id="f1o50xrllar3n4" width="300%" x="-1" y="-1"><feGaussianBlur result="blurOut" stdDeviation="2"/><feColorMatrix in="blurOut" result="blurOut2" type="matrix" values="0 0 0 0 0 0 0 0 0 0 0 0 0 0 0 0 0 0 .4 0"/><feOffset dx="4" dy="4" in="blurOut2" result="blurOut3"/><feBlend in="SourceGraphic" in2="blurOut3" mode="normal"/></filter></defs><g><rect fill="#FAFAFA" height="539" style="stroke:none;stroke-width:1;" width="667" x="0" y="0"/><g class="title" data-source-line="2"><rect fill="none" height="33.5547" style="stroke:#585858;stroke-width:1;" width="636.377" x="12.0289" y="5"/><text fill="#005F7F" font-family="sans-serif" font-size="20" font-weight="700" lengthAdjust="spacing" textLength="626.377" x="17.0289" y="29.3359">Multi-Engine Ensemble &#8212; human-like + optimal + explainer</text></g><!--entity POS--><g class="entity" data-qualified-name="POS" data-source-line="8" id="ent0002"><rect fill="#005F7F" filter="url(#f1o50xrllar3n4)" height="52.9766" rx="6" ry="6" style="stroke:#00BAC6;stroke-width:0.5;" width="74.0928" x="228" y="51.5547"/><text fill="#FAFAFA" font-family="sans-serif" font-size="14" font-style="italic" lengthAdjust="spacing" textLength="40.0244" x="245.0342" y="75.0898">&#171;app&#187;</text><text fill="#FAFAFA" font-family="sans-serif" font-size="14" lengthAdjust="spacing" textLength="54.0928" x="238" y="91.5781">Position</text></g><!--entity MAIA--><g class="entity" data-qualified-name="MAIA" data-source-line="9" id="ent0003"><rect fill="#005F7F" filter="url(#f1o50xrllar3n4)" height="69.4648" rx="6" ry="6" style="stroke:#00BAC6;stroke-width:0.5;" width="140.1895" x="112.95" y="181.5347"/><text fill="#FAFAFA" font-family="sans-serif" font-size="14" font-style="italic" lengthAdjust="spacing" textLength="40.0244" x="163.0325" y="205.0698">&#171;app&#187;</text><text fill="#FAFAFA" font-family="sans-serif" font-size="14" lengthAdjust="spacing" textLength="65.1738" x="150.4578" y="221.5581">Maia (lc0)</text><text fill="#FAFAFA" font-family="sans-serif" font-size="14" lengthAdjust="spacing" textLength="120.1895" x="122.95" y="238.0464">human-like move</text></g><!--entity SF--><g class="entity" data-qualified-name="SF" data-source-line="10" id="ent0004"><rect fill="#005F7F" filter="url(#f1o50xrllar3n4)" height="69.4648" rx="6" ry="6" style="stroke:#00BAC6;stroke-width:0.5;" width="102.7969" x="295.64" y="181.5347"/><text fill="#FAFAFA" font-family="sans-serif" font-size="14" font-style="italic" lengthAdjust="spacing" textLength="40.0244" x="327.0262" y="205.0698">&#171;app&#187;</text><text fill="#FAFAFA" font-family="sans-serif" font-size="14" lengthAdjust="spacing" textLength="61.749" x="316.1639" y="221.5581">Stockfish</text><text fill="#FAFAFA" font-family="sans-serif" font-size="14" lengthAdjust="spacing" textLength="82.7969" x="305.64" y="238.0464">optimal eval</text></g><!--entity LLM--><g class="entity" data-qualified-name="LLM" data-source-line="11" id="ent0005"><path d="M212.466,336.9306 C216.91,331.1488 221.9486,330.419 226.4814,336.8286 C230.2637,330.9588 235.3008,330.1214 239.8524,335.9493 C242.9447,329.9864 249.3099,329.9639 253.0757,335.1505 C257.4746,329.4128 262.2331,330.085 265.9212,335.9382 C270.7457,329.3206 275.9402,328.976 280.3136,336.4005 C284.3957,331.2559 289.5789,331.5321 293.246,336.9105 C296.6155,329.9096 302.3035,330.7716 306.0742,336.5063 C310.6922,330.5996 316.2061,330.2556 320.6627,336.697 C327.9147,338.8 328.7327,344.3652 323.7478,349.4324 C329.7387,351.6001 329.726,355.9145 325.9042,360.0711 C330.4292,365.7729 328.1563,370.1306 321.8496,372.2163 C327.5897,377.3446 327.0667,381.7813 319.7988,384.7875 C316.7415,390.3082 311.7961,391.7172 307.7904,385.7816 C304.6803,394.0923 297.5911,393.0676 292.8885,387.4903 C289.3987,395.0291 284.538,396.0467 278.8605,389.7004 C275.8647,395.9728 271.2769,396.1245 266.4946,391.7815 C261.0457,398.0512 254.7631,397.7985 251.4669,389.5529 C246.7042,395.8475 241.6836,395.3743 238.0223,388.434 C231.795,394.724 227.8501,393.1416 224.7155,385.4835 C219.5671,391.3095 215.1537,389.9244 212.0556,383.3846 C205.6111,382.5047 203.8314,378.2143 208.2871,373.2723 C200.6904,372.3744 197.5476,367.7691 202.1923,360.8603 C198.2238,355.6977 200.1155,350.7588 206.6494,349.8464 C201.814,343.3214 203.7405,337.3485 212.466,336.9306" fill="#585858" filter="url(#f1o50xrllar3n4)"/><text fill="#FAFAFA" font-family="sans-serif" font-size="14" font-style="italic" lengthAdjust="spacing" textLength="51.9873" x="239.045" y="356.5298">&#171;cloud&#187;</text><text fill="#FAFAFA" font-family="sans-serif" font-size="14" lengthAdjust="spacing" textLength="94.6572" x="217.71" y="373.0181">LLM explainer</text></g><!--entity OUT--><g class="entity" data-qualified-name="OUT" data-source-line="12" id="ent0006"><rect fill="#005F7F" filter="url(#f1o50xrllar3n4)" height="52.9766" rx="6" ry="6" style="stroke:#00BAC6;stroke-width:0.5;" width="176.085" x="7" y="469.4547"/><text fill="#FAFAFA" font-family="sans-serif" font-size="14" font-style="italic" lengthAdjust="spacing" textLength="40.0244" x="75.0303" y="492.9898">&#171;app&#187;</text><text fill="#FAFAFA" font-family="sans-serif" font-size="14" lengthAdjust="spacing" textLength="156.085" x="17" y="509.4781">Grounded commentary</text></g><g class="entity" data-qualified-name="GMN12" data-source-line="21" id="ent0013"><path d="M217.65,467.9747 L217.65,523.9063 A0,0 0 0 0 217.65,523.9063 L652.4347,523.9063 A0,0 0 0 0 652.4347,523.9063 L652.4347,477.9747 L642.4347,467.9747 L404.55,467.9747 L304.04,391.3347 L396.55,467.9747 L217.65,467.9747 A0,0 0 0 0 217.65,467.9747" fill="#E5E4E4" filter="url(#f1o50xrllar3n4)" style="stroke:#B4B3B3;stroke-width:0.5;"/><path d="M642.4347,467.9747 L642.4347,477.9747 L652.4347,477.9747 L642.4347,467.9747" fill="#E5E4E4" style="stroke:#B4B3B3;stroke-width:0.5;"/><text fill="#181818" font-family="sans-serif" font-size="13" lengthAdjust="spacing" textLength="160.1641" x="223.65" y="485.543">Three engines, one tutor:</text><text fill="#181818" font-family="sans-serif" font-size="13" font-weight="700" lengthAdjust="spacing" textLength="31.313" x="387.9273" y="485.543">Maia</text><text fill="#181818" font-family="sans-serif" font-size="13" lengthAdjust="spacing" textLength="214.0811" x="423.3536" y="485.543">plays like a human at a target Elo,</text><text fill="#181818" font-family="sans-serif" font-size="13" font-weight="700" lengthAdjust="spacing" textLength="61.6484" x="226.5921" y="500.8536">Stockfish</text><text fill="#181818" font-family="sans-serif" font-size="13" lengthAdjust="spacing" textLength="178.9849" x="292.3539" y="500.8536">says what's optimal, and the</text><text fill="#181818" font-family="sans-serif" font-size="13" font-weight="700" lengthAdjust="spacing" textLength="141.9272" x="475.452" y="500.8536">LLM explains the gap</text><text fill="#181818" font-family="sans-serif" font-size="13" lengthAdjust="spacing" textLength="13" x="621.4925" y="500.8536">&#8212;</text><text fill="#181818" font-family="sans-serif" font-size="13" lengthAdjust="spacing" textLength="256.6357" x="302.2245" y="516.1641">grounded on engine eval, not free-form.</text></g><!--link POS to MAIA--><g class="link" data-entity-1="ent0002" data-entity-2="ent0003" data-link-type="dependency" data-source-line="14" id="lnk7"><path d="M227.65,92.1247 C208.57,100.9347 187.09,114.6347 176.04,134.5347 C168.26,148.5547 167.6383,160.2082 170.6283,175.3582" fill="none" id="POS-to-MAIA" style="stroke:#585858;stroke-width:2;"/><polygon fill="#585858" points="171.79,181.2447,173.9717,171.6405,170.8219,176.3393,166.1231,173.1895,171.79,181.2447" style="stroke:#585858;stroke-width:2;"/><text fill="#181818" font-family="sans-serif" font-size="13" lengthAdjust="spacing" textLength="130.0444" x="177.04" y="148.103">predict human move</text></g><!--link POS to SF--><g class="link" data-entity-1="ent0002" data-entity-2="ent0004" data-link-type="dependency" data-source-line="15" id="lnk8"><path d="M289.68,104.9147 C297.44,113.8647 305.65,124.2347 312.04,134.5347 C321.07,149.0647 326.6658,160.7662 332.6158,175.5962" fill="none" id="POS-to-SF" style="stroke:#585858;stroke-width:2;"/><polygon fill="#585858" points="334.85,181.1647,335.2111,171.3225,332.9882,176.5242,327.7864,174.3013,334.85,181.1647" style="stroke:#585858;stroke-width:2;"/><text fill="#181818" font-family="sans-serif" font-size="13" lengthAdjust="spacing" textLength="52.2603" x="322.43" y="148.103">evaluate</text></g><!--link MAIA to LLM--><g class="link" data-entity-1="ent0003" data-entity-2="ent0005" data-link-type="dependency" data-source-line="16" id="lnk9"><path d="M202.89,251.4547 C216.35,274.6347 230.9877,299.8357 244.0377,322.3157" fill="none" id="MAIA-to-LLM" style="stroke:#585858;stroke-width:2;"/><polygon fill="#585858" points="247.05,327.5047,245.9909,317.7129,244.5397,323.1805,239.0722,321.7294,247.05,327.5047" style="stroke:#585858;stroke-width:2;"/><text fill="#181818" font-family="sans-serif" font-size="13" lengthAdjust="spacing" textLength="34.0933" x="229.95" y="294.563">move</text></g><!--link SF to LLM--><g class="link" data-entity-1="ent0004" data-entity-2="ent0005" data-link-type="dependency" data-source-line="17" id="lnk10"><path d="M327.19,251.4547 C313.73,274.6347 299.0923,299.8357 286.0423,322.3157" fill="none" id="SF-to-LLM" style="stroke:#585858;stroke-width:2;"/><polygon fill="#585858" points="283.03,327.5047,291.0078,321.7294,285.5403,323.1805,284.0891,317.7129,283.03,327.5047" style="stroke:#585858;stroke-width:2;"/><text fill="#181818" font-family="sans-serif" font-size="13" lengthAdjust="spacing" textLength="60.2456" x="309.5" y="294.563">eval delta</text></g><!--link LLM to OUT--><g class="link" data-entity-1="ent0005" data-entity-2="ent0006" data-link-type="dependency" data-source-line="18" id="lnk11"><path d="M226.04,391.3347 C196.34,414.8247 160.6156,443.0721 132.5656,465.2621" fill="none" id="LLM-to-OUT" style="stroke:#585858;stroke-width:2;"/><polygon fill="#585858" points="127.86,468.9847,137.4001,466.5379,131.7813,465.8826,132.4367,460.2638,127.86,468.9847" style="stroke:#585858;stroke-width:2;"/><text fill="#181818" font-family="sans-serif" font-size="13" lengthAdjust="spacing" textLength="119.8818" x="186.14" y="434.543">explain (grounded)</text></g><?plantuml-src RLFRRjD047ttLmn-QGc9dKGKa5LLIcc1YeHKJIikgeIcwuczTBrhxQvJyiP7y2-yyoby2UDrGeFQF3bdpvavPsRtYTH2DJb1wNtjiZIrU9SKqfVDJUF82gCzQPy8KwMrDIio0u6fp1cJVfrMAFK6J-gcKX6ZYc3MA2y7fxgGck1KEwfk6FtpuoUKJOLweEGjmJCmjPSLAlwYxxNYKcIZFJZ7ccm6Ct6ch5aFFfj65q0UK2LzcA74K6YYPA4bdomQfeUoC3c3EtOExyA_Oofn9Otjm_kJ4nWFnyC-eFqaLzbuE7oH34Ul3WxksqrKNU8NicPB6hqSZLlIg2LDQKKgW-SjlqshKGlAW9D_8-5TAafoRY0CYX9-_uAvRG5lqHkRUDU7RXJ7LkO51Q16SOi5kPJ22KijHH5FkJQQPmlnkN7IIwDZUFX31-Vp1S3X8TRrqT6kBCndNudXqskzC-kAFSUjRZOvcpocMtWZRfVIbTTwknLQeOgt_HPlOAUVCaqUJkBfT7Q_lFY1pVQOPK7mVyEtblUQKmwCLOoWNSSxmldLvNs_AAITN5pCFtxb01-WYz7Edt8fV7UhGiY7rE0y2saQz1G5wIuXUCmwTI0_SjYg8IVbCGf8HtazdL-TT5QpxHHWlzWaUnf5sdY26-EzgS0iss8Hm6LfYQ3REzy4dWVuXYzA1hrUkxvU3xZIsa7O76x28Jy0u2aL_19EbUbpeLxltzPOurh9NOb-psqV5bzbdOClYQaxYt81Ah1c5JybhhIrp6OsnaBYFd00MBBTmTBOAec8oxMP_W80?></g></svg>