<svg xmlns="http://www.w3.org/2000/svg" xmlns:xlink="http://www.w3.org/1999/xlink" contentStyleType="text/css" data-diagram-type="DESCRIPTION" height="667px" preserveAspectRatio="none" style="width:612px;height:667px;background:#FAFAFA;" version="1.1" viewBox="0 0 612 667" width="612px" zoomAndPan="magnify"><?plantuml 1.2026.3?><defs><filter height="300%" id="f12d1qig9k1l9w" width="300%" x="-1" y="-1"><feGaussianBlur result="blurOut" stdDeviation="2"/><feColorMatrix in="blurOut" result="blurOut2" type="matrix" values="0 0 0 0 0 0 0 0 0 0 0 0 0 0 0 0 0 0 .4 0"/><feOffset dx="4" dy="4" in="blurOut2" result="blurOut3"/><feBlend in="SourceGraphic" in2="blurOut3" mode="normal"/></filter></defs><g><rect fill="#FAFAFA" height="667" style="stroke:none;stroke-width:1;" width="612" x="0" y="0"/><g class="title" data-source-line="2"><rect fill="none" height="33.5547" style="stroke:#585858;stroke-width:1;" width="286.4551" x="159.7092" y="5"/><text fill="#005F7F" font-family="sans-serif" font-size="20" font-weight="700" lengthAdjust="spacing" textLength="276.4551" x="164.7092" y="29.3359">Clinical RAG with Citations</text></g><!--entity Q--><g class="entity" data-qualified-name="Q" data-source-line="7" id="ent0002"><rect fill="#005F7F" filter="url(#f12d1qig9k1l9w)" height="52.9766" rx="6" ry="6" style="stroke:#00BAC6;stroke-width:0.5;" width="132.9023" x="166.64" y="51.5547"/><text fill="#FAFAFA" font-family="sans-serif" font-size="14" font-style="italic" lengthAdjust="spacing" textLength="40.0244" x="213.079" y="75.0898">&#171;app&#187;</text><text fill="#FAFAFA" font-family="sans-serif" font-size="14" lengthAdjust="spacing" textLength="112.9023" x="176.64" y="91.5781">Clinical question</text></g><!--entity KB--><g class="entity" data-qualified-name="KB" data-source-line="8" id="ent0003"><path d="M70.38,191.5347 C70.38,181.5347 155.0934,181.5347 155.0934,181.5347 C155.0934,181.5347 239.8068,181.5347 239.8068,191.5347 L239.8068,233.5113 C239.8068,243.5113 155.0934,243.5113 155.0934,243.5113 C155.0934,243.5113 70.38,243.5113 70.38,233.5113 L70.38,191.5347" fill="#E5E4E4" filter="url(#f12d1qig9k1l9w)" style="stroke:#585858;stroke-width:0.5;"/><path d="M70.38,191.5347 C70.38,201.5347 155.0934,201.5347 155.0934,201.5347 C155.0934,201.5347 239.8068,201.5347 239.8068,191.5347" fill="none" style="stroke:#585858;stroke-width:0.5;"/><text fill="#181818" font-family="sans-serif" font-size="14" font-style="italic" lengthAdjust="spacing" textLength="32.293" x="138.9469" y="219.0698">&#171;db&#187;</text><text fill="#181818" font-family="sans-serif" font-size="14" lengthAdjust="spacing" textLength="149.4268" x="80.38" y="235.5581">Guidelines / literature</text></g><!--entity LLM--><g class="entity" data-qualified-name="LLM" data-source-line="9" id="ent0004"><path d="M199.7283,328.6738 C201.9244,322.2611 205.8081,322.1899 210.6287,325.8274 C213.6422,319.0689 217.8493,318.0115 222.9508,323.7723 C225.3023,318.3081 228.3216,316.4045 233.4407,320.8395 C237.7548,317.6078 242.1544,319.068 243.4649,324.3685 C248.2258,319.7351 252.5771,319.35 255.9644,325.9033 C261.2963,322.6678 265.1106,324.5478 266.7565,330.3196 C275.1845,331.7341 276.0872,337.5011 271.5565,343.5994 C279.1378,346.7548 279.7067,351.0836 275.3036,357.4753 C279.7843,363.2885 279.619,368.6544 271.4131,370.7492 C276.4625,377.2117 273.4691,380.8176 266.9369,383.0738 C264.7638,389.0491 259.5324,389.6942 255.3996,385.2419 C252.046,389.1711 248.4647,388.9259 245.5741,384.6851 C242.0335,390.3982 236.6852,391.6318 232.4469,385.4554 C229.8239,390.2314 225.5736,390.7774 222.7598,385.6417 C218.6612,390.2917 213.452,390.2675 211.0049,383.8824 C207.4805,389.4089 202.4104,387.7518 199.8282,382.8706 C193.3271,380.7951 192.1857,376.9851 195.3472,371.1998 C187.9042,368.0041 186.682,362.621 192.9177,357.0729 C186.442,349.9014 188.4416,345.2745 197.0704,342.3688 C192.3808,336.9006 191.7827,331.6899 199.7283,328.6738" fill="#585858" filter="url(#f12d1qig9k1l9w)"/><text fill="#FAFAFA" font-family="sans-serif" font-size="14" font-style="italic" lengthAdjust="spacing" textLength="51.9873" x="206.1" y="349.0398">&#171;cloud&#187;</text><text fill="#FAFAFA" font-family="sans-serif" font-size="20" lengthAdjust="spacing" textLength="38.5547" x="212.8163" y="371.3289">LLM</text></g><!--entity ANS--><g class="entity" data-qualified-name="ANS" data-source-line="10" id="ent0005"><rect fill="#005F7F" filter="url(#f12d1qig9k1l9w)" height="52.9766" rx="6" ry="6" style="stroke:#00BAC6;stroke-width:0.5;" width="225.0234" x="119.58" y="467.5547"/><text fill="#FAFAFA" font-family="sans-serif" font-size="14" font-style="italic" lengthAdjust="spacing" textLength="40.0244" x="212.0795" y="491.0898">&#171;app&#187;</text><text fill="#FAFAFA" font-family="sans-serif" font-size="14" lengthAdjust="spacing" textLength="205.0234" x="129.58" y="507.5781">Answer + mandatory citations</text></g><!--entity DOC--><g class="entity" data-qualified-name="DOC" data-source-line="11" id="ent0006"><rect fill="#00BAC6" filter="url(#f12d1qig9k1l9w)" height="52.9766" rx="6" ry="6" style="stroke:#006B70;stroke-width:0.5;" width="138.1797" x="7" y="597.5247"/><text fill="#181818" font-family="sans-serif" font-size="14" font-style="italic" lengthAdjust="spacing" textLength="44.3311" x="53.9243" y="621.0598">&#171;host&#187;</text><text fill="#181818" font-family="sans-serif" font-size="14" lengthAdjust="spacing" textLength="118.1797" x="17" y="637.5481">Clinician sign-off</text></g><g class="entity" data-qualified-name="GMN12" data-source-line="20" id="ent0013"><path d="M180.31,603.7047 L180.31,644.3258 A0,0 0 0 0 180.31,644.3258 L597.8735,644.3258 A0,0 0 0 0 597.8735,644.3258 L597.8735,613.7047 L587.8735,603.7047 L369.06,603.7047 L263.86,520.9347 L361.06,603.7047 L180.31,603.7047 A0,0 0 0 0 180.31,603.7047" fill="#E5E4E4" filter="url(#f12d1qig9k1l9w)" style="stroke:#B4B3B3;stroke-width:0.5;"/><path d="M587.8735,603.7047 L587.8735,613.7047 L597.8735,613.7047 L587.8735,603.7047" fill="#E5E4E4" style="stroke:#B4B3B3;stroke-width:0.5;"/><text fill="#181818" font-family="sans-serif" font-size="13" lengthAdjust="spacing" textLength="70.7319" x="186.31" y="621.273">Every claim</text><text fill="#181818" font-family="sans-serif" font-size="13" font-weight="700" lengthAdjust="spacing" textLength="176.0522" x="261.1552" y="621.273">links to a retrieved source</text><text fill="#181818" font-family="sans-serif" font-size="13" lengthAdjust="spacing" textLength="141.5527" x="441.3207" y="621.273">(cite-or-refuse), and a</text><text fill="#181818" font-family="sans-serif" font-size="13" lengthAdjust="spacing" textLength="366.7041" x="201.2397" y="636.5836">clinician signs off. Grounding + HITL, not free generation.</text></g><!--link Q to KB--><g class="link" data-entity-1="ent0002" data-entity-2="ent0003" data-link-type="dependency" data-source-line="13" id="lnk7"><path d="M217.87,104.9047 C205.01,126.7347 189.625,152.8748 176.055,175.9148" fill="none" id="Q-to-KB" style="stroke:#585858;stroke-width:2;"/><polygon fill="#585858" points="173.01,181.0847,181.0241,175.3598,175.5475,176.7764,174.1308,171.2998,173.01,181.0847" style="stroke:#585858;stroke-width:2;"/><text fill="#181818" font-family="sans-serif" font-size="13" lengthAdjust="spacing" textLength="47.7153" x="199.76" y="148.103">retrieve</text></g><!--link KB to LLM--><g class="link" data-entity-1="ent0003" data-entity-2="ent0004" data-link-type="dependency" data-source-line="14" id="lnk8"><path d="M156.94,243.7247 C158.83,258.4947 162.59,276.1447 170.09,290.5047 C175.67,301.2047 179.5073,306.9565 187.8473,315.8565" fill="none" id="KB-to-LLM" style="stroke:#585858;stroke-width:2;"/><polygon fill="#585858" points="191.95,320.2347,188.7148,310.9324,188.5311,316.5862,182.8772,316.4026,191.95,320.2347" style="stroke:#585858;stroke-width:2;"/><text fill="#181818" font-family="sans-serif" font-size="13" lengthAdjust="spacing" textLength="112.9185" x="171.09" y="287.073">grounded context</text></g><!--link Q to LLM--><g class="link" data-entity-1="ent0002" data-entity-2="ent0004" data-link-type="dependency" data-source-line="15" id="lnk9"><path d="M249.91,104.9647 C273.91,145.3847 312.5,225.5247 288.09,290.5047 C284.09,301.1547 281.2716,306.5758 273.9116,315.4058" fill="none" id="Q-to-LLM" style="stroke:#585858;stroke-width:2;"/><polygon fill="#585858" points="270.07,320.0147,278.905,315.6624,273.2713,316.1739,272.7598,310.5403,270.07,320.0147" style="stroke:#585858;stroke-width:2;"/><text fill="#181818" font-family="sans-serif" font-size="13" lengthAdjust="spacing" textLength="21.4043" x="296.87" y="217.593">ask</text></g><!--link LLM to ANS--><g class="link" data-entity-1="ent0004" data-entity-2="ent0005" data-link-type="dependency" data-source-line="16" id="lnk10"><path d="M232.09,390.9747 C232.09,414.6747 232.09,439.6447 232.09,461.2247" fill="none" id="LLM-to-ANS" style="stroke:#585858;stroke-width:2;"/><polygon fill="#585858" points="232.09,467.2247,236.09,458.2247,232.09,462.2247,228.09,458.2247,232.09,467.2247" style="stroke:#585858;stroke-width:2;"/><text fill="#181818" font-family="sans-serif" font-size="13" lengthAdjust="spacing" textLength="147.1704" x="233.09" y="434.123">answer (cite-or-refuse)</text></g><!--link ANS to DOC--><g class="link" data-entity-1="ent0005" data-entity-2="ent0006" data-link-type="dependency" data-source-line="17" id="lnk11"><path d="M200.52,520.9347 C173.46,543.1447 139.2988,571.1593 112.2488,593.3493" fill="none" id="ANS-to-DOC" style="stroke:#585858;stroke-width:2;"/><polygon fill="#585858" points="107.61,597.1547,117.1052,594.5392,111.4757,593.9835,112.0313,588.354,107.61,597.1547" style="stroke:#585858;stroke-width:2;"/><text fill="#181818" font-family="sans-serif" font-size="13" lengthAdjust="spacing" textLength="40.3076" x="164.43" y="564.093">review</text></g><?plantuml-src PP91SzCm48Nl-XKFNsX34wUbT1XFfpCcxPIKf840mv5HxBMZgImPIKxeZIFS-ONz9QpIqgQjBxPNUc-_fzKBPGhTbOHb2AtFqjJ9zQ1MOTajEa-ki2QG2OF2Dcdhx8filv2fAhccmdNQI6NkweEsQxJWgYQCj3Aga1hp_1nhDiD81HcKDLwyn4VPaikGwqOQMU3crr_CAJX5AwdxULStR4ub9bEFohe7iocLgb26zd1vTZ55FiR1yE0GEwUpCVQ7W_tXcwCq7rjvy7eu71wztULM4rgHpd0OkqPA8qr16KeRmJCiIMg6sta__ZB1pP_VaEsID6EYvitEMBSh14TlhM4c9FSeFphoCKw2xKTwVEBNyR5isvCJKSeW5z8Ja9ntV6Gi9eyKMWLoCdIEaWVXXtTHM2vOLsZRbPjwCfbC7xV0quQyWtKRIPG-iER6hydX5VYKcSIwQnJ_Xv1ifFdbvtlMPo6LDF2gDdrRLScJdgUp4GkNrWTMYXWvdyzdtxvFy_4bDaaokDk9aeY_syiHE4FjR6TAdlBcWlqCMowZoUphwTqswQz4_DesYDYySXjlXpDHtxg-euhlwww8gzkx8skaMIbQ2s5i82ni2BQ1hQAL0Cvur7muMge6lHwdl_885l8-GmblErTGh_Uitnw3b93iKZmwDi_srG3dcvZAr3o7UCdsm0Ie715gCl4My3W6WjWZelq3?></g></svg>