<svg xmlns="http://www.w3.org/2000/svg" xmlns:xlink="http://www.w3.org/1999/xlink" contentStyleType="text/css" data-diagram-type="DESCRIPTION" height="1034px" preserveAspectRatio="none" style="width:877px;height:1034px;background:#FAFAFA;" version="1.1" viewBox="0 0 877 1034" width="877px" zoomAndPan="magnify"><?plantuml 1.2026.3?><defs><filter height="300%" id="fuxumrk2i7ovh" width="300%" x="-1" y="-1"><feGaussianBlur result="blurOut" stdDeviation="2"/><feColorMatrix in="blurOut" result="blurOut2" type="matrix" values="0 0 0 0 0 0 0 0 0 0 0 0 0 0 0 0 0 0 .4 0"/><feOffset dx="4" dy="4" in="blurOut2" result="blurOut3"/><feBlend in="SourceGraphic" in2="blurOut3" mode="normal"/></filter></defs><g><rect fill="#FAFAFA" height="1034" style="stroke:none;stroke-width:1;" width="877" x="0" y="0"/><g class="title" data-source-line="2"><rect fill="none" height="33.5547" style="stroke:#585858;stroke-width:1;" width="860.9082" x="5" y="5"/><text fill="#005F7F" font-family="sans-serif" font-size="20" font-weight="700" lengthAdjust="spacing" textLength="850.9082" x="10" y="29.3359">Capability Ladder &#8212; a business request walked through deterministic checkpoints</text></g><!--entity REQ--><g class="entity" data-qualified-name="REQ" data-source-line="5" id="ent0002"><rect fill="#00BAC6" filter="url(#fuxumrk2i7ovh)" height="52.9766" rx="6" ry="6" style="stroke:#006B70;stroke-width:0.5;" width="134.3174" x="148.2262" y="51.5547"/><text fill="#181818" font-family="sans-serif" font-size="14" font-style="italic" lengthAdjust="spacing" textLength="44.3311" x="193.2193" y="75.0898">&#171;host&#187;</text><text fill="#181818" font-family="sans-serif" font-size="14" lengthAdjust="spacing" textLength="114.3174" x="158.2262" y="91.5781">Business request</text></g><!--entity L7--><g class="entity" data-qualified-name="L7" data-source-line="6" id="ent0003"><rect fill="#005F7F" filter="url(#fuxumrk2i7ovh)" height="52.9766" rx="6" ry="6" style="stroke:#00BAC6;stroke-width:0.5;" width="189.6748" x="120.5462" y="181.5347"/><text fill="#FAFAFA" font-family="sans-serif" font-size="14" font-style="italic" lengthAdjust="spacing" textLength="40.0244" x="195.3714" y="205.0698">&#171;app&#187;</text><text fill="#FAFAFA" font-family="sans-serif" font-size="14" lengthAdjust="spacing" textLength="169.6748" x="130.5462" y="221.5581">Level 7 &#8212; Custom model</text></g><!--entity L6--><g class="entity" data-qualified-name="L6" data-source-line="7" id="ent0004"><rect fill="#005F7F" filter="url(#fuxumrk2i7ovh)" height="52.9766" rx="6" ry="6" style="stroke:#00BAC6;stroke-width:0.5;" width="296.6367" x="67.0662" y="311.5147"/><text fill="#FAFAFA" font-family="sans-serif" font-size="14" font-style="italic" lengthAdjust="spacing" textLength="40.0244" x="195.3723" y="335.0498">&#171;app&#187;</text><text fill="#FAFAFA" font-family="sans-serif" font-size="14" lengthAdjust="spacing" textLength="276.6367" x="77.0662" y="351.5381">Level 6 &#8212; RL post-training (reward loop)</text></g><!--entity L5--><g class="entity" data-qualified-name="L5" data-source-line="8" id="ent0005"><rect fill="#005F7F" filter="url(#fuxumrk2i7ovh)" height="52.9766" rx="6" ry="6" style="stroke:#00BAC6;stroke-width:0.5;" width="283.833" x="73.4762" y="441.4847"/><text fill="#FAFAFA" font-family="sans-serif" font-size="14" font-style="italic" lengthAdjust="spacing" textLength="40.0244" x="195.3805" y="465.0198">&#171;app&#187;</text><text fill="#FAFAFA" font-family="sans-serif" font-size="14" lengthAdjust="spacing" textLength="263.833" x="83.4762" y="481.5081">Level 5 &#8212; Supervised fine-tuning (SFT)</text></g><!--entity L4--><g class="entity" data-qualified-name="L4" data-source-line="9" id="ent0006"><rect fill="#005F7F" filter="url(#fuxumrk2i7ovh)" height="52.9766" rx="6" ry="6" style="stroke:#00BAC6;stroke-width:0.5;" width="315.2441" x="57.7662" y="572.9447"/><text fill="#FAFAFA" font-family="sans-serif" font-size="14" font-style="italic" lengthAdjust="spacing" textLength="40.0244" x="195.376" y="596.4798">&#171;app&#187;</text><text fill="#FAFAFA" font-family="sans-serif" font-size="14" lengthAdjust="spacing" textLength="295.2441" x="67.7662" y="612.9681">Level 4 &#8212; Harness (workflow orchestration)</text></g><!--entity L3--><g class="entity" data-qualified-name="L3" data-source-line="10" id="ent0007"><rect fill="#005F7F" filter="url(#fuxumrk2i7ovh)" height="52.9766" rx="6" ry="6" style="stroke:#00BAC6;stroke-width:0.5;" width="223.3076" x="103.7362" y="704.3947"/><text fill="#FAFAFA" font-family="sans-serif" font-size="14" font-style="italic" lengthAdjust="spacing" textLength="40.0244" x="195.3778" y="727.9298">&#171;app&#187;</text><text fill="#FAFAFA" font-family="sans-serif" font-size="14" lengthAdjust="spacing" textLength="203.3076" x="113.7362" y="744.4181">Level 3 &#8212; Meta-prompt loops</text></g><!--entity L2--><g class="entity" data-qualified-name="L2" data-source-line="11" id="ent0008"><rect fill="#005F7F" filter="url(#fuxumrk2i7ovh)" height="52.9766" rx="6" ry="6" style="stroke:#00BAC6;stroke-width:0.5;" width="241.3066" x="94.7362" y="834.3747"/><text fill="#FAFAFA" font-family="sans-serif" font-size="14" font-style="italic" lengthAdjust="spacing" textLength="40.0244" x="195.3773" y="857.9098">&#171;app&#187;</text><text fill="#FAFAFA" font-family="sans-serif" font-size="14" lengthAdjust="spacing" textLength="221.3066" x="104.7362" y="874.3981">Level 2 &#8212; Single prompts (skills)</text></g><!--entity L1--><g class="entity" data-qualified-name="L1" data-source-line="12" id="ent0009"><rect fill="#00BAC6" filter="url(#fuxumrk2i7ovh)" height="52.9766" rx="6" ry="6" style="stroke:#006B70;stroke-width:0.5;" width="187.3574" x="121.7062" y="964.3447"/><text fill="#181818" font-family="sans-serif" font-size="14" font-style="italic" lengthAdjust="spacing" textLength="44.3311" x="193.2194" y="987.8798">&#171;host&#187;</text><text fill="#181818" font-family="sans-serif" font-size="14" lengthAdjust="spacing" textLength="167.3574" x="131.7062" y="1004.3681">Level 1 &#8212; Human expert</text></g><g class="entity" data-qualified-name="GMN17" data-source-line="23" id="ent0018"><path d="M345.7162,187.7147 L345.7162,204.0247 L310.4562,208.0247 L345.7162,212.0247 L345.7162,228.3358 A0,0 0 0 0 345.7162,228.3358 L651.0531,228.3358 A0,0 0 0 0 651.0531,228.3358 L651.0531,197.7147 L641.0531,187.7147 L345.7162,187.7147 A0,0 0 0 0 345.7162,187.7147" fill="#E5E4E4" filter="url(#fuxumrk2i7ovh)" style="stroke:#B4B3B3;stroke-width:0.5;"/><path d="M641.0531,187.7147 L641.0531,197.7147 L651.0531,197.7147 L641.0531,187.7147" fill="#E5E4E4" style="stroke:#B4B3B3;stroke-width:0.5;"/><text fill="#181818" font-family="sans-serif" font-size="13" font-weight="700" lengthAdjust="spacing" textLength="109.7954" x="351.7162" y="205.283">Market baseline:</text><text fill="#181818" font-family="sans-serif" font-size="13" lengthAdjust="spacing" textLength="170.4282" x="465.6249" y="205.283">frontier foundation models</text><text fill="#181818" font-family="sans-serif" font-size="13" lengthAdjust="spacing" textLength="262.4375" x="362.6659" y="220.5936">trained from scratch (Opus- / GLM-class)</text></g><g class="entity" data-qualified-name="GMN20" data-source-line="27" id="ent0021"><path d="M398.4962,317.6847 L398.4962,333.9947 L363.9762,337.9947 L398.4962,341.9947 L398.4962,358.3058 A0,0 0 0 0 398.4962,358.3058 L760.2891,358.3058 A0,0 0 0 0 760.2891,358.3058 L760.2891,327.6847 L750.2891,317.6847 L398.4962,317.6847 A0,0 0 0 0 398.4962,317.6847" fill="#E5E4E4" filter="url(#fuxumrk2i7ovh)" style="stroke:#B4B3B3;stroke-width:0.5;"/><path d="M750.2891,317.6847 L750.2891,327.6847 L760.2891,327.6847 L750.2891,317.6847" fill="#E5E4E4" style="stroke:#B4B3B3;stroke-width:0.5;"/><text fill="#181818" font-family="sans-serif" font-size="13" font-weight="700" lengthAdjust="spacing" textLength="109.7954" x="419.9083" y="335.253">Market baseline:</text><text fill="#181818" font-family="sans-serif" font-size="13" lengthAdjust="spacing" textLength="196.0601" x="533.817" y="335.253">RL / eval-loop post-training &#8212;</text><text fill="#181818" font-family="sans-serif" font-size="13" lengthAdjust="spacing" textLength="340.793" x="404.4962" y="350.5636">own the reward functions (OpenAI RFT, DeepSeek-R1)</text></g><g class="entity" data-qualified-name="GMN23" data-source-line="31" id="ent0024"><path d="M392.6362,447.6647 L392.6362,463.9747 L357.4862,467.9747 L392.6362,471.9747 L392.6362,488.2858 A0,0 0 0 0 392.6362,488.2858 L812.142,488.2858 A0,0 0 0 0 812.142,488.2858 L812.142,457.6647 L802.142,447.6647 L392.6362,447.6647 A0,0 0 0 0 392.6362,447.6647" fill="#E5E4E4" filter="url(#fuxumrk2i7ovh)" style="stroke:#B4B3B3;stroke-width:0.5;"/><path d="M802.142,447.6647 L802.142,457.6647 L812.142,457.6647 L802.142,447.6647" fill="#E5E4E4" style="stroke:#B4B3B3;stroke-width:0.5;"/><text fill="#181818" font-family="sans-serif" font-size="13" font-weight="700" lengthAdjust="spacing" textLength="109.7954" x="439.769" y="465.233">Market baseline:</text><text fill="#181818" font-family="sans-serif" font-size="13" lengthAdjust="spacing" textLength="202.3315" x="553.6777" y="465.233">domain LoRA / fine-tuning on a</text><text fill="#181818" font-family="sans-serif" font-size="13" lengthAdjust="spacing" textLength="398.5059" x="398.6362" y="480.5436">fixed owned dataset (HuggingFace domain models, Med-PaLM)</text></g><g class="entity" data-qualified-name="GMN26" data-source-line="35" id="ent0027"><path d="M408.4562,571.4647 L408.4562,595.4247 L373.2862,599.4247 L408.4562,603.4247 L408.4562,627.3963 A0,0 0 0 0 408.4562,627.3963 L762.3209,627.3963 A0,0 0 0 0 762.3209,627.3963 L762.3209,581.4647 L752.3209,571.4647 L408.4562,571.4647 A0,0 0 0 0 408.4562,571.4647" fill="#E5E4E4" filter="url(#fuxumrk2i7ovh)" style="stroke:#B4B3B3;stroke-width:0.5;"/><path d="M752.3209,571.4647 L752.3209,581.4647 L762.3209,581.4647 L752.3209,571.4647" fill="#E5E4E4" style="stroke:#B4B3B3;stroke-width:0.5;"/><text fill="#181818" font-family="sans-serif" font-size="13" font-weight="700" lengthAdjust="spacing" textLength="109.7954" x="421.3751" y="589.033">Market baseline:</text><text fill="#181818" font-family="sans-serif" font-size="13" lengthAdjust="spacing" textLength="205.1182" x="535.2838" y="589.033">agentic work platforms that own</text><text fill="#181818" font-family="sans-serif" font-size="13" lengthAdjust="spacing" textLength="332.8647" x="414.4562" y="604.3436">integrations + authority + evidence (Claude Cowork,</text><text fill="#181818" font-family="sans-serif" font-size="13" lengthAdjust="spacing" textLength="317.5415" x="422.1178" y="619.6541">Copilot Studio + Agent 365, AgentKit, LangGraph)</text></g><g class="entity" data-qualified-name="GMN29" data-source-line="40" id="ent0030"><path d="M362.2262,710.5747 L362.2262,726.8847 L327.3862,730.8847 L362.2262,734.8847 L362.2262,751.1958 A0,0 0 0 0 362.2262,751.1958 L670.5465,751.1958 A0,0 0 0 0 670.5465,751.1958 L670.5465,720.5747 L660.5465,710.5747 L362.2262,710.5747 A0,0 0 0 0 362.2262,710.5747" fill="#E5E4E4" filter="url(#fuxumrk2i7ovh)" style="stroke:#B4B3B3;stroke-width:0.5;"/><path d="M660.5465,710.5747 L660.5465,720.5747 L670.5465,720.5747 L660.5465,710.5747" fill="#E5E4E4" style="stroke:#B4B3B3;stroke-width:0.5;"/><text fill="#181818" font-family="sans-serif" font-size="13" font-weight="700" lengthAdjust="spacing" textLength="109.7954" x="368.2262" y="728.143">Market baseline:</text><text fill="#181818" font-family="sans-serif" font-size="13" lengthAdjust="spacing" textLength="173.4116" x="482.1349" y="728.143">general chat assistants that</text><text fill="#181818" font-family="sans-serif" font-size="13" lengthAdjust="spacing" textLength="230.5469" x="396.6129" y="743.4536">augment the base prompt (ChatGPT)</text></g><g class="entity" data-qualified-name="GMN32" data-source-line="44" id="ent0033"><path d="M371.0562,840.5447 L371.0562,856.8647 L336.3562,860.8647 L371.0562,864.8647 L371.0562,881.1658 A0,0 0 0 0 371.0562,881.1658 L691.7163,881.1658 A0,0 0 0 0 691.7163,881.1658 L691.7163,850.5447 L681.7163,840.5447 L371.0562,840.5447 A0,0 0 0 0 371.0562,840.5447" fill="#E5E4E4" filter="url(#fuxumrk2i7ovh)" style="stroke:#B4B3B3;stroke-width:0.5;"/><path d="M681.7163,840.5447 L681.7163,850.5447 L691.7163,850.5447 L681.7163,840.5447" fill="#E5E4E4" style="stroke:#B4B3B3;stroke-width:0.5;"/><text fill="#181818" font-family="sans-serif" font-size="13" font-weight="700" lengthAdjust="spacing" textLength="109.7954" x="377.0562" y="858.113">Market baseline:</text><text fill="#181818" font-family="sans-serif" font-size="13" lengthAdjust="spacing" textLength="185.7515" x="490.9649" y="858.113">shared system-prompt / skill</text><text fill="#181818" font-family="sans-serif" font-size="13" lengthAdjust="spacing" textLength="264.0752" x="394.8487" y="873.4236">libraries (community &amp; vendor skill repos)</text></g><g class="entity" data-qualified-name="GMN35" data-source-line="48" id="ent0036"><path d="M344.0562,970.5247 L344.0562,986.8347 L309.3562,990.8347 L344.0562,994.8347 L344.0562,1011.1458 A0,0 0 0 0 344.0562,1011.1458 L652.7256,1011.1458 A0,0 0 0 0 652.7256,1011.1458 L652.7256,980.5247 L642.7256,970.5247 L344.0562,970.5247 A0,0 0 0 0 344.0562,970.5247" fill="#E5E4E4" filter="url(#fuxumrk2i7ovh)" style="stroke:#B4B3B3;stroke-width:0.5;"/><path d="M642.7256,970.5247 L642.7256,980.5247 L652.7256,980.5247 L642.7256,970.5247" fill="#E5E4E4" style="stroke:#B4B3B3;stroke-width:0.5;"/><text fill="#181818" font-family="sans-serif" font-size="13" font-weight="700" lengthAdjust="spacing" textLength="109.7954" x="387.501" y="988.093">Market baseline:</text><text fill="#181818" font-family="sans-serif" font-size="13" lengthAdjust="spacing" textLength="98.8711" x="501.4097" y="988.093">domain experts</text><text fill="#181818" font-family="sans-serif" font-size="13" lengthAdjust="spacing" textLength="287.6694" x="350.0562" y="1003.4036">(financial analysts, clinicians, attorneys, SREs)</text></g><!--link REQ to L7--><g class="link" data-entity-1="ent0002" data-entity-2="ent0003" data-link-type="dependency" data-source-line="14" id="lnk10"><path d="M215.3862,104.9447 C215.3862,127.1447 215.3862,152.9747 215.3862,175.1647" fill="none" id="REQ-to-L7" style="stroke:#585858;stroke-width:2;"/><polygon fill="#585858" points="215.3862,181.1647,219.3862,172.1647,215.3862,176.1647,211.3862,172.1647,215.3862,181.1647" style="stroke:#585858;stroke-width:2;"/><text fill="#181818" font-family="sans-serif" font-size="13" lengthAdjust="spacing" textLength="170.3013" x="216.3862" y="148.103">can the model one-shot it?</text></g><!--link L7 to L6--><g class="link" data-entity-1="ent0003" data-entity-2="ent0004" data-link-type="dependency" data-source-line="15" id="lnk11"><path d="M215.3862,234.9247 C215.3862,257.1247 215.3862,282.9447 215.3862,305.1347" fill="none" id="L7-to-L6" style="stroke:#585858;stroke-width:1;stroke-dasharray:1,3;"/><polygon fill="#585858" points="215.3862,311.1347,219.3862,302.1347,215.3862,306.1347,211.3862,302.1347,215.3862,311.1347" style="stroke:#585858;stroke-width:1;"/><text fill="#181818" font-family="sans-serif" font-size="13" lengthAdjust="spacing" textLength="359.3027" x="216.3862" y="278.083">needs cheaper / faster / safer / more accurate outcomes</text></g><!--link L6 to L5--><g class="link" data-entity-1="ent0004" data-entity-2="ent0005" data-link-type="dependency" data-source-line="16" id="lnk12"><path d="M215.3862,364.8947 C215.3862,387.1047 215.3862,412.9247 215.3862,435.1147" fill="none" id="L6-to-L5" style="stroke:#585858;stroke-width:1;stroke-dasharray:1,3;"/><polygon fill="#585858" points="215.3862,441.1147,219.3862,432.1147,215.3862,436.1147,211.3862,432.1147,215.3862,441.1147" style="stroke:#585858;stroke-width:1;"/><text fill="#181818" font-family="sans-serif" font-size="13" lengthAdjust="spacing" textLength="332.2998" x="216.3862" y="408.053">a reward loop is overkill &#8212; a labeled dataset suffices</text></g><!--link L5 to L4--><g class="link" data-entity-1="ent0005" data-entity-2="ent0006" data-link-type="dependency" data-source-line="17" id="lnk13"><path d="M215.3862,494.8647 C215.3862,517.4347 215.3862,544.0247 215.3862,566.5847" fill="none" id="L5-to-L4" style="stroke:#585858;stroke-width:1;stroke-dasharray:1,3;"/><polygon fill="#585858" points="215.3862,572.5847,219.3862,563.5847,215.3862,567.5847,211.3862,563.5847,215.3862,572.5847" style="stroke:#585858;stroke-width:1;"/><text fill="#181818" font-family="sans-serif" font-size="13" lengthAdjust="spacing" textLength="333.2202" x="216.3862" y="538.033">don't retrain &#8212; ground &amp; orchestrate a frozen model</text></g><!--link L4 to L3--><g class="link" data-entity-1="ent0006" data-entity-2="ent0007" data-link-type="dependency" data-source-line="18" id="lnk14"><path d="M215.3862,626.3147 C215.3862,648.8947 215.3862,675.4747 215.3862,698.0447" fill="none" id="L4-to-L3" style="stroke:#585858;stroke-width:1;stroke-dasharray:1,3;"/><polygon fill="#585858" points="215.3862,704.0447,219.3862,695.0447,215.3862,699.0447,211.3862,695.0447,215.3862,704.0447" style="stroke:#585858;stroke-width:1;"/><text fill="#181818" font-family="sans-serif" font-size="13" lengthAdjust="spacing" textLength="328.377" x="216.3862" y="670.963">no tools or integrations &#8212; self-contained reasoning</text></g><!--link L3 to L2--><g class="link" data-entity-1="ent0007" data-entity-2="ent0008" data-link-type="dependency" data-source-line="19" id="lnk15"><path d="M215.3862,757.7847 C215.3862,779.9847 215.3862,805.8047 215.3862,828.0047" fill="none" id="L3-to-L2" style="stroke:#585858;stroke-width:1;stroke-dasharray:1,3;"/><polygon fill="#585858" points="215.3862,834.0047,219.3862,825.0047,215.3862,829.0047,211.3862,825.0047,215.3862,834.0047" style="stroke:#585858;stroke-width:1;"/><text fill="#181818" font-family="sans-serif" font-size="13" lengthAdjust="spacing" textLength="164.8169" x="216.3862" y="800.943">no reasoning loop needed</text></g><!--link L2 to L1--><g class="link" data-entity-1="ent0008" data-entity-2="ent0009" data-link-type="dependency" data-source-line="20" id="lnk16"><path d="M215.3862,887.7547 C215.3862,909.9647 215.3862,935.7847 215.3862,957.9747" fill="none" id="L2-to-L1" style="stroke:#585858;stroke-width:1;stroke-dasharray:1,3;"/><polygon fill="#585858" points="215.3862,963.9747,219.3862,954.9747,215.3862,958.9747,211.3862,954.9747,215.3862,963.9747" style="stroke:#585858;stroke-width:1;"/><text fill="#181818" font-family="sans-serif" font-size="13" lengthAdjust="spacing" textLength="200.4082" x="216.3862" y="930.913">must be signed-off by a human</text></g><?plantuml-src XLN1Rjj64BtpAwOwfB9ZMh1bEO0Hf53Ts34gnwvaeCTYH0x9XPQxxExIYdFgH_GB-oLzIzg9eaQgBYB8dJTlthoP_K6PJBUvK1L2uoz68yVhurA5gbssNbncJH0JZZDRZnfd7yMc6OzKZdSgF8rgLkRv_N7JrZh1MorqoGqlbSO9cd6UYwD__lgRc02fZ7XFJlvinGTQirv9Jg5ojYqhoYM8gvLHFgYCiagoLMEL2JxnAsKQTbmJc3JM8FyYF26LaoomARKaoPSlDFXvAz60zlpOq_pzR_JsRMLzUFTk4sScZwBfJKV_ilN1rbJRNFHW9zBi3G69c-PxGESTq7n63JAbmK4zPKeQEbcpoqbRsnmCNe3Ezm1DEg15suXxL1uA5YWt3MqFjxXwE1XyPJJP0tJM0NrWrwarN5ktAhHTatLGtuDXKDP4i0XqjWTet07TIk0KVgYRq5NZ1z_LQBm7wBGlJSMUKWy5OkY_rlvWi0LqkWVef2-jhTcGV89IOK_NJkXh_vFeXkbyVlVx7xVJcu_T6RJrWZ8WXKfw2n2IfRwoWLJuAObjxqFkxXzkxZvEPx615sH4SX-Tp2108ohOX-x1Sz7zrzO9SPQra5h8jW5rY4zYzxVn9i1Zsl0AAKyOFHUrUPumpKlHy4FEWRq4ycrHg2m2JluBU0R0t9eV0q0xCtOW9MRHvFHgmmDWI8MpdyNqjIVH2jjeurYkfM2j1Yr7c5ifUmFv3jYBBjAuK90959smjz6mIVJ3DjffZ_RbK5zmb5Fo9FPzE-040JL6b9P2NfN8aDgYeEKJk5VH14bYB2fnggm2sG8jJOWE3s_PhI3K4d9fyBeuF8obOhsXFKLKegkWhziZeXCgJXoiIJv3WLb5mxkczIdQUJsxJJFDtXya0X5ZnksqvxlIOY-CI1vPfrsjt-u828Wuk-uT-6o2eZLPhoy8Y9dUqFpguOX-4MaM8gjqVhARncGNZTp6hKupEvz6msui5iZ0Y2hK9zGFAXi-6tveon9dhZYJ5uHUiYCiXJozvzdjRYvdkxXm6I-QZE9UeaPpAAohFIJW40aWx1kNlIPkGsLTl7XUGyfuJu7Fy59plE8kRSGvGjIbRPJ6w2v2cokBizEOYCRdawF-yLSLZd1tcVBQSLFjPZxUnHmWubXZz44LVi2LnhZ8Ekg8uRQiOyROp1ZslEb05T-lxnzsPppTbT5NxD0H_uGDKxyiOIoQk1qGezNIiLC2hs35rEWeH7f5ZyY3OUrEmLOmtUxK9_zZcNxBnY4PmZPiCWK1sB069VWWmt65TmRF78B5dVE4nyNy_KREVm40?></g></svg>