<svg xmlns="http://www.w3.org/2000/svg" xmlns:xlink="http://www.w3.org/1999/xlink" version="1.1" class="marks" width="1114" height="437" viewBox="0 0 1114 437"><rect width="1114" height="437" fill="#FAFAFA"/><g fill="none" stroke-miterlimit="10" transform="translate(125,57)"><g class="mark-group role-frame root" role="graphics-object" aria-roledescription="group mark container"><g transform="translate(0,0)"><path class="background" aria-hidden="true" d="M0.5,0.5h540v340h-540Z"/><g><g class="mark-rect role-mark layer_0_marks" role="graphics-object" aria-roledescription="rect mark container"><path aria-label="depth: prompt; zone: frozen workflow" role="graphics-symbol" aria-roledescription="rect mark" d="M0,0h180v340h-180Z" fill="#585858" opacity="0.16"/><path aria-label="depth: scaffold; zone: workflows change here" role="graphics-symbol" aria-roledescription="rect mark" d="M180,0h180v340h-180Z" fill="#00BAC6" opacity="0.16"/><path aria-label="depth: weights change; zone: weights change here" role="graphics-symbol" aria-roledescription="rect mark" d="M360,0h180v340h-180Z" fill="#005F7F" opacity="0.16"/></g><g class="mark-rect role-mark layer_1_marks" role="graphics-object" aria-roledescription="rect mark container"><path aria-label="depth: prompt; autonomy: baseline; role: host" role="graphics-symbol" aria-roledescription="rect mark" d="M3,255L177,255C178.655745073482,255,180,256.344254926518,180,258L180,337C180,338.655745073482,178.655745073482,340,177,340L3,340C1.344254926518,340,0,338.655745073482,0,337L0,258C0,256.344254926518,1.344254926518,255,3,255Z" fill="#00BAC6" stroke="#FAFAFA" stroke-width="2.5"/><path aria-label="depth: prompt; autonomy: HITL; role: app" role="graphics-symbol" aria-roledescription="rect mark" d="M3,170L177,170C178.655745073482,170,180,171.344254926518,180,173L180,252C180,253.655745073482,178.655745073482,255,177,255L3,255C1.344254926518,255,0,253.655745073482,0,252L0,173C0,171.344254926518,1.344254926518,170,3,170Z" fill="#005F7F" stroke="#FAFAFA" stroke-width="2.5"/><path aria-label="depth: prompt; autonomy: supervised; role: app" role="graphics-symbol" aria-roledescription="rect mark" d="M3,85L177,85C178.655745073482,85,180,86.344254926518,180,88L180,167C180,168.655745073482,178.655745073482,170,177,170L3,170C1.344254926518,170,0,168.655745073482,0,167L0,88C0,86.344254926518,1.344254926518,85,3,85Z" fill="#005F7F" stroke="#FAFAFA" stroke-width="2.5"/><path aria-label="depth: scaffold; autonomy: supervised; role: app" role="graphics-symbol" aria-roledescription="rect mark" d="M183,85L357,85C358.655745073482,85,360,86.344254926518,360,88L360,167C360,168.655745073482,358.655745073482,170,357,170L183,170C181.344254926518,170,180,168.655745073482,180,167L180,88C180,86.344254926518,181.344254926518,85,183,85Z" fill="#005F7F" stroke="#FAFAFA" stroke-width="2.5"/><path aria-label="depth: scaffold; autonomy: autonomous; role: app" role="graphics-symbol" aria-roledescription="rect mark" d="M183,0L357,0C358.655745073482,0,360,1.344254926518,360,3L360,82C360,83.655745073482,358.655745073482,85,357,85L183,85C181.344254926518,85,180,83.655745073482,180,82L180,3C180,1.344254926518,181.344254926518,0,183,0Z" fill="#005F7F" stroke="#FAFAFA" stroke-width="2.5"/><path aria-label="depth: weights change; autonomy: HITL; role: app" role="graphics-symbol" aria-roledescription="rect mark" d="M363,170L537,170C538.655745073482,170,540,171.344254926518,540,173L540,252C540,253.655745073482,538.655745073482,255,537,255L363,255C361.344254926518,255,360,253.655745073482,360,252L360,173C360,171.344254926518,361.344254926518,170,363,170Z" fill="#005F7F" stroke="#FAFAFA" stroke-width="2.5"/><path aria-label="depth: weights change; autonomy: supervised; role: app" role="graphics-symbol" aria-roledescription="rect mark" d="M363,85L537,85C538.655745073482,85,540,86.344254926518,540,88L540,167C540,168.655745073482,538.655745073482,170,537,170L363,170C361.344254926518,170,360,168.655745073482,360,167L360,88C360,86.344254926518,361.344254926518,85,363,85Z" fill="#005F7F" stroke="#FAFAFA" stroke-width="2.5"/><path aria-label="depth: weights change; autonomy: autonomous; role: cloud" role="graphics-symbol" aria-roledescription="rect mark" d="M363,0L537,0C538.655745073482,0,540,1.344254926518,540,3L540,82C540,83.655745073482,538.655745073482,85,537,85L363,85C361.344254926518,85,360,83.655745073482,360,82L360,3C360,1.344254926518,361.344254926518,0,363,0Z" fill="#585858" stroke="#FAFAFA" stroke-width="2.5"/></g><g class="mark-text role-mark layer_2_marks" role="graphics-object" aria-roledescription="text mark container"><text aria-label="depth: prompt; autonomy: baseline; label: L1" role="graphics-symbol" aria-roledescription="text mark" text-anchor="middle" transform="translate(90,301.5)" font-family="sans-serif" font-size="13px" font-weight="bold" fill="#06303a">L1</text><text aria-label="depth: prompt; autonomy: HITL; label: L2" role="graphics-symbol" aria-roledescription="text mark" text-anchor="middle" transform="translate(90,216.5)" font-family="sans-serif" font-size="13px" font-weight="bold" fill="#FFFFFF">L2</text><text aria-label="depth: prompt; autonomy: supervised; label: L3" role="graphics-symbol" aria-roledescription="text mark" text-anchor="middle" transform="translate(90,131.5)" font-family="sans-serif" font-size="13px" font-weight="bold" fill="#FFFFFF">L3</text><text aria-label="depth: scaffold; autonomy: supervised; label: L4" role="graphics-symbol" aria-roledescription="text mark" text-anchor="middle" transform="translate(270,131.5)" font-family="sans-serif" font-size="13px" font-weight="bold" fill="#FFFFFF">L4</text><text aria-label="depth: scaffold; autonomy: autonomous; label: L4·SI" role="graphics-symbol" aria-roledescription="text mark" text-anchor="middle" transform="translate(270,46.5)" font-family="sans-serif" font-size="13px" font-weight="bold" fill="#FFFFFF">L4·SI</text><text aria-label="depth: weights change; autonomy: HITL; label: L5" role="graphics-symbol" aria-roledescription="text mark" text-anchor="middle" transform="translate(450,216.5)" font-family="sans-serif" font-size="13px" font-weight="bold" fill="#FFFFFF">L5</text><text aria-label="depth: weights change; autonomy: supervised; label: L6" role="graphics-symbol" aria-roledescription="text mark" text-anchor="middle" transform="translate(450,131.5)" font-family="sans-serif" font-size="13px" font-weight="bold" fill="#FFFFFF">L6</text><text aria-label="depth: weights change; autonomy: autonomous; label: L7" role="graphics-symbol" aria-roledescription="text mark" text-anchor="middle" transform="translate(450,46.5)" font-family="sans-serif" font-size="13px" font-weight="bold" fill="#FFFFFF">L7</text></g><g class="mark-text role-mark layer_3_marks" role="graphics-object" aria-roledescription="text mark container"><text aria-label="depth: prompt; z: frozen workflow" role="graphics-symbol" aria-roledescription="text mark" text-anchor="middle" transform="translate(90,-9)" font-family="sans-serif" font-size="11px" font-weight="600" fill="#585858">frozen workflow</text><text aria-label="depth: scaffold; z: workflows change here" role="graphics-symbol" aria-roledescription="text mark" text-anchor="middle" transform="translate(270,-9)" font-family="sans-serif" font-size="11px" font-weight="600" fill="#00BAC6">workflows change here</text><text aria-label="depth: weights change; z: weights change here" role="graphics-symbol" aria-roledescription="text mark" text-anchor="middle" transform="translate(450,-9)" font-family="sans-serif" font-size="11px" font-weight="600" fill="#005F7F">weights change here</text></g><g class="mark-group role-title"><g transform="translate(-120,-52)"><path class="background" aria-hidden="true" d="M0,0h0v0h0Z" pointer-events="none"/><g><g class="mark-text role-title-text" role="graphics-symbol" aria-roledescription="title" aria-label="Title text 'Study Map — capability by encoding depth × autonomy'" pointer-events="none"><text text-anchor="start" transform="translate(0,13)" font-family="sans-serif" font-size="16px" font-weight="700" fill="#005F7F" opacity="1">Study Map — capability by encoding depth × autonomy</text></g><g class="mark-text role-title-subtitle" role="graphics-symbol" aria-roledescription="subtitle" aria-label="Subtitle text 'build-side companion to the funnel · the scaffold→weights split (L4→L5) is where the model's weights start changing'" pointer-events="none"><text text-anchor="start" transform="translate(0,28)" font-family="sans-serif" font-size="12px" fill="#585858" opacity="1">build-side companion to the funnel · the scaffold→weights split (L4→L5) is where the model's weights start changing</text></g></g><path class="foreground" aria-hidden="true" d="" pointer-events="none" display="none"/></g></g><g class="mark-group role-axis" role="graphics-symbol" aria-roledescription="axis" aria-label="X-axis titled 'encoding depth  →' for a discrete scale with 3 values: prompt, scaffold, weights change"><g transform="translate(0.5,340.5)"><path class="background" aria-hidden="true" d="M0,0h0v0h0Z" pointer-events="none"/><g><g class="mark-rule role-axis-tick" pointer-events="none"><line transform="translate(90,0)" x2="0" y2="5" stroke="#B4B3B3" stroke-width="1" opacity="1"/><line transform="translate(270,0)" x2="0" y2="5" stroke="#B4B3B3" stroke-width="1" opacity="1"/><line transform="translate(450,0)" x2="0" y2="5" stroke="#B4B3B3" stroke-width="1" opacity="1"/></g><g class="mark-text role-axis-label" pointer-events="none"><text text-anchor="middle" transform="translate(89.5,16)" font-family="sans-serif" font-size="12px" font-weight="600" fill="#181818" opacity="1">prompt</text><text text-anchor="middle" transform="translate(269.5,16)" font-family="sans-serif" font-size="12px" font-weight="600" fill="#181818" opacity="1">scaffold</text><text text-anchor="middle" transform="translate(449.5,16)" font-family="sans-serif" font-size="12px" font-weight="600" fill="#181818" opacity="1">weights change</text></g><g class="mark-rule role-axis-domain" pointer-events="none"><line transform="translate(0,0)" x2="540" y2="0" stroke="#B4B3B3" stroke-width="1" opacity="1"/></g><g class="mark-text role-axis-title" pointer-events="none"><text text-anchor="middle" transform="translate(270,32)" font-family="sans-serif" font-size="13px" font-weight="600" fill="#181818" opacity="1">encoding depth  →</text></g></g><path class="foreground" aria-hidden="true" d="" pointer-events="none" display="none"/></g></g><g class="mark-group role-axis" role="graphics-symbol" aria-roledescription="axis" aria-label="Y-axis titled 'autonomy  →' for a discrete scale with 4 values: autonomous, supervised, HITL, baseline"><g transform="translate(0.5,0.5)"><path class="background" aria-hidden="true" d="M0,0h0v0h0Z" pointer-events="none"/><g><g class="mark-rule role-axis-tick" pointer-events="none"><line transform="translate(0,42)" x2="-5" y2="0" stroke="#B4B3B3" stroke-width="1" opacity="1"/><line transform="translate(0,127)" x2="-5" y2="0" stroke="#B4B3B3" stroke-width="1" opacity="1"/><line transform="translate(0,212)" x2="-5" y2="0" stroke="#B4B3B3" stroke-width="1" opacity="1"/><line transform="translate(0,297)" x2="-5" y2="0" stroke="#B4B3B3" stroke-width="1" opacity="1"/></g><g class="mark-text role-axis-label" pointer-events="none"><text text-anchor="end" transform="translate(-7,46)" font-family="sans-serif" font-size="12px" font-weight="600" fill="#181818" opacity="1">autonomous</text><text text-anchor="end" transform="translate(-7,131)" font-family="sans-serif" font-size="12px" font-weight="600" fill="#181818" opacity="1">supervised</text><text text-anchor="end" transform="translate(-7,216)" font-family="sans-serif" font-size="12px" font-weight="600" fill="#181818" opacity="1">HITL</text><text text-anchor="end" transform="translate(-7,301)" font-family="sans-serif" font-size="12px" font-weight="600" fill="#181818" opacity="1">baseline</text></g><g class="mark-rule role-axis-domain" pointer-events="none"><line transform="translate(0,0)" x2="0" y2="340" stroke="#B4B3B3" stroke-width="1" opacity="1"/></g><g class="mark-text role-axis-title" pointer-events="none"><text text-anchor="middle" transform="translate(-107,170) rotate(-90) translate(0,-3)" font-family="sans-serif" font-size="13px" font-weight="600" fill="#181818" opacity="1">autonomy  →</text></g></g><path class="foreground" aria-hidden="true" d="" pointer-events="none" display="none"/></g></g></g><path class="foreground" aria-hidden="true" d="" display="none"/></g></g></g></svg>