<svg xmlns="http://www.w3.org/2000/svg" xmlns:xlink="http://www.w3.org/1999/xlink" contentStyleType="text/css" data-diagram-type="DESCRIPTION" height="734px" preserveAspectRatio="none" style="width:996px;height:734px;background:#FAFAFA;" version="1.1" viewBox="0 0 996 734" width="996px" zoomAndPan="magnify"><?plantuml 1.2026.3?><defs><filter height="300%" id="f1pkav52mq8qy7" width="300%" x="-1" y="-1"><feGaussianBlur result="blurOut" stdDeviation="2"/><feColorMatrix in="blurOut" result="blurOut2" type="matrix" values="0 0 0 0 0 0 0 0 0 0 0 0 0 0 0 0 0 0 .4 0"/><feOffset dx="4" dy="4" in="blurOut2" result="blurOut3"/><feBlend in="SourceGraphic" in2="blurOut3" mode="normal"/></filter></defs><g><rect fill="#FAFAFA" height="734" style="stroke:none;stroke-width:1;" width="996" x="0" y="0"/><g class="title" data-source-line="2"><rect fill="none" height="33.5547" style="stroke:#585858;stroke-width:1;" width="397.7539" x="295.7847" y="5"/><text fill="#005F7F" font-family="sans-serif" font-size="20" font-weight="700" lengthAdjust="spacing" textLength="387.7539" x="300.7847" y="29.3359">Harness trajectory flywheel (L4 &#8594; L6)</text></g><!--entity HARNESS--><g class="entity" data-qualified-name="HARNESS" data-source-line="12" id="ent0002"><rect fill="#005F7F" filter="url(#f1pkav52mq8qy7)" height="69.4648" rx="6" ry="6" style="stroke:#00BAC6;stroke-width:0.5;" width="213.0537" x="578.99" y="51.5547"/><text fill="#FAFAFA" font-family="sans-serif" font-size="14" font-style="italic" lengthAdjust="spacing" textLength="40.0244" x="665.5046" y="75.0898">&#171;app&#187;</text><text fill="#FAFAFA" font-family="sans-serif" font-size="14" lengthAdjust="spacing" textLength="84.3623" x="643.3357" y="91.5781">Harness (L4)</text><text fill="#FAFAFA" font-family="sans-serif" font-size="14" lengthAdjust="spacing" textLength="193.0537" x="588.99" y="108.0664">(agent runs tasks with tools)</text></g><!--entity TRAJ--><g class="entity" data-qualified-name="TRAJ" data-source-line="13" id="ent0003"><path d="M484.09,208.0147 C484.09,198.0147 577.5226,198.0147 577.5226,198.0147 C577.5226,198.0147 670.9552,198.0147 670.9552,208.0147 L670.9552,266.4795 C670.9552,276.4795 577.5226,276.4795 577.5226,276.4795 C577.5226,276.4795 484.09,276.4795 484.09,266.4795 L484.09,208.0147" fill="#E5E4E4" filter="url(#f1pkav52mq8qy7)" style="stroke:#585858;stroke-width:0.5;"/><path d="M484.09,208.0147 C484.09,218.0147 577.5226,218.0147 577.5226,218.0147 C577.5226,218.0147 670.9552,218.0147 670.9552,208.0147" fill="none" style="stroke:#585858;stroke-width:0.5;"/><text fill="#181818" font-family="sans-serif" font-size="14" font-style="italic" lengthAdjust="spacing" textLength="32.293" x="561.3761" y="235.5498">&#171;db&#187;</text><text fill="#181818" font-family="sans-serif" font-size="14" lengthAdjust="spacing" textLength="107.3516" x="523.8468" y="252.0381">Trajectory store</text><text fill="#181818" font-family="sans-serif" font-size="14" lengthAdjust="spacing" textLength="166.8652" x="494.09" y="268.5264">(recorded tool-use runs)</text></g><!--entity CURATE--><g class="entity" data-qualified-name="CURATE" data-source-line="14" id="ent0004"><rect fill="#005F7F" filter="url(#f1pkav52mq8qy7)" height="69.4648" rx="6" ry="6" style="stroke:#00BAC6;stroke-width:0.5;" width="209.9365" x="367.55" y="353.4847"/><text fill="#FAFAFA" font-family="sans-serif" font-size="14" font-style="italic" lengthAdjust="spacing" textLength="40.0244" x="452.5061" y="377.0198">&#171;app&#187;</text><text fill="#FAFAFA" font-family="sans-serif" font-size="14" lengthAdjust="spacing" textLength="189.9365" x="377.55" y="393.5081">Batch-generate + compress</text><text fill="#FAFAFA" font-family="sans-serif" font-size="14" lengthAdjust="spacing" textLength="158.334" x="393.3513" y="409.9964">(curate &#183; dedup &#183; distill)</text></g><!--entity TRAIN--><g class="entity" data-qualified-name="TRAIN" data-source-line="15" id="ent0005"><rect fill="#005F7F" filter="url(#f1pkav52mq8qy7)" height="69.4648" rx="6" ry="6" style="stroke:#00BAC6;stroke-width:0.5;" width="197.0371" x="7" y="500.8347"/><text fill="#FAFAFA" font-family="sans-serif" font-size="14" font-style="italic" lengthAdjust="spacing" textLength="40.0244" x="85.5063" y="524.3698">&#171;app&#187;</text><text fill="#FAFAFA" font-family="sans-serif" font-size="14" lengthAdjust="spacing" textLength="119.5605" x="45.7383" y="540.8581">Post-training (L6)</text><text fill="#FAFAFA" font-family="sans-serif" font-size="14" lengthAdjust="spacing" textLength="177.0371" x="17" y="557.3464">(SFT / RFT on trajectories)</text></g><!--entity MODEL--><g class="entity" data-qualified-name="MODEL" data-source-line="16" id="ent0006"><rect fill="#005F7F" filter="url(#f1pkav52mq8qy7)" height="69.4648" rx="6" ry="6" style="stroke:#00BAC6;stroke-width:0.5;" width="215.5146" x="323.76" y="648.1947"/><text fill="#FAFAFA" font-family="sans-serif" font-size="14" font-style="italic" lengthAdjust="spacing" textLength="40.0244" x="411.5051" y="671.7298">&#171;app&#187;</text><text fill="#FAFAFA" font-family="sans-serif" font-size="14" lengthAdjust="spacing" textLength="195.5146" x="333.76" y="688.2181">Next-gen tool-calling model</text><text fill="#FAFAFA" font-family="sans-serif" font-size="14" lengthAdjust="spacing" textLength="121.8506" x="370.592" y="704.7064">(updated weights)</text></g><g class="entity" data-qualified-name="GMN12" data-source-line="25" id="ent0013"><path d="M239.37,499.9447 L239.37,571.1869 A0,0 0 0 0 239.37,571.1869 L705.6771,571.1869 A0,0 0 0 0 705.6771,571.1869 L705.6771,509.9447 L695.6771,499.9447 L476.52,499.9447 L472.52,423.2947 L468.52,499.9447 L239.37,499.9447 A0,0 0 0 0 239.37,499.9447" fill="#E5E4E4" filter="url(#f1pkav52mq8qy7)" style="stroke:#B4B3B3;stroke-width:0.5;"/><path d="M695.6771,499.9447 L695.6771,509.9447 L705.6771,509.9447 L695.6771,499.9447" fill="#E5E4E4" style="stroke:#B4B3B3;stroke-width:0.5;"/><text fill="#181818" font-family="sans-serif" font-size="13" lengthAdjust="spacing" textLength="23.5308" x="245.37" y="517.513">The</text><text fill="#181818" font-family="sans-serif" font-size="13" font-weight="700" lengthAdjust="spacing" textLength="125.1694" x="273.014" y="517.513">L4 &#8594; L5/L6 bridge</text><text fill="#181818" font-family="sans-serif" font-size="13" lengthAdjust="spacing" textLength="214.9634" x="398.1835" y="517.513">: the frozen-weight harness is the</text><text fill="#181818" font-family="sans-serif" font-size="13" font-style="italic" lengthAdjust="spacing" textLength="73.417" x="617.2601" y="517.513">data source</text><text fill="#181818" font-family="sans-serif" font-size="13" lengthAdjust="spacing" textLength="424.7344" x="255.6564" y="532.8236">for post-training. Each model generation is trained on the previous</text><text fill="#181818" font-family="sans-serif" font-size="13" lengthAdjust="spacing" textLength="397.522" x="269.2626" y="548.1341">generation's tool-use trajectories &#8212; this is where weights start</text><text fill="#181818" font-family="sans-serif" font-size="13" lengthAdjust="spacing" textLength="412.8008" x="261.6232" y="563.4447">changing (unlike the L4 self-improving loops, which stay frozen).</text></g><!--link HARNESS to TRAJ--><g class="link" data-entity-1="ent0002" data-entity-2="ent0003" data-link-type="dependency" data-source-line="18" id="lnk7"><path d="M642.31,121.4647 C632.7,130.3947 623.12,140.4947 615.52,151.0147 C605.36,165.0647 599.3278,176.7098 593.0978,191.9698" fill="none" id="HARNESS-to-TRAJ" style="stroke:#585858;stroke-width:2;"/><polygon fill="#585858" points="590.83,197.5247,597.935,190.7042,592.7199,192.8956,590.5285,187.6804,590.83,197.5247" style="stroke:#585858;stroke-width:2;"/><text fill="#181818" font-family="sans-serif" font-size="13" lengthAdjust="spacing" textLength="115.832" x="616.52" y="164.583">record trajectories</text></g><!--link TRAJ to CURATE--><g class="link" data-entity-1="ent0003" data-entity-2="ent0004" data-link-type="dependency" data-source-line="19" id="lnk8"><path d="M550.48,276.6147 C533.83,300.2347 516.1266,325.3404 500.0566,348.1404" fill="none" id="TRAJ-to-CURATE" style="stroke:#818D00;stroke-width:2;"/><polygon fill="#818D00" points="496.6,353.0447,505.0545,347.9927,499.4805,348.9578,498.5155,343.3839,496.6,353.0447" style="stroke:#818D00;stroke-width:2;"/><text fill="#181818" font-family="sans-serif" font-size="13" lengthAdjust="spacing" textLength="108.0688" x="529.17" y="320.053">batch &#183; compress</text></g><!--link CURATE to TRAIN--><g class="link" data-entity-1="ent0004" data-entity-2="ent0005" data-link-type="dependency" data-source-line="20" id="lnk9"><path d="M386.47,423.2947 C327.79,446.5347 255.9485,474.9955 197.2385,498.2455" fill="none" id="CURATE-to-TRAIN" style="stroke:#585858;stroke-width:2;"/><polygon fill="#585858" points="191.66,500.4547,201.5005,500.8599,196.3087,498.6137,198.555,493.4219,191.66,500.4547" style="stroke:#585858;stroke-width:2;"/><text fill="#181818" font-family="sans-serif" font-size="13" lengthAdjust="spacing" textLength="71.9634" x="311.99" y="466.513">training set</text></g><!--link TRAIN to MODEL--><g class="link" data-entity-1="ent0005" data-entity-2="ent0006" data-link-type="dependency" data-source-line="21" id="lnk10"><path d="M181.95,570.6447 C234.08,593.8947 297.37,622.1115 349.52,645.3615" fill="none" id="TRAIN-to-MODEL" style="stroke:#585858;stroke-width:2;"/><polygon fill="#585858" points="355,647.8047,348.4087,640.4866,350.4333,645.7687,345.1511,647.7933,355,647.8047" style="stroke:#585858;stroke-width:2;"/><text fill="#181818" font-family="sans-serif" font-size="13" lengthAdjust="spacing" textLength="112.4043" x="289.04" y="614.763">fine-tune weights</text></g><!--link MODEL to HARNESS--><g class="link" data-entity-1="ent0006" data-entity-2="ent0002" data-link-type="dependency" data-source-line="22" id="lnk11"><path d="M539.5,677.3847 C634.74,666.8847 758.52,634.4147 758.52,536.5647 C758.52,236.2547 758.52,236.2547 758.52,236.2547 C758.52,197.1247 754.02,186.0047 736.52,151.0147 C731.32,140.6247 727.9412,135.0614 720.6912,125.8914" fill="none" id="MODEL-to-HARNESS" style="stroke:#585858;stroke-width:2;"/><polygon fill="#585858" points="716.97,121.1847,719.414,130.7255,720.071,125.1069,725.6896,125.7639,716.97,121.1847" style="stroke:#585858;stroke-width:2;"/><text fill="#181818" font-family="sans-serif" font-size="13" lengthAdjust="spacing" textLength="220.8032" x="759.52" y="393.283">deploy back as new base (flywheel)</text></g><?plantuml-src RLNDZjis4BxhAIQ-n7OZAMcx2rHO170J1vl0woHUBtefK53Ks6AM8WMIMgzxwgaFKFHTSi-Zv4aof2HBRkg3BCd3Rxxlcny_4OhBfa0edQjjbgQ67PAzS6MJDnODrygXSWdNLLeR_O0wvYmL1RqJxfXMJAZkVL8tbOpehKIuPaQXjU0C-uJSQNE4dJmUIaG9qzNFyFNlVs1rEOkUmWTMeydWZJ2uu0w-_lKlRFM1cG9MJEqRjaTOx2aPHIYCNQE4siDqrpqWh6uiQ0Kin9pI2RGU_6wpoW1EofXv50-9DlkKvJRzyQSNpvFd5x-ykFW-ijKVHAzrOpTeaHbUfYMQ2ctSPWEOOfNhGbJ-oJFFcUFbM3J5eM5E4CCVWD1gGwxGaoUtmWUK6LpIxLexfFItkZ7SwnCMQcQSF08xt7ip4jYMI006GvxlrGP7ToEBV1Z1S8bCoIFbw3vCyP9W2iYFlUazE5LKDQGM9cLRlfZPk62EnTOJmybGGwOAS7Hea3fac8zqpi4wh84Hx-lMEkgLek4kjZLoiHCyGFaJsWfl0gCJp14_pcgM2qbD1dhdamqP3DRw6IZjABhGlF7-qmbV8SBWhZ7u30vKGee1IsvGHtAcj1ASIMZ5954KiYhlvAJlL-hDsUzgslfh6aKTpEozRS6SrjBE9Z1yc8NhnMQzlBs5gojMrozVHjwld5a4c6o7Fh1qHG8sI3KiYAl7Ycc-Gf8pJ0-wtIpU-Tkhgo8dp17HNts7nLrRuQYf29mtuTsNpq0PcZhS2Ek4b3u1mRwwsoosIpXn7U5-qDR5L4tHpXVD9W7Uljb22XkwKl-UpTRadEpRDVmlwXeVdIVRoYNpfKUlT86Iu9kw29K-eDYNRkm2eTwyVxrSZL2ZtkZ5PlF-jpzkGixEfmnQNyyuHhs9xO6FTykxPUz0raqgETJx5_Nc_0VVVsLmSiQYYth1uyYERWR3PkfaHRsISNWl9gDIrL8VYG-_zx8L7Y2qpxIVjLaKKQSZvDevNVbPQ9b64CPsFk_NwKMwkeJSY6AFytaMndDdz9-eufO9T5FjruB_CKrzhtRZaAQ4jzC6wd4Z9B1aP5Ces7YN2TiwGiNpdK5WvE63eDr1A4FSKplq-VcoekNaIX6ea4XpCiiFlt44malQ_g4L6oN5FOOafDIYtCMYylyu_bUfTMrfraj1DEdiiPCyIoAalUAD-mO0?></g></svg>