<svg xmlns="http://www.w3.org/2000/svg" xmlns:xlink="http://www.w3.org/1999/xlink" contentStyleType="text/css" data-diagram-type="DESCRIPTION" height="537px" preserveAspectRatio="none" style="width:726px;height:537px;background:#FAFAFA;" version="1.1" viewBox="0 0 726 537" width="726px" zoomAndPan="magnify"><?plantuml 1.2026.3?><defs><filter height="300%" id="fu9fdnghf2ic2" width="300%" x="-1" y="-1"><feGaussianBlur result="blurOut" stdDeviation="2"/><feColorMatrix in="blurOut" result="blurOut2" type="matrix" values="0 0 0 0 0 0 0 0 0 0 0 0 0 0 0 0 0 0 .4 0"/><feOffset dx="4" dy="4" in="blurOut2" result="blurOut3"/><feBlend in="SourceGraphic" in2="blurOut3" mode="normal"/></filter></defs><g><rect fill="#FAFAFA" height="537" style="stroke:none;stroke-width:1;" width="726" x="0" y="0"/><g class="title" data-source-line="2"><rect fill="none" height="33.5547" style="stroke:#585858;stroke-width:1;" width="443.8281" x="137.6303" y="5"/><text fill="#005F7F" font-family="sans-serif" font-size="20" font-weight="700" lengthAdjust="spacing" textLength="433.8281" x="142.6303" y="29.3359">Reinforcement Fine-Tuning Pipeline (RFT)</text></g><!--entity P--><g class="entity" data-qualified-name="P" data-source-line="8" id="ent0002"><path d="M394.66,60.5547 C394.66,50.5547 451.5238,50.5547 451.5238,50.5547 C451.5238,50.5547 508.3875,50.5547 508.3875,60.5547 L508.3875,102.5313 C508.3875,112.5313 451.5238,112.5313 451.5238,112.5313 C451.5238,112.5313 394.66,112.5313 394.66,102.5313 L394.66,60.5547" fill="#E5E4E4" filter="url(#fu9fdnghf2ic2)" style="stroke:#585858;stroke-width:0.5;"/><path d="M394.66,60.5547 C394.66,70.5547 451.5238,70.5547 451.5238,70.5547 C451.5238,70.5547 508.3875,70.5547 508.3875,60.5547" fill="none" style="stroke:#585858;stroke-width:0.5;"/><text fill="#181818" font-family="sans-serif" font-size="14" font-style="italic" lengthAdjust="spacing" textLength="32.293" x="435.3773" y="88.0898">&#171;db&#187;</text><text fill="#181818" font-family="sans-serif" font-size="14" lengthAdjust="spacing" textLength="93.7275" x="404.66" y="104.5781">Task prompts</text></g><!--entity M--><g class="entity" data-qualified-name="M" data-source-line="9" id="ent0003"><rect fill="#005F7F" filter="url(#fu9fdnghf2ic2)" height="52.9766" rx="6" ry="6" style="stroke:#00BAC6;stroke-width:0.5;" width="97.4785" x="402.78" y="189.5347"/><text fill="#FAFAFA" font-family="sans-serif" font-size="14" font-style="italic" lengthAdjust="spacing" textLength="40.0244" x="431.5071" y="213.0698">&#171;app&#187;</text><text fill="#FAFAFA" font-family="sans-serif" font-size="14" lengthAdjust="spacing" textLength="77.4785" x="412.78" y="229.5581">Base model</text></g><!--entity GR--><g class="entity" data-qualified-name="GR" data-source-line="10" id="ent0004"><rect fill="#005F7F" filter="url(#fu9fdnghf2ic2)" height="69.4648" rx="6" ry="6" style="stroke:#00BAC6;stroke-width:0.5;" width="203.2441" x="137.9" y="319.5047"/><text fill="#FAFAFA" font-family="sans-serif" font-size="14" font-style="italic" lengthAdjust="spacing" textLength="40.0244" x="219.5099" y="343.0398">&#171;app&#187;</text><text fill="#FAFAFA" font-family="sans-serif" font-size="14" lengthAdjust="spacing" textLength="113.75" x="182.6471" y="359.5281">Grader functions</text><text fill="#FAFAFA" font-family="sans-serif" font-size="14" lengthAdjust="spacing" textLength="183.2441" x="147.9" y="376.0164">(code-based + LLM-judge)</text></g><!--entity RL--><g class="entity" data-qualified-name="RL" data-source-line="11" id="ent0005"><rect fill="#005F7F" filter="url(#fu9fdnghf2ic2)" height="52.9766" rx="6" ry="6" style="stroke:#00BAC6;stroke-width:0.5;" width="106.1123" x="526.47" y="467.4547"/><text fill="#FAFAFA" font-family="sans-serif" font-size="14" font-style="italic" lengthAdjust="spacing" textLength="40.0244" x="559.5139" y="490.9898">&#171;app&#187;</text><text fill="#FAFAFA" font-family="sans-serif" font-size="14" lengthAdjust="spacing" textLength="86.1123" x="536.47" y="507.4781">RL optimizer</text></g><!--entity OUT--><g class="entity" data-qualified-name="OUT" data-source-line="12" id="ent0006"><rect fill="#005F7F" filter="url(#fu9fdnghf2ic2)" height="52.9766" rx="6" ry="6" style="stroke:#00BAC6;stroke-width:0.5;" width="151.6123" x="375.72" y="327.7547"/><text fill="#FAFAFA" font-family="sans-serif" font-size="14" font-style="italic" lengthAdjust="spacing" textLength="40.0244" x="431.5139" y="351.2898">&#171;app&#187;</text><text fill="#FAFAFA" font-family="sans-serif" font-size="14" lengthAdjust="spacing" textLength="131.6123" x="385.72" y="367.7781">Post-trained model</text></g><g class="entity" data-qualified-name="GMN12" data-source-line="21" id="ent0013"><path d="M6,465.9747 L6,521.9063 A0,0 0 0 0 6,521.9063 L473.0435,521.9063 A0,0 0 0 0 473.0435,521.9063 L473.0435,475.9747 L463.0435,465.9747 L243.52,465.9747 L239.52,389.2747 L235.52,465.9747 L6,465.9747 A0,0 0 0 0 6,465.9747" fill="#E5E4E4" filter="url(#fu9fdnghf2ic2)" style="stroke:#B4B3B3;stroke-width:0.5;"/><path d="M463.0435,465.9747 L463.0435,475.9747 L473.0435,475.9747 L463.0435,465.9747" fill="#E5E4E4" style="stroke:#B4B3B3;stroke-width:0.5;"/><text fill="#181818" font-family="sans-serif" font-size="13" lengthAdjust="spacing" textLength="259.3652" x="28.2659" y="483.543">Productized RL post-training: you supply</text><text fill="#181818" font-family="sans-serif" font-size="13" font-weight="700" lengthAdjust="spacing" textLength="111.6235" x="291.7444" y="483.543">grader functions</text><text fill="#181818" font-family="sans-serif" font-size="13" lengthAdjust="spacing" textLength="34.2964" x="407.4812" y="483.543">(code</text><text fill="#181818" font-family="sans-serif" font-size="13" lengthAdjust="spacing" textLength="446.0435" x="12" y="498.8536">checks + LLM-judge); the pipeline optimizes the base model's weights</text><text fill="#181818" font-family="sans-serif" font-size="13" lengthAdjust="spacing" textLength="86.3154" x="191.864" y="514.1641">against them.</text></g><!--link P to M--><g class="link" data-entity-1="ent0002" data-entity-2="ent0003" data-link-type="dependency" data-source-line="14" id="lnk7"><path d="M451.52,112.9347 C451.52,136.0047 451.52,161.3747 451.52,183.2347" fill="none" id="P-to-M" style="stroke:#585858;stroke-width:2;"/><polygon fill="#585858" points="451.52,189.2347,455.52,180.2347,451.52,184.2347,447.52,180.2347,451.52,189.2347" style="stroke:#585858;stroke-width:2;"/><text fill="#181818" font-family="sans-serif" font-size="13" lengthAdjust="spacing" textLength="97.6016" x="452.52" y="156.103">sample rollouts</text></g><!--link M to GR--><g class="link" data-entity-1="ent0003" data-entity-2="ent0004" data-link-type="dependency" data-source-line="15" id="lnk8"><path d="M411.15,242.9647 C377.51,264.5747 334.378,292.2916 297.628,315.9016" fill="none" id="M-to-GR" style="stroke:#585858;stroke-width:2;"/><polygon fill="#585858" points="292.58,319.1447,302.3141,317.6454,296.7867,316.4421,297.99,310.9147,292.58,319.1447" style="stroke:#585858;stroke-width:2;"/><text fill="#181818" font-family="sans-serif" font-size="13" lengthAdjust="spacing" textLength="33.833" x="365.51" y="286.073">score</text></g><!--link GR to RL--><g class="link" data-entity-1="ent0004" data-entity-2="ent0005" data-link-type="dependency" data-source-line="16" id="lnk9"><path d="M324,389.4547 C387.23,415.0647 466.2385,447.063 520.4285,469.003" fill="none" id="GR-to-RL" style="stroke:#818D00;stroke-width:2;"/><polygon fill="#818D00" points="525.99,471.2547,519.1489,464.1695,521.3554,469.3783,516.1467,471.5848,525.99,471.2547" style="stroke:#818D00;stroke-width:2;"/><text fill="#181818" font-family="sans-serif" font-size="13" lengthAdjust="spacing" textLength="43.2593" x="430.88" y="432.543">reward</text></g><!--link RL to M--><g class="link" data-entity-1="ent0005" data-entity-2="ent0003" data-link-type="dependency" data-source-line="17" id="lnk10"><path d="M579.77,467.0147 C578.89,422.6847 571.29,331.4247 526.52,272.5047 C518,261.2847 511.4346,254.8381 500.1146,246.5181" fill="none" id="RL-to-M" style="stroke:#585858;stroke-width:2;"/><polygon fill="#585858" points="495.28,242.9647,500.163,251.5178,499.3089,245.9258,504.9008,245.0717,495.28,242.9647" style="stroke:#585858;stroke-width:2;"/><text fill="#181818" font-family="sans-serif" font-size="13" lengthAdjust="spacing" textLength="136.9888" x="573.1" y="359.313">update weights (loop)</text></g><!--link M to OUT--><g class="link" data-entity-1="ent0003" data-entity-2="ent0006" data-link-type="dependency" data-source-line="18" id="lnk11"><path d="M451.52,242.9647 C451.52,267.2047 451.52,297.1847 451.52,321.3947" fill="none" id="M-to-OUT" style="stroke:#585858;stroke-width:1;stroke-dasharray:1,3;"/><polygon fill="#585858" points="451.52,327.3947,455.52,318.3947,451.52,322.3947,447.52,318.3947,451.52,327.3947" style="stroke:#585858;stroke-width:1;"/><text fill="#181818" font-family="sans-serif" font-size="13" lengthAdjust="spacing" textLength="65.5332" x="452.52" y="286.073">converged</text></g><?plantuml-src VLFBRXCn5DtxAoxPD0dC30rg5qDLAOYsgfGqOPGA5aZ8iMycfZEsvKUYTDMFu0lv4gwdDALGEfknx-ESSnz-fRHeeaHOXs1zMHIER_DQXNLSHezE61rGXroOjh3ERD1aWXTAaas5NT5ofN_RSnlRXf6rGQXGwPLn0bkAWtEbCLj4hNGDSsMneJlqg_F5W1t0HoDA09XPrEDB82FylFkn5sCR7WYepGtvkUfaI2DyKKVIu0lt9r6sIaIX8oBaERVeoiIULOVG9oVN0a5f7z9Xy0Qu-w8svUZexRlyy7XqDAAa2MwmAU4uvQUokfoIacJqmUrWoNsddp790qytWDw2-nkWBhGs-1xyz-CUvkb_SYANfwUCQh56fmRrFYISraXiNaZl0ARt0DpQfmWNZajqi8fQ16Mq_whxWl2of532QvXCfjdtA6iSz1BCHVKSI3K1OuDgrIswtiiwAFHP7NFZGnOShGNHlb0HGSok5uyGZ3ephghPvs_JyULL5v9ABS7prj96ETCq9WRFfl_4KIqfJXY7ZCxtta_NPzTdoPk4bk1movraT7cM95gQ9i8MLRqE7lgDCNRmI3MRBovdL-D99xa4UXCRT3LAnhIXjAK9mRHWLYI5GTeR6MaAjzG18hJxZj1Qbh0p4Noqjjd1S5Z_DRNX4Bgn4OfOexZnJoRt7i8QmJwye8TH-SwytA_GWNyeX61upTF2fv0sPwWb9Cc_0000?></g></svg>