<svg xmlns="http://www.w3.org/2000/svg" xmlns:xlink="http://www.w3.org/1999/xlink" contentStyleType="text/css" data-diagram-type="DESCRIPTION" height="958px" preserveAspectRatio="none" style="width:657px;height:958px;background:#FAFAFA;" version="1.1" viewBox="0 0 657 958" width="657px" zoomAndPan="magnify"><?plantuml 1.2026.6?><defs><filter height="300%" id="fwkod88zdjchr" width="300%" x="-1" y="-1"><feGaussianBlur result="blurOut" stdDeviation="2"/><feColorMatrix in="blurOut" result="blurOut2" type="matrix" values="0 0 0 0 0 0 0 0 0 0 0 0 0 0 0 0 0 0 .4 0"/><feOffset dx="4" dy="4" in="blurOut2" result="blurOut3"/><feBlend in="SourceGraphic" in2="blurOut3" mode="normal"/></filter></defs><g><rect fill="#FAFAFA" height="958" style="stroke:none;stroke-width:1;" width="657" x="0" y="0"/><g class="title" data-source-line="231"><rect fill="none" height="33.2813" style="stroke:#585858;stroke-width:1;" width="607.5488" x="21.566" y="5"/><text fill="#005F7F" font-family="sans-serif" font-size="20" font-weight="700" lengthAdjust="spacing" textLength="597.5488" x="26.566" y="28.5645">Corrective RAG (CRAG) &#8212; Retrieve, Evaluate, Correct</text></g><!--entity RET--><g class="entity" data-qualified-name="RET" data-source-line="236" id="ent0001"><rect fill="#005F7F" filter="url(#fwkod88zdjchr)" height="52.5938" rx="6" ry="6" style="stroke:#00BAC6;stroke-width:0.5;" width="122.0605" x="161.32" y="188.8713"/><text fill="#FAFAFA" font-family="sans-serif" font-size="14" font-style="italic" lengthAdjust="spacing" textLength="43.4834" x="200.6086" y="211.8664">&#171;app&#187;</text><text fill="#FAFAFA" font-family="sans-serif" font-size="14" lengthAdjust="spacing" textLength="102.0605" x="171.32" y="228.1632">Initial retrieval</text></g><!--entity EVAL--><g class="entity" data-qualified-name="EVAL" data-source-line="237" id="ent0002"><rect fill="#00BAC6" filter="url(#fwkod88zdjchr)" height="68.8906" rx="6" ry="6" style="stroke:#006B70;stroke-width:0.5;" width="153.9229" x="145.39" y="318.4713"/><text fill="#181818" font-family="sans-serif" font-size="14" font-style="italic" lengthAdjust="spacing" textLength="47.3525" x="198.6752" y="341.4664">&#171;host&#187;</text><text fill="#181818" font-family="sans-serif" font-size="14" lengthAdjust="spacing" textLength="133.9229" x="155.39" y="357.7632">Retrieval evaluator</text><text fill="#181818" font-family="sans-serif" font-size="14" lengthAdjust="spacing" textLength="132.1865" x="156.2582" y="374.0601">(relevance quality)</text></g><!--entity KB--><g class="entity" data-qualified-name="KB" data-source-line="238" id="ent0003"><path d="M154.96,60.2813 C154.96,50.2813 222.3511,50.2813 222.3511,50.2813 C222.3511,50.2813 289.7422,50.2813 289.7422,60.2813 L289.7422,101.875 C289.7422,111.875 222.3511,111.875 222.3511,111.875 C222.3511,111.875 154.96,111.875 154.96,101.875 L154.96,60.2813" fill="#E5E4E4" filter="url(#fwkod88zdjchr)" style="stroke:#585858;stroke-width:0.5;"/><path d="M154.96,60.2813 C154.96,70.2813 222.3511,70.2813 222.3511,70.2813 C222.3511,70.2813 289.7422,70.2813 289.7422,60.2813" fill="none" style="stroke:#585858;stroke-width:0.5;"/><text fill="#181818" font-family="sans-serif" font-size="14" font-style="italic" lengthAdjust="spacing" textLength="34.9043" x="204.899" y="87.2764">&#171;db&#187;</text><text fill="#181818" font-family="sans-serif" font-size="14" lengthAdjust="spacing" textLength="114.7822" x="164.96" y="103.5732">Knowledge base</text></g><!--entity WEB--><g class="entity" data-qualified-name="WEB" data-source-line="239" id="ent0004"><path d="M145.9696,602.7781 C149.2696,596.9431 153.7325,598.3444 156.9482,602.8675 C159.9551,597.0871 165.2326,597.4259 168.2218,602.8853 C171.7319,596.778 177.0003,596.6075 180.9225,602.4472 C183.5321,596.4857 188.0636,597.2858 191.5702,601.5095 C194.6519,596.1341 199.5473,595.4796 202.9125,601.2202 C208.103,595.633 212.5018,595.3868 216.4445,602.545 C219.4267,597.1856 224.0579,595.8915 228.4328,600.9411 C231.5639,596.7473 235.0119,596.2594 238.3646,600.6857 C242.6238,593.7434 247.2083,594.2528 251.3119,600.8346 C254.3639,596.2872 259.1766,596.5654 262.0463,601.0514 C266.5215,596.4982 271.2201,595.9695 274.042,602.7945 C278.567,595.9329 282.7828,596.4947 287.0604,603.0349 C289.3683,597.9182 294.1121,597.0421 297.3142,602.137 C301.9241,596.2699 307.0556,596.5572 309.8657,603.8532 C315.5309,606.0168 316.5589,610.4517 312.3201,614.8299 C318.3242,616.7924 320.6822,620.9923 315.9316,626.3317 C320.9907,632.0337 319.6507,636.3973 312.2547,638.2603 C317.7839,642.658 316.325,648.4488 309.6852,650.2354 C306.9403,655.281 302.1358,656.4597 298.5757,651.1063 C294.8359,657.4051 289.2476,657.5426 285.35,651.2724 C282.6048,657.1656 277.5227,657.6357 273.5445,652.6048 C270.4831,656.6093 266.8082,657.3473 263.6779,652.6833 C260.7757,658.3257 254.9114,658.6635 251.7342,652.9732 C247.5845,658.842 243.7844,657.8022 240.1687,652.4241 C236.1631,658.2661 232.346,660.4918 226.9665,653.8807 C223.0139,659.0906 218.7753,659.2992 215.8591,652.8898 C211.4986,658.7014 206.8385,657.5206 203.1552,652.1223 C199.2069,657.8261 195.5373,659.0193 191.0465,652.6671 C187.6071,657.1204 183.4686,656.7873 181.2568,651.4408 C176.5193,656.2322 172.3744,656.4 168.9439,650.0026 C165.3724,655.306 160.3279,655.9031 156.5323,650.2566 C152.3603,654.0556 148.8231,653.4739 145.9702,648.6422 C138.9447,647.7168 136.647,644.4676 140.2495,637.8884 C134.1472,635.4077 134.1592,631.9882 137.6323,627.1695 C132.7791,621.1235 134.7738,616.0625 141.7716,613.6431 C138.4474,609.1027 139.0324,603.3538 145.9696,602.7781" fill="#585858" filter="url(#fwkod88zdjchr)"/><text fill="#FAFAFA" font-family="sans-serif" font-size="14" font-style="italic" lengthAdjust="spacing" textLength="55.043" x="198.8287" y="621.9464">&#171;cloud&#187;</text><text fill="#FAFAFA" font-family="sans-serif" font-size="14" lengthAdjust="spacing" textLength="150.7803" x="150.96" y="638.2432">Web / fallback search</text></g><!--entity REF--><g class="entity" data-qualified-name="REF" data-source-line="240" id="ent0005"><rect fill="#CBDB2A" filter="url(#fwkod88zdjchr)" height="68.8906" rx="6" ry="6" style="stroke:#818D00;stroke-width:0.5;" width="178.6963" x="7" y="733.5513"/><text fill="#181818" font-family="sans-serif" font-size="14" font-style="italic" lengthAdjust="spacing" textLength="57.8594" x="67.4185" y="756.5464">&#171;async&#187;</text><text fill="#181818" font-family="sans-serif" font-size="14" lengthAdjust="spacing" textLength="158.6963" x="17" y="772.8432">Knowledge refinement</text><text fill="#181818" font-family="sans-serif" font-size="14" lengthAdjust="spacing" textLength="73.001" x="59.8477" y="789.1401">strip noise</text></g><!--entity LLM--><g class="entity" data-qualified-name="LLM" data-source-line="241" id="ent0006"><path d="M38.9149,889.5273 C41.5635,882.6689 47.7335,883.1441 51.639,888.183 C54.2238,881.8639 60.2117,882.6952 63.6065,887.2952 C66.8851,881.1457 71.1636,881.1165 75.0627,886.6888 C78.5975,882.774 83.2634,882.6995 85.3127,888.2905 C87.2785,881.7165 92.3626,880.4856 96.7248,886.0346 C100.8377,880.906 105.0107,880.7363 108.4345,886.7583 C112.9227,879.9445 117.082,880.497 121.1439,887.1603 C124.6203,882.5365 128.1562,881.5962 131.5602,887.2339 C135.3144,881.8896 141.0454,882.1213 144.5394,887.5474 C147.7646,881.7554 153.2412,881.6482 156.0298,887.9618 C162.744,890.7222 163.9419,895.0163 158.3952,900.1552 C165.964,902.7917 165.3611,908.0324 160.5876,912.8075 C165.1011,916.5131 163.9652,921.2729 158.3718,922.719 C163.2978,928.7122 161.9373,932.5797 154.4047,934.3081 C151.9406,939.0396 147.7407,939.5428 144.3805,935.3103 C141.5975,941.1557 136.1317,941.7491 132.4818,936.217 C129.4801,941.7013 124.9934,943.2042 120.6698,937.6288 C116.6337,943.2887 112.847,943.3427 108.9145,937.5228 C105.6745,942.1807 101.4686,941.545 98.5307,937.1754 C95.8056,942.7149 89.9758,942.5431 86.7727,937.7177 C83.4505,943.2064 77.4676,943.7629 74.6565,937.2037 C70.7229,942.6312 65.116,943.0186 62.2507,936.1278 C59.2621,940.6703 54.2992,939.5125 52.1605,935.1633 C47.9798,941.9718 43.7757,941.3919 39.5925,935.1657 C34.2034,932.6559 32.7845,928.6419 37.5747,924.2503 C31.3135,920.8479 31.8189,916.5404 36.8296,912.4276 C32.0379,906.7969 31.379,902.3238 39.4063,899.1879 C34.3561,896.3707 34.5617,892.8228 38.9149,889.5273" fill="#585858" filter="url(#fwkod88zdjchr)"/><text fill="#FAFAFA" font-family="sans-serif" font-size="14" font-style="italic" lengthAdjust="spacing" textLength="55.043" x="68.8289" y="907.4364">&#171;cloud&#187;</text><text fill="#FAFAFA" font-family="sans-serif" font-size="14" lengthAdjust="spacing" textLength="101.2607" x="45.72" y="923.7332">LLM generator</text></g><!--entity BAD--><g class="entity" data-qualified-name="BAD" data-source-line="242" id="ent0007"><rect fill="#CB2000" filter="url(#fwkod88zdjchr)" height="52.5938" rx="6" ry="6" style="stroke:#CB2000;stroke-width:0.5;" width="165.7832" x="139.46" y="464.3613"/><text fill="#FAFAFA" font-family="sans-serif" font-size="14" font-style="italic" lengthAdjust="spacing" textLength="51.5771" x="196.563" y="487.3564">&#171;error&#187;</text><text fill="#FAFAFA" font-family="sans-serif" font-size="14" lengthAdjust="spacing" textLength="145.7832" x="149.46" y="503.6532">Low-confidence path</text></g><g class="entity" data-qualified-name="GMN15" data-source-line="253" id="ent0016"><path d="M340.01,470.5213 L340.01,510.7869 A0,0 0 0 0 340.01,510.7869 L642.6809,510.7869 A0,0 0 0 0 642.6809,510.7869 L642.6809,480.5213 L632.6809,470.5213 L456.44,470.5213 L289.53,387.8212 L448.44,470.5213 L340.01,470.5213 A0,0 0 0 0 340.01,470.5213" fill="#E5E4E4" filter="url(#fwkod88zdjchr)" style="stroke:#B4B3B3;stroke-width:0.5;"/><path d="M632.6809,470.5213 L632.6809,480.5213 L642.6809,480.5213 L632.6809,470.5213" fill="#E5E4E4" style="stroke:#B4B3B3;stroke-width:0.5;"/><text fill="#181818" font-family="sans-serif" font-size="13" lengthAdjust="spacing" textLength="261.7075" x="355.9917" y="487.5881">Lightweight evaluator gates generation:</text><text fill="#181818" font-family="sans-serif" font-size="13" lengthAdjust="spacing" textLength="281.6709" x="346.01" y="502.721">trust local KB, mix, or abandon and search.</text></g><!--link KB to RET--><g class="link" data-entity-1="ent0003" data-entity-2="ent0001" data-link-type="dependency" data-source-line="244" id="lnk8"><path d="M222.35,112.0512 C222.35,135.1912 222.35,161.8513 222.35,183.7613" fill="none" id="KB-to-RET" style="stroke:#585858;stroke-width:2;"/><polygon fill="#585858" points="222.35,188.7613,226.35,179.7613,222.35,183.7613,218.35,179.7613,222.35,188.7613" style="stroke:#585858;stroke-width:2;stroke-linejoin:miter;stroke-miterlimit:10;"/><text fill="#181818" font-family="sans-serif" font-size="13" lengthAdjust="spacing" textLength="33.522" x="223.35" y="154.9381">top-k</text></g><!--link RET to EVAL--><g class="link" data-entity-1="ent0001" data-entity-2="ent0002" data-link-type="dependency" data-source-line="245" id="lnk9"><path d="M222.35,241.7012 C222.35,263.2813 222.35,289.3713 222.35,313.0313" fill="none" id="RET-to-EVAL" style="stroke:#585858;stroke-width:2;"/><polygon fill="#585858" points="222.35,318.0313,226.35,309.0313,222.35,313.0313,218.35,309.0313,222.35,318.0313" style="stroke:#585858;stroke-width:2;stroke-linejoin:miter;stroke-miterlimit:10;"/><text fill="#181818" font-family="sans-serif" font-size="13" lengthAdjust="spacing" textLength="69.4751" x="223.35" y="284.5381">score docs</text></g><!--link EVAL to REF--><g class="link" data-entity-1="ent0002" data-entity-2="ent0005" data-link-type="dependency" data-source-line="246" id="lnk10"><path d="M184.13,387.7213 C147.8,423.0613 96.51,482.3013 81.35,546.9513 C66.18,611.6313 77.3966,684.8256 86.8866,728.4256" fill="none" id="EVAL-to-REF" style="stroke:#585858;stroke-width:2;"/><polygon fill="#585858" points="87.95,733.3113,89.9444,723.6664,86.8866,728.4256,82.1274,725.3679,87.95,733.3113" style="stroke:#585858;stroke-width:2;stroke-linejoin:miter;stroke-miterlimit:10;"/><text fill="#181818" font-family="sans-serif" font-size="13" lengthAdjust="spacing" textLength="133.4849" x="82.35" y="560.0181">Correct / Ambiguous</text></g><!--link EVAL to BAD--><g class="link" data-entity-1="ent0002" data-entity-2="ent0007" data-link-type="dependency" data-source-line="247" id="lnk11"><path d="M222.35,387.8212 C222.35,411.5313 222.35,437.7013 222.35,459.2813" fill="none" id="EVAL-to-BAD" style="stroke:#CB2000;stroke-width:2;"/><polygon fill="#CB2000" points="222.35,464.2813,226.35,455.2813,222.35,459.2813,218.35,455.2813,222.35,464.2813" style="stroke:#CB2000;stroke-width:2;stroke-linejoin:miter;stroke-miterlimit:10;"/><text fill="#181818" font-family="sans-serif" font-size="13" lengthAdjust="spacing" textLength="58.1064" x="223.35" y="430.4281">Incorrect</text></g><!--link BAD to WEB--><g class="link" data-entity-1="ent0007" data-entity-2="ent0004" data-link-type="dependency" data-source-line="248" id="lnk12"><path d="M223.12,517.2213 C223.78,539.0413 224.5811,565.4835 225.2711,588.6435" fill="none" id="BAD-to-WEB" style="stroke:#585858;stroke-width:2;"/><polygon fill="#585858" points="225.42,593.6413,229.1502,584.5261,225.2711,588.6435,221.1538,584.7644,225.42,593.6413" style="stroke:#585858;stroke-width:2;stroke-linejoin:miter;stroke-miterlimit:10;"/><text fill="#181818" font-family="sans-serif" font-size="13" lengthAdjust="spacing" textLength="127.5181" x="225.47" y="560.0181">correct via external</text></g><!--link WEB to REF--><g class="link" data-entity-1="ent0004" data-entity-2="ent0005" data-link-type="dependency" data-source-line="249" id="lnk13"><path d="M198.14,656.7913 C177.38,679.2613 152.5421,706.1478 131.0821,729.3878" fill="none" id="WEB-to-REF" style="stroke:#585858;stroke-width:2;"/><polygon fill="#585858" points="127.69,733.0613,136.7344,729.1628,131.0821,729.3878,130.857,723.7355,127.69,733.0613" style="stroke:#585858;stroke-width:2;stroke-linejoin:miter;stroke-miterlimit:10;"/><text fill="#181818" font-family="sans-serif" font-size="13" lengthAdjust="spacing" textLength="122.9604" x="170.13" y="699.6181">supplemental docs</text></g><!--link REF to LLM--><g class="link" data-entity-1="ent0005" data-entity-2="ent0006" data-link-type="dependency" data-source-line="250" id="lnk14"><path d="M96.35,802.7013 C96.35,825.9613 96.35,851.6313 96.35,874.1813" fill="none" id="REF-to-LLM" style="stroke:#585858;stroke-width:2;"/><polygon fill="#585858" points="96.35,879.1813,100.35,870.1813,96.35,874.1813,92.35,870.1813,96.35,879.1813" style="stroke:#585858;stroke-width:2;stroke-linejoin:miter;stroke-miterlimit:10;"/><text fill="#181818" font-family="sans-serif" font-size="13" lengthAdjust="spacing" textLength="104.5713" x="97.35" y="845.5081">cleaned context</text></g><?plantuml-src lLdzRXex5l-Vft2vAnMwVEMhpQKq4X3ILgL9BacsghQhoimO66KOSssJXAqgxKFi4-wJtD-nFSD0e4dKQYSI6OwFZu-FV-VBF7_pKq_XEJjNyaP8zh___9UTnpmnLn_xp4p4LB1I78qdfWoUjo8HAWegB4g2U1xoOImSJuszLNp88iDk8pDfWfMnPuv9i8anCzsirnM_hOqnF1_EjL21J8n8J2sGq_hChbqDU3qAGOlCeZxbKUBfjTby6aFaCLVNBE393TTD1X7CJmj1jpoif3dqdV90ILrXzekIq36GiPmhNQxHFdaiZC6060abaa0qxR3IjMbOOwUIdK2nKveQQQQ5MR78Syr2CUBps43I28p415N2rv37WmbeYdMLe4MdCen6aL2QbOh5gKnaiLXXBruCPHo-U55XzNfaU1m5zNhPob8mQXmbWedfRC8rv4Q9DeA7J8wiaQDaJF_PxOIaXn4VApvbHZA9IICU2Epk9r40HQhLAkiedeHivWrLVS9JUFQtJh_T_O3ZPszOyRUTG_ehWlpftVlBNae-QTCVaTyEsfzPIZwqJqh-kkl91uVqbv7tFBcptzdhx6NaVK_k7VJsU_l50kWVs-zFC-6Dni79gvEY9sTI6erNBty_9dAxVybot9rszwKdVzrPabzsNZKikTljdLvwShTptDbjBycOOFUpStZSQ5XLUeF1sO1bxBkDXfLoSGN-YujK-Ey7UxjWV_xJpZp8eTu2M8if44okwu-r6iAJRmGWVyd7Z2SBbaZuAhaleGmofjm44m9TgmKS0jDcCHD7HwmqiwwZH5XcG2qv8i7IUPq7SSr6W5QBpsQOWMSKAMsgCwxCWe78wapDeG-y3A7W9We4yuy_inAG7vTJANgH12JdpxcO2ymLDuWIrP0saE3ha0VNOoNd06tw-ED1w9gALCn4QcEreHTCcyNSmE-cU9KpeRZ1ReOaXQj5AiPXeXGiU9AA2M3LaEI8EvWbuJ7ccqcaGh-zEeDM8MGj7m_daiQAcJhXq9c6OMsukw5OXCdQW0UVKWcs_dYWBmCooS5HI4MYHZoAvufaX48RDGyCx4FVU38MC8_Ev7WqbkWCVqNGw2mFG2RnWaxlpdZyiLYC38Kf0eaFddQRAQJAXMSWK-JhdlNF1b_Rv-UaetVOzS6BpwTT33gFMnjyTtPnwMQIywuDTljdLySOTD5aRV2uO-tYWyVQeBUMTzkr_VuTyJZ2WT6EA_am7eeWvW1L91CDgp3AKd23EDQP-8lBp_tUsdvVaw3c9vAvnhUwWUryg-hc-Nv1OBdmSOHneEusTNgAC95DvvGF0un58cJ31OipjJ2tHAcFy2WHV-mBrnEA8bopMn77zDzX1hbRKZ6XvuWDDq9ZybY9XGuGknZb9iTM7K9-o6uYSOiuLMDdYGz3v59CX6DH8IMSPYuajM6SJr-pn80I8fgIkmEGY34JXJGDFvaWH2qGASqaD-di_FBzsMcxpnYt25QYYXXcN_HyAkoBiQBaZ4wTnxd9MVpFUIbAcK34Q-vga7jrHFDpi_-uwbtPv6dtOcEEZObGD0chSZI2RJD8LbnuPAYooZaP7ZvuwCYqq8mlentSaoVBWAONSCyf9bzfFaQ1nDfvmtLOqozHPpnmgluai584hnrFzPyUxHM2ph-gHskCsP4i6HsuxhDc1m1MvnbRP6Qs1gDBu5iOCuFc5hU0plXzETKNOnuWxSKH9xENhiNC4C311PZwGawpQo5cx5QgQs2vp5mrjHA7h5csX4NagSrXpoV2pG4pBJzywR4sQckpD5vcO-VjotTE5IIzu3eHMh_PMntjddtyU9OVtrbEjzcgpuSYBjsLMSkMtar_8aUjuT5TgpuyQjKjVMbnFGy22Betp-czVLuul3V5xUV-57zOtLXmD3asC4JaaVgn1N11u-HG0g0eHqypGrMUc0kpYAdL20noS2noB3FuAtnhEuDFbPTmoZRoVJ8bXmi4-N-XW8eCyuuA3FsDDEnRWN1uCU6Xf4Y861DhyTeIgPlfqWwPgymTTPd0_9WjpzrO7uRpL5Ut4Fbx0Hzep69Rb7pBYoKilBQ4Y-ZVWkqsNeCRKORRABZ6x2KwUIw7VDk-gYDVfZXYExM3xRko8XE9NFnjynvTzRHvati_ijR02L64YqEt54DPCqQPjssj7zZpgKlXmq6p5mi2GPMAfXGU22VKVg88GIMSo5nPvTjN6qdeE598RjFO7gCRaWg1oPCHMUxfczjSTkmx-_StiECFyPo78S5ofv4QpwOnwbctQPCjkwBCKiVD062kYNduJ5QaFdmgJzlbRgfCvjQ_NgFx2ZYVK-7_QwsG6pv4GlkXj-rkESGD2puML9a38cx78d3rzGymdIxrU5IJSDGre3q9dFQYu0aeecLSGxjj6PkwDwtaBncU7BDiw_gqaBN9KgaRaiYHegkoUp5yewSkYIkGogA2pubFb6QrSBNKjwTfdqLMUrso39twyNTULiIvlH2X1XVk86z4rWEsMhzDnDtHKPF65lOsSQc8RPsq5V0bSPtIK0b-ZP2UJdSbIwrsbDufXXBA8SULAquY-4ChWUkq0UF6TjfqBOC-0XqGzKkUsLODE38vjPU6izZU6Z9MeokP1_F2PcUzR-tlLgBjJnw1xCtmpKlDeTsAjjSt3xdcmsBxUPa_z8nyA7lG2FcQ2OB3uMFAaGUrNPDgg-XjWcshyqXjCzxlXLRT5vMkp8DtKlwYddJGVijANNoMRQS_G9iReG6iiDuDZ-USGEQvxVqwck_codJ7ZxwoFHzJ1ODwnVwIm7sRUpNeD-bQplzEmDLTT5EJQbpdGrtVtM_ir7OE3W_tmTd7id6JePzOrZF5zmaATKXNwJf5SeT1xpAzWCmpBvKHJdcflYGb9M9yfGkuF-VeqyoYR6Nq_e7UChquB6GPZnK_9F8sfWi6HWJB-w7Zx_GA3alq53-98PfabECnzUS805m54yl-gTTPtYNc5LoALhQ78ODzIJIqdi7p8x_Qe7Uol1ZDhzZlVsHZProfB2jHDgxKbxVLG2OZ-iq5EwVh3ZkXqpvUNYiM2jXOhYqdioASoLdrka3lkI5hhIRJ0LrTXZBG1KjPcNp2CcZ0CEtfC1hFvNo5qtNgf4IJlKy23opwdk-xoNxqouqJTHFnxFQYG4Ft5jNpsSpLppXwgnpHynB9Jf1e-p-wOKhevgnGi1t5K1f3GNDaDraW5nfFpAsWpoMGs1Y-e5Fp0zjDQfhK7E4gbW7M_T2fi6bqLw5xSq0f2T4VKNXskAWLgA6WzVu2?></g></svg>