<svg xmlns="http://www.w3.org/2000/svg" xmlns:xlink="http://www.w3.org/1999/xlink" contentStyleType="text/css" data-diagram-type="DESCRIPTION" height="714px" preserveAspectRatio="none" style="width:867px;height:714px;background:#FAFAFA;" version="1.1" viewBox="0 0 867 714" width="867px" zoomAndPan="magnify"><?plantuml 1.2026.6?><defs><filter height="300%" id="f18qihjbi7xies" width="300%" x="-1" y="-1"><feGaussianBlur result="blurOut" stdDeviation="2"/><feColorMatrix in="blurOut" result="blurOut2" type="matrix" values="0 0 0 0 0 0 0 0 0 0 0 0 0 0 0 0 0 0 .4 0"/><feOffset dx="4" dy="4" in="blurOut2" result="blurOut3"/><feBlend in="SourceGraphic" in2="blurOut3" mode="normal"/></filter></defs><g><rect fill="#FAFAFA" height="714" style="stroke:none;stroke-width:1;" width="867" x="0" y="0"/><g class="title" data-source-line="231"><rect fill="none" height="33.2813" style="stroke:#585858;stroke-width:1;" width="850.166" x="5" y="5"/><text fill="#005F7F" font-family="sans-serif" font-size="20" font-weight="700" lengthAdjust="spacing" textLength="840.166" x="10" y="28.5645">HippoRAG / HippoRAG 2 &#8212; Associative Memory via Personalized PageRank</text></g><!--entity P--><g class="entity" data-qualified-name="P" data-source-line="238" id="ent0001"><rect fill="#005F7F" filter="url(#f18qihjbi7xies)" height="52.5938" rx="6" ry="6" style="stroke:#00BAC6;stroke-width:0.5;" width="142.418" x="134.4739" y="59.4312"/><text fill="#FAFAFA" font-family="sans-serif" font-size="14" font-style="italic" lengthAdjust="spacing" textLength="43.4834" x="183.9412" y="82.4264">&#171;app&#187;</text><text fill="#FAFAFA" font-family="sans-serif" font-size="14" lengthAdjust="spacing" textLength="122.418" x="144.4739" y="98.7232">Passages / triples</text></g><!--entity KG--><g class="entity" data-qualified-name="KG" data-source-line="239" id="ent0002"><path d="M124.9539,207.1713 C124.9539,197.1713 221.6781,197.1713 221.6781,197.1713 C221.6781,197.1713 318.4022,197.1713 318.4022,207.1713 L318.4022,265.0619 C318.4022,275.0619 221.6781,275.0619 221.6781,275.0619 C221.6781,275.0619 124.9539,275.0619 124.9539,265.0619 L124.9539,207.1713" fill="#E5E4E4" filter="url(#f18qihjbi7xies)" style="stroke:#585858;stroke-width:0.5;"/><path d="M124.9539,207.1713 C124.9539,217.1713 221.6781,217.1713 221.6781,217.1713 C221.6781,217.1713 318.4022,217.1713 318.4022,207.1713" fill="none" style="stroke:#585858;stroke-width:0.5;"/><text fill="#181818" font-family="sans-serif" font-size="14" font-style="italic" lengthAdjust="spacing" textLength="34.9043" x="204.2259" y="234.1664">&#171;db&#187;</text><text fill="#181818" font-family="sans-serif" font-size="14" lengthAdjust="spacing" textLength="61.8721" x="190.742" y="250.4632">Open KG</text><text fill="#181818" font-family="sans-serif" font-size="14" lengthAdjust="spacing" textLength="173.4482" x="134.9539" y="266.7601">phrase + passage nodes</text></g><!--entity SEED--><g class="entity" data-qualified-name="SEED" data-source-line="240" id="ent0003"><rect fill="#00BAC6" filter="url(#f18qihjbi7xies)" height="68.8906" rx="6" ry="6" style="stroke:#006B70;stroke-width:0.5;" width="163.2676" x="369.0439" y="51.2813"/><text fill="#181818" font-family="sans-serif" font-size="14" font-style="italic" lengthAdjust="spacing" textLength="47.3525" x="427.0015" y="74.2764">&#171;host&#187;</text><text fill="#181818" font-family="sans-serif" font-size="14" lengthAdjust="spacing" textLength="143.2676" x="379.0439" y="90.5732">Query &#8594; seed nodes</text><text fill="#181818" font-family="sans-serif" font-size="14" lengthAdjust="spacing" textLength="57.333" x="422.0112" y="106.8701">(linking)</text></g><!--entity REC--><g class="entity" data-qualified-name="REC" data-source-line="241" id="ent0004"><rect fill="#CBDB2A" filter="url(#f18qihjbi7xies)" height="68.8906" rx="6" ry="6" style="stroke:#818D00;stroke-width:0.5;" width="189.0527" x="353.1539" y="201.6713"/><text fill="#181818" font-family="sans-serif" font-size="14" font-style="italic" lengthAdjust="spacing" textLength="57.8594" x="418.7506" y="224.6664">&#171;async&#187;</text><text fill="#181818" font-family="sans-serif" font-size="14" lengthAdjust="spacing" textLength="146.0156" x="374.6725" y="240.9632">Recognition memory</text><text fill="#181818" font-family="sans-serif" font-size="14" lengthAdjust="spacing" textLength="169.0527" x="363.1539" y="257.2601">(LLM filter; HippoRAG 2)</text></g><!--entity PPR--><g class="entity" data-qualified-name="PPR" data-source-line="242" id="ent0005"><rect fill="#005F7F" filter="url(#f18qihjbi7xies)" height="52.5938" rx="6" ry="6" style="stroke:#00BAC6;stroke-width:0.5;" width="183.0098" x="356.1739" y="352.0613"/><text fill="#FAFAFA" font-family="sans-serif" font-size="14" font-style="italic" lengthAdjust="spacing" textLength="43.4834" x="425.9371" y="375.0564">&#171;app&#187;</text><text fill="#FAFAFA" font-family="sans-serif" font-size="14" lengthAdjust="spacing" textLength="163.0098" x="366.1739" y="391.3532">Personalized PageRank</text></g><!--entity TOP--><g class="entity" data-qualified-name="TOP" data-source-line="243" id="ent0006"><rect fill="#E5E4E4" filter="url(#f18qihjbi7xies)" height="52.5938" rx="6" ry="6" style="stroke:#585858;stroke-width:0.5;" width="115.8809" x="267.7339" y="490.6213"/><text fill="#181818" font-family="sans-serif" font-size="14" font-style="italic" lengthAdjust="spacing" textLength="34.9043" x="308.2222" y="513.6164">&#171;db&#187;</text><text fill="#181818" font-family="sans-serif" font-size="14" lengthAdjust="spacing" textLength="95.8809" x="277.7339" y="529.9132">Top passages</text></g><!--entity LLM--><g class="entity" data-qualified-name="LLM" data-source-line="244" id="ent0007"><path d="M268.6328,638.9679 C271.16,633.8648 275.9289,634.4125 278.8728,638.5038 C282.1777,632.4938 286.5705,631.0764 291.5335,636.6991 C295.826,630.7842 301.4717,631.9004 304.1603,638.3386 C306.9982,633.2256 310.8293,633.0887 314.4427,637.5015 C318.7181,631.7039 322.8578,631.3765 327.2864,637.3342 C330.1551,631.4464 334.0576,631.4702 338.0437,636.2024 C341.7344,631.3728 346.2642,631.3061 349.5446,636.6656 C353.0411,630.2886 358.3345,631.9364 361.3804,637.1266 C365.7758,631.3926 370.2483,632.1199 373.1114,638.5985 C376.3557,633.6226 382.0635,632.7109 385.2743,638.6359 C392.8575,641.0378 392.7974,645.2097 388.5025,650.7714 C395.875,651.5672 396.9913,655.8617 394.3718,661.9185 C399.2298,667.199 397.614,672.51 390.6066,674.1328 C393.6016,680.133 391.5948,683.9898 384.9534,684.9572 C382.8374,690.324 379.0229,691.9811 374.4732,687.5642 C371.544,693.5182 366.3606,693.4443 362.283,688.8974 C359.6499,694.2658 355.3649,696.207 350.8703,690.8846 C347.7684,696.2984 343.5393,697.3237 339.0736,692.4481 C336.3542,698.1722 330.3946,699.2315 326.2376,694.1569 C322.0671,698.7364 317.4935,698.729 314.3032,693.0199 C309.1408,698.6422 304.5495,696.8668 302.2332,690.22 C297.9313,694.397 292.9953,692.949 291.1137,687.4412 C288.3242,693.1638 283.6673,692.9872 280.6626,687.6446 C275.8063,693.0484 270.7893,692.1317 268.348,685.2282 C261.2773,683.3449 261.1119,678.497 264.7412,673.3615 C258.5058,672.0637 256.7259,667.9448 260.1509,662.5467 C256.0429,656.5219 257.2044,652.1141 264.3084,649.7248 C260.3242,644.4522 262.2288,640.0644 268.6328,638.9679" fill="#585858" filter="url(#f18qihjbi7xies)"/><text fill="#FAFAFA" font-family="sans-serif" font-size="14" font-style="italic" lengthAdjust="spacing" textLength="55.043" x="298.1524" y="657.1864">&#171;cloud&#187;</text><text fill="#FAFAFA" font-family="sans-serif" font-size="14" lengthAdjust="spacing" textLength="103.3799" x="273.9839" y="673.4832">QA reader LLM</text></g><g class="entity" data-qualified-name="GMN16" data-source-line="256" id="ent0017"><path d="M418.6639,481.6513 L418.6639,552.1825 L722.6932,552.1825 L722.6932,491.6513 L712.6932,481.6513 L418.6639,481.6513" fill="#E5E4E4" filter="url(#f18qihjbi7xies)" style="stroke:#B4B3B3;stroke-width:0.5;"/><path d="M712.6932,481.6513 L712.6932,491.6513 L722.6932,491.6513 L712.6932,481.6513" fill="#E5E4E4" style="stroke:#B4B3B3;stroke-width:1;"/><text fill="#181818" font-family="sans-serif" font-size="13" lengthAdjust="spacing" textLength="270.9688" x="430.6942" y="498.7181">Hippocampal-indexing inspiration: PPR as</text><text fill="#181818" font-family="sans-serif" font-size="13" lengthAdjust="spacing" textLength="283.0293" x="424.6639" y="513.851">associative recall. HippoRAG 2 adds denser</text><text fill="#181818" font-family="sans-serif" font-size="13" lengthAdjust="spacing" textLength="274.187" x="429.0851" y="528.9838">passage integration so multi-hop gains do</text><text fill="#181818" font-family="sans-serif" font-size="13" font-weight="700" lengthAdjust="spacing" textLength="24.4004" x="475.5118" y="544.1166">not</text><text fill="#181818" font-family="sans-serif" font-size="13" lengthAdjust="spacing" textLength="152.8008" x="504.0446" y="544.1166">tax simple factual RAG.</text></g><!--link P to KG--><g class="link" data-entity-1="ent0001" data-entity-2="ent0002" data-link-type="dependency" data-source-line="246" id="lnk8"><path d="M202.4839,112.2012 C201.0439,128.0812 200.1739,148.8913 202.6739,167.1713 C204.0139,176.8813 205.0445,182.3285 207.6545,191.8685" fill="none" id="P-to-KG" style="stroke:#585858;stroke-width:2;"/><polygon fill="#585858" points="208.9739,196.6913,210.4572,186.9547,207.6545,191.8685,202.7407,189.0658,208.9739,196.6913" style="stroke:#585858;stroke-width:2;stroke-linejoin:miter;stroke-miterlimit:10;"/><text fill="#181818" font-family="sans-serif" font-size="13" lengthAdjust="spacing" textLength="80.4946" x="203.6739" y="163.2381">offline index</text></g><!--link SEED to KG--><g class="link" data-entity-1="ent0003" data-entity-2="ent0002" data-link-type="dependency" data-source-line="247" id="lnk9"><path d="M398.4239,120.5812 C363.4439,143.2513 321.5202,170.4226 285.1702,193.9726" fill="none" id="SEED-to-KG" style="stroke:#585858;stroke-width:2;"/><polygon fill="#585858" points="280.9739,196.6913,290.7022,195.1547,285.1702,193.9726,286.3524,188.4406,280.9739,196.6913" style="stroke:#585858;stroke-width:2;stroke-linejoin:miter;stroke-miterlimit:10;"/><text fill="#181818" font-family="sans-serif" font-size="13" lengthAdjust="spacing" textLength="81.5801" x="350.8839" y="163.2381">online seeds</text></g><!--link SEED to REC--><g class="link" data-entity-1="ent0003" data-entity-2="ent0004" data-link-type="dependency" data-source-line="248" id="lnk10"><path d="M449.9939,120.4013 C449.5039,144.6013 448.955,172.0923 448.465,196.3223" fill="none" id="SEED-to-REC" style="stroke:#585858;stroke-width:1;stroke-dasharray:1,3;"/><polygon fill="#585858" points="448.3639,201.3213,452.5451,192.404,448.465,196.3223,444.5467,192.2422,448.3639,201.3213" style="stroke:#585858;stroke-width:1;stroke-linejoin:miter;stroke-miterlimit:10;"/><text fill="#181818" font-family="sans-serif" font-size="13" lengthAdjust="spacing" textLength="134.6782" x="450.3539" y="163.2381">keep relevant triples</text></g><!--link REC to PPR--><g class="link" data-entity-1="ent0004" data-entity-2="ent0005" data-link-type="dependency" data-source-line="249" id="lnk11"><path d="M447.6739,270.7113 C447.6739,295.6713 447.6739,324.1913 447.6739,346.9413" fill="none" id="REC-to-PPR" style="stroke:#585858;stroke-width:2;"/><polygon fill="#585858" points="447.6739,351.9413,451.6739,342.9413,447.6739,346.9413,443.6739,342.9413,447.6739,351.9413" style="stroke:#585858;stroke-width:2;stroke-linejoin:miter;stroke-miterlimit:10;"/><text fill="#181818" font-family="sans-serif" font-size="13" lengthAdjust="spacing" textLength="88.4165" x="448.6739" y="318.1281">filtered seeds</text></g><!--link SEED to PPR--><g class="link" data-entity-1="ent0003" data-entity-2="ent0005" data-link-type="dependency" data-source-line="250" id="lnk12"><path d="M532.6839,105.9212 C555.3139,115.3913 577.3039,129.4213 590.6739,150.1713 C633.4739,216.5413 594.9239,260.3213 545.6739,322.0613 C536.1739,333.9713 527.6631,341.2084 514.4431,349.0584" fill="none" id="SEED-to-PPR" style="stroke:#585858;stroke-width:1;stroke-dasharray:1,3;"/><polygon fill="#585858" points="510.1439,351.6113,519.9248,350.4555,514.4431,349.0584,515.8402,343.5768,510.1439,351.6113" style="stroke:#585858;stroke-width:1;stroke-linejoin:miter;stroke-miterlimit:10;"/><text fill="#181818" font-family="sans-serif" font-size="13" lengthAdjust="spacing" textLength="122.0781" x="610.1339" y="240.6881">(HippoRAG 1 path)</text></g><!--link KG to PPR--><g class="link" data-entity-1="ent0002" data-entity-2="ent0005" data-link-type="dependency" data-source-line="251" id="lnk13"><path d="M283.4339,275.4413 C322.5139,299.6913 367.7158,327.7344 402.0958,349.0744" fill="none" id="KG-to-PPR" style="stroke:#585858;stroke-width:2;"/><polygon fill="#585858" points="406.3439,351.7113,400.8068,343.5663,402.0958,349.0744,396.5878,350.3634,406.3439,351.7113" style="stroke:#585858;stroke-width:2;stroke-linejoin:miter;stroke-miterlimit:10;"/><text fill="#181818" font-family="sans-serif" font-size="13" lengthAdjust="spacing" textLength="71.9253" x="355.9239" y="318.1281">graph walk</text></g><!--link PPR to TOP--><g class="link" data-entity-1="ent0005" data-entity-2="ent0006" data-link-type="dependency" data-source-line="252" id="lnk14"><path d="M424.7339,405.0413 C402.9239,429.4613 373.6351,462.2425 351.8551,486.6225" fill="none" id="PPR-to-TOP" style="stroke:#585858;stroke-width:2;"/><polygon fill="#585858" points="348.5239,490.3513,357.503,486.3044,351.8551,486.6225,351.5369,480.9746,348.5239,490.3513" style="stroke:#585858;stroke-width:2;stroke-linejoin:miter;stroke-miterlimit:10;"/><text fill="#181818" font-family="sans-serif" font-size="13" lengthAdjust="spacing" textLength="110.2144" x="398.6039" y="447.7181">ranked passages</text></g><!--link TOP to LLM--><g class="link" data-entity-1="ent0006" data-entity-2="ent0007" data-link-type="dependency" data-source-line="253" id="lnk15"><path d="M325.6739,543.5613 C325.6739,567.5413 325.6739,598.3913 325.6739,623.8613" fill="none" id="TOP-to-LLM" style="stroke:#585858;stroke-width:2;"/><polygon fill="#585858" points="325.6739,628.8613,329.6739,619.8613,325.6739,623.8613,321.6739,619.8613,325.6739,628.8613" style="stroke:#585858;stroke-width:2;stroke-linejoin:miter;stroke-miterlimit:10;"/><text fill="#181818" font-family="sans-serif" font-size="13" lengthAdjust="spacing" textLength="46.9536" x="326.6739" y="595.2581">answer</text></g><!--link PPR to GMN16--><g class="link" data-entity-1="ent0005" data-entity-2="ent0017" data-link-type="association" data-source-line="256" id="lnk18"><path d="M484.8639,405.1313 C496.0739,413.8113 507.9639,424.0213 517.6739,434.6513 C530.5139,448.7113 542.3439,466.1912 551.5539,481.3313" fill="none" id="PPR-GMN16" style="stroke:#585858;stroke-width:1;stroke-dasharray:7,7;"/></g><?plantuml-src lLdhJXjB4lxlf-Zuh1IRWo_S4euXIBPnI1G3ZZ6AeiqgQi-qxH4pqtEwnu0tYhI_zW5M-uJdIVQhxfxnO7009LeZ9QQwghgwkkghgkRbcv_wb5woWPBNGhA__lLVDWXvd5wUzbaw4v5WbJ2Opj8gU4v4B5JWRR8WziAvpyUXi3nrTgBuc0KfkmdIMGkiZBsmJ8BDqZJHhKP3yPlw5ClpyLmBvSau5N5QzsJKICpUDOyt0X-q85qq8Xx4ZbvFvb48bSTSNJ6FnzTSjnXKC2VcWsvuM4Lps1jnJqczoSmlIi96JuPohdIrJkVaeKXJB8Y9K2BsHCiiArsF_3exa-mj33iZqK0pBT8x7dcfcIycV1wcq3G18p715Fy0-hWt0qsnhXAqQIJzO188fLcbN8vaBClbJRQnCPQXlx6noHgD8ELXu3KQLQDBmQbX40icecJ6DVG6iKu5zvcS62S7yPJ-PpSpqku7VAfun5B998Gct1CutKz60GofrMgietZiiyGvglQCJ-d5tphzTlS3hf-zOUNVjlRffmpoftVlHxsC_BPDFqG-6RO_iuoyRpuP-Uks8-_jqqzEtd7apcvdfxEJatSTkRVNs-tjbakWdxRVd-NAcyszjw_VbXqvrz9ildxrnp6Hs_qHAt1tsjrNZlnrQqb-rNdTDEHkjtSsSkHkvxYptLwI8M3EixL_t6mQKth3uVcGvUpRpQRHSd49_ekBJFaVUplRO7_vqyayB4Iz2M0j8aGmfQwxrfgFJBuM2FaHdp8UBrWiaQkKlXHbq17nr9jHq1qU8WuHq-aY4KT7h9AOr572hp94BIKYXQNDEXV4TOC0XuSyII21poHGEgqbNAKB1Y9hC3M7FSWoGC5ru0dcFkxEAeZyi9ffqOlO8pr_piLSG5PS0oLgFXqWngzZxbrDbPmZQBEFknv0LoGoDJEfKsCDVO5O4l8KUHVXgqo4uYbECoOjN2qoDJOcAjw2nvaQ3rxrIO-uXLjY7a8-dGNATyThC5ZbGzVouyAveh5ZReu_jgvXs1lfdX8MGLYduC6_KWcs-d61lWHaqeEha8fKJNWGpXNfy8LErTnBuH_wZSTJ0VVeN8-BnWhTuQy0ZSxo0cGSBkZsRbCNVomKavHWYeB4WQSvPXPIrT8Ba0dvkkVzy-7Nzc10Dhg4NLsy-7pMnQBDk9N5T-SN8oj9oRkosEsVNnvZqQB9ok9nn_Z5WSVAelEMIzkLy_uEF0vmONJYpIAC-y8BEO8gaB66LnXLAQH16EfS_SNeSx-tSju3KjJwH3fN-EuUO3tVNNEBVBy0M2uSZZ2EgBl9afuG9Z3bdEgXXxL0-6oyO65k5cGhLFee7YNmntpXUaOemZMx4M58_zkOGUsMr4peER3XMcW8JvLOQ0_OnQWsMRRQ6FfzTXs86-1KdPt73eOefPZmfsAJZB2MMKXgmpcVlkQ50Ir4456w8o21CJE5CeqycG6Y5a3AT5OGEX-Ctf-VjVkCSHF1IjI0OUQBdaV2V4cDAfdGhVEm89pZVo5BqSfu8bn9rnIrLmSaNv3-UDcxDCNJdCLWZi5461hxDJcPmBTvI6vQU6Jeige57IvyyA4hqq8plaGxf2UFbu2c5qZF2CANca_H8B5sqN4Trd9RD1ZthAa_6LXP1AzSJ-tlBjetANJ-KJjQOSolPCbeW-i-Qtu1OBMPiKPdxcimsWA-XZ5tQ65p4z0vlskd-cBAFPIzCE3azigLI58AS70XJ5qZfzcL40cxaUeAiLnbjfkwWqF6BMjW4NNgOTXpXV1XmCpQ3zTwhAoQtYp3otnjq1wziwQWw7bNiT3wpSxTrUxvwUbvSNrhAMwgLP-FHLYvhR93qtgtt8qS7OwFRWyRuwF3Xg4lFQxddWT5z-IitUlb_F4z4NkU-oBkihgXu1Xo3304b97wgGrmIUFcq0AWASTCaw0hZzEBT17IgE6bgC6XAB0ao5Varde6Lof7ICeswdqSKS9vWlA_L4971hcZ4iDy8rFshKHnU37ZlYGa1CQ4MXmO8aqpNJeXivsvfIuBc5ipxRbTwyDnZchx5Y9_B-4V36QXQKg-5TLIB1mOmaNmJy6scmVW1ifmWu8hp4wZrMThoBVrkrhoA8iZjbNVMtygepAMgCNV7ZwZxPuUFkJEZxmrj4eKnSM-tOgXhPcYpLktrm_y-Tojy8yDpLueA0Xgr3HbuG4ueV4JJGWwuLWMsYetlXeaeUl8GdATnUOQxP9K02P71hBSixTmkFpQjtRl7s3BNUA0-pw5vLOpSvufOpIphhCct_QECKiR7mu0PeUOn-_aZjR7R-LvfzpEZCdJ-jTRTDy0ctFA_t_jvVEKZr7GVfXjssikyO4DdnfKUG82jqFXsVxw1p6TRVNqg2Rbw6j0UrPmceU2PqGHRMC7sdNRcDBzq4xkaU7Pc6L6r-T1raEUojAGL4uKFPNTm_07CtL9l1DIEIguclXCRSOAsqjzUvxrERAQvv8bTEgdltaP5GFp8483Bj91Nejy1Zmy_6qcRe-EMhIsCA-9IqFCwAIDWY-ndPJ6Il0hG7ecRbkMUlqeUrFq9On3ZQjkMetWzuq6hhC1ZATcqgPd6SmHc81eNdBCfcl0bSd8F1eceNarPAnEJpAFreM7a_M-jxyRZMO-UK9aFno-HQs5Q3UgpVFDOwdvkDf-KUSFCwC8POyweTWpGR4_VaexygYrArfD5xrEiHbrdcXjplkzTDXmJQLjyzu5IIA7xHCCUVdNRJFfjxMMNi3Dk7eg8edvyJhWR22KfgaN2EUZ64x5aCTNvi4TqtWhLz9YPsAkv3Y00TC04tsuOEzZdGGAOdqPJsiZeQ9CCJsezBa2AFHHIUU43gSeyI4z2LmE-orwpND_Nk3gDhYkIpLjyB5kREysz-fRk_ixMqiJtbBWqpamxbhzC4R6jG4rt9ZT0uzruR0WdcC6xWkkOjDChpE1LPQEgJvgprvpc-nfReEpZ_4vR36CHSksh3pWcgPjJS-9AaX2eSkKreFi6RMKLrnMFa_Gxdqu-H8dCqMKtu6THjeqG5RmmubxP2nkyd4kuDM__lqVW17yRRY_n1N0ZHaxZU15htUSFvSMXOV2azFOF4wmoFWFelt-AJrh0JmF2e5YDGrxtUNpxPspFXGhzhY3ONxWWi189jaHxUb6vuFyU2PtwLF-s3QG20I6MOQFpClVR4kbGV690HvgCJcP6B0DOb_SbipPxx5OE2QFwI97_ln0vspP0Lw9K5npcEpki4Hh1OLqlfPp6Cw-NgTbN8RObdcFgfPWqJrrKyMJ6RlXuLM928LrSbEBANXN-Ba3IqGjFcAGaree5Fg6XaipGurbcbAPcD0Mm0TZXyUZX8SruofAZS3ahNdZR1bJEDKpNi07jC38y7eHGj0cqr_HOeszM1wtLBscLXMzZKIOROBQ3BS-vTW5XG-y6nimRME3fVmMjIrAGlDthvIo5Qhh9Ph7oFZ_0G00?></g></svg>