<svg xmlns="http://www.w3.org/2000/svg" xmlns:xlink="http://www.w3.org/1999/xlink" contentStyleType="text/css" data-diagram-type="DESCRIPTION" height="555px" preserveAspectRatio="none" style="width:631px;height:555px;background:#FAFAFA;" version="1.1" viewBox="0 0 631 555" width="631px" zoomAndPan="magnify"><?plantuml 1.2026.6?><defs><filter height="300%" id="f3boptcl6wyqv" width="300%" x="-1" y="-1"><feGaussianBlur result="blurOut" stdDeviation="2"/><feColorMatrix in="blurOut" result="blurOut2" type="matrix" values="0 0 0 0 0 0 0 0 0 0 0 0 0 0 0 0 0 0 .4 0"/><feOffset dx="4" dy="4" in="blurOut2" result="blurOut3"/><feBlend in="SourceGraphic" in2="blurOut3" mode="normal"/></filter></defs><g><rect fill="#FAFAFA" height="555" style="stroke:none;stroke-width:1;" width="631" x="0" y="0"/><g class="title" data-source-line="231"><rect fill="none" height="33.2813" style="stroke:#585858;stroke-width:1;" width="580.7813" x="21.8209" y="5"/><text fill="#005F7F" font-family="sans-serif" font-size="20" font-weight="700" lengthAdjust="spacing" textLength="570.7813" x="26.8209" y="28.5645">LazyGraphRAG &#8212; Defer Graph Work to Query Time</text></g><!--entity IDX--><g class="entity" data-qualified-name="IDX" data-source-line="236" id="ent0001"><rect fill="#E5E4E4" filter="url(#f3boptcl6wyqv)" height="68.8906" rx="6" ry="6" style="stroke:#585858;stroke-width:0.5;" width="175.2715" x="347.1" y="180.8813"/><text fill="#181818" font-family="sans-serif" font-size="14" font-style="italic" lengthAdjust="spacing" textLength="34.9043" x="417.2836" y="203.8764">&#171;db&#187;</text><text fill="#181818" font-family="sans-serif" font-size="14" lengthAdjust="spacing" textLength="125.1387" x="372.1664" y="220.1732">Lightweight index</text><text fill="#181818" font-family="sans-serif" font-size="14" lengthAdjust="spacing" textLength="155.2715" x="357.1" y="236.4701">(minimal upfront LLM)</text></g><!--entity Q--><g class="entity" data-qualified-name="Q" data-source-line="237" id="ent0002"><rect fill="#005F7F" filter="url(#f3boptcl6wyqv)" height="52.5938" rx="6" ry="6" style="stroke:#00BAC6;stroke-width:0.5;" width="115.1699" x="377.16" y="51.2813"/><text fill="#FAFAFA" font-family="sans-serif" font-size="14" font-style="italic" lengthAdjust="spacing" textLength="43.4834" x="413.0033" y="74.2764">&#171;app&#187;</text><text fill="#FAFAFA" font-family="sans-serif" font-size="14" lengthAdjust="spacing" textLength="95.1699" x="387.16" y="90.5732">Query arrives</text></g><!--entity EXP--><g class="entity" data-qualified-name="EXP" data-source-line="238" id="ent0003"><rect fill="#CBDB2A" filter="url(#f3boptcl6wyqv)" height="68.8906" rx="6" ry="6" style="stroke:#818D00;stroke-width:0.5;" width="165.2295" x="352.13" y="326.7713"/><text fill="#181818" font-family="sans-serif" font-size="14" font-style="italic" lengthAdjust="spacing" textLength="57.8594" x="405.8151" y="349.7664">&#171;async&#187;</text><text fill="#181818" font-family="sans-serif" font-size="14" lengthAdjust="spacing" textLength="110.585" x="379.4523" y="366.0632">Best-first + BFS</text><text fill="#181818" font-family="sans-serif" font-size="14" lengthAdjust="spacing" textLength="145.2295" x="362.13" y="382.3601">relevance expansion</text></g><!--entity BUD--><g class="entity" data-qualified-name="BUD" data-source-line="239" id="ent0004"><rect fill="#00BAC6" filter="url(#f3boptcl6wyqv)" height="68.8906" rx="6" ry="6" style="stroke:#006B70;stroke-width:0.5;" width="178.915" x="103.28" y="180.8813"/><text fill="#181818" font-family="sans-serif" font-size="14" font-style="italic" lengthAdjust="spacing" textLength="47.3525" x="169.0613" y="203.8764">&#171;host&#187;</text><text fill="#181818" font-family="sans-serif" font-size="14" lengthAdjust="spacing" textLength="158.915" x="113.28" y="220.1732">Relevance-test budget</text><text fill="#181818" font-family="sans-serif" font-size="14" lengthAdjust="spacing" textLength="138.1885" x="123.6433" y="236.4701">(quality &#8596; cost dial)</text></g><!--entity LLM--><g class="entity" data-qualified-name="LLM" data-source-line="240" id="ent0005"><path d="M353.9498,481.792 C356.561,476.9972 361.9783,476.0019 365.2851,480.9855 C370.0899,475.8659 374.1441,476.2199 378.1525,481.9316 C381.6879,476.7836 385.7649,476.6833 389.713,481.4503 C392.8308,476.6153 396.6998,476.5225 400.4002,480.7645 C403.3884,474.3791 409.4224,474.725 412.5861,480.5899 C415.7288,473.8107 420.5028,474.0831 424.8896,479.3155 C428.9081,474.7875 432.4089,474.9962 435.9279,479.9002 C439.3745,474.9913 442.7044,474.3995 446.7327,479.2565 C450.7454,473.8208 455.8981,474.4101 458.7588,480.4624 C462.5497,473.8796 468.0764,474.0835 471.3789,480.9217 C475.2564,475.078 479.4615,474.9195 483.0905,481.1625 C486.9593,475.7104 490.2788,475.7738 493.7639,481.528 C496.9148,475.2715 501.3856,476.0444 505.4072,480.5894 C510.362,475.1313 514.5174,476.151 517.791,482.3721 C523.917,484.2886 526.5541,487.6956 521.9835,493.6046 C528.0355,495.5867 529.4374,501.1635 524.0533,505.1889 C528.1667,510.7575 526.8939,514.6573 520.1628,516.494 C523.9615,521.8649 522.4674,526.4814 516.3333,528.7484 C513.0199,533.4504 508.8998,534.3719 505.413,528.9351 C501.9749,533.7349 498.6739,534.7842 494.5576,529.6784 C490.7806,535.2856 486.6851,535.5164 482.6469,529.9571 C479.4518,535.7578 475.2738,536.1702 471.3932,530.6377 C469.4068,536.5904 464.0338,538.0315 459.7591,533.0791 C456.8328,539.6568 450.5005,540.3945 446.9463,533.6845 C443.7161,540.0095 438.6177,540.2906 435.0282,534.0247 C432.0371,538.689 427.9524,538.8805 425.0344,533.9486 C421.0442,538.9081 416.0097,537.2569 413.7076,532.065 C409.742,537.6176 404.9931,538.4726 401.3354,531.7545 C396.5498,536.8952 392.2447,537.2534 388.3857,530.7261 C385.2629,535.2795 381.4251,534.3499 378.7994,530.1798 C374.9437,534.9536 370.4466,536.1556 366.7865,529.9655 C361.9248,535.1953 357.3422,536.2142 353.6216,528.7794 C346.807,527.1207 346.4555,521.6633 350.8338,517.289 C343.6393,516.702 340.2561,510.9613 344.8049,504.7347 C341.5297,498.5184 342.9264,494.7044 349.6383,492.4024 C345.4901,486.5507 348.0822,483.5737 353.9498,481.792" fill="#585858" filter="url(#f3boptcl6wyqv)"/><text fill="#FAFAFA" font-family="sans-serif" font-size="14" font-style="italic" lengthAdjust="spacing" textLength="55.043" x="407.2149" y="500.6564">&#171;cloud&#187;</text><text fill="#FAFAFA" font-family="sans-serif" font-size="14" lengthAdjust="spacing" textLength="148.5928" x="360.44" y="516.9532">LLM claims / answers</text></g><g class="entity" data-qualified-name="GMN10" data-source-line="248" id="ent0011"><path d="M6,333.5113 L6,388.9097 A0,0 0 0 0 6,388.9097 L317.4814,388.9097 A0,0 0 0 0 317.4814,388.9097 L317.4814,343.5113 L307.4814,333.5113 L171.52,333.5113 L185.47,250.0613 L163.52,333.5113 L6,333.5113 A0,0 0 0 0 6,333.5113" fill="#E5E4E4" filter="url(#f3boptcl6wyqv)" style="stroke:#B4B3B3;stroke-width:0.5;"/><path d="M307.4814,333.5113 L307.4814,343.5113 L317.4814,343.5113 L307.4814,333.5113" fill="#E5E4E4" style="stroke:#B4B3B3;stroke-width:0.5;"/><text fill="#181818" font-family="sans-serif" font-size="13" lengthAdjust="spacing" textLength="290.4814" x="12" y="350.5781">Contrasts eager GraphRAG indexing: pay for</text><text fill="#181818" font-family="sans-serif" font-size="13" lengthAdjust="spacing" textLength="59.2808" x="25.7014" y="365.711">structure</text><text fill="#181818" font-family="sans-serif" font-size="13" font-weight="700" lengthAdjust="spacing" textLength="71.3223" x="89.1145" y="365.711">per query</text><text fill="#181818" font-family="sans-serif" font-size="13" lengthAdjust="spacing" textLength="128.3433" x="160.4368" y="365.711">, useful for one-off /</text><text fill="#181818" font-family="sans-serif" font-size="13" lengthAdjust="spacing" textLength="253.0049" x="30.7383" y="380.8438">exploratory analytics on large corpora.</text></g><!--link Q to IDX--><g class="link" data-entity-1="ent0002" data-entity-2="ent0001" data-link-type="dependency" data-source-line="242" id="lnk6"><path d="M434.74,104.1113 C434.74,125.6913 434.74,151.7813 434.74,175.4413" fill="none" id="Q-to-IDX" style="stroke:#585858;stroke-width:2;"/><polygon fill="#585858" points="434.74,180.4413,438.74,171.4413,434.74,175.4413,430.74,171.4413,434.74,180.4413" style="stroke:#585858;stroke-width:2;stroke-linejoin:miter;stroke-miterlimit:10;"/><text fill="#181818" font-family="sans-serif" font-size="13" lengthAdjust="spacing" textLength="77.5176" x="435.74" y="146.9481">start sparse</text></g><!--link IDX to EXP--><g class="link" data-entity-1="ent0001" data-entity-2="ent0003" data-link-type="dependency" data-source-line="243" id="lnk7"><path d="M434.74,250.0613 C434.74,273.1513 434.74,298.6413 434.74,321.6913" fill="none" id="IDX-to-EXP" style="stroke:#818D00;stroke-width:2;"/><polygon fill="#818D00" points="434.74,326.6913,438.74,317.6913,434.74,321.6913,430.74,317.6913,434.74,326.6913" style="stroke:#818D00;stroke-width:2;stroke-linejoin:miter;stroke-miterlimit:10;"/><text fill="#181818" font-family="sans-serif" font-size="13" lengthAdjust="spacing" textLength="175.4619" x="435.74" y="292.8381">grow subgraph on demand</text></g><!--link BUD to EXP--><g class="link" data-entity-1="ent0004" data-entity-2="ent0003" data-link-type="dependency" data-source-line="244" id="lnk8"><path d="M249.78,250.2413 C288.35,273.1713 334.7921,300.7862 373.3621,323.7162" fill="none" id="BUD-to-EXP" style="stroke:#585858;stroke-width:1;stroke-dasharray:1,3;"/><polygon fill="#585858" points="377.66,326.2713,371.9679,318.2338,373.3621,323.7162,367.8798,325.1104,377.66,326.2713" style="stroke:#585858;stroke-width:1;stroke-linejoin:miter;stroke-miterlimit:10;"/><text fill="#181818" font-family="sans-serif" font-size="13" lengthAdjust="spacing" textLength="89.0703" x="322" y="292.8381">cap LLM tests</text></g><!--link EXP to LLM--><g class="link" data-entity-1="ent0003" data-entity-2="ent0005" data-link-type="dependency" data-source-line="245" id="lnk9"><path d="M434.74,395.9213 C434.74,419.1813 434.74,444.8513 434.74,467.4013" fill="none" id="EXP-to-LLM" style="stroke:#585858;stroke-width:2;"/><polygon fill="#585858" points="434.74,472.4013,438.74,463.4013,434.74,467.4013,430.74,463.4013,434.74,472.4013" style="stroke:#585858;stroke-width:2;stroke-linejoin:miter;stroke-miterlimit:10;"/><text fill="#181818" font-family="sans-serif" font-size="13" lengthAdjust="spacing" textLength="179.6831" x="435.74" y="438.7281">answer from induced graph</text></g><?plantuml-src lLdfRXiv4lwlfs0q2qJok2NPpZMAOa2IdGCh7x5iP8B98g2wAQdXla9IbZL1WFsrJp1FE4-oNv7iLbkMOXi9HWPy58l58kkhquzV_T2dyfYTolHAfEpl__x5JYEUw8kZ0TDJ4GjMYyB9LDV1yqOaGeR-DWiJFve5V1G9ozDWRoGViL2pUQYdRR0oziWo2JRLEbFjPbFoUME2vTbefeJqqqIBH3VyD6vcvcpFvyqm02tKYsRCmyJH6zaiZY3oWCjBvlFaYgisWmZcjWMW6nvMKnpwnjoNgTfcvW-PGaS_ZTAPLFK6tPD7GciiYB6G8l55sonBrOY31ZjEsMieTanRGyMKq3TUvB5YWHZpMQGXQGn6Oe8gmKl8u_uKDCdwKj2XSHg4ur18nMhLQfmcQRMwpRQsHcaKR6rjisOpr3mA_MQpRcH9F6eK9eA9E9jo1RbXehJW0Kl7vf73P48_sNnAqeEGJoIFcKvPYarZxWlSxWTH04KypsCzoPE0PUwXl0TyAe_-rHjq-_-6-TahLlrbvmLzLK7-yFRT-M5EVjsbBoA_EUj-P3dvXVdavC-xZlpq1NqLv3r7xZtfxVNs2l8JHpvyUlZay4cr0lfHzzrn8RpLUlhw-Ukg8nTIMgtdptux879tSCvAtBrk_vaZVzvPaf_rdhSCkTy_F3vtv7xleBVRNPAnmTndvyL1gsLKEJmxEpbZ1VjkgsMa32_0FnpcmdzxkhSBziS_xCnd9TGR02iH0y7akiwiNW1FlXA0_3cVC9uiM9B2Lybz2MMG4NFjJmbqdGvm24phHIRszrajCwuZHL1dG2qv8i7IUfq3SSD4W4w7Pnbsu3CEfT9UngLUC11PayaPz86N8HHSXRvWxkDiLWFoetekHIqId-HycOcPm5vnXIZX1NI117-Ek7yvaUaCeCq_pZm8NR78nKnJfOqsz0ksPH7NyBiOlwQPa5pZDYEImkKY5sCnKVCNFCd5-7ZLWEI8QpnBmYFirzDG1kvwJGQj0iXQVXoSQmed5ke48_iq36V3tJN58cnM6Zpudah1LZyEwCk0J79WYbIIg34Fevaa6O5GMivyZVUXltWo4NWULSXnQAoH3Nz6qEWj3P0cqOAiTwqT_bWanfh258741KzppHnIzSeZa2dozKy69sUVkwUdfADpsDN5uSVZFXQjnwqilZqPdjkTvBmhY_t1oSK15cqqMLayw9btSS5ZPT6zbdFRbVl-YdWSmc1qu-ro60-47t60AamJXLTXbANW1b6a2l73yu-3mvNxlYH1xGyaSuNlvWKsyzrKjypt4mBBqCKHne6wUUxq5652ayuf7_fO2qN0HWiM5MfXRurI7-4nHVmnlt0rfIZ25PkBAAAV5ZF8tIaL4sg6s70b53PFf5We7x6BKMwoRDu8yWDs5OevubI3dIGk395BCH5Cn3OfOJMp8QcBn_dmkKWCA272cDmTW4ICcKgaQVZ9525gWKYffwLD9wVdxqwEkmF6k46m51vYcFb5pM9XVj56L9gHrNbKsbp4_vANefJnHRJYhXgvLuMqlxJx_SNXXKcUvYucvfYO24MJm4l7Oxnj0Sbj6nuPggnwIOQ33pvaCYKKuyje1_VaoJAWgGNSCyRc2yKdA91Oj_nmFTPsHpGPzwsgFmYi7C4hvl7-S6ZV9kZynzjVOInCicIquBhDMXW0hDOpDiWitXgCDe5lO2mUj7Iu0NJ1xygfWPXm7sal2ZazU-rIP9e03Yx0r1LoYbqAaR5vAY-1vJgprTIDE6IUPKDOH9vQ7_PS8bmVCFFomvKUAwkcDilZPR5ssZr_QrL1qlCl4w7KgxsRg_sJewEJylhEShl9LWC-4b7jkiuwflHkEuliTqRxrvtcQB_JDFJbYwkPxqFGhNrMxytxWj6jBVO-jxSuO_KZmT7acC0GaaUg-nR05GNBeGH0KOwU9aDLdkYXNaJKQlWQEJWI9POC_WhVsipWKkKvdBABV9_4v72-8F-lL52HOTz-XQ6_IJNxMY4S3gSyI2aI8iP4IhmqHEfc-dH3PYjpIrqcCBTcodExDi33EQgjMuZyhO9lQCmYKvHyBOibBBmqX67ufs2xhPVWHfJX9WgkC3k9LfxD8Lytdsh9vpcEs4xZwUPR6P59YbpyTVqTRVMq_f9xttkjCoj44YvUsACOofe9ohnDPttdFHzw5BvPQ1v6Wa3WKT6KmmFXXDfF526eX9EqL5QvzjL44Z973ibD6XipsgLK8Z0vCYBBBNrBbolCllFazWLsd15FUH0GB7TQ-UEPD4OzwoPjYcDlABFKSJq0c6rYxhR93QbtM-LXjzpDbIdS-kThT5i1wtCo-AVE2hZc8oIqxthRxWOZhZdmlg0g711nEnA-hQ-_W-dygFkZceIZhW7jGU0qWu87e8YEiGtjfcDCwbvtaXioF3XccTRrOI5htKlbRaWYnv96PRTY-5fFNH9lGAg82YudFb2QqSBMKbyVfdqHMSsuP1awrVrdNaR4gHc8K8CBTqYlHD43TZg_JCNr_dwRrXPcchXKnBHEoWZubDXEQIG5lqH8pxVRagNHsCzdYa4AvP3ZwjjM8lW38u6hl07ZsdJQD9P17u4EYFebnsog1fWiZStGC8lCr92n1eraximBwvtrzcj_Cn9DVt8FPA-7Rrbg2Ur6j1dVtEMQTuiTb6L-rpFAeUpEHoZNJ10SZEvJZjofxOfKKqLl4cnQdNjgM_1-gtIQhgYqPTw0_xbu8tasFUk-CGt-WG6v8R4FQ5EeQNm_4-WUpyDOsFyW1EXYRKSikFIdR1IbapOx2WdgwLZV44hjvTcWJVCuzm-2-NpUY7DUyuy1aNWprSp5DKbSCuAC2ScGVEB1fJIIhiUzHCmzXNIBVZRmngdqlipGSUc5Hoso3yWqSU00VMlKPkX7blLGTK3JjBcWxt2YG5n_Icfnc8GnEk5P1cy1qs1mLA-Ibxqx-DtDxieYx3lGt0CDW-5xdqy_osmzUA1dHg7iLzPxFVoKI169Ave3eFdEgFDF4xFzyFVJvU2pBE8it-1f24EJ7qo4XiBkjkpl__t5wBRKLqPMvHxQr7pwMR50fqyLTq96u25wJpJoYPeBQNMdXMBEMQcyBxVbTFys3IabUbXqAafKY5JkdKdtDfjGRQzc8sCgCm2ZqL5G8MrMkdUx0Gs3EPdkfIf4A_VPjD9sMje81bFDV9I-ve1AnLJ-8tJ_5Dp6T6cWkW_RIGvvJ22nEFGIe8sT0Pmsaiw2ndPWjaCOciriRT40wGiPbVvLWrWwdaLck0Shc7bBiqBptmm-H6DZc3xXqKA7lXdrHLnEQFmkComtAjGca7R_1m00?></g></svg>