<svg xmlns="http://www.w3.org/2000/svg" xmlns:xlink="http://www.w3.org/1999/xlink" contentStyleType="text/css" data-diagram-type="DESCRIPTION" height="846px" preserveAspectRatio="none" style="width:700px;height:846px;background:#FAFAFA;" version="1.1" viewBox="0 0 700 846" width="700px" zoomAndPan="magnify"><?plantuml 1.2026.6?><defs><filter height="300%" id="fvq9adhbzxexl" width="300%" x="-1" y="-1"><feGaussianBlur result="blurOut" stdDeviation="2"/><feColorMatrix in="blurOut" result="blurOut2" type="matrix" values="0 0 0 0 0 0 0 0 0 0 0 0 0 0 0 0 0 0 .4 0"/><feOffset dx="4" dy="4" in="blurOut2" result="blurOut3"/><feBlend in="SourceGraphic" in2="blurOut3" mode="normal"/></filter></defs><g><rect fill="#FAFAFA" height="846" style="stroke:none;stroke-width:1;" width="700" x="0" y="0"/><g class="title" data-source-line="231"><rect fill="none" height="33.2813" style="stroke:#585858;stroke-width:1;" width="579.1113" x="57.1848" y="5"/><text fill="#005F7F" font-family="sans-serif" font-size="20" font-weight="700" lengthAdjust="spacing" textLength="569.1113" x="62.1848" y="28.5645">LightRAG &#8212; Dual-Level Graph + Incremental Index</text></g><!--entity C--><g class="entity" data-qualified-name="C" data-source-line="236" id="ent0001"><rect fill="#005F7F" filter="url(#fvq9adhbzxexl)" height="52.5938" rx="6" ry="6" style="stroke:#00BAC6;stroke-width:0.5;" width="176.5361" x="196.9" y="51.2813"/><text fill="#FAFAFA" font-family="sans-serif" font-size="14" font-style="italic" lengthAdjust="spacing" textLength="43.4834" x="263.4264" y="74.2764">&#171;app&#187;</text><text fill="#FAFAFA" font-family="sans-serif" font-size="14" lengthAdjust="spacing" textLength="156.5361" x="206.9" y="90.5732">New / updated chunks</text></g><!--entity EX--><g class="entity" data-qualified-name="EX" data-source-line="237" id="ent0002"><path d="M213.0826,189.0256 C216.7196,183.9384 220.7621,184.1545 223.614,189.7962 C226.482,182.5406 233.6065,182.1653 237.9693,188.1791 C240.8619,182.7043 244.854,181.4612 249.0009,186.9127 C252.6213,180.7567 256.9628,180.9943 261.4154,185.986 C264.7164,180.2182 269.7476,178.0774 274.5655,184.3259 C277.3219,178.2104 282.7227,177.4558 287.2051,182.3432 C291.4285,177.8461 295.6482,178.919 298.508,183.9593 C302.017,177.7934 308.1844,178.8473 311.2727,184.417 C316.3453,179.5475 319.9466,180.4931 322.6772,186.8056 C327.0229,182.1796 331.5599,182.4604 335.053,187.8583 C339.8593,182.982 344.8563,183.4349 348.2152,189.5859 C352.3235,184.1403 357.646,184.4458 360.4217,190.9474 C366.7975,193.8833 369.2022,197.6712 363.8361,203.7408 C369.7192,205.3418 371.9674,210.4686 367.361,215.2751 C375.1103,217.6856 377.1737,223.6058 370.5153,229.2648 C375.8648,235.5566 374.3944,240.8822 366.0911,242.6669 C371.7821,248.0148 369.8857,253.6706 362.6012,255.4861 C368.6951,261.1751 368.0434,266.5406 359.6728,269.1237 C356.3428,276.2607 351.1432,275.6762 346.7349,270.2326 C344.3607,276.8874 338.932,277.1893 335.204,271.4968 C332.232,277.7877 327.8441,278.4601 323.5328,272.8054 C320.0278,278.7203 315.7333,280.1431 310.9493,274.1579 C307.0465,279.7855 302.6241,280.9352 298.6715,274.2074 C296.7357,280.5248 290.7364,281.7974 286.3011,276.9858 C281.3216,280.9302 277.3814,279.6099 274.8735,274.0226 C271.5606,281.1514 265.6722,280.3603 261.8363,274.5496 C256.8131,280.6062 252.3746,278.7117 249.4202,272.4623 C244.733,278.0424 240.3134,277.7871 236.5962,271.4211 C232.6316,275.8792 228.7106,275.5749 225.7822,270.273 C221.4468,275.7536 217.3831,275.8433 213.1731,270.1319 C204.8298,266.9438 203.9003,261.9203 209.6585,255.374 C203.3683,253.4713 202.4377,248.4002 206.4351,243.6653 C199.2961,240.0964 197.9725,234.5424 203.6232,228.5882 C199.4105,222.7452 200.081,217.7987 207.9325,216.128 C201.7938,211.324 203.9237,206.0787 210.1391,203.4199 C203.133,197.4745 205.0463,191.8949 213.0826,189.0256" fill="#585858" filter="url(#fvq9adhbzxexl)"/><text fill="#FAFAFA" font-family="sans-serif" font-size="14" font-style="italic" lengthAdjust="spacing" textLength="55.043" x="257.6442" y="208.8664">&#171;cloud&#187;</text><text fill="#FAFAFA" font-family="sans-serif" font-size="14" lengthAdjust="spacing" textLength="82.0381" x="244.1467" y="225.1632">LLM extract</text><text fill="#FAFAFA" font-family="sans-serif" font-size="14" lengthAdjust="spacing" textLength="133.7314" x="218.3" y="241.4601">entities + relations</text><text fill="#FAFAFA" font-family="sans-serif" font-size="14" lengthAdjust="spacing" textLength="88.874" x="240.7287" y="257.757">(single pass)</text></g><!--entity STORE--><g class="entity" data-qualified-name="STORE" data-source-line="238" id="ent0003"><path d="M195.19,363.0613 C195.19,353.0613 285.1636,353.0613 285.1636,353.0613 C285.1636,353.0613 375.1373,353.0613 375.1373,363.0613 L375.1373,420.9519 C375.1373,430.9519 285.1636,430.9519 285.1636,430.9519 C285.1636,430.9519 195.19,430.9519 195.19,420.9519 L195.19,363.0613" fill="#E5E4E4" filter="url(#fvq9adhbzxexl)" style="stroke:#585858;stroke-width:0.5;"/><path d="M195.19,363.0613 C195.19,373.0613 285.1636,373.0613 285.1636,373.0613 C285.1636,373.0613 375.1373,373.0613 375.1373,363.0613" fill="none" style="stroke:#585858;stroke-width:0.5;"/><text fill="#181818" font-family="sans-serif" font-size="14" font-style="italic" lengthAdjust="spacing" textLength="34.9043" x="267.7115" y="390.0564">&#171;db&#187;</text><text fill="#181818" font-family="sans-serif" font-size="14" lengthAdjust="spacing" textLength="115.2744" x="227.5264" y="406.3532">Graph + vectors</text><text fill="#181818" font-family="sans-serif" font-size="14" lengthAdjust="spacing" textLength="159.9473" x="205.19" y="422.6501">(entities &#183; edges &#183; text)</text></g><!--entity LOW--><g class="entity" data-qualified-name="LOW" data-source-line="239" id="ent0004"><rect fill="#00BAC6" filter="url(#fvq9adhbzxexl)" height="68.8906" rx="6" ry="6" style="stroke:#006B70;stroke-width:0.5;" width="162.3311" x="7" y="507.9513"/><text fill="#181818" font-family="sans-serif" font-size="14" font-style="italic" lengthAdjust="spacing" textLength="47.3525" x="64.4893" y="530.9464">&#171;host&#187;</text><text fill="#181818" font-family="sans-serif" font-size="14" lengthAdjust="spacing" textLength="129.4795" x="23.4258" y="547.2432">Low-level retrieval</text><text fill="#181818" font-family="sans-serif" font-size="14" lengthAdjust="spacing" textLength="142.3311" x="17" y="563.5401">entity / detail match</text></g><!--entity HIGH--><g class="entity" data-qualified-name="HIGH" data-source-line="240" id="ent0005"><rect fill="#00BAC6" filter="url(#fvq9adhbzxexl)" height="68.8906" rx="6" ry="6" style="stroke:#006B70;stroke-width:0.5;" width="162.0986" x="204.12" y="507.9513"/><text fill="#181818" font-family="sans-serif" font-size="14" font-style="italic" lengthAdjust="spacing" textLength="47.3525" x="261.493" y="530.9464">&#171;host&#187;</text><text fill="#181818" font-family="sans-serif" font-size="14" lengthAdjust="spacing" textLength="133.8408" x="218.2489" y="547.2432">High-level retrieval</text><text fill="#181818" font-family="sans-serif" font-size="14" lengthAdjust="spacing" textLength="142.0986" x="214.12" y="563.5401">theme / topic match</text></g><!--entity MIX--><g class="entity" data-qualified-name="MIX" data-source-line="241" id="ent0006"><rect fill="#005F7F" filter="url(#fvq9adhbzxexl)" height="52.5938" rx="6" ry="6" style="stroke:#00BAC6;stroke-width:0.5;" width="156.0898" x="108.12" y="637.8413"/><text fill="#FAFAFA" font-family="sans-serif" font-size="14" font-style="italic" lengthAdjust="spacing" textLength="43.4834" x="164.4232" y="660.8364">&#171;app&#187;</text><text fill="#FAFAFA" font-family="sans-serif" font-size="14" lengthAdjust="spacing" textLength="136.0898" x="118.12" y="677.1332">Merge dual context</text></g><!--entity LLM--><g class="entity" data-qualified-name="LLM" data-source-line="242" id="ent0007"><path d="M128.7349,777.5273 C131.3835,770.6689 137.5535,771.1441 141.459,776.183 C144.0438,769.8639 150.0317,770.6952 153.4265,775.2952 C156.7051,769.1457 160.9836,769.1165 164.8827,774.6888 C168.4175,770.774 173.0834,770.6995 175.1327,776.2905 C177.0985,769.7165 182.1826,768.4856 186.5448,774.0346 C190.6577,768.906 194.8307,768.7363 198.2545,774.7583 C202.7427,767.9445 206.902,768.497 210.9639,775.1603 C214.4403,770.5365 217.9762,769.5962 221.3802,775.2339 C225.1344,769.8896 230.8654,770.1213 234.3594,775.5474 C237.5846,769.7554 243.0612,769.6482 245.8498,775.9618 C252.564,778.7222 253.7619,783.0163 248.2152,788.1552 C255.784,790.7917 255.1811,796.0324 250.4076,800.8075 C254.9211,804.5131 253.7852,809.2729 248.1918,810.719 C253.1178,816.7122 251.7573,820.5797 244.2247,822.3081 C241.7606,827.0396 237.5607,827.5428 234.2005,823.3103 C231.4175,829.1557 225.9517,829.7491 222.3018,824.217 C219.3001,829.7013 214.8134,831.2042 210.4898,825.6288 C206.4537,831.2887 202.667,831.3427 198.7345,825.5228 C195.4945,830.1807 191.2886,829.545 188.3507,825.1754 C185.6256,830.7149 179.7958,830.5431 176.5927,825.7177 C173.2705,831.2064 167.2876,831.7629 164.4765,825.2037 C160.5429,830.6312 154.936,831.0186 152.0707,824.1278 C149.0821,828.6703 144.1192,827.5125 141.9805,823.1633 C137.7998,829.9718 133.5957,829.3919 129.4125,823.1657 C124.0234,820.6559 122.6045,816.6419 127.3947,812.2503 C121.1335,808.8479 121.6389,804.5404 126.6496,800.4276 C121.8579,794.7969 121.199,790.3238 129.2263,787.1879 C124.1761,784.3707 124.3817,780.8228 128.7349,777.5273" fill="#585858" filter="url(#fvq9adhbzxexl)"/><text fill="#FAFAFA" font-family="sans-serif" font-size="14" font-style="italic" lengthAdjust="spacing" textLength="55.043" x="158.6489" y="795.4364">&#171;cloud&#187;</text><text fill="#FAFAFA" font-family="sans-serif" font-size="14" lengthAdjust="spacing" textLength="101.2607" x="135.54" y="811.7332">LLM generator</text></g><g class="entity" data-qualified-name="GMN15" data-source-line="253" id="ent0016"><path d="M400.85,514.7013 L400.85,570.0997 A0,0 0 0 0 400.85,570.0997 L685.4809,570.0997 A0,0 0 0 0 685.4809,570.0997 L685.4809,524.7013 L675.4809,514.7013 L500.2,514.7013 L351.94,431.4113 L492.2,514.7013 L400.85,514.7013 A0,0 0 0 0 400.85,514.7013" fill="#E5E4E4" filter="url(#fvq9adhbzxexl)" style="stroke:#B4B3B3;stroke-width:0.5;"/><path d="M675.4809,514.7013 L675.4809,524.7013 L685.4809,524.7013 L675.4809,514.7013" fill="#E5E4E4" style="stroke:#B4B3B3;stroke-width:0.5;"/><text fill="#181818" font-family="sans-serif" font-size="13" lengthAdjust="spacing" textLength="263.6309" x="406.85" y="531.7681">Removes GraphRAG's heavy community</text><text fill="#181818" font-family="sans-serif" font-size="13" lengthAdjust="spacing" textLength="238.4814" x="419.4247" y="546.901">summarization; favors fast indexing,</text><text fill="#181818" font-family="sans-serif" font-size="13" lengthAdjust="spacing" textLength="254.5283" x="411.4013" y="562.0338">developer UX, and incremental inserts.</text></g><!--link C to EX--><g class="link" data-entity-1="ent0001" data-entity-2="ent0002" data-link-type="dependency" data-source-line="244" id="lnk8"><path d="M285.17,104.1712 C285.17,125.1213 285.17,150.3212 285.17,175.5812" fill="none" id="C-to-EX" style="stroke:#585858;stroke-width:2;"/><polygon fill="#585858" points="285.17,180.5812,289.17,171.5812,285.17,175.5812,281.17,171.5812,285.17,180.5812" style="stroke:#585858;stroke-width:2;stroke-linejoin:miter;stroke-miterlimit:10;"/><text fill="#181818" font-family="sans-serif" font-size="13" lengthAdjust="spacing" textLength="127.8545" x="286.17" y="146.9381">incremental update</text></g><!--link EX to STORE--><g class="link" data-entity-1="ent0002" data-entity-2="ent0003" data-link-type="dependency" data-source-line="245" id="lnk9"><path d="M285.17,276.1912 C285.17,300.5113 285.17,324.8713 285.17,347.8213" fill="none" id="EX-to-STORE" style="stroke:#585858;stroke-width:2;"/><polygon fill="#585858" points="285.17,352.8213,289.17,343.8213,285.17,347.8213,281.17,343.8213,285.17,352.8213" style="stroke:#585858;stroke-width:2;stroke-linejoin:miter;stroke-miterlimit:10;"/><text fill="#181818" font-family="sans-serif" font-size="13" lengthAdjust="spacing" textLength="41.7041" x="286.17" y="319.1281">upsert</text></g><!--link STORE to LOW--><g class="link" data-entity-1="ent0003" data-entity-2="ent0004" data-link-type="dependency" data-source-line="246" id="lnk10"><path d="M234.18,431.4113 C202.83,455.0313 167.0236,482.0028 136.9036,504.6928" fill="none" id="STORE-to-LOW" style="stroke:#585858;stroke-width:2;"/><polygon fill="#585858" points="132.91,507.7013,142.5053,505.4809,136.9036,504.6928,137.6917,499.0911,132.91,507.7013" style="stroke:#585858;stroke-width:2;stroke-linejoin:miter;stroke-miterlimit:10;"/><text fill="#181818" font-family="sans-serif" font-size="13" lengthAdjust="spacing" textLength="65.9839" x="193.57" y="474.0181">local facts</text></g><!--link STORE to HIGH--><g class="link" data-entity-1="ent0003" data-entity-2="ent0005" data-link-type="dependency" data-source-line="247" id="lnk11"><path d="M285.17,431.2213 C285.17,454.9213 285.17,480.0913 285.17,502.8613" fill="none" id="STORE-to-HIGH" style="stroke:#585858;stroke-width:2;"/><polygon fill="#585858" points="285.17,507.8613,289.17,498.8613,285.17,502.8613,281.17,498.8613,285.17,507.8613" style="stroke:#585858;stroke-width:2;stroke-linejoin:miter;stroke-miterlimit:10;"/><text fill="#181818" font-family="sans-serif" font-size="13" lengthAdjust="spacing" textLength="106.5454" x="286.17" y="474.0181">abstract themes</text></g><!--link LOW to MIX--><g class="link" data-entity-1="ent0004" data-entity-2="ent0006" data-link-type="dependency" data-source-line="248" id="lnk12"><path d="M115.72,577.0713 C131.46,596.3013 147.7135,616.1518 162.1735,633.8218" fill="none" id="LOW-to-MIX" style="stroke:#585858;stroke-width:2;"/><polygon fill="#585858" points="165.34,637.6913,162.7358,628.1929,162.1735,633.8218,156.5446,633.2594,165.34,637.6913" style="stroke:#585858;stroke-width:2;stroke-linejoin:miter;stroke-miterlimit:10;"/></g><!--link HIGH to MIX--><g class="link" data-entity-1="ent0005" data-entity-2="ent0006" data-link-type="dependency" data-source-line="249" id="lnk13"><path d="M257.33,577.0713 C241.43,596.3013 224.9948,616.1668 210.3948,633.8368" fill="none" id="HIGH-to-MIX" style="stroke:#585858;stroke-width:2;"/><polygon fill="#585858" points="207.21,637.6913,216.0262,633.301,210.3948,633.8368,209.8591,628.2053,207.21,637.6913" style="stroke:#585858;stroke-width:2;stroke-linejoin:miter;stroke-miterlimit:10;"/></g><!--link MIX to LLM--><g class="link" data-entity-1="ent0006" data-entity-2="ent0007" data-link-type="dependency" data-source-line="250" id="lnk14"><path d="M186.17,690.7013 C186.17,712.5313 186.17,738.9713 186.17,762.1313" fill="none" id="MIX-to-LLM" style="stroke:#585858;stroke-width:2;"/><polygon fill="#585858" points="186.17,767.1313,190.17,758.1313,186.17,762.1313,182.17,758.1313,186.17,767.1313" style="stroke:#585858;stroke-width:2;stroke-linejoin:miter;stroke-miterlimit:10;"/><text fill="#181818" font-family="sans-serif" font-size="13" lengthAdjust="spacing" textLength="98.6997" x="187.17" y="733.5081">dual-level pack</text></g><?plantuml-src lLdhJXjB4lxlf-Zuh1IJu0ktN0n1iWq9Q0rcRL0IRLPHUwPjZvZRwMuRVA98-n3xBll_FCfvalsgksSy63k04kqWWQck_gQwxjL-_kwddj9pTY6JcKZON__-3xi8UQolphfCJqGaM2KCnXEz0PuF8XOoy3PP47lXrEV3K5YU6liW-P05cjq4Uj84AsFFB9DW4wrJrQpN9R-fZR4y7KwLa5uIQn7hcfT4zTIyk-hnUk235kXvFU91xEYrT1g5W3pYyffvF9vnrMI0O6wR3xhXOHN58M_4FPceJMR-aGbaz98mcKgrKQDpyb1eZGKn4bB4dcYQPQbgaLzZvmbx3y7EQMkWc1BwZaQUA-QB4P-66aWZC18JHF7tWSUz2MYITQIWbqQ97um28HMhbCjH4YVbyYPxyMAOXFwB5vkiNWyq3mElNjymM19A3ODOC16b4ww06yHA2-wpP6IK7CHZ-ijk9eJk1tmiUSHqmX9i6d5Fu7G_wGKGf5gjihRaiSzIfwZg4vxIix-rkwtEts5-zewLVzjwGpzba3-Ud5uUP-JtBVeXyeT-wpFBo6_Cav6_RZlotXlwoSaxZjpURU-qTtBohYCVxntl7k-MIw2VjKxFS_16O-_zw_TbHyvH6etNhzuU4RdLlMG5xdQhyygHlsujoA_Qhnk6tEaSdrywSgTzrDvkBSZOOCwpzUQeqJ2Y7FVxlJxBsRSR3OCok0B_O921lztRsGRxyvyEvdx1wuq3An71WobqdLchFY9v9k3obtpCU3ndSO9OfV0bBmD6nBKt8QSxE80VmgVrF1M7XwoIcj2HmjzWy5eAH79B6tNEYMic0nmSy3J53ZoZG2fTJRdKSmOYgpCvXJo8CgI2MU09vXvdimeyFzp8KDGyzWZdzwcO2kmLCsI9gay7YF7la7lNOvbCuRJPuyo3r1M936QIA6saeG_ObePS8-uYV4nI8Rd6QOQ4mkKyWx4-KV7cFCvWF6ZL9nnn2xN4FCH-FGcaxuvNPv3A1zRYSUvSKNXZBeu_jAfXU3V2NLCkmcQbmOFVYHHi-N6ElaZ8X0DJ99AWHZm8fv8mVA6qd7eQ-g7_U3mMK8_ASPmtLiY6lo9fj1S6IE9mJjQxrSx_M2X6cj8KEObBdkQOcKjjb9w1J9clq-ls-bzR5nSaemlOvSN1v_CE5ct4BIsUz0QNTYS5xz9YfzkxEiAYpIPBYqTjenUNF9OMdRPSs2wTzoNoSG23qOatYsdS5rx8uLH14YjeXL6LGXY4eShX1vUVkyTBvzqdeEP7mbpYktk0zNntnIto_OB4Cd1vX75utKqMz9HX0bFEgHvwM0k4puPp5kPYOM-5IX_vOuByOpvmDQ4imXMx4M58VwtFe7Odr4oeANB3J2Xi7ainLnvo5wFQPDcgG-3xR1Q86-If6kl5BWrHI37XZyKc2M4biocf1ULy_9eN1hGGGKJX3eT4Zfb8b6d4oGGfQevCgIU5JRsBozFUUQlB63SUB4KLESnyKDD8c0_QG2KfMPs7XSrv_Yz4ALePJuHBuQfHUrL0-mkx_t5rV6MAfpcBoJac9qBGsAycen5qcxlafasF35tMHW73kGyUCfaIYl55jaDuydYHqDGSuHbXyvNYOpH8h5LKN9irtIlgZ7jMr9zqhCo3bynJ_QVpzarodNzL3vSOSvCi6ArptMVD3G1M6nbhC7DTWz4My3MCkK8BBpSEdVExTgehnjn3sGi3JcglN8jKauE32sxg6Zd5heL8sKqYh-7B6ynsKtVoa57BchI8EhKwxRb2k3fXPks7QpsMLarlbkNBVEsYTNbYHK7HywvZeTIxdRkhdTxPMQ-ulhNORgfLbmz5MBdTO0UczMuwYnmU30zl3-h3muEweIyqhgQU1w1x-wpSw_VvmtjRx7dkRt76weI2OyWnYI6WY5IFRO1B2fP32u2c73DDYguyrWCz3sdKy3HgS2WAB2dY5R6rdi6Loai4PGlrFeueu3n1yLygeIF3liCImtoJQFQjH7uuc70_eKo871CgiM-8DCrqw8JCTkQMkYXWRisqvtQj2yKvgkrRYFozX5yOp4BJb7mhmf8lx1l28FX3iEt6FhYHPRZ9WalC3j7YsHhoRVrRBVaoyoEsLTjRVoe36IUenTzMdz5sJwiFkVCZRVKjY2I_U6DVnT3MZD7chNlN3_Jvr5VXbtNDur2G4rIfQShS0-c4nayq8UY4uwJGLhdnrMGICaVcakiaDcQqIub4Od9aP9PxyXOEbvjzQ_V-0RQS4I-uxvDRRZKovPaoHZFhEcdorzuHPY7ZQWTWTeXvs2PtK1-sojDEkPq9auVrhvVelW0svgJ__tgNppKVeg3zCDgsrnXnnGiVwrHv029lXyAp_VKFV3fxrUEzci3Hru3s9ESq5mLFy29wZHrerxt6bEvLRtAN34_EMMPqVLhAMgMfB0m9SYJfgknU3byPgGlY7PVAiuAhYKz4CrBONkhRqwJFCwkvBbcaJlNuEoy3SM4kH6Z0HJWaCv7FW0S7lqt4xU5XazRcvZPn8OWPdPG1-1BRIMae1Rz6Ii-ssvQbLZlCxXJz1CAXncriMaJm-mQ1gsm0uzfCsdGjWpa24n3DIuxPT0qmMHAPIyCqDBU6ZDNeIkR1kh0wMEzh-xj1DFF98pnxjViMKGlURg3DzSr3eVamRBU8-SF8AAQo1vLGx9a0x0yVquuyAEqIgkcYrm6RKUUHqkQytqi7TTTKsZQlItTC_TO7CzmVJNbOxMBe2-cYFvsmb-mqzgJfHp0ldiQ-k3LtwnYyc_dM9Xi4KUf6zlSSLkjZGWx4362jwPWsetKnNofmD_5UzRjDkg5pNnbmUHlCQeaSr_bGrRTtjngrnjxhrs_1QQHfCemMYzQcV2vkC9HEKnGd87kJQNojoXGSdUmoicGjJK-vspsZcLSYsN-9pVSE0SBh9G8bjFSsN-AA2am1JxbI6mRf-DFY3h2K5q5MplGo4rGwQ6kE-ET_pMM4-K3NCHPeSDdh7xjxmE8PkibDDJIgbfcsd7HpSrUWUH3Qora3q-rzpEysYp0dCC9z7FkDJXq3Vnfu1PIJqmydAs7EX4H6zc5_PhwnkTM6_-pqqpgDZgqz4sd50sMXhrBdpl0CNJRfkwJSaQpbIg0NRWAieffOL4Bgalsti4uQQB8myG20dbAh-opcU4q69pBMjbzQgHBjB73XK2N3kKIZmnR5fZCrZKwSWgbmbKfczXWcMbDw7Lcn4Lbz4IKqHXe7GLGyLsmY-6nEBNaqZM5MCAbf574P_67yRX_7cC67y0Sn4r1mmGitgUcYrz5bDRlwP3DxKNj1J0fIjH8D9YJD_m00?></g></svg>