<svg xmlns="http://www.w3.org/2000/svg" xmlns:xlink="http://www.w3.org/1999/xlink" contentStyleType="text/css" data-diagram-type="DESCRIPTION" height="1028px" preserveAspectRatio="none" style="width:736px;height:1028px;background:#FAFAFA;" version="1.1" viewBox="0 0 736 1028" width="736px" zoomAndPan="magnify"><?plantuml 1.2026.6?><defs><filter height="300%" id="fzkrl1hcpdtm3" width="300%" x="-1" y="-1"><feGaussianBlur result="blurOut" stdDeviation="2"/><feColorMatrix in="blurOut" result="blurOut2" type="matrix" values="0 0 0 0 0 0 0 0 0 0 0 0 0 0 0 0 0 0 .4 0"/><feOffset dx="4" dy="4" in="blurOut2" result="blurOut3"/><feBlend in="SourceGraphic" in2="blurOut3" mode="normal"/></filter></defs><g><rect fill="#FAFAFA" height="1028" style="stroke:none;stroke-width:1;" width="736" x="0" y="0"/><g class="title" data-source-line="231"><rect fill="none" height="33.2813" style="stroke:#585858;stroke-width:1;" width="610.7227" x="59.4908" y="5"/><text fill="#005F7F" font-family="sans-serif" font-size="20" font-weight="700" lengthAdjust="spacing" textLength="600.7227" x="64.4908" y="28.5645">Microsoft GraphRAG &#8212; Local &#8594; Global Summarization</text></g><!--entity C--><g class="entity" data-qualified-name="C" data-source-line="237" id="ent0001"><rect fill="#005F7F" filter="url(#fzkrl1hcpdtm3)" height="52.5938" rx="6" ry="6" style="stroke:#00BAC6;stroke-width:0.5;" width="123.3184" x="481.88" y="51.2813"/><text fill="#FAFAFA" font-family="sans-serif" font-size="14" font-style="italic" lengthAdjust="spacing" textLength="43.4834" x="521.7975" y="74.2764">&#171;app&#187;</text><text fill="#FAFAFA" font-family="sans-serif" font-size="14" lengthAdjust="spacing" textLength="103.3184" x="491.88" y="90.5732">Corpus chunks</text></g><!--entity EX--><g class="entity" data-qualified-name="EX" data-source-line="238" id="ent0002"><rect fill="#585858" filter="url(#fzkrl1hcpdtm3)" height="68.8906" rx="6" ry="6" style="stroke:#585858;stroke-width:0.5;" width="151.1406" x="467.97" y="180.8713"/><text fill="#FAFAFA" font-family="sans-serif" font-size="14" font-style="italic" lengthAdjust="spacing" textLength="55.043" x="516.0188" y="203.8664">&#171;cloud&#187;</text><text fill="#FAFAFA" font-family="sans-serif" font-size="14" lengthAdjust="spacing" textLength="131.1406" x="477.97" y="220.1632">LLM entity/relation</text><text fill="#FAFAFA" font-family="sans-serif" font-size="14" lengthAdjust="spacing" textLength="71.2373" x="507.9217" y="236.4601">extraction</text></g><!--entity KG--><g class="entity" data-qualified-name="KG" data-source-line="239" id="ent0003"><path d="M472.34,336.7613 C472.34,326.7613 543.5353,326.7613 543.5353,326.7613 C543.5353,326.7613 614.7306,326.7613 614.7306,336.7613 L614.7306,394.6519 C614.7306,404.6519 543.5353,404.6519 543.5353,404.6519 C543.5353,404.6519 472.34,404.6519 472.34,394.6519 L472.34,336.7613" fill="#E5E4E4" filter="url(#fzkrl1hcpdtm3)" style="stroke:#585858;stroke-width:0.5;"/><path d="M472.34,336.7613 C472.34,346.7613 543.5353,346.7613 543.5353,346.7613 C543.5353,346.7613 614.7306,346.7613 614.7306,336.7613" fill="none" style="stroke:#585858;stroke-width:0.5;"/><text fill="#181818" font-family="sans-serif" font-size="14" font-style="italic" lengthAdjust="spacing" textLength="34.9043" x="526.0832" y="363.7564">&#171;db&#187;</text><text fill="#181818" font-family="sans-serif" font-size="14" lengthAdjust="spacing" textLength="122.3906" x="482.34" y="380.0532">Knowledge graph</text><text fill="#181818" font-family="sans-serif" font-size="14" lengthAdjust="spacing" textLength="105.1572" x="490.9567" y="396.3501">nodes + edges</text></g><!--entity COM--><g class="entity" data-qualified-name="COM" data-source-line="240" id="ent0004"><rect fill="#CBDB2A" filter="url(#fzkrl1hcpdtm3)" height="52.5938" rx="6" ry="6" style="stroke:#818D00;stroke-width:0.5;" width="161.5859" x="376.74" y="481.6513"/><text fill="#181818" font-family="sans-serif" font-size="14" font-style="italic" lengthAdjust="spacing" textLength="57.8594" x="428.6033" y="504.6464">&#171;async&#187;</text><text fill="#181818" font-family="sans-serif" font-size="14" lengthAdjust="spacing" textLength="141.5859" x="386.74" y="520.9432">Leiden communities</text></g><!--entity SUM--><g class="entity" data-qualified-name="SUM" data-source-line="241" id="ent0005"><path d="M316.02,673.1413 C316.02,663.1413 413.5405,663.1413 413.5405,663.1413 C413.5405,663.1413 511.061,663.1413 511.061,673.1413 L511.061,731.0319 C511.061,741.0319 413.5405,741.0319 413.5405,741.0319 C413.5405,741.0319 316.02,741.0319 316.02,731.0319 L316.02,673.1413" fill="#E5E4E4" filter="url(#fzkrl1hcpdtm3)" style="stroke:#585858;stroke-width:0.5;"/><path d="M316.02,673.1413 C316.02,683.1413 413.5405,683.1413 413.5405,683.1413 C413.5405,683.1413 511.061,683.1413 511.061,673.1413" fill="none" style="stroke:#585858;stroke-width:0.5;"/><text fill="#181818" font-family="sans-serif" font-size="14" font-style="italic" lengthAdjust="spacing" textLength="34.9043" x="396.0884" y="700.1364">&#171;db&#187;</text><text fill="#181818" font-family="sans-serif" font-size="14" lengthAdjust="spacing" textLength="135.8369" x="345.6221" y="716.4332">Community reports</text><text fill="#181818" font-family="sans-serif" font-size="14" lengthAdjust="spacing" textLength="175.041" x="326.02" y="732.7301">(hierarchical summaries)</text></g><!--entity LOC--><g class="entity" data-qualified-name="LOC" data-source-line="242" id="ent0006"><rect fill="#00BAC6" filter="url(#fzkrl1hcpdtm3)" height="68.8906" rx="6" ry="6" style="stroke:#006B70;stroke-width:0.5;" width="162.3242" x="557.38" y="564.2413"/><text fill="#181818" font-family="sans-serif" font-size="14" font-style="italic" lengthAdjust="spacing" textLength="47.3525" x="614.8658" y="587.2364">&#171;host&#187;</text><text fill="#181818" font-family="sans-serif" font-size="14" lengthAdjust="spacing" textLength="87.7939" x="594.6451" y="603.5332">Local search</text><text fill="#181818" font-family="sans-serif" font-size="14" lengthAdjust="spacing" textLength="142.3242" x="567.38" y="619.8301">entity neighborhood</text></g><!--entity GLOB--><g class="entity" data-qualified-name="GLOB" data-source-line="243" id="ent0007"><rect fill="#00BAC6" filter="url(#fzkrl1hcpdtm3)" height="68.8906" rx="6" ry="6" style="stroke:#006B70;stroke-width:0.5;" width="195.0752" x="7" y="818.0313"/><text fill="#181818" font-family="sans-serif" font-size="14" font-style="italic" lengthAdjust="spacing" textLength="47.3525" x="80.8613" y="841.0264">&#171;host&#187;</text><text fill="#181818" font-family="sans-serif" font-size="14" lengthAdjust="spacing" textLength="95.9219" x="56.5767" y="857.3232">Global search</text><text fill="#181818" font-family="sans-serif" font-size="14" lengthAdjust="spacing" textLength="175.0752" x="17" y="873.6201">map-reduce over reports</text></g><!--entity LLM--><g class="entity" data-qualified-name="LLM" data-source-line="244" id="ent0008"><path d="M326.87,957.2013 C329.0894,950.5212 335.0437,951.3048 338.6138,955.7792 C342.9575,948.959 347.0539,950.1798 351.1772,955.9983 C354.3178,950.862 358.4318,950.5469 362.057,955.4744 C365.6137,948.4872 370.33,949.3936 374.5298,954.8287 C379.0178,949.2486 383.4429,951.0646 385.9452,956.8272 C390.5888,949.8373 394.917,951.4039 399.1961,957.2047 C402.2523,952.5081 407.7203,952.2322 410.807,957.1679 C415.3095,951.8191 420.2623,952.2358 424.0403,958.0284 C430.0297,961.8527 429.2065,966.2776 423.6049,969.6682 C429.024,973.0317 430.1949,976.3973 424.8524,980.9507 C429.5785,984.825 430.9052,988.9843 424.6337,992.6531 C429.9194,996.433 427.7853,1001.4774 422.8821,1003.6318 C420.061,1008.9816 414.8058,1011.063 410.786,1004.8901 C408.4998,1011.3258 402.818,1011.2546 399.3903,1006.0032 C395.3542,1011.6467 390.6367,1010.167 387.5932,1004.9273 C384.7801,1012.319 379.4281,1013.0368 374.045,1007.6526 C369.7615,1013.61 365.3527,1013.5172 361.9799,1006.7865 C357.959,1011.4539 353.0787,1011.0856 351.0539,1004.7961 C347.9165,1011.2053 342.8329,1011.1036 339.0005,1005.4931 C334.4686,1010.8148 328.5183,1010.0477 325.4406,1003.7902 C319.2562,1000.9431 318.9481,996.3918 323.4318,991.7629 C317.7156,989.687 316.5322,985.4704 320.395,980.7525 C315.5118,976.3461 316.5694,971.6336 322.5884,969.3184 C317.6955,963.9187 319.1968,958.1608 326.87,957.2013" fill="#585858" filter="url(#fzkrl1hcpdtm3)"/><text fill="#FAFAFA" font-family="sans-serif" font-size="14" font-style="italic" lengthAdjust="spacing" textLength="55.043" x="346.0157" y="975.9164">&#171;cloud&#187;</text><text fill="#FAFAFA" font-family="sans-serif" font-size="14" lengthAdjust="spacing" textLength="82.6943" x="332.19" y="992.2132">LLM answer</text></g><g class="entity" data-qualified-name="GMN17" data-source-line="256" id="ent0018"><path d="M237.36,824.7713 L237.36,880.1697 A0,0 0 0 0 237.36,880.1697 L589.7204,880.1697 A0,0 0 0 0 589.7204,880.1697 L589.7204,834.7713 L579.7204,824.7713 L417.54,824.7713 L413.54,741.2913 L409.54,824.7713 L237.36,824.7713 A0,0 0 0 0 237.36,824.7713" fill="#E5E4E4" filter="url(#fzkrl1hcpdtm3)" style="stroke:#B4B3B3;stroke-width:0.5;"/><path d="M579.7204,824.7713 L579.7204,834.7713 L589.7204,834.7713 L579.7204,824.7713" fill="#E5E4E4" style="stroke:#B4B3B3;stroke-width:0.5;"/><text fill="#181818" font-family="sans-serif" font-size="13" lengthAdjust="spacing" textLength="231.626" x="293.2272" y="841.8381">Strength: global / thematic queries.</text><text fill="#181818" font-family="sans-serif" font-size="13" lengthAdjust="spacing" textLength="267.6553" x="275.2125" y="856.971">Cost: expensive LLM indexing; later work</text><text fill="#181818" font-family="sans-serif" font-size="13" lengthAdjust="spacing" textLength="331.3604" x="243.36" y="872.1038">(LightRAG, LazyGraphRAG, KET-RAG) cuts that bill.</text></g><!--link C to EX--><g class="link" data-entity-1="ent0001" data-entity-2="ent0002" data-link-type="dependency" data-source-line="246" id="lnk9"><path d="M543.54,104.1013 C543.54,125.6912 543.54,151.7713 543.54,175.4312" fill="none" id="C-to-EX" style="stroke:#585858;stroke-width:2;"/><polygon fill="#585858" points="543.54,180.4312,547.54,171.4312,543.54,175.4312,539.54,171.4312,543.54,180.4312" style="stroke:#585858;stroke-width:2;stroke-linejoin:miter;stroke-miterlimit:10;"/><text fill="#181818" font-family="sans-serif" font-size="13" lengthAdjust="spacing" textLength="35.7944" x="544.54" y="146.9381">index</text></g><!--link EX to KG--><g class="link" data-entity-1="ent0002" data-entity-2="ent0003" data-link-type="dependency" data-source-line="247" id="lnk10"><path d="M543.54,249.9913 C543.54,272.7313 543.54,297.8113 543.54,321.4613" fill="none" id="EX-to-KG" style="stroke:#585858;stroke-width:2;"/><polygon fill="#585858" points="543.54,326.4613,547.54,317.4613,543.54,321.4613,539.54,317.4613,543.54,326.4613" style="stroke:#585858;stroke-width:2;stroke-linejoin:miter;stroke-miterlimit:10;"/><text fill="#181818" font-family="sans-serif" font-size="13" lengthAdjust="spacing" textLength="55.415" x="544.54" y="292.8281">write KG</text></g><!--link KG to COM--><g class="link" data-entity-1="ent0003" data-entity-2="ent0004" data-link-type="dependency" data-source-line="248" id="lnk11"><path d="M520.04,405.0313 C505.12,429.3613 488.8329,455.9083 475.7529,477.2483" fill="none" id="KG-to-COM" style="stroke:#818D00;stroke-width:2;"/><polygon fill="#818D00" points="473.14,481.5113,481.2536,475.9283,475.7529,477.2483,474.4329,471.7476,473.14,481.5113" style="stroke:#818D00;stroke-width:2;stroke-linejoin:miter;stroke-miterlimit:10;"/><text fill="#181818" font-family="sans-serif" font-size="13" lengthAdjust="spacing" textLength="44.2114" x="501.54" y="447.7181">cluster</text></g><!--link COM to SUM--><g class="link" data-entity-1="ent0004" data-entity-2="ent0005" data-link-type="dependency" data-source-line="249" id="lnk12"><path d="M431.32,534.5513 C424.14,543.2313 417.3,553.4713 413.54,564.2413 C402.41,596.0913 403.0482,629.7452 406.3382,657.8252" fill="none" id="COM-to-SUM" style="stroke:#585858;stroke-width:2;"/><polygon fill="#585858" points="406.92,662.7913,409.8455,653.3869,406.3382,657.8252,401.8999,654.3179,406.92,662.7913" style="stroke:#585858;stroke-width:2;stroke-linejoin:miter;stroke-miterlimit:10;"/><text fill="#181818" font-family="sans-serif" font-size="13" lengthAdjust="spacing" textLength="124.2046" x="414.54" y="603.2581">community reports</text></g><!--link KG to LOC--><g class="link" data-entity-1="ent0003" data-entity-2="ent0006" data-link-type="dependency" data-source-line="250" id="lnk13"><path d="M559.33,405.1113 C577.59,449.4913 605.4375,517.2174 622.8175,559.4574" fill="none" id="KG-to-LOC" style="stroke:#585858;stroke-width:1;stroke-dasharray:1,3;"/><polygon fill="#585858" points="624.72,564.0813,624.9945,554.2362,622.8175,559.4574,617.5963,557.2803,624.72,564.0813" style="stroke:#585858;stroke-width:1;stroke-linejoin:miter;stroke-miterlimit:10;"/><text fill="#181818" font-family="sans-serif" font-size="13" lengthAdjust="spacing" textLength="87.0137" x="577.98" y="447.7181">entity-centric</text></g><!--link SUM to GLOB--><g class="link" data-entity-1="ent0005" data-entity-2="ent0007" data-link-type="dependency" data-source-line="251" id="lnk14"><path d="M333.56,741.4913 C284.47,765.0613 226.6971,792.8065 179.4771,815.4865" fill="none" id="SUM-to-GLOB" style="stroke:#585858;stroke-width:2;"/><polygon fill="#585858" points="174.97,817.6513,184.8146,817.3603,179.4771,815.4865,181.3509,810.149,174.97,817.6513" style="stroke:#585858;stroke-width:2;stroke-linejoin:miter;stroke-miterlimit:10;"/><text fill="#181818" font-family="sans-serif" font-size="13" lengthAdjust="spacing" textLength="131.7964" x="269.3" y="784.0981">corpus-wide themes</text></g><!--link LOC to LLM--><g class="link" data-entity-1="ent0006" data-entity-2="ent0008" data-link-type="dependency" data-source-line="252" id="lnk15"><path d="M645.19,633.4113 C654.64,691.5913 664.99,811.8313 607.54,886.9213 C565.27,942.1513 489.7789,963.2221 435.1389,971.8421" fill="none" id="LOC-to-LLM" style="stroke:#585858;stroke-width:2;"/><polygon fill="#585858" points="430.2,972.6213,439.7134,975.1699,435.1389,971.8421,438.4667,967.2676,430.2,972.6213" style="stroke:#585858;stroke-width:2;stroke-linejoin:miter;stroke-miterlimit:10;"/></g><!--link GLOB to LLM--><g class="link" data-entity-1="ent0007" data-entity-2="ent0008" data-link-type="dependency" data-source-line="253" id="lnk16"><path d="M177.69,887.3913 C221.56,907.7413 271.984,931.1178 312.504,949.9078" fill="none" id="GLOB-to-LLM" style="stroke:#585858;stroke-width:2;"/><polygon fill="#585858" points="317.04,952.0113,310.5579,944.5962,312.504,949.9078,307.1924,951.8539,317.04,952.0113" style="stroke:#585858;stroke-width:2;stroke-linejoin:miter;stroke-miterlimit:10;"/></g><?plantuml-src lLdhJXjB4lxlf-Z3MIbs3hvmoUKOWcGRGw8OpC6WRBHPHUsPjZrYF3sdkmquKQJzjG-msYSyJx9VTVUC1sC7KA8TIp2khggkhgwxdxtveQVqZ9qfUIqa--jV_sLdCK_CvKcFcOcO2bQEe_74L81pB1AXec2JHKaGpq8-Z8N3gR5ZnOSiCkmcCfCcK1dxnI49DZ4crSrwNV6RsXZBi-5C2nN8n8Z4r08vhQTsxsh0wr48M6JczIcF4W-lfRDf39Q7N5snW2VNN3SPM31F5W9kSLXPSyWxvO6IUfFPBqf2na36SgPqfKRdvB4m1WjY99H80j6qoqhNfc6DdKfs1C5EYJJIJ0jpHoFFD0l5YCzY0quZ818IH0dtm8y74y0KwoX1cqvb68qYeJGhRsnCPI8tDZRPy-T36OVFds-oUZqoF8w2UhrYUIaeDOuImSGqdN0Dlb6YZU0XaoEhv2WPqtzsCo7kOSJ7Ya-PaKo2QCG3WTFze1L0a6grojgA9o5BlQAgJtXAl_ojtMjrtkFwsHksyUlMQ_fi0FpXxRkBRWO-Qj67mCVdhOyi0x-sJmR-lEt1BrxJ9mVlU71xjxtJtid1knxSVT7TxUvkb00_QRqxpPat6Y-ENXrjU73EfT5uzVBtGmAtUXUiWDrkTLvwyEUj1VXb-rN3WZkTxkc51tVQX-tjrW8C0dkUhTU7ZOOLfNj-tZzdEVfses6v32w1FnXap7z_iRCDz6S_xCpd1Qkt1gp551PChkkljHh2awy5JFw2ZnbFvYoHy5LoNx8oy9Xo4qp8wFRtOOUmQJDFnS41AwVMTPG8AmnMIuv8PkcypXjnpKQ0_NsUfg30CugKDjMKApDd0B8wKpF80oz3ABYE0i7yu--i3CkFAnaNFKy2ulFdJCm4QCKreaGrf0Ca-3hamTLOoHcCDdlyzI1qJKN6PYAriTBG2yZIc1lutHIlCXMA6vncI5ouccTid4sKWpbFCZO1j1eI7t4BjIGy1hsPH2hqnwipI1M2r-BnvbpMs34N9nmwrJ3i3NSt58j0h0rmy5SgmPOVR-YBW4nyS1LI4QiHZ-AP8XwXq4RD0WFzq3UUZ0NKetC-tXhBT8S_8sYq5nSWatXEjtThlFsnM8mCXIao4XyyxJ4pawgKVW6O8b-dt-kVVswTdP6Ctc6N5mSVJpjOT1wtjFYsFxXmbEIyIukTNl_o48ikcYmj7hQjNdpmM5hqsl9kktJUtn2F8rmOdNYp6CP34SGSHXN9H4ChZB8Kt22ETSv-SF6nrrqwxnunQduWdajuTm-m7k-kk4Mydn1O1ZwEC0whkycSdY9CPDCvvSC0Qv48sN3Eubmiq9OfzP4zIiGV-yBrXA88r-n6n37zTpQ3t2sfcD0pn8PheK4yLcAk0yGkHhd9eLM7u1-owqZS84xLM3_nOOXSYebmB3P922UP2qajAEV3vpmne8I8fkJkC4Z4c8b2ceQVJ12YveYKPb8WwfzTlEkVjdgCSMl1IbGHm-oBdas5VJ6MbKpfrdbS8CxZVy5BKSe48bvoLuFSgoEYBr3_STczjCdJdiN671iJ8MWILkLe1Dtc9hdfmYD3bLKfyF3cWuUkJ0lD-2BQmJrviWXeUWxtd8BuKlCn2YJMAYgkpPf-YphZWHFr1mqhi-2bwwd-mrlx9fdEFwi7IuZvbImGdN7THyql0AZECzRmp7KDH9V0ro3c2YriRWqwn_VbL4-CUO2q5qUSr5w-4gaX0mSMpDGNSffT2P6o6wckOCiLvggfEt78gcLDM4IUMXtsV29S7J2pyiEN7akhjZRBucM-TjQwUEj4GT8BhXAXzPkTkwkT_ib9lxY-jI2tsQh7Xo8ktrROlYszc_v63lQ71xVxzU71Vjt25nhNio00etjqJkxrTE7m7eaxptqIVrcTM70qEJOmHEIH-h45S4dZvb02e2X7JvEYAa_CmCnZQZK2WnmSYm9A2d-5Rwr7yAdo0axPGhvFfkHmWI3_BvLGaO7keCJGtqZ3lfR83WSJ7agAX8WniHPx5aZTJ8TEo5nbxg2B1ERNR7dkrdfGd8UwkeN0tqhuWyOijaN9ro9RieKz2nX4NmJRRkm16r66soYuXEmvEdukXtnTlwi3NsHsnBPgBzQVoh9C97BnrzLdTDNJwaFkV4zRvuw98hjuxRPYA6l6AFFMxVKTVJvrA_nnfjcD1Hb1bOgcp3mGJgZzH162IZYHXRBAjwysaj1rP2QvJc9xZMv9AWGc3qPakITluN3vjM_jtZ_0bh_4Cnw6P9PRZKnvDerHpxfEcdpREy8iP5nj0CmrCG_VoHsk3z_AqqwvdGcJk_NFb-Y-0CxdLFZ_sYlaXW-HqBxhRTjhBd75Xeyrgjm14RTZ4RZw-ZisdMtrUAicvgXh07kISTf1mHEiYBPn3UswRMpgNhMJ7p8yEMRPrlLf8MkLfZ8t99OZHQEoUp5yfQSkW7TCAeyAFYS-aPkLmjLINvycVHvPxRXa4JhrusTUbiMP7OXGWmjtaDSYxm7tzt-TYDk3WoQjpUqqSI68RPsqPV0fSPtIK0b-XP2UaRkIfLOxo6QAeOHmo76LJSSH-A7bm7NMW75ZEsqQow2FG0T4_P97jbK3hanExT0mZUtKaB4QZMGUp0khdVM-jhzPZhO_UOHbhpRV8jU2jLlMTdppa6i-pBPNvFbTpoY6iWULKAoPm3WSFgOSUL3Q9QwsYbx7sBOwZvGsn_rMsg_xejALUISHsQSS6HhjfvFprh5jytiIJJZxwz__OSUn7E9rC9kYWuw-SD-pdd4qtqrsH4RcaD5SEjmc-aZBZ16tLfegIJDphFyn4sfUFPA1BMQMMLwUzveqjlE_8t1r6rtNf1hN-L3NjtSRkxMjbrixZVkOxjS6-nF3D3jEVKmIA3u6UWzjBAH2Ux8eZpOGbjAPPi5abbpf3VAiJZR9BABrUYVC_rQXH6n5_PIWM5Uk9RQ4tRylveMbF66oZVU9l8bfFi6iC9yIAbiq-ytEBDoUxu_zYF3Ede9-7w5QRZfBq9ruNFHRYobfSP-EHoJVJwKo-bDIdaH2SHMWfgP6tsbQw8fbDBWyMRMhlKKjYEfJuixC4X6D9qEf9bA6bhRNx-GprYArDvECVChJgXBXBF2HqWjcMHpt-kq23-kIz5XTyqJV2EMswfqKz5hgt6d8eVCcOc4eRajuBGmKeD4ckr4qh7j_NCAtOhzFAcmYFyue2vJeMu6IrDBCjPuhSy4ZdqEG4fhUBAhKhAaeA15vWPiz9R4ZCwlUu4RTRsYwHDJ5e-2S9Okz32pPDcSeZQ58FY81uS83eqGoDfCc6pkTrorZJkCw51fqpHJiEr0lPBnDHQ9fuaJQjFf2yRh7Q4Ajx1W2gEKU3PhXh9kinx_Ciq2moTvtBwfugR1WXXR4J91qXb4SrqhK4f5m_mC0?></g></svg>