<svg xmlns="http://www.w3.org/2000/svg" xmlns:xlink="http://www.w3.org/1999/xlink" contentStyleType="text/css" data-diagram-type="DESCRIPTION" height="714px" preserveAspectRatio="none" style="width:631px;height:714px;background:#FAFAFA;" version="1.1" viewBox="0 0 631 714" width="631px" zoomAndPan="magnify"><?plantuml 1.2026.6?><defs><filter height="300%" id="f1gqia9y60d4c6" width="300%" x="-1" y="-1"><feGaussianBlur result="blurOut" stdDeviation="2"/><feColorMatrix in="blurOut" result="blurOut2" type="matrix" values="0 0 0 0 0 0 0 0 0 0 0 0 0 0 0 0 0 0 .4 0"/><feOffset dx="4" dy="4" in="blurOut2" result="blurOut3"/><feBlend in="SourceGraphic" in2="blurOut3" mode="normal"/></filter></defs><g><rect fill="#FAFAFA" height="714" style="stroke:none;stroke-width:1;" width="631" x="0" y="0"/><g class="title" data-source-line="231"><rect fill="none" height="33.2813" style="stroke:#585858;stroke-width:1;" width="604.2969" x="9.927" y="5"/><text fill="#005F7F" font-family="sans-serif" font-size="20" font-weight="700" lengthAdjust="spacing" textLength="594.2969" x="14.927" y="28.5645">OG-RAG &#8212; Ontology-Grounded Hypergraph Retrieval</text></g><!--entity ONT--><g class="entity" data-qualified-name="ONT" data-source-line="236" id="ent0001"><path d="M240.02,60.2813 C240.02,50.2813 323.9541,50.2813 323.9541,50.2813 C323.9541,50.2813 407.8882,50.2813 407.8882,60.2813 L407.8882,118.1719 C407.8882,128.1719 323.9541,128.1719 323.9541,128.1719 C323.9541,128.1719 240.02,128.1719 240.02,118.1719 L240.02,60.2813" fill="#E5E4E4" filter="url(#f1gqia9y60d4c6)" style="stroke:#585858;stroke-width:0.5;"/><path d="M240.02,60.2813 C240.02,70.2813 323.9541,70.2813 323.9541,70.2813 C323.9541,70.2813 407.8882,70.2813 407.8882,60.2813" fill="none" style="stroke:#585858;stroke-width:0.5;"/><text fill="#181818" font-family="sans-serif" font-size="14" font-style="italic" lengthAdjust="spacing" textLength="34.9043" x="306.5019" y="87.2764">&#171;db&#187;</text><text fill="#181818" font-family="sans-serif" font-size="14" lengthAdjust="spacing" textLength="119.8955" x="264.0063" y="103.5732">Domain ontology</text><text fill="#181818" font-family="sans-serif" font-size="14" lengthAdjust="spacing" textLength="147.8682" x="250.02" y="119.8701">(schema constraints)</text></g><!--entity EX--><g class="entity" data-qualified-name="EX" data-source-line="237" id="ent0002"><rect fill="#005F7F" filter="url(#f1gqia9y60d4c6)" height="68.8906" rx="6" ry="6" style="stroke:#00BAC6;stroke-width:0.5;" width="136.6621" x="123.63" y="205.1713"/><text fill="#FAFAFA" font-family="sans-serif" font-size="14" font-style="italic" lengthAdjust="spacing" textLength="43.4834" x="170.2194" y="228.1664">&#171;app&#187;</text><text fill="#FAFAFA" font-family="sans-serif" font-size="14" lengthAdjust="spacing" textLength="116.6621" x="133.63" y="244.4632">Ontology-guided</text><text fill="#FAFAFA" font-family="sans-serif" font-size="14" lengthAdjust="spacing" textLength="71.2373" x="156.3424" y="260.7601">extraction</text></g><!--entity HG--><g class="entity" data-qualified-name="HG" data-source-line="238" id="ent0003"><path d="M20.21,361.0613 C20.21,351.0613 90.9541,351.0613 90.9541,351.0613 C90.9541,351.0613 161.6983,351.0613 161.6983,361.0613 L161.6983,418.9519 C161.6983,428.9519 90.9541,428.9519 90.9541,428.9519 C90.9541,428.9519 20.21,428.9519 20.21,418.9519 L20.21,361.0613" fill="#E5E4E4" filter="url(#f1gqia9y60d4c6)" style="stroke:#585858;stroke-width:0.5;"/><path d="M20.21,361.0613 C20.21,371.0613 90.9541,371.0613 90.9541,371.0613 C90.9541,371.0613 161.6983,371.0613 161.6983,361.0613" fill="none" style="stroke:#585858;stroke-width:0.5;"/><text fill="#181818" font-family="sans-serif" font-size="14" font-style="italic" lengthAdjust="spacing" textLength="34.9043" x="73.502" y="388.0564">&#171;db&#187;</text><text fill="#181818" font-family="sans-serif" font-size="14" lengthAdjust="spacing" textLength="121.4883" x="30.21" y="404.3532">Hypergraph facts</text><text fill="#181818" font-family="sans-serif" font-size="14" lengthAdjust="spacing" textLength="114.7549" x="33.5767" y="420.6501">(schema-bound)</text></g><!--entity RET--><g class="entity" data-qualified-name="RET" data-source-line="239" id="ent0004"><rect fill="#00BAC6" filter="url(#f1gqia9y60d4c6)" height="52.5938" rx="6" ry="6" style="stroke:#006B70;stroke-width:0.5;" width="167.916" x="7" y="505.9513"/><text fill="#181818" font-family="sans-serif" font-size="14" font-style="italic" lengthAdjust="spacing" textLength="47.3525" x="67.2817" y="528.9464">&#171;host&#187;</text><text fill="#181818" font-family="sans-serif" font-size="14" lengthAdjust="spacing" textLength="147.916" x="17" y="545.2432">Constrained retrieval</text></g><!--entity LLM--><g class="entity" data-qualified-name="LLM" data-source-line="240" id="ent0005"><path d="M33.5249,645.6373 C36.1735,638.7789 42.3435,639.2541 46.249,644.293 C48.8338,637.9739 54.8217,638.8052 58.2165,643.4052 C61.4951,637.2557 65.7736,637.2265 69.6727,642.7988 C73.2075,638.884 77.8734,638.8095 79.9227,644.4005 C81.8885,637.8265 86.9726,636.5956 91.3348,642.1446 C95.4477,637.016 99.6207,636.8463 103.0445,642.8683 C107.5327,636.0545 111.692,636.607 115.7539,643.2703 C119.2303,638.6465 122.7662,637.7062 126.1702,643.3439 C129.9244,637.9996 135.6554,638.2313 139.1494,643.6574 C142.3746,637.8654 147.8512,637.7582 150.6398,644.0718 C157.354,646.8322 158.5519,651.1263 153.0052,656.2652 C160.574,658.9017 159.9711,664.1424 155.1976,668.9175 C159.7111,672.6231 158.5752,677.3829 152.9818,678.829 C157.9078,684.8222 156.5473,688.6897 149.0147,690.4181 C146.5506,695.1496 142.3507,695.6528 138.9905,691.4203 C136.2075,697.2657 130.7417,697.8591 127.0918,692.327 C124.0901,697.8113 119.6034,699.3142 115.2798,693.7388 C111.2437,699.3987 107.457,699.4527 103.5245,693.6328 C100.2845,698.2907 96.0786,697.655 93.1407,693.2854 C90.4156,698.8249 84.5858,698.6531 81.3827,693.8277 C78.0605,699.3164 72.0776,699.8729 69.2665,693.3137 C65.3329,698.7412 59.726,699.1286 56.8607,692.2378 C53.8721,696.7803 48.9092,695.6225 46.7705,691.2733 C42.5898,698.0818 38.3857,697.5019 34.2025,691.2757 C28.8134,688.7659 27.3945,684.7519 32.1847,680.3603 C25.9235,676.9579 26.4289,672.6504 31.4396,668.5376 C26.6479,662.9069 25.989,658.4338 34.0163,655.2979 C28.9661,652.4807 29.1717,648.9328 33.5249,645.6373" fill="#585858" filter="url(#f1gqia9y60d4c6)"/><text fill="#FAFAFA" font-family="sans-serif" font-size="14" font-style="italic" lengthAdjust="spacing" textLength="55.043" x="63.4389" y="663.5464">&#171;cloud&#187;</text><text fill="#FAFAFA" font-family="sans-serif" font-size="14" lengthAdjust="spacing" textLength="101.2607" x="40.33" y="679.8432">LLM generator</text></g><!--entity HALL--><g class="entity" data-qualified-name="HALL" data-source-line="241" id="ent0006"><rect fill="#CB2000" filter="url(#f1gqia9y60d4c6)" height="52.5938" rx="6" ry="6" style="stroke:#CB2000;stroke-width:0.5;" width="193.1816" x="196.37" y="363.7113"/><text fill="#FAFAFA" font-family="sans-serif" font-size="14" font-style="italic" lengthAdjust="spacing" textLength="51.5771" x="267.1722" y="386.7064">&#171;error&#187;</text><text fill="#FAFAFA" font-family="sans-serif" font-size="14" lengthAdjust="spacing" textLength="173.1816" x="206.37" y="403.0032">Ungrounded free extract</text></g><g class="entity" data-qualified-name="GMN12" data-source-line="250" id="ent0013"><path d="M295.77,211.9213 L295.77,267.3197 L616.1509,267.3197 L616.1509,221.9213 L606.1509,211.9213 L295.77,211.9213" fill="#E5E4E4" filter="url(#f1gqia9y60d4c6)" style="stroke:#B4B3B3;stroke-width:0.5;"/><path d="M606.1509,211.9213 L606.1509,221.9213 L616.1509,221.9213 L606.1509,211.9213" fill="#E5E4E4" style="stroke:#B4B3B3;stroke-width:1;"/><text fill="#181818" font-family="sans-serif" font-size="13" lengthAdjust="spacing" textLength="80.1265" x="301.77" y="228.9881">Best when a</text><text fill="#181818" font-family="sans-serif" font-size="13" font-weight="700" lengthAdjust="spacing" textLength="108.4561" x="386.0288" y="228.9881">known schema</text><text fill="#181818" font-family="sans-serif" font-size="13" lengthAdjust="spacing" textLength="102.5337" x="498.6172" y="228.9881">exists (medical,</text><text fill="#181818" font-family="sans-serif" font-size="13" lengthAdjust="spacing" textLength="269.4263" x="316.7473" y="244.121">regulatory, enterprise taxonomy). Trades</text><text fill="#181818" font-family="sans-serif" font-size="13" lengthAdjust="spacing" textLength="266.0874" x="318.4167" y="259.2538">discovery flexibility for factual discipline.</text></g><!--link ONT to EX--><g class="link" data-entity-1="ent0001" data-entity-2="ent0002" data-link-type="dependency" data-source-line="243" id="lnk7"><path d="M289.96,128.4412 C268.88,152.1413 245.3737,178.5758 225.1137,201.3458" fill="none" id="ONT-to-EX" style="stroke:#585858;stroke-width:2;"/><polygon fill="#585858" points="221.79,205.0813,230.7609,201.0164,225.1137,201.3458,224.7842,195.6986,221.79,205.0813" style="stroke:#585858;stroke-width:2;stroke-linejoin:miter;stroke-miterlimit:10;"/><text fill="#181818" font-family="sans-serif" font-size="13" lengthAdjust="spacing" textLength="134.6973" x="262.92" y="171.2381">allow types/relations</text></g><!--link EX to HG--><g class="link" data-entity-1="ent0002" data-entity-2="ent0003" data-link-type="dependency" data-source-line="244" id="lnk8"><path d="M169.04,274.2913 C153.56,297.0313 135.9037,322.9781 119.8037,346.6281" fill="none" id="EX-to-HG" style="stroke:#585858;stroke-width:2;"/><polygon fill="#585858" points="116.99,350.7613,125.3612,345.5725,119.8037,346.6281,118.7481,341.0706,116.99,350.7613" style="stroke:#585858;stroke-width:2;stroke-linejoin:miter;stroke-miterlimit:10;"/><text fill="#181818" font-family="sans-serif" font-size="13" lengthAdjust="spacing" textLength="68.377" x="148.51" y="317.1281">write facts</text></g><!--link EX to HALL--><g class="link" data-entity-1="ent0002" data-entity-2="ent0006" data-link-type="dependency" data-source-line="245" id="lnk9"><path d="M214.88,274.2913 C233.27,301.3113 255.8856,334.5486 272.6656,359.1886" fill="none" id="EX-to-HALL" style="stroke:#CB2000;stroke-width:2;"/><polygon fill="#CB2000" points="275.48,363.3213,273.7202,353.6309,272.6656,359.1886,267.1079,358.1339,275.48,363.3213" style="stroke:#CB2000;stroke-width:2;stroke-linejoin:miter;stroke-miterlimit:10;"/><text fill="#181818" font-family="sans-serif" font-size="13" lengthAdjust="spacing" textLength="173.3672" x="246.49" y="317.1281">off-schema claims blocked</text></g><!--link HG to RET--><g class="link" data-entity-1="ent0003" data-entity-2="ent0004" data-link-type="dependency" data-source-line="246" id="lnk10"><path d="M90.96,429.3313 C90.96,453.6613 90.96,479.4713 90.96,500.8113" fill="none" id="HG-to-RET" style="stroke:#585858;stroke-width:2;"/><polygon fill="#585858" points="90.96,505.8113,94.96,496.8113,90.96,500.8113,86.96,496.8113,90.96,505.8113" style="stroke:#585858;stroke-width:2;stroke-linejoin:miter;stroke-miterlimit:10;"/><text fill="#181818" font-family="sans-serif" font-size="13" lengthAdjust="spacing" textLength="132.0186" x="91.96" y="472.0181">retrieve hyperedges</text></g><!--link RET to LLM--><g class="link" data-entity-1="ent0004" data-entity-2="ent0005" data-link-type="dependency" data-source-line="247" id="lnk11"><path d="M90.96,558.8113 C90.96,580.6413 90.96,607.0813 90.96,630.2413" fill="none" id="RET-to-LLM" style="stroke:#585858;stroke-width:2;"/><polygon fill="#585858" points="90.96,635.2413,94.96,626.2413,90.96,630.2413,86.96,626.2413,90.96,635.2413" style="stroke:#585858;stroke-width:2;stroke-linejoin:miter;stroke-miterlimit:10;"/><text fill="#181818" font-family="sans-serif" font-size="13" lengthAdjust="spacing" textLength="168.0415" x="91.96" y="601.6181">high-precision domain QA</text></g><!--link ONT to GMN12--><g class="link" data-entity-1="ent0001" data-entity-2="ent0013" data-link-type="association" data-source-line="250" id="lnk14"><path d="M375.3,128.4213 C386.03,137.5712 396.84,147.7213 405.96,158.1713 C420.23,174.5313 433.08,195.4013 442.17,211.7913" fill="none" id="ONT-GMN12" style="stroke:#585858;stroke-width:1;stroke-dasharray:7,7;"/></g><?plantuml-src lLbzRnez4l-VJp7bEQcG2v3NjWzD8m59q-f8o9CGzQhhgJAx1bPPTdbiauIhAjs7k4zud-H-OtkN3O4cKQjR95x6u_5uFFER6VFotKyzfPTqhj8RcT9___qVEez5OgvEksJ6SYAf4aUZiQc2vqGcKaN19aL94Cz2COYbuwdJYH83YWpTHcRS12lH2ySaQMpCL3SR3ILkwoCCpmOpBLMG9aOcfXwaayRKhbqBH2CAGOlCl34HKUBfzUbi4aFaaL3N58ZaHkWcGGJvQI7ebeSgMa3VYGXKgZV9_b0fT0pIE9qfNQtpFaKiZS6074ebaq0sxR3IzKbOfxEKtaEnCvuQQTBItBF8IqsX78fPR21f24PcWYhXMyWJmHWqHHqbUT596aR3I2fDbN9vaYPfkRn96nk3D0utDZQfqOYCYAEWqQXQMGf6ZQD4afnCnq93RfHe8qL8wT0QEKf6_4ctOvOUHcAan8HCIYac3KKWiRkVz08eKglLgAr44jBK6whsZAVquY_jRglpDnm_lQFoRzjl-5K6-TE7Z_tZZFo-nIycdroqFbD6VcEVZFnrnvFtt_0h9-zwSdkllTlUpSbxddoyVxntl5SkWNxQ-dYM2z_Qsd__-dtPatCfMrklN_r-nEHMjqy5xdQhyygJlsuloA_QhxSikTCvFkjxSgTzrDvfBSYOOFUp_UPeQykgSdnnqRkWd7rdQyjAkRm2_-Lb9lpt_TqTiB_ywM2-A7YzTM0j9_1W3br_hBKGaNmZuV9zCIAHp2b94QiSlknba34H9XYpqnqSm0_XqsO-bOU7L9dQq54oh1AybWEHtT95dNVYkaM0WmCndM86dc6ajAbDXJ9p0f4Qf6RG1r46ABY90ad-yMTMWUV7rKoAdYS1o_bp9cSIS-KDKA8MyWOI_1o8u7gaqXcSDdlyyG2w9Z8JCqwriThm5qoRni8WxYRucawb4WQx6R0KeUQP6ESJbM0kaanC0Ak6B4VUmIo9Y37VZ2CL-kqr25g5aBLul3jND5RCrGa7pZI4jH7kXh48axK13zvJ9MdvyOw-06IMWwD85OiQYYYUAPOHIctKB32m3_yIoKZ2F3gNuxsnmcVuAq2ZlJY0D8ddV7ftnliVnN9e6AROIJnuscrcBbKjlG2PaQ_Jw_OklhREprb77x3BWvUVppeOT16tDFYXTzbtCpbubmOxtTxL4GOTcYmD7hMjNJnuB0rwQ_cmNThlNu774GwCTxnPXF5G1h60KqLfec4LuYo5C8XZdOk_x7_k7Y_jzoqBQdvYcKjyzpUmdk--kaM-Nm0ibnv7IC3hRhEWPuI9R3hdV1XWB98X3UOKvsfXReLJ7_jZ2lonNuGUCue8JRSoZldJ-GnoTyh5X9u16swankIHadCT0Bk8SvDZgmqWFwIRIDu2f-hKIpmCSKYH34ToavLmcZb8Qi4udxxcYG4bH3JXS8T30cF62caQSJ86HCs1b6PScDGxxt_idRMwHC9wi98rO9ZzecSJQRyOAogTygcBk30vn_z2bAAK2MIy5Au6kLT7FBym-u-huokRFErUBEPOJ8IYILXBXqFODdV9JGUFX2ghMf3XtGSF7vcMciG2xH2U8ba0cfuZF2UOVAN520KIjOg6QrFJBz4W4JXLVzAnCWzUEfxQFxotRxBh_BDskCIO7yc2qJdNGzRy0C3g8cEDpDpMO7G9V0rZRj32ujQXStvVJdNbI0H8Ut4asEoLQparxE3WWflwGaxJjPHJkatLDNovIgwQkeT3rYnhO15vQZNi-KIu6Z2pyiEN7akZjZRBy38VEs_rFpXLaFI2wqHg_Mxt_cYdTthQAuvlBwRRRDKL0nbNxgfqO4llfZ-HmuF1uTr1Ot1uqB3qXSNrB0WWwC4yf_VwUU7WmHItduTJ_65rOYdGv5XWY3WYzLCBu9B6oQ44G56EdcQAgZmnbsOUSwiH6EJWM1POfeXNnDPw1fyg-mZA5l9zCk602oJ7Vwc4YWpp3ak4_YOrzAt4VdWv5c7AI0YCYRLyQudSpNHuX-GgSqTT930_PijpDzQ5uJpLrIrC_bx26ngps1ObtufYsHVUMi9bz2z9ErjlmGsK4HO5bvYzH2VFvP1lwrTrv7xcHxHTtr-_AoioIP6BlwtUewkULczozqVMkd125Fl56xSKeQmPeSnRjzOFxFdSfV3cNFCubkm4DIwQClS0d73xYI84bN2I5iegtxvQ9E7Zo5nodSRs6DrGgW1CdWnaUQ1lONFviM_lFTp0jZ_4Sn66x9RRMvdnR1hZddMTDlcozvHPwBZQ0SWrCO-VoJsfZv_AytQvaocJX_Mlr-YX0YxcLFZ_MYiKHWoGq7uORJjh3d75WazrgZm0WTkn35nz_GEVpfPwkbUpSDGre3tBEUr5mJEyY9Tn3UswPMpgNhMIlsHuDcRPrlLvaBNAKbaOiiYXugko1nY-Cb8Nn7ikbQE2pudFb6QrSBNKj-TfdoEhlIvPGAT--fsN5N5kBqIumKKuf3Soxm4F3duRoxl3moQFpUrjua8HspffA-1BuZgbWPBY6f2UJNSbIxr-cDqfXYcKGuwhRZg9u0-j1A6p1amOssdpjGpw27H0t2zvPbiruCZIYRqqdCRsrf2epbSoZ-Q5rS7wqDhVhKJRdpp1irUxRr5gmTkjQ7jzyrXeFYwsMvJvmyWeGjcZHYZMJ10S3fvIZZogxP9KMqMl4snRdITgc_D-BnqqV57fohpUIUsYTM9R-rvYm3sQrqxiCYWtFY1A5DgMwPWkqFH6yiPsk-S2vAQVsbmnBsUkjMOZBcP0itygs7iIgAkeAnGWe8kyEMCiE4L2Z_a2uEgYs-IxE_zdWb1tqKqzLQE66EZ6pjxsJdrxVsTt7vnTDATnaz1qv3cAoaSf_wC0jtSgVKagEXZBYK0QIT1zOypeQfdZg8TsoTtEbHP5KpdVosWMOITV4jJbodM_TjRntxFhpkAg1JkXsZ4wNxPcMs-tu8UJ5UjrChLW8PLPpR9V7FVpoyoIyrj-ojtkAOsSBLDbEPcItrSMXLybe-n4XafAydjnshIwtSMjOgd4vYYqvTXd4wriZCBTGcL3oTXTSfKmL634hffqg_Xkp6vzCUnQSRjEazBXi9QTH2mYzC63E0skPLY2W88utdKpiuIaCHkMRtXqYKUA7JdlkadZQ3IkJL61HPezAtJ7_qUhLB8jmY0rXb5moCSDzsy36rqHBMXZupf9RnDoQcrim3oHvafx8iCe4F6cBUr6ivWDFTyasvEXN-IBS76N9kbaNgrJNubGCho7aGuuASnf64FI88eZCxStXMoNcOWjHpHrz-RSKx26_mC0?></g></svg>