<svg xmlns="http://www.w3.org/2000/svg" xmlns:xlink="http://www.w3.org/1999/xlink" contentStyleType="text/css" data-diagram-type="DESCRIPTION" height="902px" preserveAspectRatio="none" style="width:618px;height:902px;background:#FAFAFA;" version="1.1" viewBox="0 0 618 902" width="618px" zoomAndPan="magnify"><?plantuml 1.2026.6?><defs><filter height="300%" id="f9a3wywg8ijh2" width="300%" x="-1" y="-1"><feGaussianBlur result="blurOut" stdDeviation="2"/><feColorMatrix in="blurOut" result="blurOut2" type="matrix" values="0 0 0 0 0 0 0 0 0 0 0 0 0 0 0 0 0 0 .4 0"/><feOffset dx="4" dy="4" in="blurOut2" result="blurOut3"/><feBlend in="SourceGraphic" in2="blurOut3" mode="normal"/></filter></defs><g><rect fill="#FAFAFA" height="902" style="stroke:none;stroke-width:1;" width="618" x="0" y="0"/><g class="title" data-source-line="231"><rect fill="none" height="33.2813" style="stroke:#585858;stroke-width:1;" width="601.709" x="5" y="5"/><text fill="#005F7F" font-family="sans-serif" font-size="20" font-weight="700" lengthAdjust="spacing" textLength="591.709" x="10" y="28.5645">PageIndex &#8212; Vectorless, Reasoning-Based Tree RAG</text></g><!--entity DOC--><g class="entity" data-qualified-name="DOC" data-source-line="237" id="ent0001"><rect fill="#005F7F" filter="url(#f9a3wywg8ijh2)" height="68.8906" rx="6" ry="6" style="stroke:#00BAC6;stroke-width:0.5;" width="169.4063" x="188.5954" y="51.2813"/><text fill="#FAFAFA" font-family="sans-serif" font-size="14" font-style="italic" lengthAdjust="spacing" textLength="43.4834" x="251.5568" y="74.2764">&#171;app&#187;</text><text fill="#FAFAFA" font-family="sans-serif" font-size="14" lengthAdjust="spacing" textLength="149.4063" x="198.5954" y="90.5732">Structured document</text><text fill="#FAFAFA" font-family="sans-serif" font-size="14" lengthAdjust="spacing" textLength="138.749" x="203.924" y="106.8701">(PDF / HTML / filing)</text></g><!--entity TREE--><g class="entity" data-qualified-name="TREE" data-source-line="238" id="ent0002"><rect fill="#E5E4E4" filter="url(#f9a3wywg8ijh2)" height="68.8906" rx="6" ry="6" style="stroke:#585858;stroke-width:0.5;" width="212.124" x="167.2354" y="212.1713"/><text fill="#181818" font-family="sans-serif" font-size="14" font-style="italic" lengthAdjust="spacing" textLength="34.9043" x="255.8453" y="235.1664">&#171;db&#187;</text><text fill="#181818" font-family="sans-serif" font-size="14" lengthAdjust="spacing" textLength="159.667" x="193.4639" y="251.4632">Hierarchical tree index</text><text fill="#181818" font-family="sans-serif" font-size="14" lengthAdjust="spacing" textLength="192.124" x="177.2354" y="267.7601">(titles &#183; summaries &#183; pages)</text></g><!--entity SEARCH--><g class="entity" data-qualified-name="SEARCH" data-source-line="239" id="ent0003"><path d="M194.5568,367.8375 C196.4838,361.7821 200.2327,361.8806 204.4472,365.4988 C207.7027,359.102 211.3905,359.0407 215.7156,364.4805 C218.6175,359.4403 224.3307,357.9966 227.4377,364.2681 C230.5273,357.2599 237.0029,358.2446 240.3953,363.9597 C242.9331,357.9883 248.5746,357.3609 251.7612,363.3428 C253.1295,357.1471 258.385,356.2182 262.2297,360.9761 C266.8192,355.7759 270.4913,355.4909 273.9843,362.0703 C276.9175,357.7898 282.2555,356.6893 284.8711,362.4158 C289.3915,357.0954 293.2516,356.7315 297.3301,362.8953 C301.1031,357.88 305.6762,358.9639 308.5559,363.9029 C312.0212,358.5298 317.1066,357.1747 320.7845,363.6842 C324.7638,359.6744 327.9803,359.1723 331.1712,364.5559 C335.3717,358.2355 341.563,359.777 343.8191,366.4487 C348.2597,362.4775 351.8856,361.9874 354.6843,368.2005 C362.0686,371.1013 363.4078,376.5777 358.212,382.5675 C366.0055,386.2757 368.6835,394.1999 359.9042,399.5587 C365.7983,404.0742 366.6857,411.7617 358.3993,414.8848 C364.351,420.4165 361.8779,427.6448 354.5281,429.7012 C352.0628,434.9848 347.2188,435.4029 344.0409,430.4297 C342.0614,435.6741 337.4625,437.7168 333.0386,433.1788 C330.5583,438.8715 325.5181,440.8032 321.3712,434.8483 C318.032,441.0428 312.2171,440.3107 308.934,434.7886 C306.5355,439.7921 302.3791,441.0552 298.2334,436.8101 C294.3479,442.3796 290.3121,441.5853 286.3947,436.8467 C283.7631,442.71 280.0518,443.4852 274.9723,439.7642 C270.7995,444.2497 264.9346,443.3719 263.3052,437.0248 C259.3241,442.4838 254.6946,440.858 252.0288,435.6361 C248.5734,442.2769 242.9704,441.5459 238.9644,436.2382 C233.6293,441.1239 229.3403,440.5856 227.1929,433.1843 C223.1212,437.8775 218.7827,437.3969 216.1896,431.629 C212.4739,437.3646 208.5402,436.5454 204.5779,431.9049 C200.4324,437.0066 195.4707,435.7523 193.5143,429.728 C186.0665,426.9525 183.1281,419.9156 190.6036,414.3208 C181.8928,410.766 181.0801,403.1616 189.0805,398.0432 C181.5753,392.8574 182.0358,387.6914 190.1379,383.6524 C183.4938,377.1607 185.3411,369.8978 194.5568,367.8375" fill="#585858" filter="url(#f9a3wywg8ijh2)"/><text fill="#FAFAFA" font-family="sans-serif" font-size="14" font-style="italic" lengthAdjust="spacing" textLength="55.043" x="245.7837" y="386.0564">&#171;cloud&#187;</text><text fill="#FAFAFA" font-family="sans-serif" font-size="14" lengthAdjust="spacing" textLength="111.8633" x="217.3735" y="402.3532">LLM tree search</text><text fill="#FAFAFA" font-family="sans-serif" font-size="14" lengthAdjust="spacing" textLength="147.5195" x="199.5454" y="418.6501">reason where to look</text></g><!--entity NODES--><g class="entity" data-qualified-name="NODES" data-source-line="240" id="ent0004"><rect fill="#00BAC6" filter="url(#f9a3wywg8ijh2)" height="68.8906" rx="6" ry="6" style="stroke:#006B70;stroke-width:0.5;" width="146.7314" x="65.9354" y="522.3413"/><text fill="#181818" font-family="sans-serif" font-size="14" font-style="italic" lengthAdjust="spacing" textLength="47.3525" x="115.6249" y="545.3364">&#171;host&#187;</text><text fill="#181818" font-family="sans-serif" font-size="14" lengthAdjust="spacing" textLength="126.7314" x="75.9354" y="561.6332">Selected node IDs</text><text fill="#181818" font-family="sans-serif" font-size="14" lengthAdjust="spacing" textLength="63.2393" x="107.6815" y="577.9301">(+ trace)</text></g><!--entity FETCH--><g class="entity" data-qualified-name="FETCH" data-source-line="241" id="ent0005"><rect fill="#005F7F" filter="url(#f9a3wywg8ijh2)" height="52.5938" rx="6" ry="6" style="stroke:#00BAC6;stroke-width:0.5;" width="130.4414" x="74.0754" y="676.6213"/><text fill="#FAFAFA" font-family="sans-serif" font-size="14" font-style="italic" lengthAdjust="spacing" textLength="43.4834" x="117.5544" y="699.6164">&#171;app&#187;</text><text fill="#FAFAFA" font-family="sans-serif" font-size="14" lengthAdjust="spacing" textLength="110.4414" x="84.0754" y="715.9132">Fetch node text</text></g><!--entity LLM--><g class="entity" data-qualified-name="LLM" data-source-line="242" id="ent0006"><path d="M59.5909,815.6683 C62.8638,811.2014 66.3185,810.6517 69.7026,815.5483 C73.3352,809.529 77.5438,808.7328 82.0725,814.6172 C85.6233,808.0493 89.8318,807.2285 94.8044,813.17 C97.0122,807.8057 102.2021,806.8519 106.0842,811.2319 C109.1222,805.3314 114.4306,805.4969 117.7943,810.8942 C120.9405,805.3743 126.0092,806.281 129.0682,810.9903 C132.2389,805.5625 135.6375,804.5031 140.0525,809.7045 C144.0677,803.34 148.8981,804.0629 152.4284,810.1851 C155.5608,805.3964 159.7828,805.6888 163.1058,809.9604 C167.6361,805.0604 174.1285,805.6476 176.1472,812.7007 C179.2897,807.5478 184.4115,807.982 187.0411,813.2376 C190.7078,808.1153 196.1587,809.221 198.7748,814.4307 C202.8461,809.7512 207.3639,809.3984 210.8743,815.0854 C214.273,810.1247 218.1711,809.1345 221.8207,814.8277 C229.0459,820.1819 228.4228,825.452 221.957,830.9222 C229.2234,834.6161 232.4703,841.0136 224.3634,847.0073 C231.531,852.3349 230.1361,858.7393 222.2203,861.8957 C230.6348,866.3351 230.8814,873.3935 222.9312,878.5322 C219.2076,884.4763 213.952,883.8177 210.2283,878.5323 C206.55,883.9361 202.2718,885.4439 197.9313,879.2334 C194.5529,883.7104 191.1653,884.5026 187.7516,879.2703 C184.3657,885.9005 178.3114,885.3176 174.7646,879.4374 C171.1968,884.917 167.3175,885.0108 163.2402,879.9971 C160.5918,885.4584 155.2385,886.826 151.1544,881.6245 C147.8918,885.4773 143.5028,886.2524 141.3037,880.5304 C137.7784,887.0979 131.8199,885.546 128.6087,880.1957 C124.3964,885.3556 120.4455,885.8154 116.9184,879.4979 C113.6088,884.8425 109.1401,883.7591 106.0435,879.2625 C102.154,884.5495 98.5635,884.2945 94.8794,879.0449 C91.7012,885.7679 85.1363,885.0746 81.2663,879.832 C77.0685,884.3882 73.5445,883.8824 71.2677,877.9932 C67.3466,884.014 62.8685,884.4279 58.8352,878.1062 C50.4803,874.4621 47.4785,870.0179 54.1501,862.0022 C46.3642,858.2475 45.7391,853.884 51.8388,847.8599 C45.0969,841.6437 46.787,834.1554 55.8652,831.9404 C49.9428,826.0897 51.6557,818.3462 59.5909,815.6683" fill="#585858" filter="url(#f9a3wywg8ijh2)"/><text fill="#FAFAFA" font-family="sans-serif" font-size="14" font-style="italic" lengthAdjust="spacing" textLength="55.043" x="111.7794" y="834.2064">&#171;cloud&#187;</text><text fill="#FAFAFA" font-family="sans-serif" font-size="14" lengthAdjust="spacing" textLength="82.6943" x="97.9538" y="850.5032">LLM answer</text><text fill="#FAFAFA" font-family="sans-serif" font-size="14" lengthAdjust="spacing" textLength="148.791" x="64.9054" y="866.8001">with section citations</text></g><g class="entity" data-qualified-name="GMN12" data-source-line="251" id="ent0013"><path d="M247.9954,513.9513 L247.9954,599.6153 A0,0 0 0 0 247.9954,599.6153 L564.6121,599.6153 A0,0 0 0 0 564.6121,599.6153 L564.6121,523.9513 L554.6121,513.9513 L374.5354,513.9513 L306.1754,437.3813 L366.5354,513.9513 L247.9954,513.9513 A0,0 0 0 0 247.9954,513.9513" fill="#E5E4E4" filter="url(#f9a3wywg8ijh2)" style="stroke:#B4B3B3;stroke-width:0.5;"/><path d="M554.6121,513.9513 L554.6121,523.9513 L564.6121,523.9513 L554.6121,513.9513" fill="#E5E4E4" style="stroke:#B4B3B3;stroke-width:0.5;"/><text fill="#181818" font-family="sans-serif" font-size="13" font-weight="700" lengthAdjust="spacing" textLength="82.0879" x="263.5486" y="531.0181">Vectorless:</text><text fill="#181818" font-family="sans-serif" font-size="13" lengthAdjust="spacing" textLength="190.29" x="349.7689" y="531.0181">no ANN index. LLM navigates</text><text fill="#181818" font-family="sans-serif" font-size="13" lengthAdjust="spacing" textLength="259.4033" x="272.1021" y="546.151">like a human ToC for legal/finance PDFs</text><text fill="#181818" font-family="sans-serif" font-size="13" lengthAdjust="spacing" textLength="277.71" x="262.9488" y="561.2838">(FinanceBench SOTA claims in product lit).</text><text fill="#181818" font-family="sans-serif" font-size="13" lengthAdjust="spacing" textLength="295.6167" x="253.9954" y="576.4166">Hybrid often: vector for discovery, PageIndex</text><text fill="#181818" font-family="sans-serif" font-size="13" lengthAdjust="spacing" textLength="183.0156" x="310.296" y="591.5494">for precise section retrieval.</text></g><!--link DOC to TREE--><g class="link" data-entity-1="ent0001" data-entity-2="ent0002" data-link-type="dependency" data-source-line="244" id="lnk7"><path d="M273.3054,120.4213 C273.3054,147.2913 273.3054,179.7613 273.3054,206.6913" fill="none" id="DOC-to-TREE" style="stroke:#585858;stroke-width:2;"/><polygon fill="#585858" points="273.3054,211.6913,277.3054,202.6913,273.3054,206.6913,269.3054,202.6913,273.3054,211.6913" style="stroke:#585858;stroke-width:2;stroke-linejoin:miter;stroke-miterlimit:10;"/><text fill="#181818" font-family="sans-serif" font-size="13" lengthAdjust="spacing" textLength="99.7471" x="279.812" y="163.2381">parse structure</text><text fill="#181818" font-family="sans-serif" font-size="13" lengthAdjust="spacing" textLength="110.7603" x="274.3054" y="178.371">(no embeddings)</text></g><!--link TREE to SEARCH--><g class="link" data-entity-1="ent0002" data-entity-2="ent0003" data-link-type="dependency" data-source-line="245" id="lnk8"><path d="M273.3054,281.4013 C273.3054,304.0513 273.3054,328.9513 273.3054,352.5913" fill="none" id="TREE-to-SEARCH" style="stroke:#585858;stroke-width:2;"/><polygon fill="#585858" points="273.3054,357.5913,277.3054,348.5913,273.3054,352.5913,269.3054,348.5913,273.3054,357.5913" style="stroke:#585858;stroke-width:2;stroke-linejoin:miter;stroke-miterlimit:10;"/><text fill="#181818" font-family="sans-serif" font-size="13" lengthAdjust="spacing" textLength="125.2075" x="274.3054" y="324.1281">tree metadata only</text></g><!--link SEARCH to NODES--><g class="link" data-entity-1="ent0003" data-entity-2="ent0004" data-link-type="dependency" data-source-line="246" id="lnk9"><path d="M240.1754,437.3813 C218.0854,463.3113 192.5785,493.2557 171.4185,518.0857" fill="none" id="SEARCH-to-NODES" style="stroke:#585858;stroke-width:2;"/><polygon fill="#585858" points="168.1754,521.8913,177.0574,517.6357,171.4185,518.0857,170.9685,512.4468,168.1754,521.8913" style="stroke:#585858;stroke-width:2;stroke-linejoin:miter;stroke-miterlimit:10;"/><text fill="#181818" font-family="sans-serif" font-size="13" lengthAdjust="spacing" textLength="103.7905" x="215.3254" y="480.0181">choose sections</text></g><!--link NODES to FETCH--><g class="link" data-entity-1="ent0004" data-entity-2="ent0005" data-link-type="dependency" data-source-line="247" id="lnk10"><path d="M139.3054,591.5813 C139.3054,617.5313 139.3054,647.8313 139.3054,671.4413" fill="none" id="NODES-to-FETCH" style="stroke:#585858;stroke-width:2;"/><polygon fill="#585858" points="139.3054,676.4413,143.3054,667.4413,139.3054,671.4413,135.3054,667.4413,139.3054,676.4413" style="stroke:#585858;stroke-width:2;stroke-linejoin:miter;stroke-miterlimit:10;"/><text fill="#181818" font-family="sans-serif" font-size="13" lengthAdjust="spacing" textLength="102.7114" x="140.3054" y="642.6881">materialize text</text></g><!--link FETCH to LLM--><g class="link" data-entity-1="ent0005" data-entity-2="ent0006" data-link-type="dependency" data-source-line="248" id="lnk11"><path d="M139.3054,729.4013 C139.3054,750.7113 139.3054,776.4413 139.3054,800.8113" fill="none" id="FETCH-to-LLM" style="stroke:#585858;stroke-width:2;"/><polygon fill="#585858" points="139.3054,805.8113,143.3054,796.8113,139.3054,800.8113,135.3054,796.8113,139.3054,805.8113" style="stroke:#585858;stroke-width:2;stroke-linejoin:miter;stroke-miterlimit:10;"/><text fill="#181818" font-family="sans-serif" font-size="13" lengthAdjust="spacing" textLength="58.8936" x="140.3054" y="772.2781">generate</text></g><?plantuml-src lLdjRXez5lxFLRXvLoga0VBHhvUcaO2G9beIia2tghQhoimOi38Vh6sIy5QLzYBsNlR_NifUoJx7zWmJ0asYLZkH0XmVFpu-Ff-Uv-z_wYazPvSglHOf--y__yKk8vwOZ-TTPgOY5gmSoSdKLC3pGIH2oM27oII8vY4VHSBnrDW7nKTC6dOZpRG1LiQUEIR1fiRCTADUL_ocDi7mV3JNGWLfOaHYQa4QrsTsxMh0wp84JPf5FUOoyVJQR1v7W3pcwee5FBdcki40mVoq47JBmygQGzwO1ohLEyp-K2ba3D8edIjTgT4-UIICmO0O2oMIG3JiiDArEAonYvITGB0BcYerqyBSqSXppK8nvlF806aCHcA2AE4xuF5W2ffYRILeqJWDvLWAfLbvQojEatHhQuTjRu_IADpUtc7rkZGyaa6zNh5O2agDP2AOY6TJhe4h4sq43rawjagMoOG-sSsKq4F99uh7pAGinQGn3mHszvDM046grIfhAPw4REOLLNt2KthsfrQtsVupZf-zPrk_xRsblosGFvsU3JiP-QH9VqJ-q6z-PXdvhNqoyjTzJtxrblvoye4djrws3be7EVcb9tTUTLvsNcwLG3zldbtauBkxhqxUd6nvSewok_lczU_7H6vsXwp0tMgsNtlorxqb-NNhpQubjzkTYw4djrl7hVtcaem9TZzxRuztTwqedNw_rsSv-_xkhaKPV0J_O921__xgO1_ipt_QcVi5gxS6h4KC2oRNzSTQ3U79rm8cF-GJnfC5IrBuAhalMHamOcw2AHdTuI7i43Pj5ZDnTCJAC-iwIeGL1gibHoIpT5xdZRXc8y3X8P_DC0FFM2fjgZEkp8A1oEfCpI4Fl0oXu5e6Wld7draPbXzLCXIzI0B2-STSp0NcYcj4YMf86qZmSyI3gubAvp3QxF77Wz0LYmncccfZfQ4lc3QBk87VnVYQpeJY1hiP4GfNYmp6sKGvMF0aWmcWrP1mn2tKal08yyrKgj1lhyuWLGYivUFDkQonOYvEE7AgOLWRxcue5c6oDk31_rG9jlfuGry6PCB1KQIAeCPSHdD56A7GHiq30_tGBvvC1DIZSnnlZMKwmryHD5hB0qYJQ46dTsky_R58Z0s5AJ8I7ppjDZEJgfIUWKoHhzthzlfVcvUN9ADtsDN1mUUBDWQTnwqCdlO6GpUJd7TbiDtjVJp6e8icAuF7BQiN7pnM1hsslDkkxFS5uh74WT6ETufXF1H1n65KCaqqjC8eIy4DeaZdy8FXvsvdPR_l2AZnYJ1N-EvkO3FVNN6BVByWi0ny764SLdUJEJr566dJEUN306DIX6oqO54k5kQMAVMHFQQ8F_OBrrEA8bop6n55zEbi1haxfM92pn4RheN6v8aI2nqWTZ7AJOwjEW9-oAwbk46Sgh5UuiCGkHGJuKJia11ECXUIcb3EfwzvOa098MDoTnWaOinK8Kt3JwO8KGj4IZCjJEfT3izw5yqkOznQi19Ln33xHSzZORyO2vNEwDHvL9YSn_-2bwAK2KIqugu6kLTBcb-O_PUFdOysUTgzs9XZOo84JS9gEXv3jxb9xhZmo51bLGeOtdpmq95feHbVHZku9q-M0Kqlu9un9d_KV882YJMBYcknXb-YpdZWHFr9myeiUELugd_prhv3flFtwj4AOtuaIqPdNFTPymC0g_EC3PYvhi7e4lW6nboXXSMjGUVylfpgYWaFaFOYoKdjvIinCsJWu8AP-a9EioiXPkmcLLUmvGfprTITE6JLiY4i8a-j3ti-4QuFc5dvuKkFbL5RcsNnCX-xR0vFdIX8Ui5L8hH-Vt1tjDqxF-yLn_UMqssswlAHYCgt5NPeI--6Fv6Zmz7HxM5zT7HOj_IbnlKy201qRvwJU_EyS7HlYjlF_Id-iDgHu6XoR62Gv97wiGLmIUFaK0AWA4TFCqDLdfY1MKJKQWG6EJWI1POP_1M-jPd1fyeXdBA9V9_4v7218FylbL2HOTvHYQ6_IGtxLY8x74nvc58aH8o9j7XdYTJDj6c7p5NcZhfCO7xCbkTkh0l5UQghMuZylOH_QCmYMvHyAyAIBRopX87yGx3ztNVWHfJXDWgkC7j4X-TooBVDgphoCBCZjbTxjNbN5Z99aOk_hT-ZgvxMR_BWHzhgEn15Tl7MBSLGranGvcrQwmVwVEfI-ETCinC9Ce8g5KsPUI2SKFk98WILS98MoYhVljf8GiUHcUGcYUqnkg5K8J1vCYBBFNaBcykFVU_b_Gti-KEyv658PhctcodFfZ7gMJT9aozxHvYbZEiDWBacvk4pkOFwyAayRPVxcJ2vM_zwYUuBu7nEXV-ljK9k-0W9xOVUjh_X4DSi-5YZoXqGSJiIWQklVs3JsLAFjse2Hrq3sfECqruKFC6AQ1dNq6vQngRkTIlvIuOdnopRkZujPAtJLEQ613bMT5LsBuQlzTGbyOv9vL71vyGdebafN2trxMdIvv7LNfSiGwT-_9sNXRYq5oBKuC8TqckHzu27XxzDnUtHKOF65lOsSIc8RPsq1VYIk4vff0I_GaZFfhkIfLOxokuKmnJ28STLTXmY-4EBm7NMW75ZEsswba4VWGw8-YNFRAi675aQsql3MMHl3HchqPNCWtbXlRFUr_PtYsZxaqTOzdhpBQ8MhDr2s-kRXrppOTXk4VE7db4CPGygeLWp0JWSFQOSUL3Q5LHRHMy2jgtE8wNDUR-N3kk-g7HbtYKyyIm9nQtjxlygA216AC9sM5zmdIP8TTKMfzfZg8HW_UO7zn8XH2FRACmkqrGvNZJFAXPfAeNYAa1DXqPpcBRP2zRjdgFl5NGNI2FKT_Qx3P8qUtKm0vmak1gNzL6KJfQKAknUfMlck5SDzlr2Ba8zbmiJkcXY8qn1TxAiZhO6jXL7Xnx2su8vLLnValBbyGcwtTFXUHSVOnbHZxP5NdVSQsVtd4MKq-8kxTwii42osjNiF_z6KnF7N4dtW_QZ7UImt-du-y6IiqjwjbQqz2LHzXoez5E2ElWeJQyimA3JxBTFbrULTxOdA6bYSxPIEZlM4Ea5tJe4mgr-qJlk3FBRqkBK4s62gPj7bqgM-wGpj2jv1ToLbYVwHgWlYRrKrYvNiq0QTobcvnFRKiuIQRDm1s0rqO1k54Mpx60WCIfT4O-4BRXqfMJvYbsvrq33AImMXbEvOYydItwii8pRSeC5qpIbXNnLKNBq0gFRROEkneMIQEZ_SAeekO6Y1BIn1flG2pDELs-sCHcbnb3i7Ni1uNVRsqlNQcnlKmtVlBXmrbApA0c_bXDWKAg8v9LWd4tdCK-iyz258peH7jNHxz9z4eEb4cVvnFrkYGI7DkWDcyZ-NCQK9-Z56Rafu4o5ul_fOgGalMX21ccmQokGXGwb3YYXBNQM7ctJBJN88f1BRTdBBockULGhKLz4-_qV?></g></svg>