<svg xmlns="http://www.w3.org/2000/svg" xmlns:xlink="http://www.w3.org/1999/xlink" contentStyleType="text/css" data-diagram-type="DESCRIPTION" height="705px" preserveAspectRatio="none" style="width:579px;height:705px;background:#FAFAFA;" version="1.1" viewBox="0 0 579 705" width="579px" zoomAndPan="magnify"><?plantuml 1.2026.6?><defs><filter height="300%" id="f11fpvonx2ybqd" width="300%" x="-1" y="-1"><feGaussianBlur result="blurOut" stdDeviation="2"/><feColorMatrix in="blurOut" result="blurOut2" type="matrix" values="0 0 0 0 0 0 0 0 0 0 0 0 0 0 0 0 0 0 .4 0"/><feOffset dx="4" dy="4" in="blurOut2" result="blurOut3"/><feBlend in="SourceGraphic" in2="blurOut3" mode="normal"/></filter></defs><g><rect fill="#FAFAFA" height="705" style="stroke:none;stroke-width:1;" width="579" x="0" y="0"/><g class="title" data-source-line="231"><rect fill="none" height="33.2813" style="stroke:#585858;stroke-width:1;" width="548.0469" x="12.3564" y="5"/><text fill="#005F7F" font-family="sans-serif" font-size="20" font-weight="700" lengthAdjust="spacing" textLength="538.0469" x="17.3564" y="28.5645">PathRAG &#8212; Flow-Based Relational Path Pruning</text></g><!--entity KG--><g class="entity" data-qualified-name="KG" data-source-line="236" id="ent0001"><path d="M339.07,60.2813 C339.07,50.2813 402.0041,50.2813 402.0041,50.2813 C402.0041,50.2813 464.9382,50.2813 464.9382,60.2813 L464.9382,101.875 C464.9382,111.875 402.0041,111.875 402.0041,111.875 C402.0041,111.875 339.07,111.875 339.07,101.875 L339.07,60.2813" fill="#E5E4E4" filter="url(#f11fpvonx2ybqd)" style="stroke:#585858;stroke-width:0.5;"/><path d="M339.07,60.2813 C339.07,70.2813 402.0041,70.2813 402.0041,70.2813 C402.0041,70.2813 464.9382,70.2813 464.9382,60.2813" fill="none" style="stroke:#585858;stroke-width:0.5;"/><text fill="#181818" font-family="sans-serif" font-size="14" font-style="italic" lengthAdjust="spacing" textLength="34.9043" x="384.5519" y="87.2764">&#171;db&#187;</text><text fill="#181818" font-family="sans-serif" font-size="14" lengthAdjust="spacing" textLength="105.8682" x="349.07" y="103.5732">Indexing graph</text></g><!--entity CAND--><g class="entity" data-qualified-name="CAND" data-source-line="237" id="ent0002"><rect fill="#005F7F" filter="url(#f11fpvonx2ybqd)" height="68.8906" rx="6" ry="6" style="stroke:#00BAC6;stroke-width:0.5;" width="152.9316" x="325.54" y="188.8713"/><text fill="#FAFAFA" font-family="sans-serif" font-size="14" font-style="italic" lengthAdjust="spacing" textLength="43.4834" x="380.2641" y="211.8664">&#171;app&#187;</text><text fill="#FAFAFA" font-family="sans-serif" font-size="14" lengthAdjust="spacing" textLength="132.9316" x="335.54" y="228.1632">Retrieve candidate</text><text fill="#FAFAFA" font-family="sans-serif" font-size="14" lengthAdjust="spacing" textLength="109.6963" x="347.1577" y="244.4601">relational paths</text></g><!--entity PRUNE--><g class="entity" data-qualified-name="PRUNE" data-source-line="238" id="ent0003"><rect fill="#CBDB2A" filter="url(#f11fpvonx2ybqd)" height="68.8906" rx="6" ry="6" style="stroke:#818D00;stroke-width:0.5;" width="157.7578" x="160.13" y="334.7713"/><text fill="#181818" font-family="sans-serif" font-size="14" font-style="italic" lengthAdjust="spacing" textLength="57.8594" x="210.0792" y="357.7664">&#171;async&#187;</text><text fill="#181818" font-family="sans-serif" font-size="14" lengthAdjust="spacing" textLength="137.7578" x="170.13" y="374.0632">Flow-based pruning</text><text fill="#181818" font-family="sans-serif" font-size="14" lengthAdjust="spacing" textLength="134.3604" x="171.8287" y="390.3601">keep reliable paths</text></g><!--entity PROMPT--><g class="entity" data-qualified-name="PROMPT" data-source-line="239" id="ent0004"><rect fill="#00BAC6" filter="url(#f11fpvonx2ybqd)" height="68.8906" rx="6" ry="6" style="stroke:#006B70;stroke-width:0.5;" width="176.0166" x="7" y="480.6613"/><text fill="#181818" font-family="sans-serif" font-size="14" font-style="italic" lengthAdjust="spacing" textLength="47.3525" x="71.332" y="503.6564">&#171;host&#187;</text><text fill="#181818" font-family="sans-serif" font-size="14" lengthAdjust="spacing" textLength="156.0166" x="17" y="519.9532">Path-based prompting</text><text fill="#181818" font-family="sans-serif" font-size="14" lengthAdjust="spacing" textLength="141.9004" x="24.0581" y="536.2501">(ordered text paths)</text></g><!--entity LLM--><g class="entity" data-qualified-name="LLM" data-source-line="240" id="ent0005"><path d="M37.5749,636.6373 C40.2235,629.7789 46.3935,630.2541 50.299,635.293 C52.8838,628.9739 58.8717,629.8052 62.2665,634.4052 C65.5451,628.2557 69.8236,628.2265 73.7227,633.7988 C77.2575,629.884 81.9234,629.8095 83.9727,635.4005 C85.9385,628.8265 91.0226,627.5956 95.3848,633.1446 C99.4977,628.016 103.6707,627.8463 107.0945,633.8683 C111.5827,627.0545 115.742,627.607 119.8039,634.2703 C123.2803,629.6465 126.8162,628.7062 130.2202,634.3439 C133.9744,628.9996 139.7054,629.2313 143.1994,634.6574 C146.4246,628.8654 151.9012,628.7582 154.6898,635.0718 C161.404,637.8322 162.6019,642.1263 157.0552,647.2652 C164.624,649.9017 164.0211,655.1424 159.2476,659.9175 C163.7611,663.6231 162.6252,668.3829 157.0318,669.829 C161.9578,675.8222 160.5973,679.6897 153.0647,681.4181 C150.6006,686.1496 146.4007,686.6528 143.0405,682.4203 C140.2575,688.2657 134.7917,688.8591 131.1418,683.327 C128.1401,688.8113 123.6534,690.3142 119.3298,684.7388 C115.2937,690.3987 111.507,690.4527 107.5745,684.6328 C104.3345,689.2907 100.1286,688.655 97.1907,684.2854 C94.4656,689.8249 88.6358,689.6531 85.4327,684.8277 C82.1105,690.3164 76.1276,690.8729 73.3165,684.3137 C69.3829,689.7412 63.776,690.1286 60.9107,683.2378 C57.9221,687.7803 52.9592,686.6225 50.8205,682.2733 C46.6398,689.0818 42.4357,688.5019 38.2525,682.2757 C32.8634,679.7659 31.4445,675.7519 36.2347,671.3603 C29.9735,667.9579 30.4789,663.6504 35.4896,659.5376 C30.6979,653.9069 30.039,649.4338 38.0663,646.2979 C33.0161,643.4807 33.2217,639.9328 37.5749,636.6373" fill="#585858" filter="url(#f11fpvonx2ybqd)"/><text fill="#FAFAFA" font-family="sans-serif" font-size="14" font-style="italic" lengthAdjust="spacing" textLength="55.043" x="67.4889" y="654.5464">&#171;cloud&#187;</text><text fill="#FAFAFA" font-family="sans-serif" font-size="14" lengthAdjust="spacing" textLength="101.2607" x="44.38" y="670.8432">LLM generator</text></g><!--entity NOISE--><g class="entity" data-qualified-name="NOISE" data-source-line="241" id="ent0006"><rect fill="#CB2000" filter="url(#f11fpvonx2ybqd)" height="52.5938" rx="6" ry="6" style="stroke:#CB2000;stroke-width:0.5;" width="208.3301" x="352.84" y="342.9113"/><text fill="#FAFAFA" font-family="sans-serif" font-size="14" font-style="italic" lengthAdjust="spacing" textLength="51.5771" x="431.2165" y="365.9064">&#171;error&#187;</text><text fill="#FAFAFA" font-family="sans-serif" font-size="14" lengthAdjust="spacing" textLength="188.3301" x="362.84" y="382.2032">Redundant neighbor dump</text></g><g class="entity" data-qualified-name="GMN12" data-source-line="250" id="ent0013"><path d="M217.69,487.4013 L217.69,542.7997 A0,0 0 0 0 217.69,542.7997 L548.335,542.7997 A0,0 0 0 0 548.335,542.7997 L548.335,497.4013 L538.335,487.4013 L360.19,487.4013 L272.77,403.9513 L352.19,487.4013 L217.69,487.4013 A0,0 0 0 0 217.69,487.4013" fill="#E5E4E4" filter="url(#f11fpvonx2ybqd)" style="stroke:#B4B3B3;stroke-width:0.5;"/><path d="M538.335,487.4013 L538.335,497.4013 L548.335,497.4013 L538.335,487.4013" fill="#E5E4E4" style="stroke:#B4B3B3;stroke-width:0.5;"/><text fill="#181818" font-family="sans-serif" font-size="13" lengthAdjust="spacing" textLength="185.377" x="238.4134" y="504.4681">Thesis: graph RAG fails from</text><text fill="#181818" font-family="sans-serif" font-size="13" font-weight="700" lengthAdjust="spacing" textLength="86.5566" x="427.9227" y="504.4681">redundancy</text><text fill="#181818" font-family="sans-serif" font-size="13" lengthAdjust="spacing" textLength="4.1323" x="514.4793" y="504.4681">,</text><text fill="#181818" font-family="sans-serif" font-size="13" lengthAdjust="spacing" textLength="309.645" x="223.69" y="519.601">not from missing edges. Prune paths &#8594; ~40%+</text><text fill="#181818" font-family="sans-serif" font-size="13" lengthAdjust="spacing" textLength="235.9487" x="260.5381" y="534.7338">less context while holding accuracy.</text></g><!--link KG to CAND--><g class="link" data-entity-1="ent0001" data-entity-2="ent0002" data-link-type="dependency" data-source-line="243" id="lnk7"><path d="M402.01,112.1613 C402.01,134.6213 402.01,160.3112 402.01,183.6013" fill="none" id="KG-to-CAND" style="stroke:#585858;stroke-width:2;"/><polygon fill="#585858" points="402.01,188.6013,406.01,179.6013,402.01,183.6013,398.01,179.6013,402.01,188.6013" style="stroke:#585858;stroke-width:2;stroke-linejoin:miter;stroke-miterlimit:10;"/><text fill="#181818" font-family="sans-serif" font-size="13" lengthAdjust="spacing" textLength="80.8755" x="403.01" y="154.9381">query nodes</text></g><!--link CAND to NOISE--><g class="link" data-entity-1="ent0002" data-entity-2="ent0006" data-link-type="dependency" data-source-line="244" id="lnk8"><path d="M414.9,258.0613 C424.81,283.9713 436.4947,314.5409 445.5047,338.1109" fill="none" id="CAND-to-NOISE" style="stroke:#CB2000;stroke-width:2;"/><polygon fill="#CB2000" points="447.29,342.7813,447.8127,332.9463,445.5047,338.1109,440.3401,335.8028,447.29,342.7813" style="stroke:#CB2000;stroke-width:2;stroke-linejoin:miter;stroke-miterlimit:10;"/><text fill="#181818" font-family="sans-serif" font-size="13" lengthAdjust="spacing" textLength="131.5996" x="432.16" y="300.8381">unpruned neighbors</text></g><!--link CAND to PRUNE--><g class="link" data-entity-1="ent0002" data-entity-2="ent0003" data-link-type="dependency" data-source-line="245" id="lnk9"><path d="M363.79,258.0613 C337.73,281.0613 307.088,308.1118 281.018,331.1318" fill="none" id="CAND-to-PRUNE" style="stroke:#585858;stroke-width:2;"/><polygon fill="#585858" points="277.27,334.4413,286.6639,331.4826,281.018,331.1318,281.3688,325.4858,277.27,334.4413" style="stroke:#585858;stroke-width:2;stroke-linejoin:miter;stroke-miterlimit:10;"/><text fill="#181818" font-family="sans-serif" font-size="13" lengthAdjust="spacing" textLength="66.1235" x="326.4" y="300.8381">score flow</text></g><!--link PRUNE to PROMPT--><g class="link" data-entity-1="ent0003" data-entity-2="ent0004" data-link-type="dependency" data-source-line="246" id="lnk10"><path d="M205.25,403.9513 C182.14,427.0413 155.1563,453.9965 132.0963,477.0465" fill="none" id="PRUNE-to-PROMPT" style="stroke:#585858;stroke-width:2;"/><polygon fill="#585858" points="128.56,480.5813,137.7532,477.0477,132.0963,477.0465,132.0975,471.3896,128.56,480.5813" style="stroke:#585858;stroke-width:2;stroke-linejoin:miter;stroke-miterlimit:10;"/><text fill="#181818" font-family="sans-serif" font-size="13" lengthAdjust="spacing" textLength="83.5669" x="172.33" y="446.7281">sparse paths</text></g><!--link PROMPT to LLM--><g class="link" data-entity-1="ent0004" data-entity-2="ent0005" data-link-type="dependency" data-source-line="247" id="lnk11"><path d="M95.01,549.8113 C95.01,573.0713 95.01,598.7413 95.01,621.2913" fill="none" id="PROMPT-to-LLM" style="stroke:#585858;stroke-width:2;"/><polygon fill="#585858" points="95.01,626.2913,99.01,617.2913,95.01,621.2913,91.01,617.2913,95.01,626.2913" style="stroke:#585858;stroke-width:2;stroke-linejoin:miter;stroke-miterlimit:10;"/><text fill="#181818" font-family="sans-serif" font-size="13" lengthAdjust="spacing" textLength="177.8677" x="96.01" y="592.6181">coherent multi-hop context</text></g><?plantuml-src lLdfRY8x5lxFKxYvCsgI6vPilT3SI43eHPS41eXQhUbHorGPAAKMnZP9c5QFvjSym6YUy3x9VCTs5GM1Jg9kJI4bS7py-VZuhAxdl_tGKtZE-ZAv4Gdxur__PVsGn_hgeilqJ4I2bS9WEjDxu7adOY43xu05iHSkV3uEXUMfi7UIZrcWsMsWPtMmClRCCWasqtgkwjMgvBULAOONuuKIqajYBM9TyPAeEZThbprU3NpG0hsiHZo87RqoNqGX8C-vl6OUZs-ugZD0C3VD1ztmi9BYa3VYdapK0JC_P08PlIHC5bBjLMYVF1HQOq1CX1In9-fcMAfAv5VOPSBUGh1BcXeefeHUqyXpnNmnuOjG0sa2HcA2AFuRu75l1ffaRIbeqIZnWqaWf6AbOZ5AugHOF63x--CazFVt3rYr6cWU1bwrkcUm99GQ1h5W8fhFk09k42ijkC-IYL5o44_fFxkT4ReVyAda4TC9Ip1fmZs1tVsW5K2GShdCMfB7FfixHPMVy1IU_QdLRRP_n_6ptrZnbyDNz2c2_F7zXr4d9RzjqeV8xmRDJomblp9FIlvovCYdh-YJaOyTkNNIEcuTP-GJH-wSTauw9yK2w1VD3vSPUArs-lRbsw8ZPoYrsiiNhy-9tEoEM8wxrMo_SEGlXoloYzRBcY6tsvtBaIEtM-Uje-QAZ0bcFuUlpcir8qfdCEWDMCP-LAiPbE4L-8V35FprwV4Hs9__i3CFSbPl35Y921PChkkEjUp3asy4J7x4fup7InOdy5LoNx8oO4HSUpCokaO3TWYRrikvE3jZfRbn7IdyFGQh9KSaixHUvuouOY90ey7dSyp0CmcaqkKvbth9G6HL9XUG1rw6K70JU8AvnvrP2POVxgKeQXbxXFFtXLW8p1KtY19bdpOGu-UOUzTJcInWjEdZZWUXAn8fp2nHsaX3Np1j7d8DlulmDPaBoJLsCoOKBfSfZBM9ahVaSGhZGQi-uOWxg2Nc8URhMI1zjxqgWrG-i5QFC-UImegPEFxOgePXRRYxfbY4oKg31tyJATZcumnz5P091qUHI8AQy21SICBmXT9ouMdeXtxnU2gW7fNXE6iiqHd-ZA3HMXr04eTBEhqxxUoFXMAYAKoHaRZWQRQPcjHUuHd85FdQlMvlyANPxvECpc4t1uUVBjiOj1wtCVY-DnpPcUIy6uFjRk_g78CsccmCdhUCNbpms1Xqsd9kkx7VNn6F0nmOxVWW7yPzuOKSHXKaiO9M66Kfk44OgWn-EFhKxMpizmq1rJyIvWRV-WPsywsBc-Vx2O5bwE88ux2wszJfAS849frJFlGm5WYVZPSipCJ2t1AbFhB71F77VE5gHb64AtOhmf3-Mvj1xawec50Bn8OReJ1vAiLIUOXTZ7AJPIkFWU-pcq3S8avLM2zsOOXSYWb_AWv822kP3KbDAEVZbomne8G88d9t62HYp4mYJSDFPWXHIqHAFSjDwlL77tgNpIvZt5Ym56N4CFD5BI9XlcW3bSpfr7cOcvp5_voNefJnHBZXhXgvLmKqFpVxBrUTAvCypLvCp34n4OB6VZcPJA3Rp2GFR7XagBBsSXZEVF3GaIcX65z5ExWdZrS1JItXdX4cNoa-HO74cdd5jLZTBL5btBEY_g1XfHQySJpblpfhFo3J-LlvR8CnEv8LepMk-wpP0O3LUiOEp4pNOBG9V0TZfj3SuiQWCtvNJdN5b7j8Us70IUsbQp7NPE3WWfcwGawnQo7cx3QHrx3bFMQhgRKuPDIo8omYJsqFUouHRW-OQVdXIe-DKLERfV4o6-itH--jA4XwtdKibFhjU7sqtRkuwEN73rVJJRRgyh48ItTxh65AxxexaRF6-EokKHsVDQg6ljAuMdWUWExDitBldkUFxqsn-xa_nHrMEnGSJOu9305vf7fi0LnGE3cK02ZAqTFCKPN7UgYN8RKQdaOE3aMEPGv_XM_jPd2fSWIdR2BVnn4vd2V8_mi5L6IOTrPWw6yIpRuMo0w7C-ud50aHOq8btXWYTJDjsY6pbRcbhXAO6pFbkHthGd6EQkiM8dyhu0yQiz0K9L_pi6GBRmnX6Fn3iAFQ6t0Zod0J1JUO7QB5ipdaw-vLBNcKsX4xh9pktfM1Z1Faug_RzsYhf-sRFFwUjWOMH99TlB9BCPGrKvHvkzRwZZwVkXJ-MDFiX8ACe4n5KseU22VKVg88GIKS9xcoohMl9fBGSQGckKjYSunsA948J8wCo79FtjpcicC_FBc_WKDtY7tk-sIMXxLKUIQDKS-wIvfisJLXLZ9kDm1ccvY7psGDzU5JUTekZr9XChV--HBT5y3wdFJ_NslvNFCn4jftlUreno5kMV2nHfKv8E9sA3nRNt_7fjEb7c_L18ww1hGd6QUvA7Y25T4ojg7TjOn9tTjMSfSCJuvPfdLzMiZQfgdK3Gbo8kcgx5uCt-gfA-AQIMLHmUN49w8PAMmjzVLfqcUHrLoNh4AdUloTbu7ecmiHQd3X3icDo7h0HkENcRWxEwlJsDBS9gu4CQsJCW2VOzifZQNWrmZfwNHRibGgP-cTefz0EEIulGEB27xV872LDc1ScqwRhcNGHw03edx9CPkg0KUMHERIS1wQMqF6AdGbys1UsEwizxNzpI2Q_kGHbhtTVFEeEMitqERwvY7NV1YscyVyhcVaGzc3IiZNJ03snuyfHnwKTWFLLD6xW4shyqXfCzvlXKRL5PMspEkZ-nqqtvdU_csOt9PRd0gDWGYvxMuD1sn_4IFhcOjrTDtrT5uz7Q4t0_DPUUncQnc86qnkBgPKp81cNYeOJ7lxkB42DVzNWswTxktSYmGkxuARIYAdLJvMrQFJsb7byEHrxGYSNJIcOPsXuSZo4oj-Y7rnHw9CIPGYESllxzmDN65L61MTT88wSpy0WFWSovKqT1-WpEnsy_8ylTtC0nWzsPtExUu_nwQj0qfWtfQiCFg3gylEwd8p3qFRpc10rWQeP580QEPopG3jEQJUHN-KNN0Mh2tJK-nsBzZKwZUHXfaesHtc-kPzkWp0rrW4qzaOrk4lehcPTDdxCEoihXeB1QWlrweRTTGfcKbxZQmAXfJll2r4dIrYqWnsaQwonclWh6RgJ7bq1pg1JWkMjCPZzWmcT4lAwRNWgFd-dFPBRtXczB97imWrSr2U9NDctZ_TwKB1j0pZH6kAYXExEXnYX6WUgBgr6KQUG3StoaRF_NtfrEKjz_SFREDXXw90AR8rkdvI5UC5JZpsnx__m_vvKllphwPzK2gLWQuGOHip936QoJrl8Rcth1IemI3n_WS0?></g></svg>