<svg xmlns="http://www.w3.org/2000/svg" xmlns:xlink="http://www.w3.org/1999/xlink" contentStyleType="text/css" data-diagram-type="DESCRIPTION" height="716px" preserveAspectRatio="none" style="width:566px;height:716px;background:#FAFAFA;" version="1.1" viewBox="0 0 566 716" width="566px" zoomAndPan="magnify"><?plantuml 1.2026.6?><defs><filter height="300%" id="fav3exq8xmlyt" width="300%" x="-1" y="-1"><feGaussianBlur result="blurOut" stdDeviation="2"/><feColorMatrix in="blurOut" result="blurOut2" type="matrix" values="0 0 0 0 0 0 0 0 0 0 0 0 0 0 0 0 0 0 .4 0"/><feOffset dx="4" dy="4" in="blurOut2" result="blurOut3"/><feBlend in="SourceGraphic" in2="blurOut3" mode="normal"/></filter></defs><g><rect fill="#FAFAFA" height="716" style="stroke:none;stroke-width:1;" width="566" x="0" y="0"/><g class="title" data-source-line="231"><rect fill="none" height="33.2813" style="stroke:#585858;stroke-width:1;" width="549.0039" x="5" y="5"/><text fill="#005F7F" font-family="sans-serif" font-size="20" font-weight="700" lengthAdjust="spacing" textLength="539.0039" x="10" y="28.5645">RAPTOR &#8212; Recursive Abstractive Tree Retrieval</text></g><!--entity L--><g class="entity" data-qualified-name="L" data-source-line="236" id="ent0001"><rect fill="#005F7F" filter="url(#fav3exq8xmlyt)" height="52.5938" rx="6" ry="6" style="stroke:#00BAC6;stroke-width:0.5;" width="104.0889" x="259.7322" y="51.2813"/><text fill="#FAFAFA" font-family="sans-serif" font-size="14" font-style="italic" lengthAdjust="spacing" textLength="43.4834" x="290.0349" y="74.2764">&#171;app&#187;</text><text fill="#FAFAFA" font-family="sans-serif" font-size="14" lengthAdjust="spacing" textLength="84.0889" x="269.7322" y="90.5732">Leaf chunks</text></g><!--entity SUM--><g class="entity" data-qualified-name="SUM" data-source-line="237" id="ent0002"><path d="M241.4829,191.0551 C244.8099,183.9889 248.6445,183.4073 254.0271,189.0215 C257.4755,183.7608 262.5116,182.9837 265.9082,189.0757 C268.2621,183.4992 273.7041,181.2339 277.8536,187.2208 C280.3543,180.7493 285.685,179.6763 290.067,185.325 C292.8285,180.3936 297.897,179.9313 300.7761,185.2015 C303.718,179.3515 309.3542,180.5538 312.2321,185.2709 C316.8692,178.6674 321.6396,179.3237 325.3137,186.205 C328.3604,182.0518 333.338,181.1088 335.7185,186.9019 C339.2976,180.2372 345.2075,180.6656 348.1581,187.4818 C351.9824,181.6059 357.8756,181.4851 360.79,188.3817 C364.7209,183.2561 369.734,183.6648 372.5367,189.5818 C376.7463,183.7983 380.3724,184.0371 384.3452,189.8235 C393.1368,193.382 393.7636,201.7962 385.6374,206.6537 C393.0036,210.167 393.3965,216.2773 387.7491,221.626 C393.8863,226.121 394.1449,233.0689 386.3345,236.2111 C392.7211,242.3665 392.8439,247.7198 384.8707,252.5921 C381.3556,259.6831 376.5793,259.6739 371.4679,254.3099 C368.8611,259.9416 363.0315,260.4658 359.3226,255.583 C356.3776,260.4665 351.372,261.4635 348.3363,255.6764 C345.7668,261.5786 340.3678,261.5883 336.6145,256.9991 C334.694,263.3281 328.9981,265.7756 324.0759,260.1466 C320.6469,266.3794 316.4847,266.5844 312.0794,261.1506 C307.9577,267.1257 302.89,265.6264 300.1395,259.7672 C295.6987,264.0946 291.8987,263.0244 290.0176,257.212 C286.7401,263.1997 280.3631,262.559 277.1512,257.1381 C272.8592,262.99 267.1738,262.4563 264.4965,255.538 C260.8496,260.1276 255.8013,259.2815 253.184,254.3186 C248.3887,258.8346 244.3777,257.2092 241.7356,251.8279 C233.6764,247.4629 233.588,242.4958 240.2187,236.6616 C232.2503,232.365 232.9629,227.5615 238.7852,221.9236 C231.1554,216.929 230.939,210.2937 239.6593,206.2085 C233.3635,200.6794 234.0506,194.9321 241.4829,191.0551" fill="#585858" filter="url(#fav3exq8xmlyt)"/><text fill="#FAFAFA" font-family="sans-serif" font-size="14" font-style="italic" lengthAdjust="spacing" textLength="55.043" x="284.2566" y="208.8664">&#171;cloud&#187;</text><text fill="#FAFAFA" font-family="sans-serif" font-size="14" lengthAdjust="spacing" textLength="128.0918" x="247.7322" y="225.1632">Cluster + abstract</text><text fill="#FAFAFA" font-family="sans-serif" font-size="14" lengthAdjust="spacing" textLength="77.6289" x="272.9637" y="241.4601">summarize</text></g><!--entity TREE--><g class="entity" data-qualified-name="TREE" data-source-line="238" id="ent0003"><path d="M231.6222,346.7713 C231.6222,336.7713 311.776,336.7713 311.776,336.7713 C311.776,336.7713 391.9298,336.7713 391.9298,346.7713 L391.9298,404.6619 C391.9298,414.6619 311.776,414.6619 311.776,414.6619 C311.776,414.6619 231.6222,414.6619 231.6222,404.6619 L231.6222,346.7713" fill="#E5E4E4" filter="url(#fav3exq8xmlyt)" style="stroke:#585858;stroke-width:0.5;"/><path d="M231.6222,346.7713 C231.6222,356.7713 311.776,356.7713 311.776,356.7713 C311.776,356.7713 391.9298,356.7713 391.9298,346.7713" fill="none" style="stroke:#585858;stroke-width:0.5;"/><text fill="#181818" font-family="sans-serif" font-size="14" font-style="italic" lengthAdjust="spacing" textLength="34.9043" x="294.3239" y="373.7664">&#171;db&#187;</text><text fill="#181818" font-family="sans-serif" font-size="14" lengthAdjust="spacing" textLength="100.5771" x="261.4874" y="390.0632">Summary tree</text><text fill="#181818" font-family="sans-serif" font-size="14" lengthAdjust="spacing" textLength="140.3076" x="241.6222" y="406.3601">coarse &#8594; fine layers</text></g><!--entity RET--><g class="entity" data-qualified-name="RET" data-source-line="239" id="ent0004"><rect fill="#00BAC6" filter="url(#fav3exq8xmlyt)" height="68.8906" rx="6" ry="6" style="stroke:#006B70;stroke-width:0.5;" width="172.5645" x="15.4922" y="491.6613"/><text fill="#181818" font-family="sans-serif" font-size="14" font-style="italic" lengthAdjust="spacing" textLength="47.3525" x="78.0982" y="514.6564">&#171;host&#187;</text><text fill="#181818" font-family="sans-serif" font-size="14" lengthAdjust="spacing" textLength="152.5645" x="25.4922" y="530.9532">Collapsed tree search</text><text fill="#181818" font-family="sans-serif" font-size="14" lengthAdjust="spacing" textLength="76.2344" x="63.6572" y="547.2501">(any layer)</text></g><!--entity LLM--><g class="entity" data-qualified-name="LLM" data-source-line="240" id="ent0005"><path d="M44.3371,647.6373 C46.9857,640.7789 53.1557,641.2541 57.0612,646.293 C59.646,639.9739 65.6339,640.8052 69.0287,645.4052 C72.3073,639.2557 76.5858,639.2265 80.4849,644.7988 C84.0197,640.884 88.6856,640.8095 90.7349,646.4005 C92.7007,639.8265 97.7848,638.5956 102.147,644.1446 C106.2599,639.016 110.4329,638.8463 113.8567,644.8683 C118.3449,638.0545 122.5043,638.607 126.5661,645.2703 C130.0425,640.6465 133.5784,639.7062 136.9824,645.3439 C140.7366,639.9996 146.4676,640.2313 149.9616,645.6574 C153.1868,639.8654 158.6634,639.7582 161.452,646.0718 C168.1662,648.8322 169.3641,653.1263 163.8174,658.2652 C171.3862,660.9017 170.7833,666.1424 166.0098,670.9175 C170.5233,674.6231 169.3874,679.3829 163.794,680.829 C168.72,686.8222 167.3595,690.6897 159.8269,692.4181 C157.3628,697.1496 153.1629,697.6528 149.8027,693.4203 C147.0197,699.2657 141.5539,699.8591 137.904,694.327 C134.9023,699.8113 130.4156,701.3142 126.092,695.7388 C122.0559,701.3987 118.2692,701.4527 114.3367,695.6328 C111.0967,700.2907 106.8908,699.655 103.9529,695.2854 C101.2278,700.8249 95.398,700.6531 92.1949,695.8277 C88.8727,701.3164 82.8898,701.8729 80.0787,695.3137 C76.1451,700.7412 70.5382,701.1286 67.6729,694.2378 C64.6843,698.7803 59.7214,697.6225 57.5827,693.2733 C53.402,700.0818 49.1979,699.5019 45.0147,693.2757 C39.6256,690.7659 38.2067,686.7519 42.9969,682.3603 C36.7357,678.9579 37.2411,674.6504 42.2518,670.5376 C37.4601,664.9069 36.8012,660.4338 44.8285,657.2979 C39.7784,654.4807 39.9839,650.9328 44.3371,647.6373" fill="#585858" filter="url(#fav3exq8xmlyt)"/><text fill="#FAFAFA" font-family="sans-serif" font-size="14" font-style="italic" lengthAdjust="spacing" textLength="55.043" x="74.2511" y="665.5464">&#171;cloud&#187;</text><text fill="#FAFAFA" font-family="sans-serif" font-size="14" lengthAdjust="spacing" textLength="101.2607" x="51.1422" y="681.8432">LLM generator</text></g><g class="entity" data-qualified-name="GMN10" data-source-line="248" id="ent0011"><path d="M223.0322,498.4013 L223.0322,553.7997 A0,0 0 0 0 223.0322,553.7997 L542.5117,553.7997 A0,0 0 0 0 542.5117,553.7997 L542.5117,508.4013 L532.5117,498.4013 L373.9222,498.4013 L330.0622,414.9213 L365.9222,498.4013 L223.0322,498.4013 A0,0 0 0 0 223.0322,498.4013" fill="#E5E4E4" filter="url(#fav3exq8xmlyt)" style="stroke:#B4B3B3;stroke-width:0.5;"/><path d="M532.5117,498.4013 L532.5117,508.4013 L542.5117,508.4013 L532.5117,498.4013" fill="#E5E4E4" style="stroke:#B4B3B3;stroke-width:0.5;"/><text fill="#181818" font-family="sans-serif" font-size="13" lengthAdjust="spacing" textLength="282.0518" x="237.2461" y="515.4681">Tree RAG for long documents: upper nodes</text><text fill="#181818" font-family="sans-serif" font-size="13" lengthAdjust="spacing" textLength="286.1079" x="235.218" y="530.601">for thematic / sense-making queries; leaves</text><text fill="#181818" font-family="sans-serif" font-size="13" lengthAdjust="spacing" textLength="298.4795" x="229.0322" y="545.7338">for local detail. Complementary to entity KGs.</text></g><!--link L to SUM--><g class="link" data-entity-1="ent0001" data-entity-2="ent0002" data-link-type="dependency" data-source-line="242" id="lnk6"><path d="M311.7722,104.0612 C311.7722,125.3713 311.7722,151.1113 311.7722,175.4813" fill="none" id="L-to-SUM" style="stroke:#585858;stroke-width:2;"/><polygon fill="#585858" points="311.7722,180.4813,315.7722,171.4813,311.7722,175.4813,307.7722,171.4813,311.7722,180.4813" style="stroke:#585858;stroke-width:2;stroke-linejoin:miter;stroke-miterlimit:10;"/><text fill="#181818" font-family="sans-serif" font-size="13" lengthAdjust="spacing" textLength="60.1504" x="312.7722" y="146.9381">recursive</text></g><!--link SUM to TREE--><g class="link" data-entity-1="ent0002" data-entity-2="ent0003" data-link-type="dependency" data-source-line="243" id="lnk7"><path d="M311.7722,260.0313 C311.7722,283.3713 311.7722,307.9913 311.7722,331.2813" fill="none" id="SUM-to-TREE" style="stroke:#585858;stroke-width:2;"/><polygon fill="#585858" points="311.7722,336.2813,315.7722,327.2813,311.7722,331.2813,307.7722,327.2813,311.7722,336.2813" style="stroke:#585858;stroke-width:2;stroke-linejoin:miter;stroke-miterlimit:10;"/><text fill="#181818" font-family="sans-serif" font-size="13" lengthAdjust="spacing" textLength="75.4863" x="312.7722" y="302.8381">build layers</text></g><!--link TREE to RET--><g class="link" data-entity-1="ent0003" data-entity-2="ent0004" data-link-type="dependency" data-source-line="244" id="lnk8"><path d="M257.4222,415.1213 C224.0022,438.7313 185.6656,465.8258 153.5556,488.5158" fill="none" id="TREE-to-RET" style="stroke:#585858;stroke-width:2;"/><polygon fill="#585858" points="149.4722,491.4013,159.1307,489.4741,153.5556,488.5158,154.5139,482.9407,149.4722,491.4013" style="stroke:#585858;stroke-width:2;stroke-linejoin:miter;stroke-miterlimit:10;"/><text fill="#181818" font-family="sans-serif" font-size="13" lengthAdjust="spacing" textLength="94.4341" x="214.0722" y="457.7281">retrieve nodes</text></g><!--link RET to LLM--><g class="link" data-entity-1="ent0004" data-entity-2="ent0005" data-link-type="dependency" data-source-line="245" id="lnk9"><path d="M101.7722,560.8113 C101.7722,584.0713 101.7722,609.7413 101.7722,632.2913" fill="none" id="RET-to-LLM" style="stroke:#585858;stroke-width:2;"/><polygon fill="#585858" points="101.7722,637.2913,105.7722,628.2913,101.7722,632.2913,97.7722,628.2913,101.7722,637.2913" style="stroke:#585858;stroke-width:2;stroke-linejoin:miter;stroke-miterlimit:10;"/><text fill="#181818" font-family="sans-serif" font-size="13" lengthAdjust="spacing" textLength="162.6396" x="102.7722" y="603.6181">multi-granularity context</text></g><?plantuml-src lLdhRXfB4lxFKrGuAmNdc8jlYOCTIu294nril80LHPjLrCmqCF8mmtOFjjaeqlxQ1rZj4vudsQ-wUuOnXjXMeXqa6wghgwkxlhhrl7ptKq_X9Lsg-4R6zEU__akNeOYIg_CE9HCvbLGAW_4asGBFcOoa2hnj2Y8ldFjY64hBKw4p9OOK97GR99CwM8bUM2P9aoIPwNgrgiHjPOpX-N2kfVBYA95HKl7YQNLcrYvxeXhue0N9eZeLGUJebTby6aBagL3Nv8deHkWwGGIvQJxeXeTAMa3VgV1KhBV9_50nTFJYC9uhlLNXVOfG9Wa6v4Wg6NcoReQLhapz2bt4z1wANV3KG9EMoRqJUQd9boCn3nD86e6HcQ2AVmHvmfk0fgYb92ywZVrW54YbgLGiJkCeBXQtwTMhOHpwhrvjKxKQ928Cl6froyXIEDGmY2J9wMmYDEG6aKway2aUcKCEeZ7_fzi9I_S3CLPYIabCCIQDX2Unkvz40HGfbylKL2BoQUOEgloCf_3YByrEe_K7p4_lgFZRpY5_YY1_-l1nq4x9xnlyOV9Ph_6PKlAXULBorrr7FZZaJqRUS-JcVdElkPUHznsvVT3UR-yN2w2VDpvUPC9hjOFtRzuN7JcJKgkzUVtsbCcDpe1otCr6wxKZVzrPabyttzGCkTLgNmmSkTKyRUusbcHCCFlPEJojrOmgxLwlswECVRTMCrBwL-3lzrFXRm_sTi7-ygUTkPT3lG6mbbCWc5tNcRNimvDl920_46CIqOAY6BxAxiieWuofIBm9W-xu63W4ffF5J9wSK6bcN4T9Vuk0MdP4XgNrEWVYYea0nyTYDiCCFAD0wQGy4ofP48XK9JM7Fl0oX8ARm9Fa7cUp4f0VRgLIz2BoMCu_vd8kCLVU84gKVTv0X9z3uLsFLJm7QDF7cGUXQofJCPDO9qOR_e9fir0ayBifliOpgKI2tGnPYb2BL8p5HCbRY2WLu-5KVPOZxt0iaGWnFva4odVRgnAqyY5h-JWubpHMpDJnX_Pe26l3tHEEHPYi4_3WRwmahJuEwCk0p79WYbYng948mhbY6RxKYPfx2Sw7VubeB74yEfFZq5XY6_wAeD5S6Y2EmWLRxovn-ADGZX8EKmmI5ppDDbD8RHLUWCoHhzNjT7jV6vUNhADpsDN1_kUB5WQjnwqCVkZs1tOcE-_AOAlJlJh5e8qcAuEdJNCkBdYi3BhJScwxij_V4Oy368ntl9qFuxxqGW5G1N6aSIh4MGfk48Ow4zyVVEwqL_Pxn8BgdrZc2j_z3MpckwzkdkyN19Q-YoCaWBhRrEavmWGcdNC-z30MI9-62mepjJ2tnAcFyHWZ_fWlGayuYWXDjp8C-R_5379tpCM4dYCst4YDoMCb5zf3x2BEJPQjF8Hydsu2UOiuLQ5kvC8GknH9VootMGchcGr93HpEfwzPOa094KpPtG58n9Y9Gfg6dqmGeXQ8bCaaDwbxEVZOlMXqY8H1i99bn33pHS-dqdn9ZAXunbONOMvo5lzpNefInfFXYhicoBqwuFcvsN-zQb-Pv6dsOcAEYObGDFBByMY4iyqWkMt38w7Asih9SF31moRJKfDOHZkufuYM0Kqlu9vJJBxIOem2YHhvWsjItIrH9U5PLNyIM2c2LynJ_fj3-pP3v-_banN6p2HBHWkkXwoP0S1gFME3pEoimMWJ-0R6x41pYnj0P_okdEh8iV2Gzi90yB6NhkKiOO232p1rXPocQobdT1khQs1vYsmrTIyEcMFP41QHfzQ7FPS8rmVCjFnmfSVAgAdDqdYPZLqs1X-iAaXwtdKajNwtTt-qrJq_x-R7TvRJJRRgYA4CItTRT6nAxxgpoCdnyEJkk3eyEQuQ-lB4zTpp8EZ1FAltvdd-yC4Kkv-7KvonMg4KQ79CO0ZO8_LJ2-22XkLG0g0eHqypGrKU9Vra4NAhuIN8mQ7CiSpWh_2jpGmkLGxWb0ta-sZA3kT9zlz20HKPvfqK2FrDdD2t0kEmFn5-p94GCIRKyiWGkPjfyGx9LkQMkanWRioKvtQiWuDpL5ktCFbx0N_Gc8McAFcM5yjOE3A4Vl1FIRkr8t0ZoWWJ1LUOdKGhp-QGRvjNjUH1YYFQgHnitfKH6SN8nT_Mxz5MJ-itkVUZq-fP8OfnSMYN8fGrOvHvczRwmNa-TodyiT1iXv91KEQYAOK7mWctdoX2K0b7SQwiSkshYIHiZXIIcpGsPhH3iK9WScH4bWVwvZQNcNrd_-46TfmHBuNlContQkdXcJJ6FUicRR9bxocpr74z0CWsCO_Rv9xKnwtol5tkfifaRlthDNgeWFKvvV-_rl958eP8Q3_qjjqDHbopu5D1bJaWudOeFLjV_m3JwL9FHpKBHrq3shF0QIuAde4YNiOsj9kMCQbxtKhkak7PCSkqhiyBMUjEAdL35ZbIV5Ns88QlzTGbyHwaigZWSk8pfHajR2trxNdQPv7LN9SiGwT--fsN4N5fBaIumOKxn3Sowm6FZt-RoBkJapgFBSnjub8Hqpff8-1BP3kbePBY6Y4zdMvBbahb9BrJz6CeXnotjMqbWjyt4eHE6p2Hc4wRhsNGHw03udx9CPkg0IQBf-RIS1QQMqEY2b_9F9eNrZlhmzF-RYIQ_kG9o5uFtxpK7DgDQ7DzyvXhFYwsavVvGy_8Xx973o5VCq6mFtnAEVAejYjIJHMzIR1fTPweRSRxlN1STKMbBVDwZSi1EYPkxNlIcolDtMbZY4vLs4vre2IuqF86yiRqkfS2RNVTJQnlc7MfOgxaJPKA1LX8kQl68a9WzE-9k-frwdnPvzuU27KNt5HYDQwAeQxkxjTsAZk7jOEtuEoW6mthX2vZMUKKErACo9lCesjTPFVefDUH1MjhVegjSCvkJx-JS3f-YT3CJuM2EcPQ_-fyUUTNo98U5Vk63QqpTl0bycAXGFxpt_yXqtY4OY6LNNZGQxVTTLzUFnWW53EktLW2OeDGtkHBLEAhM3DxoypkjGVPrMLUyqxddCRyEeQlBUq6EtbD2vrxRIfleyu5YJL9WN_dccsZOvs6yo3qdUu5Gylni2PrSyS12qbJQUa24_Fhi19rcg8o3SfeQwDvYADC5cJUzjmbXO8fq8TeqZa6ZSp2G9_5KkFCO2AC0Gu_zkPSxVAhdXbVvzZro73mwn31jr1Ld5kaPNagk6lcT0hbz16ASt6JSOUn9q8Kp8a8mWgrO09RIBkB3_l2YVuuqvK2L_IiuVy0?></g></svg>