<svg xmlns="http://www.w3.org/2000/svg" xmlns:xlink="http://www.w3.org/1999/xlink" contentStyleType="text/css" data-diagram-type="DESCRIPTION" height="844px" preserveAspectRatio="none" style="width:528px;height:844px;background:#FAFAFA;" version="1.1" viewBox="0 0 528 844" width="528px" zoomAndPan="magnify"><?plantuml 1.2026.6?><defs><filter height="300%" id="fxv6mg7ghzb6i" width="300%" x="-1" y="-1"><feGaussianBlur result="blurOut" stdDeviation="2"/><feColorMatrix in="blurOut" result="blurOut2" type="matrix" values="0 0 0 0 0 0 0 0 0 0 0 0 0 0 0 0 0 0 .4 0"/><feOffset dx="4" dy="4" in="blurOut2" result="blurOut3"/><feBlend in="SourceGraphic" in2="blurOut3" mode="normal"/></filter></defs><g><rect fill="#FAFAFA" height="844" style="stroke:none;stroke-width:1;" width="528" x="0" y="0"/><g class="title" data-source-line="231"><rect fill="none" height="33.2813" style="stroke:#585858;stroke-width:1;" width="446.9922" x="37.1696" y="5"/><text fill="#005F7F" font-family="sans-serif" font-size="20" font-weight="700" lengthAdjust="spacing" textLength="436.9922" x="42.1696" y="28.5645">Dense / Vector RAG (baseline pipeline)</text></g><!--entity U--><g class="entity" data-qualified-name="U" data-source-line="236" id="ent0001"><ellipse cx="149.8472" cy="58.2813" fill="#00BAC6" filter="url(#fxv6mg7ghzb6i)" rx="8" ry="8" style="stroke:#585858;stroke-width:0.5;"/><path d="M149.8472,66.2813 L149.8472,93.2813 M136.8472,74.2813 L162.8472,74.2813 M149.8472,93.2813 L136.8472,108.2813 M149.8472,93.2813 L162.8472,108.2813" fill="none" filter="url(#fxv6mg7ghzb6i)" style="stroke:#585858;stroke-width:0.5;"/><text fill="#181818" font-family="sans-serif" font-size="14" lengthAdjust="spacing" textLength="76.7744" x="111.46" y="124.2764">User query</text></g><!--entity E--><g class="entity" data-qualified-name="E" data-source-line="237" id="ent0002"><rect fill="#005F7F" filter="url(#fxv6mg7ghzb6i)" height="52.5938" rx="6" ry="6" style="stroke:#00BAC6;stroke-width:0.5;" width="92.126" x="103.79" y="217.2313"/><text fill="#FAFAFA" font-family="sans-serif" font-size="14" font-style="italic" lengthAdjust="spacing" textLength="43.4834" x="128.1113" y="240.2264">&#171;app&#187;</text><text fill="#FAFAFA" font-family="sans-serif" font-size="14" lengthAdjust="spacing" textLength="72.126" x="113.79" y="256.5232">Embedder</text></g><!--entity IX--><g class="entity" data-qualified-name="IX" data-source-line="238" id="ent0003"><path d="M259.72,214.5813 C259.72,204.5813 341.8528,204.5813 341.8528,204.5813 C341.8528,204.5813 423.9856,204.5813 423.9856,214.5813 L423.9856,272.4719 C423.9856,282.4719 341.8528,282.4719 341.8528,282.4719 C341.8528,282.4719 259.72,282.4719 259.72,272.4719 L259.72,214.5813" fill="#E5E4E4" filter="url(#fxv6mg7ghzb6i)" style="stroke:#585858;stroke-width:0.5;"/><path d="M259.72,214.5813 C259.72,224.5813 341.8528,224.5813 341.8528,224.5813 C341.8528,224.5813 423.9856,224.5813 423.9856,214.5813" fill="none" style="stroke:#585858;stroke-width:0.5;"/><text fill="#181818" font-family="sans-serif" font-size="14" font-style="italic" lengthAdjust="spacing" textLength="34.9043" x="324.4007" y="241.5764">&#171;db&#187;</text><text fill="#181818" font-family="sans-serif" font-size="14" lengthAdjust="spacing" textLength="88.6963" x="297.5047" y="257.8732">Vector index</text><text fill="#181818" font-family="sans-serif" font-size="14" lengthAdjust="spacing" textLength="144.2656" x="269.72" y="274.1701">(chunk embeddings)</text></g><!--entity RET--><g class="entity" data-qualified-name="RET" data-source-line="239" id="ent0004"><rect fill="#005F7F" filter="url(#fxv6mg7ghzb6i)" height="68.8906" rx="6" ry="6" style="stroke:#00BAC6;stroke-width:0.5;" width="91.0732" x="104.31" y="359.4713"/><text fill="#FAFAFA" font-family="sans-serif" font-size="14" font-style="italic" lengthAdjust="spacing" textLength="43.4834" x="128.1049" y="382.4664">&#171;app&#187;</text><text fill="#FAFAFA" font-family="sans-serif" font-size="14" lengthAdjust="spacing" textLength="64.7432" x="117.475" y="398.7632">Retriever</text><text fill="#FAFAFA" font-family="sans-serif" font-size="14" lengthAdjust="spacing" textLength="71.0732" x="114.31" y="415.0601">top-k ANN</text></g><!--entity RR--><g class="entity" data-qualified-name="RR" data-source-line="240" id="ent0005"><rect fill="#CBDB2A" filter="url(#fxv6mg7ghzb6i)" height="52.5938" rx="6" ry="6" style="stroke:#818D00;stroke-width:0.5;" width="143.6963" x="7" y="505.3613"/><text fill="#181818" font-family="sans-serif" font-size="14" font-style="italic" lengthAdjust="spacing" textLength="57.8594" x="49.9185" y="528.3564">&#171;async&#187;</text><text fill="#181818" font-family="sans-serif" font-size="14" lengthAdjust="spacing" textLength="123.6963" x="17" y="544.6532">Optional reranker</text></g><!--entity LLM--><g class="entity" data-qualified-name="LLM" data-source-line="241" id="ent0006"><path d="M92.4149,645.0373 C95.0635,638.1789 101.2335,638.6541 105.139,643.693 C107.7238,637.3739 113.7117,638.2052 117.1065,642.8052 C120.3851,636.6557 124.6636,636.6265 128.5627,642.1988 C132.0975,638.284 136.7634,638.2095 138.8127,643.8005 C140.7785,637.2265 145.8626,635.9956 150.2248,641.5446 C154.3377,636.416 158.5107,636.2463 161.9345,642.2683 C166.4227,635.4545 170.582,636.007 174.6439,642.6703 C178.1203,638.0465 181.6562,637.1062 185.0602,642.7439 C188.8144,637.3996 194.5454,637.6313 198.0394,643.0574 C201.2646,637.2654 206.7412,637.1582 209.5298,643.4718 C216.244,646.2322 217.4419,650.5263 211.8952,655.6652 C219.464,658.3017 218.8611,663.5424 214.0876,668.3175 C218.6011,672.0231 217.4652,676.7829 211.8718,678.229 C216.7978,684.2222 215.4373,688.0897 207.9047,689.8181 C205.4406,694.5496 201.2407,695.0528 197.8805,690.8203 C195.0975,696.6657 189.6317,697.2591 185.9818,691.727 C182.9801,697.2113 178.4934,698.7142 174.1698,693.1388 C170.1337,698.7987 166.347,698.8527 162.4145,693.0328 C159.1745,697.6907 154.9686,697.055 152.0307,692.6854 C149.3056,698.2249 143.4758,698.0531 140.2727,693.2277 C136.9505,698.7164 130.9676,699.2729 128.1565,692.7137 C124.2229,698.1412 118.616,698.5286 115.7507,691.6378 C112.7621,696.1803 107.7992,695.0225 105.6605,690.6733 C101.4798,697.4818 97.2757,696.9019 93.0925,690.6757 C87.7034,688.1659 86.2845,684.1519 91.0747,679.7603 C84.8135,676.3579 85.3189,672.0504 90.3296,667.9376 C85.5379,662.3069 84.879,657.8338 92.9063,654.6979 C87.8561,651.8807 88.0617,648.3328 92.4149,645.0373" fill="#585858" filter="url(#fxv6mg7ghzb6i)"/><text fill="#FAFAFA" font-family="sans-serif" font-size="14" font-style="italic" lengthAdjust="spacing" textLength="55.043" x="122.3289" y="662.9464">&#171;cloud&#187;</text><text fill="#FAFAFA" font-family="sans-serif" font-size="14" lengthAdjust="spacing" textLength="101.2607" x="99.22" y="679.2432">LLM generator</text></g><!--entity OUT--><g class="entity" data-qualified-name="OUT" data-source-line="242" id="ent0007"><rect fill="#00BAC6" filter="url(#fxv6mg7ghzb6i)" height="52.5938" rx="6" ry="6" style="stroke:#006B70;stroke-width:0.5;" width="151.9609" x="73.87" y="774.5513"/><text fill="#181818" font-family="sans-serif" font-size="14" font-style="italic" lengthAdjust="spacing" textLength="47.3525" x="126.1742" y="797.5464">&#171;host&#187;</text><text fill="#181818" font-family="sans-serif" font-size="14" lengthAdjust="spacing" textLength="131.9609" x="83.87" y="813.8432">Answer + citations</text></g><g class="entity" data-qualified-name="GMN15" data-source-line="253" id="ent0016"><path d="M230.37,366.2113 L230.37,421.6097 A0,0 0 0 0 230.37,421.6097 L513.3314,421.6097 A0,0 0 0 0 513.3314,421.6097 L513.3314,376.2113 L503.3314,366.2113 L370.42,366.2113 L349.57,282.7413 L362.42,366.2113 L230.37,366.2113 A0,0 0 0 0 230.37,366.2113" fill="#E5E4E4" filter="url(#fxv6mg7ghzb6i)" style="stroke:#B4B3B3;stroke-width:0.5;"/><path d="M503.3314,366.2113 L503.3314,376.2113 L513.3314,376.2113 L503.3314,366.2113" fill="#E5E4E4" style="stroke:#B4B3B3;stroke-width:0.5;"/><text fill="#181818" font-family="sans-serif" font-size="13" lengthAdjust="spacing" textLength="254.4331" x="240.1342" y="383.2781">Baseline Jul 2026 fact-retrieval default.</text><text fill="#181818" font-family="sans-serif" font-size="13" lengthAdjust="spacing" textLength="261.9614" x="236.37" y="398.411">Fast; weak on multi-hop / global themes</text><text fill="#181818" font-family="sans-serif" font-size="13" lengthAdjust="spacing" textLength="259.8794" x="237.411" y="413.5438">unless augmented (graph, tree, router).</text></g><!--link U to E--><g class="link" data-entity-1="ent0001" data-entity-2="ent0002" data-link-type="dependency" data-source-line="244" id="lnk8"><path d="M149.85,127.8513 C149.85,155.6213 149.85,187.4613 149.85,211.8012" fill="none" id="U-to-E" style="stroke:#585858;stroke-width:2;"/><polygon fill="#585858" points="149.85,216.8012,153.85,207.8012,149.85,211.8012,145.85,207.8012,149.85,216.8012" style="stroke:#585858;stroke-width:2;stroke-linejoin:miter;stroke-miterlimit:10;"/><text fill="#181818" font-family="sans-serif" font-size="13" lengthAdjust="spacing" textLength="86.8232" x="150.85" y="170.6481">embed query</text></g><!--link E to RET--><g class="link" data-entity-1="ent0002" data-entity-2="ent0004" data-link-type="dependency" data-source-line="245" id="lnk9"><path d="M148.72,270.1713 C148.11,287.0213 147.53,309.5613 147.85,329.4713 C148,339.0513 148.123,344.4537 148.423,354.0037" fill="none" id="E-to-RET" style="stroke:#585858;stroke-width:2;"/><polygon fill="#585858" points="148.58,359.0013,152.2954,349.8801,148.423,354.0037,144.2994,350.1313,148.58,359.0013" style="stroke:#585858;stroke-width:2;stroke-linejoin:miter;stroke-miterlimit:10;"/><text fill="#181818" font-family="sans-serif" font-size="13" lengthAdjust="spacing" textLength="54.1772" x="148.85" y="325.5381">q-vector</text></g><!--link IX to RET--><g class="link" data-entity-1="ent0003" data-entity-2="ent0004" data-link-type="dependency" data-source-line="246" id="lnk10"><path d="M286.85,282.8513 C273.62,292.3513 259.62,302.6313 246.85,312.4713 C227.61,327.2913 210.6484,341.1752 193.2684,355.7752" fill="none" id="IX-to-RET" style="stroke:#585858;stroke-width:2;"/><polygon fill="#585858" points="189.44,358.9913,198.904,356.2651,193.2684,355.7752,193.7583,350.1396,189.44,358.9913" style="stroke:#585858;stroke-width:2;stroke-linejoin:miter;stroke-miterlimit:10;"/><text fill="#181818" font-family="sans-serif" font-size="13" lengthAdjust="spacing" textLength="99.7153" x="247.85" y="325.5381">nearest chunks</text></g><!--link RET to RR--><g class="link" data-entity-1="ent0004" data-entity-2="ent0005" data-link-type="dependency" data-source-line="247" id="lnk11"><path d="M132.12,428.8213 C119.71,452.5313 105.7278,479.2709 94.4378,500.8509" fill="none" id="RET-to-RR" style="stroke:#585858;stroke-width:1;stroke-dasharray:1,3;"/><polygon fill="#585858" points="92.12,505.2813,99.8363,499.1609,94.4378,500.8509,92.7478,495.4524,92.12,505.2813" style="stroke:#585858;stroke-width:1;stroke-linejoin:miter;stroke-miterlimit:10;"/><text fill="#181818" font-family="sans-serif" font-size="13" lengthAdjust="spacing" textLength="35.2168" x="117.48" y="471.4281">score</text></g><!--link RR to LLM--><g class="link" data-entity-1="ent0005" data-entity-2="ent0006" data-link-type="dependency" data-source-line="248" id="lnk12"><path d="M88.03,558.3313 C93.43,572.4213 100.78,590.0113 108.85,604.9513 C114.26,614.9813 118.1115,621.2882 124.4915,630.5882" fill="none" id="RR-to-LLM" style="stroke:#585858;stroke-width:2;"/><polygon fill="#585858" points="127.32,634.7113,125.5271,625.027,124.4915,630.5882,118.9303,629.5526,127.32,634.7113" style="stroke:#585858;stroke-width:2;stroke-linejoin:miter;stroke-miterlimit:10;"/><text fill="#181818" font-family="sans-serif" font-size="13" lengthAdjust="spacing" textLength="84.2524" x="109.85" y="601.0181">context pack</text></g><!--link RET to LLM--><g class="link" data-entity-1="ent0004" data-entity-2="ent0006" data-link-type="dependency" data-source-line="249" id="lnk13"><path d="M169.36,428.6813 C191.04,470.7413 220.34,544.4413 198.85,604.9513 C195.06,615.6313 191.619,621.8994 184.489,630.7394" fill="none" id="RET-to-LLM" style="stroke:#585858;stroke-width:2;"/><polygon fill="#585858" points="181.35,634.6313,190.1137,630.1371,184.489,630.7394,183.8868,625.1147,181.35,634.6313" style="stroke:#585858;stroke-width:2;stroke-linejoin:miter;stroke-miterlimit:10;"/><text fill="#181818" font-family="sans-serif" font-size="13" lengthAdjust="spacing" textLength="85.2109" x="207.32" y="536.2281">(if no rerank)</text></g><!--link LLM to OUT--><g class="link" data-entity-1="ent0006" data-entity-2="ent0007" data-link-type="dependency" data-source-line="250" id="lnk14"><path d="M149.85,698.0013 C149.85,721.1113 149.85,747.3913 149.85,769.1613" fill="none" id="LLM-to-OUT" style="stroke:#585858;stroke-width:2;"/><polygon fill="#585858" points="149.85,774.1613,153.85,765.1613,149.85,769.1613,145.85,765.1613,149.85,774.1613" style="stroke:#585858;stroke-width:2;stroke-linejoin:miter;stroke-miterlimit:10;"/><text fill="#181818" font-family="sans-serif" font-size="13" lengthAdjust="spacing" textLength="176.6426" x="150.85" y="740.6181">generate grounded answer</text></g><?plantuml-src lLbzRnez4lz_FuNBSrAXJtX9qbUIHW92N-v8o06vNdKzLMRNm2hBxZws8U6gIlSXxXFU9xdVsDvbGw19rEeMALd6u_5uFFER6VFqxKyztbDs8PEbIDX___qVTX7nM5-UzPYUYRbWvIYSpdG5FEz5B6Jexx4mzgD5mCUHi3mrzbxoCGirkmxrh0bMnfvO9i5cMgUgMQzBVbsROdWnNYWX_IJM8jOrFvdNKxDsrUVrC00jrAlwd8UnezVInJo2o5CkhvZFuoLNJGOHp4qBG3SyhAmuz9rpNoPgZvalCe6EVX8b2wagDTedZuJM610J8KNiYwOPbges3shiF67leDWvJGqLKqBViiXJnG8nuOj8Gz84ZCG4LO8ZoEF-33J9EbBGelCa22UXa8gLIwLv4YUbqXvxzcoSHC6pPtkiNWyrZqA_NgyOMH96ZS9OC35FPrn1RXWhBNZ0aeanSXXFwJ-xdf7q8EHJoUTC9op1f0dt1NRtaru0HQhLAcjB7WSiTOQgFkBndloftMjr_eBZPszPwRVzr_GfWVpfmyTHDoE_Qz67oEy7hSyi8xysJqR-Uk38BrxJ9oSVEdBxUVkmVPYJdpjozqNtUVTvoGFzhFNnF1VUQBnuz-fToP5pAOt6gvTlJedSwerOWRlTwhnqvA_xQ_BBzgk68NSwtVEH8tVQf-s3rfgC2MO_-wzF6msZIdSmw0zOpdxGQ1Wfmqlm3uUPy3Sl3W_0_lIdWtbGy7hZm4hCuS4KkkvOgm4YUIdWyYC-PJnUiJX1h5BuafT1nfnhVqPETtmCFuHFwrKgJavOEJMX8qLGOV1Q2aHoInjrpebh1W6EZtcQOWQUIIYLhgPSwXK3aTMPN40VH1cWO1dwWhd7dLaPdXzLCYbg5Viavu-5M0ZC5KkWH3MW3SJuEkR-rLGc2pXjzhZZ0NJDHIPcbYXjjA4NJ4iZhX5tSxmcgP1SOpTZaiBbAXDZVQBihtYSYV5XrO3aY1kO9UOHvkjPA0EtlJg3LW5ahH_dpcM55NDrWh4r3SFQ27TDM8J9IeC7VnCfsERZ77qDo2G7Hv584ZNXORIG92CGIik5hs4V-iRZgO1vL2x7UMEPpl1NW4PxVG197Atez6wqypyMYOacc28dSU1fjfcvLCLx0Z8XNwVVwm--jYukI4SNi9k3my_d7GpQYDiO_D0VZknC2jwDmKwlVtcAGOic6uEdRMCN1nuRWyvQBcmtzlixy3Z4WT6Ezuem7WW_ud2gC8aLhC8eIo4CeaZbueUZpxtkndwFI53p4ydSuBkzWTryjzKjylq2O1aw764SNdUT1JqXJ6ZIEUL37sEX2DXunQ9SBSmjK-eZVqo0F-Q5gncX25ViMaGH_RS-WzoTK36X5i26fL2OF9LYfNnW5wFSPDcgOyWFs38Kry2f6kl73eOef9W8fcAFbB2QMKXgmJYVlkQ90IL4EATmXqC2OsOIQHfnCWD4hO2KUbQOrByOVUoVjtgCSUF1KbI1OUP5BUR2l6WZAadfr7bKc9pZVo5AKShu8je8LutSgqAQNvZzrylkfKcUPYy6SmmcGj4ug2QJ2MoRk-IUXKU6AgjIaE7S1myTcHAAyJNQ8Jnvl0OqjK9upZ7vKl4f2YJMAXgkpPfkYJhZlbNr9nqhy-2Duwd-mtdx7hdEFwid6upvaQmPhNFTPSqF0AmsCdR8p6qDHfl0Tp3c1YqiRXmwvtVbL4zCkO-q5uMSp5w-4gac1mSNtDGLSefT2P6owqHUmPShp5PJjt38c6K7B29FROSzbmYt0sPMVhZIOsFKr6OPNkPZ5wtH1wiAafv_5GkbtXxU7ktqpyxwnV7zzNIJhNfyBABoJOKTczAxwKxav7XySdDS7vySrmrzRN6ry7q8kZFFwhrxNZ2-CyNkv-uKTrYTI70qEGOOGef8zT02s5CuEPG0AChHqwIeocCzrAk8MWrV8mT7ei2I8buHMxiPNAeS8IXRoFVnd0BE5nJ_deUA3FDEF8R-9j7icqT-E9pn824a1CP4IXmP8dKp7TeXivMvfQuJc1ipvRaTwy5mZchh5Y9_z_07ZLbaYf9lHR7a2qU6C0p_9TX1umZSG1bkK723sKcqycmE-RPxLKiUPNx4zcilTk_AY8mJvE9ls_TegwVjcppyaRK6LeWaltXjbs8eQwOeytQjzGDxFdOf_B6ksOq4EK6LYgRCFG0dr7wY244b72U5iigrhmP9w3WobzobiJb6EvH809CZ0rdkw5lON7xi-y_lRc3V7U853m9oo_r6PZoJngXdtQLDlkmjPTOwRdS0PfkO-y_abjJxJ-Lnkpp8bCd3-jThT5S16tCo-7-j5N3DnqXeFuosWns7k6N1XpfL7e30xKZujhx-WKzdIptSgqauwXhG7kMSvgBW4Lv4ozY6TjSo9dLlMybTCZmQiqph-ZZ8scQfB0n9v4JILTaT3DyQgMlYBPVAKS7bn4TACrhOMkhRuxJFaTLSbwoXKptypik8k30N8jJW8XoIfSXxmEFZtsRYvkIaIMChSvkuLiIqJie8-1BRJcai1Ry2f6VJRSbIgvraTuf10kMGuofxLYBu0oE1gwm1uzfqsdGjWpu27H3rIuxPL0quicHkBWtJoDmQCbQZAvbxyyBsOBrhxUz6ekbF7k3PszstABNWxKQqkRwvBpJl5ziholnXP1IXx5uZ56ic20x63ob7xjLsGwgfedS9DgtE0xNDURzxntLNLDeoxrJ4YhhKlma3XOFMUseobJ2UcOQfUQcO2tLqsqqsGFCRYYMFggt5bEeKL2Nczm9p1M9kHdfS8hfxI8aB2lCpvEf8DT5S3j7dYnNrcuDUaoxet2y6NDw4oreYftK-LlM3m_s3sdxZpPjNuEoX0usQ39s5XUhIfKBS0K_bgaJHSEcjAvvITpuM0G32Z7IpUqalJs6iv7OPne6u-HAN_TaYlcB2J4DELnKpy-FVtRLTKRRRjv1VOfsarIlMEZytt8FkA5-fmDztbmC8HxJwLqwfmM1zp-bPPwIdrEkTiQcrOc8vYP9VGXO5js9r3HFyplnGssidmz-_7ELtdvvtMMonkzJ8qnwjtRnkSP3KRx8_gajZ6GzxlpCO2qwOmeorb4V4ZRuSsseovITIU7Wjzisq3Vhb9JPNXOJyXVb5bd8ueSBMMglY4R6W2EskcLb8C1i7s10tnl0yqm-C4wq9yYOuGOy2nddndnSHsfM3b_JhYQxAp86psfgGyHrN-eXT0vRf3cyEQbYT9NH_FOsICNZDpr-4ueiueXQ5vyvVHbkVpW3KKW25eHZoIwNcKTD0MlqF?></g></svg>