<svg xmlns="http://www.w3.org/2000/svg" xmlns:xlink="http://www.w3.org/1999/xlink" contentStyleType="text/css" data-diagram-type="DESCRIPTION" height="408px" preserveAspectRatio="none" style="width:609px;height:408px;background:#FAFAFA;" version="1.1" viewBox="0 0 609 408" width="609px" zoomAndPan="magnify"><?plantuml 1.2026.3?><defs><filter height="300%" id="f1iq4kd5d01nku" width="300%" x="-1" y="-1"><feGaussianBlur result="blurOut" stdDeviation="2"/><feColorMatrix in="blurOut" result="blurOut2" type="matrix" values="0 0 0 0 0 0 0 0 0 0 0 0 0 0 0 0 0 0 .4 0"/><feOffset dx="4" dy="4" in="blurOut2" result="blurOut3"/><feBlend in="SourceGraphic" in2="blurOut3" mode="normal"/></filter></defs><g><rect fill="#FAFAFA" height="408" style="stroke:none;stroke-width:1;" width="609" x="0" y="0"/><g class="title" data-source-line="2"><rect fill="none" height="33.5547" style="stroke:#585858;stroke-width:1;" width="329.9707" x="136.3134" y="5"/><text fill="#005F7F" font-family="sans-serif" font-size="20" font-weight="700" lengthAdjust="spacing" textLength="319.9707" x="141.3134" y="29.3359">Dead-Letter + Bounded Replay</text></g><!--entity FWD--><g class="entity" data-qualified-name="FWD" data-source-line="8" id="ent0002"><rect fill="#005F7F" filter="url(#f1iq4kd5d01nku)" height="69.4648" rx="6" ry="6" style="stroke:#00BAC6;stroke-width:0.5;" width="146.0273" x="7" y="51.5547"/><text fill="#FAFAFA" font-family="sans-serif" font-size="14" font-style="italic" lengthAdjust="spacing" textLength="40.0244" x="60.0015" y="75.0898">&#171;app&#187;</text><text fill="#FAFAFA" font-family="sans-serif" font-size="14" lengthAdjust="spacing" textLength="68.4209" x="45.8032" y="91.5781">Forwarder</text><text fill="#FAFAFA" font-family="sans-serif" font-size="14" lengthAdjust="spacing" textLength="126.0273" x="17" y="108.0664">(POST mirror item)</text></g><!--entity SRV--><g class="entity" data-qualified-name="SRV" data-source-line="9" id="ent0003"><path d="M80.2149,214.3041 C84.6875,209.3582 89.272,208.488 92.9099,215.2121 C95.1022,210.2109 100.0128,209.8728 103.1349,214.192 C106.6344,208.1319 111.4341,208.6871 115.2355,213.8669 C119.4963,208.8762 123.1732,209.1662 127.0388,214.3263 C131.0906,206.8408 135.7551,207.102 140.4007,213.7656 C143.1049,208.2609 147.9021,208.1172 150.9398,213.4411 C154.9477,208.1162 159.9735,208.351 163.3986,214.097 C166.5316,207.8939 172.3498,208.7681 175.7039,213.8561 C178.3671,208.3138 182.8613,209.24 186.0334,213.3093 C189.807,208.3625 194.595,207.7125 197.7019,214.0017 C201.1317,208.9256 207.0562,208.4663 209.6399,214.8807 C213.5218,209.562 217.251,210.2107 221.1686,214.8392 C227.7027,217.8942 228.2325,222.012 224.1591,227.5605 C230.347,229.7952 231.9866,233.1658 227.2773,238.5052 C232.6573,243.5805 229.8622,249.0947 223.5381,250.5308 C229.0747,254.9436 227.9042,259.6479 221.4393,261.8317 C217.8996,267.8573 213.9474,267.8662 210.2321,261.9971 C207.2669,267.2 201.7631,267.6505 199.0784,261.7162 C196.172,267.7155 190.299,269.6128 186.0419,263.1264 C183.3457,268.9095 178.418,270.3251 174.2104,264.6929 C170.5367,269.0712 166.525,269.664 163.1334,264.3698 C159.0892,270.131 155.2497,269.6845 151.3676,264.2001 C148.1854,268.9532 143.6441,269.7632 140.2812,264.398 C136.1677,270.0979 130.821,269.3754 127.3529,263.6666 C122.5774,268.9331 118.5946,267.7173 115.1748,262.1435 C112.2763,268.5537 108.4388,269.471 103.774,263.8119 C99.468,268.7806 95.7375,268.8263 92.4622,262.7558 C89.4161,269.1367 83.3698,268.8332 80.3501,262.7302 C73.1926,259.9082 71.7897,256.1835 76.853,250.0034 C70.7969,249.58 67.8947,244.6462 71.1231,239.2675 C67.1943,233.389 69.6549,227.3607 76.6717,226.0914 C71.971,221.2752 74.1683,215.8898 80.2149,214.3041" fill="#585858" filter="url(#f1iq4kd5d01nku)"/><text fill="#FAFAFA" font-family="sans-serif" font-size="14" font-style="italic" lengthAdjust="spacing" textLength="51.9873" x="124.0194" y="234.2998">&#171;cloud&#187;</text><text fill="#FAFAFA" font-family="sans-serif" font-size="14" lengthAdjust="spacing" textLength="127.3262" x="86.35" y="250.7881">Coordinator server</text></g><!--entity DLQ--><g class="entity" data-qualified-name="DLQ" data-source-line="10" id="ent0004"><path d="M327.43,208.0147 C327.43,198.0147 394.0111,198.0147 394.0111,198.0147 C394.0111,198.0147 460.5921,198.0147 460.5921,208.0147 L460.5921,266.4795 C460.5921,276.4795 394.0111,276.4795 394.0111,276.4795 C394.0111,276.4795 327.43,276.4795 327.43,266.4795 L327.43,208.0147" fill="#CB2000" filter="url(#f1iq4kd5d01nku)"/><path d="M327.43,208.0147 C327.43,218.0147 394.0111,218.0147 394.0111,218.0147 C394.0111,218.0147 460.5921,218.0147 460.5921,208.0147" fill="none" style="stroke:#CB2000;stroke-width:0.5;"/><text fill="#FAFAFA" font-family="sans-serif" font-size="14" font-style="italic" lengthAdjust="spacing" textLength="48.2549" x="369.8836" y="235.5498">&#171;error&#187;</text><text fill="#FAFAFA" font-family="sans-serif" font-size="14" lengthAdjust="spacing" textLength="113.1621" x="337.43" y="252.0381">dead_letter.jsonl</text><text fill="#FAFAFA" font-family="sans-serif" font-size="14" lengthAdjust="spacing" textLength="99.668" x="344.1771" y="268.5264">(50 MB rolling)</text></g><!--entity RPL--><g class="entity" data-qualified-name="RPL" data-source-line="11" id="ent0005"><rect fill="#005F7F" filter="url(#f1iq4kd5d01nku)" height="69.4648" rx="6" ry="6" style="stroke:#00BAC6;stroke-width:0.5;" width="196.627" x="219.7" y="51.5547"/><text fill="#FAFAFA" font-family="sans-serif" font-size="14" font-style="italic" lengthAdjust="spacing" textLength="40.0244" x="298.0013" y="75.0898">&#171;app&#187;</text><text fill="#FAFAFA" font-family="sans-serif" font-size="14" lengthAdjust="spacing" textLength="94.835" x="270.596" y="91.5781">Startup replay</text><text fill="#FAFAFA" font-family="sans-serif" font-size="14" lengthAdjust="spacing" textLength="176.627" x="229.7" y="108.0664">(proven-undelivered only)</text></g><g class="entity" data-qualified-name="GMN10" data-source-line="19" id="ent0011"><path d="M193.43,337.4847 L193.43,393.4163 A0,0 0 0 0 193.43,393.4163 L594.5975,393.4163 A0,0 0 0 0 594.5975,393.4163 L594.5975,347.4847 L584.5975,337.4847 L398.01,337.4847 L394.01,276.8047 L390.01,337.4847 L193.43,337.4847 A0,0 0 0 0 193.43,337.4847" fill="#E5E4E4" filter="url(#f1iq4kd5d01nku)" style="stroke:#B4B3B3;stroke-width:0.5;"/><path d="M584.5975,337.4847 L584.5975,347.4847 L594.5975,347.4847 L584.5975,337.4847" fill="#E5E4E4" style="stroke:#B4B3B3;stroke-width:0.5;"/><text fill="#181818" font-family="sans-serif" font-size="13" lengthAdjust="spacing" textLength="374.0483" x="202.4896" y="355.053">Undeliverable POSTs are persisted, not lost. On restart only</text><text fill="#181818" font-family="sans-serif" font-size="13" font-weight="700" lengthAdjust="spacing" textLength="134.2275" x="199.43" y="370.3636">proven-undelivered</text><text fill="#181818" font-family="sans-serif" font-size="13" lengthAdjust="spacing" textLength="241.8267" x="337.7708" y="370.3636">records replay &#8212; a delivery-ambiguity</text><text fill="#181818" font-family="sans-serif" font-size="13" lengthAdjust="spacing" textLength="186.8369" x="296.0953" y="385.6741">classifier prevents duplicates.</text></g><!--link FWD to SRV--><g class="link" data-entity-1="ent0002" data-entity-2="ent0003" data-link-type="dependency" data-source-line="13" id="lnk6"><path d="M32.17,121.1647 C18.32,135.2047 9.26,151.9447 19.01,168.0147 C30.92,187.6447 45.1429,199.2025 65.5929,209.4225" fill="none" id="FWD-to-SRV" style="stroke:#585858;stroke-width:2;"/><polygon fill="#585858" points="70.96,212.1047,64.6975,204.5033,66.4874,209.8695,61.1212,211.6594,70.96,212.1047" style="stroke:#585858;stroke-width:2;"/><text fill="#181818" font-family="sans-serif" font-size="13" lengthAdjust="spacing" textLength="42.231" x="20.01" y="164.583">deliver</text></g><!--link FWD to DLQ--><g class="link" data-entity-1="ent0002" data-entity-2="ent0004" data-link-type="dependency" data-source-line="14" id="lnk7"><path d="M79.91,121.2447 C81.67,137.4947 86.61,155.9847 99.01,168.0147 C146.86,214.4647 181.05,183.0047 246.01,198.0147 C272.65,204.1747 296.0054,210.046 321.3454,216.676" fill="none" id="FWD-to-DLQ" style="stroke:#CB2000;stroke-width:2;"/><polygon fill="#CB2000" points="327.15,218.1947,319.4556,212.0469,322.3128,216.9291,317.4306,219.7863,327.15,218.1947" style="stroke:#CB2000;stroke-width:2;"/><text fill="#181818" font-family="sans-serif" font-size="13" lengthAdjust="spacing" textLength="145.4248" x="100.01" y="164.583">on failure / ambiguous</text></g><!--link RPL to DLQ--><g class="link" data-entity-1="ent0005" data-entity-2="ent0004" data-link-type="dependency" data-source-line="15" id="lnk8"><path d="M393.14,121.3347 C403.92,129.5047 413.53,139.3347 420.01,151.0147 C427.96,165.3647 427.1972,176.9044 420.8472,191.9944" fill="none" id="RPL-to-DLQ" style="stroke:#585858;stroke-width:2;"/><polygon fill="#585858" points="418.52,197.5247,425.6977,190.7807,420.4593,192.9161,418.3239,187.6778,418.52,197.5247" style="stroke:#585858;stroke-width:2;"/><text fill="#181818" font-family="sans-serif" font-size="13" lengthAdjust="spacing" textLength="97.3032" x="425.59" y="164.583">read on startup</text></g><!--link RPL to SRV--><g class="link" data-entity-1="ent0005" data-entity-2="ent0003" data-link-type="dependency" data-source-line="16" id="lnk9"><path d="M294.97,121.1547 C283.65,136.4347 269.2,154.1447 254.01,168.0147 C239.03,181.7147 226.0808,191.3159 209.3008,202.0759" fill="none" id="RPL-to-SRV" style="stroke:#585858;stroke-width:2;"/><polygon fill="#585858" points="204.25,205.3147,213.9854,203.8237,208.459,202.6157,209.667,197.0894,204.25,205.3147" style="stroke:#585858;stroke-width:2;"/><text fill="#181818" font-family="sans-serif" font-size="13" lengthAdjust="spacing" textLength="124.249" x="270.85" y="164.583">replay (dedup-safe)</text></g><?plantuml-src PLFDRjf04BxxAQOS6g31xg6zM56a92Hg95AeAULI2GtU0JPQxwvsrq6-vI7wBhttKVeadJKc8Ie7PE_EzpSpVYTrgMf1i0l1-ZpB7ExJhGoxUbrxSgNHWNH8IrDbrfadCgCICoduJ8Ocgr3gxZorTQKIFbK4Oq8ncb08vE03N9jQ2n9Ga5NO96SmmtYZS_XYTfRWFIoDKPlp5WOTx6Q7MfE2_YqRSDP9Jt3FZrk7GHfzvF03vbiKanpW9S5-lq_f1ILVGRR37D9qBrb5tkDMwcqMzG_odNgw2vpfZ3qzaShXK_GUmshK9UN0mH-f33upbPPRbeG_ls6bMUk9LjRui1Aa-DargMsIX5MjqR6iTsVS7fqWzrFtPzFvTwYaSyQ135GDUd3oGmztop5SNA2rbvT9gKmjselUZJ5EI5PZ74-APTu0ttBCYn_CqQAPHM30DN97eISuyqgreTD7RxHYHvy_miCrEACKT-NL3jEC9z-OXgBNQEOrq3oW2xK5rywOETgbqACu-RO5F7ycRvYDQOhPv2LH4kDT5SLqkRgPJ1VZrceE7UpazfR_YzP1pbImGQbgHv01LckvhKtjayXxA7wuklyANR6BQyK8V_1uKdKgU70EVTxKseuyRcYG9De4WhK9mLHWDf4l0LWSC-6QTpsEpmEo4qlEInz8d0FZGF42f33LpDmgj_aPFXp-tvlXaAjAdgS_-lZx_0lms8LcTCZ8dnmJb0gzbnl9Nubrl9awU63FIfOOoAS9QH4Dq3y0?></g></svg>