<svg xmlns="http://www.w3.org/2000/svg" xmlns:xlink="http://www.w3.org/1999/xlink" contentStyleType="text/css" data-diagram-type="DESCRIPTION" height="571px" preserveAspectRatio="none" style="width:660px;height:571px;background:#FAFAFA;" version="1.1" viewBox="0 0 660 571" width="660px" zoomAndPan="magnify"><?plantuml 1.2026.3?><defs><filter height="300%" id="f1n8x7y6r80i12" width="300%" x="-1" y="-1"><feGaussianBlur result="blurOut" stdDeviation="2"/><feColorMatrix in="blurOut" result="blurOut2" type="matrix" values="0 0 0 0 0 0 0 0 0 0 0 0 0 0 0 0 0 0 .4 0"/><feOffset dx="4" dy="4" in="blurOut2" result="blurOut3"/><feBlend in="SourceGraphic" in2="blurOut3" mode="normal"/></filter></defs><g><rect fill="#FAFAFA" height="571" style="stroke:none;stroke-width:1;" width="660" x="0" y="0"/><g class="title" data-source-line="2"><rect fill="none" height="33.5547" style="stroke:#585858;stroke-width:1;" width="522.5488" x="65.3699" y="5"/><text fill="#005F7F" font-family="sans-serif" font-size="20" font-weight="700" lengthAdjust="spacing" textLength="512.5488" x="70.3699" y="29.3359">Durable Children &#8212; Zero-Trust Workload Identity</text></g><!--entity P--><g class="entity" data-qualified-name="P" data-source-line="8" id="ent0002"><rect fill="#005F7F" filter="url(#f1n8x7y6r80i12)" height="52.9766" rx="6" ry="6" style="stroke:#00BAC6;stroke-width:0.5;" width="105.5381" x="83.23" y="51.5547"/><text fill="#FAFAFA" font-family="sans-serif" font-size="14" font-style="italic" lengthAdjust="spacing" textLength="40.0244" x="115.9868" y="75.0898">&#171;app&#187;</text><text fill="#FAFAFA" font-family="sans-serif" font-size="14" lengthAdjust="spacing" textLength="85.5381" x="93.23" y="91.5781">Parent agent</text></g><!--entity NET--><g class="entity" data-qualified-name="NET" data-source-line="9" id="ent0003"><polygon fill="#00BAC6" filter="url(#f1n8x7y6r80i12)" points="38.75,191.5247,48.75,181.5247,233.249,181.5247,233.249,250.9895,223.249,260.9895,38.75,260.9895,38.75,191.5247" style="stroke:#006B70;stroke-width:0.5;"/><line style="stroke:#006B70;stroke-width:0.5;" x1="223.249" x2="233.249" y1="191.5247" y2="181.5247"/><line style="stroke:#006B70;stroke-width:0.5;" x1="38.75" x2="223.249" y1="191.5247" y2="191.5247"/><line style="stroke:#006B70;stroke-width:0.5;" x1="223.249" x2="223.249" y1="191.5247" y2="260.9895"/><text fill="#181818" font-family="sans-serif" font-size="14" font-style="italic" lengthAdjust="spacing" textLength="44.3311" x="108.834" y="215.0598">&#171;host&#187;</text><text fill="#181818" font-family="sans-serif" font-size="14" lengthAdjust="spacing" textLength="147.6904" x="57.1543" y="231.5481">Authenticated overlay</text><text fill="#181818" font-family="sans-serif" font-size="14" lengthAdjust="spacing" textLength="154.499" x="53.75" y="248.0364">(Tailscale / WireGuard)</text></g><!--entity C--><g class="entity" data-qualified-name="C" data-source-line="10" id="ent0004"><rect fill="#005F7F" filter="url(#f1n8x7y6r80i12)" height="69.4648" rx="6" ry="6" style="stroke:#00BAC6;stroke-width:0.5;" width="144.5713" x="180.72" y="337.9947"/><text fill="#FAFAFA" font-family="sans-serif" font-size="14" font-style="italic" lengthAdjust="spacing" textLength="40.0244" x="232.9934" y="361.5298">&#171;app&#187;</text><text fill="#FAFAFA" font-family="sans-serif" font-size="14" lengthAdjust="spacing" textLength="90.4873" x="207.762" y="378.0181">Durable child</text><text fill="#FAFAFA" font-family="sans-serif" font-size="14" lengthAdjust="spacing" textLength="124.5713" x="190.72" y="394.5064">(derived envelope)</text></g><!--entity CP--><g class="entity" data-qualified-name="CP" data-source-line="11" id="ent0005"><rect fill="#005F7F" filter="url(#f1n8x7y6r80i12)" height="52.9766" rx="6" ry="6" style="stroke:#00BAC6;stroke-width:0.5;" width="159.624" x="268.19" y="194.7747"/><text fill="#FAFAFA" font-family="sans-serif" font-size="14" font-style="italic" lengthAdjust="spacing" textLength="40.0244" x="327.9898" y="218.3098">&#171;app&#187;</text><text fill="#FAFAFA" font-family="sans-serif" font-size="14" lengthAdjust="spacing" textLength="139.624" x="278.19" y="234.7981">Signed control plane</text></g><!--entity ST--><g class="entity" data-qualified-name="ST" data-source-line="12" id="ent0006"><path d="M6,494.4547 C6,484.4547 85.002,484.4547 85.002,484.4547 C85.002,484.4547 164.0039,484.4547 164.0039,494.4547 L164.0039,536.4313 C164.0039,546.4313 85.002,546.4313 85.002,546.4313 C85.002,546.4313 6,546.4313 6,536.4313 L6,494.4547" fill="#E5E4E4" filter="url(#f1n8x7y6r80i12)" style="stroke:#585858;stroke-width:0.5;"/><path d="M6,494.4547 C6,504.4547 85.002,504.4547 85.002,504.4547 C85.002,504.4547 164.0039,504.4547 164.0039,494.4547" fill="none" style="stroke:#585858;stroke-width:0.5;"/><text fill="#181818" font-family="sans-serif" font-size="14" font-style="italic" lengthAdjust="spacing" textLength="32.293" x="68.8555" y="521.9898">&#171;db&#187;</text><text fill="#181818" font-family="sans-serif" font-size="14" lengthAdjust="spacing" textLength="138.0039" x="16" y="538.4781">Child state (durable)</text></g><g class="entity" data-qualified-name="GMN11" data-source-line="20" id="ent0012"><path d="M198.71,487.4847 L198.71,543.4163 A0,0 0 0 0 198.71,543.4163 L645.2886,543.4163 A0,0 0 0 0 645.2886,543.4163 L645.2886,497.4847 L635.2886,487.4847 L393.11,487.4847 L293.91,407.7947 L385.11,487.4847 L198.71,487.4847 A0,0 0 0 0 198.71,487.4847" fill="#E5E4E4" filter="url(#f1n8x7y6r80i12)" style="stroke:#B4B3B3;stroke-width:0.5;"/><path d="M635.2886,487.4847 L635.2886,497.4847 L645.2886,497.4847 L635.2886,487.4847" fill="#E5E4E4" style="stroke:#B4B3B3;stroke-width:0.5;"/><text fill="#181818" font-family="sans-serif" font-size="13" lengthAdjust="spacing" textLength="201.9888" x="204.71" y="505.053">A child's permission envelope is</text><text fill="#181818" font-family="sans-serif" font-size="13" font-weight="700" lengthAdjust="spacing" textLength="215.3633" x="410.8121" y="505.053">derived, not ambiently inherited</text><text fill="#181818" font-family="sans-serif" font-size="13" lengthAdjust="spacing" textLength="4.1133" x="626.1753" y="505.053">.</text><text fill="#181818" font-family="sans-serif" font-size="13" lengthAdjust="spacing" textLength="399.1025" x="217.948" y="520.3636">Identity is the workload's own (zero-trust); a child's reports are</text><text fill="#181818" font-family="sans-serif" font-size="13" lengthAdjust="spacing" textLength="281.728" x="276.6353" y="535.6741">evidence until authority grants them agency.</text></g><!--link P to NET--><g class="link" data-entity-1="ent0002" data-entity-2="ent0003" data-link-type="dependency" data-source-line="14" id="lnk7"><path d="M136,104.9447 C136,126.2847 136,150.8747 136,175.1947" fill="none" id="P-to-NET" style="stroke:#585858;stroke-width:2;"/><polygon fill="#585858" points="136,181.1947,140,172.1947,136,176.1947,132,172.1947,136,181.1947" style="stroke:#585858;stroke-width:2;"/><text fill="#181818" font-family="sans-serif" font-size="13" lengthAdjust="spacing" textLength="138.9185" x="137" y="148.093">provision over overlay</text></g><!--link NET to C--><g class="link" data-entity-1="ent0003" data-entity-2="ent0004" data-link-type="dependency" data-source-line="15" id="lnk8"><path d="M139.87,261.0747 C142.91,276.7447 148.33,294.3147 158,307.9947 C166.03,319.3447 171.9441,325.6894 183.3141,334.0894" fill="none" id="NET-to-C" style="stroke:#585858;stroke-width:2;"/><polygon fill="#585858" points="188.14,337.6547,183.2781,329.0895,184.1185,334.6836,178.5244,335.524,188.14,337.6547" style="stroke:#585858;stroke-width:2;"/><text fill="#181818" font-family="sans-serif" font-size="13" lengthAdjust="spacing" textLength="126.4072" x="159" y="304.563">enroll (own identity)</text></g><!--link CP to C--><g class="link" data-entity-1="ent0005" data-entity-2="ent0004" data-link-type="dependency" data-source-line="16" id="lnk9"><path d="M331.76,248.1847 C321.07,265.2147 306.75,287.9647 294,307.9947 C287.86,317.6447 284.3964,323.0588 278.2264,332.6488" fill="none" id="CP-to-C" style="stroke:#585858;stroke-width:2;"/><polygon fill="#585858" points="274.98,337.6947,283.2135,332.2901,277.6853,333.4898,276.4857,327.9616,274.98,337.6947" style="stroke:#585858;stroke-width:2;"/><text fill="#181818" font-family="sans-serif" font-size="13" lengthAdjust="spacing" textLength="128.5654" x="305.39" y="304.563">signed policy / relay</text></g><!--link C to ST--><g class="link" data-entity-1="ent0004" data-entity-2="ent0006" data-link-type="dependency" data-source-line="17" id="lnk10"><path d="M212.33,407.7947 C184.56,431.0547 152.6796,457.7519 125.8896,480.1919" fill="none" id="C-to-ST" style="stroke:#585858;stroke-width:2;"/><polygon fill="#585858" points="121.29,484.0447,130.7579,481.332,125.123,480.8341,125.6209,475.1992,121.29,484.0447" style="stroke:#585858;stroke-width:2;"/><text fill="#181818" font-family="sans-serif" font-size="13" lengthAdjust="spacing" textLength="42.6182" x="175.04" y="451.023">persist</text></g><?plantuml-src VPFHQjim58Rl_HHdlcaIMdiRWq5Q2Y5fHw5hGvnH68EXM2UnDbaIaXoJNUqXzYwxtwFiINQEaom9e_EDZ7Jy-V__S_H2cL8t4g6AqOLXddlHPYiLgsRH1FIbDH5Dp4fRvyxRDTgBKkHAqfwAcxmMokpsCzVKEg5TZJ1fl5ZGEgwKbXuD_Fx-0pwYjnTptuG8JzP_rLP8kDk1aZEO2eT-21Dhq2nHotDuKXxVDSBJwyEaAE3rorTlEz9UQjksMKj5AoxQIcH8o0-RJYw9NKGv181YUdTxUvFJChiv0GMdbalCbCtX4ehxOdHwgeF89Avp8jtZ6lKGth1Wjcs4AN485C4NB6F8XQjGAslWrq-GsnJ4YZpcvn25qWPZdYIarB7D2EbKU5wxcXJ-yuW0KrgkheHprzU9iTIoxab7JQmunL94b42Ql1QRJwOtf_-5Kb0RyaEK_PH93pTp8bKsH48TgTdthUI-4KAYLsk2eY7Nrc4_FP8pFf9pn2ZKoj0dF3ZUQd1Q64oVipIU7XXIHB4GWMobtTn0YEG8UhiO--apZ6BE3BaWHC8HZMQpnwVFu_l73vFEQDUTjGhS5Kvd7r72XzlYzwEx1s13Gx9AgZNqR6jWF-RzX7N-KngsJftLgjnGo1wPEeRJqg9JG5EfGaoeRsHfOMEqDTWbZ1CgtiPz5hYgLg4JkaySL831ODU7Sw3FGTGBHRhq1fIfw82wFXXa1DfV9lw6HWBQtIqZChlfVUCB6Fa2zYz1_FshHsTz342JI11Si-iIeI6M1a73PJr3LrwOs87hRbpBJPQWaIm9_m00?></g></svg>