<svg xmlns="http://www.w3.org/2000/svg" xmlns:xlink="http://www.w3.org/1999/xlink" contentStyleType="text/css" data-diagram-type="DESCRIPTION" height="496px" preserveAspectRatio="none" style="width:742px;height:496px;background:#FAFAFA;" version="1.1" viewBox="0 0 742 496" width="742px" zoomAndPan="magnify"><?plantuml 1.2026.3?><defs><filter height="300%" id="f1icomp3aqwn8k" width="300%" x="-1" y="-1"><feGaussianBlur result="blurOut" stdDeviation="2"/><feColorMatrix in="blurOut" result="blurOut2" type="matrix" values="0 0 0 0 0 0 0 0 0 0 0 0 0 0 0 0 0 0 .4 0"/><feOffset dx="4" dy="4" in="blurOut2" result="blurOut3"/><feBlend in="SourceGraphic" in2="blurOut3" mode="normal"/></filter></defs><g><rect fill="#FAFAFA" height="496" style="stroke:none;stroke-width:1;" width="742" x="0" y="0"/><g class="title" data-source-line="2"><rect fill="none" height="33.5547" style="stroke:#585858;stroke-width:1;" width="261.1523" x="237.4163" y="5"/><text fill="#005F7F" font-family="sans-serif" font-size="20" font-weight="700" lengthAdjust="spacing" textLength="251.1523" x="242.4163" y="29.3359">Effect-Attempt Lifecycle</text></g><!--entity A--><g class="entity" data-qualified-name="A" data-source-line="7" id="ent0002"><rect fill="#005F7F" filter="url(#f1icomp3aqwn8k)" height="52.9766" rx="6" ry="6" style="stroke:#00BAC6;stroke-width:0.5;" width="89.7334" x="301.54" y="51.5547"/><text fill="#FAFAFA" font-family="sans-serif" font-size="14" font-style="italic" lengthAdjust="spacing" textLength="40.0244" x="326.3945" y="75.0898">&#171;app&#187;</text><text fill="#FAFAFA" font-family="sans-serif" font-size="14" lengthAdjust="spacing" textLength="69.7334" x="311.54" y="91.5781">attempted</text></g><!--entity E--><g class="entity" data-qualified-name="E" data-source-line="8" id="ent0003"><rect fill="#005F7F" filter="url(#f1icomp3aqwn8k)" height="52.9766" rx="6" ry="6" style="stroke:#00BAC6;stroke-width:0.5;" width="81.8926" x="176.46" y="181.5347"/><text fill="#FAFAFA" font-family="sans-serif" font-size="14" font-style="italic" lengthAdjust="spacing" textLength="40.0244" x="197.3941" y="205.0698">&#171;app&#187;</text><text fill="#FAFAFA" font-family="sans-serif" font-size="14" lengthAdjust="spacing" textLength="61.8926" x="186.46" y="221.5581">executed</text></g><!--entity V--><g class="entity" data-qualified-name="V" data-source-line="9" id="ent0004"><rect fill="#005F7F" filter="url(#f1icomp3aqwn8k)" height="52.9766" rx="6" ry="6" style="stroke:#00BAC6;stroke-width:0.5;" width="70.627" x="182.09" y="311.5047"/><text fill="#FAFAFA" font-family="sans-serif" font-size="14" font-style="italic" lengthAdjust="spacing" textLength="40.0244" x="197.3913" y="335.0398">&#171;app&#187;</text><text fill="#FAFAFA" font-family="sans-serif" font-size="14" lengthAdjust="spacing" textLength="50.627" x="192.09" y="351.5281">verified</text></g><!--entity R--><g class="entity" data-qualified-name="R" data-source-line="10" id="ent0005"><rect fill="#CB2000" filter="url(#f1icomp3aqwn8k)" height="52.9766" rx="6" ry="6" style="stroke:#CB2000;stroke-width:0.5;" width="74.6055" x="438.1" y="311.5047"/><text fill="#FAFAFA" font-family="sans-serif" font-size="14" font-style="italic" lengthAdjust="spacing" textLength="48.2549" x="451.2753" y="335.0398">&#171;error&#187;</text><text fill="#FAFAFA" font-family="sans-serif" font-size="14" lengthAdjust="spacing" textLength="54.6055" x="448.1" y="351.5281">rejected</text></g><!--entity S--><g class="entity" data-qualified-name="S" data-source-line="11" id="ent0006"><rect fill="#CBDB2A" filter="url(#f1icomp3aqwn8k)" height="52.9766" rx="6" ry="6" style="stroke:#818D00;stroke-width:0.5;" width="98.5244" x="297.14" y="181.5347"/><text fill="#181818" font-family="sans-serif" font-size="14" font-style="italic" lengthAdjust="spacing" textLength="52.7119" x="320.0463" y="205.0698">&#171;async&#187;</text><text fill="#181818" font-family="sans-serif" font-size="14" lengthAdjust="spacing" textLength="78.5244" x="307.14" y="221.5581">superseded</text></g><g class="entity" data-qualified-name="GMN12" data-source-line="20" id="ent0013"><path d="M6,425.4847 L6,481.4163 A0,0 0 0 0 6,481.4163 L428.813,481.4163 A0,0 0 0 0 428.813,481.4163 L428.813,435.4847 L418.813,425.4847 L221.41,425.4847 L217.41,364.7347 L213.41,425.4847 L6,425.4847 A0,0 0 0 0 6,425.4847" fill="#E5E4E4" filter="url(#f1icomp3aqwn8k)" style="stroke:#B4B3B3;stroke-width:0.5;"/><path d="M418.813,425.4847 L418.813,435.4847 L428.813,435.4847 L418.813,425.4847" fill="#E5E4E4" style="stroke:#B4B3B3;stroke-width:0.5;"/><text fill="#181818" font-family="sans-serif" font-size="13" lengthAdjust="spacing" textLength="88.499" x="12" y="443.053">At-least-once</text><text fill="#181818" font-family="sans-serif" font-size="13" font-weight="700" lengthAdjust="spacing" textLength="108.9956" x="104.6123" y="443.053">plus verification</text><text fill="#181818" font-family="sans-serif" font-size="13" lengthAdjust="spacing" textLength="200.2051" x="213.6079" y="443.053">, not exactly-once: a side effect</text><text fill="#181818" font-family="sans-serif" font-size="13" lengthAdjust="spacing" textLength="255.3408" x="28.4626" y="458.3636">isn't "done" until verified, and retries are</text><text fill="#181818" font-family="sans-serif" font-size="13" font-weight="700" lengthAdjust="spacing" textLength="52.5205" x="287.9167" y="458.3636">blocked</text><text fill="#181818" font-family="sans-serif" font-size="13" lengthAdjust="spacing" textLength="52.7998" x="344.5505" y="458.3636">until the</text><text fill="#181818" font-family="sans-serif" font-size="13" lengthAdjust="spacing" textLength="248.187" x="88.813" y="473.6741">prior attempt is verified or superseded.</text></g><!--link A to E--><g class="link" data-entity-1="ent0002" data-entity-2="ent0003" data-link-type="dependency" data-source-line="13" id="lnk7"><path d="M301.2,94.3547 C280.81,103.2747 257.88,116.3947 242.41,134.5347 C231.17,147.6947 226.244,160.3372 222.794,175.3472" fill="none" id="A-to-E" style="stroke:#585858;stroke-width:2;"/><polygon fill="#585858" points="221.45,181.1947,227.3644,173.3194,222.57,176.3217,219.5677,171.5274,221.45,181.1947" style="stroke:#585858;stroke-width:2;"/><text fill="#181818" font-family="sans-serif" font-size="13" lengthAdjust="spacing" textLength="91.0571" x="243.41" y="148.103">run side effect</text></g><!--link E to V--><g class="link" data-entity-1="ent0003" data-entity-2="ent0004" data-link-type="dependency" data-source-line="14" id="lnk8"><path d="M217.41,234.9147 C217.41,257.1147 217.41,282.9447 217.41,305.1347" fill="none" id="E-to-V" style="stroke:#585858;stroke-width:2;"/><polygon fill="#585858" points="217.41,311.1347,221.41,302.1347,217.41,306.1347,213.41,302.1347,217.41,311.1347" style="stroke:#585858;stroke-width:2;"/><text fill="#181818" font-family="sans-serif" font-size="13" lengthAdjust="spacing" textLength="116.6953" x="218.41" y="278.073">verification passes</text></g><!--link E to R--><g class="link" data-entity-1="ent0003" data-entity-2="ent0005" data-link-type="dependency" data-source-line="15" id="lnk9"><path d="M258.68,226.1147 C283.49,236.6547 315.54,250.7547 343.41,264.5047 C375.76,280.4747 406.3738,297.3297 432.5338,312.1997" fill="none" id="E-to-R" style="stroke:#CB2000;stroke-width:2;"/><polygon fill="#CB2000" points="437.75,315.1647,431.9024,307.2397,433.4032,312.6938,427.949,314.1946,437.75,315.1647" style="stroke:#CB2000;stroke-width:2;"/><text fill="#181818" font-family="sans-serif" font-size="13" lengthAdjust="spacing" textLength="100.312" x="377.49" y="278.073">verification fails</text></g><!--link R to A--><g class="link" data-entity-1="ent0005" data-entity-2="ent0002" data-link-type="dependency" data-source-line="16" id="lnk10"><path d="M494.84,311.0447 C523.16,269.7847 568.3,188.4047 528.41,134.5347 C497.15,92.3247 440.5006,81.4706 397.5206,79.0606" fill="none" id="R-to-A" style="stroke:#585858;stroke-width:1;stroke-dasharray:1,3;"/><polygon fill="#585858" points="391.53,78.7247,400.2919,83.2223,396.5222,79.0046,400.7398,75.2348,391.53,78.7247" style="stroke:#585858;stroke-width:1;"/><text fill="#181818" font-family="sans-serif" font-size="13" lengthAdjust="spacing" textLength="181.835" x="545.15" y="213.083">retry (only after verify clears)</text></g><!--link A to S--><g class="link" data-entity-1="ent0002" data-entity-2="ent0006" data-link-type="dependency" data-source-line="17" id="lnk11"><path d="M344.71,105.0047 C344.18,114.3047 343.67,124.8847 343.41,134.5347 C342.99,150.0147 343.3051,161.3652 344.1251,175.2052" fill="none" id="A-to-S" style="stroke:#585858;stroke-width:1;stroke-dasharray:1,3;"/><polygon fill="#585858" points="344.48,181.1947,347.9407,171.9739,344.1843,176.2034,339.9547,172.447,344.48,181.1947" style="stroke:#585858;stroke-width:1;"/><text fill="#181818" font-family="sans-serif" font-size="13" lengthAdjust="spacing" textLength="179.5879" x="344.41" y="148.103">replaced by a newer attempt</text></g><?plantuml-src RPBVRjem5CRl_HHdNAnj1CbOcTf5LQLeHHKIb2fCx18PvmIyERPbExHvijxloNO26RHLR_Bdw7S-V-Sx_YIrK7M1i0t1-ZH977-ADp9iwtNjqGcZ0-eG2rCbrfaTce7WYIoe9aEJL5pghXxRkbACgWfXN9OemY0B0IiRO2hfjn4AsHaySeikXNlkXEI3cL5IS_WC2wwmwjDhmtqViXypM4pkP_Cx67w_leBpk_a4Xb_YuN3qBRcylXfUnlGSVRqWmIdkKAKmQhLR8vfhWIcGgT_amIVSRb59e-7l2tZqdZwJq5ZqAzoxNF63otXZ6ACnhT4q7FIwCXOz0E0UChYvuTRUthw6y1b5tJ4jDFu8sg6JfJn1ouyWXwtT4vGJXCuPznRpDSNdiTY3X2rQBTzeGHZB8Clp-Q_LB9iyj39a9mLNQ_2qC3YCoyRleIL11uk2XpOeopq5TGJ7zCnRC7yFbbmgp_AEcp_-dCmViYabHQTYS0sS6wqQu6L0T-XiW6u1T_xYwFNOjTXtMSK55h2cBj3uH7tT7XZJ9Y2iJGYc0bF2aW5aOK1oFWmCxHoYoAhQlx4OHNsWFi1dBe9gzbnAqgy30P1Udr6s1MNSWvfkjeB_E-i3ryL-6eaUk6jFMIiZ_c0HHHqRjaWYrabpT4kIHmcWycbjCKCIR6Vv1m00?></g></svg>