<svg xmlns="http://www.w3.org/2000/svg" xmlns:xlink="http://www.w3.org/1999/xlink" contentStyleType="text/css" data-diagram-type="DESCRIPTION" height="602px" preserveAspectRatio="none" style="width:860px;height:602px;background:#FAFAFA;" version="1.1" viewBox="0 0 860 602" width="860px" zoomAndPan="magnify"><?plantuml 1.2026.3?><defs><filter height="300%" id="f16ssgw4mdsh8l" width="300%" x="-1" y="-1"><feGaussianBlur result="blurOut" stdDeviation="2"/><feColorMatrix in="blurOut" result="blurOut2" type="matrix" values="0 0 0 0 0 0 0 0 0 0 0 0 0 0 0 0 0 0 .4 0"/><feOffset dx="4" dy="4" in="blurOut2" result="blurOut3"/><feBlend in="SourceGraphic" in2="blurOut3" mode="normal"/></filter></defs><g><rect fill="#FAFAFA" height="602" style="stroke:none;stroke-width:1;" width="860" x="0" y="0"/><g class="title" data-source-line="2"><rect fill="none" height="33.5547" style="stroke:#585858;stroke-width:1;" width="320.6445" x="266.3017" y="5"/><text fill="#005F7F" font-family="sans-serif" font-size="20" font-weight="700" lengthAdjust="spacing" textLength="310.6445" x="271.3017" y="29.3359">Provenance / Evidence Ledger</text></g><!--entity OBS--><g class="entity" data-qualified-name="OBS" data-source-line="7" id="ent0002"><rect fill="#005F7F" filter="url(#f16ssgw4mdsh8l)" height="69.4648" rx="6" ry="6" style="stroke:#00BAC6;stroke-width:0.5;" width="201.3916" x="210.08" y="51.5547"/><text fill="#FAFAFA" font-family="sans-serif" font-size="14" font-style="italic" lengthAdjust="spacing" textLength="40.0244" x="290.7636" y="75.0898">&#171;app&#187;</text><text fill="#FAFAFA" font-family="sans-serif" font-size="14" lengthAdjust="spacing" textLength="81.9014" x="269.8251" y="91.5781">Observation</text><text fill="#FAFAFA" font-family="sans-serif" font-size="14" lengthAdjust="spacing" textLength="181.3916" x="220.08" y="108.0664">(tool output &#183; model claim)</text></g><!--entity EV--><g class="entity" data-qualified-name="EV" data-source-line="8" id="ent0003"><path d="M195.46,208.0247 C195.46,198.0247 310.7745,198.0247 310.7745,198.0247 C310.7745,198.0247 426.0889,198.0247 426.0889,208.0247 L426.0889,282.9778 C426.0889,292.9778 310.7745,292.9778 310.7745,292.9778 C310.7745,292.9778 195.46,292.9778 195.46,282.9778 L195.46,208.0247" fill="#E5E4E4" filter="url(#f16ssgw4mdsh8l)" style="stroke:#585858;stroke-width:0.5;"/><path d="M195.46,208.0247 C195.46,218.0247 310.7745,218.0247 310.7745,218.0247 C310.7745,218.0247 426.0889,218.0247 426.0889,208.0247" fill="none" style="stroke:#585858;stroke-width:0.5;"/><text fill="#181818" font-family="sans-serif" font-size="14" font-style="italic" lengthAdjust="spacing" textLength="32.293" x="294.628" y="235.5598">&#171;db&#187;</text><text fill="#181818" font-family="sans-serif" font-size="14" lengthAdjust="spacing" textLength="125.6104" x="247.9693" y="252.0481">Evidence snapshot</text><text fill="#181818" font-family="sans-serif" font-size="14" lengthAdjust="spacing" textLength="210.6289" x="205.46" y="268.5364">source-kind &#183; epistemic-status</text><text fill="#181818" font-family="sans-serif" font-size="14" lengthAdjust="spacing" textLength="170.4951" x="225.5269" y="285.0247">payload-hash &#183; redaction</text></g><!--entity HY--><g class="entity" data-qualified-name="HY" data-source-line="9" id="ent0004"><rect fill="#005F7F" filter="url(#f16ssgw4mdsh8l)" height="69.4648" rx="6" ry="6" style="stroke:#00BAC6;stroke-width:0.5;" width="233.5547" x="7" y="369.9747"/><text fill="#FAFAFA" font-family="sans-serif" font-size="14" font-style="italic" lengthAdjust="spacing" textLength="40.0244" x="103.7651" y="393.5098">&#171;app&#187;</text><text fill="#FAFAFA" font-family="sans-serif" font-size="14" lengthAdjust="spacing" textLength="66.4453" x="90.5547" y="409.9981">Hydration</text><text fill="#FAFAFA" font-family="sans-serif" font-size="14" lengthAdjust="spacing" textLength="213.5547" x="17" y="426.4864">(rebuild context from evidence)</text></g><!--entity TR--><g class="entity" data-qualified-name="TR" data-source-line="10" id="ent0005"><rect fill="#005F7F" filter="url(#f16ssgw4mdsh8l)" height="69.4648" rx="6" ry="6" style="stroke:#00BAC6;stroke-width:0.5;" width="114.6094" x="160.47" y="516.4447"/><text fill="#FAFAFA" font-family="sans-serif" font-size="14" font-style="italic" lengthAdjust="spacing" textLength="40.0244" x="197.7625" y="539.9798">&#171;app&#187;</text><text fill="#FAFAFA" font-family="sans-serif" font-size="14" lengthAdjust="spacing" textLength="69.1318" x="183.2088" y="556.4681">Transcript</text><text fill="#FAFAFA" font-family="sans-serif" font-size="14" lengthAdjust="spacing" textLength="94.6094" x="170.47" y="572.9564">(presentation)</text></g><g class="entity" data-qualified-name="GMN10" data-source-line="18" id="ent0011"><path d="M388.31,376.7447 L388.31,432.6763 A0,0 0 0 0 388.31,432.6763 L845.248,432.6763 A0,0 0 0 0 845.248,432.6763 L845.248,386.7447 L835.248,376.7447 L567.6,376.7447 L402.17,293.4547 L559.6,376.7447 L388.31,376.7447 A0,0 0 0 0 388.31,376.7447" fill="#E5E4E4" filter="url(#f16ssgw4mdsh8l)" style="stroke:#B4B3B3;stroke-width:0.5;"/><path d="M835.248,376.7447 L835.248,386.7447 L845.248,386.7447 L835.248,376.7447" fill="#E5E4E4" style="stroke:#B4B3B3;stroke-width:0.5;"/><text fill="#181818" font-family="sans-serif" font-size="13" lengthAdjust="spacing" textLength="96.5225" x="408.3891" y="394.313">Every claim is a</text><text fill="#181818" font-family="sans-serif" font-size="13" font-weight="700" lengthAdjust="spacing" textLength="182.4253" x="509.0248" y="394.313">typed, immutable snapshot</text><text fill="#181818" font-family="sans-serif" font-size="13" lengthAdjust="spacing" textLength="120.6055" x="695.5634" y="394.313">with provenance &#8212;</text><text fill="#181818" font-family="sans-serif" font-size="13" lengthAdjust="spacing" textLength="435.938" x="394.31" y="409.6236">who/what generated it, how sure, a payload hash, a redaction policy.</text><text fill="#181818" font-family="sans-serif" font-size="13" lengthAdjust="spacing" textLength="312.7554" x="455.9013" y="424.9341">The ledger is truth; the transcript is presentation.</text></g><!--link OBS to EV--><g class="link" data-entity-1="ent0002" data-entity-2="ent0003" data-link-type="dependency" data-source-line="12" id="lnk6"><path d="M310.78,121.4047 C310.78,143.7047 310.78,167.1347 310.78,191.6347" fill="none" id="OBS-to-EV" style="stroke:#585858;stroke-width:2;"/><polygon fill="#585858" points="310.78,197.6347,314.78,188.6347,310.78,192.6347,306.78,188.6347,310.78,197.6347" style="stroke:#585858;stroke-width:2;"/><text fill="#181818" font-family="sans-serif" font-size="13" lengthAdjust="spacing" textLength="120.5991" x="311.78" y="164.593">record (immutable)</text></g><!--link EV to HY--><g class="link" data-entity-1="ent0003" data-entity-2="ent0004" data-link-type="dependency" data-source-line="13" id="lnk7"><path d="M254.92,293.4547 C225.76,317.9747 195.3231,343.5642 168.8031,365.8542" fill="none" id="EV-to-HY" style="stroke:#585858;stroke-width:2;"/><polygon fill="#585858" points="164.21,369.7147,173.6733,366.986,168.0376,366.4976,168.526,360.8619,164.21,369.7147" style="stroke:#585858;stroke-width:2;"/><text fill="#181818" font-family="sans-serif" font-size="13" lengthAdjust="spacing" textLength="60.2075" x="218.28" y="336.543">rehydrate</text></g><!--link EV to TR--><g class="link" data-entity-1="ent0003" data-entity-2="ent0005" data-link-type="dependency" data-source-line="14" id="lnk8"><path d="M312.24,293.0447 C312.03,343.1747 306.4,424.1247 276.78,486.4447 C271.73,497.0647 268.2787,502.6514 260.3587,511.5114" fill="none" id="EV-to-TR" style="stroke:#585858;stroke-width:1;stroke-dasharray:1,3;"/><polygon fill="#585858" points="256.36,515.9847,265.3403,511.9405,259.6923,512.2569,259.3759,506.6089,256.36,515.9847" style="stroke:#585858;stroke-width:1;"/><text fill="#181818" font-family="sans-serif" font-size="13" lengthAdjust="spacing" textLength="41.374" x="308.54" y="409.773">render</text></g><!--link HY to TR--><g class="link" data-entity-1="ent0004" data-entity-2="ent0005" data-link-type="dependency" data-source-line="15" id="lnk9"><path d="M145.82,439.5747 C160.79,462.5947 177.2573,487.9058 192.2773,510.9858" fill="none" id="HY-to-TR" style="stroke:#585858;stroke-width:2;"/><polygon fill="#585858" points="195.55,516.0147,193.9935,506.2896,192.8228,511.824,187.2884,510.6532,195.55,516.0147" style="stroke:#585858;stroke-width:2;"/><text fill="#181818" font-family="sans-serif" font-size="13" lengthAdjust="spacing" textLength="93.0122" x="174.6" y="483.013">grounded view</text></g><?plantuml-src RLD1Rjim4Bph5LjVcXYsT4XFRX30BG8aG1e5Zf6WG8209ZSMMueaoALLt_g8_YNtFgKlwL9r5CEfJjHmC3kpktodhJH98JH4FiwgAeYkN6jgqYf53D9PGakbT6tbWzkWcqfHQSMOfctL2crtUEbJQmf63S9DHgom4g62yqscy_4ArHf3yHvkILWbWfh1_Sbdk5dKTzDwWs6ZiOC_FtyDLhgkAxkJqeLrjLpqPQPknwjOvWetQ6RmWO-l1MV0l6yeALR2DsYqi_3x6IB6oCUAjXxZ8-uibMitWPUVnu1AI68MmqN1YRspd1D6zOexiH7vwi4UaNC6N2AVA2ktJg41QOHkZqTm-8a8zQTRE3qLtf-T5KgGM8c80AEXBT4A7nj73pQw52HElskhiZ9w7GbRBQUH1ANuOBtO6YVKj16noOp1yIWNEh_ZEch5PVQyNsnLU74US9MqKT0FzGV1Kt3j4F-DULQy-0g3zJtDPH0sog0zUpxo0IEZVOt_DE2DvdBngbdatimNY_h-ySlyyhgdS8eP1vCkA3ZIRPkuOmQF2yOFgMmlKvi-8kunwflbPNqzlyh5CiCgthiSva2Wlru7bvYW8EzLKLX722j7nBrnJsodO4-yTTj_CmOTGS1ud1T9JM0mE8nnF8QEdm_urpV0EyqYNUEghX44QxIO3IlGD876TH1Jm0dBxkOBURxvVvWlU6Uqt9OiismGJF-IiXKAYPgFG0pIC9LyiJ-Mik0EG0xs5m00?></g></svg>