<svg xmlns="http://www.w3.org/2000/svg" xmlns:xlink="http://www.w3.org/1999/xlink" contentStyleType="text/css" data-diagram-type="DESCRIPTION" height="574px" preserveAspectRatio="none" style="width:834px;height:574px;background:#FAFAFA;" version="1.1" viewBox="0 0 834 574" width="834px" zoomAndPan="magnify"><?plantuml 1.2026.3?><defs><filter height="300%" id="f1t116hhb0q9ie" width="300%" x="-1" y="-1"><feGaussianBlur result="blurOut" stdDeviation="2"/><feColorMatrix in="blurOut" result="blurOut2" type="matrix" values="0 0 0 0 0 0 0 0 0 0 0 0 0 0 0 0 0 0 .4 0"/><feOffset dx="4" dy="4" in="blurOut2" result="blurOut3"/><feBlend in="SourceGraphic" in2="blurOut3" mode="normal"/></filter></defs><g><rect fill="#FAFAFA" height="574" style="stroke:none;stroke-width:1;" width="834" x="0" y="0"/><g class="title" data-source-line="2"><rect fill="none" height="33.5547" style="stroke:#585858;stroke-width:1;" width="338.2324" x="244.6003" y="5"/><text fill="#005F7F" font-family="sans-serif" font-size="20" font-weight="700" lengthAdjust="spacing" textLength="328.2324" x="249.6003" y="29.3359">Typed Execution-Events Ledger</text></g><!--entity EV--><g class="entity" data-qualified-name="EV" data-source-line="8" id="ent0002"><rect fill="#CBDB2A" filter="url(#f1t116hhb0q9ie)" height="52.9766" rx="6" ry="6" style="stroke:#818D00;stroke-width:0.5;" width="197.4814" x="122.72" y="51.5547"/><text fill="#181818" font-family="sans-serif" font-size="14" font-style="italic" lengthAdjust="spacing" textLength="52.7119" x="195.1048" y="75.0898">&#171;async&#187;</text><text fill="#181818" font-family="sans-serif" font-size="14" lengthAdjust="spacing" textLength="177.4814" x="132.72" y="91.5781">Turn / tool / effect events</text></g><!--entity LOG--><g class="entity" data-qualified-name="LOG" data-source-line="9" id="ent0003"><path d="M110.68,191.5247 C110.68,181.5247 221.4656,181.5247 221.4656,181.5247 C221.4656,181.5247 332.2513,181.5247 332.2513,191.5247 L332.2513,249.9895 C332.2513,259.9895 221.4656,259.9895 221.4656,259.9895 C221.4656,259.9895 110.68,259.9895 110.68,249.9895 L110.68,191.5247" fill="#E5E4E4" filter="url(#f1t116hhb0q9ie)" style="stroke:#585858;stroke-width:0.5;"/><path d="M110.68,191.5247 C110.68,201.5247 221.4656,201.5247 221.4656,201.5247 C221.4656,201.5247 332.2513,201.5247 332.2513,191.5247" fill="none" style="stroke:#585858;stroke-width:0.5;"/><text fill="#181818" font-family="sans-serif" font-size="14" font-style="italic" lengthAdjust="spacing" textLength="32.293" x="205.3192" y="219.0598">&#171;db&#187;</text><text fill="#181818" font-family="sans-serif" font-size="14" lengthAdjust="spacing" textLength="117.5234" x="162.7039" y="235.5481">execution_events</text><text fill="#181818" font-family="sans-serif" font-size="14" lengthAdjust="spacing" textLength="201.5713" x="120.68" y="252.0364">append-only &#183; monotonic seq</text></g><!--entity PROJ--><g class="entity" data-qualified-name="PROJ" data-source-line="10" id="ent0004"><rect fill="#005F7F" filter="url(#f1t116hhb0q9ie)" height="69.4648" rx="6" ry="6" style="stroke:#00BAC6;stroke-width:0.5;" width="144.9268" x="7" y="336.9947"/><text fill="#FAFAFA" font-family="sans-serif" font-size="14" font-style="italic" lengthAdjust="spacing" textLength="40.0244" x="59.4512" y="360.5298">&#171;app&#187;</text><text fill="#FAFAFA" font-family="sans-serif" font-size="14" lengthAdjust="spacing" textLength="75.0039" x="41.9614" y="377.0181">Projections</text><text fill="#FAFAFA" font-family="sans-serif" font-size="14" lengthAdjust="spacing" textLength="124.9268" x="17" y="393.5064">(transcript &#183; views)</text></g><!--entity R--><g class="entity" data-qualified-name="R" data-source-line="11" id="ent0005"><ellipse cx="150.4597" cy="491.9547" fill="#00BAC6" filter="url(#f1t116hhb0q9ie)" rx="8" ry="8" style="stroke:#585858;stroke-width:0.5;"/><path d="M150.4597,499.9547 L150.4597,526.9547 M137.4597,507.9547 L163.4597,507.9547 M150.4597,526.9547 L137.4597,541.9547 M150.4597,526.9547 L163.4597,541.9547" fill="none" filter="url(#f1t116hhb0q9ie)" style="stroke:#585858;stroke-width:0.5;"/><text fill="#181818" font-family="sans-serif" font-size="14" lengthAdjust="spacing" textLength="97.4395" x="101.74" y="558.4898">Reader / audit</text></g><g class="entity" data-qualified-name="GMN10" data-source-line="19" id="ent0011"><path d="M355.5,351.4147 L355.5,392.0358 A0,0 0 0 0 355.5,392.0358 L819.4331,392.0358 A0,0 0 0 0 819.4331,392.0358 L819.4331,361.4147 L809.4331,351.4147 L542.82,351.4147 L316.19,260.3147 L534.82,351.4147 L355.5,351.4147 A0,0 0 0 0 355.5,351.4147" fill="#E5E4E4" filter="url(#f1t116hhb0q9ie)" style="stroke:#B4B3B3;stroke-width:0.5;"/><path d="M809.4331,351.4147 L809.4331,361.4147 L819.4331,361.4147 L809.4331,351.4147" fill="#E5E4E4" style="stroke:#B4B3B3;stroke-width:0.5;"/><text fill="#181818" font-family="sans-serif" font-size="13" lengthAdjust="spacing" textLength="23.5308" x="402.1409" y="368.983">The</text><text fill="#181818" font-family="sans-serif" font-size="13" font-weight="700" lengthAdjust="spacing" textLength="100.4834" x="429.7849" y="368.983">log is the truth</text><text fill="#181818" font-family="sans-serif" font-size="13" lengthAdjust="spacing" textLength="233.5239" x="530.2683" y="368.983">; the transcript is a *projection* of it.</text><text fill="#181818" font-family="sans-serif" font-size="13" lengthAdjust="spacing" textLength="442.9331" x="361.5" y="384.2936">A monotonic per-session seq fixes execution order for audit &amp; replay.</text></g><!--link EV to LOG--><g class="link" data-entity-1="ent0002" data-entity-2="ent0003" data-link-type="dependency" data-source-line="13" id="lnk6"><path d="M221.46,104.8447 C221.46,126.1947 221.46,150.8247 221.46,175.1047" fill="none" id="EV-to-LOG" style="stroke:#818D00;stroke-width:2;"/><polygon fill="#818D00" points="221.46,181.1047,225.46,172.1047,221.46,176.1047,217.46,172.1047,221.46,181.1047" style="stroke:#818D00;stroke-width:2;"/><text fill="#181818" font-family="sans-serif" font-size="13" lengthAdjust="spacing" textLength="142.6699" x="222.46" y="148.093">append (never mutate)</text></g><!--link LOG to PROJ--><g class="link" data-entity-1="ent0003" data-entity-2="ent0004" data-link-type="dependency" data-source-line="14" id="lnk7"><path d="M148.78,260.4147 C136.65,269.0347 124.94,278.9447 115.46,289.9947 C103.87,303.5047 97.4963,315.7266 91.6963,331.1966" fill="none" id="LOG-to-PROJ" style="stroke:#585858;stroke-width:2;"/><polygon fill="#585858" points="89.59,336.8147,96.4949,329.7917,91.3453,332.1329,89.0041,326.9833,89.59,336.8147" style="stroke:#585858;stroke-width:2;"/><text fill="#181818" font-family="sans-serif" font-size="13" lengthAdjust="spacing" textLength="78.2222" x="116.46" y="303.563">replay / fold</text></g><!--link PROJ to R--><g class="link" data-entity-1="ent0004" data-entity-2="ent0005" data-link-type="dependency" data-source-line="15" id="lnk8"><path d="M95.75,406.8447 C106.6,429.5747 118.2965,454.0594 129.5365,477.6194" fill="none" id="PROJ-to-R" style="stroke:#585858;stroke-width:2;"/><polygon fill="#585858" points="132.12,483.0347,131.8549,473.1894,129.9671,478.5219,124.6345,476.6341,132.12,483.0347" style="stroke:#585858;stroke-width:2;"/><text fill="#181818" font-family="sans-serif" font-size="13" lengthAdjust="spacing" textLength="47.5439" x="118.09" y="450.023">present</text></g><!--link LOG to R--><g class="link" data-entity-1="ent0003" data-entity-2="ent0005" data-link-type="dependency" data-source-line="16" id="lnk9"><path d="M215.34,260.2747 C207.6,306.5647 193,386.4047 174.46,453.4547 C171.76,463.2247 170.3534,467.962 166.9734,477.612" fill="none" id="LOG-to-R" style="stroke:#585858;stroke-width:1;stroke-dasharray:1,3;"/><polygon fill="#585858" points="164.99,483.2747,171.7402,476.1029,166.6428,478.5558,164.19,473.4584,164.99,483.2747" style="stroke:#585858;stroke-width:1;"/><text fill="#181818" font-family="sans-serif" font-size="13" lengthAdjust="spacing" textLength="97.4746" x="202.14" y="376.793">canonical order</text></g><?plantuml-src VLBDZjCm4BxdAOOSO3VQ9XTEPRLI1GKjAjjkjWiNfCfr9et1iOqzwMvl-n2y2tSUXITXdBHL0GaV4dj-Fd_VDtwcZDHTXT0GkJ0k2YyUyesYfbjt0RsqXj1GBcrRE6-tQ4TI5AhYcA9TqGfbzl7STQrEEAeHbZk75KmVKNQah1bDjrmVO8RL1dto0aginm3mrZvez1VGf-7ETbugiu5VJz-FR5hXIPcwB-n9e11lS5lqBOUEl26--X_OrxVbtV_1rbfzLKMiEq3CS8jw32zvkuYoZ30Iny0Ilw2aK0ZNe6P9yFC710o1jqKWwp7Vs0iWrXrMlcDpMbnvbDPNWJD9mhSvQwBCTDbv0mMGjPf_MDSC3DWxbC9-YG3JZ_o_l1HXP-JLLL894ciH4235Ww-heUkp4SwXgKRMw5qarbfZoHebcUAtD8BDvkyOgrepq0cJnQ2AaHZZZBmmGNhbA69i5Jw4ytJWiYZdxoCNvnX0IDRRiqnB51LwLY6wIj6H_P-B-yiawULCodB-QNLxFxsVnana1MCOsCEPOJaUseu4uNdI9uU63vFhcnwgvp46ZqwB7LzRMrqbVV2lmZ9-ujWmiD9JhFbYUJs_cSmE9LAOw9JGmBFYnvcmTGXhIsHRi7Nac00i6uGiqtO3AW3nWNn7JPQzsX-Epd5QGEQEncOHGr7E69EJkJZqe_tpYJE2MZrYWEDW1ouipm_EmlEzvZo9JaMAlm40?></g></svg>