<svg xmlns="http://www.w3.org/2000/svg" xmlns:xlink="http://www.w3.org/1999/xlink" contentStyleType="text/css" data-diagram-type="DESCRIPTION" height="565px" preserveAspectRatio="none" style="width:813px;height:565px;background:#FAFAFA;" version="1.1" viewBox="0 0 813 565" width="813px" zoomAndPan="magnify"><?plantuml 1.2026.3?><defs><filter height="300%" id="ffiqr6g4t43ts" width="300%" x="-1" y="-1"><feGaussianBlur result="blurOut" stdDeviation="2"/><feColorMatrix in="blurOut" result="blurOut2" type="matrix" values="0 0 0 0 0 0 0 0 0 0 0 0 0 0 0 0 0 0 .4 0"/><feOffset dx="4" dy="4" in="blurOut2" result="blurOut3"/><feBlend in="SourceGraphic" in2="blurOut3" mode="normal"/></filter></defs><g><rect fill="#FAFAFA" height="565" style="stroke:none;stroke-width:1;" width="813" x="0" y="0"/><g class="title" data-source-line="2"><rect fill="none" height="33.5547" style="stroke:#585858;stroke-width:1;" width="365.6934" x="220.5492" y="5"/><text fill="#005F7F" font-family="sans-serif" font-size="20" font-weight="700" lengthAdjust="spacing" textLength="355.6934" x="225.5492" y="29.3359">Dify &#8212; agentic-workflow platform</text></g><!--entity B--><g class="entity" data-qualified-name="B" data-source-line="8" id="ent0002"><ellipse cx="412.6174" cy="58.5547" fill="#00BAC6" filter="url(#ffiqr6g4t43ts)" rx="8" ry="8" style="stroke:#585858;stroke-width:0.5;"/><path d="M412.6174,66.5547 L412.6174,93.5547 M399.6174,74.5547 L425.6174,74.5547 M412.6174,93.5547 L399.6174,108.5547 M412.6174,93.5547 L425.6174,108.5547" fill="none" filter="url(#ffiqr6g4t43ts)" style="stroke:#585858;stroke-width:0.5;"/><text fill="#181818" font-family="sans-serif" font-size="14" lengthAdjust="spacing" textLength="47.1748" x="389.03" y="125.0898">Builder</text></g><!--entity CANVAS--><g class="entity" data-qualified-name="CANVAS" data-source-line="9" id="ent0003"><rect fill="#005F7F" filter="url(#ffiqr6g4t43ts)" height="52.9766" rx="6" ry="6" style="stroke:#00BAC6;stroke-width:0.5;" width="177.2471" x="323.99" y="205.0447"/><text fill="#FAFAFA" font-family="sans-serif" font-size="14" font-style="italic" lengthAdjust="spacing" textLength="40.0244" x="392.6013" y="228.5798">&#171;app&#187;</text><text fill="#FAFAFA" font-family="sans-serif" font-size="14" lengthAdjust="spacing" textLength="157.2471" x="333.99" y="245.0681">Visual workflow canvas</text></g><!--entity AGENT--><g class="entity" data-qualified-name="AGENT" data-source-line="10" id="ent0004"><rect fill="#005F7F" filter="url(#ffiqr6g4t43ts)" height="52.9766" rx="6" ry="6" style="stroke:#00BAC6;stroke-width:0.5;" width="113.7207" x="195.76" y="336.4947"/><text fill="#FAFAFA" font-family="sans-serif" font-size="14" font-style="italic" lengthAdjust="spacing" textLength="40.0244" x="232.6081" y="360.0298">&#171;app&#187;</text><text fill="#FAFAFA" font-family="sans-serif" font-size="14" lengthAdjust="spacing" textLength="93.7207" x="205.76" y="376.5181">Agent + tools</text></g><!--entity KB--><g class="entity" data-qualified-name="KB" data-source-line="11" id="ent0005"><path d="M6,486.6947 C6,476.6947 75.6162,476.6947 75.6162,476.6947 C75.6162,476.6947 145.2324,476.6947 145.2324,486.6947 L145.2324,528.6713 C145.2324,538.6713 75.6162,538.6713 75.6162,538.6713 C75.6162,538.6713 6,538.6713 6,528.6713 L6,486.6947" fill="#E5E4E4" filter="url(#ffiqr6g4t43ts)" style="stroke:#585858;stroke-width:0.5;"/><path d="M6,486.6947 C6,496.6947 75.6162,496.6947 75.6162,496.6947 C75.6162,496.6947 145.2324,496.6947 145.2324,486.6947" fill="none" style="stroke:#585858;stroke-width:0.5;"/><text fill="#181818" font-family="sans-serif" font-size="14" font-style="italic" lengthAdjust="spacing" textLength="32.293" x="59.4697" y="514.2298">&#171;db&#187;</text><text fill="#181818" font-family="sans-serif" font-size="14" lengthAdjust="spacing" textLength="119.2324" x="16" y="530.7181">Knowledge / RAG</text></g><!--entity LLM--><g class="entity" data-qualified-name="LLM" data-source-line="12" id="ent0006"><path d="M189.3621,476.364 C192.9916,469.6705 197.1389,469.3466 201.5612,475.6181 C204.4585,468.8485 210.312,467.6029 215.1698,473.5142 C217.8648,467.6635 222.6033,466.2712 227.3219,471.2418 C232.412,465.3313 236.768,463.6453 241.5978,471.5115 C243.6782,465.2846 249.841,464.9389 253.744,469.4499 C257.3705,463.1072 263.7945,464.5587 266.9435,469.9854 C271.6367,464.6175 277.1997,466.1483 278.8912,472.9358 C282.9459,466.1822 289.2867,467.5131 292.407,473.8972 C296.6837,467.8755 301.6676,467.4487 305.1275,474.681 C310.3435,470.2328 316.4026,470.7569 318.5733,478.1415 C326.7541,482.7085 326.6532,487.7779 320.1261,493.8032 C327.168,497.7111 326.8965,503.6583 320.8614,508.2325 C327.9033,514.421 326.6608,520.0596 319.1874,524.7796 C326.4141,529.602 324.5779,536.637 317.1681,539.4438 C314.7804,545.7006 308.3528,546.3571 304.1203,541.6365 C300.2788,547.1801 296.2014,547.7077 292.623,541.3815 C288.7603,549.2839 284.5597,548.968 278.9744,543.0874 C274.406,549.2595 270.285,549.5439 266.3966,542.4431 C263.6144,547.6562 258.1759,549.1923 254.726,543.1345 C250.2936,550.6872 246.0407,550.0486 241.0662,543.6659 C236.9695,548.7229 230.3989,548.7633 228.2526,541.6178 C223.8122,548.9949 219.1144,548.9818 214.1466,542.1411 C209.3734,546.536 205.6395,546.8983 202.4403,540.4429 C198.4048,547.3677 192.317,546.3201 189.1029,539.6377 C180.9999,535.1645 179.9887,529.787 187.5474,523.7777 C178.1934,521.3059 177.4784,514.6045 183.4324,508.1117 C176.2323,501.8982 178.1191,496.0428 186.3757,492.8006 C180.1117,487.2485 180.8845,479.2376 189.3621,476.364" fill="#585858" filter="url(#ffiqr6g4t43ts)"/><text fill="#FAFAFA" font-family="sans-serif" font-size="14" font-style="italic" lengthAdjust="spacing" textLength="51.9873" x="226.6209" y="496.4898">&#171;cloud&#187;</text><text fill="#FAFAFA" font-family="sans-serif" font-size="14" lengthAdjust="spacing" textLength="101.0762" x="202.0764" y="512.9781">Model gateway</text><text fill="#FAFAFA" font-family="sans-serif" font-size="14" lengthAdjust="spacing" textLength="114.249" x="195.49" y="529.4664">(many providers)</text></g><!--entity OBS--><g class="entity" data-qualified-name="OBS" data-source-line="13" id="ent0007"><path d="M365.2,477.9547 L464.033,477.9547 C469.033,477.9547 469.033,507.6871 469.033,507.6871 C469.033,507.6871 469.033,537.4195 464.033,537.4195 L365.2,537.4195 C360.2,537.4195 360.2,507.6871 360.2,507.6871 C360.2,507.6871 360.2,477.9547 365.2,477.9547" fill="#CBDB2A" filter="url(#ffiqr6g4t43ts)" style="stroke:#818D00;stroke-width:0.5;"/><path d="M464.033,477.9547 C459.033,477.9547 459.033,507.6871 459.033,507.6871 C459.033,537.4195 464.033,537.4195 464.033,537.4195" fill="none" style="stroke:#818D00;stroke-width:0.5;"/><text fill="#181818" font-family="sans-serif" font-size="14" font-style="italic" lengthAdjust="spacing" textLength="52.7119" x="383.2605" y="496.4898">&#171;async&#187;</text><text fill="#181818" font-family="sans-serif" font-size="14" lengthAdjust="spacing" textLength="88.833" x="365.2" y="512.9781">Observability</text><text fill="#181818" font-family="sans-serif" font-size="14" lengthAdjust="spacing" textLength="82.8857" x="368.1736" y="529.4664">(trace &#183; eval)</text></g><g class="entity" data-qualified-name="GMN13" data-source-line="22" id="ent0014"><path d="M344.45,335.0147 L344.45,390.9463 A0,0 0 0 0 344.45,390.9463 L798.7918,390.9463 A0,0 0 0 0 798.7918,390.9463 L798.7918,345.0147 L788.7918,335.0147 L541.96,335.0147 L444.41,258.4147 L533.96,335.0147 L344.45,335.0147 A0,0 0 0 0 344.45,335.0147" fill="#E5E4E4" filter="url(#ffiqr6g4t43ts)" style="stroke:#B4B3B3;stroke-width:0.5;"/><path d="M788.7918,335.0147 L788.7918,345.0147 L798.7918,345.0147 L788.7918,335.0147" fill="#E5E4E4" style="stroke:#B4B3B3;stroke-width:0.5;"/><text fill="#181818" font-family="sans-serif" font-size="13" lengthAdjust="spacing" textLength="172.1929" x="350.45" y="352.583">Framework-tier platform: a</text><text fill="#181818" font-family="sans-serif" font-size="13" font-weight="700" lengthAdjust="spacing" textLength="89.7876" x="526.7562" y="352.583">visual canvas</text><text fill="#181818" font-family="sans-serif" font-size="13" lengthAdjust="spacing" textLength="163.1348" x="620.657" y="352.583">over RAG, tools, agents, a</text><text fill="#181818" font-family="sans-serif" font-size="13" lengthAdjust="spacing" textLength="431.2598" x="351.491" y="367.8936">model gateway, and observability &#8212; build/deploy agentic workflows</text><text fill="#181818" font-family="sans-serif" font-size="13" lengthAdjust="spacing" textLength="247.1587" x="443.5416" y="383.2041">without wiring it all by hand (~140k&#9733;).</text></g><!--link B to CANVAS--><g class="link" data-entity-1="ent0002" data-entity-2="ent0003" data-link-type="dependency" data-source-line="15" id="lnk8"><path d="M412.62,128.4347 C412.62,152.6447 412.62,177.2547 412.62,198.6247" fill="none" id="B-to-CANVAS" style="stroke:#585858;stroke-width:2;"/><polygon fill="#585858" points="412.62,204.6247,416.62,195.6247,412.62,199.6247,408.62,195.6247,412.62,204.6247" style="stroke:#585858;stroke-width:2;"/><text fill="#181818" font-family="sans-serif" font-size="13" lengthAdjust="spacing" textLength="107.5991" x="413.62" y="171.613">compose visually</text></g><!--link CANVAS to AGENT--><g class="link" data-entity-1="ent0003" data-entity-2="ent0004" data-link-type="dependency" data-source-line="16" id="lnk9"><path d="M380.62,258.4147 C352.72,280.9947 317.1041,309.8003 289.2141,332.3703" fill="none" id="CANVAS-to-AGENT" style="stroke:#585858;stroke-width:2;"/><polygon fill="#585858" points="284.55,336.1447,294.0624,333.5925,288.4367,332.9993,289.0299,327.3737,284.55,336.1447" style="stroke:#585858;stroke-width:2;"/><text fill="#181818" font-family="sans-serif" font-size="13" lengthAdjust="spacing" textLength="71.3667" x="343.2" y="301.583">orchestrate</text></g><!--link AGENT to KB--><g class="link" data-entity-1="ent0004" data-entity-2="ent0005" data-link-type="dependency" data-source-line="17" id="lnk10"><path d="M203.03,389.8747 C187.56,398.8647 170.84,409.5747 156.62,420.9547 C135.99,437.4447 119.5216,454.571 104.3516,471.981" fill="none" id="AGENT-to-KB" style="stroke:#585858;stroke-width:2;"/><polygon fill="#585858" points="100.41,476.5047,109.3382,472.347,103.6947,472.735,103.3067,467.0914,100.41,476.5047" style="stroke:#585858;stroke-width:2;"/><text fill="#181818" font-family="sans-serif" font-size="13" lengthAdjust="spacing" textLength="86.8677" x="157.62" y="434.523">retrieve (RAG)</text></g><!--link AGENT to LLM--><g class="link" data-entity-1="ent0004" data-entity-2="ent0006" data-link-type="dependency" data-source-line="18" id="lnk11"><path d="M252.62,389.8247 C252.62,411.5147 252.62,436.8247 252.62,461.5747" fill="none" id="AGENT-to-LLM" style="stroke:#585858;stroke-width:2;"/><polygon fill="#585858" points="252.62,467.5747,256.62,458.5747,252.62,462.5747,248.62,458.5747,252.62,467.5747" style="stroke:#585858;stroke-width:2;"/><text fill="#181818" font-family="sans-serif" font-size="13" lengthAdjust="spacing" textLength="64.7715" x="253.62" y="434.523">call model</text></g><!--link AGENT to OBS--><g class="link" data-entity-1="ent0004" data-entity-2="ent0007" data-link-type="dependency" data-source-line="19" id="lnk12"><path d="M287.92,389.8347 C300.39,399.3147 314.37,410.3347 326.62,420.9547 C347.41,438.9747 365.3637,456.3458 382.2537,473.3658" fill="none" id="AGENT-to-OBS" style="stroke:#818D00;stroke-width:2;"/><polygon fill="#818D00" points="386.48,477.6247,382.9797,468.4188,382.958,474.0756,377.3012,474.0539,386.48,477.6247" style="stroke:#818D00;stroke-width:2;"/><text fill="#181818" font-family="sans-serif" font-size="13" lengthAdjust="spacing" textLength="71.2144" x="345.12" y="434.523">trace / eval</text></g><?plantuml-src TLFDRjD04BxxAGPVI48JWzIJ5LLosbAXfWsaf5oGqDgUEAkkTyt-9F85SU4DEF0ct7cKFWcpQoTAfNOlQy_Ezyryy_EAoqAu4c5ZRMFI9D5iDwcutRZS6TI5aXQbdHIgJXgjjgZ61KjuIJPkswHcNFRsIUDg4P5L85pmTGkFFty3gxnZCTuf_R0MQWUDO7QjT1szXezQbQwmQUSzc3DPNQ7apWm3L3KenqOvNI3CvpV0cWQIZl2OPRMSf-3FFl-Is2QCF_VKoGfQ14MhGhG08EyvRb5u_zCeOeLLEa3ZcUEYH1t3YuSPc4N4sIZfSullkN5Cm45omUIMcVWfuZoxlS_kO3ebMMTdn_0iA7m3LYbXuXS2PbUNjv_X02-PPJapIFbUIxKJM5P8nLfcL_6pyEjP-9fEozm75ygLdTeRLQA0YbdSiVQh7DHCjk3xIntNPXXtSD-E00z8OlZkq677iCXfQhOivuBcWnYiPjJ0Vty1jqmCutq6YzbTHy5CAmkYYBgK85ik5r--tMGVRc5Vf1H2UKZUDfHMj57_SkpSboG5fOiD6efhCUgDntwzzXGqMisfwJ2WEWsVkfxF5wkBlKwAJq6XzhLvwlPfTRcwt6j9eTEQ1AbH99L5o9MrgWQrxiL40Eyrgz5FnzXor8TPJe71QDGfx6TcD0BQBEtxUDBDmqct0FucflguMsII9QZZyeSzolq09oKsGhNxVJmCfo6M7Ms5SfPkpMK5t89NcxUmyOI37-zEtpuy_lard4H8_rxLVm00?></g></svg>