<svg xmlns="http://www.w3.org/2000/svg" xmlns:xlink="http://www.w3.org/1999/xlink" contentStyleType="text/css" data-diagram-type="DESCRIPTION" height="939px" preserveAspectRatio="none" style="width:788px;height:939px;background:#FAFAFA;" version="1.1" viewBox="0 0 788 939" width="788px" zoomAndPan="magnify"><?plantuml 1.2026.6?><defs><filter height="300%" id="f1agthqu467ufk" width="300%" x="-1" y="-1"><feGaussianBlur result="blurOut" stdDeviation="2"/><feColorMatrix in="blurOut" result="blurOut2" type="matrix" values="0 0 0 0 0 0 0 0 0 0 0 0 0 0 0 0 0 0 .4 0"/><feOffset dx="4" dy="4" in="blurOut2" result="blurOut3"/><feBlend in="SourceGraphic" in2="blurOut3" mode="normal"/></filter></defs><g><rect fill="#FAFAFA" height="939" style="stroke:none;stroke-width:1;" width="788" x="0" y="0"/><g class="title" data-source-line="2"><rect fill="none" height="33.2813" style="stroke:#585858;stroke-width:1;" width="525.9082" x="127.5859" y="5"/><text fill="#005F7F" font-family="sans-serif" font-size="20" font-weight="700" lengthAdjust="spacing" textLength="515.9082" x="132.5859" y="28.5645">UCT &#8212; Bandit-Based Monte-Carlo Tree Search</text></g><!--entity SEL--><g class="entity" data-qualified-name="SEL" data-source-line="7" id="ent0001"><rect fill="#005F7F" filter="url(#f1agthqu467ufk)" height="68.8906" rx="6" ry="6" style="stroke:#00BAC6;stroke-width:0.5;" width="211.4268" x="307.5" y="51.2813"/><text fill="#FAFAFA" font-family="sans-serif" font-size="14" font-style="italic" lengthAdjust="spacing" textLength="43.4834" x="391.4717" y="74.2764">&#171;app&#187;</text><text fill="#FAFAFA" font-family="sans-serif" font-size="14" lengthAdjust="spacing" textLength="64.5176" x="380.9546" y="90.5732">Selection</text><text fill="#FAFAFA" font-family="sans-serif" font-size="14" lengthAdjust="spacing" textLength="191.4268" x="317.5" y="106.8701">UCB1 down the known tree</text></g><!--entity EXP--><g class="entity" data-qualified-name="EXP" data-source-line="8" id="ent0002"><rect fill="#005F7F" filter="url(#f1agthqu467ufk)" height="68.8906" rx="6" ry="6" style="stroke:#00BAC6;stroke-width:0.5;" width="153.9297" x="7" y="292.7813"/><text fill="#FAFAFA" font-family="sans-serif" font-size="14" font-style="italic" lengthAdjust="spacing" textLength="43.4834" x="62.2231" y="315.7764">&#171;app&#187;</text><text fill="#FAFAFA" font-family="sans-serif" font-size="14" lengthAdjust="spacing" textLength="72.0918" x="47.9189" y="332.0732">Expansion</text><text fill="#FAFAFA" font-family="sans-serif" font-size="14" lengthAdjust="spacing" textLength="133.9297" x="17" y="348.3701">add one child node</text></g><!--entity SIM--><g class="entity" data-qualified-name="SIM" data-source-line="9" id="ent0003"><path d="M345.5427,542.8837 C349.8584,535.4056 355.7475,537.5822 359.4811,543.4899 C361.3094,538.2846 366.6754,535.8269 370.8019,540.9777 C374.192,535.579 380.2606,535.7245 383.4322,541.2309 C386.811,535.1712 391.7962,534.6028 396.4068,539.8126 C399.1332,533.904 402.6282,533.6629 407.2787,537.7118 C410.6337,532.4415 415.3438,531.3799 419.2655,537.0932 C423.6474,530.0119 429.7617,531.8777 433.39,537.9052 C438.0362,533.2173 441.3662,534.5796 443.9819,540.0272 C447.7161,533.7572 454.2598,533.5841 457.5438,540.4905 C461.2159,536.5902 465.474,536.9353 467.9779,541.87 C472.6378,535.0011 477.9025,534.9697 482.0803,542.3472 C485.1284,537.3298 490.4619,536.6002 493.5434,542.3114 C502.1273,545.1721 505.4382,551.8743 497.8663,558.936 C505.8495,562.5639 506.6203,568.7304 500.4874,574.7047 C507.3495,580.1219 505.5396,587.5963 497.2653,589.7779 C504.8901,597.2105 500.9964,604.1882 492.5807,607.3427 C489.7211,612.4934 485.4762,613.4855 481.9534,608.0058 C477.8697,613.7509 473.3493,613.7621 469.0647,608.2355 C465.4463,613.4406 461.7851,613.221 457.7569,608.7126 C455.0179,615.952 450.2358,615.3914 445.5619,610.6884 C441.6285,618.2371 436.6527,617.2203 432.105,611.3022 C429.4467,617.2396 425.4572,617.966 421.1099,613.0065 C416.0049,618.4267 410.5951,618.1042 406.8658,611.3915 C403.2759,617.244 398.9856,616.6441 395.7804,611.0198 C390.8662,617.519 385.1107,615.3984 382.5005,608.7012 C379.9056,614.4013 374.5498,613.8357 371.3464,609.3688 C366.0013,613.632 362.2674,613.4705 359.8158,606.4199 C355.8607,612.4624 349.7402,612.9471 346.2105,605.9754 C337.8568,602.7448 337.5626,596.8706 344.0858,591.4621 C334.4794,587.2029 334.5409,582.0889 341.2072,574.9865 C334.3176,569.9117 334.4136,563.6438 342.7006,560.0905 C334.3553,553.05 336.1654,546.9969 345.5427,542.8837" fill="#585858" filter="url(#f1agthqu467ufk)"/><text fill="#FAFAFA" font-family="sans-serif" font-size="14" font-style="italic" lengthAdjust="spacing" textLength="55.043" x="391.4375" y="562.2764">&#171;cloud&#187;</text><text fill="#FAFAFA" font-family="sans-serif" font-size="14" lengthAdjust="spacing" textLength="74.5732" x="381.6724" y="578.5732">Simulation</text><text fill="#FAFAFA" font-family="sans-serif" font-size="14" lengthAdjust="spacing" textLength="132.918" x="352.5" y="594.8701">play out to a result</text></g><!--entity BACK--><g class="entity" data-qualified-name="BACK" data-source-line="10" id="ent0004"><rect fill="#CBDB2A" filter="url(#f1agthqu467ufk)" height="68.8906" rx="6" ry="6" style="stroke:#818D00;stroke-width:0.5;" width="183.3994" x="332.5" y="690.2813"/><text fill="#181818" font-family="sans-serif" font-size="14" font-style="italic" lengthAdjust="spacing" textLength="57.8594" x="395.27" y="713.2764">&#171;async&#187;</text><text fill="#181818" font-family="sans-serif" font-size="14" lengthAdjust="spacing" textLength="118.9453" x="364.7271" y="729.5732">Backpropagation</text><text fill="#181818" font-family="sans-serif" font-size="14" lengthAdjust="spacing" textLength="163.3994" x="342.5" y="745.8701">update visits and value</text></g><!--entity TREE--><g class="entity" data-qualified-name="TREE" data-source-line="11" id="ent0005"><path d="M415.5,846.2813 C415.5,836.2813 552.8125,836.2813 552.8125,836.2813 C552.8125,836.2813 690.125,836.2813 690.125,846.2813 L690.125,904.1719 C690.125,914.1719 552.8125,914.1719 552.8125,914.1719 C552.8125,914.1719 415.5,914.1719 415.5,904.1719 L415.5,846.2813" fill="#E5E4E4" filter="url(#f1agthqu467ufk)" style="stroke:#585858;stroke-width:0.5;"/><path d="M415.5,846.2813 C415.5,856.2813 552.8125,856.2813 552.8125,856.2813 C552.8125,856.2813 690.125,856.2813 690.125,846.2813" fill="none" style="stroke:#585858;stroke-width:0.5;"/><text fill="#181818" font-family="sans-serif" font-size="14" font-style="italic" lengthAdjust="spacing" textLength="34.9043" x="535.3604" y="873.2764">&#171;db&#187;</text><text fill="#181818" font-family="sans-serif" font-size="14" lengthAdjust="spacing" textLength="81.3271" x="512.1489" y="889.5732">Search tree</text><text fill="#181818" font-family="sans-serif" font-size="14" lengthAdjust="spacing" textLength="254.625" x="425.5" y="905.8701">asymmetric, grows where it matters</text></g><g class="entity" data-qualified-name="GMN11" data-source-line="20" id="ent0012"><path d="M196,197.2813 L196,457.4063 A0,0 0 0 0 196,457.4063 L630.4355,457.4063 A0,0 0 0 0 630.4355,457.4063 L630.4355,207.2813 L620.4355,197.2813 L417,197.2813 L413,120.3312 L409,197.2813 L196,197.2813 A0,0 0 0 0 196,197.2813" fill="#E5E4E4" filter="url(#f1agthqu467ufk)" style="stroke:#B4B3B3;stroke-width:0.5;"/><path d="M620.4355,197.2813 L620.4355,207.2813 L630.4355,207.2813 L620.4355,197.2813" fill="#E5E4E4" style="stroke:#B4B3B3;stroke-width:0.5;"/><text fill="#181818" font-family="sans-serif" font-size="13" font-weight="700" lengthAdjust="spacing" textLength="311.1812" x="253.1272" y="214.3481">The idea is to treat each node as a bandit.</text><text fill="#181818" font-family="sans-serif" font-size="13" lengthAdjust="spacing" textLength="316.2148" x="250.6104" y="229.481">UCB1 balances exploiting the child with the best</text><text fill="#181818" font-family="sans-serif" font-size="13" lengthAdjust="spacing" textLength="329.875" x="243.7803" y="244.6138">observed value against exploring the one with few</text><text fill="#181818" font-family="sans-serif" font-size="13" lengthAdjust="spacing" textLength="155.6763" x="264.3276" y="259.7466">visits, so the tree grows</text><text fill="#181818" font-family="sans-serif" font-size="13" font-weight="700" lengthAdjust="spacing" textLength="111.8394" x="424.1362" y="259.7466">asymmetrically</text><text fill="#181818" font-family="sans-serif" font-size="13" lengthAdjust="spacing" textLength="13" x="540.1079" y="259.7466">&#8212;</text><text fill="#181818" font-family="sans-serif" font-size="13" lengthAdjust="spacing" textLength="329.5767" x="243.9294" y="274.8794">deep along promising lines, shallow elsewhere. No</text><text fill="#181818" font-family="sans-serif" font-size="13" lengthAdjust="spacing" textLength="323.2798" x="247.0779" y="290.0122">evaluation function is required: a random playout</text><text fill="#181818" font-family="sans-serif" font-size="13" lengthAdjust="spacing" textLength="305.5127" x="255.9614" y="305.145">supplies the signal, and the estimate improves</text><text fill="#181818" font-family="sans-serif" font-size="13" lengthAdjust="spacing" textLength="89.8828" x="363.7764" y="320.2778">with samples.</text><line style="stroke:#B4B3B3;stroke-width:1;" x1="197" x2="629.4355" y1="323.3438" y2="323.3438"/><text fill="#181818" font-family="sans-serif" font-size="13" font-weight="700" lengthAdjust="spacing" textLength="360.2358" x="228.5999" y="339.4106">Two assumptions to check before reaching for it.</text><text fill="#181818" font-family="sans-serif" font-size="13" lengthAdjust="spacing" textLength="216.1885" x="245.4465" y="354.5435">The cited paper analyses UCT for</text><text fill="#181818" font-family="sans-serif" font-size="13" font-weight="700" lengthAdjust="spacing" textLength="101.8418" x="465.7673" y="354.5435">MDP planning</text><text fill="#181818" font-family="sans-serif" font-size="13" lengthAdjust="spacing" textLength="4.3799" x="567.6091" y="354.5435">;</text><text fill="#181818" font-family="sans-serif" font-size="13" lengthAdjust="spacing" textLength="352.7075" x="232.364" y="369.6763">the familiar game-tree form adds the assumption that</text><text fill="#181818" font-family="sans-serif" font-size="13" lengthAdjust="spacing" textLength="33.6934" x="252.2068" y="384.8091">turns</text><text fill="#181818" font-family="sans-serif" font-size="13" font-style="italic" lengthAdjust="spacing" textLength="59.3188" x="290.0325" y="384.8091">alternate</text><text fill="#181818" font-family="sans-serif" font-size="13" lengthAdjust="spacing" textLength="215.8774" x="349.3513" y="384.8091">. Simultaneous moves break that</text><text fill="#181818" font-family="sans-serif" font-size="13" lengthAdjust="spacing" textLength="339.3584" x="239.0386" y="399.9419">added assumption. Separately, a playout must start</text><text fill="#181818" font-family="sans-serif" font-size="13" lengthAdjust="spacing" textLength="56.0054" x="239.6924" y="415.0747">from the</text><text fill="#181818" font-family="sans-serif" font-size="13" font-style="italic" lengthAdjust="spacing" textLength="26.6792" x="299.8301" y="415.0747">true</text><text fill="#181818" font-family="sans-serif" font-size="13" lengthAdjust="spacing" textLength="247.1016" x="330.6416" y="415.0747">state &#8212; hidden state breaks that, and</text><text fill="#181818" font-family="sans-serif" font-size="13" lengthAdjust="spacing" textLength="274.4854" x="271.4751" y="430.2075">playouts must then run in sampled worlds</text><text fill="#181818" font-family="sans-serif" font-size="13" lengthAdjust="spacing" textLength="5.0718" x="202" y="445.3403">(</text><text fill="#181818" font-family="monospace" font-size="13" lengthAdjust="spacing" textLength="399.1597" x="207.0718" y="445.3403">../imperfect-information-games/determinization.puml</text><text fill="#181818" font-family="sans-serif" font-size="13" lengthAdjust="spacing" textLength="9.2041" x="606.2314" y="445.3403">).</text></g><!--link SEL to EXP--><g class="link" data-entity-1="ent0001" data-entity-2="ent0002" data-link-type="dependency" data-source-line="13" id="lnk6"><path d="M314.04,120.3713 C269.46,138.6113 217.98,164.2713 178,197.2813 C145.63,224.0113 121.1745,259.9654 104.5445,288.3954" fill="none" id="SEL-to-EXP" style="stroke:#585858;stroke-width:2;"/><polygon fill="#585858" points="102.02,292.7112,110.0169,286.9623,104.5445,288.3954,103.1115,282.9231,102.02,292.7112" style="stroke:#585858;stroke-width:2;stroke-linejoin:miter;stroke-miterlimit:10;"/><text fill="#181818" font-family="sans-serif" font-size="13" lengthAdjust="spacing" textLength="93.3296" x="251" y="163.3481">reached a leaf</text></g><!--link EXP to SIM--><g class="link" data-entity-1="ent0002" data-entity-2="ent0003" data-link-type="dependency" data-source-line="14" id="lnk7"><path d="M102.07,361.7913 C118.73,390.1813 145.73,430.4313 178,457.2813 C225.08,496.4513 283.0226,524.1224 332.6226,543.4924" fill="none" id="EXP-to-SIM" style="stroke:#585858;stroke-width:2;"/><polygon fill="#585858" points="337.28,545.3113,330.3517,538.3114,332.6226,543.4924,327.4415,545.7633,337.28,545.3113" style="stroke:#585858;stroke-width:2;stroke-linejoin:miter;stroke-miterlimit:10;"/><text fill="#181818" font-family="sans-serif" font-size="13" lengthAdjust="spacing" textLength="123.5825" x="246" y="500.3481">from the new node</text></g><!--link SIM to BACK--><g class="link" data-entity-1="ent0003" data-entity-2="ent0004" data-link-type="dependency" data-source-line="15" id="lnk8"><path d="M420.3,613.5413 C421.1,637.3413 421.9409,662.5141 422.7109,685.2741" fill="none" id="SIM-to-BACK" style="stroke:#585858;stroke-width:2;"/><polygon fill="#585858" points="422.88,690.2713,426.5734,681.1411,422.7109,685.2741,418.578,681.4116,422.88,690.2713" style="stroke:#585858;stroke-width:2;stroke-linejoin:miter;stroke-miterlimit:10;"/><text fill="#181818" font-family="sans-serif" font-size="13" lengthAdjust="spacing" textLength="57.0527" x="423" y="656.3481">outcome</text></g><!--link BACK to TREE--><g class="link" data-entity-1="ent0004" data-entity-2="ent0005" data-link-type="dependency" data-source-line="16" id="lnk9"><path d="M453.27,759.4813 C473.12,782.3313 496.1116,808.7861 516.7016,832.4961" fill="none" id="BACK-to-TREE" style="stroke:#818D00;stroke-width:2;"/><polygon fill="#818D00" points="519.98,836.2713,517.099,826.8532,516.7016,832.4961,511.0587,832.0986,519.98,836.2713" style="stroke:#818D00;stroke-width:2;stroke-linejoin:miter;stroke-miterlimit:10;"/><text fill="#181818" font-family="sans-serif" font-size="13" lengthAdjust="spacing" textLength="120.25" x="493" y="802.3481">statistics per node</text></g><!--link TREE to SEL--><g class="link" data-entity-1="ent0005" data-entity-2="ent0001" data-link-type="dependency" data-source-line="17" id="lnk10"><path d="M613.81,836.2413 C647.65,809.9413 683,771.5213 683,725.7813 C683,326.2813 683,326.2813 683,326.2813 C683,266.8713 686.18,242.7913 648,197.2813 C614.82,157.7313 568.9973,133.2018 523.2973,116.2318" fill="none" id="TREE-to-SEL" style="stroke:#585858;stroke-width:2;"/><polygon fill="#585858" points="518.61,114.4913,525.6546,121.374,523.2973,116.2318,528.4395,113.8744,518.61,114.4913" style="stroke:#585858;stroke-width:2;stroke-linejoin:miter;stroke-miterlimit:10;"/><text fill="#181818" font-family="sans-serif" font-size="13" lengthAdjust="spacing" textLength="88.0801" x="684" y="578.3481">next iteration</text></g><?plantuml-src PLJBRYCt4BpFLtHqIJAmPgn5WDqeYmKihmwBsBkERI4v15YqPbeIOGuv8JcIbLC-8b-OBqcnHtu4qKdaT1MhgulynhZ63gtGBgK-pkiwyA7QchGRraEKq7YNnAMgyLtT1xyNFssuDYtsJ3hM7Hjtsg_weRC5TgtGwlAU_ldhRrgmQqsQBZXAIzUPQdh9mNgw3o9q9noQNV4jtN0lONwgflzNtrXsphWjIbUtLtEYPx6jDvKFstfsNitEpz_MizcxjxDtFxpv-kP755_9NkoSPaK1-Rrt44sJEx7I9EFTxsvrkPXHwm-EqaxemUa_A9iGHxfRNj7xzzpt7pwyXYyVUtPHuTosX5rgTiQsv7mx0fU_tRm0hHzQoh_9dUa6o-F1lUKZ-I5HyiGK90usZOT-kWPMKVyzTi7D0tpkUNkY6FgMaz3UH9CYmJdQinr61OkBov-pX7Xq3MXGo6kOcaMevTeazCTZrqaAfZcZRV27I8UT127CeEEK94HbkxzTBi7Mha5LP5SkRc-__Fhr-kBJP-rrZWQusM5cJ5PuK-JDiURowilgepOrfqtmdVhivA1c5Nd_5PUgdcTRqBSKkXm__x9QhfQZZZd510TYCaqaf6Paqa-lgBBAEGvwJ6X6WbfM5Cx3iBLF2KBy9XSLH6Lv3qq8D9E9UHxmXXFbZfGxEy2qrcXMPGc4fcRDo6GZaUInjzuaf5ER6xDmmFtHvLfY0iIlSPNsSfeHOOZ6nJHYmnCqHqc16pa0CqxsZABNhtbafocLvSlasDfZMURB1aWhqXDR3q9afGC1_bdZ9DFiKEeF93QAZhcYpnuOoPBK8DeCJYz6DYB87uC9qivpFj4yBCkXnN20YKFVMuFcix1ejexjcKOmhz6nwN8qJQSFGmH0suhSzLPYXVKKlz7x0ov0Z4FNvuFLVoIfUO1n6uyeQh9o5rZHqm3om1hCjQK-FnmucUqnGav-Td9XMLv_lCbwzTKeovy0oj8st1bhED2MEvcgeoZl21TvxEL52fQSMqr3WAowPeiSERHLrnNfLKxin0-HkjmZhQ7quGa4ldmRdic0a9uHGx576FNa97K3Ge0yXmnwlXzrdSA0SpJfek_epe3HdJRqgAXdgUl0dWZZo0WIHs707Dt9T2JI1zlcKNmtcLHLZTb8sE0Td1gNBT00JBCjiMu5hNR6cJzrLz_roUJxgX2NNxaa_m80?></g></svg>