<svg xmlns="http://www.w3.org/2000/svg" xmlns:xlink="http://www.w3.org/1999/xlink" contentStyleType="text/css" data-diagram-type="DESCRIPTION" height="661px" preserveAspectRatio="none" style="width:625px;height:661px;background:#FAFAFA;" version="1.1" viewBox="0 0 625 661" width="625px" zoomAndPan="magnify"><?plantuml 1.2026.3?><defs><filter height="300%" id="fajjtkf4f43as" width="300%" x="-1" y="-1"><feGaussianBlur result="blurOut" stdDeviation="2"/><feColorMatrix in="blurOut" result="blurOut2" type="matrix" values="0 0 0 0 0 0 0 0 0 0 0 0 0 0 0 0 0 0 .4 0"/><feOffset dx="4" dy="4" in="blurOut2" result="blurOut3"/><feBlend in="SourceGraphic" in2="blurOut3" mode="normal"/></filter></defs><g><rect fill="#FAFAFA" height="661" style="stroke:none;stroke-width:1;" width="625" x="0" y="0"/><g class="title" data-source-line="2"><rect fill="none" height="33.5547" style="stroke:#585858;stroke-width:1;" width="608.6426" x="5" y="5"/><text fill="#005F7F" font-family="sans-serif" font-size="20" font-weight="700" lengthAdjust="spacing" textLength="598.6426" x="10" y="29.3359">browser-use &#8212; computer-use / web-automation harness</text></g><!--entity LLM--><g class="entity" data-qualified-name="LLM" data-source-line="8" id="ent0002"><path d="M231.4958,59.5919 C235.5882,51.7962 240.539,53.1925 245.2912,58.9189 C249.0794,52.18 254.445,53.2304 258.567,58.5515 C262.0445,52.097 268.809,50.9577 272.3695,58.4696 C276.354,51.0506 281.2985,51.4413 286.5543,57.0895 C291.058,51.1068 296.8045,50.5547 300.09,58.2914 C305.3831,53.0963 310.0696,54.0334 313.7228,60.2504 C320.9827,60.924 321.3508,64.8446 318.7636,70.4059 C325.0669,72.1858 326.0543,77.5708 322.0976,82.2409 C325.8833,87.1083 324.8331,91.511 319.054,93.8764 C323.3661,99.064 322.9448,103.6279 315.7461,105.5552 C312.8569,112.6744 306.2974,113.5657 301.4315,107.7414 C298.7053,116.2555 292.5098,117.791 286.4184,111.054 C283.3706,118.7957 277.2731,118.6965 272.3927,112.9612 C267.7896,119.9135 261.2722,118.4646 258.7792,110.9725 C252.5192,117.0743 248.2045,116.3716 244.6419,108.2848 C240.3892,114.6738 234.3887,113.5794 231.4543,106.9495 C223.6944,105.5221 221.2068,98.8812 227.3956,93.3048 C220.9737,90.1862 220.8303,86.4973 226.128,82.0578 C221.909,77.7944 221.266,73.224 227.9031,70.6499 C223.4652,65.8685 225.3833,60.9455 231.4958,59.5919" fill="#585858" filter="url(#fajjtkf4f43as)"/><text fill="#FAFAFA" font-family="sans-serif" font-size="14" font-style="italic" lengthAdjust="spacing" textLength="51.9873" x="245.845" y="78.59">&#171;cloud&#187;</text><text fill="#FAFAFA" font-family="sans-serif" font-size="14" lengthAdjust="spacing" textLength="69.6035" x="237.0369" y="95.0783">LLM agent</text></g><!--entity BU--><g class="entity" data-qualified-name="BU" data-source-line="9" id="ent0003"><rect fill="#005F7F" filter="url(#fajjtkf4f43as)" height="52.9766" rx="6" ry="6" style="stroke:#00BAC6;stroke-width:0.5;" width="163.6572" x="59.0169" y="190.0349"/><text fill="#FAFAFA" font-family="sans-serif" font-size="14" font-style="italic" lengthAdjust="spacing" textLength="40.0244" x="120.8333" y="213.57">&#171;app&#187;</text><text fill="#FAFAFA" font-family="sans-serif" font-size="14" lengthAdjust="spacing" textLength="143.6572" x="69.0169" y="230.0583">browser-use harness</text></g><!--entity DOM--><g class="entity" data-qualified-name="DOM" data-source-line="10" id="ent0004"><rect fill="#005F7F" filter="url(#fajjtkf4f43as)" height="69.4648" rx="6" ry="6" style="stroke:#00BAC6;stroke-width:0.5;" width="245.791" x="222.9469" y="459.9849"/><text fill="#FAFAFA" font-family="sans-serif" font-size="14" font-style="italic" lengthAdjust="spacing" textLength="40.0244" x="325.8302" y="483.52">&#171;app&#187;</text><text fill="#FAFAFA" font-family="sans-serif" font-size="14" lengthAdjust="spacing" textLength="178.6162" x="256.5343" y="500.0083">Page &#8594; machine-readable</text><text fill="#FAFAFA" font-family="sans-serif" font-size="14" lengthAdjust="spacing" textLength="225.791" x="232.9469" y="516.4966">(interactive elements / a11y tree)</text></g><!--entity BR--><g class="entity" data-qualified-name="BR" data-source-line="11" id="ent0005"><polygon fill="#00BAC6" filter="url(#fajjtkf4f43as)" points="52.1369,330.0149,62.1369,320.0149,229.5529,320.0149,229.5529,372.9914,219.5529,382.9914,52.1369,382.9914,52.1369,330.0149" style="stroke:#006B70;stroke-width:0.5;"/><line style="stroke:#006B70;stroke-width:0.5;" x1="219.5529" x2="229.5529" y1="330.0149" y2="320.0149"/><line style="stroke:#006B70;stroke-width:0.5;" x1="52.1369" x2="219.5529" y1="330.0149" y2="330.0149"/><line style="stroke:#006B70;stroke-width:0.5;" x1="219.5529" x2="219.5529" y1="330.0149" y2="382.9914"/><text fill="#181818" font-family="sans-serif" font-size="14" font-style="italic" lengthAdjust="spacing" textLength="44.3311" x="113.6793" y="353.55">&#171;host&#187;</text><text fill="#181818" font-family="sans-serif" font-size="14" lengthAdjust="spacing" textLength="137.416" x="67.1369" y="370.0383">Browser (Playwright)</text></g><!--entity WEB--><g class="entity" data-qualified-name="WEB" data-source-line="12" id="ent0006"><rect fill="#005F7F" filter="url(#fajjtkf4f43as)" height="52.9766" rx="6" ry="6" style="stroke:#00BAC6;stroke-width:0.5;" width="86.0898" x="44.7969" y="468.2349"/><text fill="#FAFAFA" font-family="sans-serif" font-size="14" font-style="italic" lengthAdjust="spacing" textLength="40.0244" x="67.8296" y="491.77">&#171;app&#187;</text><text fill="#FAFAFA" font-family="sans-serif" font-size="14" lengthAdjust="spacing" textLength="66.0898" x="54.7969" y="508.2583">Web page</text></g><g class="entity" data-qualified-name="GMN12" data-source-line="21" id="ent0013"><path d="M117.1869,590.4549 L117.1869,646.3865 A0,0 0 0 0 117.1869,646.3865 L574.5057,646.3865 A0,0 0 0 0 574.5057,646.3865 L574.5057,600.4549 L564.5057,590.4549 L349.8369,590.4549 L345.8369,529.9449 L341.8369,590.4549 L117.1869,590.4549 A0,0 0 0 0 117.1869,590.4549" fill="#E5E4E4" filter="url(#fajjtkf4f43as)" style="stroke:#B4B3B3;stroke-width:0.5;"/><path d="M564.5057,590.4549 L564.5057,600.4549 L574.5057,600.4549 L564.5057,590.4549" fill="#E5E4E4" style="stroke:#B4B3B3;stroke-width:0.5;"/><text fill="#181818" font-family="sans-serif" font-size="13" lengthAdjust="spacing" textLength="140.7593" x="123.1869" y="608.0232">Turns a web page into</text><text fill="#181818" font-family="sans-serif" font-size="13" font-weight="700" lengthAdjust="spacing" textLength="122.2749" x="268.0594" y="608.0232">machine-readable</text><text fill="#181818" font-family="sans-serif" font-size="13" lengthAdjust="spacing" textLength="165.0581" x="394.4476" y="608.0232">interactive elements so an</text><text fill="#181818" font-family="sans-serif" font-size="13" lengthAdjust="spacing" textLength="433.856" x="124.4183" y="623.3338">LLM can reliably click / type / navigate &#8212; the canonical open-source</text><text fill="#181818" font-family="sans-serif" font-size="13" lengthAdjust="spacing" textLength="270.3149" x="206.1888" y="638.6443">computer-use harness (~100k&#9733;, YC W25).</text></g><!--link BR to DOM--><g class="link" data-entity-1="ent0005" data-entity-2="ent0004" data-link-type="dependency" data-source-line="14" id="lnk7"><path d="M167.8169,383.1149 C182.2669,398.3949 200.9469,416.4449 219.8369,429.9849 C234.9869,440.8449 246.9141,448.1057 263.6941,456.8357" fill="none" id="BR-to-DOM" style="stroke:#585858;stroke-width:2;"/><polygon fill="#585858" points="269.0169,459.6049,262.8789,451.9026,264.5813,457.2972,259.1866,458.9995,269.0169,459.6049" style="stroke:#585858;stroke-width:2;"/><text fill="#181818" font-family="sans-serif" font-size="13" lengthAdjust="spacing" textLength="156.895" x="220.8369" y="426.5532">capture DOM / a11y tree</text></g><!--link DOM to LLM--><g class="link" data-entity-1="ent0004" data-entity-2="ent0002" data-link-type="dependency" data-source-line="15" id="lnk8"><path d="M369.2669,459.7149 C374.4369,450.4749 379.1569,440.1849 381.8369,429.9849 C414.2669,306.6449 446.7569,252.8149 381.8369,143.0349 C368.7569,120.8949 349.9032,108.6035 327.4132,99.3235" fill="none" id="DOM-to-LLM" style="stroke:#585858;stroke-width:2;"/><polygon fill="#585858" points="321.8669,97.0349,328.6607,104.1653,326.4888,98.942,331.7122,96.7702,321.8669,97.0349" style="stroke:#585858;stroke-width:2;"/><text fill="#181818" font-family="sans-serif" font-size="13" lengthAdjust="spacing" textLength="134.9194" x="419.9569" y="286.5832">structured page state</text></g><!--link LLM to BU--><g class="link" data-entity-1="ent0002" data-entity-2="ent0003" data-link-type="dependency" data-source-line="16" id="lnk9"><path d="M221.8569,91.1749 C191.9769,99.1949 156.3269,114.4149 137.8369,143.0349 C129.0269,156.6849 128.6687,169.1037 131.6587,183.9037" fill="none" id="LLM-to-BU" style="stroke:#585858;stroke-width:2;"/><polygon fill="#585858" points="132.8469,189.7849,134.9854,180.171,131.8567,184.8839,127.1438,181.7552,132.8469,189.7849" style="stroke:#585858;stroke-width:2;"/><text fill="#181818" font-family="sans-serif" font-size="13" lengthAdjust="spacing" textLength="238.4814" x="138.8369" y="156.6032">choose action (click / type / navigate)</text></g><!--link BU to BR--><g class="link" data-entity-1="ent0003" data-entity-2="ent0005" data-link-type="dependency" data-source-line="17" id="lnk10"><path d="M140.8369,243.4749 C140.8369,265.3949 140.8369,290.8249 140.8369,313.9449" fill="none" id="BU-to-BR" style="stroke:#585858;stroke-width:2;"/><polygon fill="#585858" points="140.8369,319.9449,144.8369,310.9449,140.8369,314.9449,136.8369,310.9449,140.8369,319.9449" style="stroke:#585858;stroke-width:2;"/><text fill="#181818" font-family="sans-serif" font-size="13" lengthAdjust="spacing" textLength="49.2896" x="141.8369" y="286.5832">execute</text></g><!--link BR to WEB--><g class="link" data-entity-1="ent0005" data-entity-2="ent0006" data-link-type="dependency" data-source-line="18" id="lnk11"><path d="M104.3269,383.2049 C96.4069,391.9249 89.1269,402.0649 84.8369,412.9849 C78.0369,430.3549 78.1571,445.5405 80.7671,461.8205" fill="none" id="BR-to-WEB" style="stroke:#585858;stroke-width:2;"/><polygon fill="#585858" points="81.7169,467.7449,84.2417,458.2252,80.9254,462.8079,76.3426,459.4915,81.7169,467.7449" style="stroke:#585858;stroke-width:2;"/><text fill="#181818" font-family="sans-serif" font-size="13" lengthAdjust="spacing" textLength="93.6025" x="85.8369" y="426.5532">navigate (loop)</text></g><?plantuml-src XLDDZzCm4BtxLmova5QqsIAuHAkLjhiSa5fQLLGL4X9odA6nrh4Znsxf1N617u0uyFlwInWdeKfX2px5apVFxyt74wc5yZb2uLnLfqbY-NwybQxmcQ_H2gCTQZSMfamgQtPeHe8dCgUOT8Uav59tyN7bIyKegX0oQ_QKF286E7xv0PHTUTS54jXZDkBUcP8xQJGKt6giQ_OKbjRaNhZqZ21-TmURvoy73PEfK8zguwqulG9yIsfwBElLB8LmVblgiGKZZq5QnutD7hh_JLaptA4AUIyO4yhulA68PhDvgo62VnvUGu1UNpUvDpSibCNe83xg6-wSH1SufciW3bvLvmnBaW37Rz-XvAAG6aSMUSupXUzrBAc9bWidTmYeiAI4clh09vC3E8iuY0Bn_M9-8jQ6HgArD-tA72yLF-ojt1Pk45sGjWhI2bExSsqRpA0YVVyfKA3Ol9gUHB30TxjQBJOVvhUltq2ZC0N1A-SjDhUU2HRkVNGeTWgripHIXCyR2NJd3bdursBlPelrVLDKOYwCeGQ4Ij5Sna99yK1Fk4CLnbRpdTnIye05TF-be3C5_8I2flmlrS5IUig6M1bJ3HYLc2wPSRG7O3u6DmpWhRUw1XvMf9LBhJCm7FxPrE4G7crgRO1hrdeNN8D59Gb_W0jUcgLo1GQmqL9mrLyn8ZfRtMuo8VuykRfwEFxy-WowvHmpr3a4Ixy0?></g></svg>