<svg xmlns="http://www.w3.org/2000/svg" viewBox="0 0 45 45"><g fill="#000" stroke="#000" stroke-linecap="round" stroke-linejoin="round" stroke-width="1.5"><path d="M9 41h27v-3H9z"/><path d="M11 38c0-4 4-7 11.5-7S34 34 34 38z"/><path d="M16 22 L8 23 L17 25 L7 27 L19 28 Z"/><path d="M29 22 L37 23 L28 25 L38 27 L26 28 Z"/><ellipse cx="22.5" cy="20" rx="9" ry="10"/><path d="M15 12l-1-6 6 3zm15 0l1-6-6 3z"/><path fill="#ececec" stroke="none" d="M16 11l1-3 2 1.5zm13 0l-1-3-2 1.5z"/><path d="M12 6 L13.5 2 L15 6 Z M30 6 L31.5 2 L33 6 Z"/><circle cx="19" cy="19" r="1.1" fill="#ececec" stroke="none"/><circle cx="26" cy="19" r="1.1" fill="#ececec" stroke="none"/><path fill="#ececec" stroke="none" d="M21.5 24l1 1.5 1-1.5z"/></g></svg>
