<svg xmlns="http://www.w3.org/2000/svg" viewBox="0 0 45 45"><g fill="#000" stroke="#000" stroke-linecap="round" stroke-linejoin="round" stroke-width="1.5"><path d="M9 41h27v-3H9z"/><path d="M11 38c0-4 4-7 11.5-7S34 34 34 38z"/><path d="M20 12 L25 12 C29 12 33 16 33 22 C33 28 28 32 22.5 33 C17 32 12 28 12 22 C12 16 16 12 20 12 Z"/><circle cx="15" cy="14" r="2.8"/><circle cx="30" cy="14" r="2.8"/><path fill="#fc0" d="M16 10 l1-4 2 3 1.5-4 1.5 4 1 -4 2 4 1.5-3 1 4z"/><circle cx="17" cy="6" r=".8" fill="#ececec" stroke="none"/><circle cx="22.5" cy="6" r=".8" fill="#ececec" stroke="none"/><circle cx="28" cy="6" r=".8" fill="#ececec" stroke="none"/><path fill="none" stroke="#ececec" d="M17 19 L20 20 M25 20 L28 19"/><path fill="#ececec" stroke="none" d="M21 24l1.5 1.5 1.5-1.5z"/><path fill="none" stroke="#ececec" stroke-width="1" d="M19 26l-4.5 0M19 27.5l-4.5 1M26 26l4.5 0M26 27.5l4.5 1"/></g></svg>
