<svg xmlns="http://www.w3.org/2000/svg" viewBox="0 0 45 45"><g stroke="#000" stroke-linecap="round" stroke-linejoin="round" stroke-width="1.5"><path fill="#fff" d="M9 41h27v-3H9z"/><path fill="#fff" d="M11 38c0-4 4-7 11.5-7S34 34 34 38z"/><path fill="#fc0" d="M13 34l2-4h15l2 4z"/><path fill="none" stroke-width="1" d="M15 32h15M17 30v4M22.5 30v4M28 30v4"/><path fill="#fff" d="M22.5 13 l-6 7 v5 q0 4 6 5 q6-1 6-5 v-5 z"/><path fill="#fff" d="M16 13 l-4-8 8 6zm13 0 l4-8-8 6z"/><path fill="#000" stroke="none" d="M17 12l1-3 2 2zm11 0l-1-3-2 2z"/><ellipse cx="19" cy="20" rx="1.3" ry="1" fill="#000" stroke="none"/><ellipse cx="26" cy="20" rx="1.3" ry="1" fill="#000" stroke="none"/><path fill="#000" stroke="none" d="M22 23.5l.5 1 .5-1z"/><circle cx="22.5" cy="16" r="1.2" fill="none" stroke-width="1"/><path fill="none" stroke-width="1" d="M22.5 17.2v2.5M21.3 18.5h2.4"/></g></svg>
