<svg xmlns="http://www.w3.org/2000/svg" viewBox="0 0 45 45"><g stroke="#000" stroke-linecap="round" stroke-linejoin="round" stroke-width="1.5"><path fill="#fff" d="M8 41h29v-3H8z"/><path fill="#fff" d="M10 38c0-4 5-7 12.5-7S35 34 35 38z"/><path fill="#fff" d="M22.5 11 q4 0 5 3 q4-1 6 3 q-1 4 2 5 q-2 4 0 6 q-3 3-2 6 q-4 1-5 4 q-3-1-6 1 q-3-2-6-1 q-1-3-5-4 q1-3-2-6 q2-2 0-6 q3-1 2-5 q2-4 6-3 q1-3 5-3 z"/><circle fill="#fff" cx="22.5" cy="22" r="7"/><circle fill="#fff" cx="16.5" cy="16" r="1.8"/><circle fill="#fff" cx="28.5" cy="16" r="1.8"/><path fill="#fc0" d="M16 10 l1-5 2 3 2-4 1.5 4 1.5-4 2 4 2-3 1 5z"/><path fill="none" stroke-width="1" d="M22.5 6V2M20.5 4h4"/><circle cx="19.5" cy="22" r="1" fill="#000" stroke="none"/><circle cx="25.5" cy="22" r="1" fill="#000" stroke="none"/><path fill="#000" stroke="none" d="M21 25l1.5 1.5 1.5-1.5z"/><path fill="none" d="M22.5 26.5v2M20 28.5q2.5 1 5 0"/></g></svg>
