<svg xmlns="http://www.w3.org/2000/svg" viewBox="0 0 45 45"><g stroke="#000" stroke-linecap="round" stroke-linejoin="round" stroke-width="1.5"><path fill="#fff" d="M9 41h27v-3H9z"/><path fill="#fff" d="M11 38c0-4 4-7 11.5-7S34 34 34 38z"/><path fill="#fff" d="M16 22 L8 23 L17 25 L7 27 L19 28 Z"/><path fill="#fff" d="M29 22 L37 23 L28 25 L38 27 L26 28 Z"/><path fill="#fff" d="M12 22 Q11 15 15 12 L22.5 10 L30 12 Q34 15 33 22 Q31 29 22.5 31 Q14 29 12 22 Z"/><path fill="#fff" d="M15 12l-1-6 6 3zm15 0l1-6-6 3z"/><path fill="#000" stroke="none" d="M16 11l1-3 2 1.5zm13 0l-1-3-2 1.5z"/><path fill="#fff" d="M12 6 L13.5 2 L15 6 Z M30 6 L31.5 2 L33 6 Z"/><circle cx="19" cy="19" r="1" fill="#000" stroke="none"/><circle cx="26" cy="19" r="1" fill="#000" stroke="none"/><path fill="#000" stroke="none" d="M21.5 24l1 1.5 1-1.5z"/></g></svg>
