<svg xmlns="http://www.w3.org/2000/svg" viewBox="0 0 45 45"><g stroke="#000" stroke-linecap="round" stroke-linejoin="round" stroke-width="1.5"><path fill="#fff" d="M32 37c6-1 7-8 2-11"/><path fill="#fff" d="M13 39c-2-9 3-14 9.5-14S35 30 32 39z"/><circle fill="#fff" cx="22.5" cy="19" r="6.5"/><path fill="#fff" d="M17 15l-2-7 6 4zm11 0l2-7-6 4z"/><circle cx="20" cy="19" r=".9" fill="#000" stroke="none"/><circle cx="25" cy="19" r=".9" fill="#000" stroke="none"/><path fill="#000" stroke="none" d="M22 21.5h1l-.5.9z"/><path fill="none" d="M14 17l-2 1m2 1l-2 0m19-2l2 1m-2 1l2 0"/></g></svg>
