<svg xmlns="http://www.w3.org/2000/svg" viewBox="0 0 45 45"><g stroke="#000" stroke-linecap="round" stroke-linejoin="round" stroke-width="1.5"><path fill="#fff" d="M9 41h27v-3H9z"/><path fill="#fff" d="M12 38h21V10H12z"/><path fill="#fff" d="M10 10h25v-4H10z"/><path fill="none" d="M15 15h15M15 20h15M15 25h15M15 30h15M15 35h15"/><path fill="#000" stroke="none" d="M20 25l2 2-2 2-2-2z"/><path fill="#000" stroke="none" d="M26 20a1.2 1.2 0 1 1 0-2.4 1.2 1.2 0 1 1 0 2.4M28.5 22a.8.8 0 1 1 0-1.6.8.8 0 1 1 0 1.6M23.5 22a.8.8 0 1 1 0-1.6.8.8 0 1 1 0 1.6"/></g></svg>
