<svg xmlns="http://www.w3.org/2000/svg" viewBox="0 0 45 45"><g fill="#000" stroke="#000" stroke-linecap="round" stroke-linejoin="round" stroke-width="1.5"><path d="M9 41h27v-3H9z"/><path d="M11 38c0-4 4-7 11.5-7S34 34 34 38z"/><path fill="#3cc" d="M13 34l2-4h15l2 4z"/><rect x="16.5" y="31" width="1.5" height="2" fill="#fc0" stroke="none"/><rect x="21.75" y="31" width="1.5" height="2" fill="#fc0" stroke="none"/><rect x="27" y="31" width="1.5" height="2" fill="#fc0" stroke="none"/><ellipse cx="22.5" cy="21" rx="7" ry="8"/><path d="M14 14 l-2-8 7 4z"/><path d="M31 14 l2-8-7 4z"/><circle cx="19" cy="21" r="1.1" fill="#ececec" stroke="none"/><circle cx="26" cy="21" r="1.1" fill="#ececec" stroke="none"/><ellipse cx="22.5" cy="25" rx="1.3" ry="1" fill="#ececec" stroke="none"/><path fill="none" stroke="#ececec" d="M22.5 26v2M20 28q2.5 1 5 0"/><circle cx="22.5" cy="16" r="1.3" fill="#3cc" stroke="#000" stroke-width="1"/></g></svg>
