<svg xmlns="http://www.w3.org/2000/svg" viewBox="0 0 45 45">
    <g fill="#000" stroke="#000" stroke-linecap="round" stroke-linejoin="round" stroke-width="1.5">
        <path d="M8 41h29v-3H8z"/>
        <path d="M10 38c0-4 5-7 12.5-7S35 34 35 38z"/>
        <path d="M17 15 C12 16 9 22 11 28 C13 30 16 29 18 25 C19 21 19 17 17 15 Z"/>
        <path d="M28 15 C33 16 36 22 34 28 C32 30 29 29 27 25 C26 21 26 17 28 15 Z"/>
        <ellipse cx="22.5" cy="22" rx="10" ry="8.5"/>
        <ellipse stroke="#ececec" stroke-width="0.7" cx="22.5" cy="27" rx="5" ry="3.5"/>
        <path fill="#fc0" d="M17 11 l1-5 2 3 2-4 1.5 4 1.5-4 2 4 2-3 1 5z"/>
        <path fill="none" stroke="#ececec" stroke-width="1" d="M22.5 7 V3 M20.5 5 h4"/>
        <circle cx="19" cy="21" r="1.1" fill="#ececec" stroke="none"/>
        <circle cx="26" cy="21" r="1.1" fill="#ececec" stroke="none"/>
        <ellipse cx="22.5" cy="25" rx="1.5" ry="1.1" fill="#ececec" stroke="none"/>
        <path fill="none" stroke="#ececec" d="M22.5 26 v2 M20 28 q2.5 1.5 5 0"/>
        <path fill="#f99" stroke="none" d="M22 28.5 q-.3 2 .5 2.5 q.8-.5 .5-2.5z"/>
    </g>
</svg>
