<svg xmlns="http://www.w3.org/2000/svg" viewBox="0 0 45 45"><g stroke="#000" stroke-linecap="round" stroke-linejoin="round" stroke-width="1.5"><path fill="#fff" d="M9 41h27v-3H9z"/><path fill="#fff" d="M11 38c0-4 4-7 11.5-7S34 34 34 38z"/><path fill="#fff" d="M18 11 C13 12 11 18 12 24 C13 26 15 26 16 23 C17 18 18 14 18 11 Z"/><path fill="#fff" d="M27 11 C32 12 34 18 33 24 C32 26 30 26 29 23 C28 18 27 14 27 11 Z"/><path fill="#fff" d="M22.5 9 C27 9 30 11 30 15 C30 21 28 28 26 31 C25 33 20 33 19 31 C17 28 15 21 15 15 C15 11 18 9 22.5 9 Z"/><ellipse cx="19.5" cy="18" rx=".8" ry="1.1" fill="#000" stroke="none"/><ellipse cx="25.5" cy="18" rx=".8" ry="1.1" fill="#000" stroke="none"/><path fill="#000" stroke="none" d="M22.5 28.5 C20 28.5 19.5 30 20.5 31.5 C21.5 32.5 23.5 32.5 24.5 31.5 C25.5 30 25 28.5 22.5 28.5 Z"/><path fill="none" stroke-width="1" d="M22.5 24v4"/></g></svg>
