<svg xmlns="http://www.w3.org/2000/svg" viewBox="0 0 45 45"><g stroke="#000" stroke-linecap="round" stroke-linejoin="round" stroke-width="1.5"><path fill="#fff" d="M22.5 20 C14 21 10 30 12 38 L33 38 C35 30 31 21 22.5 20 Z"/><path fill="#fff" d="M18 10 C13 11 11 17 12 23 C13 25 15 25 16 22 C17 17 18 13 18 10 Z"/><path fill="#fff" d="M27 10 C32 11 34 17 33 23 C32 25 30 25 29 22 C28 17 27 13 27 10 Z"/><circle fill="#fff" cx="22.5" cy="14" r="6"/><ellipse fill="#fff" cx="22.5" cy="18.5" rx="3.5" ry="2.5"/><circle cx="20" cy="13" r=".7" fill="#000" stroke="none"/><circle cx="25" cy="13" r=".7" fill="#000" stroke="none"/><ellipse cx="22.5" cy="18" rx="1.2" ry=".9" fill="#000" stroke="none"/></g></svg>
