<svg xmlns="http://www.w3.org/2000/svg" viewBox="0 0 45 45">
    <g stroke="#222" stroke-linecap="round" stroke-linejoin="round"
       stroke-width="1.5">
        <!-- Carbot Vulture (black/red) — tilted nose-up -->
        <!-- Hover shadow -->
        <ellipse fill="#555" cx="22" cy="42" rx="12" ry="2" stroke="none" opacity="0.3"/>
        <ellipse fill="#3b7dd8" cx="31" cy="10" rx="5" ry="3.5" transform="rotate(-50 31 10)"/>

        <!-- Fat torpedo body (angled: tail bottom-left, nose upper-right) -->
        <path fill="#bbb" d="M5 40 Q1 37 4 33 L34 9 Q39 6 42 10 Q44 14 39 17z"/>
        <!-- Body highlight -->
        <path fill="#ccc" stroke="none" d="M8 36 L36 10 Q41 8 41 12 L11 36z"/>
        <!-- Red oval engine nacelles -->
        <ellipse fill="#3b7dd8" cx="16" cy="34" rx="5" ry="3.5" transform="rotate(-30 -1 -14)"/>
        <!-- Stabilizer stubs -->
        <path fill="#aaa" d="M14 32 L9 35 L11 34 L15 30z"/>
        <path fill="#aaa" d="M27 15 L22 18 L24 17 L28 13z"/>
        <!-- Tiny rider poking out -->
        <ellipse fill="#bbb" cx="24" cy="20" rx="4" ry="3.5"/>
        <!-- Rider helmet -->
        <ellipse fill="#ddd" cx="24" cy="18" rx="3.5" ry="3"/>
        <!-- Red goggles/visor -->
        <path fill="#3b7dd8" d="M21.5 18 L24 16.5 L26.5 18 L24 19.5z"/>
        <!-- Goofy grin -->
        <path fill="#fff" stroke="#222" stroke-width="1" d="M22 21 Q24 23.5 26 21z"/>
    </g>
</svg>

        