<svg xmlns="http://www.w3.org/2000/svg" xmlns:xlink="http://www.w3.org/1999/xlink" contentStyleType="text/css" data-diagram-type="DESCRIPTION" height="384px" preserveAspectRatio="none" style="width:520px;height:384px;background:#FAFAFA;" version="1.1" viewBox="0 0 520 384" width="520px" zoomAndPan="magnify"><?plantuml 1.2026.3?><defs><filter height="300%" id="f1ogtrt1s0r3f5" width="300%" x="-1" y="-1"><feGaussianBlur result="blurOut" stdDeviation="2"/><feColorMatrix in="blurOut" result="blurOut2" type="matrix" values="0 0 0 0 0 0 0 0 0 0 0 0 0 0 0 0 0 0 .4 0"/><feOffset dx="4" dy="4" in="blurOut2" result="blurOut3"/><feBlend in="SourceGraphic" in2="blurOut3" mode="normal"/></filter></defs><g><rect fill="#FAFAFA" height="384" style="stroke:none;stroke-width:1;" width="520" x="0" y="0"/><g class="title" data-source-line="2"><rect fill="none" height="33.5547" style="stroke:#585858;stroke-width:1;" width="232.8125" x="140.332" y="5"/><text fill="#005F7F" font-family="sans-serif" font-size="20" font-weight="700" lengthAdjust="spacing" textLength="222.8125" x="145.332" y="29.3359">Behavior Trees &amp; FSM</text></g><!--entity ST--><g class="entity" data-qualified-name="ST" data-source-line="7" id="ent0002"><rect fill="#005F7F" filter="url(#f1ogtrt1s0r3f5)" height="69.4648" rx="6" ry="6" style="stroke:#00BAC6;stroke-width:0.5;" width="217.1826" x="62.2" y="51.5547"/><text fill="#FAFAFA" font-family="sans-serif" font-size="14" font-style="italic" lengthAdjust="spacing" textLength="40.0244" x="150.7791" y="75.0898">&#171;app&#187;</text><text fill="#FAFAFA" font-family="sans-serif" font-size="14" lengthAdjust="spacing" textLength="178.3838" x="81.5994" y="91.5781">Discriminated-union state</text><text fill="#FAFAFA" font-family="sans-serif" font-size="14" lengthAdjust="spacing" textLength="197.1826" x="72.2" y="108.0664">(stalking &#183; hiding &#183; fleeing &#8230;)</text></g><!--entity TR--><g class="entity" data-qualified-name="TR" data-source-line="8" id="ent0003"><rect fill="#005F7F" filter="url(#f1ogtrt1s0r3f5)" height="69.4648" rx="6" ry="6" style="stroke:#00BAC6;stroke-width:0.5;" width="137.8789" x="206.86" y="198.0147"/><text fill="#FAFAFA" font-family="sans-serif" font-size="14" font-style="italic" lengthAdjust="spacing" textLength="40.0244" x="255.7872" y="221.5498">&#171;app&#187;</text><text fill="#FAFAFA" font-family="sans-serif" font-size="14" lengthAdjust="spacing" textLength="117.79" x="216.9044" y="238.0381">Pure transition fn</text><text fill="#FAFAFA" font-family="sans-serif" font-size="14" lengthAdjust="spacing" textLength="117.8789" x="216.86" y="254.5264">(side-effect-free)</text></g><!--entity BH--><g class="entity" data-qualified-name="BH" data-source-line="9" id="ent0004"><rect fill="#005F7F" filter="url(#f1ogtrt1s0r3f5)" height="52.9766" rx="6" ry="6" style="stroke:#00BAC6;stroke-width:0.5;" width="145.5898" x="7" y="206.2647"/><text fill="#FAFAFA" font-family="sans-serif" font-size="14" font-style="italic" lengthAdjust="spacing" textLength="40.0244" x="59.7827" y="229.7998">&#171;app&#187;</text><text fill="#FAFAFA" font-family="sans-serif" font-size="14" lengthAdjust="spacing" textLength="125.5898" x="17" y="246.2881">Per-state behavior</text></g><!--entity HY--><g class="entity" data-qualified-name="HY" data-source-line="10" id="ent0005"><rect fill="#CBDB2A" filter="url(#f1ogtrt1s0r3f5)" height="69.4648" rx="6" ry="6" style="stroke:#818D00;stroke-width:0.5;" width="95.2158" x="322.19" y="51.5547"/><text fill="#181818" font-family="sans-serif" font-size="14" font-style="italic" lengthAdjust="spacing" textLength="52.7119" x="343.442" y="75.0898">&#171;async&#187;</text><text fill="#181818" font-family="sans-serif" font-size="14" lengthAdjust="spacing" textLength="69.624" x="334.9859" y="91.5781">Hysteresis</text><text fill="#181818" font-family="sans-serif" font-size="14" lengthAdjust="spacing" textLength="75.2158" x="332.19" y="108.0664">(anti-jitter)</text></g><g class="entity" data-qualified-name="GMN10" data-source-line="18" id="ent0011"><path d="M46.12,328.4847 L46.12,369.1058 A0,0 0 0 0 46.12,369.1058 L505.4764,369.1058 A0,0 0 0 0 505.4764,369.1058 L505.4764,338.4847 L495.4764,328.4847 L279.79,328.4847 L275.79,267.9647 L271.79,328.4847 L46.12,328.4847 A0,0 0 0 0 46.12,328.4847" fill="#E5E4E4" filter="url(#f1ogtrt1s0r3f5)" style="stroke:#B4B3B3;stroke-width:0.5;"/><path d="M495.4764,328.4847 L495.4764,338.4847 L505.4764,338.4847 L495.4764,328.4847" fill="#E5E4E4" style="stroke:#B4B3B3;stroke-width:0.5;"/><text fill="#181818" font-family="sans-serif" font-size="13" lengthAdjust="spacing" textLength="429.5903" x="56.5031" y="346.053">A side-effect-free FSM over a discriminated-union state; transitions</text><text fill="#181818" font-family="sans-serif" font-size="13" lengthAdjust="spacing" textLength="438.3564" x="52.12" y="361.3636">are pure and testable. Hysteresis suppresses per-frame state chatter.</text></g><!--link ST to TR--><g class="link" data-entity-1="ent0002" data-entity-2="ent0003" data-link-type="dependency" data-source-line="12" id="lnk6"><path d="M210.55,121.2647 C219.85,130.3447 229.23,140.5647 236.79,151.0147 C247.11,165.2647 253.4844,177.1769 260.1144,192.1769" fill="none" id="ST-to-TR" style="stroke:#585858;stroke-width:2;"/><polygon fill="#585858" points="262.54,197.6647,262.5601,187.8159,260.5186,193.0915,255.243,191.05,262.54,197.6647" style="stroke:#585858;stroke-width:2;"/><text fill="#181818" font-family="sans-serif" font-size="13" lengthAdjust="spacing" textLength="52.2603" x="248.38" y="164.583">evaluate</text></g><!--link TR to ST--><g class="link" data-entity-1="ent0003" data-entity-2="ent0002" data-link-type="dependency" data-source-line="13" id="lnk7"><path d="M206.6,207.0947 C189.65,197.5947 173.58,184.8447 163.79,168.0147 C155.73,154.1547 155.0611,142.5077 158.1011,127.3377" fill="none" id="TR-to-ST" style="stroke:#585858;stroke-width:2;"/><polygon fill="#585858" points="159.28,121.4547,153.5896,129.4933,158.2976,126.3572,161.4336,131.0652,159.28,121.4547" style="stroke:#585858;stroke-width:2;"/><text fill="#181818" font-family="sans-serif" font-size="13" lengthAdjust="spacing" textLength="63.0322" x="164.79" y="164.583">next state</text></g><!--link ST to BH--><g class="link" data-entity-1="ent0002" data-entity-2="ent0004" data-link-type="dependency" data-source-line="14" id="lnk8"><path d="M102.39,121.4947 C92.09,129.7147 82.89,139.5247 76.79,151.0147 C67.93,167.7447 68.0954,183.3949 71.3254,200.0149" fill="none" id="ST-to-BH" style="stroke:#585858;stroke-width:2;"/><polygon fill="#585858" points="72.47,205.9047,74.6796,196.3069,71.5161,200.9965,66.8265,197.8331,72.47,205.9047" style="stroke:#585858;stroke-width:2;"/><text fill="#181818" font-family="sans-serif" font-size="13" lengthAdjust="spacing" textLength="49.2896" x="77.79" y="164.583">execute</text></g><!--link HY to TR--><g class="link" data-entity-1="ent0005" data-entity-2="ent0003" data-link-type="dependency" data-source-line="15" id="lnk9"><path d="M355.74,121.3447 C349.02,136.1747 340.36,153.4447 330.79,168.0147 C324.14,178.1547 319.9176,183.8716 311.9876,193.1116" fill="none" id="HY-to-TR" style="stroke:#585858;stroke-width:1;stroke-dasharray:1,3;"/><polygon fill="#585858" points="308.08,197.6647,316.9768,193.4401,311.3363,193.8704,310.906,188.23,308.08,197.6647" style="stroke:#585858;stroke-width:1;"/><text fill="#181818" font-family="sans-serif" font-size="13" lengthAdjust="spacing" textLength="129.2764" x="341.88" y="164.583">damp rapid toggling</text></g><?plantuml-src ZPFVYjD05CRlynJ7NkWMR591KEEoa5MaXTrjwHPK46GwEKbcdSo4cKbtU-TJ-0Y-WlVw9Zw9tsmBBYM2kKXcpipvdU_yoIDbfEvBfYQ4pkTPviHjMglGz9lUivFM13OXbRRDEcUtR2TIPAg4JOLTrWfb3lQqwrkTmAgPphaHMsKThHspfyVqxleoUK9BqR7BwOtLcajXPACyu_3NjzgnUNhifGojxCO69Jq9Kr8npwamD3V1sRANGLdu2FT1RVDdBwQlqkbq-l8vebpmbdLE9XDqulkD3qu47iVmKQT1NCu9cczO1fyPLJUX4bhJpnya1InuGMuQV98WwyuQv4gZjyfBfrfb02idlK5qyW6RJ-O4N_r5cJeY6bKULfLcZilVNx-FHoGyNQ_fz5HqtTdPG_2oTqpGQBoAAL5b8X4Ldd1LGUAaGZK067e0NQy6eUmcz-feSoZgC62OUJuROivsFh1Zhpm42lH_SgC2BEFHVq5d7oFKxum4Da4jYjLgyVxpPJ6_kh-2H7BYhT0zP2VO7Pt30qtbkx0l-m01ia6uOzdZ6E7snulbUhwuAYxs0KhHTkH4fqeAjgur6fGaniP2sH1iIxR2nOIeeECUn24cJ90ZGUM_fk7rWrPwO0IQsyKEnmaEZ3iRpIdzhINvlkkmyfXu_1s895hUiqWs8XOuJHZEKUGV?></g></svg>