<svg xmlns="http://www.w3.org/2000/svg" xmlns:xlink="http://www.w3.org/1999/xlink" contentStyleType="text/css" data-diagram-type="DESCRIPTION" height="512px" preserveAspectRatio="none" style="width:515px;height:512px;background:#FAFAFA;" version="1.1" viewBox="0 0 515 512" width="515px" zoomAndPan="magnify"><?plantuml 1.2026.3?><defs><filter height="300%" id="fhrnh3ky1mnci" width="300%" x="-1" y="-1"><feGaussianBlur result="blurOut" stdDeviation="2"/><feColorMatrix in="blurOut" result="blurOut2" type="matrix" values="0 0 0 0 0 0 0 0 0 0 0 0 0 0 0 0 0 0 .4 0"/><feOffset dx="4" dy="4" in="blurOut2" result="blurOut3"/><feBlend in="SourceGraphic" in2="blurOut3" mode="normal"/></filter></defs><g><rect fill="#FAFAFA" height="512" style="stroke:none;stroke-width:1;" width="515" x="0" y="0"/><g class="title" data-source-line="2"><rect fill="none" height="33.5547" style="stroke:#585858;stroke-width:1;" width="202.2363" x="153.1352" y="5"/><text fill="#005F7F" font-family="sans-serif" font-size="20" font-weight="700" lengthAdjust="spacing" textLength="192.2363" x="158.1352" y="29.3359">Steering Behaviors</text></g><!--entity A--><g class="entity" data-qualified-name="A" data-source-line="7" id="ent0002"><rect fill="#005F7F" filter="url(#fhrnh3ky1mnci)" height="52.9766" rx="6" ry="6" style="stroke:#00BAC6;stroke-width:0.5;" width="136.6348" x="180.07" y="51.5547"/><text fill="#FAFAFA" font-family="sans-serif" font-size="14" font-style="italic" lengthAdjust="spacing" textLength="40.0244" x="228.3752" y="75.0898">&#171;app&#187;</text><text fill="#FAFAFA" font-family="sans-serif" font-size="14" lengthAdjust="spacing" textLength="116.6348" x="190.07" y="91.5781">Agent (character)</text></g><!--entity SF--><g class="entity" data-qualified-name="SF" data-source-line="8" id="ent0003"><rect fill="#005F7F" filter="url(#fhrnh3ky1mnci)" height="52.9766" rx="6" ry="6" style="stroke:#00BAC6;stroke-width:0.5;" width="150.7783" x="7" y="189.7747"/><text fill="#FAFAFA" font-family="sans-serif" font-size="14" font-style="italic" lengthAdjust="spacing" textLength="40.0244" x="62.377" y="213.3098">&#171;app&#187;</text><text fill="#FAFAFA" font-family="sans-serif" font-size="14" lengthAdjust="spacing" textLength="130.7783" x="17" y="229.7981">Seek / flee / arrival</text></g><!--entity SEP--><g class="entity" data-qualified-name="SEP" data-source-line="9" id="ent0004"><rect fill="#005F7F" filter="url(#fhrnh3ky1mnci)" height="69.4648" rx="6" ry="6" style="stroke:#00BAC6;stroke-width:0.5;" width="133.2236" x="192.78" y="181.5347"/><text fill="#FAFAFA" font-family="sans-serif" font-size="14" font-style="italic" lengthAdjust="spacing" textLength="40.0244" x="239.3796" y="205.0698">&#171;app&#187;</text><text fill="#FAFAFA" font-family="sans-serif" font-size="14" lengthAdjust="spacing" textLength="71.9141" x="223.4348" y="221.5581">Separation</text><text fill="#FAFAFA" font-family="sans-serif" font-size="14" lengthAdjust="spacing" textLength="113.2236" x="202.78" y="238.0464">(avoid clumping)</text></g><!--entity V--><g class="entity" data-qualified-name="V" data-source-line="10" id="ent0005"><rect fill="#005F7F" filter="url(#fhrnh3ky1mnci)" height="52.9766" rx="6" ry="6" style="stroke:#00BAC6;stroke-width:0.5;" width="188.7656" x="165.01" y="327.9947"/><text fill="#FAFAFA" font-family="sans-serif" font-size="14" font-style="italic" lengthAdjust="spacing" textLength="40.0244" x="239.3806" y="351.5298">&#171;app&#187;</text><text fill="#FAFAFA" font-family="sans-serif" font-size="14" lengthAdjust="spacing" textLength="168.7656" x="175.01" y="368.0181">Steering force &#8594; velocity</text></g><g class="entity" data-qualified-name="GMN11" data-source-line="19" id="ent0012"><path d="M32.53,441.9747 L32.53,497.9063 A0,0 0 0 0 32.53,497.9063 L486.2434,497.9063 A0,0 0 0 0 486.2434,497.9063 L486.2434,451.9747 L476.2434,441.9747 L263.39,441.9747 L259.39,381.2247 L255.39,441.9747 L32.53,441.9747 A0,0 0 0 0 32.53,441.9747" fill="#E5E4E4" filter="url(#fhrnh3ky1mnci)" style="stroke:#B4B3B3;stroke-width:0.5;"/><path d="M476.2434,441.9747 L476.2434,451.9747 L486.2434,451.9747 L476.2434,441.9747" fill="#E5E4E4" style="stroke:#B4B3B3;stroke-width:0.5;"/><text fill="#181818" font-family="sans-serif" font-size="13" lengthAdjust="spacing" textLength="262.1328" x="38.53" y="459.543">Reactive, frame-by-frame control: simple</text><text fill="#181818" font-family="sans-serif" font-size="13" font-weight="700" lengthAdjust="spacing" textLength="125.3027" x="304.7761" y="459.543">steering behaviors</text><text fill="#181818" font-family="sans-serif" font-size="13" lengthAdjust="spacing" textLength="37.0513" x="434.1921" y="459.543">(seek,</text><text fill="#181818" font-family="sans-serif" font-size="13" lengthAdjust="spacing" textLength="425.2993" x="42.237" y="474.8536">flee, arrival, separation) sum into a steering force &#8212; no planner, no</text><text fill="#181818" font-family="sans-serif" font-size="13" lengthAdjust="spacing" textLength="29.1738" x="240.2998" y="490.1641">LLM.</text></g><!--link A to SF--><g class="link" data-entity-1="ent0002" data-entity-2="ent0003" data-link-type="dependency" data-source-line="12" id="lnk6"><path d="M179.81,102.4647 C162.05,110.7147 143.87,121.3147 129.39,134.5347 C112.74,149.7347 102.799,166.7608 94.909,184.1508" fill="none" id="A-to-SF" style="stroke:#585858;stroke-width:2;"/><polygon fill="#585858" points="92.43,189.6147,99.7912,183.0715,94.4959,185.0614,92.5059,179.7661,92.43,189.6147" style="stroke:#585858;stroke-width:2;"/><text fill="#181818" font-family="sans-serif" font-size="13" lengthAdjust="spacing" textLength="106.501" x="130.39" y="148.103">desired direction</text></g><!--link A to SEP--><g class="link" data-entity-1="ent0002" data-entity-2="ent0004" data-link-type="dependency" data-source-line="13" id="lnk7"><path d="M246.7,105.0047 C246.16,114.3147 245.65,124.8847 245.39,134.5347 C245.19,142.0847 244.57,144.0247 245.39,151.5347 C246.44,161.2147 247.0821,165.7245 249.1721,175.2345" fill="none" id="A-to-SEP" style="stroke:#585858;stroke-width:2;"/><polygon fill="#585858" points="250.46,181.0947,252.435,171.4459,249.3868,176.2112,244.6214,173.163,250.46,181.0947" style="stroke:#585858;stroke-width:2;"/><text fill="#181818" font-family="sans-serif" font-size="13" lengthAdjust="spacing" textLength="123.8237" x="246.39" y="148.103">neighbor avoidance</text></g><!--link SF to V--><g class="link" data-entity-1="ent0003" data-entity-2="ent0005" data-link-type="dependency" data-source-line="14" id="lnk8"><path d="M116.1,243.2047 C147.59,267.4447 189.5943,299.7764 221.0543,323.9764" fill="none" id="SF-to-V" style="stroke:#585858;stroke-width:2;"/><polygon fill="#585858" points="225.81,327.6347,221.1152,318.9768,221.8469,324.5861,216.2375,325.3178,225.81,327.6347" style="stroke:#585858;stroke-width:2;"/><text fill="#181818" font-family="sans-serif" font-size="13" lengthAdjust="spacing" textLength="54.0313" x="187.74" y="294.563">combine</text></g><!--link SEP to V--><g class="link" data-entity-1="ent0004" data-entity-2="ent0005" data-link-type="dependency" data-source-line="15" id="lnk9"><path d="M259.39,251.2847 C259.39,274.9247 259.39,299.9547 259.39,321.5947" fill="none" id="SEP-to-V" style="stroke:#585858;stroke-width:2;"/><polygon fill="#585858" points="259.39,327.5947,263.39,318.5947,259.39,322.5947,255.39,318.5947,259.39,327.5947" style="stroke:#585858;stroke-width:2;"/><text fill="#181818" font-family="sans-serif" font-size="13" lengthAdjust="spacing" textLength="54.0313" x="260.39" y="294.563">combine</text></g><!--link V to A--><g class="link" data-entity-1="ent0005" data-entity-2="ent0002" data-link-type="dependency" data-source-line="16" id="lnk10"><path d="M295.06,327.5247 C305.15,318.9547 315.51,308.8147 323.39,297.9947 C368.19,236.4747 415.97,198.2747 374.39,134.5347 C361.33,114.5147 344.8727,103.7589 322.8027,95.5389" fill="none" id="V-to-A" style="stroke:#585858;stroke-width:2;"/><polygon fill="#585858" points="317.18,93.4447,324.2179,100.3344,321.8656,95.1898,327.0101,92.8375,317.18,93.4447" style="stroke:#585858;stroke-width:2;"/><text fill="#181818" font-family="sans-serif" font-size="13" lengthAdjust="spacing" textLength="108.1768" x="391.33" y="221.333">move (per frame)</text></g><?plantuml-src TLB1ZjCm4BtdAuPUjgtIM8XJezLAOM4HKXTMhLGkICXnfeqXyLYsawetJdm0sd_XpgVibp0Ef2gmcqDiZUVvFRytpxHHJLSXr25OdmlXv27Rwr1tPUVHAJ81JSWKjS8wwf4MIWfTSKs7esYbDd_gcUtQ9k5gWx09Y4wRFRp4MlQQd4yku4vQT3ciyMYegNpwI1VSa8EY2sIefSx3TIsTL04TTxzvTGtFbyibF7ozFuaz70wPm-f5DGXK1oTiPF4YTefzfPPB7rcoEh2u2rXXZqqEHaYO-gxqmSc0ioWkli58ep07VizdLC4Be_TrsCccWPy_G4ckbADICKyIfhHas0cO5FkuJDMeTpQ1qoSz5BnSNafhhwxEKHl4Bo1Wro3o8ftJlMmc9zJcvWcKPPQWoNmqKzcJhe0JR2qxoRGHz_hkKTnezuwSGdZuzXtO35ASusJWsvwfJABaOhr-_-7JRV7stQ0bXmgzPhkXuh-A2lvhOsgs5zcuagCSr4LJauW_wujKER2uKXi-PDIJXzk_6OhXiEMqOCf9myx9bXDC30M4aaAW5cW7smHuqZWBtMFwksbH7XV31k9GE-8vyBgrFAxpkH-zEGKyd_E4S3ufNnG3IiTyKl2d06RWknQq2GGI_3_-yfWQ0jj8Oz2blEURLglRB45JGPJx2m00?></g></svg>