<svg xmlns="http://www.w3.org/2000/svg" xmlns:xlink="http://www.w3.org/1999/xlink" contentStyleType="text/css" data-diagram-type="DESCRIPTION" height="447px" preserveAspectRatio="none" style="width:734px;height:447px;background:#FAFAFA;" version="1.1" viewBox="0 0 734 447" width="734px" zoomAndPan="magnify"><?plantuml 1.2026.3?><defs><filter height="300%" id="fga2zwmr7k2lr" width="300%" x="-1" y="-1"><feGaussianBlur result="blurOut" stdDeviation="2"/><feColorMatrix in="blurOut" result="blurOut2" type="matrix" values="0 0 0 0 0 0 0 0 0 0 0 0 0 0 0 0 0 0 .4 0"/><feOffset dx="4" dy="4" in="blurOut2" result="blurOut3"/><feBlend in="SourceGraphic" in2="blurOut3" mode="normal"/></filter></defs><g><rect fill="#FAFAFA" height="447" style="stroke:none;stroke-width:1;" width="734" x="0" y="0"/><g class="title" data-source-line="2"><rect fill="none" height="33.5547" style="stroke:#585858;stroke-width:1;" width="325.3223" x="201.0679" y="5"/><text fill="#005F7F" font-family="sans-serif" font-size="20" font-weight="700" lengthAdjust="spacing" textLength="315.3223" x="206.0679" y="29.3359">Control / Execution Plane Split</text></g><!--entity SRV--><g class="entity" data-qualified-name="SRV" data-source-line="8" id="ent0002"><rect fill="#005F7F" filter="url(#fga2zwmr7k2lr)" height="69.4648" rx="6" ry="6" style="stroke:#00BAC6;stroke-width:0.5;" width="287.0117" x="159.59" y="198.0147"/><text fill="#FAFAFA" font-family="sans-serif" font-size="14" font-style="italic" lengthAdjust="spacing" textLength="40.0244" x="283.0837" y="221.5498">&#171;app&#187;</text><text fill="#FAFAFA" font-family="sans-serif" font-size="14" lengthAdjust="spacing" textLength="127.3262" x="239.4328" y="238.0381">Coordinator server</text><text fill="#FAFAFA" font-family="sans-serif" font-size="14" lengthAdjust="spacing" textLength="267.0117" x="169.59" y="254.5264">(control plane &#183; no agent state, no LLM)</text></g><!--entity DB--><g class="entity" data-qualified-name="DB" data-source-line="9" id="ent0003"><path d="M6,354.4847 C6,344.4847 116.0952,344.4847 116.0952,344.4847 C116.0952,344.4847 226.1904,344.4847 226.1904,354.4847 L226.1904,412.9495 C226.1904,422.9495 116.0952,422.9495 116.0952,422.9495 C116.0952,422.9495 6,422.9495 6,412.9495 L6,354.4847" fill="#E5E4E4" filter="url(#fga2zwmr7k2lr)" style="stroke:#585858;stroke-width:0.5;"/><path d="M6,354.4847 C6,364.4847 116.0952,364.4847 116.0952,364.4847 C116.0952,364.4847 226.1904,364.4847 226.1904,354.4847" fill="none" style="stroke:#585858;stroke-width:0.5;"/><text fill="#181818" font-family="sans-serif" font-size="14" font-style="italic" lengthAdjust="spacing" textLength="32.293" x="99.9487" y="382.0198">&#171;db&#187;</text><text fill="#181818" font-family="sans-serif" font-size="14" lengthAdjust="spacing" textLength="42.041" x="95.0747" y="398.5081">Stores</text><text fill="#181818" font-family="sans-serif" font-size="14" lengthAdjust="spacing" textLength="200.1904" x="16" y="414.9964">(sessions &#183; policies &#183; artifacts)</text></g><!--entity RUN--><g class="entity" data-qualified-name="RUN" data-source-line="10" id="ent0004"><rect fill="#005F7F" filter="url(#fga2zwmr7k2lr)" height="69.4648" rx="6" ry="6" style="stroke:#00BAC6;stroke-width:0.5;" width="337.1602" x="250.52" y="51.5547"/><text fill="#FAFAFA" font-family="sans-serif" font-size="14" font-style="italic" lengthAdjust="spacing" textLength="40.0244" x="399.0879" y="75.0898">&#171;app&#187;</text><text fill="#FAFAFA" font-family="sans-serif" font-size="14" lengthAdjust="spacing" textLength="48.4463" x="394.8769" y="91.5781">Runner</text><text fill="#FAFAFA" font-family="sans-serif" font-size="14" lengthAdjust="spacing" textLength="317.1602" x="260.52" y="108.0664">(execution plane &#183; spawns harness, runs turns)</text></g><!--entity LLM--><g class="entity" data-qualified-name="LLM" data-source-line="11" id="ent0005"><path d="M491.5599,210.7743 C493.9004,205.3186 497.482,205.4017 501.2086,209.3525 C504.601,204.5372 509.7808,203.9776 512.4171,210.1256 C515.7298,204.404 521.4145,203.0032 525.7814,208.9144 C528.7494,204.8585 533.4615,205.3138 535.8119,209.6524 C539.1737,204.0841 543.9856,203.8336 547.9956,208.9104 C550.8064,203.5162 554.9596,203.3628 558.176,208.519 C562.5545,202.5587 567.4382,203.1886 570.5562,209.7638 C573.7714,205.5411 578.5745,206.1394 580.5034,211.1496 C587.9213,210.6043 590.0053,216.5668 586.6693,222.085 C593.1851,223.4872 595.0379,228.3694 591.2889,233.8144 C595.4269,239.3355 594.178,244.8151 586.9806,246.4804 C591.344,251.8983 589.0857,257.1364 582.2809,257.9966 C578.5316,264.2332 573.6541,263.7275 569.3781,258.5944 C567.9956,264.08 564.0594,266.4028 559.1911,262.2964 C556.8851,269.0195 551.362,269.1987 547.3909,263.9356 C545.6338,270.5017 540.9491,272.6701 535.7723,267.2506 C531.0738,272.5971 525.4034,271.1579 524.0751,264.0781 C519.7047,268.7296 514.6867,267.1984 513.5267,260.9665 C509.0299,266.0015 505.3985,265.3547 502.8138,259.1448 C498.6573,263.8406 493.2629,263.4775 490.478,257.5518 C485.0476,254.2514 483.4838,249.0861 489.57,244.9556 C483.5749,243.5356 481.1251,239.1236 485.4882,233.8847 C479.4732,229.4658 481.9921,223.6197 487.841,221.4446 C483.7639,215.8877 485.8281,212.9124 491.5599,210.7743" fill="#585858" filter="url(#fga2zwmr7k2lr)"/><text fill="#FAFAFA" font-family="sans-serif" font-size="14" font-style="italic" lengthAdjust="spacing" textLength="51.9873" x="509.1006" y="229.7898">&#171;cloud&#187;</text><text fill="#FAFAFA" font-family="sans-serif" font-size="14" lengthAdjust="spacing" textLength="76.8086" x="496.69" y="246.2781">LLM / tools</text></g><g class="entity" data-qualified-name="GMN9" data-source-line="18" id="ent0010"><path d="M260.73,355.7447 L260.73,411.6763 A0,0 0 0 0 260.73,411.6763 L719.458,411.6763 A0,0 0 0 0 719.458,411.6763 L719.458,365.7447 L709.458,355.7447 L459.81,355.7447 L346,267.9247 L451.81,355.7447 L260.73,355.7447 A0,0 0 0 0 260.73,355.7447" fill="#E5E4E4" filter="url(#fga2zwmr7k2lr)" style="stroke:#B4B3B3;stroke-width:0.5;"/><path d="M709.458,355.7447 L709.458,365.7447 L719.458,365.7447 L709.458,355.7447" fill="#E5E4E4" style="stroke:#B4B3B3;stroke-width:0.5;"/><text fill="#181818" font-family="sans-serif" font-size="13" lengthAdjust="spacing" textLength="104.8569" x="266.73" y="373.313">The server holds</text><text fill="#181818" font-family="sans-serif" font-size="13" font-weight="700" lengthAdjust="spacing" textLength="247.9648" x="375.7002" y="373.313">no agent state and runs no LLM code</text><text fill="#181818" font-family="sans-serif" font-size="13" lengthAdjust="spacing" textLength="80.793" x="623.6651" y="373.313">; runners are</text><text fill="#181818" font-family="sans-serif" font-size="13" lengthAdjust="spacing" textLength="407.9575" x="281.6153" y="388.6236">stateless against it (truth lives in stores). They meet only over an</text><text fill="#181818" font-family="sans-serif" font-size="13" font-weight="700" lengthAdjust="spacing" textLength="101.6641" x="288.7754" y="403.9341">outbound-only</text><text fill="#181818" font-family="sans-serif" font-size="13" lengthAdjust="spacing" textLength="287.8599" x="394.5528" y="403.9341">WS tunnel &#8212; no inbound ports on the runner.</text></g><!--link SRV to DB--><g class="link" data-entity-1="ent0002" data-entity-2="ent0003" data-link-type="dependency" data-source-line="13" id="lnk6"><path d="M260.19,267.9247 C231.62,290.6847 198.7126,316.8958 169.0926,340.4958" fill="none" id="SRV-to-DB" style="stroke:#585858;stroke-width:2;"/><polygon fill="#585858" points="164.4,344.2347,173.9315,341.7548,168.3105,341.1189,168.9463,335.4979,164.4,344.2347" style="stroke:#585858;stroke-width:2;"/><text fill="#181818" font-family="sans-serif" font-size="13" lengthAdjust="spacing" textLength="86.3662" x="221.79" y="311.053">persist (truth)</text></g><!--link RUN to SRV--><g class="link" data-entity-1="ent0004" data-entity-2="ent0002" data-link-type="dependency" data-source-line="14" id="lnk7"><path d="M359.09,121.5047 C347.94,129.9947 337.25,139.9047 329.1,151.0147 C319.08,164.6647 314.275,176.5263 310.415,191.8563" fill="none" id="RUN-to-SRV" style="stroke:#818D00;stroke-width:2;"/><polygon fill="#818D00" points="308.95,197.6747,315.0265,189.9238,310.1709,192.826,307.2686,187.9704,308.95,197.6747" style="stroke:#818D00;stroke-width:2;"/><text fill="#181818" font-family="sans-serif" font-size="13" lengthAdjust="spacing" textLength="161.9414" x="330.1" y="164.583">outbound-only WS tunnel</text></g><!--link RUN to LLM--><g class="link" data-entity-1="ent0004" data-entity-2="ent0005" data-link-type="dependency" data-source-line="15" id="lnk8"><path d="M466.9,121.4147 C477.34,130.2847 487.75,140.3647 496.1,151.0147 C507.81,165.9647 514.9034,179.46 521.5334,195.3" fill="none" id="RUN-to-LLM" style="stroke:#585858;stroke-width:2;"/><polygon fill="#585858" points="523.85,200.8347,524.0649,190.9882,521.9195,196.2224,516.6852,194.077,523.85,200.8347" style="stroke:#585858;stroke-width:2;"/><text fill="#181818" font-family="sans-serif" font-size="13" lengthAdjust="spacing" textLength="51.8857" x="508.1" y="164.583">run turn</text></g><?plantuml-src VPF1RXCn48Rl-nH3BZIhxMv3Kq0XgbII5bKaJTWGAY4avEnE6oElPsLxa_R6YIVekt3dKVeaZ9sGjbA5B-krnz_C_u_zGkf2DIN2qhdQzhBCY7LwBTsoMJGMJK7QeNPfGLLM6reXxHSYaoMlINURLKBgxNfQDvMAU5KX3FYK8GKPdDvWqJX96gPAQ8HPhQIBNi9Kr6XwC2u-8gqre0EXqWGcDUepHUi4PkSV1fFn60Q375uT7Bo5lU7a73e7QQVJFSewXqT7RmwxQVXsNxSVY6SeAklG993ZpHMPCe6lUDqOaS3d9K9EeWH7C1jU9CpjTFda25UeUk2dKoz52rrW3rZM3ooSpQZIyfe5mv_Vm9Qiq6Hm_-iEJACrpwE8pQb9-uZMW3YbrCAHsSP-qtl5reuwMC0KJI02qJhXCF7_ez6utG9XOPP_WNvVrFNnSLGA9nR28a1hnaIq3BDeBVjfFQSc9Gk9OIwCarU2wsNCCuF9m_V0v7B1u4SLvq45Wt7NgbsTjXPhphGKHdFMn2ksu1gZ7v8mDvzVx2ek53Lbs6Yn8hu0ZaZPPolw_s2k1_JxWSZao1jpakUJo-_Za_CB27AuIsYij0xsd6dSiXtvOZPHd-QdyzDWPm-eSGjgTBbFMjt2vOn5i6hrA7emcio78MNFommgeqYJGrYGSrG1NNbO1E4URNeBIrAbXJX-sb0GkjnujMai55HY7B_RtXZBlKBcX5Z5nl9PVaSiGlxJ0KgkkArISv3lUplrMM-XGdufGGFvz48p9ewVg8lZ1trm__FEro1rsEVxOfpby-1OmgQOD4BUy3h_0W00?></g></svg>