<svg xmlns="http://www.w3.org/2000/svg" xmlns:xlink="http://www.w3.org/1999/xlink" contentStyleType="text/css" data-diagram-type="DESCRIPTION" height="531px" preserveAspectRatio="none" style="width:755px;height:531px;background:#FAFAFA;" version="1.1" viewBox="0 0 755 531" width="755px" zoomAndPan="magnify"><?plantuml 1.2026.3?><defs><filter height="300%" id="f2z4st0gxreqn" width="300%" x="-1" y="-1"><feGaussianBlur result="blurOut" stdDeviation="2"/><feColorMatrix in="blurOut" result="blurOut2" type="matrix" values="0 0 0 0 0 0 0 0 0 0 0 0 0 0 0 0 0 0 .4 0"/><feOffset dx="4" dy="4" in="blurOut2" result="blurOut3"/><feBlend in="SourceGraphic" in2="blurOut3" mode="normal"/></filter></defs><g><rect fill="#FAFAFA" height="531" style="stroke:none;stroke-width:1;" width="755" x="0" y="0"/><g class="title" data-source-line="2"><rect fill="none" height="33.5547" style="stroke:#585858;stroke-width:1;" width="331.8066" x="208.3878" y="5"/><text fill="#005F7F" font-family="sans-serif" font-size="20" font-weight="700" lengthAdjust="spacing" textLength="321.8066" x="213.3878" y="29.3359">Cross-Vendor Debate / Review</text></g><!--entity Q--><g class="entity" data-qualified-name="Q" data-source-line="9" id="ent0002"><rect fill="#005F7F" filter="url(#f2z4st0gxreqn)" height="52.9766" rx="6" ry="6" style="stroke:#00BAC6;stroke-width:0.5;" width="81.0723" x="565.26" y="51.5547"/><text fill="#FAFAFA" font-family="sans-serif" font-size="14" font-style="italic" lengthAdjust="spacing" textLength="40.0244" x="585.7839" y="75.0898">&#171;app&#187;</text><text fill="#FAFAFA" font-family="sans-serif" font-size="14" lengthAdjust="spacing" textLength="61.0723" x="575.26" y="91.5781">Question</text></g><!--entity A--><g class="entity" data-qualified-name="A" data-source-line="10" id="ent0003"><path d="M473.7829,191.6555 C476.1114,185.2492 481.1315,185.3168 485.1395,189.9237 C488.0375,184.2744 492.4601,184.5955 495.9807,189.27 C499.3764,183.6236 503.8155,182.8276 507.4523,189.0368 C510.9554,183.6022 515.0292,183.5354 518.5501,189.0187 C521.9661,182.9238 525.4482,183.8762 529.605,188.2353 C533.7471,182.8098 538.0481,183.1881 541.8691,188.5987 C546.0611,183.6618 549.9202,182.9413 553.3408,189.3768 C557.122,184.5926 562.2233,183.5362 565.5149,189.9108 C568.6275,184.6485 573.4812,184.5106 576.9779,189.4805 C580.2301,183.5272 585.6557,184.1905 588.7,189.6933 C592.522,186.2486 595.9457,186.1394 598.3382,191.2953 C602.2477,185.1652 606.6079,185.0551 610.2681,191.5313 C616.2336,193.7359 617.3743,197.8567 612.4279,202.2582 C618.2879,206.1458 618.9501,210.3225 612.8367,214.6065 C618.2776,217.6228 618.3405,222.8794 613.105,226.144 C617.5696,231.8267 616.1447,235.648 609.827,238.4611 C606.4678,243.0016 600.5243,242.889 597.9886,237.4813 C595.315,242.6139 590.9504,243.4694 587.5223,238.2436 C584.7623,243.0703 580.656,244.1688 576.9515,239.2702 C573.4692,245.6427 569.961,245.5742 565.5373,240.1836 C562.2409,245.733 556.4297,246.7635 553.1229,240.1942 C550.1093,245.9226 546.76,245.7518 542.4999,241.5242 C539.7877,247.6096 534.626,247.4809 531.4618,241.9538 C527.5818,246.8528 522.7143,246.5442 519.4413,241.2388 C515.1958,245.5494 510.4866,246.4798 507.6208,239.7604 C503.6169,245.106 500.2644,244.64 496.8636,239.1611 C493.2162,243.7478 487.8515,244.076 485.7141,237.6345 C482.2116,244.2398 477.1259,242.6194 473.503,237.7628 C467.8409,235.8029 466.1717,231.154 470.6137,226.5828 C464.6103,224.0014 463.6415,217.4607 468.5289,213.1846 C464.2816,208.8363 465.4526,203.4117 471.2582,201.3895 C466.6131,197.537 467.84,192.7617 473.7829,191.6555" fill="#585858" filter="url(#f2z4st0gxreqn)"/><text fill="#FAFAFA" font-family="sans-serif" font-size="14" font-style="italic" lengthAdjust="spacing" textLength="51.9873" x="514.8013" y="210.0698">&#171;cloud&#187;</text><text fill="#FAFAFA" font-family="sans-serif" font-size="14" lengthAdjust="spacing" textLength="123.1699" x="479.21" y="226.5581">Vendor A (Claude)</text></g><!--entity B--><g class="entity" data-qualified-name="B" data-source-line="11" id="ent0004"><path d="M613.2349,461.5707 C615.8899,454.6997 622.0716,455.1771 625.9836,460.2264 C628.5747,453.8948 634.5747,454.7287 637.9757,459.3387 C641.2621,453.1764 645.5497,453.1476 649.4566,458.7322 C652.9982,454.807 657.675,454.7306 659.7312,460.3339 C661.7037,453.7471 666.7989,452.5157 671.1678,458.078 C675.2887,452.9381 679.4704,452.7676 682.9022,458.8017 C687.3987,451.9745 691.5661,452.5278 695.6362,459.2038 C699.1207,454.569 702.665,453.6264 706.0771,459.2773 C709.8381,453.9228 715.58,454.1546 719.0808,459.5908 C722.3125,453.7862 727.8009,453.6783 730.5959,460.0052 C737.3569,462.7963 738.5575,467.1248 732.9613,472.2944 C740.5823,474.9598 739.9683,480.2383 735.1537,485.0423 C739.7163,488.7727 738.5798,493.5786 732.9379,495.0495 C737.9154,501.0746 736.5547,504.9741 728.9708,506.7344 C726.4996,511.4768 722.2894,511.9802 718.922,507.7366 C716.1324,513.5935 710.6552,514.1873 706.9986,508.6432 C703.9895,514.1381 699.4932,515.6429 695.1621,510.0551 C691.1176,515.7268 687.323,515.781 683.3821,509.949 C680.1349,514.6183 675.9189,513.9814 672.9737,509.6017 C670.2424,515.1525 664.4005,514.9798 661.1911,510.144 C657.8627,515.6441 651.8677,516.2022 649.0503,509.63 C645.1099,515.0688 639.492,515.4579 636.6199,508.554 C633.6252,513.1082 628.6499,511.9488 626.5051,507.5895 C622.3162,514.4114 618.1039,513.8304 613.9125,507.592 C608.4816,505.0524 607.057,501.0021 611.8947,496.5809 C605.5847,493.1479 606.0964,488.8059 611.1496,484.6625 C606.3169,478.9991 605.6473,474.4957 613.7263,471.3271 C608.6277,468.4795 608.8371,464.8966 613.2349,461.5707" fill="#585858" filter="url(#f2z4st0gxreqn)"/><text fill="#FAFAFA" font-family="sans-serif" font-size="14" font-style="italic" lengthAdjust="spacing" textLength="51.9873" x="644.7998" y="480.0198">&#171;cloud&#187;</text><text fill="#FAFAFA" font-family="sans-serif" font-size="14" lengthAdjust="spacing" textLength="101.5068" x="620.04" y="496.5081">Vendor B (GPT)</text></g><!--entity DBT--><g class="entity" data-qualified-name="DBT" data-source-line="12" id="ent0005"><rect fill="#005F7F" filter="url(#f2z4st0gxreqn)" height="52.9766" rx="6" ry="6" style="stroke:#00BAC6;stroke-width:0.5;" width="135.5957" x="391" y="321.5147"/><text fill="#FAFAFA" font-family="sans-serif" font-size="14" font-style="italic" lengthAdjust="spacing" textLength="40.0244" x="438.7856" y="345.0498">&#171;app&#187;</text><text fill="#FAFAFA" font-family="sans-serif" font-size="14" lengthAdjust="spacing" textLength="115.5957" x="401" y="361.5381">Debate / critique</text></g><!--entity SYN--><g class="entity" data-qualified-name="SYN" data-source-line="13" id="ent0006"><rect fill="#005F7F" filter="url(#f2z4st0gxreqn)" height="52.9766" rx="6" ry="6" style="stroke:#00BAC6;stroke-width:0.5;" width="83.5879" x="7" y="456.4847"/><text fill="#FAFAFA" font-family="sans-serif" font-size="14" font-style="italic" lengthAdjust="spacing" textLength="40.0244" x="28.7817" y="480.0198">&#171;app&#187;</text><text fill="#FAFAFA" font-family="sans-serif" font-size="14" lengthAdjust="spacing" textLength="63.5879" x="17" y="496.5081">Synthesis</text></g><g class="entity" data-qualified-name="GMN14" data-source-line="24" id="ent0015"><path d="M125.49,455.0147 L125.49,510.9463 A0,0 0 0 0 125.49,510.9463 L570.1008,510.9463 A0,0 0 0 0 570.1008,510.9463 L570.1008,465.0147 L560.1008,455.0147 L374.55,455.0147 L437.13,374.9547 L366.55,455.0147 L125.49,455.0147 A0,0 0 0 0 125.49,455.0147" fill="#E5E4E4" filter="url(#f2z4st0gxreqn)" style="stroke:#B4B3B3;stroke-width:0.5;"/><path d="M560.1008,455.0147 L560.1008,465.0147 L570.1008,465.0147 L560.1008,455.0147" fill="#E5E4E4" style="stroke:#B4B3B3;stroke-width:0.5;"/><text fill="#181818" font-family="sans-serif" font-size="13" lengthAdjust="spacing" textLength="125.4932" x="131.49" y="472.583">Fan one question to</text><text fill="#181818" font-family="sans-serif" font-size="13" font-weight="700" lengthAdjust="spacing" textLength="187.7827" x="261.0964" y="472.583">independent vendor models</text><text fill="#181818" font-family="sans-serif" font-size="13" lengthAdjust="spacing" textLength="106.2217" x="448.8792" y="472.583">, then have them</text><text fill="#181818" font-family="sans-serif" font-size="13" lengthAdjust="spacing" textLength="404.3394" x="141.1257" y="487.8936">debate / critique each other &#8212; surfacing errors a single model's</text><text fill="#181818" font-family="sans-serif" font-size="13" lengthAdjust="spacing" textLength="280.2617" x="203.1646" y="503.2041">self-critique would miss (confirmation bias).</text></g><!--link Q to A--><g class="link" data-entity-1="ent0002" data-entity-2="ent0003" data-link-type="dependency" data-source-line="15" id="lnk7"><path d="M593.11,105.0047 C582.39,126.9247 569.6638,152.9536 558.3638,176.0836" fill="none" id="Q-to-A" style="stroke:#585858;stroke-width:2;"/><polygon fill="#585858" points="555.73,181.4747,563.2747,175.144,557.9248,176.9822,556.0866,171.6323,555.73,181.4747" style="stroke:#585858;stroke-width:2;"/><text fill="#181818" font-family="sans-serif" font-size="13" lengthAdjust="spacing" textLength="21.4043" x="578.19" y="148.103">ask</text></g><!--link Q to B--><g class="link" data-entity-1="ent0002" data-entity-2="ent0004" data-link-type="dependency" data-source-line="16" id="lnk8"><path d="M614.32,104.8847 C620.81,125.4547 629.5,155.0647 634.79,181.5347 C654.28,278.8947 664.1642,390.2713 668.2442,445.0313" fill="none" id="Q-to-B" style="stroke:#585858;stroke-width:2;"/><polygon fill="#585858" points="668.69,451.0147,672.0102,441.7424,668.3185,446.0285,664.0323,442.3368,668.69,451.0147" style="stroke:#585858;stroke-width:2;"/><text fill="#181818" font-family="sans-serif" font-size="13" lengthAdjust="spacing" textLength="21.4043" x="653.18" y="288.083">ask</text></g><!--link A to DBT--><g class="link" data-entity-1="ent0003" data-entity-2="ent0005" data-link-type="dependency" data-source-line="17" id="lnk9"><path d="M535.01,244.9747 C531.32,259.8147 525.54,277.3747 516.79,291.5147 C510.05,302.4147 505.047,308.5515 495.787,317.1915" fill="none" id="A-to-DBT" style="stroke:#585858;stroke-width:2;"/><polygon fill="#585858" points="491.4,321.2847,500.7093,318.0695,495.0558,317.8737,495.2516,312.2202,491.4,321.2847" style="stroke:#585858;stroke-width:2;"/><text fill="#181818" font-family="sans-serif" font-size="13" lengthAdjust="spacing" textLength="44.4526" x="525.86" y="288.083">answer</text></g><!--link DBT to A--><g class="link" data-entity-1="ent0005" data-entity-2="ent0003" data-link-type="dependency" data-source-line="19" id="lnk11"><path d="M432.39,321.3047 C421.16,307.2047 412.56,289.5647 421.79,274.5147 C431.61,258.5147 441.8307,249.3885 458.4607,240.5585" fill="none" id="DBT-to-A" style="stroke:#585858;stroke-width:1;stroke-dasharray:1,3;"/><polygon fill="#585858" points="463.76,237.7447,453.9352,238.4325,459.3439,240.0895,457.6869,245.4982,463.76,237.7447" style="stroke:#585858;stroke-width:1;"/><text fill="#181818" font-family="sans-serif" font-size="13" lengthAdjust="spacing" textLength="85.1284" x="422.79" y="288.083">rebut / refine</text></g><!--link B to DBT--><g class="link" data-entity-1="ent0004" data-entity-2="ent0005" data-link-type="dependency" data-source-line="18" id="lnk10"><path d="M604.87,457.0347 C599.12,455.0847 593.37,453.2047 587.79,451.4847 C535.25,435.3247 504.24,462.6447 467.79,421.4847 C456.7,408.9547 454.4079,396.0698 455.0279,380.7198" fill="none" id="B-to-DBT" style="stroke:#585858;stroke-width:2;"/><polygon fill="#585858" points="455.27,374.7247,450.91,383.5559,455.0682,379.7206,458.9035,383.8788,455.27,374.7247" style="stroke:#585858;stroke-width:2;"/><text fill="#181818" font-family="sans-serif" font-size="13" lengthAdjust="spacing" textLength="44.4526" x="468.79" y="418.053">answer</text></g><!--link DBT to B--><g class="link" data-entity-1="ent0005" data-entity-2="ent0004" data-link-type="dependency" data-source-line="20" id="lnk12"><path d="M491.43,374.6947 C510.35,389.1247 534.9,407.0747 557.79,421.4847 C574.08,431.7447 586.9786,439.1461 603.9086,448.1961" fill="none" id="DBT-to-B" style="stroke:#585858;stroke-width:1;stroke-dasharray:1,3;"/><polygon fill="#585858" points="609.2,451.0247,603.1486,443.2542,604.7905,448.6676,599.3771,450.3095,609.2,451.0247" style="stroke:#585858;stroke-width:1;"/><text fill="#181818" font-family="sans-serif" font-size="13" lengthAdjust="spacing" textLength="85.1284" x="558.79" y="418.053">rebut / refine</text></g><!--link DBT to SYN--><g class="link" data-entity-1="ent0005" data-entity-2="ent0006" data-link-type="dependency" data-source-line="21" id="lnk13"><path d="M390.53,364.7747 C318.83,382.3047 203.43,413.2347 107.79,451.4847 C102.23,453.7147 101.8964,453.6927 96.2864,456.3927" fill="none" id="DBT-to-SYN" style="stroke:#585858;stroke-width:2;"/><polygon fill="#585858" points="90.88,458.9947,100.7243,458.6959,95.3854,456.8263,97.255,451.4874,90.88,458.9947" style="stroke:#585858;stroke-width:2;"/><text fill="#181818" font-family="sans-serif" font-size="13" lengthAdjust="spacing" textLength="57.3511" x="241.64" y="418.053">converge</text></g><?plantuml-src XPFBJjj058RtVehJB0f4n2PSL6eX92UX22cG0EbjLHtR9_6KyOoPYrDsVOY-I_Tzb3v9PqpgG9MstjWp_p_VkOrVC95ncnCKnbGwZYA5ot31J65JgqbbKXWI9ina6LLArYHx6KOiTtlCF4GbCh7Q3ojRyi3jSeAXabhttf78fO8HfMW88hYXcj4os88fLgHY65aW0yZ3NRWeFOI91Rp1p5Za3WultGdKKlZjcY5SMcuOBbpe5NCNK7rWTRn_i7SKzWyFze_My353T-mt_qnaqYfSUDI8rQGQognWukuPlPVy5V-wtpzUuuS5chCQ-HFFSRZtQd-lxpnZged7SEZjlZS2HKOnk18_KsPq94l1cZW_lWDzmRBYfAESqlGX2WBNwKeAhtQkBMd3fEX0-w26Q_SwES6gEZqDCYvjtWYTLRSJs1voT0FTwNXpqfWRsqRx0BRFfxETpeezU6vVfz8ECLFCi7jB3NqqcArJMPjl7uGfI3FTUPhtxSUhrXpu8fARcydxJyFnvEt8MtogiJFURH87hPYqucLoSTN0VHfE57f9AXZyH_UBHtqodLrChfBnAhAYr1fNeQ8v4xJ9D_YthutdAut1_JhDHGi28LthKccCB47EVJe1k8ikmFKBxbT31YEXssKYfygDnlUnVXnHANFYkjlT1TTK0GNMvBzAnyZ_d0eGPWL89olu-VKRQAlccFahJaf9fG51kvNxHHlgbdOGJNpUQm5BQNaE9TCQjbq5SwPARD9B6UgTC70vWQ_d5m00?></g></svg>