<svg xmlns="http://www.w3.org/2000/svg" xmlns:xlink="http://www.w3.org/1999/xlink" contentStyleType="text/css" data-diagram-type="DESCRIPTION" height="724px" preserveAspectRatio="none" style="width:921px;height:724px;background:#FAFAFA;" version="1.1" viewBox="0 0 921 724" width="921px" zoomAndPan="magnify"><?plantuml 1.2026.3?><defs><filter height="300%" id="fmf100sh312co" width="300%" x="-1" y="-1"><feGaussianBlur result="blurOut" stdDeviation="2"/><feColorMatrix in="blurOut" result="blurOut2" type="matrix" values="0 0 0 0 0 0 0 0 0 0 0 0 0 0 0 0 0 0 .4 0"/><feOffset dx="4" dy="4" in="blurOut2" result="blurOut3"/><feBlend in="SourceGraphic" in2="blurOut3" mode="normal"/></filter></defs><g><rect fill="#FAFAFA" height="724" style="stroke:none;stroke-width:1;" width="921" x="0" y="0"/><g class="title" data-source-line="2"><rect fill="none" height="33.5547" style="stroke:#585858;stroke-width:1;" width="253.916" x="330.4352" y="5"/><text fill="#005F7F" font-family="sans-serif" font-size="20" font-weight="700" lengthAdjust="spacing" textLength="243.916" x="335.4352" y="29.3359">Multi-Agent Delegation</text></g><!--entity OP--><g class="entity" data-qualified-name="OP" data-source-line="10" id="ent0002"><ellipse cx="66.9359" cy="58.5547" fill="#00BAC6" filter="url(#fmf100sh312co)" rx="8" ry="8" style="stroke:#585858;stroke-width:0.5;"/><path d="M66.9359,66.5547 L66.9359,93.5547 M53.9359,74.5547 L79.9359,74.5547 M66.9359,93.5547 L53.9359,108.5547 M66.9359,93.5547 L79.9359,108.5547" fill="none" filter="url(#fmf100sh312co)" style="stroke:#585858;stroke-width:0.5;"/><text fill="#181818" font-family="sans-serif" font-size="14" lengthAdjust="spacing" textLength="60.5117" x="36.68" y="125.0898">Operator</text></g><!--entity ORCH--><g class="entity" data-qualified-name="ORCH" data-source-line="11" id="ent0003"><rect fill="#005F7F" filter="url(#fmf100sh312co)" height="69.4648" rx="6" ry="6" style="stroke:#00BAC6;stroke-width:0.5;" width="256.4551" x="453.71" y="205.0447"/><text fill="#FAFAFA" font-family="sans-serif" font-size="14" font-style="italic" lengthAdjust="spacing" textLength="40.0244" x="561.9253" y="228.5798">&#171;app&#187;</text><text fill="#FAFAFA" font-family="sans-serif" font-size="14" lengthAdjust="spacing" textLength="85.6611" x="539.107" y="245.0681">Orchestrator</text><text fill="#FAFAFA" font-family="sans-serif" font-size="14" lengthAdjust="spacing" textLength="236.4551" x="463.71" y="261.5564">(plans &#183; delegates &#183; writes no code)</text></g><!--entity A--><g class="entity" data-qualified-name="A" data-source-line="12" id="ent0004"><rect fill="#005F7F" filter="url(#fmf100sh312co)" height="69.4648" rx="6" ry="6" style="stroke:#00BAC6;stroke-width:0.5;" width="111.4102" x="672.23" y="351.5047"/><text fill="#FAFAFA" font-family="sans-serif" font-size="14" font-style="italic" lengthAdjust="spacing" textLength="40.0244" x="707.9229" y="375.0398">&#171;app&#187;</text><text fill="#FAFAFA" font-family="sans-serif" font-size="14" lengthAdjust="spacing" textLength="85.415" x="685.2276" y="391.5281">Sub-agent A</text><text fill="#FAFAFA" font-family="sans-serif" font-size="14" lengthAdjust="spacing" textLength="91.4102" x="682.23" y="408.0164">(git worktree)</text></g><!--entity B--><g class="entity" data-qualified-name="B" data-source-line="13" id="ent0005"><rect fill="#005F7F" filter="url(#fmf100sh312co)" height="69.4648" rx="6" ry="6" style="stroke:#00BAC6;stroke-width:0.5;" width="111.4102" x="526.23" y="351.5047"/><text fill="#FAFAFA" font-family="sans-serif" font-size="14" font-style="italic" lengthAdjust="spacing" textLength="40.0244" x="561.9229" y="375.0398">&#171;app&#187;</text><text fill="#FAFAFA" font-family="sans-serif" font-size="14" lengthAdjust="spacing" textLength="83.8086" x="540.0308" y="391.5281">Sub-agent B</text><text fill="#FAFAFA" font-family="sans-serif" font-size="14" lengthAdjust="spacing" textLength="91.4102" x="536.23" y="408.0164">(git worktree)</text></g><!--entity REV--><g class="entity" data-qualified-name="REV" data-source-line="14" id="ent0006"><rect fill="#005F7F" filter="url(#fmf100sh312co)" height="52.9766" rx="6" ry="6" style="stroke:#00BAC6;stroke-width:0.5;" width="174.6289" x="601.62" y="654.4347"/><text fill="#FAFAFA" font-family="sans-serif" font-size="14" font-style="italic" lengthAdjust="spacing" textLength="40.0244" x="668.9222" y="677.9698">&#171;app&#187;</text><text fill="#FAFAFA" font-family="sans-serif" font-size="14" lengthAdjust="spacing" textLength="154.6289" x="611.62" y="694.4581">Cross-vendor reviewer</text></g><!--entity LLM--><g class="entity" data-qualified-name="LLM" data-source-line="15" id="ent0007"><path d="M625.8971,506.0572 C628.8885,501.3986 633.3953,499.9152 636.841,505.5753 C640.1919,497.8863 645.004,498.6934 650.0513,503.8278 C653.4741,498.6439 657.3501,497.2918 661.7116,502.8047 C664.3809,497.2716 669.1336,496.4603 672.8411,501.7357 C675.173,496.852 680.1556,495.2846 683.8428,500.2166 C686.1959,494.9044 689.7407,493.4083 694.1579,498.0853 C698.5946,493.5731 703.8449,494.698 706.0612,500.6186 C709.7257,495.6157 714.5165,495.2905 717.3629,501.4471 C721.3954,495.8757 727.0052,497.5102 729.0385,503.471 C732.3687,497.1756 738.4598,496.9012 741.6422,503.6142 C746.5378,498.1778 749.9914,499.4195 753.1632,505.3599 C757.3714,500.3149 762.0707,500.4468 764.5946,507.0175 C771.5964,511.3795 772.3017,516.695 765.8983,522.2076 C774.5433,525.7553 774.3744,533.2295 768.1889,538.822 C774.389,544.8893 773.5331,549.9698 765.9263,553.9756 C774.5132,559.8448 770.9663,567.8514 763.345,571.3066 C760.2511,575.2839 755.1222,575.0684 752.8637,570.3048 C749.7683,577.3778 744.856,577.5027 740.1547,571.917 C737.4462,577.5885 733.5117,576.6238 729.9802,572.7988 C727.0443,578.825 722.2917,578.6545 718.7268,573.4279 C715.013,579.5638 710.9849,578.9624 706.6633,574.0942 C703.7315,579.1339 699.307,580.5027 695.707,574.7742 C690.8979,579.6251 687.3143,578.2944 684.6684,572.5257 C680.7764,578.5529 674.833,579.6319 671.0795,572.3839 C667.7576,577.0831 663.6013,577.6146 660.186,572.4874 C656.8087,576.6295 653.3191,576.935 650.0409,572.3719 C646.2403,577.0407 641.3654,577.1128 638.4915,571.3463 C634.8516,578.3439 629.0715,578.197 625.6503,571.1463 C618.0794,566.4253 616.6027,559.2963 624.8439,553.8385 C616.9753,548.9462 617.721,543.2132 624.3463,537.8693 C617.747,532.5422 618.4727,525.6725 626.8204,522.7992 C619.5359,518.3519 618.043,511.3395 625.8971,506.0572" fill="#585858" filter="url(#fmf100sh312co)"/><text fill="#FAFAFA" font-family="sans-serif" font-size="14" font-style="italic" lengthAdjust="spacing" textLength="51.9873" x="667.9445" y="526.5098">&#171;cloud&#187;</text><text fill="#FAFAFA" font-family="sans-serif" font-size="14" lengthAdjust="spacing" textLength="102.6758" x="642.6002" y="542.9981">Vendor models</text><text fill="#FAFAFA" font-family="sans-serif" font-size="14" lengthAdjust="spacing" textLength="123.1563" x="632.36" y="559.4864">(Claude &#183; GPT &#183; &#8230;)</text></g><!--entity PR--><g class="entity" data-qualified-name="PR" data-source-line="16" id="ent0008"><path d="M454.29,516.2147 L551.5781,516.2147 C556.5781,516.2147 556.5781,537.703 556.5781,537.703 C556.5781,537.703 556.5781,559.1913 551.5781,559.1913 L454.29,559.1913 C449.29,559.1913 449.29,537.703 449.29,537.703 C449.29,537.703 449.29,516.2147 454.29,516.2147" fill="#CBDB2A" filter="url(#fmf100sh312co)" style="stroke:#818D00;stroke-width:0.5;"/><path d="M551.5781,516.2147 C546.5781,516.2147 546.5781,537.703 546.5781,537.703 C546.5781,559.1913 551.5781,559.1913 551.5781,559.1913" fill="none" style="stroke:#818D00;stroke-width:0.5;"/><text fill="#181818" font-family="sans-serif" font-size="14" font-style="italic" lengthAdjust="spacing" textLength="52.7119" x="471.5781" y="534.7498">&#171;async&#187;</text><text fill="#181818" font-family="sans-serif" font-size="14" lengthAdjust="spacing" textLength="87.2881" x="454.29" y="551.2381">Pull requests</text></g><g class="entity" data-qualified-name="GMN19" data-source-line="30" id="ent0020"><path d="M90.69,358.2747 L90.69,414.2063 A0,0 0 0 0 90.69,414.2063 L491.1846,414.2063 A0,0 0 0 0 491.1846,414.2063 L491.1846,368.2747 L481.1846,358.2747 L349.94,358.2747 L513.34,274.8247 L341.94,358.2747 L90.69,358.2747 A0,0 0 0 0 90.69,358.2747" fill="#E5E4E4" filter="url(#fmf100sh312co)" style="stroke:#B4B3B3;stroke-width:0.5;"/><path d="M481.1846,358.2747 L481.1846,368.2747 L491.1846,368.2747 L481.1846,358.2747" fill="#E5E4E4" style="stroke:#B4B3B3;stroke-width:0.5;"/><text fill="#181818" font-family="sans-serif" font-size="13" lengthAdjust="spacing" textLength="353.3359" x="109.7693" y="375.843">The orchestrator writes no code &#8212; it decomposes work,</text><text fill="#181818" font-family="sans-serif" font-size="13" lengthAdjust="spacing" textLength="379.4946" x="96.69" y="391.1536">dispatches to parallel worktrees, and gates on cross-vendor</text><text fill="#181818" font-family="sans-serif" font-size="13" lengthAdjust="spacing" textLength="171.2407" x="200.817" y="406.4641">review; the human merges.</text></g><!--link OP to ORCH--><g class="link" data-entity-1="ent0002" data-entity-2="ent0003" data-link-type="dependency" data-source-line="18" id="lnk9"><path d="M97.61,98.9047 C167.98,119.2347 338.3955,168.4502 457.7055,202.9002" fill="none" id="OP-to-ORCH" style="stroke:#585858;stroke-width:2;"/><polygon fill="#585858" points="463.47,204.5647,455.9329,198.225,458.6662,203.1776,453.7136,205.911,463.47,204.5647" style="stroke:#585858;stroke-width:2;"/><text fill="#181818" font-family="sans-serif" font-size="13" lengthAdjust="spacing" textLength="27.0283" x="356.27" y="171.613">goal</text></g><!--link ORCH to A--><g class="link" data-entity-1="ent0003" data-entity-2="ent0004" data-link-type="dependency" data-source-line="19" id="lnk10"><path d="M639.98,274.7447 C652.6,283.5547 665.33,293.6447 675.93,304.5047 C689.33,318.2247 698.1408,330.7313 707.1408,346.0513" fill="none" id="ORCH-to-A" style="stroke:#818D00;stroke-width:2;"/><polygon fill="#818D00" points="710.18,351.2247,709.0701,341.4386,707.6474,346.9136,702.1724,345.4908,710.18,351.2247" style="stroke:#818D00;stroke-width:2;"/><text fill="#181818" font-family="sans-serif" font-size="13" lengthAdjust="spacing" textLength="84.1953" x="690.6" y="318.073">delegate task</text></g><!--link ORCH to B--><g class="link" data-entity-1="ent0003" data-entity-2="ent0005" data-link-type="dependency" data-source-line="20" id="lnk11"><path d="M581.93,274.6447 C581.93,297.6647 581.93,322.0047 581.93,345.0847" fill="none" id="ORCH-to-B" style="stroke:#818D00;stroke-width:2;"/><polygon fill="#818D00" points="581.93,351.0847,585.93,342.0847,581.93,346.0847,577.93,342.0847,581.93,351.0847" style="stroke:#818D00;stroke-width:2;"/><text fill="#181818" font-family="sans-serif" font-size="13" lengthAdjust="spacing" textLength="84.1953" x="582.93" y="318.073">delegate task</text></g><!--link A to LLM--><g class="link" data-entity-1="ent0004" data-entity-2="ent0007" data-link-type="dependency" data-source-line="21" id="lnk12"><path d="M722.91,421.1947 C720.54,435.6747 717.46,452.7247 713.93,467.9747 C711.69,477.6547 710.5625,482.2396 707.7825,491.8796" fill="none" id="A-to-LLM" style="stroke:#585858;stroke-width:2;"/><polygon fill="#585858" points="706.12,497.6447,712.4572,490.1055,707.5054,492.8405,704.7704,487.8887,706.12,497.6447" style="stroke:#585858;stroke-width:2;"/><text fill="#181818" font-family="sans-serif" font-size="13" lengthAdjust="spacing" textLength="31.2305" x="718.23" y="464.543">drive</text></g><!--link B to LLM--><g class="link" data-entity-1="ent0005" data-entity-2="ent0007" data-link-type="dependency" data-source-line="22" id="lnk13"><path d="M576.31,421.4147 C575.48,436.5947 576.95,454.1147 584.93,467.9747 C592.7,481.4447 599.4162,489.1513 612.1662,498.3613" fill="none" id="B-to-LLM" style="stroke:#585858;stroke-width:2;"/><polygon fill="#585858" points="617.03,501.8747,612.0766,493.3621,612.9769,498.9469,607.3921,499.8472,617.03,501.8747" style="stroke:#585858;stroke-width:2;"/><text fill="#181818" font-family="sans-serif" font-size="13" lengthAdjust="spacing" textLength="31.2305" x="585.93" y="464.543">drive</text></g><!--link A to PR--><g class="link" data-entity-1="ent0004" data-entity-2="ent0008" data-link-type="dependency" data-source-line="23" id="lnk14"><path d="M685.77,421.3047 C666.69,436.2147 643.6,453.5547 621.93,467.9747 C596.02,485.2247 570.8526,499.8546 547.2526,512.8846" fill="none" id="A-to-PR" style="stroke:#585858;stroke-width:2;"/><polygon fill="#585858" points="542,515.7847,551.8123,514.9363,546.3772,513.368,547.9455,507.9329,542,515.7847" style="stroke:#585858;stroke-width:2;"/><text fill="#181818" font-family="sans-serif" font-size="13" lengthAdjust="spacing" textLength="50.9971" x="646.9" y="464.543">open PR</text></g><!--link B to PR--><g class="link" data-entity-1="ent0005" data-entity-2="ent0008" data-link-type="dependency" data-source-line="24" id="lnk15"><path d="M525.74,415.3247 C512.61,424.7547 500.32,436.6047 492.93,450.9747 C482.52,471.2347 486.067,491.9746 492.237,510.1046" fill="none" id="B-to-PR" style="stroke:#585858;stroke-width:2;"/><polygon fill="#585858" points="494.17,515.7847,495.0572,505.9759,492.5591,511.0513,487.4837,508.5533,494.17,515.7847" style="stroke:#585858;stroke-width:2;"/><text fill="#181818" font-family="sans-serif" font-size="13" lengthAdjust="spacing" textLength="50.9971" x="493.93" y="464.543">open PR</text></g><!--link PR to REV--><g class="link" data-entity-1="ent0008" data-entity-2="ent0006" data-link-type="dependency" data-source-line="25" id="lnk16"><path d="M530.38,559.5447 C563.42,584.6347 614.1519,623.1457 649.9519,650.3357" fill="none" id="PR-to-REV" style="stroke:#585858;stroke-width:2;"/><polygon fill="#585858" points="654.73,653.9647,649.9821,645.3358,650.7482,650.9405,645.1435,651.7066,654.73,653.9647" style="stroke:#585858;stroke-width:2;"/><text fill="#181818" font-family="sans-serif" font-size="13" lengthAdjust="spacing" textLength="40.3076" x="613.59" y="621.003">review</text></g><!--link REV to ORCH--><g class="link" data-entity-1="ent0006" data-entity-2="ent0003" data-link-type="dependency" data-source-line="26" id="lnk17"><path d="M724.15,654.0847 C746.58,635.4847 773.94,608.3047 787.93,577.4347 C789.73,573.4747 810.53,406.2447 800.93,351.5047 C797.1,329.6247 799.96,319.8847 783.93,304.5047 C763.63,285.0347 743.0918,273.4907 716.3218,264.1007" fill="none" id="REV-to-ORCH" style="stroke:#585858;stroke-width:1;stroke-dasharray:1,3;"/><polygon fill="#585858" points="710.66,262.1147,717.8287,268.8682,715.3782,263.7697,720.4767,261.3191,710.66,262.1147" style="stroke:#585858;stroke-width:1;"/><text fill="#181818" font-family="sans-serif" font-size="13" lengthAdjust="spacing" textLength="103.6064" x="802.18" y="464.543">request changes</text></g><!--link PR to OP--><g class="link" data-entity-1="ent0008" data-entity-2="ent0002" data-link-type="dependency" data-source-line="27" id="lnk18"><path d="M448.82,530.1947 C343.96,516.3447 119.27,480.3047 72.93,420.9747 C6,335.2647 33.0722,201.1853 52.6122,134.0953" fill="none" id="PR-to-OP" style="stroke:#585858;stroke-width:2;"/><polygon fill="#585858" points="54.29,128.3347,47.9329,135.8571,52.8918,133.1352,55.6137,138.0942,54.29,128.3347" style="stroke:#585858;stroke-width:2;"/><text fill="#181818" font-family="sans-serif" font-size="13" lengthAdjust="spacing" textLength="94.3071" x="34.58" y="318.073">human merges</text></g><?plantuml-src bLJDSjCm4BxxAPPSW9acBlsPwPXEPvmqbCuajGbDkJ33AFRM4PKb8Sb9U-CXU0PUWJkFmfEmajiGEYajljWhVVljfszNViPb8PeIOUwSjaaS6xRiLTpDcrbZqHHAEfIkLwWwraOjK7KB5lEIrhYxYMl6vUrwJpUrY6XL88mRuNWthGW5noYmOeuh6Js7d6aq2QIDKoSe4nXADXDSLd26rwvBIp0QZI7LMl0Yv5XOSFONtq391HfxnpYTZ1A0bNfchlcYfqmLivcDTtQt3thR1w_sz__K7gDZ9_bv-m6vKPLXTUqrN2e3wRrQGh2PCbHiWV26WBXKvkffPRTtztS8ES85YWJsl09lb6Iom0J8jCzOE1khMl9GxESFm6jMQu4srbJu9euYLZWIvPzEHkePHHruyiCiP7b4hTDA-WgTp1Hpj2xmV9Glj61aCDKjsnvX29Q6-o-fe50blkm4cidWBHmUCgsFZjO9tpUpBWlgK-AZiG7lZpFeynvMbVhtF-dw_qFNVu1kO9IrNRAy91CDBZWkyJ7_Y6uol5YZ4wefsmvSj4GrkI8iwHi8vYyEMKRpv5-_ldxVf9Ce_LGJPI0ZqYyDDjYIveqGf8rMhBETfxOrdxGdjZUo8BueoobE9vFimwTnUdeMOA5d2LIAYIXyj_llfiFfqE-79YIhteDZzceZiBy96B9Ru62KJOzz64v9G4Et9Ue_1bXZM6aEvqf0QVeJv9DrZeSW8Rm72GrCRZiUXQX5PFdvQNQMZkwykVKTYZcJ5TgDPC7Q1EPDpIJKQ3mkaefyc2ddL0tgCj150ETp1BLsnUvT9PgFRq0pNMAOKKixVhotABFaLZFdCy4fqCmm8L2ifjzk0PCbj5TKIIZM1fkosuE-1aVrrtNs8aA0r_eR?></g></svg>