<svg xmlns="http://www.w3.org/2000/svg" xmlns:xlink="http://www.w3.org/1999/xlink" contentStyleType="text/css" data-diagram-type="DESCRIPTION" height="587px" preserveAspectRatio="none" style="width:684px;height:587px;background:#FAFAFA;" version="1.1" viewBox="0 0 684 587" width="684px" zoomAndPan="magnify"><?plantuml 1.2026.3?><defs><filter height="300%" id="fpcpbcy0a056b" width="300%" x="-1" y="-1"><feGaussianBlur result="blurOut" stdDeviation="2"/><feColorMatrix in="blurOut" result="blurOut2" type="matrix" values="0 0 0 0 0 0 0 0 0 0 0 0 0 0 0 0 0 0 .4 0"/><feOffset dx="4" dy="4" in="blurOut2" result="blurOut3"/><feBlend in="SourceGraphic" in2="blurOut3" mode="normal"/></filter></defs><g><rect fill="#FAFAFA" height="587" style="stroke:none;stroke-width:1;" width="684" x="0" y="0"/><g class="title" data-source-line="2"><rect fill="none" height="33.5547" style="stroke:#585858;stroke-width:1;" width="472.627" x="102.2806" y="5"/><text fill="#005F7F" font-family="sans-serif" font-size="20" font-weight="700" lengthAdjust="spacing" textLength="462.627" x="107.2806" y="29.3359">Native-CLI Forwarder + Transcript Mirroring</text></g><!--entity CLI--><g class="entity" data-qualified-name="CLI" data-source-line="8" id="ent0002"><path d="M175.8962,66.3834 C179.7047,58.7358 184.2524,58.2089 189.4179,65.1233 C193.3556,60.255 197.3754,60.3542 201.3025,65.1363 C204.1935,58.8715 209.1578,59.4762 212.6667,64.5152 C216.0093,57.5486 221.7412,57.2329 226.0053,63.5929 C229.1761,58.0423 233.913,55.736 238.5711,62.0128 C240.5904,54.9209 246.9877,54.3953 251.6981,58.9901 C254.3558,54.0462 258.4208,52.7869 262.1478,57.8766 C266.9267,50.5547 272.9251,52.394 276.4706,59.133 C280.6487,54.6079 286.956,54.6156 288.6597,61.7253 C292.6718,56.4894 297.8262,56.9358 300.7572,62.8937 C304.6367,58.2487 309.0321,58.4177 312.0301,63.8772 C316.1088,56.5512 321.9166,58.288 325.5729,64.3059 C329.847,60.1307 335.3906,60.6651 337.3441,66.9239 C341.8363,61.9791 345.7901,60.5839 349.7161,67.5138 C359.3796,70.2028 360.9604,77.1261 353.6999,83.9237 C362.3737,85.296 363.004,92.6696 358.211,98.275 C364.9474,105.1612 362.6395,113.6574 353.2398,116.0242 C358.9854,122.141 358.75,127.8499 350.1136,130.9554 C347.3487,137.4816 341.4094,138.2146 337.4483,132.1596 C333.7755,136.976 328.8406,137.7661 325.6678,131.6221 C321.7376,139.0437 317.0329,139.2793 312.1275,132.5555 C307.9179,138.466 304.155,137.519 299.9546,132.5451 C295.3443,139.1416 290.8686,138.7259 287.3399,131.5541 C284.1749,138.5063 279.5531,139.3933 274.6714,133.2097 C271.7489,139.9662 265.4561,139.2319 262.0935,133.6587 C257.3794,139.8246 252.7061,138.2275 249.8426,131.8511 C247.243,136.7738 242.2788,138.8846 238.5098,133.0873 C234.7884,138.1893 229.3271,138.6967 226.6884,132.0023 C222.9023,137.639 216.722,137.7919 212.9115,132.0318 C209.7702,137.4074 204.7213,137.6743 201.867,131.7512 C197.2418,138.2932 192.5434,138.8125 187.9829,131.6854 C183.6175,137.8674 178.9409,136.8661 175.7658,130.5242 C168.9189,126.8949 166.1748,120.5182 173.7497,115.0141 C165.4161,110.9819 164.564,106.4072 171.3546,99.9676 C163.1717,94.4889 165.1252,87.3523 172.7149,83.1494 C166.5063,76.9971 168.1973,69.8968 175.8962,66.3834" fill="#585858" filter="url(#fpcpbcy0a056b)"/><text fill="#FAFAFA" font-family="sans-serif" font-size="14" font-style="italic" lengthAdjust="spacing" textLength="51.9873" x="235.8235" y="86.589">&#171;cloud&#187;</text><text fill="#FAFAFA" font-family="sans-serif" font-size="14" lengthAdjust="spacing" textLength="160.3027" x="181.6657" y="103.0773">Vendor CLI (untouched)</text><text fill="#FAFAFA" font-family="sans-serif" font-size="14" lengthAdjust="spacing" textLength="115.6572" x="203.9885" y="119.5656">wrapped in tmux</text></g><!--entity FWD--><g class="entity" data-qualified-name="FWD" data-source-line="9" id="ent0003"><rect fill="#005F7F" filter="url(#fpcpbcy0a056b)" height="69.4648" rx="6" ry="6" style="stroke:#00BAC6;stroke-width:0.5;" width="155.2832" x="184.1757" y="214.5139"/><text fill="#FAFAFA" font-family="sans-serif" font-size="14" font-style="italic" lengthAdjust="spacing" textLength="40.0244" x="241.8051" y="238.049">&#171;app&#187;</text><text fill="#FAFAFA" font-family="sans-serif" font-size="14" lengthAdjust="spacing" textLength="68.4209" x="227.6069" y="254.5373">Forwarder</text><text fill="#FAFAFA" font-family="sans-serif" font-size="14" lengthAdjust="spacing" textLength="135.2832" x="194.1757" y="271.0256">(tail JSONL / events)</text></g><!--entity ACL--><g class="entity" data-qualified-name="ACL" data-source-line="10" id="ent0004"><rect fill="#005F7F" filter="url(#fpcpbcy0a056b)" height="69.4648" rx="6" ry="6" style="stroke:#00BAC6;stroke-width:0.5;" width="195.9092" x="163.8657" y="360.9839"/><text fill="#FAFAFA" font-family="sans-serif" font-size="14" font-style="italic" lengthAdjust="spacing" textLength="40.0244" x="241.8081" y="384.519">&#171;app&#187;</text><text fill="#FAFAFA" font-family="sans-serif" font-size="14" lengthAdjust="spacing" textLength="144.0811" x="189.7798" y="401.0073">Anti-corruption layer</text><text fill="#FAFAFA" font-family="sans-serif" font-size="14" lengthAdjust="spacing" textLength="175.9092" x="173.8657" y="417.4956">(map to framework items)</text></g><!--entity SRV--><g class="entity" data-qualified-name="SRV" data-source-line="11" id="ent0005"><path d="M19.0206,515.9833 C23.4932,511.0374 28.0777,510.1672 31.7157,516.8913 C33.9079,511.8901 38.8185,511.552 41.9407,515.8712 C45.4401,509.8111 50.2399,510.3663 54.0413,515.5461 C58.3021,510.5554 61.9789,510.8454 65.8446,516.0055 C69.8964,508.52 74.5608,508.7812 79.2064,515.4448 C81.9107,509.9401 86.7078,509.7963 89.7455,515.1203 C93.7534,509.7954 98.7793,510.0301 102.2043,515.7762 C105.3373,509.5731 111.1556,510.4473 114.5096,515.5353 C117.1729,509.993 121.6671,510.9192 124.8392,514.9885 C128.6127,510.0417 133.4008,509.3917 136.5076,515.6809 C139.9375,510.6048 145.8619,510.1455 148.4456,516.5599 C152.3275,511.2412 156.0567,511.8899 159.9744,516.5184 C166.5084,519.5734 167.0382,523.6912 162.9648,529.2397 C169.1527,531.4744 170.7923,534.845 166.0831,540.1844 C171.4631,545.2597 168.6679,550.7739 162.3439,552.21 C167.8804,556.6228 166.7099,561.3271 160.245,563.5109 C156.7053,569.5365 152.7532,569.5454 149.0379,563.6763 C146.0727,568.8792 140.5688,569.3297 137.8842,563.3954 C134.9777,569.3947 129.1047,571.292 124.8476,564.8056 C122.1514,570.5887 117.2237,572.0043 113.0161,566.3721 C109.3424,570.7504 105.3308,571.3432 101.9392,566.049 C97.8949,571.8102 94.0554,571.3637 90.1733,565.8793 C86.9911,570.6324 82.4498,571.4424 79.087,566.0772 C74.9735,571.7771 69.6267,571.0546 66.1587,565.3458 C61.3831,570.6123 57.4003,569.3965 53.9805,563.8227 C51.082,570.2329 47.2445,571.1502 42.5797,565.4911 C38.2737,570.4598 34.5433,570.5055 31.2679,564.435 C28.2219,570.8159 22.1756,570.5124 19.1559,564.4094 C11.9984,561.5874 10.5955,557.8627 15.6588,551.6826 C9.6026,551.2592 6.7005,546.3254 9.9288,540.9467 C6,535.0682 8.4607,529.0399 15.4774,527.7706 C10.7767,522.9544 12.9741,517.569 19.0206,515.9833" fill="#585858" filter="url(#fpcpbcy0a056b)"/><text fill="#FAFAFA" font-family="sans-serif" font-size="14" font-style="italic" lengthAdjust="spacing" textLength="51.9873" x="62.8252" y="535.979">&#171;cloud&#187;</text><text fill="#FAFAFA" font-family="sans-serif" font-size="14" lengthAdjust="spacing" textLength="127.3262" x="25.1557" y="552.4673">Coordinator server</text></g><g class="entity" data-qualified-name="GMN9" data-source-line="18" id="ent0010"><path d="M202.4557,510.9739 L202.4557,566.9055 L669.1882,566.9055 L669.1882,520.9739 L659.1882,510.9739 L202.4557,510.9739" fill="#E5E4E4" filter="url(#fpcpbcy0a056b)" style="stroke:#B4B3B3;stroke-width:0.5;"/><path d="M659.1882,510.9739 L659.1882,520.9739 L669.1882,520.9739 L659.1882,510.9739" fill="#E5E4E4" style="stroke:#B4B3B3;stroke-width:1;"/><text fill="#181818" font-family="sans-serif" font-size="13" lengthAdjust="spacing" textLength="109.4526" x="222.9379" y="528.5422">The vendor CLI is</text><text fill="#181818" font-family="sans-serif" font-size="13" font-weight="700" lengthAdjust="spacing" textLength="101.2769" x="336.5038" y="528.5422">never modified</text><text fill="#181818" font-family="sans-serif" font-size="13" lengthAdjust="spacing" textLength="201.9253" x="437.7807" y="528.5422">. A forwarder tails its output; an</text><text fill="#181818" font-family="sans-serif" font-size="13" lengthAdjust="spacing" textLength="445.7324" x="208.4557" y="543.8528">anti-corruption layer maps it to framework items &#8212; bridging a foreign</text><text fill="#181818" font-family="sans-serif" font-size="13" lengthAdjust="spacing" textLength="275.1138" x="293.7651" y="559.1633">agent into the platform without touching it.</text></g><!--link CLI to FWD--><g class="link" data-entity-1="ent0002" data-entity-2="ent0003" data-link-type="dependency" data-source-line="13" id="lnk6"><path d="M261.8157,137.6639 C261.8157,161.3639 261.8157,185.3739 261.8157,208.1439" fill="none" id="CLI-to-FWD" style="stroke:#585858;stroke-width:2;"/><polygon fill="#585858" points="261.8157,214.1439,265.8157,205.1439,261.8157,209.1439,257.8157,205.1439,261.8157,214.1439" style="stroke:#585858;stroke-width:2;"/><text fill="#181818" font-family="sans-serif" font-size="13" lengthAdjust="spacing" textLength="92.9487" x="262.8157" y="181.0822">emit transcript</text></g><!--link FWD to ACL--><g class="link" data-entity-1="ent0003" data-entity-2="ent0004" data-link-type="dependency" data-source-line="14" id="lnk7"><path d="M261.8157,284.1239 C261.8157,307.1339 261.8157,331.4739 261.8157,354.5539" fill="none" id="FWD-to-ACL" style="stroke:#585858;stroke-width:2;"/><polygon fill="#585858" points="261.8157,360.5539,265.8157,351.5539,261.8157,355.5539,257.8157,351.5539,261.8157,360.5539" style="stroke:#585858;stroke-width:2;"/><text fill="#181818" font-family="sans-serif" font-size="13" lengthAdjust="spacing" textLength="62.8989" x="262.8157" y="327.5522">normalize</text></g><!--link ACL to SRV--><g class="link" data-entity-1="ent0004" data-entity-2="ent0005" data-link-type="dependency" data-source-line="15" id="lnk8"><path d="M171.2557,430.8539 C156.3257,439.0639 141.8157,448.8839 129.8157,460.4439 C116.4457,473.3339 108.9075,486.0312 102.1575,501.5612" fill="none" id="ACL-to-SRV" style="stroke:#585858;stroke-width:2;"/><polygon fill="#585858" points="99.7657,507.0639,107.0218,500.4043,101.7588,502.4783,99.6848,497.2154,99.7657,507.0639" style="stroke:#585858;stroke-width:2;"/><text fill="#181818" font-family="sans-serif" font-size="13" lengthAdjust="spacing" textLength="278.2432" x="130.8157" y="474.0122">mirror as external_conversation_item POSTs</text></g><!--link ACL to GMN9--><g class="link" data-entity-1="ent0004" data-entity-2="ent0010" data-link-type="association" data-source-line="18" id="lnk11"><path d="M360.1857,422.7939 C380.1357,431.9439 399.3957,444.1739 413.8157,460.4439 C426.0657,474.2639 431.5257,494.4339 433.9557,510.7339" fill="none" id="ACL-GMN9" style="stroke:#585858;stroke-width:1;stroke-dasharray:7,7;"/></g><?plantuml-src RPDDRjim48NtEiLhDatSMWhQhjGWW64tG0eb3fo_JG23aMYRhKWAmv4TPvL3z2xTzoWzIOTAQYTjjEEG-jwyn-4RuygwhJGMp4t8iupKAfqRNhItRT1KUiVQSLfwcpNabzhtIvMPIcg6rvbLnZtLqwQrTIBLMkDKiLdg_h0unf6dbQ9A4zxXWfGB9Pc6SMA8F1atJzxYJ35hSZc-B6N_FKO-OliZ4eR3I0SpT_Zzy0C34IqzKTkmyGw5MWjszyF-_iSzmLnEYXpO-AYr8fTQKv8FVlReGDstf3D5vSAmBZakcaVna2c1zxVqVXtfWYtqKjSvFiL6er6dNAbpYEblWWYPjyxC9Gxy-edUr7NEfxE_hjDcdIHbxTiAyTkvqgxoX9ZCRklOj-L2LtitRaMgQNG5uy2slTl1qwT2T_RWe6CS7YPYe_4kwkriehrnkwnCZQ_duzC26QHZns5l0zcoZgv7mXAfbwJ1I-_el0lLgWRiCIDbzShJTqXiDe85DHWMMzJMuD1xgep482vbVfQQ_ctZlwRE9rVF32RHxs0o6LzFJmR7f-Xwpg6jOV1cW99OVNugjfF3URAgDlSwYUl7_M4nlXnr8ZbiDtPHLD_5QrVrL2PScWmg6fz6VpWRdr-4976UDMuzixVmioYG01SBZUNs3ar0h-SaRuBrbPaPNVLwAGRO303YpGG9Bi2ttBJy6Se9IBqMEIJmUFQLqBi7S4kccikZWOe2Mjv597NJPsIOmD9TKokMJOkLF6AHH3TayIV3QIAj8nhx0m00?></g></svg>