<svg xmlns="http://www.w3.org/2000/svg" xmlns:xlink="http://www.w3.org/1999/xlink" contentStyleType="text/css" data-diagram-type="DESCRIPTION" height="584px" preserveAspectRatio="none" style="width:673px;height:584px;background:#FAFAFA;" version="1.1" viewBox="0 0 673 584" width="673px" zoomAndPan="magnify"><?plantuml 1.2026.3?><defs><filter height="300%" id="f1bly8n6z8sk6m" width="300%" x="-1" y="-1"><feGaussianBlur result="blurOut" stdDeviation="2"/><feColorMatrix in="blurOut" result="blurOut2" type="matrix" values="0 0 0 0 0 0 0 0 0 0 0 0 0 0 0 0 0 0 .4 0"/><feOffset dx="4" dy="4" in="blurOut2" result="blurOut3"/><feBlend in="SourceGraphic" in2="blurOut3" mode="normal"/></filter></defs><g><rect fill="#FAFAFA" height="584" style="stroke:none;stroke-width:1;" width="673" x="0" y="0"/><g class="title" data-source-line="2"><rect fill="none" height="33.5547" style="stroke:#585858;stroke-width:1;" width="451.709" x="107.5524" y="5"/><text fill="#005F7F" font-family="sans-serif" font-size="20" font-weight="700" lengthAdjust="spacing" textLength="441.709" x="112.5524" y="29.3359">Sandbox + Egress + Secretless Credentials</text></g><!--entity SBX--><g class="entity" data-qualified-name="SBX" data-source-line="8" id="ent0002"><polygon fill="#00BAC6" filter="url(#f1bly8n6z8sk6m)" points="55.6169,60.5547,65.6169,50.5547,303.1423,50.5547,303.1423,120.0195,293.1423,130.0195,55.6169,130.0195,55.6169,60.5547" style="stroke:#006B70;stroke-width:0.5;"/><line style="stroke:#006B70;stroke-width:0.5;" x1="293.1423" x2="303.1423" y1="60.5547" y2="50.5547"/><line style="stroke:#006B70;stroke-width:0.5;" x1="55.6169" x2="293.1423" y1="60.5547" y2="60.5547"/><line style="stroke:#006B70;stroke-width:0.5;" x1="293.1423" x2="293.1423" y1="60.5547" y2="130.0195"/><text fill="#181818" font-family="sans-serif" font-size="14" font-style="italic" lengthAdjust="spacing" textLength="44.3311" x="152.2141" y="84.0898">&#171;host&#187;</text><text fill="#181818" font-family="sans-serif" font-size="14" lengthAdjust="spacing" textLength="81.2109" x="133.7741" y="100.5781">OS sandbox</text><text fill="#181818" font-family="sans-serif" font-size="14" lengthAdjust="spacing" textLength="207.5254" x="70.6169" y="117.0664">(bwrap / seatbelt / Job Object)</text></g><!--entity AG--><g class="entity" data-qualified-name="AG" data-source-line="9" id="ent0003"><rect fill="#005F7F" filter="url(#f1bly8n6z8sk6m)" height="69.4648" rx="6" ry="6" style="stroke:#00BAC6;stroke-width:0.5;" width="128.5684" x="115.0969" y="207.0147"/><text fill="#FAFAFA" font-family="sans-serif" font-size="14" font-style="italic" lengthAdjust="spacing" textLength="40.0244" x="159.3689" y="230.5498">&#171;app&#187;</text><text fill="#FAFAFA" font-family="sans-serif" font-size="14" lengthAdjust="spacing" textLength="40.1133" x="159.3245" y="247.0381">Agent</text><text fill="#FAFAFA" font-family="sans-serif" font-size="14" lengthAdjust="spacing" textLength="108.5684" x="125.0969" y="263.5264">(no real secrets)</text></g><!--entity EGR--><g class="entity" data-qualified-name="EGR" data-source-line="10" id="ent0004"><rect fill="#CB2000" filter="url(#f1bly8n6z8sk6m)" height="69.4648" rx="6" ry="6" style="stroke:#CB2000;stroke-width:0.5;" width="142.0967" x="192.3269" y="353.4847"/><text fill="#FAFAFA" font-family="sans-serif" font-size="14" font-style="italic" lengthAdjust="spacing" textLength="48.2549" x="239.2478" y="377.0198">&#171;error&#187;</text><text fill="#FAFAFA" font-family="sans-serif" font-size="14" lengthAdjust="spacing" textLength="108.5479" x="209.1013" y="393.5081">L7 egress proxy</text><text fill="#FAFAFA" font-family="sans-serif" font-size="14" lengthAdjust="spacing" textLength="122.0967" x="202.3269" y="409.9964">(MITM &#183; rule filter)</text></g><!--entity CRED--><g class="entity" data-qualified-name="CRED" data-source-line="11" id="ent0005"><rect fill="#005F7F" filter="url(#f1bly8n6z8sk6m)" height="69.4648" rx="6" ry="6" style="stroke:#00BAC6;stroke-width:0.5;" width="136.6006" x="279.0769" y="207.0147"/><text fill="#FAFAFA" font-family="sans-serif" font-size="14" font-style="italic" lengthAdjust="spacing" textLength="40.0244" x="327.365" y="230.5498">&#171;app&#187;</text><text fill="#FAFAFA" font-family="sans-serif" font-size="14" lengthAdjust="spacing" textLength="113.0459" x="290.8543" y="247.0381">Credential proxy</text><text fill="#FAFAFA" font-family="sans-serif" font-size="14" lengthAdjust="spacing" textLength="116.6006" x="289.0769" y="263.5264">(inject on access)</text></g><!--entity EXT--><g class="entity" data-qualified-name="EXT" data-source-line="12" id="ent0006"><path d="M14.7043,509.6254 C17.6994,503.4784 22.3947,502.8443 26.2304,508.8265 C29.0144,503.2629 33.3549,502.8478 36.9499,508.0164 C40.4769,501.947 44.6336,503.5807 48.1144,508.0652 C51.3504,502.9433 55.2172,502.9688 58.3459,508.1715 C61.3485,502.2069 67.4043,501.9047 71.2632,507.1881 C74.7943,502.2046 78.6154,502.4778 82.1973,507.1304 C85.5208,501.9875 89.3808,501.5933 92.8845,506.947 C95.8813,502.1008 100.5186,502.2427 103.4927,506.9721 C106.4291,501.5358 111.5238,500.8297 114.5509,506.8849 C118.1383,501.4475 122.8944,501.7139 126.3426,507.0374 C130.2589,502.5465 134.8663,503.0737 137.0986,508.8087 C140.2012,504.1712 143.5302,504.0453 146.8951,508.5269 C150.7152,502.8882 154.9523,501.6461 159.2391,508.0485 C163.4303,502.7586 167.478,502.4366 171.0744,508.6599 C176.9306,510.3108 178.7935,515.4161 173.8144,519.7452 C182.4399,521.1361 185.023,526.3944 179.3345,533.521 C183.0942,538.7013 181.7025,544.3086 174.5877,544.987 C178.581,550.8853 174.9968,554.4114 169.278,555.3183 C166.7695,560.7022 163.3351,560.5468 159.3653,556.9271 C157.4243,563.3354 151.6869,565.0744 147.4686,559.1182 C144.9538,563.8569 141.1629,564.8343 137.2501,560.7346 C133.9265,566.5718 130.0168,565.4988 126.4772,560.9589 C123.7984,568.6145 119.0175,568.4682 113.9196,563.3341 C111.0361,569.137 106.2097,568.0347 103.0793,563.5953 C100.4951,568.8202 96.7398,568.8306 93.2589,564.5187 C88.2813,568.84 84.6197,568.4835 81.347,562.5403 C77.7677,567.1935 73.5673,566.0362 71.1304,561.2976 C66.8708,566.5058 63.1744,566.3221 59.5605,560.6132 C55.6968,565.724 51.4703,565.9032 48.389,559.8316 C45.073,565.3282 40.5943,564.2774 37.8691,559.2414 C33.1657,565.0947 28.0356,563.6389 25.9654,556.7764 C22.7057,560.5428 17.7806,560.6512 15.8288,555.3192 C10.3085,553.2845 8.6852,549.1889 13.2261,544.6905 C6.2028,541.7665 6,535.5103 12.234,531.5828 C7.9058,527.726 7.6299,522.5642 13.9978,520.3936 C9.1659,516.9407 9.4374,512.4157 14.7043,509.6254" fill="#585858" filter="url(#f1bly8n6z8sk6m)"/><text fill="#FAFAFA" font-family="sans-serif" font-size="14" font-style="italic" lengthAdjust="spacing" textLength="51.9873" x="65.3839" y="528.4798">&#171;cloud&#187;</text><text fill="#FAFAFA" font-family="sans-serif" font-size="14" lengthAdjust="spacing" textLength="141.4014" x="20.6769" y="544.9681">External hosts / APIs</text></g><g class="entity" data-qualified-name="GMN11" data-source-line="20" id="ent0012"><path d="M211.9369,503.4747 L211.9369,559.4063 A0,0 0 0 0 211.9369,559.4063 L658.8139,559.4063 A0,0 0 0 0 658.8139,559.4063 L658.8139,513.4747 L648.8139,503.4747 L406.1769,503.4747 L305.0169,423.4047 L398.1769,503.4747 L211.9369,503.4747 A0,0 0 0 0 211.9369,503.4747" fill="#E5E4E4" filter="url(#f1bly8n6z8sk6m)" style="stroke:#B4B3B3;stroke-width:0.5;"/><path d="M648.8139,503.4747 L648.8139,513.4747 L658.8139,513.4747 L648.8139,503.4747" fill="#E5E4E4" style="stroke:#B4B3B3;stroke-width:0.5;"/><text fill="#181818" font-family="sans-serif" font-size="13" lengthAdjust="spacing" textLength="177.7407" x="232.4826" y="521.043">The agent runs OS-isolated;</text><text fill="#181818" font-family="sans-serif" font-size="13" font-weight="700" lengthAdjust="spacing" textLength="64.8032" x="414.3366" y="521.043">all egress</text><text fill="#181818" font-family="sans-serif" font-size="13" lengthAdjust="spacing" textLength="146.0151" x="483.2531" y="521.043">passes a filtering MITM</text><text fill="#181818" font-family="sans-serif" font-size="13" lengthAdjust="spacing" textLength="425.877" x="217.9369" y="536.3536">proxy. Real secrets never enter the sandbox &#8212; the credential proxy</text><text fill="#181818" font-family="sans-serif" font-size="13" lengthAdjust="spacing" textLength="306.0903" x="277.8302" y="551.6641">injects them at the egress boundary (secretless).</text></g><!--link SBX to AG--><g class="link" data-entity-1="ent0002" data-entity-2="ent0003" data-link-type="dependency" data-source-line="14" id="lnk7"><path d="M179.3769,130.1647 C179.3769,153.8647 179.3769,177.8747 179.3769,200.6447" fill="none" id="SBX-to-AG" style="stroke:#585858;stroke-width:2;"/><polygon fill="#585858" points="179.3769,206.6447,183.3769,197.6447,179.3769,201.6447,175.3769,197.6447,179.3769,206.6447" style="stroke:#585858;stroke-width:2;"/><text fill="#181818" font-family="sans-serif" font-size="13" lengthAdjust="spacing" textLength="140.5879" x="180.3769" y="173.583">isolate (OS + cgroups)</text></g><!--link AG to EGR--><g class="link" data-entity-1="ent0003" data-entity-2="ent0004" data-link-type="dependency" data-source-line="15" id="lnk8"><path d="M199.0669,276.6247 C212.4569,299.6347 227.081,324.7878 240.501,347.8678" fill="none" id="AG-to-EGR" style="stroke:#585858;stroke-width:2;"/><polygon fill="#585858" points="243.5169,353.0547,242.4509,343.2637,241.0036,348.7323,235.535,347.285,243.5169,353.0547" style="stroke:#585858;stroke-width:2;"/><text fill="#181818" font-family="sans-serif" font-size="13" lengthAdjust="spacing" textLength="59.9727" x="224.8969" y="320.053">all egress</text></g><!--link EGR to EXT--><g class="link" data-entity-1="ent0004" data-entity-2="ent0006" data-link-type="dependency" data-source-line="16" id="lnk9"><path d="M221.7369,423.4047 C193.5069,446.5847 161.125,473.1783 133.745,495.6483" fill="none" id="EGR-to-EXT" style="stroke:#585858;stroke-width:2;"/><polygon fill="#585858" points="129.1069,499.4547,138.6016,496.8372,132.972,496.2827,133.5265,490.6531,129.1069,499.4547" style="stroke:#585858;stroke-width:2;"/><text fill="#181818" font-family="sans-serif" font-size="13" lengthAdjust="spacing" textLength="117.1206" x="183.5369" y="466.513">allowed hosts only</text></g><!--link CRED to EGR--><g class="link" data-entity-1="ent0005" data-entity-2="ent0004" data-link-type="dependency" data-source-line="17" id="lnk10"><path d="M327.6869,276.6247 C314.2969,299.6347 299.6729,324.7878 286.2529,347.8678" fill="none" id="CRED-to-EGR" style="stroke:#585858;stroke-width:1;stroke-dasharray:1,3;"/><polygon fill="#585858" points="283.2369,353.0547,291.2188,347.285,285.7502,348.7323,284.3029,343.2637,283.2369,353.0547" style="stroke:#585858;stroke-width:1;"/><text fill="#181818" font-family="sans-serif" font-size="13" lengthAdjust="spacing" textLength="208.5522" x="308.8969" y="320.053">inject real secret at the boundary</text></g><?plantuml-src RLHBRjim4Dth5DCi6jk99JHe4TG90hY94RXmei1sqImA11GraTbIf41ITjnL3z6xTD-Zz2GTKl8dGRGGH7BcpNjlXdeZ59TrZh1mhhA3935i5HV2BUgijcYuLWwLYxakayhe9Ue-Pud8QK-uTL8oeThzkAfB6T6kH9WnbMVw2OvWL1YqbZvco0tI6Iqk3OPy9crq27EjvG0WgxDCuigm2lxz-hrbqp09vJqLAeV69dl1Py0Be-iAbYVF4dFDRVm3ZK8PQrCaB2-5wXSrKK-QZFxo95uuudm8Twn2Co3Qqlr40szXnXT64qi37OdCEgYCM0g91NQFuTt7qm-KDC4b4lFtFjyxe9ZYEA18_HsviuakbIX89_pz0xOn93a6eKX1Wi4MxzpJEgxMcss-TUPXSnH5IbDtmdEGpZP8trGd2_eJiCXSXjBHvsUTGPhvyjq3O1Pcd-u1piyNshgBYuXChBJoZ0w6dXXXA0q6cIGCtnrBMQyy13Iy1W_4gkevpkGK6YaG-1BYpNX-unMRckRWKKY7PeTAIAFhgKT2OxHvZhKRYosOK5uBQ0MCSwgonu-WBgUZgnqfgUkySMdqH4KLmNZTbcmPtetjgyesdExddbE08AWes3QSJjEl3pV3yMq8ymuCG5WjcKFeK2UEsicptIZOyoB12nq0ax9rA0hAcw3BIVhbAWHHvH2aLvYtVBMIwoXeQuBJk_aulHrEMiJMaxss0NFW5WYPhbNEJ1WPvvVEwHBqeq-C0EOKmi90cbfPI6VzLar-1htUZcYl1nMp5Ysmje525U3xIY3DMC9qRsX0qKKmGC3qzZpQ4GtNqQ_vYyOIJ2F2-kDoGxyTf8qAwDZjBwCRHwXoyBB-0m00?></g></svg>