<svg xmlns="http://www.w3.org/2000/svg" xmlns:xlink="http://www.w3.org/1999/xlink" contentStyleType="text/css" data-diagram-type="DESCRIPTION" height="521px" preserveAspectRatio="none" style="width:497px;height:521px;background:#FAFAFA;" version="1.1" viewBox="0 0 497 521" width="497px" zoomAndPan="magnify"><?plantuml 1.2026.3?><defs><filter height="300%" id="fh6wx91rlunbb" width="300%" x="-1" y="-1"><feGaussianBlur result="blurOut" stdDeviation="2"/><feColorMatrix in="blurOut" result="blurOut2" type="matrix" values="0 0 0 0 0 0 0 0 0 0 0 0 0 0 0 0 0 0 .4 0"/><feOffset dx="4" dy="4" in="blurOut2" result="blurOut3"/><feBlend in="SourceGraphic" in2="blurOut3" mode="normal"/></filter></defs><g><rect fill="#FAFAFA" height="521" style="stroke:none;stroke-width:1;" width="497" x="0" y="0"/><g class="title" data-source-line="2"><rect fill="none" height="33.5547" style="stroke:#585858;stroke-width:1;" width="461.9336" x="14.2839" y="5"/><text fill="#005F7F" font-family="sans-serif" font-size="20" font-weight="700" lengthAdjust="spacing" textLength="451.9336" x="19.2839" y="29.3359">Session Resumption &#8212; Snapshot + Live Tail</text></g><!--entity CL--><g class="entity" data-qualified-name="CL" data-source-line="8" id="ent0002"><rect fill="#005F7F" filter="url(#fh6wx91rlunbb)" height="52.9766" rx="6" ry="6" style="stroke:#00BAC6;stroke-width:0.5;" width="132.3008" x="194.14" y="51.5547"/><text fill="#FAFAFA" font-family="sans-serif" font-size="14" font-style="italic" lengthAdjust="spacing" textLength="40.0244" x="240.2782" y="75.0898">&#171;app&#187;</text><text fill="#FAFAFA" font-family="sans-serif" font-size="14" lengthAdjust="spacing" textLength="112.3008" x="204.14" y="91.5781">Client (stateless)</text></g><!--entity SNAP--><g class="entity" data-qualified-name="SNAP" data-source-line="9" id="ent0003"><rect fill="#005F7F" filter="url(#fh6wx91rlunbb)" height="69.4648" rx="6" ry="6" style="stroke:#00BAC6;stroke-width:0.5;" width="140.5859" x="7" y="181.5347"/><text fill="#FAFAFA" font-family="sans-serif" font-size="14" font-style="italic" lengthAdjust="spacing" textLength="40.0244" x="57.2808" y="205.0698">&#171;app&#187;</text><text fill="#FAFAFA" font-family="sans-serif" font-size="14" lengthAdjust="spacing" textLength="62.4326" x="46.0767" y="221.5581">Snapshot</text><text fill="#FAFAFA" font-family="sans-serif" font-size="14" lengthAdjust="spacing" textLength="120.5859" x="17" y="238.0464">(GET items so far)</text></g><!--entity SSE--><g class="entity" data-qualified-name="SSE" data-source-line="10" id="ent0004"><path d="M187.85,186.5347 L332.7299,186.5347 C337.7299,186.5347 337.7299,216.2671 337.7299,216.2671 C337.7299,216.2671 337.7299,245.9995 332.7299,245.9995 L187.85,245.9995 C182.85,245.9995 182.85,216.2671 182.85,216.2671 C182.85,216.2671 182.85,186.5347 187.85,186.5347" fill="#CBDB2A" filter="url(#fh6wx91rlunbb)" style="stroke:#818D00;stroke-width:0.5;"/><path d="M332.7299,186.5347 C327.7299,186.5347 327.7299,216.2671 327.7299,216.2671 C327.7299,245.9995 332.7299,245.9995 332.7299,245.9995" fill="none" style="stroke:#818D00;stroke-width:0.5;"/><text fill="#181818" font-family="sans-serif" font-size="14" font-style="italic" lengthAdjust="spacing" textLength="52.7119" x="228.934" y="205.0698">&#171;async&#187;</text><text fill="#181818" font-family="sans-serif" font-size="14" lengthAdjust="spacing" textLength="104.7881" x="202.8959" y="221.5581">Live SSE stream</text><text fill="#181818" font-family="sans-serif" font-size="14" lengthAdjust="spacing" textLength="134.8799" x="187.85" y="238.0464">(text/event-stream)</text></g><!--entity DD--><g class="entity" data-qualified-name="DD" data-source-line="11" id="ent0005"><rect fill="#005F7F" filter="url(#fh6wx91rlunbb)" height="52.9766" rx="6" ry="6" style="stroke:#00BAC6;stroke-width:0.5;" width="102.4414" x="213.07" y="332.4947"/><text fill="#FAFAFA" font-family="sans-serif" font-size="14" font-style="italic" lengthAdjust="spacing" textLength="40.0244" x="244.2785" y="356.0298">&#171;app&#187;</text><text fill="#FAFAFA" font-family="sans-serif" font-size="14" lengthAdjust="spacing" textLength="82.4414" x="223.07" y="372.5181">Dedup by id</text></g><!--entity DB--><g class="entity" data-qualified-name="DB" data-source-line="12" id="ent0006"><path d="M19.35,337.9947 C19.35,327.9947 74.2895,327.9947 74.2895,327.9947 C74.2895,327.9947 129.2289,327.9947 129.2289,337.9947 L129.2289,379.9713 C129.2289,389.9713 74.2895,389.9713 74.2895,389.9713 C74.2895,389.9713 19.35,389.9713 19.35,379.9713 L19.35,337.9947" fill="#E5E4E4" filter="url(#fh6wx91rlunbb)" style="stroke:#585858;stroke-width:0.5;"/><path d="M19.35,337.9947 C19.35,347.9947 74.2895,347.9947 74.2895,347.9947 C74.2895,347.9947 129.2289,347.9947 129.2289,337.9947" fill="none" style="stroke:#585858;stroke-width:0.5;"/><text fill="#181818" font-family="sans-serif" font-size="14" font-style="italic" lengthAdjust="spacing" textLength="32.293" x="58.143" y="365.5298">&#171;db&#187;</text><text fill="#181818" font-family="sans-serif" font-size="14" lengthAdjust="spacing" textLength="89.8789" x="29.35" y="382.0181">Session store</text></g><g class="entity" data-qualified-name="GMN13" data-source-line="22" id="ent0014"><path d="M47.66,450.9747 L47.66,506.9063 A0,0 0 0 0 47.66,506.9063 L480.9339,506.9063 A0,0 0 0 0 480.9339,506.9063 L480.9339,460.9747 L470.9339,450.9747 L268.29,450.9747 L264.29,385.8747 L260.29,450.9747 L47.66,450.9747 A0,0 0 0 0 47.66,450.9747" fill="#E5E4E4" filter="url(#fh6wx91rlunbb)" style="stroke:#B4B3B3;stroke-width:0.5;"/><path d="M470.9339,450.9747 L470.9339,460.9747 L480.9339,460.9747 L470.9339,450.9747" fill="#E5E4E4" style="stroke:#B4B3B3;stroke-width:0.5;"/><text fill="#181818" font-family="sans-serif" font-size="13" lengthAdjust="spacing" textLength="235.9678" x="80.4725" y="468.543">Reconnect = a snapshot for catch-up</text><text fill="#181818" font-family="sans-serif" font-size="13" font-weight="700" lengthAdjust="spacing" textLength="28.7295" x="320.5536" y="468.543">plus</text><text fill="#181818" font-family="sans-serif" font-size="13" lengthAdjust="spacing" textLength="85.7251" x="353.3963" y="468.543">a live SSE tail,</text><text fill="#181818" font-family="sans-serif" font-size="13" lengthAdjust="spacing" textLength="412.2739" x="53.66" y="483.8536">deduplicated by item id. Clients stay stateless; durable state lives</text><text fill="#181818" font-family="sans-serif" font-size="13" lengthAdjust="spacing" textLength="76.375" x="221.6095" y="499.1641">in the store.</text></g><!--link CL to SNAP--><g class="link" data-entity-1="ent0002" data-entity-2="ent0003" data-link-type="dependency" data-source-line="14" id="lnk7"><path d="M225.44,104.9847 C196.4,126.6047 159.6324,153.9712 127.9124,177.5912" fill="none" id="CL-to-SNAP" style="stroke:#585858;stroke-width:2;"/><polygon fill="#585858" points="123.1,181.1747,132.7075,179.0077,127.1103,178.1885,127.9295,172.5912,123.1,181.1747" style="stroke:#585858;stroke-width:2;"/><text fill="#181818" font-family="sans-serif" font-size="13" lengthAdjust="spacing" textLength="62.1055" x="186.18" y="148.103">reconnect</text></g><!--link SNAP to DB--><g class="link" data-entity-1="ent0003" data-entity-2="ent0006" data-link-type="dependency" data-source-line="15" id="lnk8"><path d="M73.49,251.2947 C72.58,260.8847 71.75,271.3347 71.29,280.9947 C70.94,288.5447 71.1,290.4447 71.29,297.9947 C71.54,307.6947 71.6919,312.2626 72.1819,321.7926" fill="none" id="SNAP-to-DB" style="stroke:#585858;stroke-width:2;"/><polygon fill="#585858" points="72.49,327.7847,76.0226,318.5912,72.2333,322.7913,68.0331,319.002,72.49,327.7847" style="stroke:#585858;stroke-width:2;"/><text fill="#181818" font-family="sans-serif" font-size="13" lengthAdjust="spacing" textLength="66.6631" x="72.29" y="294.563">read items</text></g><!--link CL to SSE--><g class="link" data-entity-1="ent0002" data-entity-2="ent0004" data-link-type="dependency" data-source-line="16" id="lnk9"><path d="M260.29,104.9847 C260.29,128.1447 260.29,156.0247 260.29,180.1147" fill="none" id="CL-to-SSE" style="stroke:#818D00;stroke-width:2;"/><polygon fill="#818D00" points="260.29,186.1147,264.29,177.1147,260.29,181.1147,256.29,177.1147,260.29,186.1147" style="stroke:#818D00;stroke-width:2;"/><text fill="#181818" font-family="sans-serif" font-size="13" lengthAdjust="spacing" textLength="80.7485" x="261.29" y="148.103">open live tail</text></g><!--link SNAP to DD--><g class="link" data-entity-1="ent0003" data-entity-2="ent0005" data-link-type="dependency" data-source-line="17" id="lnk10"><path d="M122.56,251.3247 C155.64,276.2147 195.0052,305.8478 225.1952,328.5578" fill="none" id="SNAP-to-DD" style="stroke:#585858;stroke-width:2;"/><polygon fill="#585858" points="229.99,332.1647,225.2023,323.5578,225.9943,329.159,220.3932,329.951,229.99,332.1647" style="stroke:#585858;stroke-width:2;"/><text fill="#181818" font-family="sans-serif" font-size="13" lengthAdjust="spacing" textLength="40.0474" x="182.99" y="294.563">merge</text></g><!--link SSE to DD--><g class="link" data-entity-1="ent0004" data-entity-2="ent0005" data-link-type="dependency" data-source-line="18" id="lnk11"><path d="M261.12,246.4247 C261.84,271.7047 262.6993,301.9371 263.3893,326.1771" fill="none" id="SSE-to-DD" style="stroke:#818D00;stroke-width:2;"/><polygon fill="#818D00" points="263.56,332.1747,267.3023,323.0645,263.4177,327.1767,259.3055,323.2921,263.56,332.1747" style="stroke:#818D00;stroke-width:2;"/><text fill="#181818" font-family="sans-serif" font-size="13" lengthAdjust="spacing" textLength="40.0474" x="263.53" y="294.563">merge</text></g><!--link DD to CL--><g class="link" data-entity-1="ent0005" data-entity-2="ent0002" data-link-type="dependency" data-source-line="19" id="lnk12"><path d="M295.7,332.1447 C317.03,312.4447 343.43,283.2647 355.29,250.9947 C365.95,222.0247 356.93,212.3647 355.29,181.5347 C354.18,160.5547 361.49,152.3047 350.29,134.5347 C342.76,122.5747 336.6336,116.0808 324.7236,108.2508" fill="none" id="DD-to-CL" style="stroke:#585858;stroke-width:1;stroke-dasharray:1,3;"/><polygon fill="#585858" points="319.71,104.9547,325.033,113.2412,323.888,107.7014,329.4277,106.5564,319.71,104.9547" style="stroke:#585858;stroke-width:1;"/><text fill="#181818" font-family="sans-serif" font-size="13" lengthAdjust="spacing" textLength="120.0913" x="361.41" y="221.333">in-order, no dupes</text></g><?plantuml-src RLF1SjCm4BtxAvPSQ4DjNpYPqfdGP4fdGXlYT7fXXb7iRIp6beHsdP8R7y6_SETJ-19MSjD9ItsmfVLxJxjlLw-qgTg-HcYO7HLvxjLzjj7SzEkUq5VMC1hEAjlbpjijshHIkQubfdcNTqgRXtZc-gvD9DeYb4YahO4bKjyv3ik_Ftz1QPIZnZAyWRdU8goKRfFNKB8ojV9r0RSV9wlR2w7xBVgqb4DWjfKtmH7Z3yunR59YZwexWRaYJkF_z79wB48tota1y5X9mrsRaSCgksyKtsyowpTvrxUidTfWJiCf5FXHcBB049svRDi2tifo4MepobHOWDJv3Ikct7P6Rq9oVtx3e99xspEIQCR2ANEx917Fd3K1DpflTVWU4Il6La378pXu5C7vNBwdfygvixD3vjwpB-ReOhO2pTWHa8KxvQE6KCkhoUAH-ht77gFeA7fSbZCO31E5_qmKYI0W6E7JpbHF3vzYtJjOxq3NJ_8zo7iwFSYxLgpMYkJyqNu4YAt7qSlK3v5QhuMPnFedo-NrxTTFaykhY8c55U1Hfj28yqaCF0D5bG1IzU3EeTJdczdDB4f9YOAo3WsqmHSEi_UYtZJgTUWtc4JQCwadWBWP0DUBrUNrrMG-jB80RLBhQ_GdO2o8ZqX9OYmZh2spxS3UYLG2SaaUoeFte83sT-JEUgWKLqqgBHYFNTlJU2o0Tj_LKC69yElGf5OB5klOAp516fR1C7GoBQnsy3XvxoGNhzPoIsCewf78Q0FSuD2lB45JGqZs7m00?></g></svg>