<svg xmlns="http://www.w3.org/2000/svg" xmlns:xlink="http://www.w3.org/1999/xlink" contentStyleType="text/css" data-diagram-type="DESCRIPTION" height="365px" preserveAspectRatio="none" style="width:1765px;height:365px;background:#FAFAFA;" version="1.1" viewBox="0 0 1765 365" width="1765px" zoomAndPan="magnify"><?plantuml 1.2026.6?><defs><filter height="300%" id="f1h104azta9o0p" width="300%" x="-1" y="-1"><feGaussianBlur result="blurOut" stdDeviation="2"/><feColorMatrix in="blurOut" result="blurOut2" type="matrix" values="0 0 0 0 0 0 0 0 0 0 0 0 0 0 0 0 0 0 .4 0"/><feOffset dx="4" dy="4" in="blurOut2" result="blurOut3"/><feBlend in="SourceGraphic" in2="blurOut3" mode="normal"/></filter></defs><g><rect fill="#FAFAFA" height="365" style="stroke:none;stroke-width:1;" width="1765" x="0" y="0"/><g class="title" data-source-line="2"><rect fill="none" height="33.2813" style="stroke:#585858;stroke-width:1;" width="434.5605" x="661.8469" y="5"/><text fill="#005F7F" font-family="sans-serif" font-size="20" font-weight="700" lengthAdjust="spacing" textLength="424.5605" x="666.8469" y="28.5645">WebLLM Weights Loading &amp; Sharding</text></g><!--cluster Browser Memory--><g class="cluster" data-qualified-name="Browser Memory" data-source-line="7" id="ent0001"><polygon fill="#E9F4F7" filter="url(#f1h104azta9o0p)" points="16,60.2813,26,50.2813,248,50.2813,248,330.2813,238,340.2813,16,340.2813,16,60.2813" style="stroke:#005F7F;stroke-width:1;stroke-linejoin:miter;stroke-miterlimit:10;"/><line style="stroke:#005F7F;stroke-width:1;" x1="238" x2="248" y1="60.2813" y2="50.2813"/><line style="stroke:#005F7F;stroke-width:1;" x1="16" x2="238" y1="60.2813" y2="60.2813"/><line style="stroke:#005F7F;stroke-width:1;" x1="238" x2="238" y1="60.2813" y2="340.2813"/><text fill="#005F7F" font-family="sans-serif" font-size="14" font-style="italic" lengthAdjust="spacing" textLength="47.3525" x="104.3237" y="76.2764">&#171;host&#187;</text><text fill="#005F7F" font-family="sans-serif" font-size="14" font-weight="700" lengthAdjust="spacing" textLength="133.3965" x="61.3018" y="92.5732">Browser Memory</text></g><!--cluster Static Server--><g class="cluster" data-qualified-name="Static Server" data-source-line="12" id="ent0004"><polygon fill="#585858" filter="url(#f1h104azta9o0p)" points="272,232.2813,282,222.2813,1089,222.2813,1089,323.2813,1079,333.2813,272,333.2813,272,232.2813" style="stroke:#585858;stroke-width:1;stroke-linejoin:miter;stroke-miterlimit:10;"/><line style="stroke:#585858;stroke-width:1;" x1="1079" x2="1089" y1="232.2813" y2="222.2813"/><line style="stroke:#585858;stroke-width:1;" x1="272" x2="1079" y1="232.2813" y2="232.2813"/><line style="stroke:#585858;stroke-width:1;" x1="1079" x2="1079" y1="232.2813" y2="333.2813"/><text fill="#FAFAFA" font-family="sans-serif" font-size="14" font-style="italic" lengthAdjust="spacing" textLength="55.043" x="648.9785" y="248.2764">&#171;cloud&#187;</text><text fill="#FAFAFA" font-family="sans-serif" font-size="14" font-weight="700" lengthAdjust="spacing" textLength="102.8945" x="625.0527" y="264.5732">Static Server</text></g><!--entity Engine--><g class="entity" data-qualified-name="Browser Memory.Engine" data-source-line="8" id="ent0002"><rect fill="#005F7F" filter="url(#f1h104azta9o0p)" height="52.5938" rx="6" ry="6" style="stroke:#00BAC6;stroke-width:0.5;" width="131.4531" x="100.5" y="106.2813"/><text fill="#FAFAFA" font-family="sans-serif" font-size="14" font-style="italic" lengthAdjust="spacing" textLength="43.4834" x="144.4849" y="129.2764">&#171;app&#187;</text><text fill="#FAFAFA" font-family="sans-serif" font-size="14" lengthAdjust="spacing" textLength="111.4531" x="110.5" y="145.5732">WebLLM Engine</text></g><!--entity VRAM--><g class="entity" data-qualified-name="Browser Memory.VRAM" data-source-line="9" id="ent0003"><rect fill="#E5E4E4" filter="url(#f1h104azta9o0p)" height="52.5938" rx="6" ry="6" style="stroke:#585858;stroke-width:0.5;" width="126.292" x="32" y="271.2813"/><text fill="#181818" font-family="sans-serif" font-size="14" font-style="italic" lengthAdjust="spacing" textLength="34.9043" x="77.6938" y="294.2764">&#171;db&#187;</text><text fill="#181818" font-family="sans-serif" font-size="14" lengthAdjust="spacing" textLength="106.292" x="42" y="310.5732">WebGPU VRAM</text></g><!--entity CacheMap--><g class="entity" data-qualified-name="Static Server.CacheMap" data-source-line="13" id="ent0005"><rect fill="#FAFAFA" filter="url(#f1h104azta9o0p)" height="39.2969" rx="2.5" ry="2.5" style="stroke:#585858;stroke-width:0.5;" width="164.2988" x="288" y="278.2813"/><polygon fill="#FAFAFA" points="435.2988,283.2813,435.2988,297.2813,447.2988,297.2813,447.2988,289.2813,441.2988,283.2813,435.2988,283.2813" style="stroke:#585858;stroke-width:0.5;stroke-linejoin:miter;stroke-miterlimit:10;"/><line style="stroke:#585858;stroke-width:0.5;" x1="441.2988" x2="441.2988" y1="283.2813" y2="289.2813"/><line style="stroke:#585858;stroke-width:0.5;" x1="447.2988" x2="441.2988" y1="289.2813" y2="289.2813"/><text fill="#181818" font-family="sans-serif" font-size="14" lengthAdjust="spacing" textLength="134.2988" x="298" y="304.2764">ndarray-cache.json</text></g><!--entity Shard0--><g class="entity" data-qualified-name="Static Server.Shard0" data-source-line="14" id="ent0006"><rect fill="#FAFAFA" filter="url(#f1h104azta9o0p)" height="39.2969" rx="2.5" ry="2.5" style="stroke:#585858;stroke-width:0.5;" width="171.1279" x="487.5" y="278.2813"/><polygon fill="#FAFAFA" points="641.6279,283.2813,641.6279,297.2813,653.6279,297.2813,653.6279,289.2813,647.6279,283.2813,641.6279,283.2813" style="stroke:#585858;stroke-width:0.5;stroke-linejoin:miter;stroke-miterlimit:10;"/><line style="stroke:#585858;stroke-width:0.5;" x1="647.6279" x2="647.6279" y1="283.2813" y2="289.2813"/><line style="stroke:#585858;stroke-width:0.5;" x1="653.6279" x2="647.6279" y1="289.2813" y2="289.2813"/><text fill="#181818" font-family="sans-serif" font-size="14" lengthAdjust="spacing" textLength="141.1279" x="497.5" y="304.2764">params_shard_0.bin</text></g><!--entity Shard1--><g class="entity" data-qualified-name="Static Server.Shard1" data-source-line="15" id="ent0007"><rect fill="#FAFAFA" filter="url(#f1h104azta9o0p)" height="39.2969" rx="2.5" ry="2.5" style="stroke:#585858;stroke-width:0.5;" width="171.1279" x="693.5" y="278.2813"/><polygon fill="#FAFAFA" points="847.6279,283.2813,847.6279,297.2813,859.6279,297.2813,859.6279,289.2813,853.6279,283.2813,847.6279,283.2813" style="stroke:#585858;stroke-width:0.5;stroke-linejoin:miter;stroke-miterlimit:10;"/><line style="stroke:#585858;stroke-width:0.5;" x1="853.6279" x2="853.6279" y1="283.2813" y2="289.2813"/><line style="stroke:#585858;stroke-width:0.5;" x1="859.6279" x2="853.6279" y1="289.2813" y2="289.2813"/><text fill="#181818" font-family="sans-serif" font-size="14" lengthAdjust="spacing" textLength="141.1279" x="703.5" y="304.2764">params_shard_1.bin</text></g><!--entity ShardN--><g class="entity" data-qualified-name="Static Server.ShardN" data-source-line="16" id="ent0008"><rect fill="#FAFAFA" filter="url(#f1h104azta9o0p)" height="39.2969" rx="2.5" ry="2.5" style="stroke:#585858;stroke-width:0.5;" width="172.6934" x="899.5" y="278.2813"/><polygon fill="#FAFAFA" points="1055.1934,283.2813,1055.1934,297.2813,1067.1934,297.2813,1067.1934,289.2813,1061.1934,283.2813,1055.1934,283.2813" style="stroke:#585858;stroke-width:0.5;stroke-linejoin:miter;stroke-miterlimit:10;"/><line style="stroke:#585858;stroke-width:0.5;" x1="1061.1934" x2="1061.1934" y1="283.2813" y2="289.2813"/><line style="stroke:#585858;stroke-width:0.5;" x1="1067.1934" x2="1061.1934" y1="289.2813" y2="289.2813"/><text fill="#181818" font-family="sans-serif" font-size="14" lengthAdjust="spacing" textLength="142.6934" x="909.5" y="304.2764">params_shard_N.bin</text></g><g class="entity" data-qualified-name="GMN10" data-source-line="20" id="ent0011"><path d="M1503.5,277.7813 L1503.5,318.0469 L1750.2544,318.0469 L1750.2544,287.7813 L1740.2544,277.7813 L1503.5,277.7813" fill="#E5E4E4" filter="url(#f1h104azta9o0p)" style="stroke:#B4B3B3;stroke-width:0.5;"/><path d="M1740.2544,277.7813 L1740.2544,287.7813 L1750.2544,287.7813 L1740.2544,277.7813" fill="#E5E4E4" style="stroke:#B4B3B3;stroke-width:1;"/><text fill="#181818" font-family="sans-serif" font-size="13" lengthAdjust="spacing" textLength="225.7544" x="1509.5" y="294.8481">Maps tensor names to byte offsets</text><text fill="#181818" font-family="sans-serif" font-size="13" lengthAdjust="spacing" textLength="153.2515" x="1545.7515" y="309.981">and specific shard files.</text></g><g class="entity" data-qualified-name="GMN17" data-source-line="29" id="ent0018"><path d="M1107.5,262.2813 L1107.5,332.8125 L1468.1885,332.8125 L1468.1885,272.2813 L1458.1885,262.2813 L1107.5,262.2813" fill="#E5E4E4" filter="url(#f1h104azta9o0p)" style="stroke:#B4B3B3;stroke-width:0.5;"/><path d="M1458.1885,262.2813 L1458.1885,272.2813 L1468.1885,272.2813 L1458.1885,262.2813" fill="#E5E4E4" style="stroke:#B4B3B3;stroke-width:1;"/><text fill="#181818" font-family="sans-serif" font-size="13" lengthAdjust="spacing" textLength="317.0273" x="1124.8306" y="279.3481">Weights ship as many small shards so a browser</text><text fill="#181818" font-family="sans-serif" font-size="13" lengthAdjust="spacing" textLength="310.2354" x="1128.2266" y="294.481">can fetch them in parallel and stream each into</text><text fill="#181818" font-family="sans-serif" font-size="13" lengthAdjust="spacing" textLength="339.6885" x="1113.5" y="309.6138">VRAM &#8212; no single multi-GB download, and progress</text><text fill="#181818" font-family="sans-serif" font-size="13" lengthAdjust="spacing" textLength="152.9023" x="1206.8931" y="324.7466">is reportable per shard.</text></g><!--link Engine to CacheMap--><g class="link" data-entity-1="ent0002" data-entity-2="ent0005" data-link-type="dependency" data-source-line="19" id="lnk9"><path d="M231.54,159.0113 C248.85,167.2713 266.9,177.4213 282,189.2813 C314.63,214.9013 340.4102,250.4322 355.6002,273.7422" fill="none" id="Engine-to-CacheMap" style="stroke:#585858;stroke-width:2;"/><polygon fill="#585858" points="358.33,277.9313,356.7676,268.2071,355.6002,273.7422,350.0651,272.5748,358.33,277.9313" style="stroke:#585858;stroke-width:2;stroke-linejoin:miter;stroke-miterlimit:10;"/><text fill="#181818" font-family="sans-serif" font-size="13" lengthAdjust="spacing" textLength="113.8643" x="301" y="202.3481">1. Fetch mapping</text></g><!--link CacheMap to GMN10--><g class="link" data-entity-1="ent0005" data-entity-2="ent0011" data-link-type="association" data-source-line="20" id="lnk12"><path d="M383.48,277.8413 C402.84,251.1713 441.34,205.1313 487.5,186.7813 C588.79,146.5013 1364.55,154.0013 1468.5,186.7813 C1525.21,204.6613 1579.27,250.8813 1607.24,277.7013" fill="none" id="CacheMap-GMN10" style="stroke:#585858;stroke-width:1;stroke-dasharray:7,7;"/></g><!--link Engine to Shard0--><g class="link" data-entity-1="ent0002" data-entity-2="ent0006" data-link-type="dependency" data-source-line="22" id="lnk13"><path d="M231.53,139.0213 C296.47,146.8713 396.47,166.3213 469,214.2813 C499.18,234.2412 527.6629,257.4882 548.1129,275.0082" fill="none" id="Engine-to-Shard0" style="stroke:#585858;stroke-width:2;"/><polygon fill="#585858" points="551.91,278.2613,547.6777,269.3681,548.1129,275.0082,542.4728,275.4434,551.91,278.2613" style="stroke:#585858;stroke-width:2;stroke-linejoin:miter;stroke-miterlimit:10;"/><text fill="#181818" font-family="sans-serif" font-size="13" lengthAdjust="spacing" textLength="107.085" x="456" y="202.3481">2. Fetch Shard 0</text></g><!--link Engine to Shard1--><g class="link" data-entity-1="ent0002" data-entity-2="ent0007" data-link-type="dependency" data-source-line="23" id="lnk14"><path d="M231.67,139.3013 C351.13,150.1413 598.83,176.4613 676,214.2813 C709.33,230.6112 738.1449,255.8158 757.4449,274.6858" fill="none" id="Engine-to-Shard1" style="stroke:#585858;stroke-width:2;"/><polygon fill="#585858" points="761.02,278.1813,757.3811,269.0293,757.4449,274.6858,751.7884,274.7495,761.02,278.1813" style="stroke:#585858;stroke-width:2;stroke-linejoin:miter;stroke-miterlimit:10;"/><text fill="#181818" font-family="sans-serif" font-size="13" lengthAdjust="spacing" textLength="107.085" x="656" y="202.3481">2. Fetch Shard 1</text></g><!--link Engine to ShardN--><g class="link" data-entity-1="ent0002" data-entity-2="ent0008" data-link-type="dependency" data-source-line="24" id="lnk15"><path d="M231.82,136.9513 C343.47,142.9713 576.88,158.3113 772,189.2813 C821.52,197.1413 836.79,192.6113 882,214.2813 C915.67,230.4213 944.7851,255.6858 964.2651,274.6258" fill="none" id="Engine-to-ShardN" style="stroke:#585858;stroke-width:2;"/><polygon fill="#585858" points="967.85,278.1113,964.1856,268.9695,964.2651,274.6258,958.6088,274.7053,967.85,278.1113" style="stroke:#585858;stroke-width:2;stroke-linejoin:miter;stroke-miterlimit:10;"/><text fill="#181818" font-family="sans-serif" font-size="13" lengthAdjust="spacing" textLength="108.5386" x="863" y="202.3481">2. Fetch Shard N</text></g><!--link Engine to VRAM--><g class="link" data-entity-1="ent0002" data-entity-2="ent0003" data-link-type="dependency" data-source-line="26" id="lnk16"><path d="M135.37,159.4313 C126.88,168.0713 118.49,178.3213 113,189.2813 C100.04,215.1713 96.3694,243.5165 95.3294,266.1565" fill="none" id="Engine-to-VRAM" style="stroke:#585858;stroke-width:2;"/><polygon fill="#585858" points="95.1,271.1513,99.5088,262.3443,95.3294,266.1565,91.5172,261.9772,95.1,271.1513" style="stroke:#585858;stroke-width:2;stroke-linejoin:miter;stroke-miterlimit:10;"/><text fill="#181818" font-family="sans-serif" font-size="13" lengthAdjust="spacing" textLength="163.6997" x="114" y="202.3481">3. Load Tensors into GPU</text></g><!--link Engine to GMN17--><g class="link" data-entity-1="ent0002" data-entity-2="ent0018" data-link-type="association" data-source-line="29" id="lnk19"><path d="M231.53,134.7613 C370.3,137.5913 703.78,148.4513 980,189.2813 C1029.17,196.5513 1041.66,199.1513 1089,214.2813 C1130.86,227.6513 1176.22,246.1313 1213.04,262.2113" fill="none" id="Engine-GMN17" style="stroke:#585858;stroke-width:1;stroke-dasharray:7,7;"/></g><?plantuml-src TPFVQjim5CRl_HHdkTWVMEMutM244cYxhGoITAJhUZCen_PnhA4_HfAJXZ7OG-m9zoGxajD2b-N6bkMVTBxlEz8pQIhLrmHj29sVvBd3ZLZ9qFPbxybLrWGoGLHMvvspQx975UQovZaPjhb6QNRpekkrodXM4TnIEPlD-ILNRV0mirXBiuBdSDsYYyFi1TmiPnE0nx8RAfNIGgjAeCpt_wExbsjXtIh7qkV7RufZKRnzDpvXSaPhKXCmES9BtvS-E0pqAikCPLkZSsStR0JcfAtRZk3qjBK-JAVm8mDWMvqrR0P6EyqVp4eQ6W7wtP0NODTDftlqvUSR-BeycoSs3fYiImP_FfI-3XXa1TVarkHYvKhPljwLHXTaWnNlPMfq3hSSRDMI-EwjILjUnCyvTa_O3XrgV-TZZdTZKSg1JRcE3vF5Kx8uJ2wUaelePXV4sN9vTNjtCRkwUVye3YPG2FX8eMf1SqwnjyO60XTR3xPv92V03mzychnrO50JVrWejmpRfl4K_3U3fWRVKIKRpYq9WaOgykA_8WRNBE7uGKAQWV51kDY7YuFmOXzU_ADZVlPfCVH-0YSY7NJuaXnwa8RjyI79Xa1A6uBLCP5X1sx1m_tmhUnYuXhD5hn6fGRl_CS2GZcSu7W0qK2Jv8IMD5U0s3kbI45ABZX23SI9f-gy8cdxy-it60kUcyENK_SgoAFBSwZjnYXM_3ejvbkySkGzBv8U77NM1IoPx_Zo93aY8-QYcRy0?></g></svg>