<svg xmlns="http://www.w3.org/2000/svg" xmlns:xlink="http://www.w3.org/1999/xlink" contentStyleType="text/css" data-diagram-type="DESCRIPTION" height="554px" preserveAspectRatio="none" style="width:739px;height:554px;background:#FAFAFA;" version="1.1" viewBox="0 0 739 554" width="739px" zoomAndPan="magnify"><?plantuml 1.2026.3?><defs><filter height="300%" id="fthjedz2fr9nb" width="300%" x="-1" y="-1"><feGaussianBlur result="blurOut" stdDeviation="2"/><feColorMatrix in="blurOut" result="blurOut2" type="matrix" values="0 0 0 0 0 0 0 0 0 0 0 0 0 0 0 0 0 0 .4 0"/><feOffset dx="4" dy="4" in="blurOut2" result="blurOut3"/><feBlend in="SourceGraphic" in2="blurOut3" mode="normal"/></filter></defs><g><rect fill="#FAFAFA" height="554" style="stroke:none;stroke-width:1;" width="739" x="0" y="0"/><g class="title" data-source-line="2"><rect fill="none" height="33.5547" style="stroke:#585858;stroke-width:1;" width="352.4805" x="190.105" y="5"/><text fill="#005F7F" font-family="sans-serif" font-size="20" font-weight="700" lengthAdjust="spacing" textLength="342.4805" x="195.105" y="29.3359">Dual-Channel RAG &#8212; fact vs rule</text></g><!--entity Q--><g class="entity" data-qualified-name="Q" data-source-line="8" id="ent0002"><rect fill="#005F7F" filter="url(#fthjedz2fr9nb)" height="52.9766" rx="6" ry="6" style="stroke:#00BAC6;stroke-width:0.5;" width="62.0244" x="149.84" y="51.5547"/><text fill="#FAFAFA" font-family="sans-serif" font-size="14" font-style="italic" lengthAdjust="spacing" textLength="40.0244" x="160.84" y="75.0898">&#171;app&#187;</text><text fill="#FAFAFA" font-family="sans-serif" font-size="14" lengthAdjust="spacing" textLength="40.4072" x="160.6486" y="91.5781">Query</text></g><!--entity FA--><g class="entity" data-qualified-name="FA" data-source-line="9" id="ent0003"><path d="M6,191.5347 C6,181.5347 87.8525,181.5347 87.8525,181.5347 C87.8525,181.5347 169.7051,181.5347 169.7051,191.5347 L169.7051,249.9995 C169.7051,259.9995 87.8525,259.9995 87.8525,259.9995 C87.8525,259.9995 6,259.9995 6,249.9995 L6,191.5347" fill="#E5E4E4" filter="url(#fthjedz2fr9nb)" style="stroke:#585858;stroke-width:0.5;"/><path d="M6,191.5347 C6,201.5347 87.8525,201.5347 87.8525,201.5347 C87.8525,201.5347 169.7051,201.5347 169.7051,191.5347" fill="none" style="stroke:#585858;stroke-width:0.5;"/><text fill="#181818" font-family="sans-serif" font-size="14" font-style="italic" lengthAdjust="spacing" textLength="32.293" x="71.7061" y="219.0698">&#171;db&#187;</text><text fill="#181818" font-family="sans-serif" font-size="14" lengthAdjust="spacing" textLength="122.3496" x="26.6777" y="235.5581">Pipeline A &#8212; facts</text><text fill="#181818" font-family="sans-serif" font-size="14" lengthAdjust="spacing" textLength="143.7051" x="16" y="252.0464">(client state &#183; history)</text></g><!--entity FR--><g class="entity" data-qualified-name="FR" data-source-line="10" id="ent0004"><path d="M204.99,191.5347 C204.99,181.5347 275.8504,181.5347 275.8504,181.5347 C275.8504,181.5347 346.7107,181.5347 346.7107,191.5347 L346.7107,249.9995 C346.7107,259.9995 275.8504,259.9995 275.8504,259.9995 C275.8504,259.9995 204.99,259.9995 204.99,249.9995 L204.99,191.5347" fill="#E5E4E4" filter="url(#fthjedz2fr9nb)" style="stroke:#585858;stroke-width:0.5;"/><path d="M204.99,191.5347 C204.99,201.5347 275.8504,201.5347 275.8504,201.5347 C275.8504,201.5347 346.7107,201.5347 346.7107,191.5347" fill="none" style="stroke:#585858;stroke-width:0.5;"/><text fill="#181818" font-family="sans-serif" font-size="14" font-style="italic" lengthAdjust="spacing" textLength="32.293" x="259.7039" y="219.0698">&#171;db&#187;</text><text fill="#181818" font-family="sans-serif" font-size="14" lengthAdjust="spacing" textLength="121.7207" x="214.99" y="235.5581">Pipeline B &#8212; rules</text><text fill="#181818" font-family="sans-serif" font-size="14" lengthAdjust="spacing" textLength="104.3232" x="223.6887" y="252.0464">(SEC / statutes)</text></g><!--entity LLM--><g class="entity" data-qualified-name="LLM" data-source-line="11" id="ent0005"><path d="M111.4883,345.1638 C113.6844,338.7511 117.5681,338.6799 122.3887,342.3174 C125.4022,335.5589 129.6093,334.5015 134.7108,340.2623 C137.0623,334.7981 140.0816,332.8945 145.2007,337.3295 C149.5148,334.0978 153.9144,335.558 155.2249,340.8585 C159.9858,336.2251 164.3371,335.84 167.7244,342.3933 C173.0563,339.1578 176.8706,341.0378 178.5165,346.8096 C186.9445,348.2241 187.8472,353.9911 183.3165,360.0894 C190.8978,363.2448 191.4667,367.5736 187.0636,373.9653 C191.5443,379.7785 191.379,385.1444 183.1731,387.2392 C188.2225,393.7017 185.2291,397.3076 178.6969,399.5638 C176.5238,405.5391 171.2924,406.1842 167.1596,401.7319 C163.806,405.6611 160.2247,405.4159 157.3341,401.1751 C153.7935,406.8882 148.4452,408.1218 144.2069,401.9454 C141.5839,406.7214 137.3336,407.2674 134.5198,402.1317 C130.4212,406.7817 125.212,406.7575 122.7649,400.3724 C119.2405,405.8989 114.1704,404.2418 111.5882,399.3606 C105.0871,397.2851 103.9457,393.4751 107.1072,387.6898 C99.6642,384.4941 98.442,379.111 104.6777,373.5629 C98.202,366.3914 100.2016,361.7645 108.8304,358.8588 C104.1408,353.3906 103.5427,348.1799 111.4883,345.1638" fill="#585858" filter="url(#fthjedz2fr9nb)"/><text fill="#FAFAFA" font-family="sans-serif" font-size="14" font-style="italic" lengthAdjust="spacing" textLength="51.9873" x="117.86" y="365.5298">&#171;cloud&#187;</text><text fill="#FAFAFA" font-family="sans-serif" font-size="20" lengthAdjust="spacing" textLength="38.5547" x="124.5763" y="387.8189">LLM</text></g><!--entity ANS--><g class="entity" data-qualified-name="ANS" data-source-line="12" id="ent0006"><rect fill="#005F7F" filter="url(#fthjedz2fr9nb)" height="52.9766" rx="6" ry="6" style="stroke:#00BAC6;stroke-width:0.5;" width="142.2197" x="72.74" y="484.0347"/><text fill="#FAFAFA" font-family="sans-serif" font-size="14" font-style="italic" lengthAdjust="spacing" textLength="40.0244" x="123.8377" y="507.5698">&#171;app&#187;</text><text fill="#FAFAFA" font-family="sans-serif" font-size="14" lengthAdjust="spacing" textLength="122.2197" x="82.74" y="524.0581">Compliant answer</text></g><g class="entity" data-qualified-name="GMN12" data-source-line="21" id="ent0013"><path d="M277.02,344.0547 L277.02,399.9863 L724.6904,399.9863 L724.6904,354.0547 L714.6904,344.0547 L277.02,344.0547" fill="#E5E4E4" filter="url(#fthjedz2fr9nb)" style="stroke:#B4B3B3;stroke-width:0.5;"/><path d="M714.6904,344.0547 L714.6904,354.0547 L724.6904,354.0547 L714.6904,344.0547" fill="#E5E4E4" style="stroke:#B4B3B3;stroke-width:1;"/><text fill="#181818" font-family="sans-serif" font-size="13" lengthAdjust="spacing" textLength="90.1177" x="299.8445" y="361.623">Two channels:</text><text fill="#181818" font-family="sans-serif" font-size="13" font-weight="700" lengthAdjust="spacing" textLength="32.5698" x="394.0754" y="361.623">facts</text><text fill="#181818" font-family="sans-serif" font-size="13" lengthAdjust="spacing" textLength="69.6846" x="430.7585" y="361.623">as context,</text><text fill="#181818" font-family="sans-serif" font-size="13" font-weight="700" lengthAdjust="spacing" textLength="116.3081" x="504.5564" y="361.623">rules/constraints</text><text fill="#181818" font-family="sans-serif" font-size="13" lengthAdjust="spacing" textLength="67.8882" x="624.9778" y="361.623">injected as</text><text fill="#181818" font-family="sans-serif" font-size="13" lengthAdjust="spacing" textLength="426.6704" x="283.02" y="376.9336">absolute system-prompt guardrails &#8212; enforcing compliance during</text><text fill="#181818" font-family="sans-serif" font-size="13" lengthAdjust="spacing" textLength="294.0615" x="349.3244" y="392.2441">generation, not appended as ordinary context.</text></g><!--link Q to FA--><g class="link" data-entity-1="ent0002" data-entity-2="ent0003" data-link-type="dependency" data-source-line="14" id="lnk7"><path d="M156.37,104.8647 C148.4,113.8947 139.82,124.3247 132.85,134.5347 C122.85,149.1747 116.1203,160.9517 108.5003,176.0017" fill="none" id="Q-to-FA" style="stroke:#585858;stroke-width:2;"/><polygon fill="#585858" points="105.79,181.3547,113.4241,175.1321,108.0486,176.8939,106.2868,171.5184,105.79,181.3547" style="stroke:#585858;stroke-width:2;"/><text fill="#181818" font-family="sans-serif" font-size="13" lengthAdjust="spacing" textLength="81.9355" x="133.85" y="148.103">retrieve facts</text></g><!--link Q to FR--><g class="link" data-entity-1="ent0002" data-entity-2="ent0004" data-link-type="dependency" data-source-line="15" id="lnk8"><path d="M199.28,104.8947 C205.83,114.1947 213.23,124.7947 219.85,134.5347 C230.2,149.7547 238.1052,161.6637 247.7352,176.3837" fill="none" id="Q-to-FR" style="stroke:#585858;stroke-width:2;"/><polygon fill="#585858" points="251.02,181.4047,249.4401,171.6834,248.2827,177.2205,242.7455,176.0631,251.02,181.4047" style="stroke:#585858;stroke-width:2;"/><text fill="#181818" font-family="sans-serif" font-size="13" lengthAdjust="spacing" textLength="82.8433" x="231.75" y="148.103">retrieve rules</text></g><!--link FA to LLM--><g class="link" data-entity-1="ent0003" data-entity-2="ent0005" data-link-type="dependency" data-source-line="16" id="lnk9"><path d="M80.09,260.2047 C78.68,275.2547 79.14,292.3747 84.85,306.9947 C89.09,317.8347 92.1546,323.433 99.9046,332.273" fill="none" id="FA-to-LLM" style="stroke:#585858;stroke-width:2;"/><polygon fill="#585858" points="103.86,336.7847,100.9347,327.3803,100.5639,333.025,94.9192,332.6541,103.86,336.7847" style="stroke:#585858;stroke-width:2;"/><text fill="#181818" font-family="sans-serif" font-size="13" lengthAdjust="spacing" textLength="143.1841" x="85.85" y="303.563">conversational context</text></g><!--link FR to LLM--><g class="link" data-entity-1="ent0004" data-entity-2="ent0005" data-link-type="dependency" data-source-line="17" id="lnk10"><path d="M261.74,260.2547 C254.85,275.8147 245.51,293.3047 233.85,306.9947 C220.55,322.6147 207.6681,333.0756 191.3281,343.7856" fill="none" id="FR-to-LLM" style="stroke:#CB2000;stroke-width:2;"/><polygon fill="#CB2000" points="186.31,347.0747,196.03,345.4864,190.4918,344.3338,191.6445,338.7956,186.31,347.0747" style="stroke:#CB2000;stroke-width:2;"/><text fill="#181818" font-family="sans-serif" font-size="13" lengthAdjust="spacing" textLength="203.9946" x="247" y="303.563">hard guardrails (system prompt)</text></g><!--link LLM to ANS--><g class="link" data-entity-1="ent0005" data-entity-2="ent0006" data-link-type="dependency" data-source-line="18" id="lnk11"><path d="M143.85,407.4647 C143.85,431.1547 143.85,456.1247 143.85,477.7047" fill="none" id="LLM-to-ANS" style="stroke:#585858;stroke-width:2;"/><polygon fill="#585858" points="143.85,483.7047,147.85,474.7047,143.85,478.7047,139.85,474.7047,143.85,483.7047" style="stroke:#585858;stroke-width:2;"/><text fill="#181818" font-family="sans-serif" font-size="13" lengthAdjust="spacing" textLength="55.2627" x="144.85" y="450.603">generate</text></g><!--link FR to GMN12--><g class="link" data-entity-1="ent0004" data-entity-2="ent0013" data-link-type="association" data-source-line="21" id="lnk14"><path d="M346.98,235.3647 C383.81,245.3747 427.5,262.2347 458.85,289.9947 C474.98,304.2747 485.83,326.2547 492.45,343.7147" fill="none" id="FR-GMN12" style="stroke:#585858;stroke-width:1;stroke-dasharray:7,7;"/></g><?plantuml-src ZPFTRXCn48Nl_HJ3tf14IHPALQ5LLIaaBK9A_xOWUe6477kI67djbUtTD7Sy1E_08t3VH-5963i_1254Sx5PJOu_dpapUQQCq8r4M8PG-oBF7LyD5oeicrdZqGbh0fem5BRAQsTRj0F1SoMffi8whxWos_gmRYhDgAeH9WtNW_6I6uCQoj5R-Fdr6yov2D1wS8r6zXnkU8skW0aQZt0F9GQdiEKQEiIhhLT1MGDkL-xsWRjxrHP7hruU3L-Sd1o_9aY9ym80V6Zacenvz7bo_106tCZ1_lImal3u_OXEJB55NS1nT11z6su45Y1jRAM0kKe5ngZXsXfg4xBR1jqwWwTzk8TR-ZezvNLzTiOa3tn6lW2o6rMZLWPXj8_3Vp8TeLMynGSU41v_m5BvODswcqNKnIYYvEmVf3U950EDfBlpCUG9r0JqtUpGqqMv1mbj6vdgsNHw-TI-4eNqH4c02FeTqPXUjUBqoerVeSl-0nfTtUqZOZ6lKLbUV_nyENft1QdfOZTvt0JrjwZyGvGoOF7aeIZwBO0seaNdULmesg_jWh18s8ZFwLbknKlk92mQUZgkj8UEN_k05T1ILdNeigZQd1fFhpzCKYS5BD2Wem4oPYoDSMP3i1NOETba0EzN5iJct-0BwFLIHxrU369hfa_Lr49SNn_eQfCKodn14L2Ib3XyvgscsSB6qs3ZwT1jN0SqS-k4CWiGswa81DaugX1ZwvIYw0Dv1Pe16fbk0EiahRzRxrmD6VqKLVWB?></g></svg>