<svg xmlns="http://www.w3.org/2000/svg" xmlns:xlink="http://www.w3.org/1999/xlink" contentStyleType="text/css" data-diagram-type="DESCRIPTION" height="444px" preserveAspectRatio="none" style="width:842px;height:444px;background:#FAFAFA;" version="1.1" viewBox="0 0 842 444" width="842px" zoomAndPan="magnify"><?plantuml 1.2026.3?><defs><filter height="300%" id="fgjnag7j3l9e0" width="300%" x="-1" y="-1"><feGaussianBlur result="blurOut" stdDeviation="2"/><feColorMatrix in="blurOut" result="blurOut2" type="matrix" values="0 0 0 0 0 0 0 0 0 0 0 0 0 0 0 0 0 0 .4 0"/><feOffset dx="4" dy="4" in="blurOut2" result="blurOut3"/><feBlend in="SourceGraphic" in2="blurOut3" mode="normal"/></filter></defs><g><rect fill="#FAFAFA" height="444" style="stroke:none;stroke-width:1;" width="842" x="0" y="0"/><g class="title" data-source-line="2"><rect fill="none" height="33.5547" style="stroke:#585858;stroke-width:1;" width="345.0879" x="245.1423" y="5"/><text fill="#005F7F" font-family="sans-serif" font-size="20" font-weight="700" lengthAdjust="spacing" textLength="335.0879" x="250.1423" y="29.3359">Docker-as-Simulation Substrate</text></g><!--entity HW--><g class="entity" data-qualified-name="HW" data-source-line="8" id="ent0002"><polygon fill="#00BAC6" filter="url(#fgjnag7j3l9e0)" points="336.05,60.5547,346.05,50.5547,497.6066,50.5547,497.6066,120.0195,487.6066,130.0195,336.05,130.0195,336.05,60.5547" style="stroke:#006B70;stroke-width:0.5;"/><line style="stroke:#006B70;stroke-width:0.5;" x1="487.6066" x2="497.6066" y1="60.5547" y2="50.5547"/><line style="stroke:#006B70;stroke-width:0.5;" x1="336.05" x2="487.6066" y1="60.5547" y2="60.5547"/><line style="stroke:#006B70;stroke-width:0.5;" x1="487.6066" x2="487.6066" y1="60.5547" y2="130.0195"/><text fill="#181818" font-family="sans-serif" font-size="14" font-style="italic" lengthAdjust="spacing" textLength="44.3311" x="389.6628" y="84.0898">&#171;host&#187;</text><text fill="#181818" font-family="sans-serif" font-size="14" lengthAdjust="spacing" textLength="98.6973" x="362.4797" y="100.5781">Host hardware</text><text fill="#181818" font-family="sans-serif" font-size="14" lengthAdjust="spacing" textLength="121.5566" x="351.05" y="117.0664">(CPU &#183; RAM &#183; disk)</text></g><!--entity ENG--><g class="entity" data-qualified-name="ENG" data-source-line="9" id="ent0003"><rect fill="#005F7F" filter="url(#fgjnag7j3l9e0)" height="69.4648" rx="6" ry="6" style="stroke:#00BAC6;stroke-width:0.5;" width="157.6621" x="252.99" y="209.3747"/><text fill="#FAFAFA" font-family="sans-serif" font-size="14" font-style="italic" lengthAdjust="spacing" textLength="40.0244" x="311.8088" y="232.9098">&#171;app&#187;</text><text fill="#FAFAFA" font-family="sans-serif" font-size="14" lengthAdjust="spacing" textLength="126.1436" x="268.7493" y="249.3981">Engine (privileged)</text><text fill="#FAFAFA" font-family="sans-serif" font-size="14" lengthAdjust="spacing" textLength="137.6621" x="262.99" y="265.8864">mounts docker.sock</text></g><!--entity U--><g class="entity" data-qualified-name="U" data-source-line="10" id="ent0004"><rect fill="#005F7F" filter="url(#fgjnag7j3l9e0)" height="69.4648" rx="6" ry="6" style="stroke:#00BAC6;stroke-width:0.5;" width="145.9453" x="478.85" y="358.2047"/><text fill="#FAFAFA" font-family="sans-serif" font-size="14" font-style="italic" lengthAdjust="spacing" textLength="40.0244" x="531.8104" y="381.7398">&#171;app&#187;</text><text fill="#FAFAFA" font-family="sans-serif" font-size="14" lengthAdjust="spacing" textLength="102.9287" x="500.3583" y="398.2281">Unit containers</text><text fill="#FAFAFA" font-family="sans-serif" font-size="14" lengthAdjust="spacing" textLength="125.9453" x="488.85" y="414.7164">(spawned siblings)</text></g><!--entity CG--><g class="entity" data-qualified-name="CG" data-source-line="11" id="ent0005"><rect fill="#005F7F" filter="url(#fgjnag7j3l9e0)" height="74.1758" rx="6" ry="6" style="stroke:#00BAC6;stroke-width:0.5;" width="167.1025" x="658.27" y="207.0247"/><text fill="#FAFAFA" font-family="sans-serif" font-size="14" font-style="italic" lengthAdjust="spacing" textLength="40.0244" x="721.8091" y="230.5598">&#171;app&#187;</text><text fill="#FAFAFA" font-family="sans-serif" font-size="14" lengthAdjust="spacing" textLength="89.7422" x="696.9502" y="247.0481">cgroup limits</text><text fill="#FAFAFA" font-family="sans-serif" font-size="18" font-weight="700" lengthAdjust="spacing" textLength="147.1025" x="668.27" y="267.4036">game resources</text></g><g class="entity" data-qualified-name="GMN10" data-source-line="19" id="ent0011"><path d="M6,364.9647 L6,420.8963 A0,0 0 0 0 6,420.8963 L443.6475,420.8963 A0,0 0 0 0 443.6475,420.8963 L443.6475,374.9647 L433.6475,364.9647 L248.51,364.9647 L307.01,279.1647 L240.51,364.9647 L6,364.9647 A0,0 0 0 0 6,364.9647" fill="#E5E4E4" filter="url(#fgjnag7j3l9e0)" style="stroke:#B4B3B3;stroke-width:0.5;"/><path d="M433.6475,364.9647 L433.6475,374.9647 L443.6475,374.9647 L433.6475,364.9647" fill="#E5E4E4" style="stroke:#B4B3B3;stroke-width:0.5;"/><text fill="#181818" font-family="sans-serif" font-size="13" lengthAdjust="spacing" textLength="91.6475" x="14.7422" y="382.533">Host hardware</text><text fill="#181818" font-family="sans-serif" font-size="13" font-weight="700" lengthAdjust="spacing" textLength="11.5781" x="110.5029" y="382.533">is</text><text fill="#181818" font-family="sans-serif" font-size="13" lengthAdjust="spacing" textLength="299.7109" x="126.1943" y="382.533">the game board: the engine mounts the Docker</text><text fill="#181818" font-family="sans-serif" font-size="13" lengthAdjust="spacing" textLength="416.6475" x="12" y="397.8436">socket to spawn sibling unit containers; cgroup limits become the</text><text fill="#181818" font-family="sans-serif" font-size="13" lengthAdjust="spacing" textLength="177.4678" x="131.5898" y="413.1541">game's resource mechanics.</text></g><!--link HW to ENG--><g class="link" data-entity-1="ent0002" data-entity-2="ent0003" data-link-type="dependency" data-source-line="13" id="lnk6"><path d="M351.75,130.4647 C342.48,139.0047 334.26,148.8747 328.82,160.0247 C321.48,175.0747 320.6071,187.5987 322.7271,203.2987" fill="none" id="HW-to-ENG" style="stroke:#585858;stroke-width:2;"/><polygon fill="#585858" points="323.53,209.2447,326.2897,199.7904,322.8609,204.2897,318.3616,200.8609,323.53,209.2447" style="stroke:#585858;stroke-width:2;"/><text fill="#181818" font-family="sans-serif" font-size="13" lengthAdjust="spacing" textLength="145.3296" x="329.82" y="173.593">Docker-out-of-Docker</text></g><!--link ENG to U--><g class="link" data-entity-1="ent0003" data-entity-2="ent0004" data-link-type="dependency" data-source-line="14" id="lnk7"><path d="M338.07,278.9947 C342.79,295.8447 350.94,315.3247 364.82,328.2047 C397.6,358.5947 418.52,343.7647 460.82,358.2047 C466.56,360.1547 466.8391,360.2179 472.7791,362.3379" fill="none" id="ENG-to-U" style="stroke:#818D00;stroke-width:2;"/><polygon fill="#818D00" points="478.43,364.3547,471.2982,357.5622,473.7209,362.674,468.6091,365.0967,478.43,364.3547" style="stroke:#818D00;stroke-width:2;"/><text fill="#181818" font-family="sans-serif" font-size="13" lengthAdjust="spacing" textLength="109.4844" x="365.82" y="324.773">spawn / kill units</text></g><!--link CG to U--><g class="link" data-entity-1="ent0005" data-entity-2="ent0004" data-link-type="dependency" data-source-line="15" id="lnk8"><path d="M694.86,281.4047 C664.64,304.7547 630.367,331.2351 600.717,354.1551" fill="none" id="CG-to-U" style="stroke:#585858;stroke-width:1;stroke-dasharray:1,3;"/><polygon fill="#585858" points="595.97,357.8247,605.5369,355.4851,599.9259,354.7667,600.6442,349.1557,595.97,357.8247" style="stroke:#585858;stroke-width:1;"/><text fill="#181818" font-family="sans-serif" font-size="13" lengthAdjust="spacing" textLength="152.7881" x="653.52" y="324.773">enforce CPU / RAM caps</text></g><!--link U to HW--><g class="link" data-entity-1="ent0004" data-entity-2="ent0002" data-link-type="dependency" data-source-line="16" id="lnk9"><path d="M542.2,358.0447 C525,297.9847 489.85,177.4747 479.82,160.0247 C473.86,149.6347 470.0432,144.0195 461.9932,134.8695" fill="none" id="U-to-HW" style="stroke:#585858;stroke-width:2;"/><polygon fill="#585858" points="458.03,130.3647,460.9716,139.764,461.3327,134.1187,466.978,134.4797,458.03,130.3647" style="stroke:#585858;stroke-width:2;"/><text fill="#181818" font-family="sans-serif" font-size="13" lengthAdjust="spacing" textLength="119.4058" x="520.77" y="249.183">consume hardware</text></g><?plantuml-src RLBDJjj04BxxAQQv017sKgeUwbAaY4Q0n4yQYBWWLPlrn5vYprgxwwJbn4Fq6VeAlVTHU9BEsauALNsnFJlppVUpRpIfiiaG2kzhbmfXvJh9jI-QUUFGAaCUoIVALAAsPeKcLbBeZ6lQVnULrDJNaxgfoeYh9S9devPeO-dY6rqrfVJQ4DmqS-Ujz1Zjm1GNAS04lNnyDAJtOV3yzBEVqXHtNro2sqBJ4lnQAnp0yzEFBSs7kXlkkIRQYCE3j-_5mGTny4va9YRZOrOGPrlK_cjXRAoqsBAuqDHy0vLRqzImEdorXKTSmaE4PM9iBcHMCL3Ui06YcuXNXqdXMVaENE0AonH8IDXr6x5xV3091f4aXIcmMG-el1CoPmzTR1OnLhMswE3tBq3ADQ7O1q8leeWC1zC-WpFZF1JIPcjfyPvsJoQpC30TNOPNfjroRm3z8nsStG4S7HKyT7mSSNYr8Lu7Wt6x07PhgrUwn1oplNkgJCDKeFCdSVmQj23ZgrC6aNNz6cD6saEu61m-MiTaN2tNX1auFIyrvMv3XJ5c0F_3wEqkTQKz8to2N5O8x89fh4AtbT9Yd9p-nOY2ij5qUdttzN9qVjMs19xfvjAPnWTJkxye77NTNsRZsJXq1qOfj9H1m5AN9JIio4LXJTTxFRazlxuQNVIzI7nd54BmNBIMArcxA1p-moIGIuCthc4vcxX2a1vXRhmt5PX581nnyyj8OJZKRZW4Ns3dnTpmITh-TxS2-fX2fLS74C923zxqWle4MaKlCle8hmo7EN8M6A0O8wpRSLlpeK9LID9yyoEa30BtFm00?></g></svg>