<svg xmlns="http://www.w3.org/2000/svg" xmlns:xlink="http://www.w3.org/1999/xlink" contentStyleType="text/css" data-diagram-type="DESCRIPTION" height="423px" preserveAspectRatio="none" style="width:857px;height:423px;background:#FAFAFA;" version="1.1" viewBox="0 0 857 423" width="857px" zoomAndPan="magnify"><?plantuml 1.2026.3?><defs><filter height="300%" id="f1ow4i15g0myxx" width="300%" x="-1" y="-1"><feGaussianBlur result="blurOut" stdDeviation="2"/><feColorMatrix in="blurOut" result="blurOut2" type="matrix" values="0 0 0 0 0 0 0 0 0 0 0 0 0 0 0 0 0 0 .4 0"/><feOffset dx="4" dy="4" in="blurOut2" result="blurOut3"/><feBlend in="SourceGraphic" in2="blurOut3" mode="normal"/></filter></defs><g><rect fill="#FAFAFA" height="423" style="stroke:none;stroke-width:1;" width="857" x="0" y="0"/><g class="title" data-source-line="2"><rect fill="none" height="33.5547" style="stroke:#585858;stroke-width:1;" width="439.2676" x="205.4444" y="5"/><text fill="#005F7F" font-family="sans-serif" font-size="20" font-weight="700" lengthAdjust="spacing" textLength="429.2676" x="210.4444" y="29.3359">Embedded Thin-Server + WASM WebView</text></g><!--entity SVC--><g class="entity" data-qualified-name="SVC" data-source-line="8" id="ent0002"><polygon fill="#00BAC6" filter="url(#f1ow4i15g0myxx)" points="286.89,60.5547,296.89,50.5547,513.5453,50.5547,513.5453,103.5313,503.5453,113.5313,286.89,113.5313,286.89,60.5547" style="stroke:#006B70;stroke-width:0.5;"/><line style="stroke:#006B70;stroke-width:0.5;" x1="503.5453" x2="513.5453" y1="60.5547" y2="50.5547"/><line style="stroke:#006B70;stroke-width:0.5;" x1="286.89" x2="503.5453" y1="60.5547" y2="60.5547"/><line style="stroke:#006B70;stroke-width:0.5;" x1="503.5453" x2="503.5453" y1="60.5547" y2="113.5313"/><text fill="#181818" font-family="sans-serif" font-size="14" font-style="italic" lengthAdjust="spacing" textLength="44.3311" x="373.0521" y="84.0898">&#171;host&#187;</text><text fill="#181818" font-family="sans-serif" font-size="14" lengthAdjust="spacing" textLength="186.6553" x="301.89" y="100.5781">Android foreground service</text></g><!--entity GO--><g class="entity" data-qualified-name="GO" data-source-line="9" id="ent0003"><rect fill="#005F7F" filter="url(#f1ow4i15g0myxx)" height="52.9766" rx="6" ry="6" style="stroke:#00BAC6;stroke-width:0.5;" width="199.0469" x="300.69" y="198.7747"/><text fill="#FAFAFA" font-family="sans-serif" font-size="14" font-style="italic" lengthAdjust="spacing" textLength="40.0244" x="380.2012" y="222.3098">&#171;app&#187;</text><text fill="#FAFAFA" font-family="sans-serif" font-size="14" lengthAdjust="spacing" textLength="179.0469" x="310.69" y="238.7981">Embedded Go tsnet server</text></g><!--entity WV--><g class="entity" data-qualified-name="WV" data-source-line="10" id="ent0004"><rect fill="#005F7F" filter="url(#f1ow4i15g0myxx)" height="69.4648" rx="6" ry="6" style="stroke:#00BAC6;stroke-width:0.5;" width="208.665" x="535.88" y="337.0047"/><text fill="#FAFAFA" font-family="sans-serif" font-size="14" font-style="italic" lengthAdjust="spacing" textLength="40.0244" x="620.2003" y="360.5398">&#171;app&#187;</text><text fill="#FAFAFA" font-family="sans-serif" font-size="14" lengthAdjust="spacing" textLength="60.375" x="610.025" y="377.0281">WebView</text><text fill="#FAFAFA" font-family="sans-serif" font-size="14" lengthAdjust="spacing" textLength="188.665" x="545.88" y="393.5164">(WASM build over localhost)</text></g><!--entity HDR--><g class="entity" data-qualified-name="HDR" data-source-line="11" id="ent0005"><rect fill="#005F7F" filter="url(#f1ow4i15g0myxx)" height="69.4648" rx="6" ry="6" style="stroke:#00BAC6;stroke-width:0.5;" width="169.3926" x="641.52" y="190.5347"/><text fill="#FAFAFA" font-family="sans-serif" font-size="14" font-style="italic" lengthAdjust="spacing" textLength="40.0244" x="706.2041" y="214.0698">&#171;app&#187;</text><text fill="#FAFAFA" font-family="sans-serif" font-size="14" lengthAdjust="spacing" textLength="149.3926" x="651.52" y="230.5581">COOP / COEP headers</text><text fill="#FAFAFA" font-family="sans-serif" font-size="14" lengthAdjust="spacing" textLength="132.1318" x="660.1504" y="247.0464">(SharedArrayBuffer)</text></g><g class="entity" data-qualified-name="GMN10" data-source-line="19" id="ent0011"><path d="M6,343.7647 L6,399.6963 A0,0 0 0 0 6,399.6963 L500.4272,399.6963 A0,0 0 0 0 500.4272,399.6963 L500.4272,353.7647 L490.4272,343.7647 L285.02,343.7647 L373.93,252.0947 L277.02,343.7647 L6,343.7647 A0,0 0 0 0 6,343.7647" fill="#E5E4E4" filter="url(#f1ow4i15g0myxx)" style="stroke:#B4B3B3;stroke-width:0.5;"/><path d="M490.4272,343.7647 L490.4272,353.7647 L500.4272,353.7647 L490.4272,343.7647" fill="#E5E4E4" style="stroke:#B4B3B3;stroke-width:0.5;"/><text fill="#181818" font-family="sans-serif" font-size="13" lengthAdjust="spacing" textLength="473.4272" x="12" y="361.333">An embedded `tsnet` server serves the WASM UI over `localhost`; COOP /</text><text fill="#181818" font-family="sans-serif" font-size="13" lengthAdjust="spacing" textLength="432.2373" x="32.595" y="376.6436">COEP headers unlock `SharedArrayBuffer` for threaded WASM. State</text><text fill="#181818" font-family="sans-serif" font-size="13" lengthAdjust="spacing" textLength="244.5688" x="126.4292" y="391.9541">survives WebView / Activity recreation.</text></g><!--link SVC to GO--><g class="link" data-entity-1="ent0002" data-entity-2="ent0003" data-link-type="dependency" data-source-line="13" id="lnk6"><path d="M400.21,113.6847 C400.21,138.9947 400.21,168.5247 400.21,192.4147" fill="none" id="SVC-to-GO" style="stroke:#585858;stroke-width:2;"/><polygon fill="#585858" points="400.21,198.4147,404.21,189.4147,400.21,193.4147,396.21,189.4147,400.21,198.4147" style="stroke:#585858;stroke-width:2;"/><text fill="#181818" font-family="sans-serif" font-size="13" lengthAdjust="spacing" textLength="80.8311" x="401.21" y="157.103">own lifecycle</text></g><!--link GO to WV--><g class="link" data-entity-1="ent0003" data-entity-2="ent0004" data-link-type="dependency" data-source-line="14" id="lnk7"><path d="M448.75,252.2147 C469.41,263.5147 493.67,277.0947 515.21,290.0047 C539.81,304.7347 561.5596,318.589 583.9896,333.269" fill="none" id="GO-to-WV" style="stroke:#585858;stroke-width:2;"/><polygon fill="#585858" points="589.01,336.5547,583.6699,328.2792,584.8264,333.8166,579.289,334.973,589.01,336.5547" style="stroke:#585858;stroke-width:2;"/><text fill="#181818" font-family="sans-serif" font-size="13" lengthAdjust="spacing" textLength="130.3237" x="540.5" y="303.573">serve over 127.0.0.1</text></g><!--link WV to GO--><g class="link" data-entity-1="ent0004" data-entity-2="ent0003" data-link-type="dependency" data-source-line="16" id="lnk9"><path d="M535.46,341.5147 C529.63,339.9747 523.85,338.4547 518.21,337.0047 C462.89,322.7147 428.59,351.8647 393.21,307.0047 C381.19,291.7547 382.4146,275.2222 387.7046,257.9322" fill="none" id="WV-to-GO" style="stroke:#585858;stroke-width:2;"/><polygon fill="#585858" points="389.46,252.1947,383.0019,259.6306,387.9972,256.9759,390.6518,261.9712,389.46,252.1947" style="stroke:#585858;stroke-width:2;"/><text fill="#181818" font-family="sans-serif" font-size="13" lengthAdjust="spacing" textLength="112.2139" x="394.21" y="303.573">engine / P2P calls</text></g><!--link HDR to WV--><g class="link" data-entity-1="ent0005" data-entity-2="ent0004" data-link-type="dependency" data-source-line="15" id="lnk8"><path d="M711.44,260.3847 C704.65,275.0647 696.14,292.2047 687.21,307.0047 C681.18,317.0047 677.5313,322.5659 670.5913,331.9759" fill="none" id="HDR-to-WV" style="stroke:#585858;stroke-width:1;stroke-dasharray:1,3;"/><polygon fill="#585858" points="667.03,336.8047,675.5911,331.9357,669.9977,332.7807,669.1528,327.1873,667.03,336.8047" style="stroke:#585858;stroke-width:1;"/><text fill="#181818" font-family="sans-serif" font-size="13" lengthAdjust="spacing" textLength="144.4663" x="696.69" y="303.573">enable threaded WASM</text></g><?plantuml-src RLFDRjD04BxxAOPSQ0Nrjk5GoLILJ5g5I6rinQ6v897rxYHUS7QjtNMitdW8teKxZyAJC1k7qD0w1qkJcM--d_4hfKNTIeJA-yObZ5dUnMlbgxPi7LfXj4VjOs4shB5cY-PCSAOarPH_P1kkzBuUD-scZgXQ8znkIfGI9SmhfSyAj5kqy0OMQN4F2omV57RHQyXvWpQ1XR8uRhcLm63ELUq49mZlDFgtCBqf2XYUNrp2x-y_3Xoxheix6bk7iPvRm7BiNx6HArfHU9a0X9sp-UWvnBlOs3MRprY7fVM2qSGTRh5EG3CE9wujdRVSusbW6rHghWKcG8g_el2EYGgTEnE6Ymf-_GIkfJLAihNPc5BLo3pfTplvB8gq8Pjtpo3j6s5bYAyrhPOGsfJ00Jnvk8FYOGHNLvLn_lew8gMDqUGz30uMZqtl5VHxZkPxY7461C6RvXXX7yHdVRBBfMnLBS64f6f34OILfuCznEBXHOXHbkMKsYYxpQ52BYa2WYigRb6crlB73-rgXPPW2EFZpUo04GLPwMoMBRxSfvFfZccWcO3fDDHgXU9Hr1Y5sdzjWKhIY-tPNWmlutFwNKHXGz-TvVD9DatlzjsKMnbkghA1fDmTOXJ-Uf42whNIIBhoOGxaHEr2TXwXDDwR3PWLDKOqh07_fh3SPR3SXz2_72t4_kW_JNgkouEro_VGkqT0J_s3LbFFDrW-St4PhkLOGqm7JkT94AwbwmahzwaI-rHujQMF52mAcl7Aw3X2khIWvGy0?></g></svg>