<svg xmlns="http://www.w3.org/2000/svg" xmlns:xlink="http://www.w3.org/1999/xlink" contentStyleType="text/css" data-diagram-type="DESCRIPTION" height="527px" preserveAspectRatio="none" style="width:780px;height:527px;background:#FAFAFA;" version="1.1" viewBox="0 0 780 527" width="780px" zoomAndPan="magnify"><?plantuml 1.2026.3?><defs><filter height="300%" id="f1e1bt3m7pna0s" width="300%" x="-1" y="-1"><feGaussianBlur result="blurOut" stdDeviation="2"/><feColorMatrix in="blurOut" result="blurOut2" type="matrix" values="0 0 0 0 0 0 0 0 0 0 0 0 0 0 0 0 0 0 .4 0"/><feOffset dx="4" dy="4" in="blurOut2" result="blurOut3"/><feBlend in="SourceGraphic" in2="blurOut3" mode="normal"/></filter></defs><g><rect fill="#FAFAFA" height="527" style="stroke:none;stroke-width:1;" width="780" x="0" y="0"/><g class="title" data-source-line="2"><rect fill="none" height="33.5547" style="stroke:#585858;stroke-width:1;" width="298.418" x="237.7542" y="5"/><text fill="#005F7F" font-family="sans-serif" font-size="20" font-weight="700" lengthAdjust="spacing" textLength="288.418" x="242.7542" y="29.3359">Heartbeat Liveness Protocol</text></g><!--entity U--><g class="entity" data-qualified-name="U" data-source-line="7" id="ent0002"><rect fill="#005F7F" filter="url(#f1e1bt3m7pna0s)" height="52.9766" rx="6" ry="6" style="stroke:#00BAC6;stroke-width:0.5;" width="62.0244" x="530.82" y="51.5547"/><text fill="#FAFAFA" font-family="sans-serif" font-size="14" font-style="italic" lengthAdjust="spacing" textLength="40.0244" x="541.82" y="75.0898">&#171;app&#187;</text><text fill="#FAFAFA" font-family="sans-serif" font-size="14" lengthAdjust="spacing" textLength="27.6719" x="547.9963" y="91.5781">Unit</text></g><!--entity NX--><g class="entity" data-qualified-name="NX" data-source-line="8" id="ent0003"><rect fill="#005F7F" filter="url(#f1e1bt3m7pna0s)" height="52.9766" rx="6" ry="6" style="stroke:#00BAC6;stroke-width:0.5;" width="130.0586" x="352.8" y="181.5247"/><text fill="#FAFAFA" font-family="sans-serif" font-size="14" font-style="italic" lengthAdjust="spacing" textLength="40.0244" x="397.8171" y="205.0598">&#171;app&#187;</text><text fill="#FAFAFA" font-family="sans-serif" font-size="14" lengthAdjust="spacing" textLength="110.0586" x="362.8" y="221.5481">Nexus (monitor)</text></g><!--entity D--><g class="entity" data-qualified-name="D" data-source-line="9" id="ent0004"><rect fill="#CB2000" filter="url(#f1e1bt3m7pna0s)" height="69.4648" rx="6" ry="6" style="stroke:#CB2000;stroke-width:0.5;" width="141.666" x="7" y="311.5047"/><text fill="#FAFAFA" font-family="sans-serif" font-size="14" font-style="italic" lengthAdjust="spacing" textLength="48.2549" x="53.7056" y="335.0398">&#171;error&#187;</text><text fill="#FAFAFA" font-family="sans-serif" font-size="14" lengthAdjust="spacing" textLength="34.8291" x="60.4185" y="351.5281">Dead</text><text fill="#FAFAFA" font-family="sans-serif" font-size="14" lengthAdjust="spacing" textLength="121.666" x="17" y="368.0164">(&gt;1000 ms silent)</text></g><!--entity RS--><g class="entity" data-qualified-name="RS" data-source-line="10" id="ent0005"><rect fill="#005F7F" filter="url(#f1e1bt3m7pna0s)" height="52.9766" rx="6" ry="6" style="stroke:#00BAC6;stroke-width:0.5;" width="142.9717" x="320.35" y="457.9647"/><text fill="#FAFAFA" font-family="sans-serif" font-size="14" font-style="italic" lengthAdjust="spacing" textLength="40.0244" x="371.8236" y="481.4998">&#171;app&#187;</text><text fill="#FAFAFA" font-family="sans-serif" font-size="14" lengthAdjust="spacing" textLength="122.9717" x="330.35" y="497.9881">Respawn (penalty)</text></g><g class="entity" data-qualified-name="GMN10" data-source-line="18" id="ent0011"><path d="M183.46,318.2747 L183.46,374.2063 A0,0 0 0 0 183.46,374.2063 L652.211,374.2063 A0,0 0 0 0 652.211,374.2063 L652.211,328.2747 L642.211,318.2747 L421.83,318.2747 L417.83,234.9547 L413.83,318.2747 L183.46,318.2747 A0,0 0 0 0 183.46,318.2747" fill="#E5E4E4" filter="url(#f1e1bt3m7pna0s)" style="stroke:#B4B3B3;stroke-width:0.5;"/><path d="M642.211,318.2747 L642.211,328.2747 L652.211,328.2747 L642.211,318.2747" fill="#E5E4E4" style="stroke:#B4B3B3;stroke-width:0.5;"/><text fill="#181818" font-family="sans-serif" font-size="13" lengthAdjust="spacing" textLength="72.3125" x="216.063" y="335.843">Liveness by</text><text fill="#181818" font-family="sans-serif" font-size="13" font-weight="700" lengthAdjust="spacing" textLength="193.5718" x="292.4888" y="335.843">periodic heartbeat + timeout</text><text fill="#181818" font-family="sans-serif" font-size="13" lengthAdjust="spacing" textLength="120.4341" x="490.1739" y="335.843">(a failure detector):</text><text fill="#181818" font-family="sans-serif" font-size="13" lengthAdjust="spacing" textLength="447.751" x="189.46" y="351.1536">units report every 100 ms; silence past 1000 ms marks them dead and</text><text fill="#181818" font-family="sans-serif" font-size="13" lengthAdjust="spacing" textLength="186.6719" x="319.9996" y="366.4641">triggers a penalized respawn.</text></g><!--link U to NX--><g class="link" data-entity-1="ent0002" data-entity-2="ent0003" data-link-type="dependency" data-source-line="12" id="lnk6"><path d="M532.69,104.9347 C507.71,127.1447 476.385,154.9791 451.415,177.1691" fill="none" id="U-to-NX" style="stroke:#818D00;stroke-width:2;"/><polygon fill="#818D00" points="446.93,181.1547,456.3145,178.1662,450.6675,177.8333,451.0003,172.1863,446.93,181.1547" style="stroke:#818D00;stroke-width:2;"/><text fill="#181818" font-family="sans-serif" font-size="13" lengthAdjust="spacing" textLength="149.2271" x="499.45" y="148.093">heartbeat every 100 ms</text></g><!--link NX to D--><g class="link" data-entity-1="ent0003" data-entity-2="ent0004" data-link-type="dependency" data-source-line="13" id="lnk7"><path d="M353.08,234.9547 C294.8,258.3047 214.8696,290.3332 154.6696,314.4532" fill="none" id="NX-to-D" style="stroke:#CB2000;stroke-width:2;"/><polygon fill="#CB2000" points="149.1,316.6847,158.9421,317.0504,153.7413,314.8251,155.9667,309.6243,149.1,316.6847" style="stroke:#CB2000;stroke-width:2;"/><text fill="#181818" font-family="sans-serif" font-size="13" lengthAdjust="spacing" textLength="108.7861" x="279.29" y="278.073">1000 ms timeout</text></g><!--link D to RS--><g class="link" data-entity-1="ent0004" data-entity-2="ent0005" data-link-type="dependency" data-source-line="14" id="lnk8"><path d="M149.08,378.1447 C204.27,402.0847 274.3457,432.4866 326.4357,455.0866" fill="none" id="D-to-RS" style="stroke:#585858;stroke-width:1;stroke-dasharray:1,3;"/><polygon fill="#585858" points="331.94,457.4747,325.2757,450.223,327.3531,455.4846,322.0915,457.562,331.94,457.4747" style="stroke:#585858;stroke-width:1;"/><text fill="#181818" font-family="sans-serif" font-size="13" lengthAdjust="spacing" textLength="133.6499" x="263.96" y="424.533">respawn with penalty</text></g><!--link RS to U--><g class="link" data-entity-1="ent0005" data-entity-2="ent0002" data-link-type="dependency" data-source-line="15" id="lnk9"><path d="M463.68,479.0547 C529.55,470.7547 623.65,447.2147 669.83,380.9647 C732.55,291.0147 715.82,227.5947 657.83,134.5247 C643.28,111.1647 620.6461,98.6964 598.5461,90.3864" fill="none" id="RS-to-U" style="stroke:#585858;stroke-width:2;"/><polygon fill="#585858" points="592.93,88.2747,599.9463,95.1864,597.6101,90.0345,602.762,87.6983,592.93,88.2747" style="stroke:#585858;stroke-width:2;"/><text fill="#181818" font-family="sans-serif" font-size="13" lengthAdjust="spacing" textLength="54.1963" x="710.73" y="278.073">new unit</text></g><?plantuml-src RLB1Rjf04BtlLqmvj8O66vAKAcw4X6AYKX6WJgpsKAbQsmDiQ--kTjTG-cEvzyiw3eQIAZxOqioyD--DtoiXiwBA4TREQHi6WU5RVoNSkaehYoPJqg5qVgRAG1krGTNDU21ogWct2qekP5FtTLKMZAe5maVangN87Kp51YLQ2mkZdCfKmTx0Wciq8ToikSmDXzVme2fSdK4Y3HQ2fqHmoqLH6OG87MPE6GjBPI0-j2DXdH5fvJ27-vrrMDep-3IwkOF-rTK0l6W-WNxFx_SltmNdvuF1vON_z7dVflLJt60HWWmuUBPAYOaxh1kBseVaCiCGoDCFscm3lYAhjgkMNIorC6ZXpoD8_5NPW36wYbQI1g2LIE5QyFB3BIG0rzTSw-7m53IhUS0h5O6LQRV-0ys-lWIAaEVVf3ViztezA2rOKL2z0HCggbUXCSeynyLeDTzAy3IPBDpkT1t1ullZCaPgHt4y__BzSp9EnlK0IGbXVVojT4ApenFN0XZrzjDZUiVrD4a8uQ3FYH9LvLXq89ql7YRpsMXQhmp1DBAsb3bef37gx6VlHfFPayAaffIuXOfknPXK3Y5LpgaIr9BaCVYNjNG7dGvbJAXSP2UgtnwqT3hWSLWs8SkRaBL38gdfBOdIoZot-M5_w0n1S-kExafkVfB7DPR4mtEWJ1CBfNErGeejtriIlocfZLEVeSoXDl0N?></g></svg>