<svg xmlns="http://www.w3.org/2000/svg" xmlns:xlink="http://www.w3.org/1999/xlink" contentStyleType="text/css" data-diagram-type="DESCRIPTION" height="557px" preserveAspectRatio="none" style="width:799px;height:557px;background:#FAFAFA;" version="1.1" viewBox="0 0 799 557" width="799px" zoomAndPan="magnify"><?plantuml 1.2026.3?><defs><filter height="300%" id="f1mdamzahbie6u" width="300%" x="-1" y="-1"><feGaussianBlur result="blurOut" stdDeviation="2"/><feColorMatrix in="blurOut" result="blurOut2" type="matrix" values="0 0 0 0 0 0 0 0 0 0 0 0 0 0 0 0 0 0 .4 0"/><feOffset dx="4" dy="4" in="blurOut2" result="blurOut3"/><feBlend in="SourceGraphic" in2="blurOut3" mode="normal"/></filter></defs><g><rect fill="#FAFAFA" height="557" style="stroke:none;stroke-width:1;" width="799" x="0" y="0"/><g class="title" data-source-line="2"><rect fill="none" height="33.5547" style="stroke:#585858;stroke-width:1;" width="397.7344" x="197.2873" y="5"/><text fill="#005F7F" font-family="sans-serif" font-size="20" font-weight="700" lengthAdjust="spacing" textLength="387.7344" x="202.2873" y="29.3359">Serverless P2P &#8212; Tailscale + WebRTC</text></g><!--entity H--><g class="entity" data-qualified-name="H" data-source-line="8" id="ent0002"><rect fill="#005F7F" filter="url(#f1mdamzahbie6u)" height="69.4648" rx="6" ry="6" style="stroke:#00BAC6;stroke-width:0.5;" width="130.8037" x="67.18" y="51.5547"/><text fill="#FAFAFA" font-family="sans-serif" font-size="14" font-style="italic" lengthAdjust="spacing" textLength="40.0244" x="112.5696" y="75.0898">&#171;app&#187;</text><text fill="#FAFAFA" font-family="sans-serif" font-size="14" lengthAdjust="spacing" textLength="65.8301" x="99.6668" y="91.5781">Host peer</text><text fill="#FAFAFA" font-family="sans-serif" font-size="14" lengthAdjust="spacing" textLength="110.8037" x="77.18" y="108.0664">(room authority)</text></g><!--entity G--><g class="entity" data-qualified-name="G" data-source-line="9" id="ent0003"><rect fill="#005F7F" filter="url(#f1mdamzahbie6u)" height="52.9766" rx="6" ry="6" style="stroke:#00BAC6;stroke-width:0.5;" width="93.5479" x="375.81" y="487.4147"/><text fill="#FAFAFA" font-family="sans-serif" font-size="14" font-style="italic" lengthAdjust="spacing" textLength="40.0244" x="402.5717" y="510.9498">&#171;app&#187;</text><text fill="#FAFAFA" font-family="sans-serif" font-size="14" lengthAdjust="spacing" textLength="73.5479" x="385.81" y="527.4381">Guest peer</text></g><!--entity NET--><g class="entity" data-qualified-name="NET" data-source-line="10" id="ent0004"><polygon fill="#00BAC6" filter="url(#f1mdamzahbie6u)" points="296.28,208.0247,306.28,198.0247,468.8767,198.0247,468.8767,267.4895,458.8767,277.4895,296.28,277.4895,296.28,208.0247" style="stroke:#006B70;stroke-width:0.5;"/><line style="stroke:#006B70;stroke-width:0.5;" x1="458.8767" x2="468.8767" y1="208.0247" y2="198.0247"/><line style="stroke:#006B70;stroke-width:0.5;" x1="296.28" x2="458.8767" y1="208.0247" y2="208.0247"/><line style="stroke:#006B70;stroke-width:0.5;" x1="458.8767" x2="458.8767" y1="208.0247" y2="277.4895"/><text fill="#181818" font-family="sans-serif" font-size="14" font-style="italic" lengthAdjust="spacing" textLength="44.3311" x="355.4128" y="231.5598">&#171;host&#187;</text><text fill="#181818" font-family="sans-serif" font-size="14" lengthAdjust="spacing" textLength="111.46" x="321.8484" y="248.0481">Tailscale overlay</text><text fill="#181818" font-family="sans-serif" font-size="14" lengthAdjust="spacing" textLength="132.5967" x="311.28" y="264.5364">(100.x &#183; WireGuard)</text></g><!--entity DC--><g class="entity" data-qualified-name="DC" data-source-line="11" id="ent0005"><path d="M11,360.9647 L168.1641,360.9647 C173.1641,360.9647 173.1641,382.453 173.1641,382.453 C173.1641,382.453 173.1641,403.9412 168.1641,403.9412 L11,403.9412 C6,403.9412 6,382.453 6,382.453 C6,382.453 6,360.9647 11,360.9647" fill="#CBDB2A" filter="url(#f1mdamzahbie6u)" style="stroke:#818D00;stroke-width:0.5;"/><path d="M168.1641,360.9647 C163.1641,360.9647 163.1641,382.453 163.1641,382.453 C163.1641,403.9412 168.1641,403.9412 168.1641,403.9412" fill="none" style="stroke:#818D00;stroke-width:0.5;"/><text fill="#181818" font-family="sans-serif" font-size="14" font-style="italic" lengthAdjust="spacing" textLength="52.7119" x="58.2261" y="379.4998">&#171;async&#187;</text><text fill="#181818" font-family="sans-serif" font-size="14" lengthAdjust="spacing" textLength="147.1641" x="11" y="395.9881">WebRTC data channel</text></g><g class="entity" data-qualified-name="GMN11" data-source-line="20" id="ent0012"><path d="M207.94,354.4847 L207.94,410.4163 L685.2222,410.4163 L685.2222,364.4847 L675.2222,354.4847 L207.94,354.4847" fill="#E5E4E4" filter="url(#f1mdamzahbie6u)" style="stroke:#B4B3B3;stroke-width:0.5;"/><path d="M675.2222,354.4847 L675.2222,364.4847 L685.2222,364.4847 L675.2222,354.4847" fill="#E5E4E4" style="stroke:#B4B3B3;stroke-width:1;"/><text fill="#181818" font-family="sans-serif" font-size="13" lengthAdjust="spacing" textLength="456.2822" x="213.94" y="372.053">No backend: Tailscale gives direct `100.x` reachability, so peers open a</text><text fill="#181818" font-family="sans-serif" font-size="13" font-weight="700" lengthAdjust="spacing" textLength="144.936" x="220.3987" y="387.3636">WebRTC data channel</text><text fill="#181818" font-family="sans-serif" font-size="13" lengthAdjust="spacing" textLength="294.3154" x="369.4481" y="387.3636">directly (no STUN/TURN/relay). The host is the</text><text fill="#181818" font-family="sans-serif" font-size="13" lengthAdjust="spacing" textLength="98.5474" x="392.8074" y="402.6741">room authority.</text></g><!--link H to NET--><g class="link" data-entity-1="ent0002" data-entity-2="ent0004" data-link-type="dependency" data-source-line="13" id="lnk6"><path d="M189.62,121.3947 C227.67,144.1347 272.6303,171.0156 312.2503,194.7056" fill="none" id="H-to-NET" style="stroke:#585858;stroke-width:2;"/><polygon fill="#585858" points="317.4,197.7847,311.7283,189.7329,313.1086,195.2187,307.6228,196.5991,317.4,197.7847" style="stroke:#585858;stroke-width:2;"/><text fill="#181818" font-family="sans-serif" font-size="13" lengthAdjust="spacing" textLength="67.6089" x="266.08" y="164.593">join tailnet</text></g><!--link G to NET--><g class="link" data-entity-1="ent0003" data-entity-2="ent0004" data-link-type="dependency" data-source-line="14" id="lnk7"><path d="M469.69,506.0147 C564.89,490.0447 765.94,444.7847 702.58,354.4847 C650.24,279.8947 550.7535,253.9202 475.2035,244.4602" fill="none" id="G-to-NET" style="stroke:#585858;stroke-width:2;"/><polygon fill="#585858" points="469.25,243.7147,477.6833,248.8019,474.2113,244.3359,478.6772,240.8639,469.25,243.7147" style="stroke:#585858;stroke-width:2;"/><text fill="#181818" font-family="sans-serif" font-size="13" lengthAdjust="spacing" textLength="67.6089" x="715.7" y="387.523">join tailnet</text></g><!--link NET to DC--><g class="link" data-entity-1="ent0004" data-entity-2="ent0005" data-link-type="dependency" data-source-line="15" id="lnk8"><path d="M296.18,262.8847 C261.41,274.1947 221.58,289.2347 187.58,307.4847 C159.97,322.3047 136.3265,340.6028 117.3065,356.8128" fill="none" id="NET-to-DC" style="stroke:#585858;stroke-width:2;"/><polygon fill="#585858" points="112.74,360.7047,122.1844,357.9112,116.5454,357.4615,116.9952,351.8225,112.74,360.7047" style="stroke:#585858;stroke-width:2;"/><text fill="#181818" font-family="sans-serif" font-size="13" lengthAdjust="spacing" textLength="221.3301" x="188.58" y="321.053">direct reachability (no STUN/TURN)</text></g><!--link H to DC--><g class="link" data-entity-1="ent0002" data-entity-2="ent0005" data-link-type="dependency" data-source-line="16" id="lnk9"><path d="M127.61,121.3247 C118.63,182.7247 100.8481,304.3778 93.5081,354.5778" fill="none" id="H-to-DC" style="stroke:#818D00;stroke-width:2;"/><polygon fill="#818D00" points="92.64,360.5147,97.9,352.1881,93.3634,355.5673,89.9842,351.0307,92.64,360.5147" style="stroke:#818D00;stroke-width:2;"/><text fill="#181818" font-family="sans-serif" font-size="13" lengthAdjust="spacing" textLength="131.0156" x="117.06" y="242.823">board state + moves</text></g><!--link DC to G--><g class="link" data-entity-1="ent0005" data-entity-2="ent0003" data-link-type="dependency" data-source-line="17" id="lnk10"><path d="M143.45,404.3947 C207.79,429.4047 308.7678,468.6604 369.9278,492.4404" fill="none" id="DC-to-G" style="stroke:#818D00;stroke-width:2;"/><polygon fill="#818D00" points="375.52,494.6147,368.5813,487.6251,370.8599,492.8028,365.6822,495.0813,375.52,494.6147" style="stroke:#818D00;stroke-width:2;"/><text fill="#181818" font-family="sans-serif" font-size="13" lengthAdjust="spacing" textLength="28.1455" x="277.02" y="453.983">sync</text></g><!--link NET to GMN11--><g class="link" data-entity-1="ent0004" data-entity-2="ent0012" data-link-type="association" data-source-line="20" id="lnk13"><path d="M404.16,277.9647 C409.12,287.5147 414.22,297.7747 418.58,307.4847 C425.39,322.6447 432.02,339.9947 437.11,354.0847" fill="none" id="NET-GMN11" style="stroke:#585858;stroke-width:1;stroke-dasharray:7,7;"/></g><?plantuml-src XPF1Rjf048RlVeefbm9Dl8GUAbbHf0WGgPGw58ouL6hMwm5lQdRTtJKEjpv4twNtFagVfBF6IKWJgNknDPxvzvj_nc-a4aML8UJEbJPYpF0wt4YNLsbbqGYj72eN2hrbfT4xrAU2CvbHJBezstAfsdXOLjiYe6Y1i42pGrEWjJ0Rpk3FZv-GS5bOmUdZErXXEaz6mLkOyH9D16EjKAsno4vW9GrEAsxeDHul5Z0Sd7rewX_mwheEQqhQ-AG3bXUnx2bOPclINhWi0cZlUYdnFjHcmv8vgp4rJZ2gkCOT5X4eng5hgzGwmntsFAPlK74bC09gzWw5iqparDwfq5payFiNa5SxAT2oSbY6pWO1ePM-BmUTAsqTb8ZcY-eQhRV0AvThGmRsEl1uk8KhUfoVyxAyk3YkdrRO2XoblpXKFpsgLvg6sfpEa_VQZuNlYUDiC0ZlFVYZuyH24l4a8OcSY4dZUuNLGQJJ-fXnnq7aN2aiEgyoZ4SDWzqhGGg1R-boFhzPVHrTtop7ZNu4TregS8Ibq0NJ_wVuq27bq-N769fB8iW8NJWmI3FWgIp8KEWg3Oja6RDaEOzxHzT_NawMaxOmrTGlM4VpfNNSaYisy5-ECprL1BwDWBoan5GxHxFJQmyO0CGQKYw-eQ8zUt9u8qdiWUosSVds6U49MDtCqe8kKG4dgNx_5Nlx_LQc-AShPf1cs0iXoUctzRibBRWSIUZvTeK1mO67_mi0?></g></svg>