<svg xmlns="http://www.w3.org/2000/svg" xmlns:xlink="http://www.w3.org/1999/xlink" contentStyleType="text/css" data-diagram-type="DESCRIPTION" height="532px" preserveAspectRatio="none" style="width:506px;height:532px;background:#FAFAFA;" version="1.1" viewBox="0 0 506 532" width="506px" zoomAndPan="magnify"><?plantuml 1.2026.3?><defs><filter height="300%" id="fbglqsfi726h4" width="300%" x="-1" y="-1"><feGaussianBlur result="blurOut" stdDeviation="2"/><feColorMatrix in="blurOut" result="blurOut2" type="matrix" values="0 0 0 0 0 0 0 0 0 0 0 0 0 0 0 0 0 0 .4 0"/><feOffset dx="4" dy="4" in="blurOut2" result="blurOut3"/><feBlend in="SourceGraphic" in2="blurOut3" mode="normal"/></filter></defs><g><rect fill="#FAFAFA" height="532" style="stroke:none;stroke-width:1;" width="506" x="0" y="0"/><g class="title" data-source-line="2"><rect fill="none" height="33.5547" style="stroke:#585858;stroke-width:1;" width="260.2344" x="119.6557" y="5"/><text fill="#005F7F" font-family="sans-serif" font-size="20" font-weight="700" lengthAdjust="spacing" textLength="250.2344" x="124.6557" y="29.3359">WebGPU On-Device LLM</text></g><!--entity BR--><g class="entity" data-qualified-name="BR" data-source-line="7" id="ent0002"><rect fill="#005F7F" filter="url(#fbglqsfi726h4)" height="52.9766" rx="6" ry="6" style="stroke:#00BAC6;stroke-width:0.5;" width="100.042" x="156.33" y="63.3047"/><text fill="#FAFAFA" font-family="sans-serif" font-size="14" font-style="italic" lengthAdjust="spacing" textLength="40.0244" x="186.3388" y="86.8398">&#171;app&#187;</text><text fill="#FAFAFA" font-family="sans-serif" font-size="14" lengthAdjust="spacing" textLength="80.042" x="166.33" y="103.3281">Browser tab</text></g><!--entity GPU--><g class="entity" data-qualified-name="GPU" data-source-line="8" id="ent0003"><polygon fill="#00BAC6" filter="url(#fbglqsfi726h4)" points="160.65,362.4847,170.65,352.4847,310.0523,352.4847,310.0523,405.4612,300.0523,415.4612,160.65,415.4612,160.65,362.4847" style="stroke:#006B70;stroke-width:0.5;"/><line style="stroke:#006B70;stroke-width:0.5;" x1="300.0523" x2="310.0523" y1="362.4847" y2="352.4847"/><line style="stroke:#006B70;stroke-width:0.5;" x1="160.65" x2="300.0523" y1="362.4847" y2="362.4847"/><line style="stroke:#006B70;stroke-width:0.5;" x1="300.0523" x2="300.0523" y1="362.4847" y2="415.4612"/><text fill="#181818" font-family="sans-serif" font-size="14" font-style="italic" lengthAdjust="spacing" textLength="44.3311" x="208.1856" y="386.0198">&#171;host&#187;</text><text fill="#181818" font-family="sans-serif" font-size="14" lengthAdjust="spacing" textLength="109.4023" x="175.65" y="402.5081">WebGPU (VRAM)</text></g><!--entity RT--><g class="entity" data-qualified-name="RT" data-source-line="9" id="ent0004"><rect fill="#005F7F" filter="url(#fbglqsfi726h4)" height="69.4648" rx="6" ry="6" style="stroke:#00BAC6;stroke-width:0.5;" width="130.0928" x="285.3" y="206.0247"/><text fill="#FAFAFA" font-family="sans-serif" font-size="14" font-style="italic" lengthAdjust="spacing" textLength="40.0244" x="330.3342" y="229.5598">&#171;app&#187;</text><text fill="#FAFAFA" font-family="sans-serif" font-size="14" lengthAdjust="spacing" textLength="98.9229" x="300.885" y="246.0481">WASM runtime</text><text fill="#FAFAFA" font-family="sans-serif" font-size="14" lengthAdjust="spacing" textLength="110.0928" x="295.3" y="262.5364">(MLC / WebLLM)</text></g><!--entity W--><g class="entity" data-qualified-name="W" data-source-line="10" id="ent0005"><path d="M291.16,60.5547 C291.16,50.5547 386.3529,50.5547 386.3529,50.5547 C386.3529,50.5547 481.5457,50.5547 481.5457,60.5547 L481.5457,119.0195 C481.5457,129.0195 386.3529,129.0195 386.3529,129.0195 C386.3529,129.0195 291.16,129.0195 291.16,119.0195 L291.16,60.5547" fill="#E5E4E4" filter="url(#fbglqsfi726h4)" style="stroke:#585858;stroke-width:0.5;"/><path d="M291.16,60.5547 C291.16,70.5547 386.3529,70.5547 386.3529,70.5547 C386.3529,70.5547 481.5457,70.5547 481.5457,60.5547" fill="none" style="stroke:#585858;stroke-width:0.5;"/><text fill="#181818" font-family="sans-serif" font-size="14" font-style="italic" lengthAdjust="spacing" textLength="32.293" x="370.2064" y="88.0898">&#171;db&#187;</text><text fill="#181818" font-family="sans-serif" font-size="14" lengthAdjust="spacing" textLength="98.1709" x="337.2674" y="104.5781">Model weights</text><text fill="#181818" font-family="sans-serif" font-size="14" lengthAdjust="spacing" textLength="170.3857" x="301.16" y="121.0664">(quantized &#183; f32 fallback)</text></g><g class="entity" data-qualified-name="GMN10" data-source-line="18" id="ent0011"><path d="M6,476.4647 L6,517.0858 A0,0 0 0 0 6,517.0858 L464.7026,517.0858 A0,0 0 0 0 464.7026,517.0858 L464.7026,486.4647 L454.7026,476.4647 L239.35,476.4647 L235.35,415.8347 L231.35,476.4647 L6,476.4647 A0,0 0 0 0 6,476.4647" fill="#E5E4E4" filter="url(#fbglqsfi726h4)" style="stroke:#B4B3B3;stroke-width:0.5;"/><path d="M454.7026,476.4647 L454.7026,486.4647 L464.7026,486.4647 L454.7026,476.4647" fill="#E5E4E4" style="stroke:#B4B3B3;stroke-width:0.5;"/><text fill="#181818" font-family="sans-serif" font-size="13" lengthAdjust="spacing" textLength="151.6899" x="19.6299" y="494.033">A quantized model runs</text><text fill="#181818" font-family="sans-serif" font-size="13" font-weight="700" lengthAdjust="spacing" textLength="152.9468" x="175.4331" y="494.033">entirely in the browser</text><text fill="#181818" font-family="sans-serif" font-size="13" lengthAdjust="spacing" textLength="109.5796" x="332.4932" y="494.033">on WebGPU &#8212; no</text><text fill="#181818" font-family="sans-serif" font-size="13" lengthAdjust="spacing" textLength="437.7026" x="12" y="509.3436">server. f32 fallback where f16 is unsupported; weights warm-loaded.</text></g><!--link BR to RT--><g class="link" data-entity-1="ent0002" data-entity-2="ent0004" data-link-type="dependency" data-source-line="12" id="lnk6"><path d="M231.43,116.7347 C255.29,141.4147 287.1289,174.3617 313.2789,201.4017" fill="none" id="BR-to-RT" style="stroke:#585858;stroke-width:2;"/><polygon fill="#585858" points="317.45,205.7147,314.0688,196.4644,313.9741,202.1205,308.318,202.0259,317.45,205.7147" style="stroke:#585858;stroke-width:2;"/><text fill="#181818" font-family="sans-serif" font-size="13" lengthAdjust="spacing" textLength="46.668" x="287.97" y="172.593">prompt</text></g><!--link W to RT--><g class="link" data-entity-1="ent0005" data-entity-2="ent0004" data-link-type="dependency" data-source-line="13" id="lnk7"><path d="M377.08,129.1547 C371.37,152.7747 365.5294,176.9526 360.0194,199.7526" fill="none" id="W-to-RT" style="stroke:#585858;stroke-width:2;"/><polygon fill="#585858" points="358.61,205.5847,364.6122,197.7761,359.7845,200.7246,356.8361,195.8969,358.61,205.5847" style="stroke:#585858;stroke-width:2;"/><text fill="#181818" font-family="sans-serif" font-size="13" lengthAdjust="spacing" textLength="69.2783" x="370.43" y="172.593">warm-load</text></g><!--link RT to GPU--><g class="link" data-entity-1="ent0004" data-entity-2="ent0003" data-link-type="dependency" data-source-line="14" id="lnk8"><path d="M322.51,275.9447 C303.63,299.1247 282.6689,324.8724 264.3689,347.3424" fill="none" id="RT-to-GPU" style="stroke:#585858;stroke-width:2;"/><polygon fill="#585858" points="260.58,351.9947,269.3649,347.5422,263.7374,348.1178,263.1619,342.4903,260.58,351.9947" style="stroke:#585858;stroke-width:2;"/><text fill="#181818" font-family="sans-serif" font-size="13" lengthAdjust="spacing" textLength="89.7368" x="297.3" y="319.053">compile + run</text></g><!--link GPU to BR--><g class="link" data-entity-1="ent0003" data-entity-2="ent0002" data-link-type="dependency" data-source-line="15" id="lnk9"><path d="M231.78,352.4147 C229.31,330.9147 226,301.4547 223.35,275.4847 C217.58,218.7847 212.1792,158.1722 209.0792,122.4822" fill="none" id="GPU-to-BR" style="stroke:#585858;stroke-width:2;"/><polygon fill="#585858" points="208.56,116.5047,205.3538,125.8171,208.9927,121.4859,213.3238,125.1248,208.56,116.5047" style="stroke:#585858;stroke-width:2;"/><text fill="#181818" font-family="sans-serif" font-size="13" lengthAdjust="spacing" textLength="42.3833" x="224.35" y="245.823">tokens</text></g><?plantuml-src TLBRZjCm47tFLmnzeIqaeLr0A5GhTHS4ApLiLIxb0MdbE9F6r9TWEusM9pw2V-6TJ-5B68UM5cdncprppfnpFFU4vh8j4Mhl6vUbgMLTiX6-RelMeUL6UzG-uKQbZJKxD35dgIZfJVZRL36Xz-z9qoePqQj4M6FnQlaUhdNy0dU28omMUNGVbgn1cuKgtU7Nj-ymXzTYKyTBj9MnYcbglTBnXJKTpGuekbPeCHHUwetG-12O_IXssVJnP9fCdZnxT4R42zoXp42d38QkBPotpECeJ0pITE3DW6H-HkvTocjqBkQ6yHf-_W3iUTEWIgfBAO9Txs38hQ4sAVJMmSrVrhJ38fPIfKhotl8eYYYSncZ2mU0WtRDY07STvk1Y1J2RiQOvFu-qeUZxCzY7DlomckUZmN-meMCsgutp13wPkvw_pS6sz2iAF-bXlhY4T1_qWOlGgtV7oIKZZSpHz45E8YHqI5_X7Q6_j8o8lc8PugdEfb0nAGl6jqH5B6lYA0kYY8AJ-MfrlRx9vrTlUle-PzNuQ0rtr3fcLImDAwDmFoa7Nna4GuBsvq6m4eMtavOmB0DljgXTHC5vXC9uRnIOAk0Z8eIZTDMR8Xu7ut5OLulo5eG6NnFmppUDns3qOLl3Fcf3B5JOeKt-SGvTJMi8rUGf20T4sZQDiHxBvuVSZjwmJ2BK9GI9lm40?></g></svg>