<svg xmlns="http://www.w3.org/2000/svg" xmlns:xlink="http://www.w3.org/1999/xlink" contentStyleType="text/css" data-diagram-type="DESCRIPTION" height="574px" preserveAspectRatio="none" style="width:770px;height:574px;background:#FAFAFA;" version="1.1" viewBox="0 0 770 574" width="770px" zoomAndPan="magnify"><?plantuml 1.2026.3?><defs><filter height="300%" id="frd15swx6u992" width="300%" x="-1" y="-1"><feGaussianBlur result="blurOut" stdDeviation="2"/><feColorMatrix in="blurOut" result="blurOut2" type="matrix" values="0 0 0 0 0 0 0 0 0 0 0 0 0 0 0 0 0 0 .4 0"/><feOffset dx="4" dy="4" in="blurOut2" result="blurOut3"/><feBlend in="SourceGraphic" in2="blurOut3" mode="normal"/></filter></defs><g><rect fill="#FAFAFA" height="574" style="stroke:none;stroke-width:1;" width="770" x="0" y="0"/><g class="title" data-source-line="2"><rect fill="none" height="33.5547" style="stroke:#585858;stroke-width:1;" width="345.2539" x="209.3004" y="5"/><text fill="#005F7F" font-family="sans-serif" font-size="20" font-weight="700" lengthAdjust="spacing" textLength="335.2539" x="214.3004" y="29.3359">Capability / Effect Authorization</text></g><!--entity M--><g class="entity" data-qualified-name="M" data-source-line="10" id="ent0002"><path d="M100.335,64.1591 C103.9274,57.478 108.0337,57.2117 112.585,63.2344 C117.2733,56.704 121.4957,55.9371 126.623,62.7734 C129.8544,55.9043 133.9984,56.1249 139.1316,60.6934 C141.5136,53.7401 146.389,54.0359 150.8882,58.5163 C153.9773,53.095 159.1778,51.3298 163.3333,57.3571 C166.4822,51.3244 170.6612,51.7355 174.9256,56.1151 C179.3461,50.5547 183.9832,51.6443 187.3939,57.2433 C192.6717,52.8228 197.8353,52.5506 200.4186,60.1605 C203.1679,54.1527 208.2206,55.0915 211.3747,59.7445 C215.8144,54.3395 221.3264,54.8797 224.6754,61.0029 C229.1021,56.6248 235.2615,57.2906 236.4588,64.3345 C240.159,56.7856 245.9736,58.3419 250.0901,63.9015 C258.9115,68.06 259.6617,75.0177 252.1467,81.1267 C260.9403,85.9302 260.3389,91.7277 252.5962,96.9996 C258.0509,101.7093 258.2651,108.4708 250.447,111.167 C258.4778,117.653 256.5264,123.5041 248.2259,127.8107 C245.7794,134.6275 239.5772,134.1009 235.9901,128.9797 C233.0223,134.4451 228.611,134.4837 225.0613,129.5937 C221.4865,134.7728 216.1029,135.533 212.717,129.3877 C209.5973,136.3588 204.284,135.872 199.7496,130.9271 C196.6798,137.4771 190.6629,137.7633 187.4533,131.0568 C184.2088,135.7603 179.5203,137.0799 176.3409,130.9898 C172.2159,136.4037 167.1167,136.1563 163.4324,130.477 C158.4287,136.8553 153.6736,136.7396 150.1904,129.0461 C146.8889,134.6084 143.3148,134.2657 139.37,129.7359 C135.5626,136.816 129.3752,135.7177 126.0085,129.2995 C122.5585,134.3679 117.024,133.4192 114.5793,128.1842 C110.8932,133.8282 105.45,134.1937 101.5619,128.4144 C93.4535,125.5597 90.4848,118.1427 98.166,112.0178 C89.0367,109.6606 87.5255,104.2401 93.1492,96.9658 C85.9511,90.8846 88.2786,84.5932 96.1455,81.4147 C89.913,75.2773 92.2351,66.8167 100.335,64.1591" fill="#585858" filter="url(#frd15swx6u992)"/><text fill="#FAFAFA" font-family="sans-serif" font-size="14" font-style="italic" lengthAdjust="spacing" textLength="51.9873" x="148.2078" y="84.0976">&#171;cloud&#187;</text><text fill="#FAFAFA" font-family="sans-serif" font-size="14" lengthAdjust="spacing" textLength="105.2119" x="121.5955" y="100.5859">Model proposal</text><text fill="#FAFAFA" font-family="sans-serif" font-size="14" lengthAdjust="spacing" textLength="133.9229" x="107.24" y="117.0742">(command / action)</text></g><!--entity CLS--><g class="entity" data-qualified-name="CLS" data-source-line="11" id="ent0003"><rect fill="#005F7F" filter="url(#frd15swx6u992)" height="52.9766" rx="6" ry="6" style="stroke:#00BAC6;stroke-width:0.5;" width="200.4824" x="73.96" y="220.2724"/><text fill="#FAFAFA" font-family="sans-serif" font-size="14" font-style="italic" lengthAdjust="spacing" textLength="40.0244" x="154.189" y="243.8076">&#171;app&#187;</text><text fill="#FAFAFA" font-family="sans-serif" font-size="14" lengthAdjust="spacing" textLength="180.4824" x="83.96" y="260.2959">Command-effect classifier</text></g><!--entity GATE--><g class="entity" data-qualified-name="GATE" data-source-line="12" id="ent0004"><rect fill="#005F7F" filter="url(#frd15swx6u992)" height="69.4648" rx="6" ry="6" style="stroke:#00BAC6;stroke-width:0.5;" width="165.9404" x="91.24" y="358.4924"/><text fill="#FAFAFA" font-family="sans-serif" font-size="14" font-style="italic" lengthAdjust="spacing" textLength="40.0244" x="154.198" y="382.0276">&#171;app&#187;</text><text fill="#FAFAFA" font-family="sans-serif" font-size="14" lengthAdjust="spacing" textLength="110.9063" x="118.7571" y="398.5159">Capability check</text><text fill="#FAFAFA" font-family="sans-serif" font-size="14" lengthAdjust="spacing" textLength="145.9404" x="101.24" y="415.0042">(granted work-mode)</text></g><!--entity CAP--><g class="entity" data-qualified-name="CAP" data-source-line="13" id="ent0005"><rect fill="#E5E4E4" filter="url(#frd15swx6u992)" height="69.4648" rx="6" ry="6" style="stroke:#585858;stroke-width:0.5;" width="217.1689" x="362.62" y="212.0224"/><text fill="#181818" font-family="sans-serif" font-size="14" font-style="italic" lengthAdjust="spacing" textLength="32.293" x="455.058" y="235.5576">&#171;db&#187;</text><text fill="#181818" font-family="sans-serif" font-size="14" lengthAdjust="spacing" textLength="108.0078" x="417.2006" y="252.0459">Capability grant</text><text fill="#181818" font-family="sans-serif" font-size="14" lengthAdjust="spacing" textLength="197.1689" x="372.62" y="268.5342">(scope &#183; work-mode &#183; expiry)</text></g><!--entity EXE--><g class="entity" data-qualified-name="EXE" data-source-line="14" id="ent0006"><rect fill="#005F7F" filter="url(#frd15swx6u992)" height="52.9766" rx="6" ry="6" style="stroke:#00BAC6;stroke-width:0.5;" width="124.4121" x="7" y="504.9524"/><text fill="#FAFAFA" font-family="sans-serif" font-size="14" font-style="italic" lengthAdjust="spacing" textLength="40.0244" x="49.1938" y="528.4876">&#171;app&#187;</text><text fill="#FAFAFA" font-family="sans-serif" font-size="14" lengthAdjust="spacing" textLength="104.4121" x="17" y="544.9759">Effect executed</text></g><!--entity DEN--><g class="entity" data-qualified-name="DEN" data-source-line="15" id="ent0007"><rect fill="#CB2000" filter="url(#frd15swx6u992)" height="52.9766" rx="6" ry="6" style="stroke:#CB2000;stroke-width:0.5;" width="70.2549" x="245.08" y="504.9524"/><text fill="#FAFAFA" font-family="sans-serif" font-size="14" font-style="italic" lengthAdjust="spacing" textLength="48.2549" x="256.08" y="528.4876">&#171;error&#187;</text><text fill="#FAFAFA" font-family="sans-serif" font-size="14" lengthAdjust="spacing" textLength="47.6328" x="256.391" y="544.9759">Denied</text></g><g class="entity" data-qualified-name="GMN13" data-source-line="24" id="ent0014"><path d="M292.55,365.2624 L292.55,421.1941 A0,0 0 0 0 292.55,421.1941 L755.8547,421.1941 A0,0 0 0 0 755.8547,421.1941 L755.8547,375.2624 L745.8547,365.2624 L518.16,365.2624 L483.63,281.6324 L510.16,365.2624 L292.55,365.2624 A0,0 0 0 0 292.55,365.2624" fill="#E5E4E4" filter="url(#frd15swx6u992)" style="stroke:#B4B3B3;stroke-width:0.5;"/><path d="M745.8547,365.2624 L745.8547,375.2624 L755.8547,375.2624 L745.8547,365.2624" fill="#E5E4E4" style="stroke:#B4B3B3;stroke-width:0.5;"/><text fill="#181818" font-family="sans-serif" font-size="13" lengthAdjust="spacing" textLength="442.3047" x="298.55" y="382.8308">Work-mode ladder: read_only &lt; workspace_write &lt; commit &lt; deploy.</text><text fill="#181818" font-family="sans-serif" font-size="13" lengthAdjust="spacing" textLength="84.4746" x="342.3647" y="398.1413">Authority is a</text><text fill="#181818" font-family="sans-serif" font-size="13" font-weight="700" lengthAdjust="spacing" textLength="115.2734" x="430.9526" y="398.1413">first-class object</text><text fill="#181818" font-family="sans-serif" font-size="13" lengthAdjust="spacing" textLength="146.7007" x="550.3393" y="398.1413">&#8212; auditable, expirable,</text><text fill="#181818" font-family="sans-serif" font-size="13" lengthAdjust="spacing" textLength="361.9941" x="338.7053" y="413.4519">narrowable; the proposal never widens it (least privilege).</text></g><!--link M to CLS--><g class="link" data-entity-1="ent0002" data-entity-2="ent0003" data-link-type="dependency" data-source-line="17" id="lnk8"><path d="M174.21,135.1724 C174.21,161.9824 174.21,190.8724 174.21,214.2224" fill="none" id="M-to-CLS" style="stroke:#585858;stroke-width:2;"/><polygon fill="#585858" points="174.21,220.2224,178.21,211.2224,174.21,215.2224,170.21,211.2224,174.21,220.2224" style="stroke:#585858;stroke-width:2;"/><text fill="#181818" font-family="sans-serif" font-size="13" lengthAdjust="spacing" textLength="58.1509" x="175.21" y="178.5908">proposes</text></g><!--link CLS to GATE--><g class="link" data-entity-1="ent0003" data-entity-2="ent0004" data-link-type="dependency" data-source-line="18" id="lnk9"><path d="M174.21,273.5824 C174.21,297.2024 174.21,326.3024 174.21,352.1924" fill="none" id="CLS-to-GATE" style="stroke:#585858;stroke-width:2;"/><polygon fill="#585858" points="174.21,358.1924,178.21,349.1924,174.21,353.1924,170.21,349.1924,174.21,358.1924" style="stroke:#585858;stroke-width:2;"/><text fill="#181818" font-family="sans-serif" font-size="13" lengthAdjust="spacing" textLength="67.2852" x="175.21" y="325.0608">effect kind</text></g><!--link CAP to GATE--><g class="link" data-entity-1="ent0005" data-entity-2="ent0004" data-link-type="dependency" data-source-line="19" id="lnk10"><path d="M401.2,281.8124 C353.95,304.7924 297.2257,332.3882 249.9157,355.3982" fill="none" id="CAP-to-GATE" style="stroke:#585858;stroke-width:1;stroke-dasharray:1,3;"/><polygon fill="#585858" points="244.52,358.0224,254.363,357.6831,249.0164,355.8355,250.864,350.4889,244.52,358.0224" style="stroke:#585858;stroke-width:1;"/><text fill="#181818" font-family="sans-serif" font-size="13" lengthAdjust="spacing" textLength="74.0771" x="332.61" y="325.0608">active grant</text></g><!--link GATE to EXE--><g class="link" data-entity-1="ent0004" data-entity-2="ent0006" data-link-type="dependency" data-source-line="20" id="lnk11"><path d="M93.67,428.3524 C82.69,436.4524 72.9,446.2324 66.21,457.9524 C58.21,471.9524 57.8509,484.1858 60.6009,498.8058" fill="none" id="GATE-to-EXE" style="stroke:#585858;stroke-width:2;"/><polygon fill="#585858" points="61.71,504.7024,63.9774,495.1181,60.7857,499.7886,56.1152,496.597,61.71,504.7024" style="stroke:#585858;stroke-width:2;"/><text fill="#181818" font-family="sans-serif" font-size="13" lengthAdjust="spacing" textLength="169.7046" x="67.21" y="471.5208">within granted work-mode</text></g><!--link GATE to DEN--><g class="link" data-entity-1="ent0004" data-entity-2="ent0007" data-link-type="dependency" data-source-line="21" id="lnk12"><path d="M214.27,428.3624 C223.71,437.4424 233.32,447.6224 241.21,457.9524 C252.22,472.3824 259.2904,484.9297 266.2604,499.3597" fill="none" id="GATE-to-DEN" style="stroke:#CB2000;stroke-width:2;"/><polygon fill="#CB2000" points="268.87,504.7624,268.5574,494.9185,266.6953,500.2601,261.3537,498.3981,268.87,504.7624" style="stroke:#CB2000;stroke-width:2;"/><text fill="#181818" font-family="sans-serif" font-size="13" lengthAdjust="spacing" textLength="115.5908" x="253.6" y="471.5208">exceeds capability</text></g><?plantuml-src ZLJDRXCn4BxlKmmzG5irku3u4Q6g5AKH5ALDbBOg1wJAiITP4wzjsTviqnCFmRjmvr5u4iRUaAO517j8x97dcs---NaaDLUrG2X3iBvR58ur-Lo6ifxM7XqtEg0EEJTLOPrPekbmLaX1DXbMHSMaNjjpMrSg8wj2w3FBfbBH2oXWC9iX3z2hGscSl6L16fqzWJ6pwBfmAfL2Tm0JG_42z4rbZPVn3VpuyXL6qy_atDa2F3K25Un-U7y9pvy-VRL7K9UJOHSWPK09D4sJevFpClZSk7aHc5hu8fJefIV2Rb5rsajknUoEo3bJuHOTF8PpNZg38hAwA176pWJY41cP6PpecN5LIWAaJdphG6xdAn-myWVmxCthb_SvHLKRdEQL33cAkbX7YaGBMq-Lv0dEHo7NaGf26E8ILHTUH8fHOSqqnoxGeoY9BvWjKKKQtxy19eqPILpS7VEvEG0gNCMqQAs5LKoJESkuChM0-EsqWX8i2S_K9xsxTg7IiKHcRmUsF-RXDFuV7YQGewECnw9fQWdOwRU-dJOUSCMybpE9xZx6DbX_U1x1cBKFeEvgpala2s8sTupQKK1ZtA9J4UzjQWJrhdSn-0TKWY0eput5ADq6A-buOwLR4MharHj7Nc9w7slTpdY3d0el_fBNFLg3ZuC_PdYCMlu7mZRKyU0iGg5pnX5ObYhHcqn6LzVzuUZoE5wJeDrrHT5dwTw-EUsTd2Mef5HttJUma5faAT_ssMXySJ8wwmr_FOjziCHMkopP7i2b3BlGqDwWeVYjJDi-0_gTH9-K2b6uuOZ20z_KACiqpG5CJGYcYZD7p3A0gqsX51CYZgn39gwDLYiuJB6yPHol6oV9-p1rlWnq46YLMUK4iTv1r0RI0uFz_PbqFdHIbu99gsP_F-qTLWiPs5JXGTiJwKW8cf7oJRoz1TeYcx41JTFgI03QZ1uexAv2HllCEhcK2kUubsT8CnKp-ma0?></g></svg>