<svg xmlns="http://www.w3.org/2000/svg" xmlns:xlink="http://www.w3.org/1999/xlink" contentStyleType="text/css" data-diagram-type="DESCRIPTION" height="430px" preserveAspectRatio="none" style="width:1000px;height:430px;background:#FAFAFA;" version="1.1" viewBox="0 0 1000 430" width="1000px" zoomAndPan="magnify"><?plantuml 1.2026.3?><defs><filter height="300%" id="f1putqrzzpvfas" width="300%" x="-1" y="-1"><feGaussianBlur result="blurOut" stdDeviation="2"/><feColorMatrix in="blurOut" result="blurOut2" type="matrix" values="0 0 0 0 0 0 0 0 0 0 0 0 0 0 0 0 0 0 .4 0"/><feOffset dx="4" dy="4" in="blurOut2" result="blurOut3"/><feBlend in="SourceGraphic" in2="blurOut3" mode="normal"/></filter></defs><g><rect fill="#FAFAFA" height="430" style="stroke:none;stroke-width:1;" width="1000" x="0" y="0"/><g class="title" data-source-line="2"><rect fill="none" height="33.5547" style="stroke:#585858;stroke-width:1;" width="414.1211" x="289.5948" y="5"/><text fill="#005F7F" font-family="sans-serif" font-size="20" font-weight="700" lengthAdjust="spacing" textLength="404.1211" x="294.5948" y="29.3359">Privilege Separation &#8212; Face / Governor</text></g><!--entity FACE--><g class="entity" data-qualified-name="FACE" data-source-line="8" id="ent0002"><rect fill="#005F7F" filter="url(#f1putqrzzpvfas)" height="69.4648" rx="6" ry="6" style="stroke:#00BAC6;stroke-width:0.5;" width="225.29" x="107.16" y="51.5547"/><text fill="#FAFAFA" font-family="sans-serif" font-size="14" font-style="italic" lengthAdjust="spacing" textLength="40.0244" x="199.7928" y="75.0898">&#171;app&#187;</text><text fill="#FAFAFA" font-family="sans-serif" font-size="14" lengthAdjust="spacing" textLength="30.208" x="204.701" y="91.5781">Face</text><text fill="#FAFAFA" font-family="sans-serif" font-size="14" lengthAdjust="spacing" textLength="205.29" x="117.16" y="108.0664">(unprivileged &#183; conversational)</text></g><!--entity GOV--><g class="entity" data-qualified-name="GOV" data-source-line="9" id="ent0003"><rect fill="#CB2000" filter="url(#f1putqrzzpvfas)" height="69.4648" rx="6" ry="6" style="stroke:#CB2000;stroke-width:0.5;" width="170.7324" x="41.44" y="198.0147"/><text fill="#FAFAFA" font-family="sans-serif" font-size="14" font-style="italic" lengthAdjust="spacing" textLength="48.2549" x="102.6788" y="221.5498">&#171;error&#187;</text><text fill="#FAFAFA" font-family="sans-serif" font-size="14" lengthAdjust="spacing" textLength="62.5078" x="95.5523" y="238.0381">Governor</text><text fill="#FAFAFA" font-family="sans-serif" font-size="14" lengthAdjust="spacing" textLength="150.7324" x="51.44" y="254.5264">(privileged &#183; authority)</text></g><!--entity EFF--><g class="entity" data-qualified-name="EFF" data-source-line="10" id="ent0004"><rect fill="#005F7F" filter="url(#f1putqrzzpvfas)" height="69.4648" rx="6" ry="6" style="stroke:#00BAC6;stroke-width:0.5;" width="126.9756" x="140.32" y="344.4847"/><text fill="#FAFAFA" font-family="sans-serif" font-size="14" font-style="italic" lengthAdjust="spacing" textLength="40.0244" x="183.7956" y="368.0198">&#171;app&#187;</text><text fill="#FAFAFA" font-family="sans-serif" font-size="14" lengthAdjust="spacing" textLength="90.4053" x="158.6052" y="384.5081">Effect / grant</text><text fill="#FAFAFA" font-family="sans-serif" font-size="14" lengthAdjust="spacing" textLength="106.9756" x="150.32" y="400.9964">(governor-only)</text></g><g class="entity" data-qualified-name="GMN9" data-source-line="18" id="ent0010"><path d="M540.3,204.7847 L540.3,260.7163 A0,0 0 0 0 540.3,260.7163 L985.3107,260.7163 A0,0 0 0 0 985.3107,260.7163 L985.3107,214.7847 L975.3107,204.7847 L663.75,204.7847 L332.64,117.3047 L655.75,204.7847 L540.3,204.7847 A0,0 0 0 0 540.3,204.7847" fill="#E5E4E4" filter="url(#f1putqrzzpvfas)" style="stroke:#B4B3B3;stroke-width:0.5;"/><path d="M975.3107,204.7847 L975.3107,214.7847 L985.3107,214.7847 L975.3107,204.7847" fill="#E5E4E4" style="stroke:#B4B3B3;stroke-width:0.5;"/><text fill="#181818" font-family="sans-serif" font-size="13" lengthAdjust="spacing" textLength="53.5044" x="563.7751" y="222.353">The face</text><text fill="#181818" font-family="sans-serif" font-size="13" font-weight="700" lengthAdjust="spacing" textLength="123.792" x="621.3928" y="222.353">cannot grant itself</text><text fill="#181818" font-family="sans-serif" font-size="13" lengthAdjust="spacing" textLength="203.5376" x="749.298" y="222.353">authority. Enforced by a process</text><text fill="#181818" font-family="sans-serif" font-size="13" lengthAdjust="spacing" textLength="424.0107" x="546.3" y="237.6636">split + compile-time import guards (qmail / OpenSSH privsep), not</text><text fill="#181818" font-family="sans-serif" font-size="13" lengthAdjust="spacing" textLength="83.1924" x="716.7092" y="252.9741">by discipline.</text></g><!--link FACE to GOV--><g class="link" data-entity-1="ent0002" data-entity-2="ent0003" data-link-type="dependency" data-source-line="12" id="lnk5"><path d="M106.75,97.8947 C73.39,106.9147 40.34,122.9147 19.8,151.0147 C6,169.8947 14.4028,183.2783 35.9228,196.3583" fill="none" id="FACE-to-GOV" style="stroke:#585858;stroke-width:2;"/><polygon fill="#585858" points="41.05,199.4747,35.4367,191.382,36.7773,196.8777,31.2816,198.2183,41.05,199.4747" style="stroke:#585858;stroke-width:2;"/><text fill="#181818" font-family="sans-serif" font-size="13" lengthAdjust="spacing" textLength="94.1484" x="20.8" y="164.583">propose action</text></g><!--link GOV to FACE--><g class="link" data-entity-1="ent0003" data-entity-2="ent0002" data-link-type="dependency" data-source-line="14" id="lnk7"><path d="M135.39,197.6147 C140.07,182.6147 146.78,165.2147 155.8,151.0147 C162.53,140.4247 167.0983,134.508 175.9783,125.498" fill="none" id="GOV-to-FACE" style="stroke:#585858;stroke-width:1;stroke-dasharray:1,3;"/><polygon fill="#585858" points="180.19,121.2247,171.0235,124.8269,176.6803,124.7858,176.7214,130.4425,180.19,121.2247" style="stroke:#585858;stroke-width:1;"/><text fill="#181818" font-family="sans-serif" font-size="13" lengthAdjust="spacing" textLength="98.5029" x="156.8" y="164.583">verdict / record</text></g><!--link GOV to EFF--><g class="link" data-entity-1="ent0003" data-entity-2="ent0004" data-link-type="dependency" data-source-line="13" id="lnk6"><path d="M141.14,267.6147 C147.64,282.2447 155.67,299.4247 163.8,314.4847 C169.14,324.3647 172.2175,329.7245 178.1875,339.2245" fill="none" id="GOV-to-EFF" style="stroke:#585858;stroke-width:2;"/><polygon fill="#585858" points="181.38,344.3047,179.9781,334.5561,178.7196,340.0712,173.2045,338.8128,181.38,344.3047" style="stroke:#585858;stroke-width:2;"/><text fill="#181818" font-family="sans-serif" font-size="13" lengthAdjust="spacing" textLength="90.8794" x="164.8" y="311.053">decide &amp; issue</text></g><!--link FACE to EFF--><g class="link" data-entity-1="ent0002" data-entity-2="ent0004" data-link-type="dependency" data-source-line="15" id="lnk8"><path d="M246.02,121.3247 C251.67,130.4847 256.84,140.7247 259.8,151.0147 C279.9,220.8347 285.43,246.4947 259.8,314.4847 C255.75,325.2347 252.835,330.7554 245.365,339.6254" fill="none" id="FACE-to-EFF" style="stroke:#CB2000;stroke-width:2;"/><polygon fill="#CB2000" points="241.5,344.2147,250.357,339.9073,244.7208,340.3902,244.2379,334.754,241.5,344.2147" style="stroke:#CB2000;stroke-width:2;"/><text fill="#181818" font-family="sans-serif" font-size="13" lengthAdjust="spacing" textLength="221.3428" x="278.01" y="237.813">blocked &#8212; import-guard boundary</text></g><?plantuml-src NPF1RXCn48Rl-nH33z26P5rHJgkgKeGsRQNIH4aB790YnvxT61pRsDw4t7W8teKxZyAJC7QJah27rTgU-MR-txClb16wamZB65se6FDyKxOgBhj55z0BQoAQM0gxOixRDTg1u4n9sbDnorPScTr-wRgLBcXN8qoyMYkDBS8C7VSyAclWpu-VCE82WS4r9NXZVV4A9joXhoZ3hctemyWhbBeFDzRWTiLDdqvmdQgPzW1R1y5rnlRXSLRVttwYIgBpr1EyEJ-_8F3ZzAu2U9QrsMnA4cJKzzBwbX65YotBwC02YlCB5b4iMTDfFNUfgP25sJ37EEVwQ54wsL29EqhN5RnDCf87XXk15L3a5nI4vMw9Ead__GkSSlHjaFMXtQddNLmUB1TSV4KZML6GsOxqcmWdoR3FvhGpRgzT9XfT2oM5x03NPoV00uo6xsgulEJENLqT8lPc4-OOakhRP1dbfuSOr-CFG0pqtlfZIjqqf8dkhlNSH6BjsnvOe_U47QKUZU2vaoBtDPnEnn_dxuUtzpaerybEEHiGk4X2YhpxNsHcLI1HqD31Ir0XT7WOEPuyt8xlXtTF-YkWhgJAdNeKril3-ZMzfmVKXRRakSoZgKYgZuEsurx2mdP6Shyj2cCZqZ96kmBRv285mCCIeKcptEi9RYZcoHPGCQ1kUhr_tfPGcyPwGLKMM-19ii0GY16SLX5UGpAPBcKGrGftNK3k8i3fD_h1D4aPEpIpsGsa2mpeplf0DOb1IAc2K2wDLbdG-AG3_0i0?></g></svg>