<svg xmlns="http://www.w3.org/2000/svg" xmlns:xlink="http://www.w3.org/1999/xlink" contentStyleType="text/css" data-diagram-type="DESCRIPTION" height="759px" preserveAspectRatio="none" style="width:1206px;height:759px;background:#FAFAFA;" version="1.1" viewBox="0 0 1206 759" width="1206px" zoomAndPan="magnify"><?plantuml 1.2026.6?><defs><filter height="300%" id="fo805sekxoeit" width="300%" x="-1" y="-1"><feGaussianBlur result="blurOut" stdDeviation="2"/><feColorMatrix in="blurOut" result="blurOut2" type="matrix" values="0 0 0 0 0 0 0 0 0 0 0 0 0 0 0 0 0 0 .4 0"/><feOffset dx="4" dy="4" in="blurOut2" result="blurOut3"/><feBlend in="SourceGraphic" in2="blurOut3" mode="normal"/></filter></defs><g><rect fill="#FAFAFA" height="759" style="stroke:none;stroke-width:1;" width="1206" x="0" y="0"/><g class="title" data-source-line="231"><rect fill="none" height="33.2813" style="stroke:#585858;stroke-width:1;" width="541.8652" x="328.8355" y="5"/><text fill="#005F7F" font-family="sans-serif" font-size="20" font-weight="700" lengthAdjust="spacing" textLength="531.8652" x="333.8355" y="28.5645">Algorithms &#8596; Data Types &#8212; Tree / Graph-Based</text></g><!--cluster Containers--><g class="cluster" data-qualified-name="Containers" data-source-line="237" id="ent0001"><rect fill="#FAFAFA" filter="url(#fo805sekxoeit)" height="110.6" rx="6" ry="6" style="stroke:#585858;stroke-width:1;" width="696" x="418.03" y="51.498"/><text fill="#181818" font-family="sans-serif" font-size="20" font-weight="700" lengthAdjust="spacing" textLength="122.1387" x="704.9607" y="72.0625">Containers</text></g><!--cluster Core paradigms--><g class="cluster" data-qualified-name="Core paradigms" data-source-line="247" id="ent0009"><rect fill="#FAFAFA" filter="url(#fo805sekxoeit)" height="268.18" rx="6" ry="6" style="stroke:#585858;stroke-width:1;" width="460" x="62.03" y="211.098"/><text fill="#181818" font-family="sans-serif" font-size="20" font-weight="700" lengthAdjust="spacing" textLength="178.2129" x="202.9236" y="231.6625">Core paradigms</text></g><!--cluster Tree/graph algorithms--><g class="cluster" data-qualified-name="Tree.graph algorithms" data-source-line="254" id="ent0014"><rect fill="#FAFAFA" filter="url(#fo805sekxoeit)" height="373.72" rx="6" ry="6" style="stroke:#585858;stroke-width:1;" width="341" x="671.03" y="368.688"/><text fill="#181818" font-family="sans-serif" font-size="20" font-weight="700" lengthAdjust="spacing" textLength="252.8027" x="715.1286" y="389.2525">Tree/graph algorithms</text></g><!--entity A--><g class="entity" data-qualified-name="Containers.A" data-source-line="238" id="ent0002"><rect fill="#E5E4E4" filter="url(#fo805sekxoeit)" height="52.5938" rx="6" ry="6" style="stroke:#585858;stroke-width:0.5;" width="57.9531" x="525.05" y="93.498"/><text fill="#181818" font-family="sans-serif" font-size="14" font-style="italic" lengthAdjust="spacing" textLength="34.9043" x="536.5744" y="116.4932">&#171;db&#187;</text><text fill="#181818" font-family="sans-serif" font-size="14" lengthAdjust="spacing" textLength="37.9531" x="535.05" y="132.79">Array</text></g><!--entity M--><g class="entity" data-qualified-name="Containers.M" data-source-line="239" id="ent0003"><rect fill="#E5E4E4" filter="url(#fo805sekxoeit)" height="52.5938" rx="6" ry="6" style="stroke:#585858;stroke-width:0.5;" width="56.9043" x="433.58" y="93.498"/><text fill="#181818" font-family="sans-serif" font-size="14" font-style="italic" lengthAdjust="spacing" textLength="34.9043" x="444.58" y="116.4932">&#171;db&#187;</text><text fill="#181818" font-family="sans-serif" font-size="14" lengthAdjust="spacing" textLength="29.5449" x="447.2597" y="132.79">Map</text></g><!--entity ST--><g class="entity" data-qualified-name="Containers.ST" data-source-line="240" id="ent0004"><rect fill="#E5E4E4" filter="url(#fo805sekxoeit)" height="52.5938" rx="6" ry="6" style="stroke:#585858;stroke-width:0.5;" width="58.7598" x="748.65" y="93.498"/><text fill="#181818" font-family="sans-serif" font-size="14" font-style="italic" lengthAdjust="spacing" textLength="34.9043" x="760.5777" y="116.4932">&#171;db&#187;</text><text fill="#181818" font-family="sans-serif" font-size="14" lengthAdjust="spacing" textLength="38.7598" x="758.65" y="132.79">Stack</text></g><!--entity Q--><g class="entity" data-qualified-name="Containers.Q" data-source-line="241" id="ent0005"><rect fill="#E5E4E4" filter="url(#fo805sekxoeit)" height="52.5938" rx="6" ry="6" style="stroke:#585858;stroke-width:0.5;" width="65.9922" x="1032.03" y="93.498"/><text fill="#181818" font-family="sans-serif" font-size="14" font-style="italic" lengthAdjust="spacing" textLength="34.9043" x="1047.5739" y="116.4932">&#171;db&#187;</text><text fill="#181818" font-family="sans-serif" font-size="14" lengthAdjust="spacing" textLength="45.9922" x="1042.03" y="132.79">Queue</text></g><!--entity G--><g class="entity" data-qualified-name="Containers.G" data-source-line="242" id="ent0006"><rect fill="#E5E4E4" filter="url(#fo805sekxoeit)" height="52.5938" rx="6" ry="6" style="stroke:#585858;stroke-width:0.5;" width="62.9434" x="934.56" y="93.498"/><text fill="#181818" font-family="sans-serif" font-size="14" font-style="italic" lengthAdjust="spacing" textLength="34.9043" x="948.5795" y="116.4932">&#171;db&#187;</text><text fill="#181818" font-family="sans-serif" font-size="14" lengthAdjust="spacing" textLength="42.9434" x="944.56" y="132.79">Graph</text></g><!--entity H--><g class="entity" data-qualified-name="Containers.H" data-source-line="243" id="ent0007"><rect fill="#E5E4E4" filter="url(#fo805sekxoeit)" height="52.5938" rx="6" ry="6" style="stroke:#585858;stroke-width:0.5;" width="56.9043" x="842.58" y="93.498"/><text fill="#181818" font-family="sans-serif" font-size="14" font-style="italic" lengthAdjust="spacing" textLength="34.9043" x="853.58" y="116.4932">&#171;db&#187;</text><text fill="#181818" font-family="sans-serif" font-size="14" lengthAdjust="spacing" textLength="36.6064" x="852.7289" y="132.79">Heap</text></g><!--entity UF--><g class="entity" data-qualified-name="Containers.UF" data-source-line="244" id="ent0008"><rect fill="#E5E4E4" filter="url(#fo805sekxoeit)" height="52.5938" rx="6" ry="6" style="stroke:#585858;stroke-width:0.5;" width="95.2021" x="618.43" y="93.498"/><text fill="#181818" font-family="sans-serif" font-size="14" font-style="italic" lengthAdjust="spacing" textLength="34.9043" x="648.5789" y="116.4932">&#171;db&#187;</text><text fill="#181818" font-family="sans-serif" font-size="14" lengthAdjust="spacing" textLength="75.2021" x="628.43" y="132.79">Union-Find</text></g><!--entity BS--><g class="entity" data-qualified-name="Core paradigms.BS" data-source-line="248" id="ent0010"><rect fill="#00BAC6" filter="url(#fo805sekxoeit)" height="52.5938" rx="6" ry="6" style="stroke:#006B70;stroke-width:0.5;" width="117.8428" x="294.11" y="410.688"/><text fill="#181818" font-family="sans-serif" font-size="14" font-style="italic" lengthAdjust="spacing" textLength="47.3525" x="329.3551" y="433.6832">&#171;host&#187;</text><text fill="#181818" font-family="sans-serif" font-size="14" lengthAdjust="spacing" textLength="97.8428" x="304.11" y="449.98">Binary Search</text></g><!--entity DC--><g class="entity" data-qualified-name="Core paradigms.DC" data-source-line="249" id="ent0011"><rect fill="#00BAC6" filter="url(#fo805sekxoeit)" height="52.5938" rx="6" ry="6" style="stroke:#006B70;stroke-width:0.5;" width="143.5049" x="362.28" y="253.098"/><text fill="#181818" font-family="sans-serif" font-size="14" font-style="italic" lengthAdjust="spacing" textLength="47.3525" x="410.3562" y="276.0932">&#171;host&#187;</text><text fill="#181818" font-family="sans-serif" font-size="14" lengthAdjust="spacing" textLength="123.5049" x="372.28" y="292.39">Divide &amp; Conquer</text></g><!--entity DP--><g class="entity" data-qualified-name="Core paradigms.DP" data-source-line="250" id="ent0012"><rect fill="#00BAC6" filter="url(#fo805sekxoeit)" height="52.5938" rx="6" ry="6" style="stroke:#006B70;stroke-width:0.5;" width="181.1025" x="78.48" y="410.688"/><text fill="#181818" font-family="sans-serif" font-size="14" font-style="italic" lengthAdjust="spacing" textLength="47.3525" x="145.355" y="433.6832">&#171;host&#187;</text><text fill="#181818" font-family="sans-serif" font-size="14" lengthAdjust="spacing" textLength="161.1025" x="88.48" y="449.98">Dynamic Programming</text></g><!--entity JS--><g class="entity" data-qualified-name="Core paradigms.JS" data-source-line="251" id="ent0013"><rect fill="#00BAC6" filter="url(#fo805sekxoeit)" height="52.5938" rx="6" ry="6" style="stroke:#006B70;stroke-width:0.5;" width="108.3818" x="213.84" y="253.098"/><text fill="#181818" font-family="sans-serif" font-size="14" font-style="italic" lengthAdjust="spacing" textLength="47.3525" x="244.3546" y="276.0932">&#171;host&#187;</text><text fill="#181818" font-family="sans-serif" font-size="14" lengthAdjust="spacing" textLength="88.3818" x="223.84" y="292.39">Jump Search</text></g><!--entity GR--><g class="entity" data-qualified-name="Tree.graph algorithms.GR" data-source-line="255" id="ent0015"><rect fill="#005F7F" filter="url(#fo805sekxoeit)" height="52.5938" rx="6" ry="6" style="stroke:#00BAC6;stroke-width:0.5;" width="84.5928" x="886.73" y="673.818"/><text fill="#FAFAFA" font-family="sans-serif" font-size="14" font-style="italic" lengthAdjust="spacing" textLength="43.4834" x="907.2847" y="696.8132">&#171;app&#187;</text><text fill="#FAFAFA" font-family="sans-serif" font-size="14" lengthAdjust="spacing" textLength="64.5928" x="896.73" y="713.11">Graphing</text></g><!--entity PATH--><g class="entity" data-qualified-name="Tree.graph algorithms.PATH" data-source-line="256" id="ent0016"><rect fill="#005F7F" filter="url(#fo805sekxoeit)" height="52.5938" rx="6" ry="6" style="stroke:#00BAC6;stroke-width:0.5;" width="140.4355" x="686.81" y="551.248"/><text fill="#FAFAFA" font-family="sans-serif" font-size="14" font-style="italic" lengthAdjust="spacing" textLength="43.4834" x="735.2861" y="574.2432">&#171;app&#187;</text><text fill="#FAFAFA" font-family="sans-serif" font-size="14" lengthAdjust="spacing" textLength="120.4355" x="696.81" y="590.54">Pathing / Dijkstra</text></g><!--entity PRI--><g class="entity" data-qualified-name="Tree.graph algorithms.PRI" data-source-line="257" id="ent0017"><rect fill="#005F7F" filter="url(#fo805sekxoeit)" height="52.5938" rx="6" ry="6" style="stroke:#00BAC6;stroke-width:0.5;" width="120.8643" x="792.6" y="410.688"/><text fill="#FAFAFA" font-family="sans-serif" font-size="14" font-style="italic" lengthAdjust="spacing" textLength="43.4834" x="831.2904" y="433.6832">&#171;app&#187;</text><text fill="#FAFAFA" font-family="sans-serif" font-size="14" lengthAdjust="spacing" textLength="100.8643" x="802.6" y="449.98">Priority / top-K</text></g><!--entity SORT--><g class="entity" data-qualified-name="Tree.graph algorithms.SORT" data-source-line="258" id="ent0018"><rect fill="#005F7F" filter="url(#fo805sekxoeit)" height="52.5938" rx="6" ry="6" style="stroke:#00BAC6;stroke-width:0.5;" width="70.3467" x="686.85" y="410.688"/><text fill="#FAFAFA" font-family="sans-serif" font-size="14" font-style="italic" lengthAdjust="spacing" textLength="43.4834" x="700.2816" y="433.6832">&#171;app&#187;</text><text fill="#FAFAFA" font-family="sans-serif" font-size="14" lengthAdjust="spacing" textLength="50.3467" x="696.85" y="449.98">Sorting</text></g><!--entity TOPO--><g class="entity" data-qualified-name="Tree.graph algorithms.TOPO" data-source-line="259" id="ent0019"><rect fill="#005F7F" filter="url(#fo805sekxoeit)" height="52.5938" rx="6" ry="6" style="stroke:#00BAC6;stroke-width:0.5;" width="133.1143" x="862.47" y="551.248"/><text fill="#FAFAFA" font-family="sans-serif" font-size="14" font-style="italic" lengthAdjust="spacing" textLength="43.4834" x="907.2854" y="574.2432">&#171;app&#187;</text><text fill="#FAFAFA" font-family="sans-serif" font-size="14" lengthAdjust="spacing" textLength="113.1143" x="872.47" y="590.54">Topological Sort</text></g><g class="entity" data-qualified-name="GMN41" data-source-line="286" id="ent0042"><path d="M16.67,542.278 L16.67,612.8093 A0,0 0 0 0 16.67,612.8093 L321.3848,612.8093 A0,0 0 0 0 321.3848,612.8093 L321.3848,552.278 L311.3848,542.278 L173.03,542.278 L169.03,463.728 L165.03,542.278 L16.67,542.278 A0,0 0 0 0 16.67,542.278" fill="#E5E4E4" filter="url(#fo805sekxoeit)" style="stroke:#B4B3B3;stroke-width:0.5;"/><path d="M311.3848,542.278 L311.3848,552.278 L321.3848,552.278 L311.3848,542.278" fill="#E5E4E4" style="stroke:#B4B3B3;stroke-width:0.5;"/><text fill="#181818" font-family="sans-serif" font-size="13" lengthAdjust="spacing" textLength="283.7148" x="22.67" y="559.3449">1) classify (overlap + optimal substructure)</text><text fill="#181818" font-family="sans-serif" font-size="13" lengthAdjust="spacing" textLength="160.0054" x="84.5247" y="574.4778">2) minimal state params</text><text fill="#181818" font-family="sans-serif" font-size="13" lengthAdjust="spacing" textLength="133.3643" x="97.8453" y="589.6106">3) transition relation</text><text fill="#181818" font-family="sans-serif" font-size="13" lengthAdjust="spacing" textLength="189.6553" x="69.6998" y="604.7434">4) tabulation or memoization</text></g><!--link A to BS--><g class="link" data-entity-1="ent0002" data-entity-2="ent0010" data-link-type="dependency" data-source-line="262" id="lnk20"><path d="M536.74,146.338 C529.09,155.498 519.27,164.858 508.03,170.098 C492.6,177.288 371.96,176.328 355.03,178.098 C283.88,185.528 251.95,158.488 196.03,203.098 C140.88,247.078 94.66,301.348 143.03,352.688 C153.26,363.548 263.41,354.608 277.03,360.688 C300.94,371.368 318.4758,389.2005 332.1758,406.5905" fill="none" id="A-to-BS" style="stroke:#585858;stroke-width:2;"/><polygon fill="#585858" points="335.27,410.518,332.8425,400.973,332.1758,406.5905,326.5584,405.9237,335.27,410.518" style="stroke:#585858;stroke-width:2;stroke-linejoin:miter;stroke-miterlimit:10;"/></g><!--link A to JS--><g class="link" data-entity-1="ent0002" data-entity-2="ent0013" data-link-type="dependency" data-source-line="263" id="lnk21"><path d="M535.78,146.508 C528.19,155.338 518.67,164.428 508.03,170.098 C488.16,180.678 480.13,173.888 458.03,178.098 C407.5,187.718 390.27,178.618 345.03,203.098 C322.5,215.288 305.2726,232.1821 291.1126,248.8021" fill="none" id="A-to-JS" style="stroke:#585858;stroke-width:2;"/><polygon fill="#585858" points="287.87,252.608,296.7515,248.3514,291.1126,248.8021,290.662,243.1632,287.87,252.608" style="stroke:#585858;stroke-width:2;stroke-linejoin:miter;stroke-miterlimit:10;"/></g><!--link A to SORT--><g class="link" data-entity-1="ent0002" data-entity-2="ent0018" data-link-type="dependency" data-source-line="264" id="lnk22"><path d="M566.37,146.448 C583.78,182.358 616.8,249.528 647.03,305.688 C658.44,326.898 662.01,331.808 674.03,352.688 C685.18,372.078 695.3129,389.6562 704.8129,406.1362" fill="none" id="A-to-SORT" style="stroke:#585858;stroke-width:2;"/><polygon fill="#585858" points="707.31,410.468,706.2807,400.6731,704.8129,406.1362,699.3498,404.6685,707.31,410.468" style="stroke:#585858;stroke-width:2;stroke-linejoin:miter;stroke-miterlimit:10;"/></g><!--link M to DP--><g class="link" data-entity-1="ent0003" data-entity-2="ent0012" data-link-type="dependency" data-source-line="265" id="lnk23"><path d="M433.35,121.778 C345.99,125.408 86.04,141.318 35.03,203.098 C6,238.258 17.28,263.688 35.03,305.688 C53.91,350.378 92.3642,384.3979 124.4842,407.3879" fill="none" id="M-to-DP" style="stroke:#585858;stroke-width:1;stroke-dasharray:1,3;"/><polygon fill="#585858" points="128.55,410.298,123.5596,401.8071,124.4842,407.3879,118.9034,408.3125,128.55,410.298" style="stroke:#585858;stroke-width:1;stroke-linejoin:miter;stroke-miterlimit:10;"/><text fill="#181818" font-family="sans-serif" font-size="13" lengthAdjust="spacing" textLength="78.3364" x="36.03" y="283.9549">memo table</text></g><!--link ST to DC--><g class="link" data-entity-1="ent0004" data-entity-2="ent0011" data-link-type="dependency" data-source-line="266" id="lnk24"><path d="M758.83,146.348 C751.08,155.058 741.49,164.098 731.03,170.098 C717.56,177.808 711.87,173.538 697.03,178.098 C626.37,199.778 552.0216,228.9399 499.2216,250.7399" fill="none" id="ST-to-DC" style="stroke:#585858;stroke-width:1;stroke-dasharray:1,3;"/><polygon fill="#585858" points="494.6,252.648,504.4454,252.9106,499.2216,250.7399,501.3923,245.5161,494.6,252.648" style="stroke:#585858;stroke-width:1;stroke-linejoin:miter;stroke-miterlimit:10;"/><text fill="#181818" font-family="sans-serif" font-size="13" lengthAdjust="spacing" textLength="99.2964" x="698.03" y="191.1649">recursion stack</text></g><!--link UF to DC--><g class="link" data-entity-1="ent0008" data-entity-2="ent0011" data-link-type="dependency" data-source-line="267" id="lnk25"><path d="M638.93,146.568 C627.74,155.648 614.11,164.878 600.03,170.098 C575.59,179.148 504.65,163.548 483.03,178.098 C457.78,195.078 446.3087,224.1139 440.2587,247.7739" fill="none" id="UF-to-DC" style="stroke:#585858;stroke-width:1;stroke-dasharray:1,3;"/><polygon fill="#585858" points="439.02,252.618,445.1249,244.8895,440.2587,247.7739,437.3743,242.9077,439.02,252.618" style="stroke:#585858;stroke-width:1;stroke-linejoin:miter;stroke-miterlimit:10;"/><text fill="#181818" font-family="sans-serif" font-size="13" lengthAdjust="spacing" textLength="79.79" x="484.03" y="191.1649">DSU-on-tree</text></g><!--link G to GR--><g class="link" data-entity-1="ent0006" data-entity-2="ent0015" data-link-type="dependency" data-source-line="268" id="lnk26"><path d="M976.61,146.578 C1005.78,221.738 1080.86,445.868 1013.03,612.818 C1003.19,637.028 986.7529,654.9454 968.6029,670.2454" fill="none" id="G-to-GR" style="stroke:#585858;stroke-width:2;"/><polygon fill="#585858" points="964.78,673.468,974.2393,670.7257,968.6029,670.2454,969.0832,664.609,964.78,673.468" style="stroke:#585858;stroke-width:2;stroke-linejoin:miter;stroke-miterlimit:10;"/></g><!--link G to PATH--><g class="link" data-entity-1="ent0006" data-entity-2="ent0016" data-link-type="dependency" data-source-line="269" id="lnk27"><path d="M949.84,146.318 C923.86,185.478 869.27,260.578 806.03,305.688 C752.61,343.788 705.78,306.338 669.03,360.688 C637.51,407.298 647.68,435.228 669.03,487.278 C679.51,512.858 697.3891,531.8511 716.6391,547.6911" fill="none" id="G-to-PATH" style="stroke:#585858;stroke-width:2;"/><polygon fill="#585858" points="720.5,550.868,716.0919,542.0607,716.6391,547.6911,711.0087,548.2382,720.5,550.868" style="stroke:#585858;stroke-width:2;stroke-linejoin:miter;stroke-miterlimit:10;"/></g><!--link Q to PATH--><g class="link" data-entity-1="ent0005" data-entity-2="ent0016" data-link-type="dependency" data-source-line="270" id="lnk28"><path d="M1081.53,146.318 C1086.87,155.898 1092.14,167.128 1095.03,178.098 C1114.76,253.178 1133.73,282.758 1100.03,352.688 C1049.59,457.338 994.32,455.398 893.03,512.278 C868.44,526.088 844.9351,537.6042 820.7251,548.7042" fill="none" id="Q-to-PATH" style="stroke:#585858;stroke-width:1;stroke-dasharray:1,3;"/><polygon fill="#585858" points="816.18,550.788,826.0282,550.6732,820.7251,548.7042,822.694,543.4011,816.18,550.788" style="stroke:#585858;stroke-width:1;stroke-linejoin:miter;stroke-miterlimit:10;"/><text fill="#181818" font-family="sans-serif" font-size="13" lengthAdjust="spacing" textLength="82.0562" x="1108.48" y="348.7549">BFS shortest</text></g><!--link H to PRI--><g class="link" data-entity-1="ent0007" data-entity-2="ent0017" data-link-type="dependency" data-source-line="271" id="lnk29"><path d="M869.55,146.588 C866.17,205.838 858.1543,346.1161 854.7843,405.2861" fill="none" id="H-to-PRI" style="stroke:#585858;stroke-width:2;"/><polygon fill="#585858" points="854.5,410.278,859.0053,401.5201,854.7843,405.2861,851.0182,401.0652,854.5,410.278" style="stroke:#585858;stroke-width:2;stroke-linejoin:miter;stroke-miterlimit:10;"/></g><!--link UF to PRI--><g class="link" data-entity-1="ent0008" data-entity-2="ent0017" data-link-type="dependency" data-source-line="272" id="lnk30"><path d="M690.36,146.548 C697.67,155.808 704.85,166.778 709.03,178.098 C728.68,231.408 692.97,254.218 717.03,305.688 C732.07,337.868 749.36,336.128 775.03,360.688 C792.3,377.218 808.0366,392.4013 823.1366,407.0113" fill="none" id="UF-to-PRI" style="stroke:#585858;stroke-width:1;stroke-dasharray:1,3;"/><polygon fill="#585858" points="826.73,410.488,823.0434,401.3552,823.1366,407.0113,817.4806,407.1046,826.73,410.488" style="stroke:#585858;stroke-width:1;stroke-linejoin:miter;stroke-miterlimit:10;"/><text fill="#181818" font-family="sans-serif" font-size="13" lengthAdjust="spacing" textLength="79.5298" x="718.03" y="283.9549">Kruskal MST</text></g><!--link Q to TOPO--><g class="link" data-entity-1="ent0005" data-entity-2="ent0019" data-link-type="dependency" data-source-line="273" id="lnk31"><path d="M1067.31,146.448 C1069.93,182.368 1072.72,249.538 1063.03,305.688 C1046.51,401.368 1043.04,429.678 992.03,512.278 C983.24,526.508 974.4209,536.62 962.9009,547.59" fill="none" id="Q-to-TOPO" style="stroke:#585858;stroke-width:1;stroke-dasharray:1,3;"/><polygon fill="#585858" points="959.28,551.038,968.5561,547.7283,962.9009,547.59,963.0392,541.9348,959.28,551.038" style="stroke:#585858;stroke-width:1;stroke-linejoin:miter;stroke-miterlimit:10;"/><text fill="#181818" font-family="sans-serif" font-size="13" lengthAdjust="spacing" textLength="32.9697" x="1058.74" y="348.7549">Kahn</text></g><!--link ST to TOPO--><g class="link" data-entity-1="ent0004" data-entity-2="ent0019" data-link-type="dependency" data-source-line="274" id="lnk32"><path d="M801.49,146.348 C837.67,187.678 905.57,273.438 931.03,360.688 C950.39,427.068 941.6347,504.9565 934.7647,546.0365" fill="none" id="ST-to-TOPO" style="stroke:#585858;stroke-width:1;stroke-dasharray:1,3;"/><polygon fill="#585858" points="933.94,550.968,939.3697,542.7511,934.7647,546.0365,931.4793,541.4315,933.94,550.968" style="stroke:#585858;stroke-width:1;stroke-linejoin:miter;stroke-miterlimit:10;"/><text fill="#181818" font-family="sans-serif" font-size="13" lengthAdjust="spacing" textLength="55.0405" x="929.45" y="348.7549">DFS sort</text></g><!--link DC to BS--><g class="link" data-entity-1="ent0011" data-entity-2="ent0010" data-link-type="dependency" data-source-line="276" id="lnk33"><path d="M415.55,305.958 C409.3,315.118 402.53,325.658 397.03,335.688 C383.59,360.198 372.9315,384.9835 364.7115,405.6035" fill="none" id="DC-to-BS" style="stroke:#585858;stroke-width:1;stroke-dasharray:1,3;"/><polygon fill="#585858" points="362.86,410.248,369.9084,403.3691,364.7115,405.6035,362.4771,400.4066,362.86,410.248" style="stroke:#585858;stroke-width:1;stroke-linejoin:miter;stroke-miterlimit:10;"/><text fill="#181818" font-family="sans-serif" font-size="13" lengthAdjust="spacing" textLength="104.9521" x="398.03" y="348.7549">subdivide space</text></g><!--link DC to SORT--><g class="link" data-entity-1="ent0011" data-entity-2="ent0018" data-link-type="dependency" data-source-line="277" id="lnk34"><path d="M469.51,305.888 C490.42,320.408 517.67,338.488 543.03,352.688 C591.32,379.738 645.3175,403.8544 681.9975,419.4244" fill="none" id="DC-to-SORT" style="stroke:#585858;stroke-width:1;stroke-dasharray:1,3;"/><polygon fill="#585858" points="686.6,421.378,679.8784,414.1794,681.9975,419.4244,676.7525,421.5434,686.6,421.378" style="stroke:#585858;stroke-width:1;stroke-linejoin:miter;stroke-miterlimit:10;"/><text fill="#181818" font-family="sans-serif" font-size="13" lengthAdjust="spacing" textLength="81.415" x="544.03" y="348.7549">merge/quick</text></g><!--link DC to DP--><g class="link" data-entity-1="ent0011" data-entity-2="ent0012" data-link-type="dependency" data-source-line="278" id="lnk35"><path d="M361.84,300.588 C354.5,302.408 347.13,304.148 340.03,305.688 C300.18,314.328 185.39,304.588 159.03,335.688 C141.71,356.108 146.91,383.268 155.3,405.578" fill="none" id="DC-to-DP" style="stroke:#585858;stroke-width:1;stroke-dasharray:1,3;"/><polygon fill="#585858" points="157.06,410.258,157.636,400.426,155.3,405.578,150.148,403.242,157.06,410.258" style="stroke:#585858;stroke-width:1;stroke-linejoin:miter;stroke-miterlimit:10;"/><text fill="#181818" font-family="sans-serif" font-size="13" lengthAdjust="spacing" textLength="109.2559" x="160.03" y="348.7549">overlap + memo</text></g><!--link JS to BS--><g class="link" data-entity-1="ent0013" data-entity-2="ent0010" data-link-type="dependency" data-source-line="279" id="lnk36"><path d="M271.17,306.118 C273.62,320.378 277.85,338.118 285.03,352.688 C295.59,374.128 309.1884,391.2835 323.5484,406.7535" fill="none" id="JS-to-BS" style="stroke:#585858;stroke-width:1;stroke-dasharray:1,3;"/><polygon fill="#585858" points="326.95,410.418,323.7587,401.1005,323.5484,406.7535,317.8954,406.5431,326.95,410.418" style="stroke:#585858;stroke-width:1;stroke-linejoin:miter;stroke-miterlimit:10;"/><text fill="#181818" font-family="sans-serif" font-size="13" lengthAdjust="spacing" textLength="94.3008" x="286.03" y="348.7549">skip then seek</text></g><!--link PATH to GR--><g class="link" data-entity-1="ent0016" data-entity-2="ent0015" data-link-type="dependency" data-source-line="280" id="lnk37"><path d="M793.5,604.118 C822.59,624.508 859.055,650.069 888.215,670.499" fill="none" id="PATH-to-GR" style="stroke:#585858;stroke-width:2;"/><polygon fill="#585858" points="892.31,673.368,887.2343,664.9279,888.215,670.499,882.6438,671.4798,892.31,673.368" style="stroke:#585858;stroke-width:2;stroke-linejoin:miter;stroke-miterlimit:10;"/></g><!--link PRI to PATH--><g class="link" data-entity-1="ent0017" data-entity-2="ent0016" data-link-type="dependency" data-source-line="281" id="lnk38"><path d="M835.2,463.728 C817.95,488.608 794.8175,521.9981 777.6075,546.8381" fill="none" id="PRI-to-PATH" style="stroke:#585858;stroke-width:1;stroke-dasharray:1,3;"/><polygon fill="#585858" points="774.76,550.948,783.1735,545.8282,777.6075,546.8381,776.5976,541.2721,774.76,550.948" style="stroke:#585858;stroke-width:1;stroke-linejoin:miter;stroke-miterlimit:10;"/><text fill="#181818" font-family="sans-serif" font-size="13" lengthAdjust="spacing" textLength="72.1475" x="811.78" y="508.3449">Dijkstra PQ</text></g><!--link SORT to TOPO--><g class="link" data-entity-1="ent0018" data-entity-2="ent0019" data-link-type="dependency" data-source-line="282" id="lnk39"><path d="M742.95,463.738 C751.83,472.808 762.92,482.038 775.03,487.278 C799.15,497.718 871.5,480.208 893.03,495.278 C911.23,508.028 919.1803,527.2868 923.6703,545.9468" fill="none" id="SORT-to-TOPO" style="stroke:#585858;stroke-width:1;stroke-dasharray:1,3;"/><polygon fill="#585858" points="924.84,550.808,926.6235,541.122,923.6703,545.9468,918.8455,542.9936,924.84,550.808" style="stroke:#585858;stroke-width:1;stroke-linejoin:miter;stroke-miterlimit:10;"/></g><!--link TOPO to GR--><g class="link" data-entity-1="ent0019" data-entity-2="ent0015" data-link-type="dependency" data-source-line="283" id="lnk40"><path d="M929.03,604.118 C929.03,624.578 929.03,648.128 929.03,668.578" fill="none" id="TOPO-to-GR" style="stroke:#585858;stroke-width:1;stroke-dasharray:1,3;"/><polygon fill="#585858" points="929.03,673.578,933.03,664.578,929.03,668.578,925.03,664.578,929.03,673.578" style="stroke:#585858;stroke-width:1;stroke-linejoin:miter;stroke-miterlimit:10;"/></g><?plantuml-src lLdhRXfB4lxFKtHyLXl8CU1RBeSubhZvak1002kATbTHCzF0hETskXixd2ZI_jedE4zudcI_wfuP1Zp4jXBj8DbGLLrTNVrLTLNFqpS_z9IUie6CRaJ4_lhFdspWyr1VNVQOdej0iBBlpUQw0fap4GhfERlC2nr_uVA9BwnCZPr9Fc6UPhUUdZSWojWJAoJONEjODUfroMzhCx0NauKIqeb2BK9TSwAW7fkvgmwlUovedbxM0-w52RqMBm8VAZjSNZE7XpTSDHXKi6IO2xgHOMN5OM_07HcfNMP-o0WsEf4VBQIgr6YTt1TQWo6cGehG4Gt3bgeMk3NsFcAdCEmz3VKKKqAlUUIfOgwOyeMleMaAGHA2AUvhwEFE73J9sbBGf47aUbDFICNAEpj154OxExlisRD9vBlFdksoUjtJtFUSUhrYT4aurVT2mKGGpxc2NYzKMd2NHLFZP2-SqNzsEoVjhiTdaWTCHop2e2bt15RtWoY08TLgbRKa3rqM9uwgFk8fFVbRgzTilyFsipTivvVzL_JP0VdZ-SMucv9Fc_GXyjcm-Ocbv5VcIScV3nBoyrVqoSY72Rbrr3fi7MRaeuJSVTuzwXxjb42_R5wypvJlxJq_VNcwav0pBNjxBr_yrY5oipTcEUbMi_qY8N_UNv5Vj5xk6NAxtNq_JiZjLgTrq5oHCS2iP_zLPs_FcD8T3lj3beaVxEqPBQCho8z6gVBVdXyUGFpf3mVpC8Tw0s0b0Y2OGZVPrggBIBuHWFoOpnWFbooC4AiKleGow0YuTkO4kkDZu12OrijOd9omScn2Hmgtme1Q2aI2fOsw1CGram6EZtaSOmIUgIULhiPSwYK3aTMPNC0UH1bImOtd29OyoPwLWNo_acfHoz0XFRyln49WhBX1bgYwj80GFoVSkPx9Q07Gfa-oFKXTWKZLp2EbZJNq1SDYdsl4NO2lKImarrZDXBHmkKpLM4oKdIKFKpKElEgI7l45RWcvZ_5wxaatMLwTmIeNkbPF0kUomeoPEUx4kePXReIxfbo4mKf31dyZATZcam1zbP193xOYagHgoZr_8Kc7AvIM2qV3F_IBXpC1zwXCJuB6CktXpqWQhTK6HA6_fDtxeXFyCLzCDQKf0acIFCqoKqXLIaz0fipNxlVwmy_DmO1iJ09sapdwzBuDfesu3UPvVpIs8obuDvZjNl-g0wRD9XlCJilu9KaU6yp4MqdORgptL-HZ3nj6AzxDft5NE3u7gBmeLF0AerCAOU3xAbC_6d_gTJVM-veKDJwIpWsvzGLibritDo_t4nBBACaZZ0DrjsdGKuRnp75Evw43dYTSDbaoFpCBOyjqz14U8-GVyuMhEMKHhjYjy7twRp63ipkYOa8ja1jkXCBWcHHBvI1tCJgRh5Xr0lqkk_74BV9KZVN390rHI37XpiGk6M4jiocf2UTy_9mT32WXl8327O14ZfbB7DE8apbIr1APKizpW_g3yKN_VRF763S8bgAA76Q-g4KWp1TjL4KnxJhtSuEp_9-BKfGoZl0tmbNZx5KUZS-D_d3LlJA7frcBoJac9yBGqAr6qobycq5orwP7XYghajEHm0SFRPaIYl5LjaDuyd2LqDGIuHbWy9NYCnH8h9btN8iraYdgZ3lMr1y4LehWZUsf_YD1-ov1vr_Lamt1R4jMWXPSTqMp3O2eZOmjEZDVGz0Uu5i4CuVc9ZU0pkIJSgedPjp1iUTxdDnUlXQn9e132Z1D2Zd5heM8sMqahu7b2hFLr5eUCcxPaXPnJXMdlUGWB4wOQVcHb1uRN5ERfVaoumsQutDh2WuzvpeKIhqvNEUs-vUN_Jn_VpNSd5OzFX5--Kk57PlIkv7ioCdnvEJBSNroSbmtz9N7rS9neEZEE6ltzd7kvCuGkvwxGvBDQlk2eyanYS6ZY5GFBO1B2Zk74W15ENgQ65Lvg4TwwLEhuMYSmRx8YSI8LyJMTe7ag1mZA9iuxyE00iuH5F-b4YeoZ3ifCVGtaMPVIuJ3qPox4ML2v1XVYTU6IDrCcrR8R6LkgQi3BE6PyjpoUd1SGhLr2v6_bV07ZPblYfAlURM4XTU6CFB-4EnWxpMaaMMuoO8Rmeb6gy-U8L-tpsh9unH7RB_sVFkgZCemmbdyjNYDjdegNkJXzxmrj4eauUALdOgXh9cXpDisrtVy-TYfyCT2i-iB0a6LYgOK7aWdr7wY244b74QviYffNqqceUr88RdDOhEDbXL99AQ4ZCnonzxSuh9jtp-wku3zP1C7t7K9bljxgVFCCKOzwpPhicdNZ5dPM0m0PfkO-_TaJUlzk_AuLHwancHX_VCjkck0ZJdf_h_cShdc4nnetussWosRM33XGq6L1I3ojYySMrz_1zFfL0z7DIb7NGFQey1fBWeUWIAQnZQqswOnHtVHJCabmwDpbcbT7vUoYZoLXY6fd4gwAhkJmmiZTKLSWrIM5P8pyP7QZ1MsblhwEEkpp6gkIrQfKptypike69WB4Mfm4GxHZSXwmEFZN-RYoyb9WtXBSvkuCiIqJiee-6TeEwM95FmQAJqTRakMMkqalLDq8nY7CwwoQpL2tZKQk4eRCAvDfqtNCkWZq05HlvG8cwe1MnO5vj8mzisj8MCrkfAvzrme3jQxtlvcD9h-v078BePlNciExKQrkRwvBpJlLzlBw_nkPEHJsRrEoDTCKEnE7bAEt6ljXbPJHMzJR5gT1rgRoNuh7TUJejAMUKr_5abFpz6P_FNVFra7wPwDJN1Gjp-MWbhOCydZURM5Oy0rhn2yGCX6VcXPGx0-8p5KfO7dBzclh3DWAEVe3Y0s8wXDlHhs6cHR-hB0lYZOU3j0HSm2OLfLZaVNPVM97qtigmBVcwWwpoQkVtOZHzN7mswN-fZ1-UTMSzJje54wwmylnkUNe_Ijmi-UM4cdxYv3hDMfGW7rTdHrNnyCBowxmrf0ZkgXVVOnA_gYDEVjjB5Lq2UasZ4RkohOTffIykKEnNWpkJTSvr_os70l2xaZZIaCVpGk5FX0Xv0H-538Dvji-6U5_7EHp7zUoBuASKHNJxtGDK9NfwdKjxNLI-GZD3wkDmlkUg3bXNHDCH9SEjQKrYYxqLqNxNWt7ch0lpCu5CUhDDATzZPfkrFqzYlTAJjWi6N0sqKGv-rucxCZlw3n2lShSDnPbt5jEkVPCBqnNnSQS6tkuUkiu_txMcd9ZJYrsbi6I8ycfAie7SNLTrPyU54iFOgaJaqOzOVZOgbn52DZp3o7-un66F5nVz3FnB7wzMkYqVhljnk_QQxIvUPD3XpVO8488gRfzM89cDsKQ4C2fVL2Akel5S6x15GLYNL6LrM0Zv9GwIm_-Tbm_JSvi_HXKuTnSOErJaTCpR5e9AtI-TgmuKN1rEJg1did5-eQtheSZUzgDfw339-71KjCk1sQ5zEMIbZCXWZmts1gCN4jt1M09mh4p8QIG-LCr7zVe94k438-fxh5vp7ICtc_15mNpdZjnLHDmEz2N9UCWzRTIeilTcEANZRuK39s5QowP9Q-mO3Macdi9v7MLBjCOJBWkLz1HSkLygPBLbxPJzUl0TrYBYRsNdKXHGNY1nM6-BOiyvB5NBHG1NPOoTsx0bk-kRO7uwX2C5pOt_IsYtpZ_M7PrFwJMVy3?></g></svg>