<svg xmlns="http://www.w3.org/2000/svg" xmlns:xlink="http://www.w3.org/1999/xlink" contentStyleType="text/css" data-diagram-type="DESCRIPTION" height="727px" preserveAspectRatio="none" style="width:1332px;height:727px;background:#FAFAFA;" version="1.1" viewBox="0 0 1332 727" width="1332px" zoomAndPan="magnify"><?plantuml 1.2026.6?><defs><filter height="300%" id="f18in66fvzyvpi" width="300%" x="-1" y="-1"><feGaussianBlur result="blurOut" stdDeviation="2"/><feColorMatrix in="blurOut" result="blurOut2" type="matrix" values="0 0 0 0 0 0 0 0 0 0 0 0 0 0 0 0 0 0 .4 0"/><feOffset dx="4" dy="4" in="blurOut2" result="blurOut3"/><feBlend in="SourceGraphic" in2="blurOut3" mode="normal"/></filter></defs><g><rect fill="#FAFAFA" height="727" style="stroke:none;stroke-width:1;" width="1332" x="0" y="0"/><g class="title" data-source-line="231"><rect fill="none" height="33.2813" style="stroke:#585858;stroke-width:1;" width="463.4082" x="431.1794" y="5"/><text fill="#005F7F" font-family="sans-serif" font-size="20" font-weight="700" lengthAdjust="spacing" textLength="453.4082" x="436.1794" y="28.5645">Algorithms &#8596; Data Types &#8212; Array-Based</text></g><!--cluster Data types--><g class="cluster" data-qualified-name="Data types" data-source-line="236" id="ent0001"><rect fill="#FAFAFA" filter="url(#f18in66fvzyvpi)" height="110.59" rx="6" ry="6" style="stroke:#585858;stroke-width:1;" width="502" x="511.35" y="51.498"/><text fill="#181818" font-family="sans-serif" font-size="20" font-weight="700" lengthAdjust="spacing" textLength="122.5" x="701.1" y="72.0625">Data types</text></g><!--cluster Array-based algorithms--><g class="cluster" data-qualified-name="Array-based algorithms" data-source-line="244" id="ent0007"><rect fill="#FAFAFA" filter="url(#f18in66fvzyvpi)" height="499.38" rx="6" ry="6" style="stroke:#585858;stroke-width:1;" width="453" x="322.35" y="211.088"/><text fill="#181818" font-family="sans-serif" font-size="20" font-weight="700" lengthAdjust="spacing" textLength="266.2695" x="415.7152" y="231.6525">Array-based algorithms</text></g><!--entity A--><g class="entity" data-qualified-name="Data types.A" data-source-line="237" id="ent0002"><rect fill="#E5E4E4" filter="url(#f18in66fvzyvpi)" height="52.5938" rx="6" ry="6" style="stroke:#585858;stroke-width:0.5;" width="57.9531" x="624.37" y="93.498"/><text fill="#181818" font-family="sans-serif" font-size="14" font-style="italic" lengthAdjust="spacing" textLength="34.9043" x="635.8944" y="116.4932">&#171;db&#187;</text><text fill="#181818" font-family="sans-serif" font-size="14" lengthAdjust="spacing" textLength="37.9531" x="634.37" y="132.79">Array</text></g><!--entity S--><g class="entity" data-qualified-name="Data types.S" data-source-line="238" id="ent0003"><rect fill="#E5E4E4" filter="url(#f18in66fvzyvpi)" height="52.5938" rx="6" ry="6" style="stroke:#585858;stroke-width:0.5;" width="61.7813" x="527.46" y="93.498"/><text fill="#181818" font-family="sans-serif" font-size="14" font-style="italic" lengthAdjust="spacing" textLength="34.9043" x="540.8985" y="116.4932">&#171;db&#187;</text><text fill="#181818" font-family="sans-serif" font-size="14" lengthAdjust="spacing" textLength="41.7813" x="537.46" y="132.79">String</text></g><!--entity ST--><g class="entity" data-qualified-name="Data types.ST" data-source-line="239" id="ent0004"><rect fill="#E5E4E4" filter="url(#f18in66fvzyvpi)" height="52.5938" rx="6" ry="6" style="stroke:#585858;stroke-width:0.5;" width="58.7598" x="716.97" y="93.498"/><text fill="#181818" font-family="sans-serif" font-size="14" font-style="italic" lengthAdjust="spacing" textLength="34.9043" x="728.8977" y="116.4932">&#171;db&#187;</text><text fill="#181818" font-family="sans-serif" font-size="14" lengthAdjust="spacing" textLength="38.7598" x="726.97" y="132.79">Stack</text></g><!--entity DQ--><g class="entity" data-qualified-name="Data types.DQ" data-source-line="240" id="ent0005"><rect fill="#E5E4E4" filter="url(#f18in66fvzyvpi)" height="52.5938" rx="6" ry="6" style="stroke:#585858;stroke-width:0.5;" width="65.7666" x="810.47" y="93.498"/><text fill="#181818" font-family="sans-serif" font-size="14" font-style="italic" lengthAdjust="spacing" textLength="34.9043" x="825.9012" y="116.4932">&#171;db&#187;</text><text fill="#181818" font-family="sans-serif" font-size="14" lengthAdjust="spacing" textLength="45.7666" x="820.47" y="132.79">Deque</text></g><!--entity M--><g class="entity" data-qualified-name="Data types.M" data-source-line="241" id="ent0006"><rect fill="#E5E4E4" filter="url(#f18in66fvzyvpi)" height="52.5938" rx="6" ry="6" style="stroke:#585858;stroke-width:0.5;" width="86.1514" x="911.28" y="93.498"/><text fill="#181818" font-family="sans-serif" font-size="14" font-style="italic" lengthAdjust="spacing" textLength="34.9043" x="936.9035" y="116.4932">&#171;db&#187;</text><text fill="#181818" font-family="sans-serif" font-size="14" lengthAdjust="spacing" textLength="66.1514" x="921.28" y="132.79">Map / Set</text></g><!--entity AP--><g class="entity" data-qualified-name="Array-based algorithms.AP" data-source-line="245" id="ent0008"><rect fill="#005F7F" filter="url(#f18in66fvzyvpi)" height="52.5938" rx="6" ry="6" style="stroke:#00BAC6;stroke-width:0.5;" width="137.7148" x="475.49" y="253.088"/><text fill="#FAFAFA" font-family="sans-serif" font-size="14" font-style="italic" lengthAdjust="spacing" textLength="43.4834" x="522.6057" y="276.0832">&#171;app&#187;</text><text fill="#FAFAFA" font-family="sans-serif" font-size="14" lengthAdjust="spacing" textLength="117.7148" x="485.49" y="292.38">Array Processing</text></g><!--entity BT--><g class="entity" data-qualified-name="Array-based algorithms.BT" data-source-line="246" id="ent0009"><rect fill="#005F7F" filter="url(#f18in66fvzyvpi)" height="52.5938" rx="6" ry="6" style="stroke:#00BAC6;stroke-width:0.5;" width="111.2666" x="647.72" y="253.088"/><text fill="#FAFAFA" font-family="sans-serif" font-size="14" font-style="italic" lengthAdjust="spacing" textLength="43.4834" x="681.6116" y="276.0832">&#171;app&#187;</text><text fill="#FAFAFA" font-family="sans-serif" font-size="14" lengthAdjust="spacing" textLength="91.2666" x="657.72" y="292.38">Backtracking</text></g><!--entity SW--><g class="entity" data-qualified-name="Array-based algorithms.SW" data-source-line="247" id="ent0010"><rect fill="#005F7F" filter="url(#f18in66fvzyvpi)" height="52.5938" rx="6" ry="6" style="stroke:#00BAC6;stroke-width:0.5;" width="127.1602" x="531.77" y="512.278"/><text fill="#FAFAFA" font-family="sans-serif" font-size="14" font-style="italic" lengthAdjust="spacing" textLength="43.4834" x="573.6084" y="535.2732">&#171;app&#187;</text><text fill="#FAFAFA" font-family="sans-serif" font-size="14" lengthAdjust="spacing" textLength="107.1602" x="541.77" y="551.57">Sliding Window</text></g><!--entity SP--><g class="entity" data-qualified-name="Array-based algorithms.SP" data-source-line="248" id="ent0011"><rect fill="#005F7F" filter="url(#f18in66fvzyvpi)" height="52.5938" rx="6" ry="6" style="stroke:#00BAC6;stroke-width:0.5;" width="141.543" x="617.58" y="641.878"/><text fill="#FAFAFA" font-family="sans-serif" font-size="14" font-style="italic" lengthAdjust="spacing" textLength="43.4834" x="666.6098" y="664.8732">&#171;app&#187;</text><text fill="#FAFAFA" font-family="sans-serif" font-size="14" lengthAdjust="spacing" textLength="121.543" x="627.58" y="681.17">String Processing</text></g><!--entity TP--><g class="entity" data-qualified-name="Array-based algorithms.TP" data-source-line="249" id="ent0012"><rect fill="#005F7F" filter="url(#f18in66fvzyvpi)" height="52.5938" rx="6" ry="6" style="stroke:#00BAC6;stroke-width:0.5;" width="102.6465" x="338.03" y="253.088"/><text fill="#FAFAFA" font-family="sans-serif" font-size="14" font-style="italic" lengthAdjust="spacing" textLength="43.4834" x="367.6115" y="276.0832">&#171;app&#187;</text><text fill="#FAFAFA" font-family="sans-serif" font-size="14" lengthAdjust="spacing" textLength="82.6465" x="348.03" y="292.38">Two Pointer</text></g><!--entity TPG--><g class="entity" data-qualified-name="Array-based algorithms.TPG" data-source-line="250" id="ent0013"><rect fill="#005F7F" filter="url(#f18in66fvzyvpi)" height="52.5938" rx="6" ry="6" style="stroke:#00BAC6;stroke-width:0.5;" width="158.0996" x="526.3" y="382.688"/><text fill="#FAFAFA" font-family="sans-serif" font-size="14" font-style="italic" lengthAdjust="spacing" textLength="43.4834" x="583.6081" y="405.6832">&#171;app&#187;</text><text fill="#FAFAFA" font-family="sans-serif" font-size="14" lengthAdjust="spacing" textLength="138.0996" x="536.3" y="421.98">Two Pointer Greedy</text></g><g class="entity" data-qualified-name="GMN28" data-source-line="270" id="ent0029"><path d="M6,648.038 L6,688.3037 A0,0 0 0 0 6,688.3037 L306.7031,688.3037 A0,0 0 0 0 306.7031,688.3037 L306.7031,658.038 L296.7031,648.038 L227.87,648.038 L531.52,558.128 L219.87,648.038 L6,648.038 A0,0 0 0 0 6,648.038" fill="#E5E4E4" filter="url(#f18in66fvzyvpi)" style="stroke:#B4B3B3;stroke-width:0.5;"/><path d="M296.7031,648.038 L296.7031,658.038 L306.7031,658.038 L296.7031,648.038" fill="#E5E4E4" style="stroke:#B4B3B3;stroke-width:0.5;"/><text fill="#181818" font-family="sans-serif" font-size="13" lengthAdjust="spacing" textLength="272.9492" x="15.377" y="665.1049">Maintain a [L,R] interval; grow/shrink with</text><text fill="#181818" font-family="sans-serif" font-size="13" lengthAdjust="spacing" textLength="279.7031" x="12" y="680.2378">invariant checks (unique chars, sum, freq).</text></g><!--link A to AP--><g class="link" data-entity-1="ent0002" data-entity-2="ent0008" data-link-type="dependency" data-source-line="253" id="lnk14"><path d="M635.6,146.468 C615.33,175.768 585.2147,219.3161 564.9447,248.6161" fill="none" id="A-to-AP" style="stroke:#585858;stroke-width:2;"/><polygon fill="#585858" points="562.1,252.728,570.5099,247.6023,564.9447,248.6161,563.9309,243.0509,562.1,252.728" style="stroke:#585858;stroke-width:2;stroke-linejoin:miter;stroke-miterlimit:10;"/></g><!--link A to BT--><g class="link" data-entity-1="ent0002" data-entity-2="ent0009" data-link-type="dependency" data-source-line="254" id="lnk15"><path d="M657.26,146.558 C659.77,160.998 663.48,179.248 668.35,195.088 C674.44,214.878 681.4836,231.8596 688.8836,248.0696" fill="none" id="A-to-BT" style="stroke:#585858;stroke-width:2;"/><polygon fill="#585858" points="690.96,252.618,690.8612,242.7697,688.8836,248.0696,683.5837,246.0919,690.96,252.618" style="stroke:#585858;stroke-width:2;stroke-linejoin:miter;stroke-miterlimit:10;"/></g><!--link A to TP--><g class="link" data-entity-1="ent0002" data-entity-2="ent0012" data-link-type="dependency" data-source-line="255" id="lnk16"><path d="M634.19,146.408 C626.45,155.128 616.85,164.158 606.35,170.088 C604.52,171.128 460.17,202.038 458.35,203.088 C437.17,215.338 421.7623,232.2623 409.3023,248.9423" fill="none" id="A-to-TP" style="stroke:#585858;stroke-width:2;"/><polygon fill="#585858" points="406.31,252.948,414.9008,248.1315,409.3023,248.9423,408.4916,243.3438,406.31,252.948" style="stroke:#585858;stroke-width:2;stroke-linejoin:miter;stroke-miterlimit:10;"/></g><!--link A to SP--><g class="link" data-entity-1="ent0002" data-entity-2="ent0011" data-link-type="dependency" data-source-line="256" id="lnk17"><path d="M668.78,146.448 C680.27,163.158 697.53,183.868 718.35,195.088 C741.26,207.448 757.84,184.808 776.35,203.088 C818.76,244.968 791.89,276.258 796.35,335.688 C805.58,458.718 831.45,505.848 768.35,611.878 C761.36,623.628 754.8509,630.575 743.6609,638.555" fill="none" id="A-to-SP" style="stroke:#585858;stroke-width:1;stroke-dasharray:1,3;"/><polygon fill="#585858" points="739.59,641.458,749.2401,639.4892,743.6609,638.555,744.5951,632.9758,739.59,641.458" style="stroke:#585858;stroke-width:1;stroke-linejoin:miter;stroke-miterlimit:10;"/></g><!--link S to TP--><g class="link" data-entity-1="ent0003" data-entity-2="ent0012" data-link-type="dependency" data-source-line="257" id="lnk18"><path d="M527.21,144.578 C506.98,160.468 480.38,182.208 458.35,203.088 C441.75,218.828 427.6626,234.074 414.4926,249.044" fill="none" id="S-to-TP" style="stroke:#585858;stroke-width:2;"/><polygon fill="#585858" points="411.19,252.798,420.1379,248.6829,414.4926,249.044,414.1315,243.3987,411.19,252.798" style="stroke:#585858;stroke-width:2;stroke-linejoin:miter;stroke-miterlimit:10;"/></g><!--link ST to BT--><g class="link" data-entity-1="ent0004" data-entity-2="ent0009" data-link-type="dependency" data-source-line="258" id="lnk19"><path d="M739.35,146.468 C731.35,175.768 719.667,218.6046 711.667,247.9046" fill="none" id="ST-to-BT" style="stroke:#585858;stroke-width:2;"/><polygon fill="#585858" points="710.35,252.728,716.5793,245.0994,711.667,247.9046,708.8618,242.9923,710.35,252.728" style="stroke:#585858;stroke-width:2;stroke-linejoin:miter;stroke-miterlimit:10;"/><text fill="#181818" font-family="sans-serif" font-size="13" lengthAdjust="spacing" textLength="102.8511" x="730.97" y="191.1549">recursion / path</text></g><!--link M to SP--><g class="link" data-entity-1="ent0006" data-entity-2="ent0011" data-link-type="dependency" data-source-line="259" id="lnk20"><path d="M997.93,125.698 C1075.47,137.108 1229.35,173.018 1229.35,278.388 C1229.35,278.388 1229.35,278.388 1229.35,539.578 C1229.35,635.048 911.1258,658.9631 764.3558,664.9831" fill="none" id="M-to-SP" style="stroke:#585858;stroke-width:1;stroke-dasharray:1,3;"/><polygon fill="#585858" points="759.36,665.188,768.5164,668.8158,764.3558,664.9831,768.1885,660.8226,759.36,665.188" style="stroke:#585858;stroke-width:1;stroke-linejoin:miter;stroke-miterlimit:10;"/><text fill="#181818" font-family="sans-serif" font-size="13" lengthAdjust="spacing" textLength="86.417" x="1230.35" y="413.5549">freq / decode</text></g><!--link M to SW--><g class="link" data-entity-1="ent0006" data-entity-2="ent0010" data-link-type="dependency" data-source-line="260" id="lnk21"><path d="M947.51,146.138 C928.17,212.678 866.53,393.328 746.35,482.278 C720.66,501.298 692.526,512.9208 663.986,521.5508" fill="none" id="M-to-SW" style="stroke:#585858;stroke-width:1;stroke-dasharray:1,3;"/><polygon fill="#585858" points="659.2,522.998,668.9725,524.2219,663.986,521.5508,666.657,516.5643,659.2,522.998" style="stroke:#585858;stroke-width:1;stroke-linejoin:miter;stroke-miterlimit:10;"/><text fill="#181818" font-family="sans-serif" font-size="13" lengthAdjust="spacing" textLength="117.5903" x="868.91" y="348.7549">freq-count variant</text></g><!--link DQ to SW--><g class="link" data-entity-1="ent0005" data-entity-2="ent0010" data-link-type="dependency" data-source-line="261" id="lnk22"><path d="M846.24,146.368 C847.09,160.918 846.81,179.328 842.35,195.088 C826.77,250.168 816.41,264.798 776.35,305.688 C758.75,323.658 741.51,314.248 728.35,335.688 C694.15,391.438 753.02,428.808 715.35,482.278 C702.01,501.218 685.1734,511.9988 664.0334,520.3088" fill="none" id="DQ-to-SW" style="stroke:#585858;stroke-width:1;stroke-dasharray:1,3;"/><polygon fill="#585858" points="659.38,522.138,669.2195,522.5682,664.0334,520.3088,666.2927,515.1228,659.38,522.138" style="stroke:#585858;stroke-width:1;stroke-linejoin:miter;stroke-miterlimit:10;"/><text fill="#181818" font-family="sans-serif" font-size="13" lengthAdjust="spacing" textLength="110.6714" x="729.35" y="348.7549">window max/min</text></g><!--link ST to SP--><g class="link" data-entity-1="ent0004" data-entity-2="ent0011" data-link-type="dependency" data-source-line="262" id="lnk23"><path d="M765.11,146.478 C772.87,155.318 782.58,164.408 793.35,170.088 C812.87,180.388 822.46,168.538 842.35,178.088 C941.09,225.538 1025.35,233.648 1025.35,343.188 C1025.35,343.188 1025.35,343.188 1025.35,539.578 C1025.35,595.958 863.1913,635.2602 764.3213,654.1402" fill="none" id="ST-to-SP" style="stroke:#585858;stroke-width:1;stroke-dasharray:1,3;"/><polygon fill="#585858" points="759.41,655.078,769.0005,657.3189,764.3213,654.1402,767.5,649.4609,759.41,655.078" style="stroke:#585858;stroke-width:1;stroke-linejoin:miter;stroke-miterlimit:10;"/><text fill="#181818" font-family="sans-serif" font-size="13" lengthAdjust="spacing" textLength="132.4121" x="1026.35" y="413.5549">parentheses decode</text></g><!--link TP to SW--><g class="link" data-entity-1="ent0012" data-entity-2="ent0010" data-link-type="dependency" data-source-line="264" id="lnk24"><path d="M381.91,305.938 C373.99,338.608 365.68,395.678 390.35,435.278 C421.06,484.568 478.6084,509.5485 526.5284,523.0885" fill="none" id="TP-to-SW" style="stroke:#585858;stroke-width:1;stroke-dasharray:1,3;"/><polygon fill="#585858" points="531.34,524.448,523.7667,518.1516,526.5284,523.0885,521.5915,525.8502,531.34,524.448" style="stroke:#585858;stroke-width:1;stroke-linejoin:miter;stroke-miterlimit:10;"/><text fill="#181818" font-family="sans-serif" font-size="13" lengthAdjust="spacing" textLength="116.4668" x="391.35" y="413.5549">builds on pointers</text></g><!--link TP to TPG--><g class="link" data-entity-1="ent0012" data-entity-2="ent0013" data-link-type="dependency" data-source-line="265" id="lnk25"><path d="M432.8,306.058 C470.38,328.248 520.1149,357.6351 557.6649,379.8151" fill="none" id="TP-to-TPG" style="stroke:#585858;stroke-width:1;stroke-dasharray:1,3;"/><polygon fill="#585858" points="561.97,382.358,556.2552,374.3368,557.6649,379.8151,552.1866,381.2249,561.97,382.358" style="stroke:#585858;stroke-width:1;stroke-linejoin:miter;stroke-miterlimit:10;"/><text fill="#181818" font-family="sans-serif" font-size="13" lengthAdjust="spacing" textLength="95.5894" x="511.28" y="348.7549">greedy variant</text></g><!--link TPG to SW--><g class="link" data-entity-1="ent0013" data-entity-2="ent0010" data-link-type="dependency" data-source-line="266" id="lnk26"><path d="M588.02,435.598 C582.9,444.588 577.96,455.008 575.35,465.278 C571.41,480.808 573.9572,493.4784 579.6672,507.2684" fill="none" id="TPG-to-SW" style="stroke:#585858;stroke-width:1;stroke-dasharray:1,3;"/><polygon fill="#585858" points="581.58,511.888,581.8326,502.0424,579.6672,507.2684,574.4412,505.103,581.58,511.888" style="stroke:#585858;stroke-width:1;stroke-linejoin:miter;stroke-miterlimit:10;"/><text fill="#181818" font-family="sans-serif" font-size="13" lengthAdjust="spacing" textLength="134.6528" x="576.35" y="478.3449">shrink/grow strategy</text></g><!--link SW to SP--><g class="link" data-entity-1="ent0010" data-entity-2="ent0011" data-link-type="dependency" data-source-line="267" id="lnk27"><path d="M613.95,565.088 C630.17,587.348 650.6349,615.4174 666.8449,637.6574" fill="none" id="SW-to-SP" style="stroke:#585858;stroke-width:1;stroke-dasharray:1,3;"/><polygon fill="#585858" points="669.79,641.698,667.7214,632.0689,666.8449,637.6574,661.2564,636.781,669.79,641.698" style="stroke:#585858;stroke-width:1;stroke-linejoin:miter;stroke-miterlimit:10;"/><text fill="#181818" font-family="sans-serif" font-size="13" lengthAdjust="spacing" textLength="111.8521" x="648.42" y="607.9449">anagram window</text></g><?plantuml-src lLdhRXh94lxFKtJO8mLd3OFjt1OJIu0T9phOi0RBYlQiecQcWP7dmdOtjjaeqlbrdc2VS9_aVDNTCmmOObk9TgmGgAwkhgwk-gggv_cxxtfAprbVfZSYPN__zo_MZtYYBy-wJ4z5B5Wb2YTJlGEUKv486VgxB4pyQ1xmKIGiJusTIZvYeMQtePusmChOCyias5JhcMfudkItjGc6vwEv4j9F4oqINVFJs9kPjQi-zy80j50ll9Y7YQFNPlCuWiXZBg-PpvCRhXeC8fYR5e1kU5X5SUWRSr-cQfUP7pA5ZduQfNEfTcgqJnu9hJ4WnaAAn1SDConLBGvgx3nbxw7OEKqD5LD2hrZakMA16FDvf25f34PYWYh18UHnVmgQP1qfQD4u3S9nAAHYbN8vJfEqNDvbBrwCqYXuyMANULweUHJwdhTZP4aODGeJmKGyct85kM6YjE01IyV6o64oeV_PxPIa1o6VI1updR8KayRS5zZTTte15AbMgwmjUHAmcJDKzGbFwTc_sjrMvzyuVlQEbN_QUqj_PP2lFdmSdcJazotw8_BfHUiJoyXlpPEHF-yxygktz9UJ3nov_R9zq3x8oIyT-UJLoSkJb-KIw6UjZ-Uvy7hzrVitxykEd4kfrz-y_kMOoAtka1MuswtEQqV-lBSalsw_gHjoftDoFdJaJlkulTzQaZ71x6VlxN6zRbGvkRZeNR2SVRzUDr86b-0V33BXlxmws0Vxy-yEvek2rni7LYA61rFekcEj1eZa6m6N7_89uyc29IbYbSANl0moOgxzAJbTima_X4_hnKmS7R7Ap8IE5C4EWzTI899RsgXpJbmp2D1iyjaCC_2CGwbqTSQbNZ0GcSVa7FeWoW05Dw4lc7lScLNW-T5E9aKj4f_a_34NSu6vuWOeKGre0mb-ZhX_FP7f74wRFUvu05snoCHCKwMDDlG5qsOHruYx65_JcP1SOpSZaiBb8XDZVQBYBtYIYV5XrO3aY3kO9U4HvkjfA0EtFOz1gm2obezpvuh2YhawmSYQXc5jXBicBC9afS63prGAjluuHry2Cid1KQIIH8rv6CqboGY4qdBkQzY7Vl5a8c0UbSjntbYXC_mHeD5U7a2QH0iwlJlj_8z5Ogm9fiX977YQRMOkjLDw1Z8XNwVNxLryRlNxfACBsFN1mQVp3WPjnAqDVkWDXdOc1U_QOAVRkpp6e4MJjS7Zjh6B0u-rGMSj5xPh-_qPU1pYm6Z7kqKO3uGVSJXLc2OALc6KfH06KQHoyOFXf-x9sduFIL3ZYcIkyQrkO3lVghf5lXy0B0E78up3wswpe2U42KqwftpeOomK0HijM9IhXRaLIdtaZodmntpXQaeemXMx5L54_rkVGUvEgPXGSs33ZL2OF95YeNnW5wFSPDcg8yWFs4qeRe5JDTPB70nHI34HJCGkAM4riv3KWd6kFkU90IL465Eumo61CLE9D8qucGAY5a1AFIrCwlM77tldhIvZt7Ym55LWcFcYvh4mNxGHbSxer7bKc9pZVo5AKShu8beBLutSgqAQNvZzw-N9fKcUPYy6SmmcGj4agARZCMoRk-IkXKU6Ackd8CEv3nuwCYKKuqkqGtZoP0beQe7mZ37vKl492YJMAXgkpHfk2OzntwhwdOwLUV3QyLH_Szw-IwxpU_LeZJ4_aYMZTQxxhFa1WDL6nXQPkQt1Q1Fu5iRSe8N5ZKFd_AwSwee9zv7sef2JsIlNOgR9mS45DtM5d6BNGipORIgluSixp5PJApXapB855f6dDiEUIuIR0JChFrpfiJPgQhCCB_EnVclumQg2fETV9qAfTmUhevtUsLclEBwtd6woLPUFH5Ivss5DKtett8aSDKT7TqrlTDJq37rfSJNtVGYwDy_glNrUCBetnUxd_XHtM9r8S3Gv1XX2YaZrs0Auf71oA05GbAEdcQ4gJ_H0Bo9gDNoD71o90iiCyOhOsixWKkKGGTb2lazY2ZXVKFoNIgZ8CE-enD3Vf9fzAP4V3gOyI0a9WJ6H4eU6IDrCXtR8R6LkgSi4viPCUMx7kZ2SezgwXSXVI_X0OnQPekHBKIpvmg4X3C8_1Tkl7u8RACCD2gunEubMdiqXNxQlQid3p8_ONktLzbqPaKcANFnbynvjzRHvamVVijQ55IB9BzxQfHZAcWdAl6rhVSEUJrqA7zOrJo91Jb2beYbp3y09jPyeGb099scXh7Bjgq4IEexC9RTfR8xH3gKImEJ8G9Px-XOsbn_xtilx6zXpXzZdGK1kkLVFZ6VI6FMisxJ9brrHPgdZPWTWjebv-4nMf3vyAa_RvNwcJ1xMFrwZ-mhOc9F1FxLMm3KV8Q5zCzhsjnpYXWKVwrHv00At8-7R-leRFfqjzNYl9k6eQq1xadEQYu8dU14jOnlQRSkOrBrf9NV9y6JCCgthqo1hawMoC2IHOqbNPVSmV6EaBeahBfMZWik9JvHcjB2rr9UdQPyZgxakMKAdUloTbn7HDnSYrE0Y7D8RaVU0pUPFKt5tTDIWiOMvJLmgObedPGJy9x6TqaWAVWr8pwRRagLMEyhk58CKoY77xUnQYU0FZ0IkiWQCQzDfqxKC-WXqGDGlEMPJDU38qjXS6iuYSsl8M8skP1xC2vk3zRwrlng9fZzvX6TlTj-Yr8At6z7c-kQXq7nORBSeyvkHKOIo1urGh9aWE1WzfXnvKDirgQQAtYROj3gFr3Rd_LfgUgwej6LUAvgaCjHJT2P__-ylTWouPqCJ7DJjjwJaYseR-1-OTmTXB6IZEAV2YGELQ1n62-f3Bo-w3LeyUnjWtmIiNVzJbJ9775QL7z9zc3UAqf5z5n258-NnV07lSv3woaCh1iEqMuEJOpH1fxsBZyCFPuFiZK4NRMg4LT5_PDXIDXinKLus1bmMHcMpgJB5KilTpwsE3xH4WZSCWoqCMCME3pSo70iWlc4u_dKZmncdkz61q8RfBEFvMjY0DJsbte0jxR5vC_HMXngdJErMFxkKNMKc7z8I7nbZUxYPSH25fiYv2XFq6dQhLrjOZRNMDHXiqM1ucx9-Qkf2mpTyc8-TIY62XMC_pVbXh9NxYbP_zNTxkFfxk1pFBnG6_T9WZGT7kYA4DQZ0cqj5NOvdRulExii1srYAFymrZu_gT0FFbUEf-eXYpMwu37cYIt2HJPotnlGivdTU72PBjLRNH1C9Ur56Kjd29TXqay3HF8m2SqSviuPL6pZ9m0swXOF5Sms9k4cYckBehxq9jNSAVgN5P572o2P5UM9VPDbjbKgcWnkbMbEI6aCUplyC0A3nZt7sMtVtudVRFzpmw93H6fvTpxoyCCs5qu_vK-5JFfqd8U8EFxcazuBpUDVOUwTMeXQELlm_?></g></svg>