<svg xmlns="http://www.w3.org/2000/svg" xmlns:xlink="http://www.w3.org/1999/xlink" contentStyleType="text/css" data-diagram-type="DESCRIPTION" height="440px" preserveAspectRatio="none" style="width:1424px;height:440px;background:#FAFAFA;" version="1.1" viewBox="0 0 1424 440" width="1424px" zoomAndPan="magnify"><?plantuml 1.2026.6?><defs><filter height="300%" id="fvwv37eq9zkp0" width="300%" x="-1" y="-1"><feGaussianBlur result="blurOut" stdDeviation="2"/><feColorMatrix in="blurOut" result="blurOut2" type="matrix" values="0 0 0 0 0 0 0 0 0 0 0 0 0 0 0 0 0 0 .4 0"/><feOffset dx="4" dy="4" in="blurOut2" result="blurOut3"/><feBlend in="SourceGraphic" in2="blurOut3" mode="normal"/></filter></defs><g><rect fill="#FAFAFA" height="440" style="stroke:none;stroke-width:1;" width="1424" x="0" y="0"/><g class="title" data-source-line="231"><rect fill="none" height="33.2813" style="stroke:#585858;stroke-width:1;" width="578.125" x="419.6614" y="5"/><text fill="#005F7F" font-family="sans-serif" font-size="20" font-weight="700" lengthAdjust="spacing" textLength="568.125" x="424.6614" y="28.5645">Cache Strategies &#8596; Supporting Algorithm Families</text></g><!--cluster Algorithm building blocks--><g class="cluster" data-qualified-name="Algorithm building blocks" data-source-line="236" id="ent0001"><rect fill="#FAFAFA" filter="url(#fvwv37eq9zkp0)" height="126.89" rx="6" ry="6" style="stroke:#585858;stroke-width:1;" width="610" x="546" y="51.498"/><text fill="#181818" font-family="sans-serif" font-size="20" font-weight="700" lengthAdjust="spacing" textLength="289.6387" x="706.1807" y="72.0625">Algorithm building blocks</text></g><!--cluster Classic policies--><g class="cluster" data-qualified-name="Classic policies" data-source-line="243" id="ent0006"><rect fill="#FAFAFA" filter="url(#fvwv37eq9zkp0)" height="110.59" rx="6" ry="6" style="stroke:#585858;stroke-width:1;" width="626" x="7" y="227.388"/><text fill="#181818" font-family="sans-serif" font-size="20" font-weight="700" lengthAdjust="spacing" textLength="170.459" x="234.7705" y="247.9525">Classic policies</text></g><!--cluster Modern policies--><g class="cluster" data-qualified-name="Modern policies" data-source-line="252" id="ent0013"><rect fill="#FAFAFA" filter="url(#fvwv37eq9zkp0)" height="110.59" rx="6" ry="6" style="stroke:#585858;stroke-width:1;" width="612" x="657" y="227.388"/><text fill="#181818" font-family="sans-serif" font-size="20" font-weight="700" lengthAdjust="spacing" textLength="178.5352" x="873.7324" y="247.9525">Modern policies</text></g><!--entity AP--><g class="entity" data-qualified-name="Algorithm building blocks.AP" data-source-line="237" id="ent0002"><rect fill="#005F7F" filter="url(#fvwv37eq9zkp0)" height="68.8906" rx="6" ry="6" style="stroke:#00BAC6;stroke-width:0.5;" width="154.9961" x="561.5" y="93.498"/><text fill="#FAFAFA" font-family="sans-serif" font-size="14" font-style="italic" lengthAdjust="spacing" textLength="43.4834" x="617.2563" y="116.4932">&#171;app&#187;</text><text fill="#FAFAFA" font-family="sans-serif" font-size="14" lengthAdjust="spacing" textLength="119.7109" x="579.1426" y="132.79">array_processing</text><text fill="#FAFAFA" font-family="sans-serif" font-size="14" lengthAdjust="spacing" textLength="134.9961" x="571.5" y="149.0869">list &#183; queue &#183; deque</text></g><!--entity HASH--><g class="entity" data-qualified-name="Algorithm building blocks.HASH" data-source-line="238" id="ent0003"><rect fill="#005F7F" filter="url(#fvwv37eq9zkp0)" height="68.8906" rx="6" ry="6" style="stroke:#00BAC6;stroke-width:0.5;" width="86.1172" x="751.94" y="93.498"/><text fill="#FAFAFA" font-family="sans-serif" font-size="14" font-style="italic" lengthAdjust="spacing" textLength="43.4834" x="773.2569" y="116.4932">&#171;app&#187;</text><text fill="#FAFAFA" font-family="sans-serif" font-size="14" lengthAdjust="spacing" textLength="55.2686" x="767.3643" y="132.79">hashing</text><text fill="#FAFAFA" font-family="sans-serif" font-size="14" lengthAdjust="spacing" textLength="66.1172" x="761.94" y="149.0869">map / set</text></g><!--entity PRI--><g class="entity" data-qualified-name="Algorithm building blocks.PRI" data-source-line="239" id="ent0004"><rect fill="#005F7F" filter="url(#fvwv37eq9zkp0)" height="68.8906" rx="6" ry="6" style="stroke:#00BAC6;stroke-width:0.5;" width="105.7432" x="873.13" y="93.498"/><text fill="#FAFAFA" font-family="sans-serif" font-size="14" font-style="italic" lengthAdjust="spacing" textLength="43.4834" x="904.2599" y="116.4932">&#171;app&#187;</text><text fill="#FAFAFA" font-family="sans-serif" font-size="14" lengthAdjust="spacing" textLength="50.5176" x="900.7428" y="132.79">priority</text><text fill="#FAFAFA" font-family="sans-serif" font-size="14" lengthAdjust="spacing" textLength="85.7432" x="883.13" y="149.0869">heap / top-K</text></g><!--entity SW--><g class="entity" data-qualified-name="Algorithm building blocks.SW" data-source-line="240" id="ent0005"><rect fill="#005F7F" filter="url(#fvwv37eq9zkp0)" height="52.5938" rx="6" ry="6" style="stroke:#00BAC6;stroke-width:0.5;" width="125.7246" x="1014.14" y="101.648"/><text fill="#FAFAFA" font-family="sans-serif" font-size="14" font-style="italic" lengthAdjust="spacing" textLength="43.4834" x="1055.2606" y="124.6432">&#171;app&#187;</text><text fill="#FAFAFA" font-family="sans-serif" font-size="14" lengthAdjust="spacing" textLength="105.7246" x="1024.14" y="140.94">sliding_window</text></g><!--entity FIFO--><g class="entity" data-qualified-name="Classic policies.FIFO" data-source-line="244" id="ent0007"><rect fill="#E5E4E4" filter="url(#fvwv37eq9zkp0)" height="52.5938" rx="6" ry="6" style="stroke:#585858;stroke-width:0.5;" width="56.9043" x="22.55" y="269.388"/><text fill="#181818" font-family="sans-serif" font-size="14" font-style="italic" lengthAdjust="spacing" textLength="34.9043" x="33.55" y="292.3832">&#171;db&#187;</text><text fill="#181818" font-family="sans-serif" font-size="14" lengthAdjust="spacing" textLength="31.2539" x="35.3752" y="308.68">FIFO</text></g><!--entity LRU--><g class="entity" data-qualified-name="Classic policies.LRU" data-source-line="245" id="ent0008"><rect fill="#E5E4E4" filter="url(#fvwv37eq9zkp0)" height="52.5938" rx="6" ry="6" style="stroke:#585858;stroke-width:0.5;" width="56.9043" x="206.55" y="269.388"/><text fill="#181818" font-family="sans-serif" font-size="14" font-style="italic" lengthAdjust="spacing" textLength="34.9043" x="217.55" y="292.3832">&#171;db&#187;</text><text fill="#181818" font-family="sans-serif" font-size="14" lengthAdjust="spacing" textLength="27.7744" x="221.1149" y="308.68">LRU</text></g><!--entity MRU--><g class="entity" data-qualified-name="Classic policies.MRU" data-source-line="246" id="ent0009"><rect fill="#E5E4E4" filter="url(#fvwv37eq9zkp0)" height="52.5938" rx="6" ry="6" style="stroke:#585858;stroke-width:0.5;" width="56.9043" x="298.55" y="269.388"/><text fill="#181818" font-family="sans-serif" font-size="14" font-style="italic" lengthAdjust="spacing" textLength="34.9043" x="309.55" y="292.3832">&#171;db&#187;</text><text fill="#181818" font-family="sans-serif" font-size="14" lengthAdjust="spacing" textLength="32.0537" x="310.9753" y="308.68">MRU</text></g><!--entity LFU--><g class="entity" data-qualified-name="Classic policies.LFU" data-source-line="247" id="ent0010"><rect fill="#E5E4E4" filter="url(#fvwv37eq9zkp0)" height="52.5938" rx="6" ry="6" style="stroke:#585858;stroke-width:0.5;" width="56.9043" x="560.55" y="269.388"/><text fill="#181818" font-family="sans-serif" font-size="14" font-style="italic" lengthAdjust="spacing" textLength="34.9043" x="571.55" y="292.3832">&#171;db&#187;</text><text fill="#181818" font-family="sans-serif" font-size="14" lengthAdjust="spacing" textLength="26.0996" x="575.9523" y="308.68">LFU</text></g><!--entity ARC--><g class="entity" data-qualified-name="Classic policies.ARC" data-source-line="248" id="ent0011"><rect fill="#E5E4E4" filter="url(#fvwv37eq9zkp0)" height="52.5938" rx="6" ry="6" style="stroke:#585858;stroke-width:0.5;" width="56.9043" x="114.55" y="269.388"/><text fill="#181818" font-family="sans-serif" font-size="14" font-style="italic" lengthAdjust="spacing" textLength="34.9043" x="125.55" y="292.3832">&#171;db&#187;</text><text fill="#181818" font-family="sans-serif" font-size="14" lengthAdjust="spacing" textLength="29.0801" x="128.4621" y="308.68">ARC</text></g><!--entity RR--><g class="entity" data-qualified-name="Classic policies.RR" data-source-line="249" id="ent0012"><rect fill="#E5E4E4" filter="url(#fvwv37eq9zkp0)" height="52.5938" rx="6" ry="6" style="stroke:#585858;stroke-width:0.5;" width="134.2764" x="390.86" y="269.388"/><text fill="#181818" font-family="sans-serif" font-size="14" font-style="italic" lengthAdjust="spacing" textLength="34.9043" x="440.546" y="292.3832">&#171;db&#187;</text><text fill="#181818" font-family="sans-serif" font-size="14" lengthAdjust="spacing" textLength="114.2764" x="400.86" y="308.68">RandomReplace</text></g><!--entity CLK--><g class="entity" data-qualified-name="Modern policies.CLK" data-source-line="253" id="ent0014"><rect fill="#00BAC6" filter="url(#fvwv37eq9zkp0)" height="52.5938" rx="6" ry="6" style="stroke:#006B70;stroke-width:0.5;" width="156.5342" x="672.73" y="269.388"/><text fill="#181818" font-family="sans-serif" font-size="14" font-style="italic" lengthAdjust="spacing" textLength="47.3525" x="727.3208" y="292.3832">&#171;host&#187;</text><text fill="#181818" font-family="sans-serif" font-size="14" lengthAdjust="spacing" textLength="136.5342" x="682.73" y="308.68">CLOCK / CLOCK-Pro</text></g><!--entity TQ--><g class="entity" data-qualified-name="Modern policies.TQ" data-source-line="254" id="ent0015"><rect fill="#00BAC6" filter="url(#fvwv37eq9zkp0)" height="52.5938" rx="6" ry="6" style="stroke:#006B70;stroke-width:0.5;" width="69.3525" x="864.32" y="269.388"/><text fill="#181818" font-family="sans-serif" font-size="14" font-style="italic" lengthAdjust="spacing" textLength="47.3525" x="875.32" y="292.3832">&#171;host&#187;</text><text fill="#181818" font-family="sans-serif" font-size="14" lengthAdjust="spacing" textLength="39.5869" x="879.2028" y="308.68">TwoQ</text></g><!--entity LIRS--><g class="entity" data-qualified-name="Modern policies.LIRS" data-source-line="255" id="ent0016"><rect fill="#00BAC6" filter="url(#fvwv37eq9zkp0)" height="52.5938" rx="6" ry="6" style="stroke:#006B70;stroke-width:0.5;" width="69.3525" x="968.32" y="269.388"/><text fill="#181818" font-family="sans-serif" font-size="14" font-style="italic" lengthAdjust="spacing" textLength="47.3525" x="979.32" y="292.3832">&#171;host&#187;</text><text fill="#181818" font-family="sans-serif" font-size="14" lengthAdjust="spacing" textLength="30.543" x="987.7248" y="308.68">LIRS</text></g><!--entity TLFU--><g class="entity" data-qualified-name="Modern policies.TLFU" data-source-line="256" id="ent0017"><rect fill="#00BAC6" filter="url(#fvwv37eq9zkp0)" height="52.5938" rx="6" ry="6" style="stroke:#006B70;stroke-width:0.5;" width="75.6992" x="1177.15" y="269.388"/><text fill="#181818" font-family="sans-serif" font-size="14" font-style="italic" lengthAdjust="spacing" textLength="47.3525" x="1191.3233" y="292.3832">&#171;host&#187;</text><text fill="#181818" font-family="sans-serif" font-size="14" lengthAdjust="spacing" textLength="55.6992" x="1187.15" y="308.68">TinyLFU</text></g><!--entity GDSF--><g class="entity" data-qualified-name="Modern policies.GDSF" data-source-line="257" id="ent0018"><rect fill="#00BAC6" filter="url(#fvwv37eq9zkp0)" height="52.5938" rx="6" ry="6" style="stroke:#006B70;stroke-width:0.5;" width="69.3525" x="1072.32" y="269.388"/><text fill="#181818" font-family="sans-serif" font-size="14" font-style="italic" lengthAdjust="spacing" textLength="47.3525" x="1083.32" y="292.3832">&#171;host&#187;</text><text fill="#181818" font-family="sans-serif" font-size="14" lengthAdjust="spacing" textLength="38.5684" x="1087.7121" y="308.68">GDSF</text></g><g class="entity" data-qualified-name="GMN39" data-source-line="282" id="ent0040"><path d="M1084.49,384.978 L1084.49,425.2437 A0,0 0 0 0 1084.49,425.2437 L1345.5076,425.2437 A0,0 0 0 0 1345.5076,425.2437 L1345.5076,394.978 L1335.5076,384.978 L1219,384.978 L1215,322.418 L1211,384.978 L1084.49,384.978 A0,0 0 0 0 1084.49,384.978" fill="#E5E4E4" filter="url(#fvwv37eq9zkp0)" style="stroke:#B4B3B3;stroke-width:0.5;"/><path d="M1335.5076,384.978 L1335.5076,394.978 L1345.5076,394.978 L1335.5076,384.978" fill="#E5E4E4" style="stroke:#B4B3B3;stroke-width:0.5;"/><text fill="#181818" font-family="sans-serif" font-size="13" lengthAdjust="spacing" textLength="213.7827" x="1103.6074" y="402.0449">TinyLFU: frequency sketch filters</text><text fill="#181818" font-family="sans-serif" font-size="13" lengthAdjust="spacing" textLength="240.0176" x="1090.49" y="417.1778">admissions into a small window LRU.</text></g><!--link AP to FIFO--><g class="link" data-entity-1="ent0002" data-entity-2="ent0007" data-link-type="dependency" data-source-line="260" id="lnk19"><path d="M561.06,133.028 C414.57,141.408 109.61,162.498 74,194.388 C53.24,212.978 49.2313,241.1581 49.2713,264.2381" fill="none" id="AP-to-FIFO" style="stroke:#585858;stroke-width:2;"/><polygon fill="#585858" points="49.28,269.238,53.2644,260.2311,49.2713,264.2381,45.2644,260.245,49.28,269.238" style="stroke:#585858;stroke-width:2;stroke-linejoin:miter;stroke-miterlimit:10;"/><text fill="#181818" font-family="sans-serif" font-size="13" lengthAdjust="spacing" textLength="70.3066" x="75" y="207.4549">ring queue</text></g><!--link AP to LRU--><g class="link" data-entity-1="ent0002" data-entity-2="ent0008" data-link-type="dependency" data-source-line="261" id="lnk20"><path d="M561.03,130.048 C489.57,134.188 383.03,148.488 303,194.388 C274.17,210.928 257.0227,240.6766 246.5927,264.5366" fill="none" id="AP-to-LRU" style="stroke:#585858;stroke-width:2;"/><polygon fill="#585858" points="244.59,269.118,251.86,262.4737,246.5927,264.5366,244.5297,259.2694,244.59,269.118" style="stroke:#585858;stroke-width:2;stroke-linejoin:miter;stroke-miterlimit:10;"/><text fill="#181818" font-family="sans-serif" font-size="13" lengthAdjust="spacing" textLength="72.5347" x="304" y="207.4549">DLL + map</text></g><!--link HASH to LRU--><g class="link" data-entity-1="ent0003" data-entity-2="ent0008" data-link-type="dependency" data-source-line="262" id="lnk21"><path d="M767.51,162.858 C757.97,172.218 746.5,181.218 734,186.388 C706.06,197.948 492.01,190.708 462,194.388 C426.78,198.708 419.1,206.228 384,211.388 C361.29,214.728 300.57,207.388 281,219.388 C262.72,230.598 252.5963,247.454 245.4363,264.604" fill="none" id="HASH-to-LRU" style="stroke:#585858;stroke-width:2;"/><polygon fill="#585858" points="243.51,269.218,250.6686,262.4539,245.4363,264.604,243.2862,259.3717,243.51,269.218" style="stroke:#585858;stroke-width:2;stroke-linejoin:miter;stroke-miterlimit:10;"/></g><!--link AP to MRU--><g class="link" data-entity-1="ent0002" data-entity-2="ent0009" data-link-type="dependency" data-source-line="263" id="lnk22"><path d="M561.1,140.778 C504.07,152.688 427.45,175.798 373,219.388 C356.74,232.408 346.892,248.3207 339.252,264.6207" fill="none" id="AP-to-MRU" style="stroke:#585858;stroke-width:2;"/><polygon fill="#585858" points="337.13,269.148,344.5715,262.6964,339.252,264.6207,337.3278,259.3012,337.13,269.148" style="stroke:#585858;stroke-width:2;stroke-linejoin:miter;stroke-miterlimit:10;"/></g><!--link HASH to MRU--><g class="link" data-entity-1="ent0003" data-entity-2="ent0009" data-link-type="dependency" data-source-line="264" id="lnk23"><path d="M767.46,162.758 C757.93,172.118 746.47,181.138 734,186.388 C714.73,194.508 566.76,191.928 546,194.388 C506.87,199.018 498,205.778 459,211.388 C440,214.118 389.29,209.228 373,219.388 C354.93,230.658 344.8651,247.2819 337.6651,264.3319" fill="none" id="HASH-to-MRU" style="stroke:#585858;stroke-width:2;"/><polygon fill="#585858" points="335.72,268.938,342.9061,262.2031,337.6651,264.3319,335.5363,259.0909,335.72,268.938" style="stroke:#585858;stroke-width:2;stroke-linejoin:miter;stroke-miterlimit:10;"/></g><!--link AP to ARC--><g class="link" data-entity-1="ent0002" data-entity-2="ent0011" data-link-type="dependency" data-source-line="265" id="lnk24"><path d="M561.15,129.338 C441.99,131.608 222.25,142.878 166,194.388 C145.58,213.088 141.4652,240.9081 141.3952,263.8981" fill="none" id="AP-to-ARC" style="stroke:#585858;stroke-width:2;"/><polygon fill="#585858" points="141.38,268.898,145.4074,259.9103,141.3952,263.8981,137.4074,259.8859,141.38,268.898" style="stroke:#585858;stroke-width:2;stroke-linejoin:miter;stroke-miterlimit:10;"/><text fill="#181818" font-family="sans-serif" font-size="13" lengthAdjust="spacing" textLength="107.2119" x="167" y="207.4549">2 LRUs + ghosts</text></g><!--link HASH to ARC--><g class="link" data-entity-1="ent0003" data-entity-2="ent0011" data-link-type="dependency" data-source-line="266" id="lnk25"><path d="M767.83,162.608 C758.24,172.078 746.65,181.198 734,186.388 C697.6,201.308 418.59,186.738 380,194.388 C359.44,198.468 356.5,206.988 336,211.388 C320.01,214.818 203.04,210.998 189,219.388 C170.59,230.388 160.4737,247.2588 153.3437,264.4688" fill="none" id="HASH-to-ARC" style="stroke:#585858;stroke-width:2;"/><polygon fill="#585858" points="151.43,269.088,158.5701,262.3044,153.3437,264.4688,151.1793,259.2424,151.43,269.088" style="stroke:#585858;stroke-width:2;stroke-linejoin:miter;stroke-miterlimit:10;"/></g><!--link HASH to LFU--><g class="link" data-entity-1="ent0003" data-entity-2="ent0010" data-link-type="dependency" data-source-line="267" id="lnk26"><path d="M767.4,162.618 C757.86,171.958 746.41,181.008 734,186.388 C720.82,192.098 615.63,184.738 605,194.388 C584.64,212.878 582.7298,241.0957 584.6798,264.2157" fill="none" id="HASH-to-LFU" style="stroke:#585858;stroke-width:2;"/><polygon fill="#585858" points="585.1,269.198,588.3295,259.8937,584.6798,264.2157,580.3578,260.5661,585.1,269.198" style="stroke:#585858;stroke-width:2;stroke-linejoin:miter;stroke-miterlimit:10;"/></g><!--link PRI to LFU--><g class="link" data-entity-1="ent0004" data-entity-2="ent0010" data-link-type="dependency" data-source-line="268" id="lnk27"><path d="M891.1,162.678 C880.5,171.458 868.37,180.188 856,186.388 C814.66,207.118 800.64,203.928 755,211.388 C733.44,214.918 676.59,209.708 657,219.388 C634.89,230.308 619.4896,247.7065 607.4696,264.9465" fill="none" id="PRI-to-LFU" style="stroke:#585858;stroke-width:2;"/><polygon fill="#585858" points="604.61,269.048,613.0386,263.953,607.4696,264.9465,606.4761,259.3776,604.61,269.048" style="stroke:#585858;stroke-width:2;stroke-linejoin:miter;stroke-miterlimit:10;"/></g><!--link HASH to RR--><g class="link" data-entity-1="ent0003" data-entity-2="ent0012" data-link-type="dependency" data-source-line="269" id="lnk28"><path d="M767.43,162.678 C757.89,172.028 746.44,181.058 734,186.388 C703.72,199.358 617.56,184.958 586,194.388 C564.82,200.718 560.92,206.438 543,219.388 C522.07,234.518 503.9424,250.4528 487.6724,265.7528" fill="none" id="HASH-to-RR" style="stroke:#585858;stroke-width:1;stroke-dasharray:1,3;"/><polygon fill="#585858" points="484.03,269.178,493.3266,265.9265,487.6724,265.7528,487.8462,260.0986,484.03,269.178" style="stroke:#585858;stroke-width:1;stroke-linejoin:miter;stroke-miterlimit:10;"/></g><!--link AP to CLK--><g class="link" data-entity-1="ent0002" data-entity-2="ent0014" data-link-type="dependency" data-source-line="270" id="lnk29"><path d="M619.12,162.768 C612.67,178.388 609.18,196.698 618,211.388 C621.89,217.868 626.48,215.578 633,219.388 C659.96,235.148 685.4059,251.3206 708.2259,266.2506" fill="none" id="AP-to-CLK" style="stroke:#585858;stroke-width:2;"/><polygon fill="#585858" points="712.41,268.988,707.0686,260.7134,708.2259,266.2506,702.6887,267.4079,712.41,268.988" style="stroke:#585858;stroke-width:2;stroke-linejoin:miter;stroke-miterlimit:10;"/><text fill="#181818" font-family="sans-serif" font-size="13" lengthAdjust="spacing" textLength="127.3721" x="619" y="207.4549">second-chance ring</text></g><!--link AP to TQ--><g class="link" data-entity-1="ent0002" data-entity-2="ent0015" data-link-type="dependency" data-source-line="271" id="lnk30"><path d="M689.46,162.778 C703.49,171.248 719,179.798 734,186.388 C745.98,191.648 836.39,211.728 847,219.388 C864.52,232.038 875.7193,248.1012 884.5993,264.5012" fill="none" id="AP-to-TQ" style="stroke:#585858;stroke-width:2;"/><polygon fill="#585858" points="886.98,268.898,886.2122,259.0792,884.5993,264.5012,879.1772,262.8883,886.98,268.898" style="stroke:#585858;stroke-width:2;stroke-linejoin:miter;stroke-miterlimit:10;"/></g><!--link HASH to TQ--><g class="link" data-entity-1="ent0003" data-entity-2="ent0015" data-link-type="dependency" data-source-line="272" id="lnk31"><path d="M816.3,162.888 C836.03,194.328 862.282,236.1731 880.182,264.6931" fill="none" id="HASH-to-TQ" style="stroke:#585858;stroke-width:2;"/><polygon fill="#585858" points="882.84,268.928,881.4436,259.1787,880.182,264.6931,874.6676,263.4315,882.84,268.928" style="stroke:#585858;stroke-width:2;stroke-linejoin:miter;stroke-miterlimit:10;"/></g><!--link AP to LIRS--><g class="link" data-entity-1="ent0002" data-entity-2="ent0016" data-link-type="dependency" data-source-line="273" id="lnk32"><path d="M685.28,162.628 C700.15,171.858 717.16,180.838 734,186.388 C770.46,198.398 782.31,187.088 820,194.388 C845.95,199.418 851.08,206.168 877,211.388 C893.21,214.658 936.79,210.928 951,219.388 C969.97,230.688 981.4255,247.4501 989.9855,264.4901" fill="none" id="AP-to-LIRS" style="stroke:#585858;stroke-width:2;"/><polygon fill="#585858" points="992.23,268.958,991.7643,259.1202,989.9855,264.4901,984.6156,262.7113,992.23,268.958" style="stroke:#585858;stroke-width:2;stroke-linejoin:miter;stroke-miterlimit:10;"/></g><!--link HASH to LIRS--><g class="link" data-entity-1="ent0003" data-entity-2="ent0016" data-link-type="dependency" data-source-line="274" id="lnk33"><path d="M826.35,162.668 C835.36,171.148 845.59,179.718 856,186.388 C859.13,188.388 914.46,210.258 918,211.388 C932.37,215.998 938.56,210.838 951,219.388 C968.94,231.718 980.2248,248.0022 989.0248,264.5722" fill="none" id="HASH-to-LIRS" style="stroke:#585858;stroke-width:2;"/><polygon fill="#585858" points="991.37,268.988,990.6814,259.1633,989.0248,264.5722,983.6159,262.9156,991.37,268.988" style="stroke:#585858;stroke-width:2;stroke-linejoin:miter;stroke-miterlimit:10;"/></g><!--link HASH to TLFU--><g class="link" data-entity-1="ent0003" data-entity-2="ent0017" data-link-type="dependency" data-source-line="275" id="lnk34"><path d="M822.61,162.598 C832.15,171.938 843.59,180.998 856,186.388 C881.33,197.398 952.93,188.928 980,194.388 C1002.6,198.948 1006.4,206.858 1029,211.388 C1057.38,217.078 1133.55,205.608 1159,219.388 C1179.06,230.248 1191.5365,247.3527 1200.8965,264.6127" fill="none" id="HASH-to-TLFU" style="stroke:#585858;stroke-width:2;"/><polygon fill="#585858" points="1203.28,269.008,1202.5059,259.1897,1200.8965,264.6127,1195.4734,263.0033,1203.28,269.008" style="stroke:#585858;stroke-width:2;stroke-linejoin:miter;stroke-miterlimit:10;"/><text fill="#181818" font-family="sans-serif" font-size="13" lengthAdjust="spacing" textLength="67.7676" x="1030" y="207.4549">CM-sketch</text></g><!--link PRI to TLFU--><g class="link" data-entity-1="ent0004" data-entity-2="ent0017" data-link-type="dependency" data-source-line="276" id="lnk35"><path d="M958.9,162.868 C970.04,172.228 983.19,181.218 997,186.388 C1008.56,190.718 1210.43,185.508 1219,194.388 C1237.75,213.828 1233.8387,241.7311 1226.6387,264.4811" fill="none" id="PRI-to-TLFU" style="stroke:#585858;stroke-width:1;stroke-dasharray:1,3;"/><polygon fill="#585858" points="1225.13,269.248,1231.6592,261.8744,1226.6387,264.4811,1224.032,259.4606,1225.13,269.248" style="stroke:#585858;stroke-width:1;stroke-linejoin:miter;stroke-miterlimit:10;"/></g><!--link SW to TLFU--><g class="link" data-entity-1="ent0005" data-entity-2="ent0017" data-link-type="dependency" data-source-line="277" id="lnk36"><path d="M1140.2,130.408 C1187.67,135.248 1249.83,150.338 1282,194.388 C1300.16,219.248 1279.1974,245.4108 1254.7974,265.9208" fill="none" id="SW-to-TLFU" style="stroke:#585858;stroke-width:1;stroke-dasharray:1,3;"/><polygon fill="#585858" points="1250.97,269.138,1260.4332,266.409,1254.7974,265.9208,1255.2856,260.285,1250.97,269.138" style="stroke:#585858;stroke-width:1;stroke-linejoin:miter;stroke-miterlimit:10;"/><text fill="#181818" font-family="sans-serif" font-size="13" lengthAdjust="spacing" textLength="119.2979" x="1289.15" y="207.4549">admission window</text></g><!--link HASH to GDSF--><g class="link" data-entity-1="ent0003" data-entity-2="ent0018" data-link-type="dependency" data-source-line="278" id="lnk37"><path d="M823.47,162.668 C832.89,171.788 844.05,180.688 856,186.388 C879.88,197.778 888.94,189.788 915,194.388 C949.94,200.558 958.04,205.338 993,211.388 C1020.38,216.128 1031.28,204.928 1055,219.388 C1073.86,230.878 1085.314,247.6259 1093.904,264.6159" fill="none" id="HASH-to-GDSF" style="stroke:#585858;stroke-width:2;"/><polygon fill="#585858" points="1096.16,269.078,1095.6689,259.2414,1093.904,264.6159,1088.5295,262.8511,1096.16,269.078" style="stroke:#585858;stroke-width:2;stroke-linejoin:miter;stroke-miterlimit:10;"/></g><!--link PRI to GDSF--><g class="link" data-entity-1="ent0004" data-entity-2="ent0018" data-link-type="dependency" data-source-line="279" id="lnk38"><path d="M959.38,162.858 C970.45,172.098 983.44,181.018 997,186.388 C1019.58,195.328 1089.38,176.678 1106,194.388 C1124.35,213.938 1122.1901,241.4142 1116.5901,264.0642" fill="none" id="PRI-to-GDSF" style="stroke:#585858;stroke-width:2;"/><polygon fill="#585858" points="1115.39,268.918,1121.4332,261.1412,1116.5901,264.0642,1113.667,259.2211,1115.39,268.918" style="stroke:#585858;stroke-width:2;stroke-linejoin:miter;stroke-miterlimit:10;"/><text fill="#181818" font-family="sans-serif" font-size="13" lengthAdjust="spacing" textLength="93.1455" x="1116.53" y="207.4549">cost/size heap</text></g><?plantuml-src lLdRRXiv4dtNLp2Q1M9dh8ljt4Rn691a-OB8bYB928BDmg2wAQdXxgQcITdH1W7sQRzW_cNVzrFcI_OKoMwrRh6D1Di2h7QnM2nMdIfMKSz__w6dy9nr4tad9FlhNt-oRiXZVNtPPdeY8i5smc0yqRlWEHEnI09lZmMn5yvyFWo5vIcpiuGFMQ3PVQ0dDR0ozimo2JRHUgfgbKh2xyjZ3C-6CoKIJyPQnBhioQWoDMkNF5u9VD02FQz4F8WTlJoTHI54dl3abdaylkEgnY22kMa-w8Q7xIWEVIFk9LBjCVDF8g6Z9qCvIzHkcVR9Gw4r1iH892BsHCqC9weS-MLs9Taf5BkYgO5YIkWbYpnNp1SZFWir98t0I4nGnNy7UToRW9QmPY9eqKZwmIWGYM8xnM8aOraixh4NBuOoz5-ys6ELIg1v67YLogwHbS2eOH0B9gBfX2l83MAb1VUP71aZ1_6OljdzXAJx0HydF69QCeb98-u9xEu7KG15IgKIQoGyzjdK6QhqXAVmx6-DThtv7kvdlxFYB_jlwLC4-UFvnQ2Laa_hz27oMQ_-YQNaj-P9oJS7ZlpgBNqoyg4ZDrus3Xk76Vcb8xTUjLwsNXOBe5_MBwuouTNggzCtfqL7pgHKgszU_tP2v7fxm7BSZNhpjIFVx2_8hnjlgeRSRBQk1exSR9mq3keBCYQO_Uo_FQbMZIgjNg_JOndxGRLgfFIlmT_lfy9_UtLu0FRdFnpClHpg3O2LY81W2btdrfAFIBuJWFo0ZncFvooMY5KANq8PP4HSUnC2tT4HS0XCw_bK71-pdQa9dKJukmoefK0aMDgeSo0kcmnmTCIdKyp0CmeIfKjJdkWv0v5LM3A3FeWof8Axm1FCFSvdEq1-k9jAKVFO8pb_pCHCOAwuGvOe-RI16FyEkNSxJkGCe4qVvnwahaYaOYPIQQCDlM3QDEGQSHVXLKv5mZLsCoGfF9cdOYmcThmvZrCn7gpganpn1MQ9UOZvUX8aljjUXK4h7x8MZuFpZiAAcJh-q9g6OMs4kwPSXCbAWmT_PIBOwkE0laZ890Uka0c96l4Wd2KamnTA9pDFmpxq7u_70kPHcHo7nXtouSz86es50sGSpibxNxJ37ml5I5EQ8f2uv6cscK9gj_0CPCfypKwxqxkfTxkaemlOrS7-fwic1ct4hGoUT_e3EvE2TsMmsUvSds3GPfELmPE6iOjB7Yk3pbekR5Vs-oloSG27qOxtycdS5rx80Qf0nWfMONHA8Gp2K6NY-uDFxTRAVj-HeDf7ahd2jxo1xNpBwkRvVa9YwRiymZXGTvy6FMMOm1pdT1vw60k4puPp5cPgOUuE7Ns4HudyOrwucb0MuOhTYp2aRuiPdDsIYWarGswu4mgJnucOAm-vYz7PPDbAGyZtsLqWxf6dogmJkpH48SM4FnPxf8JLpAQaEeppyIOx65121165Em2973D9S4mZJYP8KNDaIZt9JUfq1nUTgtgRCMuGd8WISfXvKRD8c1TjHCafUPs7kSbP_iz5AKePJuGhuQfnzgg0vkTcVxXkNPl3q-p5v1oJ4w5ex9VaQ0JRPf3Si-cHeShQpSbmyC53BbD2CRx8TWXF7YyIcfeZF2DClbPyZ0A9rVE6Qx2QMwB2k6TL_K5WfGXUSK_fxmxjUmITVvIELnWpbomOBRZMMJC7WDL6nXQPcQt1Q0_mBOoPGNEB6q1d_AwSQeinzt3iXG4di-_SYgacW8CBC7M5d6AtGapPlKnkWULTPgkffJnapB8bBUASsfpst46uEM6cvOShFLP6JMsMvijih5iVd5jLSEXvjx5GwlV3vT5cv_Aoan_VNqmtfrMR3qMuysMN7PdIk-OySdmqFFvoL1aU7rKCVM5nDVCy25gRP_NUFiyVhasn-rcVufpL30L7asCIGq0HgHvR01SKF8SI04KvUfefgl9Oz_Kyf5R3qpY3Gv5ZcI9U4LlR6TnHEK1Grd7Unn45d2Se_Wi5L6IOTrnWw6-aPbyBXCF-XFkICY5oJAZ4EqEaRgP9EsIsChVKnG7cnanvRiVQC9oZshg5oDyA-8F6B3H5oTUyMCB2EqFe1_yKxA3w3jp8CjnamHLc9z7AisV8r-shMl8WnH7RBx_QlYiZCfOuYxzktgEjdZPlyl1xrkfP8GdXugrTYg6i6QFCsxRMT-pvrANmnqAp5Ge2GOcAfXGUI2VKVg88GIKSornPvTfNaqd87Iaajsbit6Y7P8B4vCZ8B6lwvZQNkNt_vVe6zfqJkzpt2PRxrTHuvXYZddMRDjcoIyeiTDmC06QRc8TziYJrOQyyRPS7gJ9PMFzyZTOLi36N-F-ljNok-H07sdUZxM2B4pSi-5XGPG68l1qApzRNty5qkjJZKKt2KTU0zYHmcek29w28bh4DxRPbpD6zQILtoV3ad6LQrwUbh4sMIiEGH8uIkYfRo-4R8tL1N89KbXNScVX4QKOBMqjzVPhsMMOrroMBrAaUV-TbH7JDXGWrk0W7UIUo7l3ew9U9-79yNAEnkRbDN2XYMYTb17oERQSqJ0I_HKfFfzkIfLm-JkyKVGdbSCRjxbc9uFUD1AxI1enhqsdJjGpw27H0r2yvPbCrm6KoCfU6qz3S6Z9MfYkP1y-5pS6wRkrlHgBfJnw1xCtmpKlDeTs8DjSt3uNcmsBRUPdVZOnyAdlG2FcQ2OBzuMFAaGUrNP5ggkXjWashyqXjCzvlXQEAAofjcTVa7c3KHp-gnJW0xFxwzv-iFvjEPQBfcAk7Ova4UXAnKnu5OM2wz2wgPi2_adOrDRhiKnMFP9LK9eiworwxHhgaFmxO7mPMVWsWecM6i2mfBw3hiSemb4Fxqy16kPKRNtggqgmtprit_K6lFcYTNRJwQ8_EEhsBmVbbF_qjeOq6DeG2w4pIh5DSx6Wu2q9pbcCzxrOLZQKN5LGHXIkVtq1FQah0zndn2ap-zpykeUF55tWjKbpMk-b5wBAG2Pf5CpVYT1-Av63Op-lzyyqJq9AGVlFFyKIOALfEI-_Df6xlOlCS5GQqaHkq1UWD36__OyRwBRVxPiYn5uzDPHZ0skkRFhquxHW1zEBkBvSvshrhmu3lZUENRlnootZxrCq_tJnUxpMjHNlDZUCzf3ePzOJ9QuQprqiPyrkzH96OnDjtYiw--HxsDT-bRYADh6RxVNQ9lCm_k9SV3ClWmnQEzaMlRxU6bsrIWdYUMc1WJR29xUoaVsfuw6N1W_q1QBdx4-Eb6ai8nWQLA-Faf1exQRVPhmm8B1ZSBO-lp83RrhWkrxZ8EJLsGFCLH8z9FxKs3rphAvvU5mZ8AwGSMtRVq-kjh4hEgI66F1dx9Mz2DsjcwojiWmzhguAqOXYuQ5stJKJZfHfhNfRKhT3U9ATzfYdn511o6yYOolqeGDIXJRO1khO4ENdLACRnzAkbqXL5zIIbWqB1jBv3gJMTxYExC6CELJMS-fIHOWzbY56MxgAHMga0oRGmHOHadAc8Xw7JYJnPBb2lIoly3m00?></g></svg>