<svg xmlns="http://www.w3.org/2000/svg" xmlns:xlink="http://www.w3.org/1999/xlink" contentStyleType="text/css" data-diagram-type="DESCRIPTION" height="569px" preserveAspectRatio="none" style="width:1159px;height:569px;background:#FAFAFA;" version="1.1" viewBox="0 0 1159 569" width="1159px" zoomAndPan="magnify"><?plantuml 1.2026.6?><defs><filter height="300%" id="fsawm75hpkfuv" width="300%" x="-1" y="-1"><feGaussianBlur result="blurOut" stdDeviation="2"/><feColorMatrix in="blurOut" result="blurOut2" type="matrix" values="0 0 0 0 0 0 0 0 0 0 0 0 0 0 0 0 0 0 .4 0"/><feOffset dx="4" dy="4" in="blurOut2" result="blurOut3"/><feBlend in="SourceGraphic" in2="blurOut3" mode="normal"/></filter></defs><g><rect fill="#FAFAFA" height="569" style="stroke:none;stroke-width:1;" width="1159" x="0" y="0"/><g class="title" data-source-line="2"><rect fill="none" height="33.2813" style="stroke:#585858;stroke-width:1;" width="549.248" x="301.7092" y="5"/><text fill="#005F7F" font-family="sans-serif" font-size="20" font-weight="700" lengthAdjust="spacing" textLength="539.248" x="306.7092" y="28.5645">opencode &#8212; open-source terminal coding agent</text></g><!--entity TUI--><g class="entity" data-qualified-name="TUI" data-source-line="13" id="ent0001"><rect fill="#005F7F" filter="url(#fsawm75hpkfuv)" height="52.5938" rx="6" ry="6" style="stroke:#00BAC6;stroke-width:0.5;" width="138.918" x="375" y="51.2813"/><text fill="#FAFAFA" font-family="sans-serif" font-size="14" font-style="italic" lengthAdjust="spacing" textLength="43.4834" x="422.7173" y="74.2764">&#171;app&#187;</text><text fill="#FAFAFA" font-family="sans-serif" font-size="14" lengthAdjust="spacing" textLength="118.918" x="385" y="90.5732">Terminal UI (TUI)</text></g><!--entity SRV--><g class="entity" data-qualified-name="SRV" data-source-line="14" id="ent0002"><rect fill="#005F7F" filter="url(#fsawm75hpkfuv)" height="68.8906" rx="6" ry="6" style="stroke:#00BAC6;stroke-width:0.5;" width="241.6416" x="323.5" y="181.2813"/><text fill="#FAFAFA" font-family="sans-serif" font-size="14" font-style="italic" lengthAdjust="spacing" textLength="43.4834" x="422.5791" y="204.2764">&#171;app&#187;</text><text fill="#FAFAFA" font-family="sans-serif" font-size="14" lengthAdjust="spacing" textLength="117.4688" x="385.5864" y="220.5732">opencode server</text><text fill="#FAFAFA" font-family="sans-serif" font-size="14" lengthAdjust="spacing" textLength="221.6416" x="333.5" y="236.8701">(client/server core &#183; agent loop)</text></g><!--entity TOOLS--><g class="entity" data-qualified-name="TOOLS" data-source-line="15" id="ent0003"><rect fill="#005F7F" filter="url(#fsawm75hpkfuv)" height="68.8906" rx="6" ry="6" style="stroke:#00BAC6;stroke-width:0.5;" width="208.583" x="7" y="332.2813"/><text fill="#FAFAFA" font-family="sans-serif" font-size="14" font-style="italic" lengthAdjust="spacing" textLength="43.4834" x="89.5498" y="355.2764">&#171;app&#187;</text><text fill="#FAFAFA" font-family="sans-serif" font-size="14" lengthAdjust="spacing" textLength="36.8662" x="92.8584" y="371.5732">Tools</text><text fill="#FAFAFA" font-family="sans-serif" font-size="14" lengthAdjust="spacing" textLength="188.583" x="17" y="387.8701">(edit &#183; read &#183; run/PTY &#183; LSP)</text></g><!--entity DB--><g class="entity" data-qualified-name="DB" data-source-line="16" id="ent0004"><path d="M251,345.7813 C251,335.7813 338.3281,335.7813 338.3281,335.7813 C338.3281,335.7813 425.6563,335.7813 425.6563,345.7813 L425.6563,387.375 C425.6563,397.375 338.3281,397.375 338.3281,397.375 C338.3281,397.375 251,397.375 251,387.375 L251,345.7813" fill="#E5E4E4" filter="url(#fsawm75hpkfuv)" style="stroke:#585858;stroke-width:0.5;"/><path d="M251,345.7813 C251,355.7813 338.3281,355.7813 338.3281,355.7813 C338.3281,355.7813 425.6563,355.7813 425.6563,345.7813" fill="none" style="stroke:#585858;stroke-width:0.5;"/><text fill="#181818" font-family="sans-serif" font-size="14" font-style="italic" lengthAdjust="spacing" textLength="34.9043" x="320.876" y="372.7764">&#171;db&#187;</text><text fill="#181818" font-family="sans-serif" font-size="14" lengthAdjust="spacing" textLength="154.6563" x="261" y="389.0732">Session store (SQLite)</text></g><!--entity REPO--><g class="entity" data-qualified-name="REPO" data-source-line="17" id="ent0005"><path d="M39,493.2813 C39,483.2813 111.2686,483.2813 111.2686,483.2813 C111.2686,483.2813 183.5371,483.2813 183.5371,493.2813 L183.5371,534.875 C183.5371,544.875 111.2686,544.875 111.2686,544.875 C111.2686,544.875 39,544.875 39,534.875 L39,493.2813" fill="#E5E4E4" filter="url(#fsawm75hpkfuv)" style="stroke:#585858;stroke-width:0.5;"/><path d="M39,493.2813 C39,503.2813 111.2686,503.2813 111.2686,503.2813 C111.2686,503.2813 183.5371,503.2813 183.5371,493.2813" fill="none" style="stroke:#585858;stroke-width:0.5;"/><text fill="#181818" font-family="sans-serif" font-size="14" font-style="italic" lengthAdjust="spacing" textLength="34.9043" x="93.8164" y="520.2764">&#171;db&#187;</text><text fill="#181818" font-family="sans-serif" font-size="14" lengthAdjust="spacing" textLength="124.5371" x="49" y="536.5732">Workspace (repo)</text></g><!--entity LLM--><g class="entity" data-qualified-name="LLM" data-source-line="18" id="ent0006"><path d="M471.5165,337.062 C473.4495,330.9898 477.209,331.089 481.4349,334.7177 C484.6999,328.3032 488.398,328.2419 492.7349,333.6972 C495.6451,328.6431 501.3743,327.1955 504.4896,333.4846 C507.588,326.4571 514.0815,327.4448 517.4831,333.1758 C520.0283,327.1878 525.6856,326.559 528.8808,332.5577 C530.2535,326.3448 535.5238,325.4137 539.3788,330.1853 C543.9811,324.9707 547.6635,324.685 551.1661,331.2826 C554.1075,326.9901 559.4604,325.8862 562.0836,331.6287 C566.6163,326.2934 570.4871,325.9283 574.5771,332.1091 C578.3605,327.0796 582.9464,328.1662 585.8343,333.1189 C589.3092,327.7307 594.4087,326.3717 598.0969,332.8992 C602.0872,328.8779 605.3127,328.3742 608.513,333.7728 C612.7246,327.4347 618.9331,328.9801 621.1959,335.6701 C625.6487,331.6874 629.2846,331.1956 632.0916,337.4259 C639.4768,340.3223 640.8189,345.7974 635.627,351.7895 C643.4227,355.4973 646.1025,363.4226 637.3223,368.7839 C643.2153,373.3002 644.1013,380.9875 635.8148,384.109 C641.7633,389.6441 639.286,396.871 631.9351,398.9231 C629.4625,404.2215 624.6048,404.6405 621.4183,399.6531 C619.4328,404.9119 614.8209,406.9599 610.3851,402.4089 C607.8976,408.1172 602.8432,410.0539 598.6852,404.0821 C595.3365,410.2938 589.5055,409.5595 586.2134,404.022 C583.8078,409.0392 579.6397,410.3056 575.4828,406.0483 C571.5862,411.6332 567.5393,410.8365 563.6111,406.0846 C560.9716,411.9639 557.25,412.7409 552.1567,409.0091 C547.9727,413.5074 542.0915,412.6277 540.4571,406.2632 C536.4652,411.7376 531.8227,410.1076 529.1491,404.8713 C525.6843,411.5305 520.0658,410.7976 516.0486,405.4752 C510.6992,410.375 506.3982,409.8356 504.2442,402.4139 C500.1615,407.1206 495.8108,406.6389 493.2101,400.8551 C489.4842,406.6068 485.5394,405.7854 481.566,401.1321 C477.4093,406.2483 472.4337,404.9909 470.4714,398.95 C463.0223,396.1773 460.081,389.1414 467.5545,383.5435 C458.8423,379.9898 458.0284,372.3847 466.0288,367.2646 C458.5259,362.0791 458.9869,356.9143 467.0877,352.8772 C460.4461,346.3804 462.298,339.1173 471.5165,337.062" fill="#585858" filter="url(#fsawm75hpkfuv)"/><text fill="#FAFAFA" font-family="sans-serif" font-size="14" font-style="italic" lengthAdjust="spacing" textLength="55.043" x="522.9639" y="355.2764">&#171;cloud&#187;</text><text fill="#FAFAFA" font-family="sans-serif" font-size="14" lengthAdjust="spacing" textLength="147.9707" x="476.5" y="371.5732">75+ model providers</text><text fill="#FAFAFA" font-family="sans-serif" font-size="14" lengthAdjust="spacing" textLength="146.3301" x="477.3203" y="387.8701">(any LLM &#183; hot-swap)</text></g><g class="entity" data-qualified-name="GMN12" data-source-line="27" id="ent0013"><path d="M674.5,339.2813 L674.5,394.6797 L1144.6665,394.6797 L1144.6665,349.2813 L1134.6665,339.2813 L674.5,339.2813" fill="#E5E4E4" filter="url(#fsawm75hpkfuv)" style="stroke:#B4B3B3;stroke-width:0.5;"/><path d="M1134.6665,339.2813 L1134.6665,349.2813 L1144.6665,349.2813 L1134.6665,339.2813" fill="#E5E4E4" style="stroke:#B4B3B3;stroke-width:1;"/><text fill="#181818" font-family="sans-serif" font-size="13" lengthAdjust="spacing" textLength="449.1665" x="680.5" y="356.3481">Anti-framework coding agent: a client/server terminal agent wired to</text><text fill="#181818" font-family="sans-serif" font-size="13" font-weight="700" lengthAdjust="spacing" textLength="26.5015" x="694.4807" y="371.481">any</text><text fill="#181818" font-family="sans-serif" font-size="13" lengthAdjust="spacing" textLength="390.5713" x="725.1145" y="371.481">model provider (75+, hot-swappable), with direct file / LSP /</text><text fill="#181818" font-family="sans-serif" font-size="13" lengthAdjust="spacing" textLength="441.0923" x="684.5371" y="386.6138">real-shell (PTY) tools. MIT, ~160k&#9733; &#8212; a top-starred coding harness.</text></g><!--link TUI to SRV--><g class="link" data-entity-1="ent0001" data-entity-2="ent0002" data-link-type="dependency" data-source-line="20" id="lnk7"><path d="M444.5,104.3612 C444.5,126.0612 444.5,152.3513 444.5,176.0913" fill="none" id="TUI-to-SRV" style="stroke:#585858;stroke-width:2;"/><polygon fill="#585858" points="444.5,181.0913,448.5,172.0913,444.5,176.0913,440.5,172.0913,444.5,181.0913" style="stroke:#585858;stroke-width:2;stroke-linejoin:miter;stroke-miterlimit:10;"/><text fill="#181818" font-family="sans-serif" font-size="13" lengthAdjust="spacing" textLength="85.1538" x="445.5" y="147.3481">drive session</text></g><!--link SRV to LLM--><g class="link" data-entity-1="ent0002" data-entity-2="ent0006" data-link-type="dependency" data-source-line="21" id="lnk8"><path d="M468.55,250.5913 C484.74,273.3413 503.2213,299.3272 520.0913,323.0372" fill="none" id="SRV-to-LLM" style="stroke:#585858;stroke-width:2;"/><polygon fill="#585858" points="522.99,327.1113,521.0315,317.4591,520.0913,323.0372,514.5131,322.097,522.99,327.1113" style="stroke:#585858;stroke-width:2;stroke-linejoin:miter;stroke-miterlimit:10;"/><text fill="#181818" font-family="sans-serif" font-size="13" lengthAdjust="spacing" textLength="147.4243" x="502.5" y="293.3481">provider-agnostic calls</text></g><!--link SRV to TOOLS--><g class="link" data-entity-1="ent0002" data-entity-2="ent0003" data-link-type="dependency" data-source-line="22" id="lnk9"><path d="M369.35,250.4013 C314.68,274.8713 245.5438,305.7988 190.9338,330.2388" fill="none" id="SRV-to-TOOLS" style="stroke:#585858;stroke-width:2;"/><polygon fill="#585858" points="186.37,332.2813,196.2188,332.2558,190.9338,330.2388,192.9509,324.9538,186.37,332.2813" style="stroke:#585858;stroke-width:2;stroke-linejoin:miter;stroke-miterlimit:10;"/><text fill="#181818" font-family="sans-serif" font-size="13" lengthAdjust="spacing" textLength="57.8589" x="299.5" y="293.3481">tool calls</text></g><!--link TOOLS to REPO--><g class="link" data-entity-1="ent0003" data-entity-2="ent0005" data-link-type="dependency" data-source-line="23" id="lnk10"><path d="M111.5,401.5313 C111.5,426.2113 111.5,454.3913 111.5,478.1813" fill="none" id="TOOLS-to-REPO" style="stroke:#585858;stroke-width:2;"/><polygon fill="#585858" points="111.5,483.1813,115.5,474.1813,111.5,478.1813,107.5,474.1813,111.5,483.1813" style="stroke:#585858;stroke-width:2;stroke-linejoin:miter;stroke-miterlimit:10;"/><text fill="#181818" font-family="sans-serif" font-size="13" lengthAdjust="spacing" textLength="101.6323" x="112.5" y="449.3481">edit / run / read</text></g><!--link SRV to DB--><g class="link" data-entity-1="ent0002" data-entity-2="ent0004" data-link-type="dependency" data-source-line="24" id="lnk11"><path d="M420.45,250.5913 C402.24,276.1813 380.3685,306.9271 362.8385,331.5671" fill="none" id="SRV-to-DB" style="stroke:#585858;stroke-width:2;"/><polygon fill="#585858" points="359.94,335.6413,368.4166,330.6266,362.8385,331.5671,361.898,325.989,359.94,335.6413" style="stroke:#585858;stroke-width:2;stroke-linejoin:miter;stroke-miterlimit:10;"/><text fill="#181818" font-family="sans-serif" font-size="13" lengthAdjust="spacing" textLength="80.9136" x="399.5" y="293.3481">persist state</text></g><!--link SRV to GMN12--><g class="link" data-entity-1="ent0002" data-entity-2="ent0013" data-link-type="association" data-source-line="27" id="lnk14"><path d="M560.54,250.3012 C592.37,259.7413 626.84,270.1913 658.5,280.2813 C717.83,299.1813 784.52,321.9713 834.25,339.2713" fill="none" id="SRV-GMN12" style="stroke:#585858;stroke-width:1;stroke-dasharray:7,7;"/></g><?plantuml-src VLN1RXit4BtlLqnzgUHgTnMdJT5D4C2D7K207BcIdA10WOBYKbxMN98WkHPqANhf7_JGF-czdv8lwIDNagt0xXxatI7dpSoRD-ElfEQggmKr8LXVbQLZc-9MXgPRTLuuRdGGEXJSjALrvbwOdBDIrh39i2rR9lNENjYkLHciIf2nGdC3qCz__9K-ScywnmK5uLgfcIASIdrBx1P0sTTqxKpTyL0zU0uMYoMLTAvDozHs-2NIYAucon6rdGeoZmaW9VSi_CryMb5yzaNkmnHCFdNSrv-APdq2t1nyu30Lzq95bs_nyTwuLZYrhSW9QuZB86fY_YamxqDvn4qiqecLOxg6Kp3xUWa6Qa4hZ4sC-F3485u6uxQlunaPLPDbeI4Vf5BqSdoMEr5B9tZm8zeqaZSaFLu0YZiiT3ut6Y6Kr7V46y7l4gOB_YYE3DG8faApBUYZS78jaSpP-EnLFluX7xyew16708XAy2aX3igqvEY2xRjAI1SDZV4ICqTXV8VyriwqoRUpFZZ1MffVdbzSNGvVapQXrrE-ZuLY62vBL-UMkR2bsd1FhNJEk56yJsQzbbmoLI3I1_XNEzuKuwBFKJ2d90Gp0_0xu4wWScUTm2yuwkejLEwHCwDQhjV2GKQZMFpBMDDle7QOPMYeDHedTBBSw-vcGeFbpMHuGiy-K0PkuEND6sRjsxUFSGxQmEJT2_UB7d2agKFPVqFMJj2___Iw9cMCHIG0BkOVdu9R6gCyG2274Dt0R9t-ThgyNluSNwUBwuTaOsgpsNHnmAfPOAj819qiXFVIQB0JSnWiVfgYgS_K2PoB7ocLMA-EOJuPT-Sj-a23ABh_8oh2p2-lPmSOhanNfvEJxx_x1kDHYwInDFknJgQtD9rUnReQ4tA_OJO5050qHw240Qoixy7vV3xxzElL-UG39HA9AggTl8yTIFLclRM_zsuwkxdOGLM7o3cxrGR3nw5yfVoHHu_SarfXletQNUfDZo_rfLQKcbN67iLVTEm9m9vTf82wfGzfh4MMfLbPcH0mJMOT2yhWXqsThnrhnGRS7st62eDqBB330kqLji4QYMi9CAUdOFVqz0lMQO1EZ0viMxPIOeYjWvL7_GwYjSG_X38AZSeiZY5JkMy4LjK06XmcKdpHh_FVNxmQttt--y-q6p7ankOepSKaTdatp6bqfiW45cIizpy0?></g></svg>